<svg width="118" height="208" viewBox="0 0 118 208" fill="none" xmlns="http://www.w3.org/2000/svg">
<circle cx="5" cy="5" r="5" fill="#C7E1E5"/>
<circle cx="5" cy="27" r="5" fill="#C7E1E5"/>
<circle cx="5" cy="49" r="5" fill="#C7E1E5"/>
<circle cx="5" cy="71" r="5" fill="#C7E1E5"/>
<circle cx="5" cy="93" r="5" fill="#C7E1E5"/>
<circle cx="5" cy="115" r="5" fill="#C7E1E5"/>
<circle cx="5" cy="137" r="5" fill="#C7E1E5"/>
<circle cx="5" cy="159" r="5" fill="#C7E1E5"/>
<circle cx="5" cy="181" r="5" fill="#C7E1E5"/>
<circle cx="5" cy="203" r="5" fill="#C7E1E5"/>
<circle cx="23" cy="5" r="5" fill="#C7E1E5"/>
<circle cx="23" cy="27" r="5" fill="#C7E1E5"/>
<circle cx="23" cy="49" r="5" fill="#C7E1E5"/>
<circle cx="23" cy="71" r="5" fill="#C7E1E5"/>
<circle cx="23" cy="93" r="5" fill="#C7E1E5"/>
<circle cx="23" cy="115" r="5" fill="#C7E1E5"/>
<circle cx="23" cy="137" r="5" fill="#C7E1E5"/>
<circle cx="23" cy="159" r="5" fill="#C7E1E5"/>
<circle cx="23" cy="181" r="5" fill="#C7E1E5"/>
<circle cx="23" cy="203" r="5" fill="#C7E1E5"/>
<circle cx="41" cy="5" r="5" fill="#C7E1E5"/>
<circle cx="41" cy="27" r="5" fill="#C7E1E5"/>
<circle cx="41" cy="49" r="5" fill="#C7E1E5"/>
<circle cx="41" cy="71" r="5" fill="#C7E1E5"/>
<circle cx="41" cy="93" r="5" fill="#C7E1E5"/>
<circle cx="41" cy="115" r="5" fill="#C7E1E5"/>
<circle cx="41" cy="137" r="5" fill="#C7E1E5"/>
<circle cx="41" cy="159" r="5" fill="#C7E1E5"/>
<circle cx="41" cy="181" r="5" fill="#C7E1E5"/>
<circle cx="41" cy="203" r="5" fill="#C7E1E5"/>
<circle cx="59" cy="5" r="5" fill="#C7E1E5"/>
<circle cx="59" cy="27" r="5" fill="#C7E1E5"/>
<circle cx="59" cy="49" r="5" fill="#C7E1E5"/>
<circle cx="59" cy="71" r="5" fill="#C7E1E5"/>
<circle cx="59" cy="93" r="5" fill="#C7E1E5"/>
<circle cx="59" cy="115" r="5" fill="#C7E1E5"/>
<circle cx="59" cy="137" r="5" fill="#C7E1E5"/>
<circle cx="59" cy="159" r="5" fill="#C7E1E5"/>
<circle cx="59" cy="181" r="5" fill="#C7E1E5"/>
<circle cx="59" cy="203" r="5" fill="#C7E1E5"/>
<circle cx="77" cy="5" r="5" fill="#C7E1E5"/>
<circle cx="77" cy="27" r="5" fill="#C7E1E5"/>
<circle cx="77" cy="49" r="5" fill="#C7E1E5"/>
<circle cx="77" cy="71" r="5" fill="#C7E1E5"/>
<circle cx="77" cy="93" r="5" fill="#C7E1E5"/>
<circle cx="77" cy="115" r="5" fill="#C7E1E5"/>
<circle cx="77" cy="137" r="5" fill="#C7E1E5"/>
<circle cx="77" cy="159" r="5" fill="#C7E1E5"/>
<circle cx="77" cy="181" r="5" fill="#C7E1E5"/>
<circle cx="77" cy="203" r="5" fill="#C7E1E5"/>
<circle cx="95" cy="5" r="5" fill="#C7E1E5"/>
<circle cx="95" cy="27" r="5" fill="#C7E1E5"/>
<circle cx="95" cy="49" r="5" fill="#C7E1E5"/>
<circle cx="95" cy="71" r="5" fill="#C7E1E5"/>
<circle cx="95" cy="93" r="5" fill="#C7E1E5"/>
<circle cx="95" cy="115" r="5" fill="#C7E1E5"/>
<circle cx="95" cy="137" r="5" fill="#C7E1E5"/>
<circle cx="95" cy="159" r="5" fill="#C7E1E5"/>
<circle cx="95" cy="181" r="5" fill="#C7E1E5"/>
<circle cx="95" cy="203" r="5" fill="#C7E1E5"/>
<circle cx="113" cy="5" r="5" fill="#C7E1E5"/>
<circle cx="113" cy="27" r="5" fill="#C7E1E5"/>
<circle cx="113" cy="49" r="5" fill="#C7E1E5"/>
<circle cx="113" cy="71" r="5" fill="#C7E1E5"/>
<circle cx="113" cy="93" r="5" fill="#C7E1E5"/>
<circle cx="113" cy="115" r="5" fill="#C7E1E5"/>
<circle cx="113" cy="137" r="5" fill="#C7E1E5"/>
<circle cx="113" cy="159" r="5" fill="#C7E1E5"/>
<circle cx="113" cy="181" r="5" fill="#C7E1E5"/>
<circle cx="113" cy="203" r="5" fill="#C7E1E5"/>
</svg>
