<svg width="32" height="32" viewBox="0 0 32 32" fill="none" xmlns="http://www.w3.org/2000/svg">
<path d="M16 4C18.25 4.03125 20.2656 4.59375 22.0469 5.6875C23.8281 6.78125 25.2344 8.23438 26.2656 10.0469C27.3281 11.8594 27.9062 13.8438 28 16V22.75C27.9688 23.9062 27.5625 24.875 26.7812 25.6562C26 26.4375 25.0312 26.8438 23.875 26.875H18.6719C18.2656 27.5938 17.625 27.9688 16.75 28H15.2031C14.5781 27.9688 14.0625 27.75 13.6562 27.3438C13.25 26.9062 13.0312 26.375 13 25.75C13.0312 25.125 13.25 24.5938 13.6562 24.1562C14.0938 23.75 14.625 23.5312 15.25 23.5H16.75C17.625 23.5312 18.2656 23.9062 18.6719 24.625H23.875C24.4062 24.625 24.8438 24.4375 25.1875 24.0625C25.5625 23.7188 25.75 23.2812 25.75 22.75V21.7656C25.375 21.9219 24.9844 22 24.5781 22H23.7344C23.2344 22 22.8281 21.8281 22.5156 21.4844C22.1719 21.1719 22 20.7656 22 20.2656V13.9844C22 13.4844 22.1719 13.0781 22.5156 12.7656C22.8281 12.4219 23.2344 12.25 23.7344 12.25H24.5781C24.6406 12.25 24.7031 12.25 24.7656 12.25C24.8281 12.2812 24.9062 12.2812 25 12.25C24.25 10.4688 23.0781 9.03125 21.4844 7.9375C19.8906 6.84375 18.0625 6.28125 16 6.25C13.9375 6.28125 12.1094 6.84375 10.5156 7.9375C8.92188 9.03125 7.75 10.4844 7 12.2969C7.03125 12.2969 7.0625 12.2969 7.09375 12.2969C7.21875 12.2656 7.32812 12.25 7.42188 12.25H8.26562C8.76562 12.25 9.17188 12.4219 9.48438 12.7656C9.82812 13.0781 10 13.4844 10 13.9844V20.2656C10 20.7656 9.82812 21.1719 9.48438 21.4844C9.17188 21.8281 8.76562 22 8.26562 22H7.42188C6.45312 21.9688 5.64062 21.625 4.98438 20.9688C4.35938 20.3125 4.03125 19.4844 4 18.4844V16C4.09375 13.8438 4.67188 11.8594 5.73438 10.0469C6.76562 8.23438 8.17188 6.78125 9.95312 5.6875C11.7344 4.59375 13.75 4.03125 16 4ZM7.42188 14.5C6.76562 14.5625 6.375 14.9531 6.25 15.6719C6.25 15.7031 6.25 15.75 6.25 15.8125C6.25 15.875 6.25 15.9375 6.25 16V18.4844C6.25 18.8281 6.35938 19.125 6.57812 19.375C6.79688 19.625 7.07812 19.75 7.42188 19.75H7.75V14.5H7.42188ZM24.5781 19.75C24.9219 19.75 25.2031 19.625 25.4219 19.375C25.6406 19.125 25.75 18.8281 25.75 18.4844V16C25.75 15.9375 25.75 15.875 25.75 15.8125C25.75 15.75 25.75 15.7031 25.75 15.6719C25.625 14.9531 25.2344 14.5625 24.5781 14.5H24.25V19.75H24.5781Z" fill="#121212"/>
</svg>
