<svg width="32" height="32" viewBox="0 0 32 32" fill="none" xmlns="http://www.w3.org/2000/svg">
<path d="M20.125 9.25C20.4375 9.25 20.7031 9.375 20.9219 9.625C21.1406 9.84375 21.25 10.1094 21.25 10.4219C21.1875 11.0781 20.8125 11.4375 20.125 11.5H17.125V17.875C17.0625 18.5625 16.6875 18.9375 16 19C15.3125 18.9375 14.9375 18.5625 14.875 17.875V11.5L11.875 11.4531C11.1875 11.3906 10.8125 11.0312 10.75 10.375C10.8125 9.6875 11.1875 9.3125 11.875 9.25H20.125ZM25 4C25.8438 4.03125 26.5469 4.32812 27.1094 4.89062C27.6719 5.45312 27.9688 6.14063 28 6.95312V20.5C27.9688 21.3125 27.6719 22 27.1094 22.5625C26.5469 23.125 25.8438 23.4219 25 23.4531H18.25L12.3906 27.7656C12.2031 27.8906 12.0156 27.9062 11.8281 27.8125C11.6094 27.7188 11.5 27.5469 11.5 27.2969V23.3594H7C6.15625 23.3594 5.45312 23.0781 4.89062 22.5156C4.32812 21.9531 4.03125 21.25 4 20.4062V6.95312C4.03125 6.14063 4.32812 5.45312 4.89062 4.89062C5.45312 4.32812 6.15625 4.03125 7 4H25ZM25.75 20.5V7C25.7188 6.53125 25.4688 6.28125 25 6.25H7C6.53125 6.28125 6.28125 6.53125 6.25 7V20.5C6.28125 20.9688 6.53125 21.2188 7 21.25H13.75V24.0625L17.5 21.25H25C25.4688 21.2188 25.7188 20.9688 25.75 20.5Z" fill="#121212"/>
</svg>
