<svg width="32" height="32" viewBox="0 0 32 32" fill="none" xmlns="http://www.w3.org/2000/svg">
<path d="M20.125 9.25C20.8125 9.3125 21.1875 9.6875 21.25 10.375V16.375C21.1875 17.0625 20.8125 17.4375 20.125 17.5C19.4375 17.4375 19.0625 17.0625 19 16.375V13.0938L14.5 17.5938C13.9688 18.0312 13.4375 18.0312 12.9062 17.5938C12.4688 17.0625 12.4688 16.5312 12.9062 16L17.4062 11.5H14.125C13.4375 11.4375 13.0625 11.0625 13 10.375C13.0625 9.6875 13.4375 9.3125 14.125 9.25H20.125ZM25 4C25.8438 4.03125 26.5469 4.32812 27.1094 4.89062C27.6719 5.45312 27.9688 6.14063 28 6.95312V20.5C27.9688 21.3125 27.6719 22 27.1094 22.5625C26.5469 23.125 25.8438 23.4219 25 23.4531H18.25L12.3906 27.8594C12.2031 27.9844 12.0156 28 11.8281 27.9062C11.6094 27.8125 11.5 27.6406 11.5 27.3906V23.3594H7C6.15625 23.3594 5.45312 23.0781 4.89062 22.5156C4.32812 21.9531 4.03125 21.25 4 20.4062V6.95312C4.03125 6.14063 4.32812 5.45312 4.89062 4.89062C5.45312 4.32812 6.15625 4.03125 7 4H25ZM25.75 20.5V7C25.7188 6.53125 25.4688 6.28125 25 6.25H7C6.53125 6.28125 6.28125 6.53125 6.25 7V20.5C6.28125 20.9688 6.53125 21.2188 7 21.25H13.75V24.0625L17.5 21.25H25C25.4688 21.2188 25.7188 20.9688 25.75 20.5Z" fill="#121212"/>
</svg>
