<svg width="559" height="381" viewBox="0 0 559 381" fill="none" xmlns="http://www.w3.org/2000/svg">
<rect x="338.827" y="69.7943" width="46.9412" height="46.9412" rx="23.4706" fill="#A0D8A5"/>
<path d="M362.132 96.5976C361.088 96.5721 360.222 96.2155 359.535 95.5279C358.847 94.8403 358.491 93.9744 358.465 92.9303V86.8181C358.491 85.774 358.847 84.9081 359.535 84.2205C360.222 83.5329 361.088 83.1763 362.132 83.1509C363.177 83.1763 364.042 83.5329 364.73 84.2205C365.418 84.9081 365.774 85.774 365.8 86.8181L362.744 86.7799C362.362 86.8054 362.158 87.0091 362.132 87.3911C362.158 87.7732 362.362 87.9769 362.744 88.0024H365.8V89.263H362.744C362.362 89.2885 362.158 89.4922 362.132 89.8742C362.158 90.2562 362.362 90.46 362.744 90.4854H365.8V91.7078H362.744C362.362 91.7333 362.158 91.937 362.132 92.3191C362.158 92.7011 362.362 92.9048 362.744 92.9303H365.8C365.774 93.9744 365.418 94.8403 364.73 95.5279C364.042 96.2155 363.177 96.5721 362.132 96.5976ZM367.939 90.4854C368.499 90.5364 368.805 90.8292 368.856 91.364V92.9303C368.83 94.662 368.27 96.1391 367.175 97.3616C366.105 98.584 364.73 99.3225 363.049 99.5772V100.876H364.577C364.934 100.876 365.227 101.003 365.456 101.258C365.685 101.487 365.8 101.793 365.8 102.175C365.749 102.506 365.545 102.684 365.188 102.71H359.076C358.72 102.684 358.516 102.506 358.465 102.175C358.465 101.793 358.58 101.487 358.809 101.258C359.038 101.003 359.331 100.876 359.688 100.876H361.216V99.539C359.509 99.2589 358.121 98.4694 357.052 97.1706C355.982 95.8717 355.435 94.3437 355.409 92.5865V91.364C355.46 90.8292 355.766 90.5364 356.326 90.4854C356.886 90.5364 357.192 90.8292 357.243 91.364V92.7393C357.268 94.0381 357.714 95.1841 358.58 96.1773C359.446 97.1451 360.528 97.6926 361.827 97.82C363.278 97.8709 364.501 97.4252 365.494 96.4829C366.462 95.5661 366.971 94.3819 367.022 92.9303V91.364C367.073 90.8292 367.379 90.5364 367.939 90.4854Z" fill="white"/>
<path d="M398.431 87.2648V77.2038H402.1C403.289 77.2038 404.197 77.4828 404.823 78.0409C405.454 78.599 405.769 79.337 405.769 80.2549C405.769 81.1625 405.454 81.8953 404.823 82.4534C404.197 83.0114 403.289 83.2905 402.1 83.2905H400.105V87.2648H398.431ZM403.931 87.2648L401.208 82.5864H403L406.114 87.2648H403.931ZM400.105 82.1561H401.936C402.629 82.1561 403.156 81.9944 403.516 81.671C403.876 81.3424 404.056 80.9199 404.056 80.4036C404.056 79.8716 403.889 79.4465 403.555 79.1284C403.227 78.805 402.742 78.6433 402.1 78.6433H400.105V82.1561ZM410.663 87.4761C410.016 87.4761 409.427 87.3092 408.895 86.9754C408.368 86.6416 407.946 86.1748 407.628 85.5749C407.315 84.9751 407.158 84.2789 407.158 83.4861C407.158 82.6516 407.315 81.937 407.628 81.3424C407.941 80.7478 408.36 80.2915 408.887 79.9733C409.419 79.6551 410.011 79.4961 410.663 79.4961C411.263 79.4961 411.777 79.616 412.204 79.8559C412.632 80.0959 412.976 80.4192 413.237 80.8261C413.503 81.2329 413.683 81.6945 413.777 82.2108C413.871 82.722 413.881 83.2514 413.808 83.799H408.496V82.868H412.642L412.283 83.1027C412.298 82.8367 412.285 82.5707 412.243 82.3047C412.202 82.0387 412.121 81.7962 412.001 81.5771C411.886 81.3529 411.722 81.1729 411.508 81.0373C411.294 80.9017 411.023 80.8339 410.694 80.8339C410.288 80.8339 409.943 80.9356 409.662 81.139C409.385 81.3424 409.177 81.6162 409.036 81.9605C408.895 82.3047 408.825 82.6881 408.825 83.1105V83.7834C408.825 84.2371 408.892 84.6387 409.028 84.9882C409.164 85.3376 409.367 85.6141 409.638 85.8175C409.909 86.0209 410.251 86.1226 410.663 86.1226C411.06 86.1226 411.388 86.0313 411.649 85.8488C411.915 85.661 412.082 85.382 412.15 85.0117H413.847C413.769 85.5019 413.587 85.9322 413.3 86.3025C413.013 86.6729 412.645 86.9623 412.197 87.1709C411.748 87.3744 411.237 87.4761 410.663 87.4761ZM418.461 87.4761C417.836 87.4761 417.251 87.3118 416.709 86.9832C416.172 86.6546 415.736 86.1904 415.402 85.5906C415.074 84.9908 414.91 84.2867 414.91 83.4782C414.91 82.6229 415.074 81.9005 415.402 81.3111C415.736 80.7165 416.172 80.2654 416.709 79.9577C417.251 79.6499 417.836 79.4961 418.461 79.4961C418.936 79.4961 419.356 79.5717 419.721 79.7229C420.091 79.8742 420.407 80.0776 420.668 80.3332C420.929 80.5888 421.135 80.8756 421.286 81.1938C421.442 81.5067 421.547 81.8275 421.599 82.1561L419.901 82.2187C419.807 81.8588 419.635 81.5667 419.385 81.3424C419.14 81.1129 418.827 80.9982 418.446 80.9982C418.128 80.9982 417.828 81.0869 417.546 81.2642C417.27 81.4363 417.043 81.7049 416.865 82.07C416.693 82.4351 416.607 82.9045 416.607 83.4782C416.607 84.0155 416.688 84.4692 416.85 84.8395C417.012 85.2046 417.231 85.4837 417.507 85.6767C417.789 85.8644 418.102 85.9583 418.446 85.9583C418.941 85.9583 419.306 85.8383 419.541 85.5984C419.781 85.3533 419.901 85.0247 419.901 84.6127H421.599C421.599 85.1447 421.476 85.6271 421.231 86.06C420.986 86.4929 420.629 86.8371 420.159 87.0927C419.695 87.3483 419.129 87.4761 418.461 87.4761ZM426.307 87.4761C425.624 87.4761 425.005 87.3274 424.453 87.0301C423.905 86.7328 423.469 86.2895 423.146 85.7001C422.823 85.1108 422.661 84.3753 422.661 83.4939C422.661 82.5968 422.823 81.8536 423.146 81.2642C423.469 80.6748 423.905 80.2341 424.453 79.942C425.005 79.6447 425.624 79.4961 426.307 79.4961C426.99 79.4961 427.603 79.6447 428.145 79.942C428.693 80.2341 429.126 80.6748 429.444 81.2642C429.767 81.8536 429.929 82.5968 429.929 83.4939C429.929 84.3753 429.767 85.1108 429.444 85.7001C429.126 86.2895 428.693 86.7328 428.145 87.0301C427.603 87.3274 426.99 87.4761 426.307 87.4761ZM426.26 86.0131C426.656 86.0131 427.003 85.9166 427.3 85.7236C427.603 85.5306 427.838 85.2464 428.004 84.8708C428.171 84.4953 428.255 84.0363 428.255 83.4939C428.255 82.6646 428.088 82.0335 427.754 81.6006C427.426 81.1625 426.961 80.9434 426.362 80.9434C425.96 80.9434 425.608 81.0399 425.305 81.2329C425.008 81.4259 424.776 81.7127 424.609 82.0935C424.442 82.4742 424.359 82.941 424.359 83.4939C424.359 84.3075 424.526 84.9308 424.859 85.3637C425.193 85.7966 425.66 86.0131 426.26 86.0131ZM431.698 87.2648V79.676H433.372V87.2648H431.698ZM432.942 83.9164C432.942 82.9358 433.049 82.1248 433.263 81.4832C433.476 80.8365 433.769 80.3567 434.139 80.0437C434.509 79.7256 434.932 79.5665 435.406 79.5665C435.547 79.5665 435.675 79.5769 435.79 79.5978C435.91 79.6134 436.03 79.6395 436.15 79.676L436.103 81.3424C435.962 81.3059 435.81 81.2772 435.649 81.2564C435.492 81.2303 435.349 81.2172 435.219 81.2172C434.806 81.2172 434.462 81.3242 434.186 81.538C433.915 81.7466 433.711 82.0518 433.576 82.4534C433.44 82.855 433.372 83.3426 433.372 83.9164H432.942ZM440.003 87.4761C439.377 87.4761 438.804 87.3092 438.282 86.9754C437.76 86.6416 437.346 86.1748 437.038 85.5749C436.73 84.9699 436.577 84.2606 436.577 83.4469C436.577 82.6437 436.725 81.9474 437.022 81.3581C437.325 80.7635 437.727 80.3045 438.227 79.9811C438.728 79.6578 439.283 79.4961 439.894 79.4961C440.452 79.4961 440.937 79.6317 441.349 79.9029C441.761 80.1689 442.076 80.5627 442.296 81.0842C442.52 81.6006 442.632 82.2343 442.632 82.9854H442.084C442.084 82.5629 441.998 82.203 441.826 81.9057C441.654 81.6084 441.43 81.3841 441.153 81.2329C440.877 81.0764 440.577 80.9982 440.254 80.9982C439.878 80.9982 439.539 81.0999 439.237 81.3033C438.939 81.5015 438.705 81.7858 438.532 82.1561C438.36 82.5212 438.274 82.9515 438.274 83.4469C438.274 83.9581 438.36 84.4014 438.532 84.7769C438.705 85.1525 438.939 85.4446 439.237 85.6532C439.539 85.8566 439.875 85.9583 440.246 85.9583C440.553 85.9583 440.846 85.8775 441.122 85.7158C441.404 85.5489 441.633 85.3168 441.81 85.0195C441.993 84.717 442.084 84.3597 442.084 83.9477H442.632C442.632 84.7248 442.512 85.3768 442.272 85.9035C442.037 86.4251 441.719 86.8189 441.318 87.0849C440.921 87.3457 440.483 87.4761 440.003 87.4761ZM442.389 87.2648L442.084 85.4185V76.5466H443.766V87.2648H442.389ZM448.342 77.2038H450.337L452.872 81.6788H452.52L455.133 77.2038H457.112L453.513 83.1184V87.2648H451.839V83.1184L448.342 77.2038ZM459.96 87.4761C459.277 87.4761 458.659 87.3274 458.106 87.0301C457.558 86.7328 457.123 86.2895 456.799 85.7001C456.476 85.1108 456.314 84.3753 456.314 83.4939C456.314 82.5968 456.476 81.8536 456.799 81.2642C457.123 80.6748 457.558 80.2341 458.106 79.942C458.659 79.6447 459.277 79.4961 459.96 79.4961C460.643 79.4961 461.256 79.6447 461.799 79.942C462.346 80.2341 462.779 80.6748 463.097 81.2642C463.421 81.8536 463.582 82.5968 463.582 83.4939C463.582 84.3753 463.421 85.1108 463.097 85.7001C462.779 86.2895 462.346 86.7328 461.799 87.0301C461.256 87.3274 460.643 87.4761 459.96 87.4761ZM459.913 86.0131C460.31 86.0131 460.656 85.9166 460.954 85.7236C461.256 85.5306 461.491 85.2464 461.658 84.8708C461.825 84.4953 461.908 84.0363 461.908 83.4939C461.908 82.6646 461.741 82.0335 461.408 81.6006C461.079 81.1625 460.615 80.9434 460.015 80.9434C459.613 80.9434 459.261 81.0399 458.959 81.2329C458.661 81.4259 458.429 81.7127 458.262 82.0935C458.096 82.4742 458.012 82.941 458.012 83.4939C458.012 84.3075 458.179 84.9308 458.513 85.3637C458.847 85.7966 459.313 86.0131 459.913 86.0131ZM470.421 79.676H472.087V87.2648H470.421V79.676ZM465.179 79.676H466.853V84.3388C466.853 84.8708 466.984 85.2724 467.245 85.5437C467.505 85.8097 467.871 85.9427 468.34 85.9427C468.731 85.9427 469.083 85.8409 469.396 85.6375C469.714 85.4289 469.965 85.129 470.147 84.7378C470.33 84.3467 470.421 83.872 470.421 83.3139H470.906C470.906 84.2163 470.786 84.9725 470.546 85.5828C470.306 86.1878 469.972 86.6442 469.545 86.9519C469.117 87.2544 468.619 87.4057 468.05 87.4057C467.508 87.4057 467.018 87.3066 466.58 87.1084C466.147 86.9102 465.805 86.5998 465.555 86.1774C465.304 85.7497 465.179 85.1916 465.179 84.5031V79.676ZM474.6 87.2648V79.676H476.274V87.2648H474.6ZM475.844 83.9164C475.844 82.9358 475.951 82.1248 476.165 81.4832C476.379 80.8365 476.671 80.3567 477.041 80.0437C477.411 79.7256 477.834 79.5665 478.309 79.5665C478.449 79.5665 478.577 79.5769 478.692 79.5978C478.812 79.6134 478.932 79.6395 479.052 79.676L479.005 81.3424C478.864 81.3059 478.713 81.2772 478.551 81.2564C478.395 81.2303 478.251 81.2172 478.121 81.2172C477.709 81.2172 477.365 81.3242 477.088 81.538C476.817 81.7466 476.613 82.0518 476.478 82.4534C476.342 82.855 476.274 83.3426 476.274 83.9164H475.844ZM398.431 99.2038H400.833L403.837 105.572H403.688L406.692 99.2038H409.016V109.265H407.326V101.089H407.592L404.306 108.123H403.211L399.941 101.128H400.105V109.265H398.431V99.2038ZM414.3 109.476C413.653 109.476 413.064 109.309 412.532 108.975C412.005 108.642 411.582 108.175 411.264 107.575C410.951 106.975 410.795 106.279 410.795 105.486C410.795 104.652 410.951 103.937 411.264 103.342C411.577 102.748 411.997 102.291 412.524 101.973C413.056 101.655 413.648 101.496 414.3 101.496C414.9 101.496 415.413 101.616 415.841 101.856C416.269 102.096 416.613 102.419 416.874 102.826C417.14 103.233 417.32 103.694 417.414 104.211C417.508 104.722 417.518 105.251 417.445 105.799H412.133V104.868H416.279L415.919 105.103C415.935 104.837 415.922 104.571 415.88 104.305C415.838 104.039 415.758 103.796 415.638 103.577C415.523 103.353 415.359 103.173 415.145 103.037C414.931 102.902 414.66 102.834 414.331 102.834C413.924 102.834 413.58 102.936 413.298 103.139C413.022 103.342 412.813 103.616 412.673 103.96C412.532 104.305 412.461 104.688 412.461 105.111V105.783C412.461 106.237 412.529 106.639 412.665 106.988C412.8 107.338 413.004 107.614 413.275 107.817C413.546 108.021 413.888 108.123 414.3 108.123C414.696 108.123 415.025 108.031 415.286 107.849C415.552 107.661 415.719 107.382 415.786 107.012H417.484C417.406 107.502 417.223 107.932 416.936 108.303C416.65 108.673 416.282 108.962 415.833 109.171C415.385 109.374 414.874 109.476 414.3 109.476ZM422.075 109.476C421.35 109.476 420.729 109.374 420.213 109.171C419.702 108.968 419.308 108.681 419.031 108.31C418.76 107.935 418.622 107.489 418.617 106.973H420.174C420.194 107.374 420.356 107.671 420.659 107.864C420.961 108.052 421.371 108.146 421.887 108.146C422.169 108.146 422.422 108.104 422.646 108.021C422.87 107.932 423.045 107.815 423.17 107.669C423.3 107.518 423.366 107.351 423.366 107.168C423.366 106.933 423.28 106.748 423.107 106.613C422.941 106.477 422.669 106.354 422.294 106.245L420.69 105.689C420.085 105.481 419.621 105.202 419.297 104.852C418.974 104.503 418.812 104.086 418.812 103.601C418.812 102.969 419.097 102.461 419.665 102.075C420.234 101.689 420.99 101.496 421.934 101.496C422.894 101.496 423.634 101.702 424.156 102.114C424.677 102.526 424.946 103.045 424.962 103.671H423.373C423.342 103.4 423.209 103.189 422.974 103.037C422.74 102.881 422.393 102.803 421.934 102.803C421.511 102.803 421.18 102.894 420.94 103.076C420.706 103.254 420.588 103.457 420.588 103.687C420.588 104.088 420.933 104.388 421.621 104.586L423.334 105.212C423.934 105.41 424.398 105.666 424.727 105.979C425.056 106.292 425.22 106.688 425.22 107.168C425.22 107.565 425.087 107.94 424.821 108.295C424.56 108.644 424.195 108.928 423.726 109.147C423.256 109.367 422.706 109.476 422.075 109.476ZM429.857 109.476C429.132 109.476 428.511 109.374 427.995 109.171C427.484 108.968 427.09 108.681 426.813 108.31C426.542 107.935 426.404 107.489 426.399 106.973H427.956C427.976 107.374 428.138 107.671 428.441 107.864C428.743 108.052 429.153 108.146 429.669 108.146C429.951 108.146 430.204 108.104 430.428 108.021C430.652 107.932 430.827 107.815 430.952 107.669C431.082 107.518 431.148 107.351 431.148 107.168C431.148 106.933 431.062 106.748 430.889 106.613C430.723 106.477 430.451 106.354 430.076 106.245L428.472 105.689C427.867 105.481 427.403 105.202 427.079 104.852C426.756 104.503 426.594 104.086 426.594 103.601C426.594 102.969 426.879 102.461 427.447 102.075C428.016 101.689 428.772 101.496 429.716 101.496C430.676 101.496 431.416 101.702 431.938 102.114C432.459 102.526 432.728 103.045 432.744 103.671H431.155C431.124 103.4 430.991 103.189 430.756 103.037C430.522 102.881 430.175 102.803 429.716 102.803C429.293 102.803 428.962 102.894 428.722 103.076C428.488 103.254 428.37 103.457 428.37 103.687C428.37 104.088 428.714 104.388 429.403 104.586L431.116 105.212C431.716 105.41 432.18 105.666 432.509 105.979C432.837 106.292 433.002 106.688 433.002 107.168C433.002 107.565 432.869 107.94 432.603 108.295C432.342 108.644 431.977 108.928 431.507 109.147C431.038 109.367 430.488 109.476 429.857 109.476ZM439.626 109.265L439.415 107.473V104.383C439.415 103.809 439.297 103.389 439.063 103.123C438.828 102.857 438.444 102.724 437.912 102.724C437.605 102.724 437.336 102.769 437.107 102.857C436.877 102.946 436.697 103.079 436.567 103.256C436.442 103.428 436.379 103.642 436.379 103.898H434.541C434.541 103.329 434.676 102.87 434.947 102.521C435.224 102.166 435.612 101.908 436.113 101.746C436.619 101.58 437.219 101.496 437.912 101.496C438.544 101.496 439.096 101.6 439.571 101.809C440.051 102.012 440.424 102.331 440.69 102.763C440.956 103.196 441.089 103.754 441.089 104.438V109.265H439.626ZM437.122 109.476C436.481 109.476 435.946 109.364 435.518 109.14C435.096 108.915 434.778 108.621 434.564 108.256C434.35 107.89 434.243 107.497 434.243 107.074C434.243 106.589 434.368 106.185 434.619 105.862C434.874 105.538 435.229 105.298 435.683 105.142C436.142 104.98 436.676 104.899 437.287 104.899C437.693 104.899 438.082 104.933 438.452 105.001C438.828 105.064 439.201 105.152 439.571 105.267V106.261C439.274 106.156 438.948 106.075 438.593 106.018C438.244 105.961 437.915 105.932 437.607 105.932C437.154 105.932 436.775 106.021 436.473 106.198C436.176 106.37 436.027 106.662 436.027 107.074C436.027 107.382 436.147 107.645 436.387 107.864C436.627 108.083 437.008 108.193 437.529 108.193C437.915 108.193 438.249 108.107 438.531 107.935C438.812 107.757 439.029 107.538 439.18 107.278C439.336 107.017 439.415 106.759 439.415 106.503H439.814C439.814 107.035 439.709 107.528 439.501 107.982C439.297 108.43 438.995 108.793 438.593 109.069C438.197 109.34 437.706 109.476 437.122 109.476ZM446.224 113.169C445.384 113.169 444.662 113.051 444.057 112.817C443.457 112.587 442.996 112.279 442.672 111.894C442.349 111.513 442.187 111.098 442.187 110.65C442.187 110.102 442.385 109.679 442.782 109.382C443.183 109.085 443.692 108.936 444.307 108.936L445.473 109.413C444.946 109.413 444.539 109.515 444.253 109.719C443.971 109.927 443.83 110.211 443.83 110.571C443.83 110.947 444.039 111.249 444.456 111.479C444.878 111.714 445.468 111.831 446.224 111.831C446.782 111.831 447.265 111.75 447.671 111.588C448.084 111.427 448.402 111.213 448.626 110.947C448.85 110.686 448.962 110.41 448.962 110.118C448.962 109.919 448.892 109.752 448.751 109.617C448.616 109.481 448.404 109.413 448.117 109.413H445.473C444.962 109.413 444.503 109.333 444.096 109.171C443.695 109.009 443.376 108.793 443.142 108.522C442.907 108.25 442.79 107.95 442.79 107.622C442.79 107.304 442.878 107.033 443.056 106.808C443.233 106.579 443.47 106.404 443.768 106.284C444.07 106.159 444.404 106.096 444.769 106.096L445.176 106.66C445.019 106.66 444.868 106.691 444.722 106.753C444.581 106.816 444.464 106.91 444.37 107.035C444.276 107.155 444.229 107.306 444.229 107.489C444.229 107.703 444.32 107.88 444.503 108.021C444.691 108.162 445.014 108.232 445.473 108.232H448.117C448.9 108.232 449.513 108.381 449.956 108.678C450.405 108.97 450.629 109.413 450.629 110.008C450.629 110.54 450.449 111.046 450.089 111.526C449.734 112.011 449.228 112.405 448.571 112.707C447.914 113.015 447.132 113.169 446.224 113.169ZM446.357 106.965C445.763 106.965 445.22 106.853 444.73 106.628C444.245 106.399 443.856 106.081 443.564 105.674C443.277 105.262 443.134 104.782 443.134 104.234C443.134 103.681 443.277 103.199 443.564 102.787C443.856 102.375 444.245 102.057 444.73 101.832C445.22 101.608 445.763 101.496 446.357 101.496C446.936 101.496 447.468 101.608 447.953 101.832C448.438 102.057 448.827 102.375 449.119 102.787C449.411 103.199 449.557 103.681 449.557 104.234C449.557 104.782 449.411 105.262 449.119 105.674C448.827 106.081 448.438 106.399 447.953 106.628C447.468 106.853 446.936 106.965 446.357 106.965ZM446.365 105.791C446.871 105.791 447.254 105.643 447.515 105.345C447.781 105.048 447.914 104.678 447.914 104.234C447.914 103.765 447.781 103.387 447.515 103.1C447.254 102.813 446.868 102.67 446.357 102.67C445.862 102.67 445.478 102.813 445.207 103.1C444.936 103.387 444.8 103.765 444.8 104.234C444.8 104.678 444.936 105.048 445.207 105.345C445.478 105.643 445.864 105.791 446.365 105.791ZM448.986 102.709L448.211 102.294C448.211 101.84 448.31 101.447 448.509 101.113C448.712 100.774 448.986 100.51 449.33 100.323C449.674 100.135 450.06 100.041 450.488 100.041L450.394 101.653C449.935 101.653 449.586 101.739 449.346 101.911C449.106 102.083 448.986 102.349 448.986 102.709ZM454.707 109.476C454.06 109.476 453.471 109.309 452.939 108.975C452.412 108.642 451.99 108.175 451.672 107.575C451.359 106.975 451.202 106.279 451.202 105.486C451.202 104.652 451.359 103.937 451.672 103.342C451.985 102.748 452.404 102.291 452.931 101.973C453.463 101.655 454.055 101.496 454.707 101.496C455.307 101.496 455.821 101.616 456.248 101.856C456.676 102.096 457.02 102.419 457.281 102.826C457.547 103.233 457.727 103.694 457.821 104.211C457.915 104.722 457.925 105.251 457.852 105.799H452.54V104.868H456.687L456.327 105.103C456.342 104.837 456.329 104.571 456.288 104.305C456.246 104.039 456.165 103.796 456.045 103.577C455.93 103.353 455.766 103.173 455.552 103.037C455.338 102.902 455.067 102.834 454.738 102.834C454.332 102.834 453.987 102.936 453.706 103.139C453.429 103.342 453.221 103.616 453.08 103.96C452.939 104.305 452.869 104.688 452.869 105.111V105.783C452.869 106.237 452.936 106.639 453.072 106.988C453.208 107.338 453.411 107.614 453.682 107.817C453.954 108.021 454.295 108.123 454.707 108.123C455.104 108.123 455.432 108.031 455.693 107.849C455.959 107.661 456.126 107.382 456.194 107.012H457.891C457.813 107.502 457.631 107.932 457.344 108.303C457.057 108.673 456.689 108.962 456.241 109.171C455.792 109.374 455.281 109.476 454.707 109.476Z" fill="#E9F2ED"/>
<rect x="338.827" y="170.382" width="46.9412" height="46.9412" rx="23.4706" fill="#FFAB91"/>
<path d="M370.023 186.184C370.532 186.209 370.965 186.388 371.322 186.719C371.653 187.075 371.831 187.508 371.857 188.017C371.831 188.629 371.589 189.113 371.131 189.469L362.803 195.734C362.319 196.04 361.835 196.04 361.351 195.734L353.024 189.469C352.565 189.113 352.323 188.629 352.298 188.017C352.323 187.508 352.502 187.075 352.833 186.719C353.189 186.388 353.622 186.209 354.131 186.184H370.023ZM360.626 196.689C361.059 197.02 361.542 197.186 362.077 197.186C362.612 197.186 363.096 197.02 363.529 196.689L371.857 190.462V198.408C371.831 199.096 371.589 199.669 371.131 200.127C370.672 200.586 370.099 200.827 369.412 200.853H354.743C354.055 200.827 353.482 200.586 353.024 200.127C352.565 199.669 352.323 199.096 352.298 198.408V190.462L360.626 196.689Z" fill="white"/>
<path d="M402.045 188.064C401.164 188.064 400.397 187.85 399.745 187.423C399.093 186.995 398.587 186.387 398.227 185.6C397.873 184.812 397.695 183.873 397.695 182.783C397.695 181.652 397.883 180.702 398.259 179.936C398.634 179.164 399.151 178.582 399.808 178.191C400.465 177.795 401.211 177.596 402.045 177.596C403.193 177.596 404.095 177.878 404.752 178.441C405.415 178.999 405.845 179.724 406.043 180.616L404.252 180.953C404.079 180.4 403.803 179.954 403.422 179.615C403.047 179.276 402.588 179.106 402.045 179.106C401.576 179.106 401.148 179.244 400.762 179.521C400.376 179.792 400.069 180.202 399.839 180.749C399.615 181.292 399.503 181.97 399.503 182.783C399.503 183.545 399.599 184.207 399.792 184.77C399.99 185.329 400.277 185.761 400.653 186.069C401.033 186.377 401.498 186.531 402.045 186.531C402.739 186.531 403.279 186.346 403.665 185.975C404.056 185.605 404.252 185.13 404.252 184.551H406.051C406.051 185.292 405.887 185.923 405.558 186.445C405.235 186.966 404.773 187.368 404.173 187.65C403.579 187.926 402.869 188.064 402.045 188.064ZM407.787 187.853V180.264H409.461V187.853H407.787ZM409.031 184.504C409.031 183.524 409.138 182.713 409.351 182.071C409.565 181.425 409.857 180.945 410.228 180.632C410.598 180.314 411.02 180.155 411.495 180.155C411.636 180.155 411.764 180.165 411.878 180.186C411.998 180.202 412.118 180.228 412.238 180.264L412.191 181.931C412.05 181.894 411.899 181.865 411.738 181.844C411.581 181.818 411.438 181.805 411.307 181.805C410.895 181.805 410.551 181.912 410.275 182.126C410.003 182.335 409.8 182.64 409.664 183.041C409.529 183.443 409.461 183.931 409.461 184.504H409.031ZM416.092 188.064C415.445 188.064 414.856 187.897 414.324 187.563C413.797 187.23 413.375 186.763 413.056 186.163C412.743 185.563 412.587 184.867 412.587 184.074C412.587 183.24 412.743 182.525 413.056 181.931C413.369 181.336 413.789 180.88 414.316 180.561C414.848 180.243 415.44 180.084 416.092 180.084C416.692 180.084 417.205 180.204 417.633 180.444C418.061 180.684 418.405 181.007 418.666 181.414C418.932 181.821 419.112 182.283 419.206 182.799C419.3 183.31 419.31 183.839 419.237 184.387H413.925V183.456H418.071L417.711 183.691C417.727 183.425 417.714 183.159 417.672 182.893C417.631 182.627 417.55 182.384 417.43 182.165C417.315 181.941 417.151 181.761 416.937 181.625C416.723 181.49 416.452 181.422 416.123 181.422C415.716 181.422 415.372 181.524 415.091 181.727C414.814 181.931 414.605 182.204 414.465 182.549C414.324 182.893 414.253 183.276 414.253 183.699V184.371C414.253 184.825 414.321 185.227 414.457 185.576C414.592 185.926 414.796 186.202 415.067 186.406C415.338 186.609 415.68 186.711 416.092 186.711C416.488 186.711 416.817 186.619 417.078 186.437C417.344 186.249 417.511 185.97 417.578 185.6H419.276C419.198 186.09 419.015 186.52 418.728 186.891C418.442 187.261 418.074 187.55 417.625 187.759C417.177 187.962 416.666 188.064 416.092 188.064ZM425.854 187.853L425.643 186.061V182.971C425.643 182.397 425.525 181.977 425.291 181.711C425.056 181.445 424.673 181.312 424.141 181.312C423.833 181.312 423.564 181.357 423.335 181.445C423.105 181.534 422.925 181.667 422.795 181.844C422.67 182.017 422.607 182.23 422.607 182.486H420.769C420.769 181.918 420.904 181.459 421.176 181.109C421.452 180.754 421.841 180.496 422.341 180.335C422.847 180.168 423.447 180.084 424.141 180.084C424.772 180.084 425.325 180.189 425.799 180.397C426.279 180.601 426.652 180.919 426.918 181.352C427.184 181.785 427.317 182.343 427.317 183.026V187.853H425.854ZM423.35 188.064C422.709 188.064 422.174 187.952 421.747 187.728C421.324 187.504 421.006 187.209 420.792 186.844C420.578 186.479 420.471 186.085 420.471 185.662C420.471 185.177 420.597 184.773 420.847 184.45C421.103 184.126 421.457 183.886 421.911 183.73C422.37 183.568 422.905 183.487 423.515 183.487C423.922 183.487 424.31 183.521 424.68 183.589C425.056 183.652 425.429 183.74 425.799 183.855V184.849C425.502 184.744 425.176 184.664 424.821 184.606C424.472 184.549 424.143 184.52 423.836 184.52C423.382 184.52 423.004 184.609 422.701 184.786C422.404 184.958 422.255 185.25 422.255 185.662C422.255 185.97 422.375 186.233 422.615 186.453C422.855 186.672 423.236 186.781 423.757 186.781C424.143 186.781 424.477 186.695 424.759 186.523C425.04 186.346 425.257 186.127 425.408 185.866C425.565 185.605 425.643 185.347 425.643 185.091H426.042C426.042 185.623 425.937 186.116 425.729 186.57C425.525 187.018 425.223 187.381 424.821 187.657C424.425 187.929 423.935 188.064 423.35 188.064ZM432.1 188.064C431.662 188.064 431.263 187.983 430.903 187.822C430.549 187.655 430.264 187.404 430.05 187.071C429.837 186.732 429.73 186.307 429.73 185.795V178.261H431.396V185.741C431.396 186.403 431.712 186.734 432.343 186.734C432.536 186.734 432.726 186.713 432.914 186.672C433.102 186.63 433.313 186.565 433.548 186.476L433.79 187.657C433.508 187.772 433.229 187.869 432.953 187.947C432.682 188.025 432.398 188.064 432.1 188.064ZM428.627 181.414V180.295H433.548V181.414H428.627ZM438.001 188.064C437.355 188.064 436.765 187.897 436.233 187.563C435.707 187.23 435.284 186.763 434.966 186.163C434.653 185.563 434.497 184.867 434.497 184.074C434.497 183.24 434.653 182.525 434.966 181.931C435.279 181.336 435.699 180.88 436.226 180.561C436.758 180.243 437.35 180.084 438.001 180.084C438.601 180.084 439.115 180.204 439.543 180.444C439.97 180.684 440.315 181.007 440.575 181.414C440.841 181.821 441.021 182.283 441.115 182.799C441.209 183.31 441.22 183.839 441.147 184.387H435.834V183.456H439.981L439.621 183.691C439.637 183.425 439.624 183.159 439.582 182.893C439.54 182.627 439.459 182.384 439.339 182.165C439.225 181.941 439.06 181.761 438.846 181.625C438.633 181.49 438.361 181.422 438.033 181.422C437.626 181.422 437.282 181.524 437 181.727C436.724 181.931 436.515 182.204 436.374 182.549C436.233 182.893 436.163 183.276 436.163 183.699V184.371C436.163 184.825 436.231 185.227 436.366 185.576C436.502 185.926 436.705 186.202 436.977 186.406C437.248 186.609 437.589 186.711 438.001 186.711C438.398 186.711 438.726 186.619 438.987 186.437C439.253 186.249 439.42 185.97 439.488 185.6H441.186C441.107 186.09 440.925 186.52 440.638 186.891C440.351 187.261 439.983 187.55 439.535 187.759C439.086 187.962 438.575 188.064 438.001 188.064ZM446.41 187.853V177.792H450.08C451.269 177.792 452.176 178.071 452.802 178.629C453.433 179.187 453.749 179.925 453.749 180.843C453.749 181.751 453.433 182.483 452.802 183.041C452.176 183.6 451.269 183.879 450.08 183.879H448.085V187.853H446.41ZM451.91 187.853L449.188 183.174H450.979L454.093 187.853H451.91ZM448.085 182.744H449.915C450.609 182.744 451.136 182.583 451.496 182.259C451.856 181.931 452.036 181.508 452.036 180.992C452.036 180.46 451.869 180.035 451.535 179.716C451.206 179.393 450.721 179.231 450.08 179.231H448.085V182.744ZM458.643 188.064C457.996 188.064 457.407 187.897 456.875 187.563C456.348 187.23 455.925 186.763 455.607 186.163C455.294 185.563 455.138 184.867 455.138 184.074C455.138 183.24 455.294 182.525 455.607 181.931C455.92 181.336 456.34 180.88 456.867 180.561C457.399 180.243 457.991 180.084 458.643 180.084C459.243 180.084 459.756 180.204 460.184 180.444C460.612 180.684 460.956 181.007 461.217 181.414C461.483 181.821 461.663 182.283 461.757 182.799C461.85 183.31 461.861 183.839 461.788 184.387H456.476V183.456H460.622L460.262 183.691C460.278 183.425 460.265 183.159 460.223 182.893C460.181 182.627 460.101 182.384 459.981 182.165C459.866 181.941 459.702 181.761 459.488 181.625C459.274 181.49 459.003 181.422 458.674 181.422C458.267 181.422 457.923 181.524 457.641 181.727C457.365 181.931 457.156 182.204 457.015 182.549C456.875 182.893 456.804 183.276 456.804 183.699V184.371C456.804 184.825 456.872 185.227 457.008 185.576C457.143 185.926 457.347 186.202 457.618 186.406C457.889 186.609 458.231 186.711 458.643 186.711C459.039 186.711 459.368 186.619 459.629 186.437C459.895 186.249 460.061 185.97 460.129 185.6H461.827C461.749 186.09 461.566 186.52 461.279 186.891C460.992 187.261 460.625 187.55 460.176 187.759C459.728 187.962 459.216 188.064 458.643 188.064ZM466.441 188.064C465.815 188.064 465.231 187.9 464.689 187.571C464.151 187.243 463.716 186.779 463.382 186.179C463.054 185.579 462.889 184.875 462.889 184.066C462.889 183.211 463.054 182.489 463.382 181.899C463.716 181.305 464.151 180.854 464.689 180.546C465.231 180.238 465.815 180.084 466.441 180.084C466.916 180.084 467.336 180.16 467.701 180.311C468.071 180.462 468.387 180.666 468.647 180.921C468.908 181.177 469.114 181.464 469.265 181.782C469.422 182.095 469.526 182.416 469.578 182.744L467.881 182.807C467.787 182.447 467.615 182.155 467.364 181.931C467.119 181.701 466.806 181.586 466.425 181.586C466.107 181.586 465.807 181.675 465.526 181.852C465.249 182.024 465.022 182.293 464.845 182.658C464.673 183.023 464.587 183.493 464.587 184.066C464.587 184.604 464.668 185.057 464.829 185.428C464.991 185.793 465.21 186.072 465.487 186.265C465.768 186.453 466.081 186.546 466.425 186.546C466.921 186.546 467.286 186.426 467.521 186.187C467.761 185.941 467.881 185.613 467.881 185.201H469.578C469.578 185.733 469.456 186.215 469.211 186.648C468.966 187.081 468.608 187.425 468.139 187.681C467.675 187.936 467.109 188.064 466.441 188.064ZM472.354 178.801C472.025 178.801 471.767 178.712 471.579 178.535C471.392 178.353 471.298 178.107 471.298 177.8C471.298 177.497 471.392 177.257 471.579 177.08C471.767 176.903 472.025 176.814 472.354 176.814C472.677 176.814 472.933 176.903 473.121 177.08C473.308 177.257 473.402 177.497 473.402 177.8C473.402 178.107 473.308 178.353 473.121 178.535C472.933 178.712 472.677 178.801 472.354 178.801ZM471.517 187.853V180.264H473.191V187.853H471.517ZM479.596 188.064C479.043 188.064 478.569 187.944 478.172 187.704C477.776 187.459 477.473 187.094 477.265 186.609C477.056 186.124 476.952 185.519 476.952 184.794H477.578C477.578 185.164 477.661 185.48 477.828 185.741C477.995 186.001 478.214 186.202 478.485 186.343C478.762 186.479 479.054 186.546 479.361 186.546C479.69 186.546 480.011 186.455 480.324 186.273C480.637 186.09 480.895 185.816 481.098 185.451C481.302 185.081 481.403 184.619 481.403 184.066C481.403 183.55 481.315 183.107 481.137 182.736C480.96 182.366 480.72 182.082 480.417 181.884C480.115 181.685 479.773 181.586 479.393 181.586C479.069 181.586 478.769 181.662 478.493 181.813C478.216 181.959 477.995 182.176 477.828 182.463C477.661 182.744 477.578 183.091 477.578 183.503H476.952C476.952 182.726 477.074 182.084 477.319 181.578C477.565 181.073 477.893 180.697 478.305 180.452C478.717 180.207 479.168 180.084 479.659 180.084C480.258 180.084 480.819 180.243 481.341 180.561C481.862 180.874 482.285 181.328 482.608 181.923C482.931 182.517 483.093 183.232 483.093 184.066C483.093 184.906 482.929 185.623 482.6 186.218C482.277 186.812 481.847 187.269 481.309 187.587C480.777 187.905 480.206 188.064 479.596 188.064ZM475.903 191.553V180.295H477.288L477.578 182.134V191.553H475.903ZM485.84 178.801C485.511 178.801 485.253 178.712 485.065 178.535C484.878 178.353 484.784 178.107 484.784 177.8C484.784 177.497 484.878 177.257 485.065 177.08C485.253 176.903 485.511 176.814 485.84 176.814C486.163 176.814 486.419 176.903 486.607 177.08C486.794 177.257 486.888 177.497 486.888 177.8C486.888 178.107 486.794 178.353 486.607 178.535C486.419 178.712 486.163 178.801 485.84 178.801ZM485.003 187.853V180.264H486.677V187.853H485.003ZM492.159 188.064C491.512 188.064 490.923 187.897 490.391 187.563C489.864 187.23 489.441 186.763 489.123 186.163C488.81 185.563 488.654 184.867 488.654 184.074C488.654 183.24 488.81 182.525 489.123 181.931C489.436 181.336 489.856 180.88 490.383 180.561C490.915 180.243 491.507 180.084 492.159 180.084C492.758 180.084 493.272 180.204 493.7 180.444C494.128 180.684 494.472 181.007 494.733 181.414C494.999 181.821 495.179 182.283 495.272 182.799C495.366 183.31 495.377 183.839 495.304 184.387H489.992V183.456H494.138L493.778 183.691C493.794 183.425 493.781 183.159 493.739 182.893C493.697 182.627 493.616 182.384 493.496 182.165C493.382 181.941 493.217 181.761 493.004 181.625C492.79 181.49 492.519 181.422 492.19 181.422C491.783 181.422 491.439 181.524 491.157 181.727C490.881 181.931 490.672 182.204 490.531 182.549C490.391 182.893 490.32 183.276 490.32 183.699V184.371C490.32 184.825 490.388 185.227 490.524 185.576C490.659 185.926 490.863 186.202 491.134 186.406C491.405 186.609 491.747 186.711 492.159 186.711C492.555 186.711 492.884 186.619 493.144 186.437C493.41 186.249 493.577 185.97 493.645 185.6H495.343C495.265 186.09 495.082 186.52 494.795 186.891C494.508 187.261 494.141 187.55 493.692 187.759C493.244 187.962 492.732 188.064 492.159 188.064ZM502.382 187.853V183.425C502.382 182.82 502.236 182.363 501.944 182.056C501.657 181.743 501.274 181.586 500.794 181.586C500.403 181.586 500.059 181.693 499.761 181.907C499.464 182.121 499.232 182.439 499.065 182.862C498.898 183.284 498.815 183.803 498.815 184.418H498.244C498.244 183.464 498.364 182.666 498.604 182.024C498.849 181.383 499.193 180.9 499.636 180.577C500.085 180.248 500.614 180.084 501.224 180.084C501.84 180.084 502.356 180.222 502.773 180.499C503.196 180.775 503.514 181.164 503.728 181.665C503.947 182.165 504.057 182.752 504.057 183.425V187.853H502.382ZM497.141 187.853V180.295H498.604L498.815 181.86V187.853H497.141ZM508.824 188.064C508.386 188.064 507.987 187.983 507.627 187.822C507.272 187.655 506.988 187.404 506.774 187.071C506.56 186.732 506.453 186.307 506.453 185.795V178.261H508.12V185.741C508.12 186.403 508.435 186.734 509.067 186.734C509.259 186.734 509.45 186.713 509.638 186.672C509.825 186.63 510.037 186.565 510.271 186.476L510.514 187.657C510.232 187.772 509.953 187.869 509.677 187.947C509.406 188.025 509.121 188.064 508.824 188.064ZM505.35 181.414V180.295H510.271V181.414H505.35ZM514.749 188.064C514.024 188.064 513.403 187.962 512.887 187.759C512.376 187.556 511.982 187.269 511.705 186.898C511.434 186.523 511.296 186.077 511.291 185.561H512.848C512.868 185.962 513.03 186.26 513.333 186.453C513.635 186.64 514.045 186.734 514.561 186.734C514.843 186.734 515.096 186.692 515.32 186.609C515.544 186.52 515.719 186.403 515.844 186.257C515.974 186.106 516.04 185.939 516.04 185.756C516.04 185.522 515.954 185.336 515.781 185.201C515.615 185.065 515.343 184.943 514.968 184.833L513.364 184.278C512.759 184.069 512.295 183.79 511.971 183.44C511.648 183.091 511.486 182.674 511.486 182.189C511.486 181.558 511.771 181.049 512.339 180.663C512.908 180.277 513.664 180.084 514.608 180.084C515.568 180.084 516.308 180.29 516.83 180.702C517.351 181.114 517.62 181.633 517.636 182.259H516.047C516.016 181.988 515.883 181.777 515.648 181.625C515.414 181.469 515.067 181.391 514.608 181.391C514.185 181.391 513.854 181.482 513.614 181.665C513.38 181.842 513.262 182.045 513.262 182.275C513.262 182.676 513.606 182.976 514.295 183.174L516.008 183.8C516.608 183.999 517.072 184.254 517.401 184.567C517.729 184.88 517.894 185.276 517.894 185.756C517.894 186.153 517.761 186.528 517.495 186.883C517.234 187.232 516.869 187.517 516.399 187.736C515.93 187.955 515.38 188.064 514.749 188.064ZM403.211 209.853L403 208.061V204.971C403 204.397 402.882 203.977 402.648 203.711C402.413 203.445 402.03 203.312 401.498 203.312C401.19 203.312 400.921 203.357 400.692 203.445C400.462 203.534 400.282 203.667 400.152 203.844C400.027 204.017 399.964 204.23 399.964 204.486H398.126C398.126 203.918 398.261 203.459 398.533 203.109C398.809 202.754 399.198 202.496 399.698 202.335C400.204 202.168 400.804 202.084 401.498 202.084C402.129 202.084 402.682 202.189 403.156 202.397C403.636 202.601 404.009 202.919 404.275 203.352C404.541 203.785 404.674 204.343 404.674 205.026V209.853H403.211ZM400.707 210.064C400.066 210.064 399.531 209.952 399.104 209.728C398.681 209.504 398.363 209.209 398.149 208.844C397.935 208.479 397.828 208.085 397.828 207.662C397.828 207.177 397.954 206.773 398.204 206.45C398.459 206.126 398.814 205.886 399.268 205.73C399.727 205.568 400.262 205.487 400.872 205.487C401.279 205.487 401.667 205.521 402.037 205.589C402.413 205.652 402.786 205.74 403.156 205.855V206.849C402.859 206.744 402.533 206.664 402.178 206.606C401.829 206.549 401.5 206.52 401.193 206.52C400.739 206.52 400.361 206.609 400.058 206.786C399.761 206.958 399.612 207.25 399.612 207.662C399.612 207.97 399.732 208.233 399.972 208.453C400.212 208.672 400.593 208.781 401.114 208.781C401.5 208.781 401.834 208.695 402.116 208.523C402.397 208.346 402.614 208.127 402.765 207.866C402.922 207.605 403 207.347 403 207.091H403.399C403.399 207.623 403.294 208.116 403.086 208.57C402.882 209.018 402.58 209.381 402.178 209.657C401.782 209.929 401.292 210.064 400.707 210.064ZM412.203 209.853V205.425C412.203 204.82 412.057 204.363 411.765 204.056C411.478 203.743 411.095 203.586 410.615 203.586C410.224 203.586 409.88 203.693 409.582 203.907C409.285 204.121 409.053 204.439 408.886 204.862C408.719 205.284 408.636 205.803 408.636 206.418H408.065C408.065 205.464 408.185 204.666 408.425 204.024C408.67 203.383 409.014 202.9 409.457 202.577C409.906 202.248 410.435 202.084 411.045 202.084C411.661 202.084 412.177 202.222 412.594 202.499C413.017 202.775 413.335 203.164 413.549 203.665C413.768 204.165 413.878 204.752 413.878 205.425V209.853H412.203ZM406.962 209.853V202.295H408.425L408.636 203.86V209.853H406.962ZM418.919 210.064C418.293 210.064 417.719 209.897 417.198 209.563C416.676 209.23 416.261 208.763 415.954 208.163C415.646 207.558 415.492 206.849 415.492 206.035C415.492 205.232 415.641 204.536 415.938 203.946C416.241 203.352 416.642 202.893 417.143 202.569C417.644 202.246 418.199 202.084 418.809 202.084C419.367 202.084 419.852 202.22 420.264 202.491C420.676 202.757 420.992 203.151 421.211 203.672C421.435 204.189 421.548 204.822 421.548 205.573H421C421 205.151 420.914 204.791 420.742 204.494C420.57 204.197 420.345 203.972 420.069 203.821C419.792 203.665 419.493 203.586 419.169 203.586C418.794 203.586 418.455 203.688 418.152 203.891C417.855 204.09 417.62 204.374 417.448 204.744C417.276 205.109 417.19 205.54 417.19 206.035C417.19 206.546 417.276 206.99 417.448 207.365C417.62 207.741 417.855 208.033 418.152 208.241C418.455 208.445 418.791 208.546 419.161 208.546C419.469 208.546 419.761 208.466 420.038 208.304C420.319 208.137 420.549 207.905 420.726 207.608C420.909 207.305 421 206.948 421 206.536H421.548C421.548 207.313 421.428 207.965 421.188 208.492C420.953 209.013 420.635 209.407 420.233 209.673C419.837 209.934 419.399 210.064 418.919 210.064ZM421.305 209.853L421 208.007V199.135H422.682V209.853H421.305ZM432.061 210.064C431.367 210.064 430.731 209.944 430.152 209.704C429.573 209.459 429.104 209.091 428.744 208.601C428.384 208.106 428.194 207.485 428.173 206.739H429.816C429.816 207.151 429.917 207.49 430.121 207.756C430.324 208.017 430.593 208.213 430.927 208.343C431.266 208.468 431.639 208.531 432.045 208.531C432.447 208.531 432.802 208.473 433.109 208.359C433.422 208.244 433.665 208.085 433.837 207.881C434.014 207.678 434.103 207.443 434.103 207.177C434.103 206.817 433.994 206.533 433.774 206.325C433.555 206.111 433.211 205.923 432.742 205.761L430.817 205.018C430.024 204.716 429.419 204.366 429.002 203.97C428.585 203.568 428.376 203.015 428.376 202.311C428.376 201.508 428.692 200.856 429.323 200.355C429.959 199.849 430.848 199.596 431.991 199.596C433.091 199.596 433.944 199.852 434.549 200.363C435.154 200.874 435.498 201.578 435.582 202.475H433.939C433.866 202.058 433.673 201.727 433.36 201.482C433.052 201.237 432.596 201.114 431.991 201.114C431.433 201.114 430.994 201.231 430.676 201.466C430.363 201.701 430.207 201.998 430.207 202.358C430.207 202.661 430.306 202.9 430.504 203.078C430.708 203.255 431.021 203.422 431.443 203.578L433.61 204.392C434.351 204.669 434.922 205.028 435.324 205.472C435.73 205.91 435.934 206.463 435.934 207.13C435.934 207.715 435.782 208.228 435.48 208.672C435.183 209.11 434.745 209.451 434.166 209.696C433.592 209.942 432.89 210.064 432.061 210.064ZM440.767 210.064C440.12 210.064 439.531 209.897 438.999 209.563C438.472 209.23 438.05 208.763 437.732 208.163C437.419 207.563 437.262 206.867 437.262 206.074C437.262 205.24 437.419 204.525 437.732 203.931C438.045 203.336 438.465 202.88 438.991 202.561C439.523 202.243 440.115 202.084 440.767 202.084C441.367 202.084 441.881 202.204 442.308 202.444C442.736 202.684 443.08 203.007 443.341 203.414C443.607 203.821 443.787 204.283 443.881 204.799C443.975 205.31 443.985 205.839 443.912 206.387H438.6V205.456H442.747L442.387 205.691C442.402 205.425 442.389 205.159 442.348 204.893C442.306 204.627 442.225 204.384 442.105 204.165C441.99 203.941 441.826 203.761 441.612 203.625C441.398 203.49 441.127 203.422 440.799 203.422C440.392 203.422 440.047 203.524 439.766 203.727C439.489 203.931 439.281 204.204 439.14 204.549C438.999 204.893 438.929 205.276 438.929 205.699V206.371C438.929 206.825 438.997 207.227 439.132 207.576C439.268 207.926 439.471 208.202 439.742 208.406C440.014 208.609 440.355 208.711 440.767 208.711C441.164 208.711 441.492 208.619 441.753 208.437C442.019 208.249 442.186 207.97 442.254 207.6H443.951C443.873 208.09 443.691 208.52 443.404 208.891C443.117 209.261 442.749 209.55 442.301 209.759C441.852 209.962 441.341 210.064 440.767 210.064ZM450.991 209.853V205.425C450.991 204.82 450.845 204.363 450.553 204.056C450.266 203.743 449.883 203.586 449.403 203.586C449.012 203.586 448.667 203.693 448.37 203.907C448.073 204.121 447.841 204.439 447.674 204.862C447.507 205.284 447.423 205.803 447.423 206.418H446.852C446.852 205.464 446.972 204.666 447.212 204.024C447.457 203.383 447.801 202.9 448.245 202.577C448.693 202.248 449.223 202.084 449.833 202.084C450.448 202.084 450.965 202.222 451.382 202.499C451.805 202.775 452.123 203.164 452.337 203.665C452.556 204.165 452.665 204.752 452.665 205.425V209.853H450.991ZM445.749 209.853V202.295H447.212L447.423 203.86V209.853H445.749ZM457.706 210.064C457.081 210.064 456.507 209.897 455.985 209.563C455.464 209.23 455.049 208.763 454.741 208.163C454.434 207.558 454.28 206.849 454.28 206.035C454.28 205.232 454.428 204.536 454.726 203.946C455.028 203.352 455.43 202.893 455.93 202.569C456.431 202.246 456.987 202.084 457.597 202.084C458.155 202.084 458.64 202.22 459.052 202.491C459.464 202.757 459.78 203.151 459.999 203.672C460.223 204.189 460.335 204.822 460.335 205.573H459.787C459.787 205.151 459.701 204.791 459.529 204.494C459.357 204.197 459.133 203.972 458.856 203.821C458.58 203.665 458.28 203.586 457.957 203.586C457.581 203.586 457.242 203.688 456.94 203.891C456.642 204.09 456.408 204.374 456.236 204.744C456.063 205.109 455.977 205.54 455.977 206.035C455.977 206.546 456.063 206.99 456.236 207.365C456.408 207.741 456.642 208.033 456.94 208.241C457.242 208.445 457.579 208.546 457.949 208.546C458.257 208.546 458.549 208.466 458.825 208.304C459.107 208.137 459.336 207.905 459.514 207.608C459.696 207.305 459.787 206.948 459.787 206.536H460.335C460.335 207.313 460.215 207.965 459.975 208.492C459.741 209.013 459.422 209.407 459.021 209.673C458.624 209.934 458.186 210.064 457.706 210.064ZM460.093 209.853L459.787 208.007V199.135H461.47V209.853H460.093Z" fill="#E9F2ED"/>
<rect x="338.827" y="270.971" width="46.9412" height="46.9412" rx="23.4706" fill="#FFE082"/>
<path d="M370.634 291.204C370.991 291.382 371.284 291.675 371.513 292.082C371.742 292.49 371.857 292.961 371.857 293.496C371.857 294.03 371.742 294.502 371.513 294.909C371.284 295.316 370.991 295.609 370.634 295.788V301.441C370.609 301.976 370.354 302.358 369.87 302.587C369.386 302.766 368.941 302.677 368.533 302.32L366.891 300.601C365.948 299.684 364.891 298.984 363.72 298.5C362.523 298.016 361.275 297.774 359.976 297.774H359.632V302.664C359.632 303.02 359.518 303.313 359.289 303.542C359.059 303.772 358.767 303.886 358.41 303.886H355.965C355.609 303.886 355.316 303.772 355.087 303.542C354.857 303.313 354.743 303.02 354.743 302.664V297.774C354.055 297.749 353.482 297.507 353.024 297.048C352.565 296.59 352.323 296.017 352.298 295.329V291.662C352.323 290.974 352.565 290.401 353.024 289.943C353.482 289.484 354.055 289.243 354.743 289.217H359.976C361.275 289.217 362.523 288.975 363.72 288.491C364.891 287.982 365.948 287.269 366.891 286.352L368.533 284.671C368.941 284.315 369.386 284.226 369.87 284.404C370.354 284.633 370.609 285.015 370.634 285.55V291.204ZM359.976 291.662H359.632V295.329H359.976C361.504 295.329 362.969 295.609 364.369 296.17C365.77 296.704 367.043 297.481 368.189 298.5V288.491C367.043 289.51 365.77 290.287 364.369 290.822C362.969 291.382 361.504 291.662 359.976 291.662Z" fill="#757575"/>
<path d="M401.482 286.618L404.165 278.38H405.926L402.429 288.441H400.676L397.226 278.38H399.002L401.654 286.618H401.482ZM409.536 288.653C408.852 288.653 408.234 288.504 407.682 288.207C407.134 287.909 406.698 287.466 406.375 286.877C406.052 286.287 405.89 285.552 405.89 284.67C405.89 283.773 406.052 283.03 406.375 282.441C406.698 281.851 407.134 281.411 407.682 281.119C408.234 280.821 408.852 280.673 409.536 280.673C410.219 280.673 410.832 280.821 411.374 281.119C411.922 281.411 412.355 281.851 412.673 282.441C412.996 283.03 413.158 283.773 413.158 284.67C413.158 285.552 412.996 286.287 412.673 286.877C412.355 287.466 411.922 287.909 411.374 288.207C410.832 288.504 410.219 288.653 409.536 288.653ZM409.489 287.19C409.885 287.19 410.232 287.093 410.529 286.9C410.832 286.707 411.067 286.423 411.233 286.047C411.4 285.672 411.484 285.213 411.484 284.67C411.484 283.841 411.317 283.21 410.983 282.777C410.654 282.339 410.19 282.12 409.59 282.12C409.189 282.12 408.837 282.216 408.534 282.409C408.237 282.602 408.005 282.889 407.838 283.27C407.671 283.651 407.588 284.118 407.588 284.67C407.588 285.484 407.755 286.107 408.088 286.54C408.422 286.973 408.889 287.19 409.489 287.19ZM415.905 279.39C415.576 279.39 415.318 279.301 415.13 279.124C414.942 278.941 414.849 278.696 414.849 278.388C414.849 278.086 414.942 277.846 415.13 277.668C415.318 277.491 415.576 277.402 415.905 277.402C416.228 277.402 416.484 277.491 416.671 277.668C416.859 277.846 416.953 278.086 416.953 278.388C416.953 278.696 416.859 278.941 416.671 279.124C416.484 279.301 416.228 279.39 415.905 279.39ZM415.068 288.441V280.853H416.742V288.441H415.068ZM422.271 288.653C421.645 288.653 421.061 288.488 420.518 288.16C419.981 287.831 419.545 287.367 419.212 286.767C418.883 286.167 418.719 285.463 418.719 284.655C418.719 283.799 418.883 283.077 419.212 282.488C419.545 281.893 419.981 281.442 420.518 281.134C421.061 280.826 421.645 280.673 422.271 280.673C422.745 280.673 423.165 280.748 423.53 280.899C423.9 281.051 424.216 281.254 424.477 281.51C424.738 281.765 424.944 282.052 425.095 282.37C425.251 282.683 425.356 283.004 425.408 283.333L423.71 283.395C423.616 283.035 423.444 282.743 423.194 282.519C422.949 282.289 422.636 282.175 422.255 282.175C421.937 282.175 421.637 282.263 421.355 282.441C421.079 282.613 420.852 282.881 420.675 283.247C420.502 283.612 420.416 284.081 420.416 284.655C420.416 285.192 420.497 285.646 420.659 286.016C420.821 286.381 421.04 286.66 421.316 286.853C421.598 287.041 421.911 287.135 422.255 287.135C422.75 287.135 423.116 287.015 423.35 286.775C423.59 286.53 423.71 286.201 423.71 285.789H425.408C425.408 286.321 425.285 286.804 425.04 287.237C424.795 287.669 424.438 288.014 423.968 288.269C423.504 288.525 422.938 288.653 422.271 288.653ZM429.975 288.653C429.328 288.653 428.739 288.486 428.207 288.152C427.68 287.818 427.258 287.351 426.94 286.751C426.627 286.152 426.47 285.455 426.47 284.663C426.47 283.828 426.627 283.114 426.94 282.519C427.252 281.924 427.672 281.468 428.199 281.15C428.731 280.832 429.323 280.673 429.975 280.673C430.575 280.673 431.089 280.793 431.516 281.032C431.944 281.272 432.288 281.596 432.549 282.003C432.815 282.409 432.995 282.871 433.089 283.387C433.183 283.898 433.193 284.428 433.12 284.976H427.808V284.045H431.954L431.595 284.279C431.61 284.013 431.597 283.747 431.555 283.481C431.514 283.215 431.433 282.973 431.313 282.754C431.198 282.529 431.034 282.349 430.82 282.214C430.606 282.078 430.335 282.01 430.006 282.01C429.6 282.01 429.255 282.112 428.974 282.316C428.697 282.519 428.489 282.793 428.348 283.137C428.207 283.481 428.137 283.865 428.137 284.287V284.96C428.137 285.414 428.204 285.815 428.34 286.165C428.476 286.514 428.679 286.791 428.95 286.994C429.221 287.197 429.563 287.299 429.975 287.299C430.371 287.299 430.7 287.208 430.961 287.025C431.227 286.838 431.394 286.558 431.462 286.188H433.159C433.081 286.678 432.898 287.109 432.612 287.479C432.325 287.849 431.957 288.139 431.508 288.347C431.06 288.551 430.549 288.653 429.975 288.653ZM438.384 278.38H440.786L443.79 284.749H443.641L446.646 278.38H448.969V288.441H447.279V280.266H447.545L444.259 287.299H443.164L439.894 280.305H440.058V288.441H438.384V278.38ZM454.253 288.653C453.606 288.653 453.017 288.486 452.485 288.152C451.958 287.818 451.536 287.351 451.218 286.751C450.905 286.152 450.748 285.455 450.748 284.663C450.748 283.828 450.905 283.114 451.218 282.519C451.53 281.924 451.95 281.468 452.477 281.15C453.009 280.832 453.601 280.673 454.253 280.673C454.853 280.673 455.367 280.793 455.794 281.032C456.222 281.272 456.566 281.596 456.827 282.003C457.093 282.409 457.273 282.871 457.367 283.387C457.461 283.898 457.471 284.428 457.398 284.976H452.086V284.045H456.232L455.873 284.279C455.888 284.013 455.875 283.747 455.833 283.481C455.792 283.215 455.711 282.973 455.591 282.754C455.476 282.529 455.312 282.349 455.098 282.214C454.884 282.078 454.613 282.01 454.284 282.01C453.878 282.01 453.533 282.112 453.252 282.316C452.975 282.519 452.767 282.793 452.626 283.137C452.485 283.481 452.415 283.865 452.415 284.287V284.96C452.415 285.414 452.482 285.815 452.618 286.165C452.754 286.514 452.957 286.791 453.228 286.994C453.499 287.197 453.841 287.299 454.253 287.299C454.649 287.299 454.978 287.208 455.239 287.025C455.505 286.838 455.672 286.558 455.74 286.188H457.437C457.359 286.678 457.176 287.109 456.89 287.479C456.603 287.849 456.235 288.139 455.786 288.347C455.338 288.551 454.827 288.653 454.253 288.653ZM462.028 288.653C461.303 288.653 460.682 288.551 460.166 288.347C459.655 288.144 459.261 287.857 458.985 287.487C458.713 287.111 458.575 286.665 458.57 286.149H460.127C460.148 286.551 460.309 286.848 460.612 287.041C460.914 287.229 461.324 287.323 461.84 287.323C462.122 287.323 462.375 287.281 462.599 287.197C462.823 287.109 462.998 286.991 463.123 286.845C463.254 286.694 463.319 286.527 463.319 286.345C463.319 286.11 463.233 285.925 463.061 285.789C462.894 285.654 462.623 285.531 462.247 285.421L460.643 284.866C460.038 284.657 459.574 284.378 459.251 284.029C458.927 283.679 458.766 283.262 458.766 282.777C458.766 282.146 459.05 281.637 459.618 281.252C460.187 280.866 460.943 280.673 461.887 280.673C462.847 280.673 463.587 280.879 464.109 281.291C464.631 281.703 464.899 282.222 464.915 282.848H463.327C463.295 282.576 463.162 282.365 462.928 282.214C462.693 282.057 462.346 281.979 461.887 281.979C461.465 281.979 461.133 282.07 460.894 282.253C460.659 282.43 460.541 282.634 460.541 282.863C460.541 283.265 460.886 283.565 461.574 283.763L463.288 284.389C463.887 284.587 464.352 284.843 464.68 285.155C465.009 285.468 465.173 285.865 465.173 286.345C465.173 286.741 465.04 287.117 464.774 287.471C464.513 287.821 464.148 288.105 463.679 288.324C463.209 288.543 462.659 288.653 462.028 288.653ZM469.81 288.653C469.085 288.653 468.464 288.551 467.948 288.347C467.437 288.144 467.043 287.857 466.767 287.487C466.495 287.111 466.357 286.665 466.352 286.149H467.909C467.93 286.551 468.091 286.848 468.394 287.041C468.696 287.229 469.106 287.323 469.622 287.323C469.904 287.323 470.157 287.281 470.381 287.197C470.605 287.109 470.78 286.991 470.905 286.845C471.036 286.694 471.101 286.527 471.101 286.345C471.101 286.11 471.015 285.925 470.843 285.789C470.676 285.654 470.404 285.531 470.029 285.421L468.425 284.866C467.82 284.657 467.356 284.378 467.033 284.029C466.709 283.679 466.547 283.262 466.547 282.777C466.547 282.146 466.832 281.637 467.4 281.252C467.969 280.866 468.725 280.673 469.669 280.673C470.629 280.673 471.369 280.879 471.891 281.291C472.413 281.703 472.681 282.222 472.697 282.848H471.109C471.077 282.576 470.944 282.365 470.71 282.214C470.475 282.057 470.128 281.979 469.669 281.979C469.247 281.979 468.915 282.07 468.675 282.253C468.441 282.43 468.323 282.634 468.323 282.863C468.323 283.265 468.668 283.565 469.356 283.763L471.069 284.389C471.669 284.587 472.133 284.843 472.462 285.155C472.791 285.468 472.955 285.865 472.955 286.345C472.955 286.741 472.822 287.117 472.556 287.471C472.295 287.821 471.93 288.105 471.461 288.324C470.991 288.543 470.441 288.653 469.81 288.653ZM479.579 288.441L479.368 286.65V283.559C479.368 282.986 479.25 282.566 479.016 282.3C478.781 282.034 478.398 281.901 477.866 281.901C477.558 281.901 477.289 281.945 477.06 282.034C476.83 282.123 476.65 282.256 476.52 282.433C476.395 282.605 476.332 282.819 476.332 283.074H474.494C474.494 282.506 474.629 282.047 474.901 281.697C475.177 281.343 475.566 281.085 476.066 280.923C476.572 280.756 477.172 280.673 477.866 280.673C478.497 280.673 479.05 280.777 479.524 280.986C480.004 281.189 480.377 281.507 480.643 281.94C480.909 282.373 481.042 282.931 481.042 283.614V288.441H479.579ZM477.075 288.653C476.434 288.653 475.899 288.54 475.472 288.316C475.049 288.092 474.731 287.797 474.517 287.432C474.303 287.067 474.196 286.673 474.196 286.251C474.196 285.766 474.322 285.361 474.572 285.038C474.828 284.715 475.182 284.475 475.636 284.318C476.095 284.157 476.63 284.076 477.24 284.076C477.647 284.076 478.035 284.11 478.405 284.178C478.781 284.24 479.154 284.329 479.524 284.444V285.437C479.227 285.333 478.901 285.252 478.546 285.195C478.197 285.137 477.868 285.109 477.561 285.109C477.107 285.109 476.729 285.197 476.426 285.375C476.129 285.547 475.98 285.839 475.98 286.251C475.98 286.558 476.1 286.822 476.34 287.041C476.58 287.26 476.961 287.37 477.482 287.37C477.868 287.37 478.202 287.283 478.484 287.111C478.765 286.934 478.982 286.715 479.133 286.454C479.29 286.193 479.368 285.935 479.368 285.68H479.767C479.767 286.212 479.662 286.705 479.454 287.158C479.25 287.607 478.948 287.969 478.546 288.246C478.15 288.517 477.66 288.653 477.075 288.653ZM486.177 292.345C485.338 292.345 484.615 292.228 484.01 291.993C483.41 291.764 482.949 291.456 482.625 291.07C482.302 290.689 482.14 290.275 482.14 289.826C482.14 289.278 482.339 288.856 482.735 288.559C483.137 288.261 483.645 288.113 484.261 288.113L485.426 288.59C484.899 288.59 484.493 288.692 484.206 288.895C483.924 289.104 483.783 289.388 483.783 289.748C483.783 290.123 483.992 290.426 484.409 290.655C484.832 290.89 485.421 291.007 486.177 291.007C486.735 291.007 487.218 290.927 487.625 290.765C488.037 290.603 488.355 290.389 488.579 290.123C488.803 289.863 488.916 289.586 488.916 289.294C488.916 289.096 488.845 288.929 488.704 288.793C488.569 288.658 488.357 288.59 488.071 288.59H485.426C484.915 288.59 484.456 288.509 484.049 288.347C483.648 288.186 483.33 287.969 483.095 287.698C482.86 287.427 482.743 287.127 482.743 286.798C482.743 286.48 482.831 286.209 483.009 285.985C483.186 285.755 483.423 285.581 483.721 285.461C484.023 285.335 484.357 285.273 484.722 285.273L485.129 285.836C484.972 285.836 484.821 285.867 484.675 285.93C484.534 285.993 484.417 286.086 484.323 286.212C484.229 286.332 484.182 286.483 484.182 286.665C484.182 286.879 484.274 287.057 484.456 287.197C484.644 287.338 484.967 287.409 485.426 287.409H488.071C488.853 287.409 489.466 287.557 489.909 287.855C490.358 288.147 490.582 288.59 490.582 289.185C490.582 289.717 490.402 290.223 490.042 290.702C489.687 291.187 489.182 291.581 488.524 291.884C487.867 292.191 487.085 292.345 486.177 292.345ZM486.31 286.141C485.716 286.141 485.173 286.029 484.683 285.805C484.198 285.575 483.809 285.257 483.517 284.85C483.23 284.438 483.087 283.958 483.087 283.411C483.087 282.858 483.23 282.376 483.517 281.963C483.809 281.551 484.198 281.233 484.683 281.009C485.173 280.785 485.716 280.673 486.31 280.673C486.889 280.673 487.421 280.785 487.906 281.009C488.391 281.233 488.78 281.551 489.072 281.963C489.364 282.376 489.51 282.858 489.51 283.411C489.51 283.958 489.364 284.438 489.072 284.85C488.78 285.257 488.391 285.575 487.906 285.805C487.421 286.029 486.889 286.141 486.31 286.141ZM486.318 284.968C486.824 284.968 487.207 284.819 487.468 284.522C487.734 284.224 487.867 283.854 487.867 283.411C487.867 282.941 487.734 282.563 487.468 282.276C487.207 281.99 486.821 281.846 486.31 281.846C485.815 281.846 485.431 281.99 485.16 282.276C484.889 282.563 484.753 282.941 484.753 283.411C484.753 283.854 484.889 284.224 485.16 284.522C485.431 284.819 485.817 284.968 486.318 284.968ZM488.939 281.885L488.164 281.471C488.164 281.017 488.264 280.623 488.462 280.289C488.665 279.95 488.939 279.687 489.283 279.499C489.627 279.311 490.013 279.217 490.441 279.217L490.347 280.829C489.888 280.829 489.539 280.915 489.299 281.087C489.059 281.259 488.939 281.525 488.939 281.885ZM494.66 288.653C494.014 288.653 493.424 288.486 492.892 288.152C492.365 287.818 491.943 287.351 491.625 286.751C491.312 286.152 491.155 285.455 491.155 284.663C491.155 283.828 491.312 283.114 491.625 282.519C491.938 281.924 492.358 281.468 492.884 281.15C493.416 280.832 494.008 280.673 494.66 280.673C495.26 280.673 495.774 280.793 496.202 281.032C496.629 281.272 496.973 281.596 497.234 282.003C497.5 282.409 497.68 282.871 497.774 283.387C497.868 283.898 497.878 284.428 497.805 284.976H492.493V284.045H496.64L496.28 284.279C496.295 284.013 496.282 283.747 496.241 283.481C496.199 283.215 496.118 282.973 495.998 282.754C495.883 282.529 495.719 282.349 495.505 282.214C495.291 282.078 495.02 282.01 494.692 282.01C494.285 282.01 493.941 282.112 493.659 282.316C493.382 282.519 493.174 282.793 493.033 283.137C492.892 283.481 492.822 283.865 492.822 284.287V284.96C492.822 285.414 492.89 285.815 493.025 286.165C493.161 286.514 493.364 286.791 493.635 286.994C493.907 287.197 494.248 287.299 494.66 287.299C495.057 287.299 495.385 287.208 495.646 287.025C495.912 286.838 496.079 286.558 496.147 286.188H497.845C497.766 286.678 497.584 287.109 497.297 287.479C497.01 287.849 496.642 288.139 496.194 288.347C495.745 288.551 495.234 288.653 494.66 288.653ZM398.431 310.441V300.38H402.1C403.289 300.38 404.197 300.659 404.823 301.217C405.454 301.775 405.769 302.514 405.769 303.431C405.769 304.339 405.454 305.072 404.823 305.63C404.197 306.188 403.289 306.467 402.1 306.467H400.105V310.441H398.431ZM403.931 310.441L401.208 305.763H403L406.114 310.441H403.931ZM400.105 305.333H401.936C402.629 305.333 403.156 305.171 403.516 304.848C403.876 304.519 404.056 304.096 404.056 303.58C404.056 303.048 403.889 302.623 403.555 302.305C403.227 301.982 402.742 301.82 402.1 301.82H400.105V305.333ZM410.663 310.653C410.016 310.653 409.427 310.486 408.895 310.152C408.368 309.818 407.946 309.351 407.628 308.751C407.315 308.152 407.158 307.455 407.158 306.663C407.158 305.828 407.315 305.114 407.628 304.519C407.941 303.924 408.36 303.468 408.887 303.15C409.419 302.832 410.011 302.673 410.663 302.673C411.263 302.673 411.777 302.793 412.204 303.032C412.632 303.272 412.976 303.596 413.237 304.003C413.503 304.409 413.683 304.871 413.777 305.387C413.871 305.898 413.881 306.428 413.808 306.976H408.496V306.045H412.642L412.283 306.279C412.298 306.013 412.285 305.747 412.243 305.481C412.202 305.215 412.121 304.973 412.001 304.754C411.886 304.529 411.722 304.349 411.508 304.214C411.294 304.078 411.023 304.01 410.694 304.01C410.288 304.01 409.943 304.112 409.662 304.316C409.385 304.519 409.177 304.793 409.036 305.137C408.895 305.481 408.825 305.865 408.825 306.287V306.96C408.825 307.414 408.892 307.815 409.028 308.165C409.164 308.514 409.367 308.791 409.638 308.994C409.909 309.197 410.251 309.299 410.663 309.299C411.06 309.299 411.388 309.208 411.649 309.025C411.915 308.838 412.082 308.558 412.15 308.188H413.847C413.769 308.678 413.587 309.109 413.3 309.479C413.013 309.849 412.645 310.139 412.197 310.347C411.748 310.551 411.237 310.653 410.663 310.653ZM418.461 310.653C417.836 310.653 417.251 310.488 416.709 310.16C416.172 309.831 415.736 309.367 415.402 308.767C415.074 308.167 414.91 307.463 414.91 306.655C414.91 305.799 415.074 305.077 415.402 304.488C415.736 303.893 416.172 303.442 416.709 303.134C417.251 302.826 417.836 302.673 418.461 302.673C418.936 302.673 419.356 302.748 419.721 302.899C420.091 303.051 420.407 303.254 420.668 303.51C420.929 303.765 421.135 304.052 421.286 304.37C421.442 304.683 421.547 305.004 421.599 305.333L419.901 305.395C419.807 305.035 419.635 304.743 419.385 304.519C419.14 304.289 418.827 304.175 418.446 304.175C418.128 304.175 417.828 304.263 417.546 304.441C417.27 304.613 417.043 304.881 416.865 305.247C416.693 305.612 416.607 306.081 416.607 306.655C416.607 307.192 416.688 307.646 416.85 308.016C417.012 308.381 417.231 308.66 417.507 308.853C417.789 309.041 418.102 309.135 418.446 309.135C418.941 309.135 419.306 309.015 419.541 308.775C419.781 308.53 419.901 308.201 419.901 307.789H421.599C421.599 308.321 421.476 308.804 421.231 309.237C420.986 309.669 420.629 310.014 420.159 310.269C419.695 310.525 419.129 310.653 418.461 310.653ZM426.166 310.653C425.519 310.653 424.93 310.486 424.398 310.152C423.871 309.818 423.449 309.351 423.13 308.751C422.817 308.152 422.661 307.455 422.661 306.663C422.661 305.828 422.817 305.114 423.13 304.519C423.443 303.924 423.863 303.468 424.39 303.15C424.922 302.832 425.514 302.673 426.166 302.673C426.766 302.673 427.28 302.793 427.707 303.032C428.135 303.272 428.479 303.596 428.74 304.003C429.006 304.409 429.186 304.871 429.28 305.387C429.374 305.898 429.384 306.428 429.311 306.976H423.999V306.045H428.145L427.785 306.279C427.801 306.013 427.788 305.747 427.746 305.481C427.705 305.215 427.624 304.973 427.504 304.754C427.389 304.529 427.225 304.349 427.011 304.214C426.797 304.078 426.526 304.01 426.197 304.01C425.79 304.01 425.446 304.112 425.165 304.316C424.888 304.519 424.679 304.793 424.539 305.137C424.398 305.481 424.327 305.865 424.327 306.287V306.96C424.327 307.414 424.395 307.815 424.531 308.165C424.666 308.514 424.87 308.791 425.141 308.994C425.412 309.197 425.754 309.299 426.166 309.299C426.562 309.299 426.891 309.208 427.152 309.025C427.418 308.838 427.585 308.558 427.652 308.188H429.35C429.272 308.678 429.089 309.109 428.802 309.479C428.516 309.849 428.148 310.139 427.699 310.347C427.251 310.551 426.74 310.653 426.166 310.653ZM432.126 301.39C431.797 301.39 431.539 301.301 431.351 301.124C431.163 300.941 431.07 300.696 431.07 300.388C431.07 300.086 431.163 299.846 431.351 299.668C431.539 299.491 431.797 299.402 432.126 299.402C432.449 299.402 432.705 299.491 432.892 299.668C433.08 299.846 433.174 300.086 433.174 300.388C433.174 300.696 433.08 300.941 432.892 301.124C432.705 301.301 432.449 301.39 432.126 301.39ZM431.289 310.441V302.853H432.963V310.441H431.289ZM434.4 302.884H436.324L438.288 309.01H438.14L440.103 302.884H442.028L439.149 310.441H437.279L434.4 302.884ZM446.028 310.653C445.381 310.653 444.792 310.486 444.26 310.152C443.733 309.818 443.311 309.351 442.992 308.751C442.679 308.152 442.523 307.455 442.523 306.663C442.523 305.828 442.679 305.114 442.992 304.519C443.305 303.924 443.725 303.468 444.252 303.15C444.784 302.832 445.376 302.673 446.028 302.673C446.628 302.673 447.141 302.793 447.569 303.032C447.997 303.272 448.341 303.596 448.602 304.003C448.868 304.409 449.048 304.871 449.142 305.387C449.236 305.898 449.246 306.428 449.173 306.976H443.861V306.045H448.007L447.647 306.279C447.663 306.013 447.65 305.747 447.608 305.481C447.567 305.215 447.486 304.973 447.366 304.754C447.251 304.529 447.087 304.349 446.873 304.214C446.659 304.078 446.388 304.01 446.059 304.01C445.652 304.01 445.308 304.112 445.027 304.316C444.75 304.519 444.541 304.793 444.401 305.137C444.26 305.481 444.189 305.865 444.189 306.287V306.96C444.189 307.414 444.257 307.815 444.393 308.165C444.528 308.514 444.732 308.791 445.003 308.994C445.274 309.197 445.616 309.299 446.028 309.299C446.424 309.299 446.753 309.208 447.014 309.025C447.28 308.838 447.447 308.558 447.514 308.188H449.212C449.134 308.678 448.951 309.109 448.664 309.479C448.378 309.849 448.01 310.139 447.561 310.347C447.113 310.551 446.602 310.653 446.028 310.653ZM453.779 310.653C453.153 310.653 452.58 310.486 452.058 310.152C451.537 309.818 451.122 309.351 450.814 308.751C450.507 308.146 450.353 307.437 450.353 306.623C450.353 305.82 450.501 305.124 450.799 304.535C451.101 303.94 451.503 303.481 452.003 303.158C452.504 302.834 453.06 302.673 453.67 302.673C454.228 302.673 454.713 302.808 455.125 303.079C455.537 303.345 455.853 303.739 456.072 304.261C456.296 304.777 456.408 305.411 456.408 306.162H455.86C455.86 305.739 455.774 305.38 455.602 305.082C455.43 304.785 455.206 304.561 454.929 304.409C454.653 304.253 454.353 304.175 454.03 304.175C453.654 304.175 453.315 304.276 453.013 304.48C452.715 304.678 452.481 304.962 452.309 305.333C452.136 305.698 452.05 306.128 452.05 306.623C452.05 307.135 452.136 307.578 452.309 307.953C452.481 308.329 452.715 308.621 453.013 308.83C453.315 309.033 453.652 309.135 454.022 309.135C454.33 309.135 454.622 309.054 454.898 308.892C455.18 308.725 455.409 308.493 455.587 308.196C455.769 307.893 455.86 307.536 455.86 307.124H456.408C456.408 307.901 456.288 308.553 456.048 309.08C455.813 309.602 455.495 309.995 455.094 310.261C454.697 310.522 454.259 310.653 453.779 310.653ZM456.166 310.441L455.86 308.595V299.723H457.542V310.441H456.166ZM463.487 310.441V300.38H465.161V310.441H463.487ZM472.92 310.441V306.013C472.92 305.408 472.774 304.952 472.482 304.644C472.195 304.331 471.812 304.175 471.332 304.175C470.941 304.175 470.596 304.282 470.299 304.495C470.002 304.709 469.77 305.027 469.603 305.45C469.436 305.872 469.352 306.391 469.352 307.007H468.781C468.781 306.052 468.901 305.254 469.141 304.613C469.386 303.971 469.731 303.489 470.174 303.165C470.622 302.837 471.152 302.673 471.762 302.673C472.378 302.673 472.894 302.811 473.311 303.087C473.734 303.364 474.052 303.752 474.266 304.253C474.485 304.754 474.594 305.34 474.594 306.013V310.441H472.92ZM467.678 310.441V302.884H469.141L469.352 304.449V310.441H467.678ZM479.659 310.653C478.934 310.653 478.313 310.551 477.797 310.347C477.286 310.144 476.892 309.857 476.616 309.487C476.344 309.111 476.206 308.665 476.201 308.149H477.758C477.779 308.551 477.94 308.848 478.243 309.041C478.545 309.229 478.955 309.323 479.471 309.323C479.753 309.323 480.006 309.281 480.23 309.197C480.454 309.109 480.629 308.991 480.754 308.845C480.885 308.694 480.95 308.527 480.95 308.345C480.95 308.11 480.864 307.925 480.692 307.789C480.525 307.654 480.254 307.531 479.878 307.421L478.274 306.866C477.669 306.657 477.205 306.378 476.882 306.029C476.558 305.679 476.397 305.262 476.397 304.777C476.397 304.146 476.681 303.637 477.249 303.252C477.818 302.866 478.574 302.673 479.518 302.673C480.478 302.673 481.218 302.879 481.74 303.291C482.262 303.703 482.53 304.222 482.546 304.848H480.958C480.926 304.576 480.793 304.365 480.559 304.214C480.324 304.057 479.977 303.979 479.518 303.979C479.096 303.979 478.764 304.07 478.525 304.253C478.29 304.43 478.173 304.634 478.173 304.863C478.173 305.265 478.517 305.565 479.205 305.763L480.919 306.389C481.518 306.587 481.983 306.843 482.311 307.155C482.64 307.468 482.804 307.865 482.804 308.345C482.804 308.741 482.671 309.117 482.405 309.471C482.144 309.821 481.779 310.105 481.31 310.324C480.84 310.543 480.29 310.653 479.659 310.653ZM487.144 310.653C486.706 310.653 486.307 310.572 485.947 310.41C485.592 310.243 485.308 309.993 485.094 309.659C484.88 309.32 484.773 308.895 484.773 308.384V300.85H486.44V308.329C486.44 308.991 486.755 309.323 487.386 309.323C487.579 309.323 487.77 309.302 487.957 309.26C488.145 309.218 488.356 309.153 488.591 309.064L488.834 310.246C488.552 310.361 488.273 310.457 487.996 310.535C487.725 310.613 487.441 310.653 487.144 310.653ZM483.67 304.003V302.884H488.591V304.003H483.67ZM495.056 310.441L494.844 308.65V305.559C494.844 304.986 494.727 304.566 494.492 304.3C494.258 304.034 493.874 303.901 493.342 303.901C493.034 303.901 492.766 303.945 492.536 304.034C492.307 304.123 492.127 304.256 491.997 304.433C491.871 304.605 491.809 304.819 491.809 305.074H489.97C489.97 304.506 490.106 304.047 490.377 303.697C490.654 303.343 491.042 303.085 491.543 302.923C492.049 302.756 492.649 302.673 493.342 302.673C493.973 302.673 494.526 302.777 495.001 302.986C495.481 303.189 495.854 303.507 496.12 303.94C496.386 304.373 496.519 304.931 496.519 305.614V310.441H495.056ZM492.552 310.653C491.91 310.653 491.376 310.54 490.948 310.316C490.526 310.092 490.208 309.797 489.994 309.432C489.78 309.067 489.673 308.673 489.673 308.251C489.673 307.766 489.798 307.361 490.048 307.038C490.304 306.715 490.659 306.475 491.112 306.318C491.571 306.157 492.106 306.076 492.716 306.076C493.123 306.076 493.512 306.11 493.882 306.178C494.258 306.24 494.63 306.329 495.001 306.444V307.437C494.703 307.333 494.378 307.252 494.023 307.195C493.673 307.137 493.345 307.109 493.037 307.109C492.583 307.109 492.205 307.197 491.903 307.375C491.605 307.547 491.457 307.839 491.457 308.251C491.457 308.558 491.577 308.822 491.817 309.041C492.057 309.26 492.437 309.37 492.959 309.37C493.345 309.37 493.679 309.283 493.96 309.111C494.242 308.934 494.458 308.715 494.61 308.454C494.766 308.193 494.844 307.935 494.844 307.68H495.243C495.243 308.212 495.139 308.705 494.93 309.158C494.727 309.607 494.424 309.969 494.023 310.246C493.626 310.517 493.136 310.653 492.552 310.653ZM504.048 310.441V306.013C504.048 305.408 503.902 304.952 503.61 304.644C503.323 304.331 502.94 304.175 502.46 304.175C502.068 304.175 501.724 304.282 501.427 304.495C501.13 304.709 500.898 305.027 500.731 305.45C500.564 305.872 500.48 306.391 500.48 307.007H499.909C499.909 306.052 500.029 305.254 500.269 304.613C500.514 303.971 500.858 303.489 501.302 303.165C501.75 302.837 502.28 302.673 502.89 302.673C503.505 302.673 504.022 302.811 504.439 303.087C504.861 303.364 505.18 303.752 505.393 304.253C505.613 304.754 505.722 305.34 505.722 306.013V310.441H504.048ZM498.806 310.441V302.884H500.269L500.48 304.449V310.441H498.806ZM510.49 310.653C510.051 310.653 509.652 310.572 509.293 310.41C508.938 310.243 508.654 309.993 508.44 309.659C508.226 309.32 508.119 308.895 508.119 308.384V300.85H509.785V308.329C509.785 308.991 510.101 309.323 510.732 309.323C510.925 309.323 511.115 309.302 511.303 309.26C511.491 309.218 511.702 309.153 511.937 309.064L512.179 310.246C511.898 310.361 511.619 310.457 511.342 310.535C511.071 310.613 510.787 310.653 510.49 310.653ZM507.016 304.003V302.884H511.937V304.003H507.016ZM513.621 310.441V299.723H515.296V310.441H513.621ZM516.639 302.884H518.532L520.668 308.978H520.347L522.131 302.884H523.836L520.95 311.85C520.668 312.71 520.316 313.341 519.893 313.743C519.471 314.144 518.949 314.345 518.329 314.345C517.979 314.345 517.638 314.304 517.304 314.22C516.975 314.137 516.641 314.009 516.302 313.837V312.342C516.584 312.535 516.858 312.674 517.124 312.757C517.39 312.846 517.661 312.89 517.938 312.89C518.198 312.89 518.425 312.814 518.618 312.663C518.811 312.512 518.975 312.306 519.111 312.045C519.252 311.79 519.369 311.503 519.463 311.185L519.69 310.441L516.639 302.884Z" fill="#E9F2ED"/>
<path d="M365.031 147.498C364.812 147.818 364.514 147.986 364.136 148C363.743 147.986 363.452 147.818 363.262 147.498L359.42 141.211C359.202 140.862 359.188 140.513 359.377 140.163C359.581 139.814 359.886 139.632 360.294 139.618H367.977C368.385 139.632 368.691 139.814 368.894 140.163C369.083 140.513 369.076 140.862 368.872 141.211L365.031 147.498Z" fill="#3BB24A"/>
<path d="M365.031 249.204C364.812 249.524 364.514 249.691 364.136 249.706C363.743 249.691 363.452 249.524 363.262 249.204L359.42 242.917C359.202 242.568 359.188 242.219 359.377 241.869C359.581 241.52 359.886 241.338 360.294 241.324H367.977C368.385 241.338 368.691 241.52 368.894 241.869C369.083 242.219 369.076 242.568 368.872 242.917L365.031 249.204Z" fill="#3BB24A"/>
<g opacity="0.6">
<path d="M125.11 95.994L167.095 213.322L257.257 97.8453" stroke="#3BB24A" stroke-width="2.07403" stroke-miterlimit="10" stroke-dasharray="2.77 2.77"/>
<path d="M293.066 172.568L167.094 213.322L251.693 308.417" stroke="#3BB24A" stroke-width="2.07403" stroke-miterlimit="10" stroke-dasharray="2.77 2.77"/>
<path d="M70.1473 304.714L167.094 213.322L34.9473 191.089" stroke="#3BB24A" stroke-width="2.07403" stroke-miterlimit="10" stroke-dasharray="2.77 2.77"/>
<path d="M303.847 178.856C307.117 172.609 304.704 164.894 298.457 161.624C292.21 158.354 284.495 160.767 281.225 167.014C277.955 173.261 280.369 180.976 286.615 184.246C292.862 187.516 300.577 185.102 303.847 178.856Z" fill="#002B32" stroke="#002B32" stroke-width="0.691344" stroke-miterlimit="10"/>
<path d="M296.762 172.053H288.44C287.659 172.053 286.911 172.363 286.359 172.915C285.807 173.467 285.497 174.215 285.497 174.996V181.982C287.531 183.569 290.041 184.421 292.621 184.401C295.2 184.38 297.697 183.488 299.705 181.868V174.996C299.705 174.215 299.395 173.467 298.843 172.915C298.291 172.363 297.542 172.053 296.762 172.053Z" fill="#3BB24A" stroke="#002B32" stroke-width="1.38269" stroke-miterlimit="10"/>
<path d="M292.455 170.769C293.293 170.769 294.111 170.521 294.808 170.056C295.504 169.59 296.047 168.929 296.368 168.155C296.688 167.381 296.772 166.529 296.609 165.708C296.445 164.886 296.042 164.132 295.45 163.539C294.857 162.947 294.103 162.544 293.281 162.38C292.46 162.217 291.608 162.301 290.834 162.621C290.06 162.942 289.399 163.485 288.933 164.181C288.468 164.878 288.22 165.697 288.22 166.534C288.22 167.657 288.666 168.735 289.46 169.529C290.254 170.323 291.332 170.769 292.455 170.769Z" fill="#3BB24A" stroke="#002B32" stroke-width="1.38269" stroke-miterlimit="10"/>
<path d="M264.768 308.811C267.49 302.307 264.424 294.827 257.92 292.105C251.415 289.383 243.936 292.449 241.214 298.953C238.492 305.457 241.558 312.937 248.062 315.659C254.566 318.381 262.046 315.315 264.768 308.811Z" fill="#002B32" stroke="#002B32" stroke-width="0.691344" stroke-miterlimit="10"/>
<path d="M257.274 303.037H248.953C248.567 303.036 248.184 303.111 247.827 303.258C247.47 303.405 247.146 303.621 246.872 303.894C246.599 304.166 246.382 304.49 246.234 304.847C246.086 305.203 246.01 305.585 246.01 305.972V312.957C248.043 314.544 250.554 315.397 253.133 315.376C255.713 315.356 258.209 314.463 260.217 312.844V305.972C260.217 305.585 260.141 305.203 259.993 304.847C259.845 304.49 259.628 304.166 259.355 303.894C259.081 303.621 258.757 303.405 258.4 303.258C258.043 303.111 257.661 303.036 257.274 303.037Z" fill="#3BB24A" stroke="#002B32" stroke-width="1.38269" stroke-miterlimit="10"/>
<path d="M252.908 301.745C253.746 301.745 254.565 301.497 255.261 301.032C255.957 300.566 256.5 299.905 256.821 299.131C257.141 298.357 257.225 297.506 257.062 296.684C256.898 295.862 256.495 295.108 255.903 294.515C255.31 293.923 254.556 293.52 253.734 293.356C252.913 293.193 252.061 293.277 251.287 293.597C250.513 293.918 249.852 294.461 249.387 295.157C248.921 295.854 248.673 296.673 248.673 297.51C248.673 298.066 248.782 298.617 248.995 299.131C249.208 299.645 249.52 300.112 249.913 300.505C250.307 300.898 250.773 301.21 251.287 301.423C251.801 301.636 252.352 301.745 252.908 301.745Z" fill="#3BB24A" stroke="#002B32" stroke-width="1.38269" stroke-miterlimit="10"/>
<path d="M124.56 104.238C129.566 104.238 133.624 100.179 133.624 95.1734C133.624 90.1674 129.566 86.1092 124.56 86.1092C119.554 86.1092 115.496 90.1674 115.496 95.1734C115.496 100.179 119.554 104.238 124.56 104.238Z" fill="#002B32" stroke="#002B32" stroke-width="0.691344" stroke-miterlimit="10"/>
<path d="M127.564 94.606H121.661C121.108 94.606 120.577 94.8259 120.185 95.2173C119.794 95.6087 119.574 96.1395 119.574 96.693V101.592C121.018 102.714 122.798 103.317 124.626 103.302C126.455 103.288 128.225 102.658 129.651 101.513V96.6494C129.64 96.1035 129.415 95.5838 129.025 95.2018C128.635 94.8198 128.11 94.6059 127.564 94.606Z" fill="#3BB24A" stroke="#002B32" stroke-width="1.38269" stroke-miterlimit="10"/>
<path d="M124.544 93.6454C125.138 93.6454 125.719 93.4692 126.213 93.1391C126.707 92.809 127.092 92.3399 127.319 91.791C127.547 91.2421 127.606 90.6381 127.49 90.0554C127.374 89.4727 127.088 88.9374 126.668 88.5173C126.248 88.0972 125.713 87.8111 125.13 87.6952C124.547 87.5793 123.943 87.6388 123.394 87.8662C122.846 88.0935 122.376 88.4786 122.046 88.9725C121.716 89.4665 121.54 90.0473 121.54 90.6414C121.54 91.4381 121.857 92.2022 122.42 92.7655C122.983 93.3289 123.747 93.6454 124.544 93.6454Z" fill="#3BB24A" stroke="#002B32" stroke-width="1.38269" stroke-miterlimit="10"/>
<path d="M77.1241 306.723C79.0519 302.103 76.8695 296.795 72.2496 294.867C67.6297 292.939 62.3217 295.122 60.3939 299.742C58.4661 304.362 60.6485 309.669 65.2684 311.597C69.8883 313.525 75.1963 311.343 77.1241 306.723Z" fill="#002B32" stroke="#002B32" stroke-width="0.691344" stroke-miterlimit="10"/>
<path d="M71.7645 302.619H65.8614C65.5859 302.618 65.3128 302.671 65.058 302.776C64.8032 302.881 64.5717 303.035 64.3769 303.23C64.1821 303.425 64.0277 303.656 63.9228 303.911C63.8179 304.166 63.7645 304.439 63.7656 304.714V309.666C65.2082 310.794 66.9907 311.401 68.8223 311.387C70.6539 311.373 72.4267 310.738 73.8515 309.587V304.714C73.8526 304.44 73.7995 304.167 73.6951 303.913C73.5908 303.659 73.4372 303.428 73.2433 303.233C73.0494 303.038 72.8189 302.884 72.5652 302.778C72.3114 302.673 72.0393 302.619 71.7645 302.619Z" fill="#3BB24A" stroke="#002B32" stroke-width="1.38269" stroke-miterlimit="10"/>
<path d="M68.707 301.702C69.3012 301.702 69.8819 301.526 70.3759 301.195C70.8699 300.865 71.255 300.396 71.4823 299.847C71.7097 299.298 71.7692 298.694 71.6533 298.112C71.5373 297.529 71.2513 296.994 70.8311 296.574C70.411 296.154 69.8758 295.867 69.2931 295.752C68.7104 295.636 68.1064 295.695 67.5575 295.922C67.0086 296.15 66.5395 296.535 66.2094 297.029C65.8793 297.523 65.7031 298.104 65.7031 298.698C65.7031 299.494 66.0196 300.259 66.583 300.822C67.1463 301.385 67.9104 301.702 68.707 301.702Z" fill="#3BB24A" stroke="#002B32" stroke-width="1.38269" stroke-miterlimit="10"/>
<path d="M265.527 97.8091C267.351 93.147 265.049 87.8895 260.387 86.0662C255.725 84.2428 250.467 86.5442 248.644 91.2063C246.821 95.8684 249.122 101.126 253.784 102.949C258.446 104.773 263.704 102.471 265.527 97.8091Z" fill="#002B32" stroke="#002B32" stroke-width="0.691344" stroke-miterlimit="10"/>
<path d="M260.11 93.8984H254.198C253.924 93.8984 253.653 93.9524 253.4 94.0572C253.146 94.1621 252.916 94.3159 252.723 94.5097C252.529 94.7035 252.375 94.9335 252.27 95.1867C252.165 95.4399 252.111 95.7113 252.111 95.9854V100.945C253.556 102.068 255.338 102.671 257.168 102.657C258.998 102.643 260.77 102.012 262.197 100.867V95.9854C262.197 95.7113 262.143 95.4399 262.038 95.1867C261.933 94.9335 261.78 94.7035 261.586 94.5097C261.392 94.3159 261.162 94.1621 260.909 94.0572C260.656 93.9524 260.384 93.8984 260.11 93.8984Z" fill="#3BB24A" stroke="#002B32" stroke-width="1.38269" stroke-miterlimit="10"/>
<path d="M257.057 92.9815C257.651 92.9815 258.232 92.8053 258.726 92.4752C259.22 92.1452 259.605 91.676 259.832 91.1271C260.059 90.5782 260.119 89.9742 260.003 89.3915C259.887 88.8088 259.601 88.2736 259.181 87.8535C258.761 87.4334 258.225 87.1473 257.643 87.0314C257.06 86.9154 256.456 86.9749 255.907 87.2023C255.358 87.4297 254.889 87.8147 254.559 88.3087C254.229 88.8027 254.053 89.3834 254.053 89.9776C254.053 90.7742 254.369 91.5383 254.933 92.1016C255.496 92.665 256.26 92.9815 257.057 92.9815Z" fill="#3BB24A" stroke="#002B32" stroke-width="1.38269" stroke-miterlimit="10"/>
<path d="M49.0787 195.356C52.632 186.936 48.6868 177.23 40.2667 173.677C31.8467 170.123 22.1404 174.069 18.5871 182.489C15.0338 190.909 18.9791 200.615 27.3991 204.168C35.8192 207.722 45.5254 203.776 49.0787 195.356Z" fill="#002B32" stroke="#002B32" stroke-width="0.691344" stroke-miterlimit="10"/>
<path d="M39.3241 187.806H28.5397C27.5291 187.806 26.5598 188.207 25.8444 188.921C25.129 189.634 24.7259 190.603 24.7236 191.613V200.66C27.3602 202.711 30.6114 203.813 33.9518 203.788C37.2921 203.763 40.5263 202.611 43.1314 200.52V191.613C43.1314 190.604 42.7303 189.635 42.0163 188.921C41.3022 188.207 40.3338 187.806 39.3241 187.806Z" fill="#3BB24A" stroke="#002B32" stroke-width="1.38269" stroke-miterlimit="10"/>
<path d="M33.7271 186.13C34.8117 186.13 35.8719 185.808 36.7738 185.206C37.6756 184.603 38.3785 183.746 38.7935 182.744C39.2086 181.742 39.3172 180.64 39.1056 179.576C38.894 178.512 38.3717 177.535 37.6048 176.768C36.8378 176.001 35.8607 175.479 34.7969 175.267C33.7331 175.056 32.6305 175.164 31.6285 175.579C30.6264 175.994 29.7699 176.697 29.1674 177.599C28.5648 178.501 28.2432 179.561 28.2432 180.646C28.2432 182.1 28.8209 183.495 29.8494 184.524C30.8778 185.552 32.2726 186.13 33.7271 186.13Z" fill="#3BB24A" stroke="#002B32" stroke-width="1.38269" stroke-miterlimit="10"/>
</g>
<g filter="url(#filter0_d_1750_6246)">
<path d="M201.638 246.851C224.735 223.754 224.735 186.305 201.638 163.208C178.541 140.111 141.093 140.111 117.995 163.208C94.8979 186.305 94.8979 223.754 117.995 246.851C141.093 269.948 178.541 269.948 201.638 246.851Z" fill="#002B32"/>
</g>
<path d="M185.846 191.721C187.511 192.402 188.835 193.499 189.819 195.013C190.803 196.451 191.294 198.078 191.294 199.894C191.294 201.861 190.803 203.564 189.819 205.002C188.835 206.44 187.511 207.537 185.846 208.294V223.618C185.77 225.283 185.051 226.38 183.689 226.909C182.327 227.515 181.003 227.288 179.716 226.228L174.722 221.461C170.03 217.148 164.657 214.423 158.603 213.288V211.472C165.187 212.607 170.976 215.521 175.97 220.212L180.851 224.98C181.532 225.51 182.214 225.623 182.895 225.32C183.576 225.018 183.954 224.45 184.03 223.618V176.284C183.954 175.527 183.576 174.997 182.895 174.694C182.214 174.392 181.532 174.505 180.851 175.035L175.97 179.802C170.976 184.494 165.187 187.445 158.603 188.656V186.727C164.657 185.591 170.03 182.867 174.722 178.554L179.716 173.786C181.003 172.727 182.327 172.5 183.689 173.105C185.051 173.635 185.77 174.732 185.846 176.397V191.721ZM185.846 206.25C188.116 204.888 189.327 202.769 189.478 199.894C189.327 197.17 188.116 195.126 185.846 193.764V206.25ZM154.971 226.342C154.971 227.628 154.517 228.688 153.609 229.52C152.776 230.428 151.717 230.882 150.43 230.882H144.982C143.695 230.882 142.636 230.428 141.804 229.52C140.896 228.688 140.441 227.628 140.441 226.342V212.721C138.398 212.645 136.696 211.926 135.333 210.564C133.971 209.202 133.252 207.461 133.177 205.342V194.445C133.252 192.478 133.971 190.775 135.333 189.337C136.696 187.975 138.398 187.256 140.441 187.181H152.814C153.041 187.181 153.306 187.181 153.609 187.181C154.063 187.256 154.517 187.256 154.971 187.181V226.342ZM153.155 212.721C153.079 212.721 153.003 212.721 152.928 212.721C152.928 212.721 152.89 212.721 152.814 212.721H142.258V226.342C142.409 228.007 143.317 228.915 144.982 229.066H150.43C152.095 228.915 153.003 228.007 153.155 226.342V212.721ZM152.814 210.904C152.89 210.904 152.928 210.904 152.928 210.904C153.003 210.904 153.079 210.904 153.155 210.904V188.997C153.079 188.997 153.003 188.997 152.928 188.997C152.928 188.997 152.89 188.997 152.814 188.997H140.441C138.928 189.072 137.642 189.64 136.582 190.699C135.598 191.683 135.069 192.932 134.993 194.445V205.342C135.069 206.932 135.598 208.256 136.582 209.315C137.642 210.375 138.928 210.904 140.441 210.904H152.814Z" fill="#A0D8A5"/>
<defs>
<filter id="filter0_d_1750_6246" x="69.3778" y="119.062" width="180.877" height="180.877" filterUnits="userSpaceOnUse" color-interpolation-filters="sRGB">
<feFlood flood-opacity="0" result="BackgroundImageFix"/>
<feColorMatrix in="SourceAlpha" type="matrix" values="0 0 0 0 0 0 0 0 0 0 0 0 0 0 0 0 0 0 127 0" result="hardAlpha"/>
<feOffset dy="4.47059"/>
<feGaussianBlur stdDeviation="15.6471"/>
<feComposite in2="hardAlpha" operator="out"/>
<feColorMatrix type="matrix" values="0 0 0 0 0 0 0 0 0 0 0 0 0 0 0 0 0 0 0.08 0"/>
<feBlend mode="normal" in2="BackgroundImageFix" result="effect1_dropShadow_1750_6246"/>
<feBlend mode="normal" in="SourceGraphic" in2="effect1_dropShadow_1750_6246" result="shape"/>
</filter>
</defs>
</svg>
