<svg version="1.2" xmlns="http://www.w3.org/2000/svg" viewBox="0 0 1064 518" width="1064" height="518">
	<title>configuration-svg</title>
	<defs>
		<radialGradient id="g1" cx="0" cy="0" r="1" gradientUnits="userSpaceOnUse" gradientTransform="matrix(0,-791.328,791.328,0,532.887,908.99)">
			<stop offset=".85" stop-color="#ffffff" stop-opacity="0"/>
			<stop offset="1" stop-color="#ffffff" stop-opacity="1"/>
		</radialGradient>
		<radialGradient id="g2" cx="0" cy="0" r="1" gradientUnits="userSpaceOnUse" gradientTransform="matrix(0,-629.301,629.301,0,533.157,901.389)">
			<stop offset=".85" stop-color="#ffffff" stop-opacity="0"/>
			<stop offset="1" stop-color="#ffffff" stop-opacity="1"/>
		</radialGradient>
		<radialGradient id="g3" cx="0" cy="0" r="1" gradientUnits="userSpaceOnUse" gradientTransform="matrix(0,-399.281,399.281,0,532.341,811.653)">
			<stop offset=".85" stop-color="#ffffff" stop-opacity="0"/>
			<stop offset="1" stop-color="#ffffff" stop-opacity="1"/>
		</radialGradient>
	</defs>
	<style>
		.s0 { fill: #e9f2ed } 
		.s1 { fill: url(#g1) } 
		.s2 { fill: url(#g2) } 
		.s3 { fill: url(#g3) } 
		.s4 { fill: #81d4fa } 
		.s5 { fill: #121212 } 
		.s6 { fill: #ffffff } 
		.s7 { fill: #a0d8a5 } 
		.s8 { fill: #ffab91 } 
		.s9 { fill: #3bb24a } 
		.s10 { fill: #c7e1e5 } 
		.s11 { fill: none;stroke: #ffffff;stroke-width: 2 } 
	</style>
	<path class="s0" d="m20 0h1024c11 0 20 9 20 20v481c0 11-9 20-20 20h-1024c-11 0-20-9-20-20v-481c0-11 9-20 20-20z"/>
	<g style="opacity: .7">
		<path class="s1" d="m532.1 1021.8c-250 0-452.1-202.1-452.1-452.1 0-250 202.1-452 452.1-452 249.9 0 452 202 452 452 0 250-202.1 452.1-452 452.1z"/>
		<path class="s2" d="m532.5 991.1c-198.8 0-359.5-160.7-359.5-359.5 0-198.8 160.7-359.5 359.5-359.5 198.8 0 359.5 160.7 359.5 359.5 0 198.8-160.7 359.5-359.5 359.5z"/>
		<path class="s3" d="m531.9 868.6c-126.6 0-228.9-102-228.9-228.1 0-126.2 102.3-228.1 228.9-228.1 126.6 0 228.9 101.9 228.9 228.1 0 126.1-102.3 228.1-228.9 228.1z"/>
	</g>
	<path class="s4" d="m641 176h180v20h-180z"/>
	<path class="s5" d="m720.9 191.2q-0.9 0-1.7-0.3-0.7-0.4-1.2-1-0.5-0.7-0.5-1.7h1.4q0 0.6 0.3 0.9 0.3 0.4 0.7 0.5 0.5 0.2 1 0.2 0.6 0 1-0.1 0.4-0.2 0.6-0.5 0.3-0.2 0.3-0.6 0-0.5-0.3-0.8-0.3-0.2-0.9-0.5l-1.8-0.6q-1-0.4-1.6-1-0.5-0.5-0.5-1.4 0-1.1 0.8-1.8 0.9-0.7 2.4-0.7 1.5 0 2.3 0.7 0.8 0.7 0.9 1.9h-1.5q-0.1-0.6-0.5-0.9-0.4-0.3-1.2-0.3-0.8 0-1.2 0.3-0.4 0.3-0.4 0.8 0 0.4 0.3 0.6 0.2 0.3 0.8 0.5l1.9 0.7q1 0.4 1.6 1 0.5 0.6 0.5 1.5 0 0.7-0.4 1.3-0.4 0.6-1.2 1-0.7 0.3-1.9 0.3zm5.4-9.2h2.1l2.7 5.7h-0.1l2.7-5.7h2v9h-1.5v-7.3h0.3l-3 6.3h-1l-2.9-6.3h0.2v7.3h-1.5zm14.8 9.2q-1 0-1.8-0.3-0.7-0.4-1.2-1-0.5-0.7-0.5-1.7h1.4q0 0.6 0.3 0.9 0.3 0.4 0.7 0.6 0.5 0.1 1 0.1 0.6 0 1-0.1 0.4-0.2 0.6-0.5 0.3-0.2 0.3-0.6 0-0.5-0.3-0.8-0.3-0.2-0.9-0.5l-1.8-0.6q-1-0.4-1.6-1-0.5-0.5-0.5-1.4 0-1.1 0.8-1.8 0.9-0.7 2.4-0.7 1.5 0 2.3 0.7 0.8 0.7 0.9 1.9h-1.5q-0.1-0.6-0.5-0.9-0.4-0.3-1.2-0.3-0.8 0-1.2 0.3-0.4 0.3-0.4 0.8 0 0.4 0.3 0.6 0.2 0.3 0.8 0.5l1.9 0.7q1 0.4 1.6 1 0.5 0.6 0.5 1.5 0 0.8-0.4 1.3-0.4 0.6-1.2 1-0.7 0.3-1.8 0.3z"/>
	<path class="s6" d="m797.3 191.8q-0.4 0-0.6-0.3-0.2-0.2-0.2-0.5 0-0.3 0.2-0.5l4-4-4-4q-0.2-0.2-0.2-0.5 0-0.3 0.2-0.5 0.2-0.3 0.6-0.3 0.3 0 0.5 0.3l4.5 4.5q0.2 0.2 0.2 0.5 0 0.3-0.2 0.5l-4.5 4.5q-0.2 0.3-0.5 0.2z"/>
	<path class="s6" d="m803.3 191.8q-0.4 0-0.6-0.3-0.2-0.2-0.2-0.5 0-0.3 0.2-0.5l4-4-4-4q-0.2-0.2-0.2-0.5 0-0.3 0.2-0.5 0.2-0.3 0.6-0.3 0.3 0 0.5 0.3l4.5 4.5q0.2 0.2 0.2 0.5 0 0.3-0.2 0.5l-4.5 4.5q-0.2 0.3-0.5 0.2z"/>
	<path class="s7" d="m641 206h180v20h-180z"/>
	<path class="s6" d="m664.8 210.3q0.3-0.1 0.5 0.2 0.2 0.2 0.2 0.5 0 0.3-0.2 0.5l-4 4 4 4q0.2 0.2 0.2 0.5 0 0.3-0.2 0.5-0.2 0.3-0.5 0.2-0.4 0.1-0.6-0.2l-4.5-4.5q-0.2-0.2-0.2-0.5 0-0.3 0.2-0.5l4.5-4.5q0.2-0.3 0.6-0.3z"/>
	<path class="s6" d="m658.8 210.3q0.3-0.1 0.5 0.2 0.2 0.2 0.2 0.5 0 0.3-0.2 0.5l-4 4 4 4q0.2 0.2 0.2 0.5 0 0.3-0.2 0.5-0.2 0.3-0.5 0.2-0.4 0.1-0.6-0.2l-4.5-4.5q-0.2-0.2-0.2-0.5 0-0.3 0.2-0.5l4.5-4.5q0.2-0.3 0.6-0.3z"/>
	<path fill-rule="evenodd" class="s5" d="m721.9 219.4v-0.3l-0.1 0.3zm2.2-7.4h1.6l-3.1 9h-1.6l-3.1-9h1.6l2.3 7.1zm4.8 9.2q-0.9 0-1.6-0.4-0.8-0.4-1.2-1.2-0.4-0.8-0.4-1.9 0-1.2 0.4-2 0.4-0.8 1.2-1.2 0.7-0.4 1.6-0.4 0.9 0 1.7 0.4 0.7 0.4 1.1 1.2 0.5 0.8 0.5 2 0 1.1-0.5 1.9-0.4 0.8-1.1 1.2-0.8 0.4-1.7 0.4zm0-1.3q0.5 0 0.9-0.2 0.4-0.3 0.6-0.8 0.3-0.5 0.3-1.2 0-1.2-0.5-1.7-0.4-0.6-1.2-0.6-0.6 0-1 0.2-0.4 0.3-0.6 0.8-0.2 0.5-0.2 1.3 0 1.1 0.4 1.6 0.5 0.6 1.3 0.6zm4.8 1.1v-9.6h1.5v9.6zm3.8 0v-9h3.1q1.5 0 2.3 0.8 0.8 0.7 0.8 2.1 0 1.3-0.8 2.1-0.8 0.7-2.3 0.7h-1.6v3.3zm1.5-4.6h1.6q0.8 0 1.2-0.4 0.4-0.4 0.4-1.1 0-0.7-0.4-1.1-0.4-0.5-1.2-0.5h-1.6z"/>
	<path class="s6" d="m797.3 221.8q-0.4 0-0.6-0.3-0.2-0.2-0.2-0.5 0-0.3 0.2-0.5l4-4-4-4q-0.2-0.2-0.2-0.5 0-0.3 0.2-0.5 0.2-0.3 0.6-0.3 0.3 0 0.5 0.3l4.5 4.5q0.2 0.2 0.2 0.5 0 0.3-0.2 0.5l-4.5 4.5q-0.2 0.3-0.5 0.2z"/>
	<path class="s6" d="m803.3 221.8q-0.4 0-0.6-0.3-0.2-0.2-0.2-0.5 0-0.3 0.2-0.5l4-4-4-4q-0.2-0.2-0.2-0.5 0-0.3 0.2-0.5 0.2-0.3 0.6-0.3 0.3 0 0.5 0.3l4.5 4.5q0.2 0.2 0.2 0.5 0 0.3-0.2 0.5l-4.5 4.5q-0.2 0.3-0.5 0.2z"/>
	<path class="s7" d="m641 236h180v20h-180z"/>
	<path class="s6" d="m664.8 240.3q0.3-0.1 0.5 0.2 0.2 0.2 0.2 0.5 0 0.3-0.2 0.5l-4 4 4 4q0.2 0.2 0.2 0.5 0 0.3-0.2 0.5-0.2 0.3-0.5 0.2-0.4 0.1-0.6-0.2l-4.5-4.5q-0.2-0.2-0.2-0.5 0-0.3 0.2-0.5l4.5-4.5q0.2-0.3 0.6-0.3z"/>
	<path class="s6" d="m658.8 240.3q0.3-0.1 0.5 0.2 0.2 0.2 0.2 0.5 0 0.3-0.2 0.5l-4 4 4 4q0.2 0.2 0.2 0.5 0 0.3-0.2 0.5-0.2 0.3-0.5 0.2-0.4 0.1-0.6-0.2l-4.5-4.5q-0.2-0.2-0.2-0.5 0-0.3 0.2-0.5l4.5-4.5q0.2-0.3 0.6-0.3z"/>
	<path fill-rule="evenodd" class="s5" d="m695.4 251.2q-1 0-1.8-0.3-0.7-0.4-1.2-1-0.5-0.7-0.5-1.7h1.4q0 0.6 0.3 0.9 0.3 0.4 0.7 0.5 0.5 0.2 1 0.2 0.6 0 1-0.1 0.4-0.2 0.6-0.5 0.3-0.2 0.3-0.6 0-0.5-0.3-0.8-0.3-0.2-0.9-0.5l-1.8-0.6q-1-0.4-1.6-1-0.5-0.5-0.5-1.4 0-1.1 0.8-1.8 0.9-0.7 2.4-0.7 1.5 0 2.3 0.7 0.8 0.7 0.9 1.9h-1.5q-0.1-0.6-0.5-0.9-0.4-0.3-1.2-0.3-0.8 0-1.2 0.3-0.4 0.3-0.4 0.8 0 0.4 0.3 0.6 0.2 0.3 0.8 0.5l1.9 0.7q1 0.4 1.6 1 0.5 0.6 0.5 1.5 0 0.7-0.4 1.3-0.4 0.6-1.2 1-0.7 0.3-1.8 0.3zm7.9 0q-1 0-1.7-0.4-0.7-0.4-1.2-1.2-0.4-0.8-0.4-2 0-1.2 0.4-2 0.5-0.8 1.2-1.2 0.7-0.4 1.7-0.4 0.9 0 1.6 0.4 0.7 0.4 1.2 1.2 0.4 0.8 0.4 2 0 1.2-0.4 2-0.5 0.8-1.2 1.2-0.7 0.4-1.6 0.4zm-0.1-1.3q0.6 0 1-0.3 0.4-0.2 0.6-0.7 0.2-0.5 0.2-1.3 0-1.1-0.4-1.7-0.5-0.6-1.3-0.6-0.5 0-0.9 0.3-0.4 0.3-0.7 0.8-0.2 0.5-0.2 1.2 0 1.1 0.5 1.7 0.4 0.6 1.2 0.6zm7.4 1.3q-0.8 0-1.6-0.5-0.7-0.4-1.1-1.2-0.5-0.8-0.5-1.9 0-1.1 0.5-1.9 0.4-0.8 1.1-1.2 0.8-0.5 1.6-0.5 0.6 0 1.1 0.3 0.5 0.2 0.9 0.5 0.3 0.3 0.5 0.8 0.2 0.4 0.3 0.8l-1.5 0.1q-0.1-0.5-0.5-0.8-0.3-0.3-0.8-0.3-0.4 0-0.8 0.2-0.4 0.3-0.6 0.8-0.2 0.4-0.2 1.2 0 0.7 0.2 1.2 0.2 0.5 0.6 0.8 0.3 0.2 0.8 0.2 0.7 0 1-0.3 0.3-0.3 0.3-0.9h1.5q0 0.7-0.3 1.3-0.3 0.6-1 0.9-0.6 0.4-1.5 0.4zm5.3-8.3q-0.4 0-0.7-0.2-0.2-0.3-0.2-0.7 0-0.4 0.2-0.6 0.3-0.3 0.7-0.3 0.4 0 0.7 0.3 0.2 0.2 0.2 0.6 0 0.4-0.2 0.7-0.3 0.2-0.7 0.2zm-0.7 8.1v-6.8h1.4l0.1 6.8zm8.2 0l-0.2-1.1q-0.3 0.6-0.8 0.9-0.5 0.4-1.3 0.4-0.8 0-1.4-0.3-0.6-0.3-0.9-0.8-0.3-0.5-0.3-1.1 0-0.6 0.4-1 0.3-0.5 0.9-0.7 0.6-0.2 1.5-0.2 0.5 0 1 0.1 0.4 0.1 0.9 0.2v-0.8q0-0.7-0.4-1.1-0.3-0.4-1-0.4-0.4 0-0.7 0.2-0.3 0.1-0.5 0.3-0.2 0.3-0.2 0.6h-1.6q0-0.8 0.4-1.2 0.3-0.5 1-0.7 0.7-0.3 1.6-0.3 0.9 0 1.5 0.3 0.6 0.3 1 0.9 0.4 0.6 0.4 1.5v4.3zm-1-2.9q-0.4-0.1-0.8-0.1-0.7 0-1.1 0.3-0.4 0.2-0.4 0.7 0 0.5 0.4 0.7 0.3 0.3 1 0.3 0.5 0 0.9-0.2 0.4-0.2 0.6-0.6 0.2-0.3 0.2-0.7v-0.2q-0.4-0.1-0.8-0.2zm4.3 2.9v-9.6h1.5v9.6zm6.8-9h2.2l2.6 5.6 2.6-5.6h2.1v9h-1.5v-6.8l-2.7 5.8h-1l-2.8-6v7h-1.5zm4.8 5.6l-0.1 0.1h0.2zm3.2-3.4l0.2-0.5h-0.2zm-6.5-0.1v-0.3h-0.2zm12.7 7.1q-0.8 0-1.5-0.4-0.7-0.5-1.2-1.3-0.4-0.8-0.4-1.9 0-1.1 0.4-1.9 0.5-0.8 1.2-1.2 0.7-0.4 1.5-0.4 0.9 0 1.4 0.3 0.6 0.3 1 0.9 0.3 0.5 0.4 1.2 0.2 0.7 0.1 1.4h-4.5q0 0.6 0.2 1.1 0.2 0.5 0.5 0.7 0.4 0.3 0.9 0.3 0.6 0 0.9-0.2 0.4-0.3 0.5-0.8h1.5q-0.1 0.7-0.5 1.2-0.4 0.5-1 0.7-0.6 0.3-1.4 0.3zm-1.6-3.3q0 0 0 0v-0.6q0-0.1 0-0.2h-0.3v0.8zm3.1-0.8q0 0.1 0 0.2l0.3-0.2zm0-0.5q-0.1-0.4-0.2-0.7-0.2-0.3-0.5-0.5-0.3-0.1-0.7-0.1-0.5 0-0.9 0.2-0.4 0.3-0.6 0.8-0.1 0.3-0.2 0.8h3.1q0-0.3 0-0.5zm5.5 4.6q-0.8 0-1.5-0.4-0.7-0.5-1.1-1.3-0.5-0.8-0.5-1.9 0-1.1 0.4-1.9 0.4-0.8 1.1-1.2 0.7-0.4 1.5-0.4 0.8 0 1.3 0.3 0.4 0.3 0.7 0.7v-3.7h1.5v9.6h-1.3l-0.1-1q-0.3 0.5-0.8 0.9-0.5 0.3-1.2 0.3zm1.6-5q-0.2-0.4-0.6-0.6-0.3-0.2-0.8-0.2-0.5 0-0.9 0.3-0.4 0.3-0.6 0.7-0.2 0.5-0.2 1.2 0 0.7 0.2 1.2 0.2 0.5 0.6 0.8 0.4 0.3 0.9 0.3 0.4 0 0.8-0.3 0.4-0.2 0.6-0.6 0.3-0.4 0.3-0.9v-0.9q0-0.6-0.3-1zm4.9-3.3q-0.4 0-0.7-0.2-0.2-0.3-0.2-0.7 0-0.4 0.2-0.6 0.3-0.3 0.7-0.3 0.4 0 0.7 0.3 0.2 0.2 0.2 0.6 0 0.4-0.2 0.7-0.3 0.2-0.7 0.2zm-0.7 8.1v-6.8h1.4v6.8zm8.3 0l-0.2-1.1q-0.3 0.6-0.8 0.9-0.5 0.4-1.3 0.4-0.8 0-1.4-0.3-0.6-0.3-0.9-0.8-0.3-0.5-0.3-1 0-0.7 0.4-1.1 0.3-0.5 0.9-0.7 0.6-0.2 1.5-0.2 0.5 0 1 0.1 0.4 0.1 0.9 0.2v-0.7q0-0.8-0.4-1.2-0.3-0.3-1-0.3-0.4 0-0.7 0.1-0.3 0.1-0.5 0.3-0.2 0.3-0.2 0.6h-1.6q0-0.7 0.4-1.2 0.3-0.5 1-0.7 0.7-0.2 1.6-0.2 0.9 0 1.5 0.2 0.6 0.3 1 0.9 0.4 0.6 0.4 1.5v4.3zm-1-2.9q-0.4-0.1-0.8-0.1-0.7 0-1.1 0.3-0.4 0.2-0.4 0.8 0 0.4 0.4 0.7 0.3 0.3 1 0.3 0.5 0 0.9-0.3 0.4-0.2 0.6-0.6 0.2-0.3 0.2-0.7v-0.2q-0.4-0.1-0.8-0.2z"/>
	<path class="s6" d="m797.3 251.8q-0.4 0-0.6-0.3-0.2-0.2-0.2-0.5 0-0.3 0.2-0.5l4-4-4-4q-0.2-0.2-0.2-0.5 0-0.3 0.2-0.5 0.2-0.3 0.6-0.3 0.3 0 0.5 0.3l4.5 4.5q0.2 0.2 0.2 0.5 0 0.3-0.2 0.5l-4.5 4.5q-0.2 0.3-0.5 0.2z"/>
	<path class="s6" d="m803.3 251.8q-0.4 0-0.6-0.3-0.2-0.2-0.2-0.5 0-0.3 0.2-0.5l4-4-4-4q-0.2-0.2-0.2-0.5 0-0.3 0.2-0.5 0.2-0.3 0.6-0.3 0.3 0 0.5 0.3l4.5 4.5q0.2 0.2 0.2 0.5 0 0.3-0.2 0.5l-4.5 4.5q-0.2 0.3-0.5 0.2z"/>
	<path class="s8" d="m641 266h180v20h-180z"/>
	<path class="s6" d="m664.8 270.3q0.3-0.1 0.5 0.2 0.2 0.2 0.2 0.5 0 0.3-0.2 0.5l-4 4 4 4q0.2 0.2 0.2 0.5 0 0.3-0.2 0.5-0.2 0.3-0.5 0.2-0.4 0.1-0.6-0.2l-4.5-4.5q-0.2-0.2-0.2-0.5 0-0.3 0.2-0.5l4.5-4.5q0.2-0.3 0.6-0.3z"/>
	<path class="s6" d="m658.8 270.3q0.3-0.1 0.5 0.2 0.2 0.2 0.2 0.5 0 0.3-0.2 0.5l-4 4 4 4q0.2 0.2 0.2 0.5 0 0.3-0.2 0.5-0.2 0.3-0.5 0.2-0.4 0.1-0.6-0.2l-4.5-4.5q-0.2-0.2-0.2-0.5 0-0.3 0.2-0.5l4.5-4.5q0.2-0.3 0.6-0.3z"/>
	<path class="s5" d="m705.9 272h1.7l2.2 7.7h-0.4l2.2-7h1l2.3 6.9h-0.4l2.4-7.6h1.7l-3.1 9h-1.6l-1.8-5.5h0.2l-1.9 5.5h-1.6zm15.8 9.2q-0.9 0-1.6-0.5-0.7-0.4-1.2-1.2-0.4-0.8-0.4-1.9 0-1.1 0.4-1.9 0.5-0.8 1.2-1.2 0.7-0.4 1.6-0.4 0.8 0 1.3 0.3 0.6 0.3 1 0.8 0.3 0.6 0.4 1.3 0.2 0.7 0.1 1.4h-4.8v-0.8h3.7l-0.3 0.2q0-0.4 0-0.7-0.1-0.4-0.2-0.7-0.2-0.3-0.5-0.5-0.3-0.2-0.7-0.2-0.6 0-0.9 0.3-0.4 0.3-0.6 0.8-0.2 0.4-0.2 1v0.6q0 0.6 0.2 1.1 0.2 0.4 0.5 0.7 0.4 0.3 1 0.3 0.5 0 0.8-0.3 0.4-0.2 0.5-0.7h1.5q-0.1 0.6-0.5 1.1-0.4 0.5-1 0.8-0.6 0.3-1.3 0.3zm7.8 0q-0.7 0-1.2-0.4-0.5-0.3-0.9-1-0.3-0.7-0.3-1.8h0.5q0 0.6 0.3 1 0.2 0.4 0.6 0.6 0.4 0.2 0.8 0.2 0.5 0 0.9-0.2 0.4-0.3 0.6-0.8 0.2-0.5 0.2-1.2 0-0.7-0.2-1.2-0.2-0.5-0.6-0.7-0.4-0.3-0.9-0.3-0.5 0-0.9 0.2-0.3 0.2-0.6 0.6-0.2 0.4-0.2 1h-0.5q0-1 0.3-1.7 0.3-0.7 0.9-1.1 0.5-0.3 1.3-0.3 0.8 0 1.5 0.4 0.6 0.4 1 1.2 0.4 0.8 0.4 1.9 0 1.1-0.4 1.9-0.4 0.8-1.1 1.2-0.7 0.5-1.5 0.5zm-3.4-0.2v-9.6h1.5v8l-0.5 1.6zm10.6 0.2q-1 0-1.7-0.3-0.7-0.3-1-0.8-0.4-0.5-0.4-1.1h1.4q0 0.5 0.4 0.7 0.4 0.3 1.1 0.3 0.4 0 0.7-0.1 0.3-0.1 0.5-0.3 0.2-0.2 0.2-0.5 0-0.3-0.3-0.5-0.2-0.2-0.7-0.3l-1.4-0.5q-0.8-0.3-1.3-0.7-0.4-0.5-0.4-1.2 0-0.8 0.7-1.3 0.8-0.5 2.1-0.5 1.3 0 2 0.5 0.7 0.6 0.7 1.4h-1.4q-0.1-0.4-0.4-0.6-0.3-0.2-0.9-0.2-0.6 0-0.9 0.3-0.3 0.2-0.3 0.5 0 0.6 0.9 0.8l1.5 0.6q0.8 0.2 1.3 0.7 0.4 0.4 0.4 1 0 0.6-0.3 1-0.4 0.5-1 0.8-0.7 0.3-1.5 0.3zm5.3-8.3q-0.4 0-0.7-0.2-0.2-0.3-0.2-0.7 0-0.4 0.2-0.6 0.3-0.3 0.7-0.3 0.5 0 0.7 0.3 0.3 0.2 0.3 0.6 0 0.4-0.3 0.7-0.2 0.2-0.7 0.2zm-0.7 8.1v-6.8h1.5v6.8zm6.1 0.2q-0.5 0-1-0.2-0.5-0.2-0.8-0.7-0.3-0.5-0.3-1.1v-6.8h1.5v6.7q0 0.9 0.9 0.9 0.2 0 0.5-0.1 0.2 0 0.5-0.1l0.3 1q-0.4 0.2-0.8 0.3-0.4 0.1-0.8 0.1zm-3.1-6v-1h4.4v1zm8.4 6q-0.8 0-1.6-0.5-0.7-0.4-1.1-1.2-0.4-0.8-0.4-1.9 0-1.1 0.4-1.9 0.4-0.8 1.1-1.2 0.8-0.4 1.6-0.4 0.8 0 1.4 0.3 0.6 0.3 0.9 0.8 0.4 0.6 0.5 1.3 0.1 0.7 0 1.4h-4.7v-0.8h3.7l-0.3 0.2q0-0.4-0.1-0.7 0-0.4-0.2-0.7-0.1-0.3-0.4-0.5-0.3-0.2-0.7-0.2-0.6 0-1 0.3-0.3 0.3-0.5 0.8-0.2 0.4-0.2 1v0.6q0 0.6 0.2 1.1 0.1 0.4 0.5 0.7 0.4 0.3 0.9 0.3 0.6 0 0.9-0.3 0.4-0.2 0.5-0.7h1.5q-0.1 0.6-0.5 1.1-0.4 0.5-1 0.8-0.6 0.3-1.4 0.3z"/>
	<path class="s7" d="m641 296h180v20h-180z"/>
	<path class="s6" d="m664.8 300.3q0.3-0.1 0.5 0.2 0.2 0.2 0.2 0.5 0 0.3-0.2 0.5l-4 4 4 4q0.2 0.2 0.2 0.5 0 0.3-0.2 0.5-0.2 0.3-0.5 0.2-0.4 0.1-0.6-0.2l-4.5-4.5q-0.2-0.2-0.2-0.5 0-0.3 0.2-0.5l4.5-4.5q0.2-0.3 0.6-0.3z"/>
	<path class="s6" d="m658.8 300.3q0.3-0.1 0.5 0.2 0.2 0.2 0.2 0.5 0 0.3-0.2 0.5l-4 4 4 4q0.2 0.2 0.2 0.5 0 0.3-0.2 0.5-0.2 0.3-0.5 0.2-0.4 0.1-0.6-0.2l-4.5-4.5q-0.2-0.2-0.2-0.5 0-0.3 0.2-0.5l4.5-4.5q0.2-0.3 0.6-0.3z"/>
	<path class="s5" d="m714.1 311v-9h5.8v1.3h-4.3v2.5h4v1.3h-4v2.6h4.3v1.3zm16.9 0v-4q0-0.8-0.3-1.2-0.4-0.4-1.1-0.4-0.8 0-1.2 0.6-0.4 0.6-0.4 1.9h-0.7q0-1.1 0.2-1.8 0.2-0.7 0.6-1.2 0.3-0.4 0.8-0.6 0.5-0.3 1.1-0.3 0.8 0 1.4 0.4 0.6 0.4 0.9 1.1 0.3 0.6 0.3 1.5v4zm-9.3 0v-6.8h1.3l0.1 1.2q0.4-0.6 0.9-1 0.6-0.4 1.3-0.4 0.9 0 1.4 0.4 0.6 0.4 0.9 1.1 0.3 0.6 0.3 1.5v4h-1.5v-4q0-0.8-0.4-1.2-0.4-0.4-1.1-0.4-0.5 0-0.9 0.3-0.4 0.3-0.6 0.8-0.2 0.6-0.2 1.4v3.1zm17.1 0l-0.2-1.6v-2.8q0-0.7-0.3-1.1-0.4-0.4-1.1-0.4-0.4 0-0.7 0.2-0.3 0.1-0.5 0.3-0.1 0.3-0.1 0.6h-1.7q0-0.8 0.4-1.2 0.3-0.5 1-0.7 0.7-0.3 1.6-0.3 0.9 0 1.5 0.3 0.7 0.3 1 0.9 0.4 0.6 0.4 1.5v4.3zm-2.3 0.2q-0.8 0-1.4-0.3-0.6-0.3-0.9-0.8-0.2-0.5-0.2-1.1 0-0.6 0.3-1 0.3-0.5 0.9-0.7 0.7-0.2 1.5-0.2 0.5 0 1 0.1 0.5 0.1 1 0.2v0.9q-0.4-0.1-0.9-0.2-0.4-0.1-0.8-0.1-0.6 0-1.1 0.3-0.4 0.2-0.4 0.7 0 0.5 0.4 0.7 0.3 0.3 1 0.3 0.5 0 0.9-0.2 0.4-0.2 0.6-0.6 0.2-0.3 0.2-0.7h0.3q0 0.7-0.2 1.4-0.3 0.6-0.9 0.9-0.5 0.4-1.3 0.4zm6.5-8.3q-0.4 0-0.7-0.2-0.2-0.3-0.2-0.7 0-0.4 0.2-0.6 0.3-0.3 0.7-0.3 0.4 0 0.7 0.3 0.2 0.2 0.2 0.6 0 0.4-0.2 0.7-0.3 0.2-0.7 0.2zm-0.7 8.1v-6.8h1.4v6.8zm4 0v-9.6h1.5v9.6z"/>
	<path class="s6" d="m797.3 311.8q-0.4 0-0.6-0.3-0.2-0.2-0.2-0.5 0-0.3 0.2-0.5l4-4-4-4q-0.2-0.2-0.2-0.5 0-0.3 0.2-0.5 0.2-0.3 0.6-0.3 0.3 0 0.5 0.3l4.5 4.5q0.2 0.2 0.2 0.5 0 0.3-0.2 0.5l-4.5 4.5q-0.2 0.3-0.5 0.2z"/>
	<path class="s6" d="m803.3 311.8q-0.4 0-0.6-0.3-0.2-0.2-0.2-0.5 0-0.3 0.2-0.5l4-4-4-4q-0.2-0.2-0.2-0.5 0-0.3 0.2-0.5 0.2-0.3 0.6-0.3 0.3 0 0.5 0.3l4.5 4.5q0.2 0.2 0.2 0.5 0 0.3-0.2 0.5l-4.5 4.5q-0.2 0.3-0.5 0.2z"/>
	<path class="s7" d="m641 326h180v20h-180z"/>
	<path class="s6" d="m664.8 330.3q0.3-0.1 0.5 0.2 0.2 0.2 0.2 0.5 0 0.3-0.2 0.5l-4 4 4 4q0.2 0.2 0.2 0.5 0 0.3-0.2 0.5-0.2 0.3-0.5 0.2-0.4 0.1-0.6-0.2l-4.5-4.5q-0.2-0.2-0.2-0.5 0-0.3 0.2-0.5l4.5-4.5q0.2-0.3 0.6-0.3z"/>
	<path class="s6" d="m658.8 330.3q0.3-0.1 0.5 0.2 0.2 0.2 0.2 0.5 0 0.3-0.2 0.5l-4 4 4 4q0.2 0.2 0.2 0.5 0 0.3-0.2 0.5-0.2 0.3-0.5 0.2-0.4 0.1-0.6-0.2l-4.5-4.5q-0.2-0.2-0.2-0.5 0-0.3 0.2-0.5l4.5-4.5q0.2-0.3 0.6-0.3z"/>
	<path class="s5" d="m701.2 332h1.7l2.2 7.7h-0.4l2.2-7h1.1l2.2 6.9h-0.3l2.4-7.6h1.7l-3.2 9h-1.5l-1.9-5.5h0.2l-1.9 5.5h-1.6zm15.8 9.2q-0.9 0-1.6-0.5-0.7-0.4-1.1-1.2-0.5-0.8-0.5-1.9 0-1.1 0.5-1.9 0.4-0.8 1.1-1.2 0.7-0.4 1.6-0.4 0.8 0 1.4 0.3 0.5 0.3 0.9 0.8 0.3 0.6 0.5 1.3 0.1 0.7 0 1.4h-4.8v-0.8h3.8l-0.4 0.2q0.1-0.4 0-0.7-0.1-0.4-0.2-0.7-0.2-0.3-0.5-0.5-0.2-0.2-0.7-0.2-0.5 0-0.9 0.3-0.4 0.3-0.6 0.8-0.2 0.4-0.2 1v0.6q0 0.6 0.2 1.1 0.2 0.4 0.6 0.7 0.3 0.3 0.9 0.3 0.5 0 0.9-0.3 0.3-0.2 0.4-0.7h1.5q-0.1 0.6-0.5 1.1-0.3 0.5-0.9 0.8-0.6 0.3-1.4 0.3zm7.8 0q-0.6 0-1.2-0.4-0.5-0.3-0.8-1-0.3-0.7-0.3-1.8h0.4q0 0.6 0.3 1 0.2 0.4 0.6 0.6 0.4 0.2 0.8 0.2 0.5 0 0.9-0.2 0.4-0.3 0.6-0.8 0.3-0.5 0.3-1.2 0-0.7-0.3-1.2-0.2-0.5-0.6-0.7-0.4-0.3-0.9-0.3-0.4 0-0.8 0.2-0.4 0.2-0.6 0.6-0.3 0.4-0.3 1h-0.4q0-1 0.3-1.7 0.3-0.7 0.8-1.1 0.6-0.3 1.3-0.3 0.8 0 1.5 0.4 0.7 0.4 1.1 1.2 0.4 0.8 0.4 1.9 0 1.1-0.4 1.9-0.5 0.8-1.2 1.2-0.6 0.5-1.5 0.5zm-3.4-0.2v-9.6h1.5v8l-0.5 1.6zm14.4 0.2q-1.2 0-2-0.6-0.9-0.6-1.4-1.6-0.5-1.1-0.5-2.5 0-1.6 0.5-2.6 0.5-1 1.4-1.5 0.9-0.6 2-0.6 1.6 0 2.5 0.8 0.8 0.7 1.1 1.9l-1.6 0.3q-0.2-0.7-0.7-1.2-0.5-0.4-1.3-0.4-0.6 0-1.1 0.3-0.5 0.4-0.8 1.1-0.3 0.8-0.3 1.9 0 1 0.2 1.7 0.3 0.8 0.8 1.2 0.5 0.4 1.2 0.4 1 0 1.5-0.5 0.5-0.5 0.5-1.3h1.6q0 1-0.4 1.7-0.5 0.7-1.3 1.1-0.8 0.4-1.9 0.4zm9.9-0.2v-4q0-0.8-0.4-1.2-0.4-0.4-1.1-0.4-0.5 0-0.9 0.3-0.4 0.3-0.6 0.8-0.2 0.6-0.2 1.4h-0.5q0-1.3 0.3-2.1 0.3-0.9 0.9-1.3 0.6-0.4 1.4-0.4 0.8 0 1.4 0.3 0.6 0.4 0.9 1.1 0.3 0.6 0.3 1.5v4zm-4.7 0v-9.6h1.5v9.6zm12.5 0l-0.2-1.6v-2.8q0-0.7-0.3-1.1-0.4-0.3-1.1-0.3-0.4 0-0.7 0.1-0.3 0.1-0.5 0.3-0.1 0.3-0.1 0.6h-1.7q0-0.8 0.4-1.2 0.3-0.5 1-0.7 0.7-0.2 1.6-0.2 0.9 0 1.5 0.2 0.7 0.3 1 0.9 0.4 0.6 0.4 1.5v4.3zm-2.3 0.2q-0.8 0-1.4-0.3-0.6-0.3-0.9-0.8-0.2-0.5-0.2-1.1 0-0.6 0.3-1 0.3-0.5 0.9-0.7 0.7-0.2 1.5-0.2 0.5 0 1 0.1 0.5 0.1 1 0.2v0.9q-0.4-0.1-0.9-0.2-0.4-0.1-0.8-0.1-0.6 0-1.1 0.3-0.3 0.2-0.3 0.7 0 0.5 0.3 0.7 0.3 0.3 1 0.3 0.5 0 0.9-0.2 0.4-0.2 0.6-0.6 0.2-0.3 0.2-0.7h0.3q0 0.7-0.2 1.4-0.3 0.6-0.9 0.9-0.5 0.4-1.3 0.4zm7.9 0q-0.6 0-1.1-0.2-0.5-0.2-0.8-0.7-0.3-0.5-0.3-1.1v-6.8h1.5v6.7q0 0.9 0.9 0.9 0.2 0 0.5-0.1 0.2 0 0.6-0.1l0.2 1q-0.4 0.2-0.8 0.3-0.3 0.1-0.7 0.1zm-3.1-6v-1h4.4v1z"/>
	<path class="s6" d="m797.3 341.8q-0.4 0-0.6-0.3-0.2-0.2-0.2-0.5 0-0.3 0.2-0.5l4-4-4-4q-0.2-0.2-0.2-0.5 0-0.3 0.2-0.5 0.2-0.3 0.6-0.3 0.3 0 0.5 0.3l4.5 4.5q0.2 0.2 0.2 0.5 0 0.3-0.2 0.5l-4.5 4.5q-0.2 0.3-0.5 0.2z"/>
	<path class="s6" d="m803.3 341.8q-0.4 0-0.6-0.3-0.2-0.2-0.2-0.5 0-0.3 0.2-0.5l4-4-4-4q-0.2-0.2-0.2-0.5 0-0.3 0.2-0.5 0.2-0.3 0.6-0.3 0.3 0 0.5 0.3l4.5 4.5q0.2 0.2 0.2 0.5 0 0.3-0.2 0.5l-4.5 4.5q-0.2 0.3-0.5 0.2z"/>
	<path class="s8" d="m301 193h120v17h-120z"/>
	<path class="s6" d="m356.3 207.3q-0.4 0-0.6-0.3-0.2-0.2-0.2-0.5 0-0.3 0.2-0.5l4-4-4-4q-0.2-0.2-0.2-0.5 0-0.3 0.2-0.5 0.2-0.3 0.5-0.3 0.4 0 0.6 0.3l4.5 4.5q0.2 0.2 0.2 0.5 0 0.3-0.2 0.5l-4.5 4.5q-0.2 0.3-0.6 0.2z"/>
	<path class="s6" d="m362.3 207.3q-0.4 0-0.6-0.3-0.2-0.2-0.2-0.5 0-0.3 0.2-0.5l4-4-4-4q-0.2-0.2-0.2-0.5 0-0.3 0.2-0.5 0.2-0.3 0.5-0.3 0.4 0 0.6 0.3l4.5 4.5q0.2 0.2 0.2 0.5 0 0.3-0.2 0.5l-4.5 4.5q-0.2 0.3-0.6 0.2z"/>
	<path class="s8" d="m524 423v-60h17v60z"/>
	<path class="s6" d="m538.3 397.8q0 0.3-0.3 0.5-0.2 0.2-0.5 0.2-0.3 0-0.5-0.2l-4-4-4 4q-0.2 0.2-0.5 0.2-0.3 0-0.5-0.2-0.3-0.2-0.2-0.6-0.1-0.3 0.2-0.5l4.5-4.5q0.2-0.2 0.5-0.2 0.3 0 0.5 0.2l4.5 4.5q0.3 0.2 0.3 0.5z"/>
	<path class="s6" d="m538.3 391.8q0 0.3-0.3 0.5-0.2 0.2-0.5 0.2-0.3 0-0.5-0.2l-4-4-4 4q-0.2 0.2-0.5 0.2-0.3 0-0.5-0.2-0.3-0.2-0.2-0.6-0.1-0.3 0.2-0.5l4.5-4.5q0.2-0.2 0.5-0.2 0.3 0 0.5 0.2l4.5 4.5q0.3 0.2 0.3 0.5z"/>
	<path class="s4" d="m582 159v-60h17v60z"/>
	<path class="s6" d="m596.3 133.8q0 0.3-0.3 0.5-0.2 0.2-0.5 0.2-0.3 0-0.5-0.2l-4-4-4 4q-0.2 0.2-0.5 0.2-0.3 0-0.5-0.2-0.3-0.2-0.2-0.6-0.1-0.3 0.2-0.5l4.5-4.5q0.2-0.2 0.5-0.2 0.3 0 0.5 0.2l4.5 4.5q0.3 0.2 0.3 0.5z"/>
	<path class="s6" d="m596.3 127.8q0 0.3-0.3 0.5-0.2 0.2-0.5 0.2-0.3 0-0.5-0.2l-4-4-4 4q-0.2 0.2-0.5 0.2-0.3 0-0.5-0.2-0.3-0.2-0.2-0.5-0.1-0.4 0.2-0.6l4.5-4.5q0.2-0.2 0.5-0.2 0.3 0 0.5 0.2l4.5 4.5q0.3 0.2 0.3 0.6z"/>
	<path class="s4" d="m465 159v-60h17v60z"/>
	<path class="s6" d="m479.3 133.8q0 0.3-0.3 0.5-0.2 0.2-0.5 0.2-0.3 0-0.5-0.2l-4-4-4 4q-0.2 0.2-0.5 0.2-0.3 0-0.5-0.2-0.3-0.2-0.3-0.6 0-0.3 0.3-0.5l4.5-4.5q0.2-0.2 0.5-0.2 0.3 0 0.5 0.2l4.5 4.5q0.3 0.2 0.2 0.5z"/>
	<path class="s6" d="m479.3 127.8q0 0.3-0.3 0.5-0.2 0.2-0.5 0.2-0.3 0-0.5-0.2l-4-4-4 4q-0.2 0.2-0.5 0.2-0.3 0-0.5-0.2-0.3-0.2-0.3-0.5 0-0.4 0.3-0.6l4.5-4.5q0.2-0.2 0.5-0.2 0.3 0 0.5 0.2l4.5 4.5q0.3 0.2 0.2 0.6z"/>
	<path class="s8" d="m280 252h141v17h-141z"/>
	<path class="s6" d="m345.8 266.3q-0.4 0-0.6-0.3-0.2-0.2-0.2-0.5 0-0.3 0.2-0.5l4-4-4-4q-0.2-0.2-0.2-0.5 0-0.3 0.2-0.5 0.2-0.3 0.5-0.3 0.4 0 0.6 0.3l4.5 4.5q0.2 0.2 0.2 0.5 0 0.3-0.2 0.5l-4.5 4.5q-0.2 0.3-0.6 0.2z"/>
	<path class="s6" d="m351.8 266.3q-0.4 0-0.6-0.3-0.2-0.2-0.2-0.5 0-0.3 0.2-0.5l4-4-4-4q-0.2-0.2-0.2-0.5 0-0.3 0.2-0.5 0.2-0.3 0.5-0.3 0.4 0 0.6 0.3l4.5 4.5q0.2 0.2 0.2 0.5 0 0.3-0.2 0.5l-4.5 4.5q-0.2 0.3-0.6 0.2z"/>
	<path class="s8" d="m262 313h159v17h-159z"/>
	<path class="s6" d="m336.8 327.3q-0.4 0-0.6-0.3-0.2-0.2-0.2-0.5 0-0.3 0.2-0.5l4-4-4-4q-0.2-0.2-0.2-0.5 0-0.3 0.2-0.5 0.2-0.3 0.5-0.3 0.4 0 0.6 0.3l4.5 4.5q0.2 0.2 0.2 0.5 0 0.3-0.2 0.5l-4.5 4.5q-0.2 0.3-0.6 0.2z"/>
	<path class="s6" d="m342.8 327.3q-0.4 0-0.6-0.3-0.2-0.2-0.2-0.5 0-0.3 0.2-0.5l4-4-4-4q-0.2-0.2-0.2-0.5 0-0.3 0.2-0.5 0.2-0.3 0.5-0.3 0.4 0 0.6 0.3l4.5 4.5q0.2 0.2 0.2 0.5 0 0.3-0.2 0.5l-4.5 4.5q-0.2 0.3-0.6 0.2z"/>
	<g>
		<path class="s6" d="m442 159h180c11 0 20 9 20 20v164c0 11-9 20-20 20h-180c-11 0-20-9-20-20v-164c0-11 9-20 20-20z"/>
		<path class="s9" d="m520 183h24c6.6 0 12 5.4 12 12v24c0 6.6-5.4 12-12 12h-24c-6.6 0-12-5.4-12-12v-24c0-6.6 5.4-12 12-12z"/>
		<path fill-rule="evenodd" class="s6" d="m542.5 208.5q0.7 0 1.1 0.4 0.4 0.4 0.4 1.1v6q0 0.7-0.4 1.1-0.4 0.4-1.1 0.4h-21q-0.7 0-1.1-0.4-0.4-0.4-0.4-1.1v-6q0-0.7 0.4-1.1 0.4-0.4 1.1-0.4zm-6 5.6q1-0.1 1.1-1.1-0.1-1-1.1-1.1-1 0.1-1.1 1.1 0.1 1 1.1 1.1zm3 0q1-0.1 1.1-1.1-0.1-1-1.1-1.1-1 0.1-1.1 1.1 0.1 1 1.1 1.1zm3-17.6q0.7 0 1.1 0.4 0.4 0.4 0.4 1.1v6q0 0.7-0.4 1.1-0.4 0.4-1.1 0.4h-21q-0.7 0-1.1-0.4-0.4-0.4-0.4-1.1v-6q0-0.7 0.4-1.1 0.4-0.4 1.1-0.4zm-6 5.6q1-0.1 1.1-1.1-0.1-1-1.1-1.1-1 0.1-1.1 1.1 0.1 1 1.1 1.1zm3 0q1-0.1 1.1-1.1-0.1-1-1.1-1.1-1 0.1-1.1 1.1 0.1 1 1.1 1.1z"/>
		<path fill-rule="evenodd" class="s5" d="m513 249h2.9q1.4 0 2.4 0.6 1 0.5 1.6 1.5 0.5 1 0.5 2.4 0 1.4-0.5 2.4-0.6 1-1.6 1.5-1 0.6-2.4 0.6h-2.9zm1.5 1.4v6.3h1.4q0.9 0 1.5-0.4 0.7-0.5 1.1-1.2 0.3-0.7 0.3-1.6 0-0.9-0.3-1.6-0.4-0.7-1.1-1.1-0.6-0.4-1.5-0.4zm8.5-0.5q-0.5 0-0.7-0.2-0.3-0.3-0.3-0.7 0-0.4 0.3-0.6 0.2-0.3 0.7-0.3 0.4 0 0.6 0.3 0.3 0.2 0.3 0.6 0 0.4-0.3 0.7-0.2 0.2-0.6 0.2zm-0.8 8.1v-6.8h1.5v6.8zm8.2 0l-0.1-1.1q-0.3 0.6-0.8 0.9-0.6 0.4-1.3 0.4-0.9 0-1.5-0.3-0.5-0.3-0.8-0.8-0.3-0.5-0.3-1.1 0-0.6 0.3-1 0.4-0.5 1-0.7 0.6-0.2 1.4-0.2 0.6 0 1.1 0.1 0.4 0.1 0.8 0.2v-0.8q0-0.7-0.3-1.1-0.3-0.4-1-0.3-0.4 0-0.8 0.1-0.3 0.1-0.4 0.3-0.2 0.3-0.2 0.6h-1.6q0-0.8 0.3-1.2 0.4-0.5 1.1-0.7 0.6-0.2 1.6-0.2 0.8 0 1.5 0.2 0.6 0.3 1 0.9 0.3 0.6 0.3 1.5v4.3zm-0.9-2.9q-0.5-0.1-0.9-0.1-0.6 0-1 0.3-0.4 0.2-0.4 0.7 0 0.5 0.3 0.7 0.3 0.3 1 0.3 0.6 0 0.9-0.2 0.4-0.2 0.6-0.6 0.2-0.3 0.2-0.7v-0.2q-0.3-0.1-0.7-0.2zm4.3 2.9v-9.6h1.5v9.6zm3.7 0v-9.6h1.5v9.6zm6.2 0.2q-0.8 0-1.5-0.5-0.7-0.4-1.2-1.2-0.4-0.8-0.4-1.9 0-1.1 0.4-1.9 0.4-0.8 1.2-1.2 0.7-0.4 1.5-0.4 0.8 0 1.4 0.3 0.6 0.3 0.9 0.8 0.4 0.6 0.5 1.3 0.2 0.7 0.1 1.4h-4.5q0 0.6 0.2 1.1 0.2 0.4 0.5 0.7 0.4 0.3 0.9 0.3 0.6 0 0.9-0.3 0.4-0.2 0.5-0.7h1.5q-0.1 0.6-0.5 1.1-0.4 0.5-1 0.8-0.6 0.3-1.4 0.3zm-1.6-3.3q0 0 0 0v-0.6q0-0.1 0-0.2h-0.3v0.8zm3.1-0.8q0 0.1 0 0.2l0.3-0.2zm0-0.5q-0.1-0.4-0.2-0.7-0.2-0.3-0.5-0.5-0.3-0.2-0.7-0.2-0.6 0-0.9 0.3-0.4 0.3-0.6 0.8-0.1 0.3-0.2 0.8h3.1q0-0.3 0-0.5zm3 4.4v-6.8h1.5v1.4q0.3-0.7 0.7-1.1 0.5-0.4 1.1-0.4 0.2 0 0.4 0 0.1 0.1 0.3 0.1v1.5q-0.2 0-0.4-0.1-0.3 0-0.4 0-0.6 0-1 0.3-0.3 0.3-0.5 0.8-0.2 0.5-0.2 1.3v3zm-47.2 12.3v-1.3h7.1v1.3h-2.8v7.7h-1.5v-7.7zm4.3 0v-0.4l-0.3 0.4zm-1.5 0h0.3l-0.3-0.4zm6.6 7.9q-0.8 0-1.5-0.4-0.7-0.4-1.2-1.3-0.4-0.8-0.4-1.8 0-1.1 0.4-1.9 0.5-0.8 1.2-1.3 0.7-0.4 1.5-0.4 0.9 0 1.4 0.3 0.6 0.4 1 0.9 0.3 0.5 0.4 1.2 0.2 0.7 0.1 1.5h-4.5q0 0.6 0.2 1 0.2 0.5 0.5 0.8 0.4 0.2 0.9 0.2 0.6 0 0.9-0.2 0.4-0.3 0.5-0.8h1.5q-0.1 0.7-0.5 1.2-0.4 0.5-1 0.8-0.6 0.2-1.4 0.2zm-1.6-3.2q0 0 0-0.1v-0.6q0-0.1 0-0.2h-0.3v0.9zm3.1-0.9q0 0.1 0 0.2l0.3-0.2zm0-0.5q-0.1-0.3-0.2-0.6-0.2-0.3-0.5-0.5-0.3-0.2-0.7-0.2-0.5 0-0.9 0.3-0.4 0.3-0.6 0.7-0.1 0.4-0.2 0.8h3.1q0-0.2 0-0.5zm3 4.5v-9.6h1.5v9.6zm6.3 0.1q-0.9 0-1.6-0.4-0.7-0.4-1.2-1.3-0.4-0.8-0.4-1.8 0-1.1 0.4-1.9 0.5-0.8 1.2-1.3 0.7-0.4 1.6-0.4 0.8 0 1.3 0.3 0.6 0.4 1 0.9 0.3 0.5 0.4 1.2 0.2 0.7 0.1 1.5h-4.5q0 0.6 0.2 1 0.2 0.5 0.5 0.8 0.4 0.2 1 0.2 0.5 0 0.8-0.2 0.4-0.3 0.5-0.8h1.5q-0.1 0.7-0.5 1.2-0.4 0.5-1 0.8-0.6 0.2-1.3 0.2zm-1.7-3.2q0 0 0-0.1v-0.6q0-0.1 0-0.2h-0.3v0.9zm3.1-0.9q0 0.1 0 0.2l0.3-0.2zm0-0.5q-0.1-0.3-0.2-0.6-0.2-0.3-0.5-0.5-0.3-0.2-0.7-0.2-0.5 0-0.9 0.3-0.4 0.3-0.6 0.7-0.1 0.4-0.2 0.8h3.1q0-0.2 0-0.5zm6.3 4.6q-0.7 0-1.2-0.3-0.3-0.2-0.6-0.5v4h-1.5v-10.1h1.3l0.1 0.9q0.3-0.5 0.8-0.8 0.5-0.3 1.2-0.3 0.8 0 1.5 0.4 0.7 0.5 1.1 1.3 0.5 0.8 0.5 1.9 0 1.1-0.5 1.9-0.4 0.8-1.1 1.2-0.7 0.4-1.6 0.4zm-1.5-2q0.2 0.3 0.5 0.5 0.4 0.2 0.8 0.2 0.5 0 0.9-0.3 0.4-0.2 0.7-0.7 0.3-0.5 0.3-1.2 0-0.7-0.3-1.2-0.2-0.5-0.6-0.8-0.4-0.2-0.9-0.2-0.5 0-0.8 0.2-0.4 0.2-0.6 0.5-0.3 0.4-0.3 1v1.1q0 0.5 0.3 0.9zm10.9 1.9v-4q0-0.8-0.4-1.2-0.3-0.4-1-0.4-0.5 0-0.9 0.2-0.4 0.3-0.6 0.9-0.3 0.6-0.3 1.4v3.1h-1.5v-9.6h1.5v3.9q0.3-0.5 0.8-0.9 0.6-0.4 1.4-0.4 0.8 0 1.4 0.4 0.6 0.3 0.8 1 0.3 0.7 0.3 1.6v4zm6.2 0.1q-0.9 0-1.7-0.4-0.7-0.4-1.2-1.1-0.4-0.8-0.4-2 0-1.2 0.4-2 0.5-0.8 1.2-1.2 0.8-0.4 1.7-0.4 0.9 0 1.6 0.4 0.8 0.4 1.2 1.2 0.4 0.8 0.4 2 0 1.2-0.4 2-0.4 0.7-1.2 1.1-0.7 0.4-1.6 0.4zm-0.1-1.3q0.6 0 1-0.2 0.4-0.3 0.6-0.8 0.2-0.5 0.2-1.2 0-1.1-0.4-1.7-0.5-0.6-1.3-0.6-0.5 0-0.9 0.3-0.4 0.2-0.6 0.7-0.3 0.5-0.3 1.3 0 1.1 0.5 1.7 0.4 0.5 1.2 0.5zm9.6 1.2v-4q0-0.8-0.4-1.2-0.4-0.4-1-0.4-0.6 0-1 0.2-0.4 0.3-0.6 0.9-0.2 0.6-0.2 1.4v3.1h-1.5v-6.8h1.3l0.2 1.2q0.3-0.6 0.7-1 0.6-0.4 1.5-0.4 0.8 0 1.3 0.4 0.6 0.3 0.9 1 0.3 0.7 0.3 1.6v4zm2.5-6.8h1.7l1.7 5 1.5-5h1.5l-2.6 8q-0.4 1.2-0.9 1.7-0.6 0.6-1.4 0.6-0.5 0-0.9-0.2-0.5-0.1-0.9-0.3v-1.3q0.3 0.2 0.7 0.3 0.4 0.1 0.7 0.1 0.4 0 0.6-0.2 0.3-0.2 0.5-0.5 0.2-0.3 0.3-0.8l0.2-0.6zm3.4 5l-0.1 0.4h0.3zm-68.2 22q-1.2 0-2.1-0.6-0.9-0.6-1.3-1.6-0.5-1.1-0.5-2.6 0-1.5 0.5-2.5 0.5-1.1 1.4-1.6 0.9-0.5 2-0.5 1.5 0 2.4 0.7 0.9 0.8 1.2 2l-1.6 0.3q-0.3-0.7-0.8-1.2-0.5-0.5-1.2-0.5-0.7 0-1.2 0.4-0.5 0.4-0.8 1.1-0.3 0.7-0.3 1.8 0 1.1 0.3 1.8 0.2 0.8 0.7 1.2 0.5 0.4 1.3 0.4 0.9 0 1.4-0.5 0.6-0.5 0.6-1.3h1.6q0 1-0.5 1.7-0.4 0.7-1.2 1.1-0.8 0.4-1.9 0.4zm9.4-0.2l-0.1-1.1q-0.3 0.5-0.8 0.9-0.6 0.4-1.3 0.4-0.9 0-1.5-0.3-0.5-0.3-0.8-0.8-0.3-0.5-0.3-1.1 0-0.6 0.3-1.1 0.4-0.4 1-0.6 0.6-0.2 1.4-0.2 0.5 0 1 0.1 0.5 0 0.9 0.1v-0.7q0-0.8-0.3-1.1-0.3-0.4-1-0.4-0.5 0-0.8 0.1-0.3 0.2-0.4 0.4-0.2 0.2-0.2 0.6h-1.7q0-0.8 0.4-1.3 0.4-0.4 1.1-0.7 0.6-0.2 1.6-0.2 0.8 0 1.4 0.3 0.7 0.3 1 0.9 0.4 0.5 0.4 1.4v4.4zm-0.9-2.9q-0.5-0.1-0.9-0.1-0.6 0-1 0.2-0.4 0.3-0.4 0.8 0 0.4 0.3 0.7 0.3 0.3 1 0.3 0.5 0 0.9-0.2 0.4-0.3 0.6-0.6 0.2-0.4 0.2-0.7v-0.3q-0.3-0.1-0.7-0.1zm4.3 2.9v-9.6h1.5v9.6zm3.7 0v-9.6h1.5v9.6zm6.8 0v-9h3.3q1.6 0 2.4 0.7 0.9 0.8 0.9 2 0 1.2-0.9 2-0.5 0.4-1.3 0.6l2.5 3.7h-2l-2-3.6h-1.4v3.6zm1.5-4.6h1.7q0.9 0 1.4-0.4 0.5-0.5 0.5-1.2 0-0.7-0.5-1.1-0.4-0.4-1.3-0.4h-1.8zm9.5 4.7q-0.9 0-1.6-0.4-0.7-0.5-1.2-1.3-0.4-0.8-0.4-1.9 0-1.1 0.4-1.9 0.5-0.8 1.2-1.2 0.7-0.4 1.6-0.4 0.8 0 1.3 0.3 0.6 0.3 1 0.9 0.3 0.5 0.4 1.2 0.2 0.7 0.1 1.4h-4.5q0 0.6 0.2 1.1 0.2 0.5 0.5 0.7 0.4 0.3 1 0.3 0.5 0 0.8-0.2 0.4-0.3 0.5-0.8h1.5q-0.1 0.7-0.5 1.2-0.4 0.5-1 0.7-0.6 0.3-1.3 0.3zm-1.7-3.3q0 0 0 0v-0.6q0-0.1 0-0.2h-0.3v0.8zm3.1-0.8q0 0.1 0 0.2l0.3-0.2zm0-0.5q-0.1-0.4-0.2-0.7-0.2-0.3-0.5-0.4-0.2-0.2-0.7-0.2-0.5 0-0.9 0.2-0.4 0.3-0.6 0.8-0.1 0.4-0.2 0.8h3.1q0-0.3 0-0.5zm5.6 4.6q-0.9 0-1.6-0.4-0.7-0.5-1.2-1.3-0.4-0.8-0.4-1.9 0-1.1 0.4-1.9 0.5-0.8 1.2-1.2 0.7-0.4 1.6-0.4 0.6 0 1.1 0.2 0.5 0.2 0.8 0.5 0.4 0.4 0.6 0.8 0.2 0.4 0.3 0.9h-1.5q-0.2-0.5-0.5-0.8-0.3-0.3-0.9-0.3-0.4 0-0.8 0.3-0.3 0.2-0.6 0.7-0.2 0.5-0.2 1.2 0 0.8 0.2 1.3 0.2 0.4 0.6 0.7 0.4 0.3 0.8 0.3 0.7 0 1-0.4 0.4-0.3 0.4-0.8h1.5q0 0.7-0.4 1.2-0.3 0.6-0.9 1-0.6 0.3-1.5 0.3zm7 0q-0.9 0-1.7-0.4-0.7-0.4-1.1-1.2-0.5-0.8-0.5-1.9 0-1.3 0.5-2 0.4-0.8 1.1-1.2 0.8-0.4 1.7-0.4 0.9 0 1.6 0.4 0.8 0.4 1.2 1.2 0.4 0.7 0.4 2 0 1.1-0.4 1.9-0.4 0.8-1.2 1.2-0.7 0.4-1.6 0.4zm-0.1-1.3q0.6 0 1-0.3 0.4-0.2 0.6-0.7 0.2-0.5 0.2-1.2 0-1.2-0.4-1.7-0.5-0.6-1.3-0.6-0.5 0-0.9 0.2-0.4 0.3-0.6 0.8-0.3 0.5-0.3 1.3 0 1 0.5 1.6 0.4 0.6 1.2 0.6zm4.9 1.1v-6.8h1.5v1.4q0.3-0.7 0.7-1 0.5-0.5 1.1-0.5 0.2 0 0.4 0.1 0.1 0 0.3 0l-0.1 1.5q-0.1 0-0.4-0.1-0.2 0-0.3 0-0.6 0-1 0.3-0.3 0.3-0.5 0.8-0.2 0.6-0.2 1.3v3zm7.4 0.2q-0.8 0-1.5-0.4-0.7-0.5-1.1-1.3-0.4-0.8-0.4-1.9 0-1.1 0.4-1.9 0.4-0.8 1-1.2 0.7-0.4 1.5-0.4 0.8 0 1.3 0.3 0.4 0.3 0.7 0.7v-3.7h1.5v9.6h-1.2l-0.2-1q-0.3 0.5-0.8 0.9-0.5 0.3-1.2 0.3zm1.7-5q-0.3-0.4-0.6-0.6-0.4-0.2-0.8-0.2-0.5 0-1 0.3-0.3 0.3-0.6 0.8-0.2 0.4-0.2 1.1 0 0.7 0.2 1.2 0.3 0.5 0.6 0.8 0.5 0.3 1 0.3 0.4 0 0.7-0.3 0.4-0.2 0.7-0.6 0.2-0.4 0.2-0.9v-0.9q0-0.6-0.2-1zm4.8-3.3q-0.4 0-0.7-0.2-0.2-0.3-0.2-0.7 0-0.4 0.2-0.6 0.3-0.3 0.7-0.3 0.5 0 0.7 0.3 0.3 0.2 0.3 0.6 0 0.4-0.3 0.7-0.2 0.2-0.7 0.2zm-0.7 8.1v-6.8h1.5v6.8zm8.6 0v-3.9q0-0.8-0.4-1.3-0.4-0.4-1-0.4-0.6 0-1 0.3-0.4 0.3-0.6 0.9-0.2 0.5-0.2 1.4v3h-1.5v-6.7h1.3l0.2 1.1q0.3-0.5 0.7-0.9 0.6-0.4 1.5-0.4 0.8 0 1.3 0.3 0.6 0.4 0.9 1.1 0.3 0.7 0.3 1.6v3.9zm6.1 3.5q-1.2 0-2-0.3-0.8-0.3-1.2-0.8-0.4-0.5-0.4-1.1 0-0.8 0.5-1.2 0.3-0.2 0.8-0.3-0.3-0.2-0.5-0.4-0.3-0.4-0.3-0.8 0-0.5 0.2-0.8 0.3-0.3 0.7-0.4 0.1-0.1 0.2-0.1-0.2-0.2-0.4-0.5-0.4-0.5-0.4-1.3 0-0.7 0.4-1.3 0.4-0.5 1-0.8 0.7-0.3 1.5-0.3 0.8 0 1.4 0.3 0.1 0 0.3 0.1 0-0.4 0.2-0.8 0.3-0.4 0.7-0.7 0.5-0.2 1.1-0.2l-0.1 1.4q-0.6 0-0.9 0.2-0.3 0.3-0.4 0.7 0.1 0 0.2 0.1 0.4 0.6 0.4 1.3 0 0.8-0.4 1.3-0.4 0.6-1.1 0.9-0.6 0.3-1.4 0.3-0.7 0-1.3-0.3-0.1 0-0.2 0.1-0.2 0.1-0.3 0.2-0.1 0.2-0.1 0.4 0 0.3 0.2 0.5 0.3 0.2 0.9 0.2h2.4q1 0 1.6 0.4 0.6 0.4 0.6 1.2 0 0.7-0.5 1.3-0.4 0.7-1.3 1.1-0.9 0.4-2.1 0.4zm-2.3-3.7q0.2 0.1 0.4 0.1 0.5 0.3 1.2 0.3l-1-0.5q-0.3 0-0.6 0.1zm0.5 0.6q-0.4 0.3-0.4 0.8 0 0.5 0.6 0.8 0.6 0.3 1.6 0.3 0.7 0 1.3-0.2 0.5-0.2 0.8-0.6 0.3-0.3 0.3-0.7 0-0.3-0.2-0.5-0.2-0.1-0.5-0.1h-2.4q-0.7 0-1.1 0.2zm1.9-3.5q0.7 0 1-0.4 0.4-0.4 0.4-1 0-0.6-0.4-1-0.3-0.4-1-0.4-0.7 0-1 0.4-0.4 0.4-0.4 1 0 0.6 0.4 1 0.3 0.4 1 0.4zm-121.9 23.1v-9h1.5v9zm8.4 0v-3.9q0-0.8-0.4-1.3-0.4-0.4-1-0.4-0.6 0-1 0.3-0.3 0.3-0.6 0.9-0.2 0.5-0.2 1.4v3h-1.5v-6.7h1.3l0.2 1.1q0.3-0.5 0.7-0.9 0.6-0.4 1.5-0.4 0.8 0 1.3 0.3 0.6 0.4 0.9 1.1 0.3 0.7 0.3 1.6v3.9zm6.9 0.2q-0.7 0-1.2-0.3-0.5-0.4-0.8-1.1l-0.4 1.2h-1v-9.6h1.5v3.8q0.3-0.5 0.7-0.8 0.5-0.3 1.3-0.3 0.8 0 1.5 0.4 0.7 0.4 1.1 1.2 0.4 0.8 0.4 1.9 0 1.1-0.5 1.9-0.4 0.8-1.1 1.3-0.7 0.4-1.5 0.4zm-1.6-2.2q0.2 0.4 0.6 0.6 0.4 0.3 0.8 0.3 0.5 0 0.9-0.3 0.4-0.3 0.6-0.8 0.2-0.5 0.2-1.2 0-0.7-0.2-1.1-0.2-0.5-0.6-0.8-0.4-0.3-0.9-0.3-0.5 0-0.8 0.2-0.4 0.2-0.6 0.6-0.3 0.4-0.3 1v0.9q0 0.5 0.3 0.9zm8.9 2.2q-0.9 0-1.6-0.4-0.8-0.4-1.2-1.2-0.4-0.8-0.4-1.9 0-1.3 0.4-2 0.4-0.8 1.2-1.2 0.7-0.4 1.6-0.4 0.9 0 1.7 0.4 0.7 0.4 1.1 1.2 0.5 0.7 0.5 2 0 1.1-0.5 1.9-0.4 0.8-1.1 1.2-0.8 0.4-1.7 0.4zm0-1.3q0.5 0 0.9-0.3 0.4-0.2 0.6-0.7 0.3-0.5 0.3-1.2 0-1.2-0.5-1.7-0.4-0.6-1.2-0.6-0.6 0-1 0.2-0.4 0.3-0.6 0.8-0.2 0.5-0.2 1.3 0 1 0.4 1.6 0.5 0.6 1.3 0.6zm9.4-5.7h1.5v6.8h-1.5v-1.2q-0.3 0.6-0.8 0.9-0.6 0.5-1.3 0.5-0.8 0-1.4-0.3-0.5-0.3-0.9-0.8-0.3-0.6-0.3-1.5v-4.4h1.5v4.2q0 0.7 0.3 1.1 0.4 0.3 1 0.3 0.5 0 1-0.2 0.4-0.3 0.6-0.8 0.3-0.6 0.3-1.3zm8.4 6.8v-4q0-0.8-0.4-1.2-0.4-0.4-1-0.4-0.5 0-0.9 0.3-0.4 0.2-0.7 0.8-0.2 0.6-0.2 1.4v3.1h-1.5v-6.8h1.3l0.2 1.2q0.3-0.6 0.8-0.9 0.6-0.5 1.4-0.5 0.8 0 1.4 0.4 0.5 0.4 0.8 1 0.3 0.7 0.3 1.6v4zm6 0.2q-0.8 0-1.5-0.5-0.7-0.4-1.1-1.2-0.4-0.8-0.4-1.9 0-1.1 0.4-1.9 0.4-0.8 1-1.2 0.7-0.5 1.5-0.5 0.8 0 1.3 0.4 0.4 0.2 0.7 0.7v-3.7h1.5v9.6h-1.2l-0.2-1.1q-0.3 0.6-0.8 0.9-0.5 0.4-1.2 0.4zm1.7-5q-0.3-0.4-0.7-0.6-0.3-0.2-0.8-0.2-0.5 0-0.9 0.2-0.4 0.3-0.6 0.8-0.2 0.5-0.2 1.2 0 0.6 0.2 1.2 0.2 0.5 0.6 0.7 0.4 0.3 0.9 0.3 0.5 0 0.8-0.2 0.4-0.2 0.6-0.6 0.3-0.4 0.3-1v-0.8q0-0.6-0.2-1zm10.2 5q-1.1 0-2-0.6-0.9-0.6-1.4-1.6-0.5-1.1-0.5-2.6 0-1.5 0.6-2.5 0.5-1 1.3-1.6 0.9-0.5 2-0.5 1.6 0 2.5 0.8 0.9 0.7 1.1 1.9l-1.6 0.3q-0.2-0.7-0.7-1.2-0.5-0.4-1.3-0.4-0.6 0-1.1 0.3-0.5 0.4-0.8 1.1-0.3 0.8-0.3 1.8 0 1.1 0.2 1.8 0.3 0.8 0.8 1.2 0.5 0.4 1.2 0.4 1 0 1.5-0.5 0.5-0.5 0.5-1.3h1.6q0 1-0.4 1.7-0.5 0.7-1.3 1.1-0.8 0.4-1.9 0.4zm9.5-0.2l-0.2-1.1q-0.2 0.5-0.8 0.9-0.5 0.4-1.3 0.4-0.8 0-1.4-0.3-0.6-0.3-0.9-0.8-0.3-0.5-0.3-1.1 0-0.6 0.4-1.1 0.3-0.4 0.9-0.6 0.6-0.2 1.5-0.2 0.5 0 1 0.1 0.4 0 0.9 0.2v-0.8q0-0.8-0.3-1.1-0.4-0.4-1.1-0.4-0.4 0-0.7 0.1-0.3 0.2-0.5 0.4-0.2 0.2-0.2 0.6h-1.6q0-0.8 0.4-1.3 0.3-0.4 1-0.6 0.7-0.3 1.6-0.3 0.9 0 1.5 0.3 0.6 0.3 1 0.9 0.4 0.5 0.4 1.5v4.3zm-1-2.9q-0.4-0.1-0.8-0.1-0.7 0-1.1 0.2-0.4 0.3-0.4 0.8 0 0.4 0.4 0.7 0.3 0.3 1 0.3 0.5 0 0.9-0.2 0.4-0.2 0.6-0.6 0.2-0.3 0.2-0.7v-0.3q-0.4-0.1-0.8-0.1zm4.3 2.9v-9.6h1.5v9.6zm3.8 0v-9.6h1.5v9.6zm6.8-9h2.1l2.7 5.5 2.6-5.5h2.1v9h-1.6v-6.8l-2.7 5.8h-0.9l-2.8-6v7h-1.5zm4.8 5.5l-0.1 0.2h0.1zm3.2-3.4l0.2-0.5h-0.2zm-6.5-0.2v-0.3h-0.1zm14.5 7l-0.1-1.1q-0.3 0.6-0.8 0.9-0.6 0.4-1.3 0.4-0.9 0-1.5-0.3-0.5-0.3-0.8-0.8-0.3-0.5-0.3-1.1 0-0.6 0.3-1 0.4-0.5 1-0.7 0.6-0.2 1.4-0.2 0.6 0 1 0.1 0.5 0.1 0.9 0.2v-0.8q0-0.7-0.3-1.1-0.3-0.4-1-0.4-0.4 0-0.8 0.2-0.3 0.1-0.4 0.3-0.2 0.3-0.2 0.6h-1.7q0-0.8 0.4-1.2 0.4-0.5 1.1-0.7 0.6-0.3 1.6-0.3 0.8 0 1.4 0.3 0.7 0.3 1 0.9 0.4 0.6 0.4 1.5v4.3zm-0.9-2.9q-0.5-0.1-0.9-0.1-0.6 0-1 0.3-0.4 0.2-0.4 0.7 0 0.5 0.3 0.7 0.3 0.3 1 0.3 0.5 0 0.9-0.2 0.4-0.2 0.6-0.6 0.2-0.3 0.2-0.7v-0.2q-0.3-0.1-0.7-0.2zm9 2.9v-4q0-0.8-0.4-1.2-0.4-0.4-1.1-0.4-0.5 0-0.9 0.3-0.4 0.3-0.6 0.8-0.2 0.6-0.2 1.4v3.1h-1.5v-6.8h1.3l0.1 1.2q0.3-0.6 0.8-0.9 0.6-0.5 1.4-0.5 0.8 0 1.4 0.4 0.6 0.4 0.9 1.1 0.3 0.6 0.3 1.5v4zm7.8 0l-0.2-1.1q-0.2 0.6-0.8 0.9-0.5 0.4-1.3 0.4-0.8 0-1.4-0.3-0.6-0.3-0.9-0.8-0.3-0.5-0.3-1.1 0-0.6 0.4-1 0.3-0.5 0.9-0.7 0.6-0.2 1.5-0.2 0.5 0 1 0.1 0.4 0.1 0.9 0.2v-0.8q0-0.7-0.3-1.1-0.4-0.4-1.1-0.4-0.4 0-0.7 0.2-0.3 0.1-0.5 0.3-0.1 0.3-0.1 0.6h-1.7q0-0.8 0.4-1.2 0.3-0.5 1-0.7 0.7-0.3 1.6-0.3 0.9 0 1.5 0.3 0.7 0.3 1 0.9 0.4 0.6 0.4 1.5v4.3zm-1-2.9q-0.4-0.1-0.8-0.1-0.6 0-1.1 0.3-0.4 0.2-0.4 0.7 0 0.5 0.4 0.7 0.3 0.3 1 0.3 0.5 0 0.9-0.2 0.4-0.2 0.6-0.6 0.2-0.3 0.2-0.7v-0.2q-0.4-0.1-0.8-0.2zm6.9 6.4q-1.2 0-2-0.3-0.8-0.3-1.2-0.8-0.4-0.6-0.4-1.2 0-0.7 0.5-1.1 0.3-0.3 0.8-0.3-0.3-0.2-0.5-0.5-0.3-0.3-0.3-0.8 0-0.4 0.2-0.7 0.3-0.3 0.7-0.5 0.1 0 0.2-0.1-0.2-0.2-0.4-0.4-0.4-0.6-0.4-1.3 0-0.7 0.4-1.3 0.4-0.6 1-0.9 0.7-0.3 1.5-0.3 0.8 0 1.4 0.3 0.1 0.1 0.3 0.2 0-0.5 0.2-0.8 0.3-0.5 0.8-0.7 0.4-0.3 1-0.3l-0.1 1.5q-0.6 0-0.9 0.2-0.3 0.2-0.4 0.7 0.1 0 0.2 0.1 0.4 0.6 0.4 1.3 0 0.7-0.4 1.3-0.4 0.5-1.1 0.8-0.6 0.3-1.4 0.3-0.7 0-1.3-0.2-0.1 0-0.2 0.1-0.2 0-0.3 0.2-0.1 0.2-0.1 0.4 0 0.3 0.2 0.5 0.3 0.2 0.9 0.2h2.4q1 0 1.6 0.4 0.6 0.4 0.6 1.2 0 0.7-0.5 1.3-0.4 0.7-1.3 1.1-0.9 0.4-2.1 0.4zm-2.3-3.7q0.2 0 0.4 0.1 0.5 0.2 1.2 0.2l-1-0.4q-0.3 0-0.6 0.1zm0.5 0.6q-0.4 0.3-0.4 0.8 0 0.5 0.6 0.8 0.6 0.3 1.6 0.3 0.7 0 1.3-0.2 0.5-0.2 0.8-0.6 0.3-0.3 0.3-0.7 0-0.3-0.2-0.5-0.2-0.2-0.5-0.2h-2.4q-0.7 0-1.1 0.3zm1.9-3.5q0.7 0 1-0.4 0.4-0.4 0.4-1 0-0.6-0.4-1-0.3-0.4-1-0.4-0.7 0-1 0.4-0.4 0.4-0.4 1 0 0.6 0.4 1 0.3 0.4 1 0.4zm7.5 3.3q-0.9 0-1.6-0.5-0.7-0.4-1.2-1.2-0.4-0.8-0.4-1.9 0-1.1 0.4-1.9 0.5-0.8 1.2-1.2 0.7-0.5 1.6-0.5 0.8 0 1.3 0.4 0.6 0.3 1 0.8 0.3 0.6 0.4 1.3 0.2 0.7 0.1 1.4h-4.5q0 0.6 0.2 1.1 0.2 0.4 0.5 0.7 0.4 0.3 1 0.3 0.5 0 0.8-0.3 0.4-0.2 0.5-0.7h1.5q-0.1 0.6-0.5 1.1-0.4 0.5-1 0.8-0.6 0.3-1.3 0.3zm-1.7-3.3q0 0 0 0v-0.6q0-0.1 0-0.2h-0.3v0.8zm3.1-0.8q0 0.1 0 0.2l0.3-0.2zm0-0.5q-0.1-0.4-0.2-0.7-0.2-0.3-0.5-0.5-0.2-0.2-0.7-0.2-0.5 0-0.9 0.3-0.4 0.3-0.6 0.8-0.1 0.3-0.2 0.8h3.1q0-0.3 0-0.5zm12.3 4.4v-4q0-0.8-0.4-1.2-0.4-0.4-1-0.4-0.8 0-1.2 0.6-0.5 0.6-0.5 1.9v3.1h-1.5v-4q0-0.8-0.4-1.2-0.3-0.4-1-0.4-0.5 0-0.9 0.3-0.4 0.3-0.6 0.8-0.3 0.6-0.3 1.4v3.1h-1.5v-6.8h1.4l0.1 1.2q0.3-0.6 0.9-1 0.6-0.4 1.3-0.4 0.8 0 1.4 0.4 0.5 0.4 0.8 1.1 0.1 0 0.1 0.1 0.1-0.4 0.3-0.7 0.4-0.4 0.9-0.6 0.5-0.3 1.1-0.3 0.8 0 1.4 0.4 0.5 0.4 0.8 1.1 0.3 0.6 0.3 1.5v4zm6 0.2q-0.8 0-1.5-0.5-0.8-0.4-1.2-1.2-0.4-0.8-0.4-1.9 0-1.1 0.4-1.9 0.4-0.8 1.2-1.2 0.7-0.5 1.5-0.5 0.8 0 1.4 0.4 0.6 0.3 0.9 0.8 0.4 0.6 0.5 1.3 0.2 0.7 0.1 1.4h-4.5q0 0.6 0.2 1.1 0.2 0.4 0.5 0.7 0.4 0.3 0.9 0.3 0.6 0 0.9-0.3 0.4-0.2 0.5-0.7h1.5q-0.1 0.6-0.5 1.1-0.4 0.5-1 0.8-0.6 0.3-1.4 0.3zm-1.6-3.3q0 0 0 0v-0.6q0-0.1 0-0.2h-0.3v0.8zm3.1-0.8q0 0.1 0 0.2l0.3-0.2zm0-0.5q-0.1-0.4-0.2-0.7-0.2-0.3-0.5-0.5-0.3-0.2-0.7-0.2-0.6 0-0.9 0.3-0.4 0.3-0.6 0.8-0.1 0.3-0.2 0.8h3.1q0-0.3 0-0.5zm7.7 4.4v-4q0-0.8-0.4-1.2-0.4-0.4-1-0.4-0.5 0-0.9 0.3-0.4 0.3-0.7 0.8-0.2 0.6-0.2 1.4v3.1h-1.5v-6.8h1.3l0.2 1.2q0.3-0.6 0.8-0.9 0.6-0.5 1.4-0.5 0.8 0 1.4 0.4 0.5 0.4 0.8 1.1 0.3 0.6 0.3 1.5v4zm5.8 0.2q-0.6 0-1.1-0.2-0.5-0.3-0.8-0.7-0.3-0.5-0.3-1.1v-4h-0.9v-1h0.9v-1.8h1.5v1.8h2v1h-2v3.9q0 0.9 0.9 0.9 0.2 0 0.5-0.1 0.3 0 0.6-0.1l0.2 1q-0.4 0.2-0.8 0.3-0.3 0.1-0.7 0.1zm-163.3 20q-1.2 0-2.1-0.5-0.9-0.6-1.4-1.6-0.5-1-0.5-2.6 0-1.6 0.5-2.6 0.5-1.1 1.4-1.6 0.9-0.5 2.1-0.5 1.2 0 2.1 0.5 0.9 0.6 1.4 1.6 0.5 1 0.5 2.6 0 1.6-0.5 2.6-0.5 1.1-1.4 1.6-0.9 0.5-2.1 0.5zm0-1.4q1.1 0 1.8-0.8 0.7-0.9 0.7-2.5 0-1.6-0.7-2.5-0.7-0.8-1.8-0.8-1.1 0-1.8 0.8-0.7 0.9-0.7 2.5 0 1.6 0.7 2.5 0.7 0.8 1.8 0.8zm14.9 1.2v-4q0-0.8-0.4-1.2-0.4-0.4-1-0.4-0.8 0-1.3 0.6-0.4 0.6-0.4 1.9v3.1h-1.5v-4q0-0.8-0.4-1.2-0.4-0.4-1-0.4-0.5 0-0.9 0.3-0.4 0.3-0.7 0.8-0.2 0.6-0.2 1.4v3.1h-1.5v-6.8h1.3l0.2 1.2q0.3-0.6 0.9-1 0.5-0.4 1.3-0.4 0.8 0 1.4 0.4 0.5 0.4 0.8 1.1 0 0 0.1 0.1 0.1-0.4 0.3-0.7 0.4-0.4 0.9-0.6 0.5-0.3 1.1-0.3 0.8 0 1.4 0.4 0.5 0.4 0.8 1.1 0.3 0.6 0.3 1.5v4zm8.2 0v-4q0-0.8-0.4-1.2-0.4-0.4-1-0.4-0.5 0-0.9 0.3-0.4 0.3-0.6 0.8-0.3 0.6-0.3 1.4v3.1h-1.5v-6.8h1.3l0.2 1.2q0.3-0.6 0.8-0.9 0.6-0.5 1.4-0.5 0.8 0 1.4 0.4 0.5 0.4 0.8 1.1 0.3 0.6 0.3 1.5v4zm4.4-8.1q-0.4 0-0.7-0.2-0.2-0.3-0.2-0.7 0-0.4 0.2-0.6 0.3-0.3 0.7-0.3 0.5 0 0.7 0.3 0.3 0.2 0.3 0.6 0 0.4-0.3 0.7-0.2 0.2-0.7 0.2zm-0.7 8.1v-6.8h1.5v6.8zm10.2 0.2q-1.2 0-2.1-0.6-0.8-0.6-1.3-1.6-0.5-1.1-0.5-2.5 0-1.6 0.5-2.6 0.5-1 1.4-1.5 0.9-0.6 2-0.6 1.5 0 2.4 0.8 0.9 0.7 1.2 1.9l-1.6 0.3q-0.3-0.7-0.8-1.2-0.5-0.4-1.2-0.4-0.6 0-1.1 0.3-0.6 0.4-0.9 1.1-0.3 0.8-0.3 1.9 0 1 0.3 1.7 0.3 0.8 0.8 1.2 0.5 0.4 1.2 0.4 0.9 0 1.5-0.5 0.5-0.5 0.5-1.3h1.6q0 1-0.5 1.7-0.4 0.7-1.2 1.1-0.8 0.4-1.9 0.4zm9.8-0.2v-4q0-0.8-0.4-1.2-0.3-0.4-1-0.4-0.5 0-0.9 0.3-0.4 0.3-0.6 0.8-0.3 0.6-0.3 1.4v3.1h-1.5v-9.6h1.5v4q0.3-0.6 0.8-0.9 0.6-0.5 1.4-0.5 0.8 0 1.4 0.4 0.5 0.4 0.8 1.1 0.3 0.6 0.3 1.5v4zm7.8 0l-0.1-1.1q-0.3 0.6-0.8 0.9-0.5 0.4-1.3 0.4-0.9 0-1.4-0.3-0.6-0.3-0.9-0.8-0.3-0.5-0.3-1.1 0-0.6 0.4-1 0.3-0.5 0.9-0.7 0.6-0.2 1.4-0.2 0.6 0 1.1 0.1 0.4 0.1 0.8 0.2v-0.8q0-0.7-0.3-1.1-0.3-0.4-1-0.4-0.4 0-0.7 0.2-0.3 0.1-0.5 0.3-0.2 0.3-0.2 0.6h-1.6q0-0.8 0.4-1.2 0.3-0.5 1-0.7 0.7-0.3 1.6-0.3 0.9 0 1.5 0.3 0.6 0.3 1 0.9 0.3 0.6 0.3 1.5v4.3zm-0.9-2.9q-0.4-0.1-0.9-0.1-0.6 0-1 0.3-0.4 0.2-0.4 0.7 0 0.5 0.3 0.7 0.4 0.3 1.1 0.3 0.5 0 0.9-0.2 0.3-0.2 0.5-0.6 0.3-0.3 0.3-0.7v-0.2q-0.4-0.1-0.8-0.2zm9 2.9v-4q0-0.8-0.4-1.2-0.4-0.4-1-0.4-0.6 0-1 0.3-0.4 0.3-0.6 0.8-0.2 0.6-0.2 1.4v3.1h-1.5v-6.8h1.3l0.2 1.2q0.3-0.6 0.7-0.9 0.6-0.5 1.5-0.5 0.8 0 1.3 0.4 0.6 0.4 0.9 1.1 0.3 0.6 0.3 1.5v4zm8.2 0v-4q0-0.8-0.4-1.2-0.4-0.4-1-0.4-0.5 0-0.9 0.3-0.4 0.3-0.7 0.8-0.2 0.6-0.2 1.4v3.1h-1.5v-6.8h1.3l0.2 1.2q0.3-0.6 0.8-0.9 0.6-0.5 1.4-0.5 0.8 0 1.4 0.4 0.5 0.4 0.8 1.1 0.3 0.6 0.3 1.5v4zm6 0.2q-0.9 0-1.6-0.5-0.7-0.4-1.1-1.2-0.4-0.8-0.4-1.9 0-1.1 0.4-1.9 0.4-0.8 1.1-1.2 0.7-0.5 1.6-0.5 0.8 0 1.4 0.4 0.6 0.3 0.9 0.8 0.4 0.6 0.5 1.3 0.1 0.7 0 1.4h-4.4q0 0.6 0.2 1.1 0.1 0.4 0.5 0.7 0.4 0.3 0.9 0.3 0.5 0 0.9-0.3 0.4-0.2 0.4-0.7h1.6q-0.1 0.6-0.5 1.1-0.4 0.5-1 0.8-0.6 0.3-1.4 0.3zm-1.6-3.3q0 0 0 0v-0.6q0-0.1 0-0.2h-0.3v0.8zm3.1-0.8q0 0.1 0 0.2l0.3-0.2zm0-0.5q-0.1-0.4-0.3-0.7-0.1-0.3-0.4-0.5-0.3-0.2-0.7-0.2-0.6 0-1 0.3-0.3 0.3-0.5 0.8-0.2 0.3-0.2 0.8h3.1q0-0.3 0-0.5zm3 4.4v-9.6h1.5v9.6zm6.8-9h2.2l2.6 5.6 2.6-5.6h2.1v9h-1.5v-6.8l-2.7 5.8h-1l-2.8-6v7h-1.5zm4.8 5.6l-0.1 0.1h0.1zm3.2-3.4l0.3-0.5h-0.3zm-6.4-0.1v-0.3h-0.2zm14.5 6.9l-0.1-1.1q-0.3 0.6-0.8 0.9-0.5 0.4-1.3 0.4-0.9 0-1.4-0.3-0.6-0.3-0.9-0.8-0.3-0.5-0.3-1 0-0.7 0.3-1.1 0.4-0.5 1-0.7 0.6-0.2 1.4-0.2 0.6 0 1.1 0.1 0.4 0.1 0.8 0.2v-0.8q0-0.7-0.3-1.1-0.3-0.3-1-0.3-0.4 0-0.7 0.1-0.3 0.1-0.5 0.3-0.2 0.3-0.2 0.6h-1.6q0-0.7 0.3-1.2 0.4-0.5 1.1-0.7 0.7-0.2 1.6-0.2 0.8 0 1.5 0.2 0.6 0.3 1 0.9 0.3 0.6 0.3 1.5v4.3zm-0.9-2.9q-0.5-0.1-0.9-0.1-0.6 0-1 0.3-0.4 0.2-0.4 0.8 0 0.4 0.3 0.7 0.4 0.3 1.1 0.3 0.5 0 0.9-0.3 0.3-0.2 0.5-0.6 0.2-0.3 0.2-0.7v-0.2q-0.3-0.1-0.7-0.2zm9 2.9v-3.9q0-0.9-0.4-1.3-0.4-0.4-1-0.4-0.6 0-1 0.3-0.4 0.3-0.6 0.9-0.2 0.5-0.2 1.3v3.1h-1.5v-6.7h1.3l0.2 1.1q0.3-0.6 0.7-0.9 0.6-0.4 1.4-0.4 0.9 0 1.4 0.3 0.6 0.4 0.9 1.1 0.3 0.7 0.3 1.6v3.9zm7.8 0l-0.1-1.1q-0.3 0.6-0.8 0.9-0.6 0.4-1.4 0.4-0.8 0-1.4-0.3-0.6-0.3-0.8-0.8-0.3-0.5-0.3-1 0-0.7 0.3-1.1 0.4-0.5 1-0.7 0.6-0.2 1.4-0.2 0.5 0 1 0.1 0.5 0.1 0.9 0.2v-0.8q0-0.7-0.3-1.1-0.3-0.3-1-0.3-0.5 0-0.8 0.1-0.3 0.1-0.4 0.3-0.2 0.3-0.2 0.6h-1.7q0-0.7 0.4-1.2 0.4-0.5 1-0.7 0.7-0.2 1.7-0.2 0.8 0 1.4 0.2 0.7 0.3 1 0.9 0.4 0.6 0.4 1.5v4.3zm-0.9-2.9q-0.5-0.1-0.9-0.1-0.6 0-1 0.3-0.4 0.2-0.4 0.8 0 0.4 0.3 0.7 0.3 0.3 1 0.3 0.5 0 0.9-0.3 0.4-0.2 0.6-0.6 0.2-0.3 0.2-0.7v-0.2q-0.3-0.1-0.7-0.2zm6.8 6.4q-1.1 0-1.9-0.3-0.8-0.3-1.3-0.8-0.4-0.5-0.4-1.1 0-0.8 0.5-1.2 0.4-0.2 0.9-0.3-0.3-0.2-0.6-0.4-0.3-0.4-0.3-0.9 0-0.4 0.3-0.7 0.2-0.3 0.6-0.4 0.1-0.1 0.2-0.1-0.2-0.2-0.4-0.5-0.4-0.5-0.4-1.3 0-0.7 0.4-1.3 0.4-0.5 1.1-0.8 0.6-0.3 1.4-0.3 0.8 0 1.4 0.3 0.2 0 0.3 0.1 0-0.4 0.2-0.8 0.3-0.4 0.8-0.7 0.4-0.2 1-0.2l-0.1 1.4q-0.6 0-0.9 0.2-0.3 0.2-0.3 0.7 0 0 0.1 0.1 0.4 0.6 0.4 1.3 0 0.8-0.4 1.3-0.4 0.6-1.1 0.9-0.6 0.3-1.4 0.3-0.7 0-1.3-0.3-0.1 0-0.1 0.1-0.2 0.1-0.4 0.2-0.1 0.2-0.1 0.4 0 0.3 0.3 0.5 0.2 0.2 0.8 0.2h2.4q1 0 1.6 0.4 0.6 0.4 0.6 1.2 0 0.7-0.4 1.3-0.5 0.7-1.4 1.1-0.9 0.4-2.1 0.4zm-2.2-3.7q0.1 0.1 0.3 0.1 0.5 0.3 1.2 0.3l-1-0.5q-0.3 0-0.5 0.1zm0.4 0.6q-0.3 0.3-0.3 0.8 0 0.5 0.5 0.8 0.6 0.3 1.6 0.3 0.7 0 1.3-0.2 0.5-0.2 0.8-0.6 0.4-0.3 0.4-0.7 0-0.3-0.2-0.5-0.2-0.1-0.6-0.1h-2.4q-0.7 0-1.1 0.2zm1.9-3.5q0.7 0 1.1-0.4 0.3-0.4 0.3-1 0-0.6-0.3-1-0.4-0.4-1.1-0.4-0.6 0-1 0.4-0.4 0.4-0.4 1 0 0.6 0.4 1 0.4 0.4 1 0.4zm7.5 3.3q-0.9 0-1.6-0.4-0.7-0.5-1.1-1.3-0.4-0.8-0.4-1.9 0-1.1 0.4-1.9 0.4-0.8 1.1-1.2 0.7-0.4 1.6-0.4 0.8 0 1.4 0.3 0.5 0.3 0.9 0.9 0.4 0.5 0.5 1.2 0.1 0.7 0 1.4h-4.5q0 0.6 0.2 1.1 0.2 0.4 0.6 0.7 0.3 0.3 0.9 0.3 0.5 0 0.9-0.2 0.3-0.3 0.4-0.8h1.5q-0.1 0.7-0.4 1.2-0.4 0.5-1 0.7-0.6 0.3-1.4 0.3zm-1.7-3.3q0 0 0 0v-0.6q0-0.1 0.1-0.2h-0.3v0.8zm3.1-0.8q0 0.1-0.1 0.2l0.4-0.2zm-0.1-0.5q0-0.4-0.2-0.7-0.1-0.3-0.4-0.5-0.3-0.1-0.8-0.1-0.5 0-0.9 0.2-0.4 0.3-0.5 0.8-0.2 0.3-0.2 0.8h3.1q0-0.3-0.1-0.5zm12.4 4.4v-3.9q0-0.9-0.4-1.3-0.4-0.4-1.1-0.4-0.8 0-1.2 0.6-0.4 0.7-0.4 1.9v3.1h-1.5v-3.9q0-0.9-0.4-1.3-0.4-0.4-1.1-0.4-0.5 0-0.9 0.3-0.4 0.3-0.6 0.9-0.2 0.5-0.2 1.3v3.1h-1.5v-6.7h1.3l0.1 1.2q0.4-0.7 0.9-1.1 0.6-0.3 1.3-0.3 0.9 0 1.4 0.3 0.6 0.4 0.9 1.1 0 0 0 0.1 0.2-0.4 0.4-0.6 0.3-0.5 0.8-0.7 0.5-0.2 1.1-0.2 0.9 0 1.4 0.3 0.6 0.4 0.9 1.1 0.3 0.7 0.3 1.6v3.9zm6 0.2q-0.9 0-1.6-0.4-0.7-0.5-1.1-1.3-0.5-0.8-0.5-1.9 0-1.1 0.5-1.9 0.4-0.8 1.1-1.2 0.7-0.4 1.6-0.4 0.8 0 1.3 0.3 0.6 0.3 1 0.9 0.3 0.5 0.5 1.2 0.1 0.7 0 1.4h-4.5q0 0.6 0.2 1.1 0.2 0.4 0.6 0.7 0.3 0.3 0.9 0.3 0.5 0 0.8-0.2 0.4-0.3 0.5-0.8h1.5q-0.1 0.7-0.5 1.2-0.4 0.5-1 0.7-0.6 0.3-1.3 0.3zm-1.7-3.3q0 0 0 0v-0.6q0-0.1 0-0.2h-0.3v0.8zm3.1-0.8q0 0.1 0 0.2l0.3-0.2zm0-0.5q-0.1-0.4-0.2-0.7-0.2-0.3-0.5-0.5-0.2-0.1-0.7-0.1-0.5 0-0.9 0.2-0.4 0.3-0.6 0.8-0.1 0.3-0.1 0.8h3q0-0.3 0-0.5zm7.7 4.4v-3.9q0-0.9-0.4-1.3-0.3-0.4-1-0.4-0.5 0-0.9 0.3-0.4 0.3-0.6 0.9-0.3 0.5-0.3 1.3v3.1h-1.5v-6.7h1.4l0.1 1.1q0.3-0.6 0.8-0.9 0.6-0.4 1.4-0.4 0.8 0 1.4 0.3 0.6 0.4 0.8 1.1 0.3 0.7 0.3 1.6v3.9zm5.8 0.2q-0.6 0-1.1-0.2-0.4-0.2-0.7-0.7-0.3-0.4-0.3-1.1v-3.9h-1v-1h1v-1.9h1.5v1.9h1.9v1h-1.9v3.8q0 0.9 0.8 0.9 0.3 0 0.5 0 0.3-0.1 0.6-0.2l0.2 1q-0.4 0.2-0.7 0.3-0.4 0.1-0.8 0.1z"/>
	</g>
	<g>
		<path class="s6" d="m224 51h295c4.4 0 8 3.6 8 8v32c0 4.4-3.6 8-8 8h-295c-4.4 0-8-3.6-8-8v-32c0-4.4 3.6-8 8-8z"/>
		<path fill-rule="evenodd" class="s9" d="m255.3 63q0.9 0 1.5 0.7 0.7 0.6 0.7 1.6v14.9q0 1-0.7 1.6-0.6 0.7-1.6 0.7h-9l0.8 2.2h3.4q1 0.1 1.1 1.2-0.1 1-1.1 1.1h-12.8q-1-0.1-1.1-1.1 0.1-1.1 1.1-1.2h3.4l0.7-2.2h-9q-0.9 0-1.5-0.7-0.7-0.6-0.7-1.6v-15q0-0.9 0.7-1.5 0.6-0.7 1.5-0.7zm-0.7 16.5v-13.5h-21v13.5z"/>
		<path fill-rule="evenodd" class="s5" d="m273.6 80.2q-1.3 0-2.3-0.6-1-0.7-1.6-1.9-0.5-1.2-0.5-2.9 0-1.7 0.6-2.9 0.5-1.2 1.5-1.8 1.1-0.6 2.3-0.6 1.8 0 2.8 0.9 1 0.8 1.3 2.2l-1.8 0.3q-0.3-0.8-0.9-1.3-0.5-0.5-1.4-0.5-0.7 0-1.3 0.4-0.6 0.4-0.9 1.2-0.4 0.9-0.4 2.1 0 1.2 0.3 2 0.3 0.9 0.9 1.4 0.6 0.4 1.4 0.4 1.1 0 1.7-0.5 0.6-0.6 0.6-1.5h1.8q0 1.2-0.5 2-0.5 0.8-1.4 1.2-0.9 0.4-2.2 0.4zm10.8-0.2l-0.2-1.3q-0.3 0.7-0.9 1.1-0.6 0.4-1.5 0.4-1 0-1.6-0.3-0.7-0.4-1-0.9-0.3-0.6-0.3-1.2 0-0.8 0.4-1.3 0.4-0.5 1.1-0.7 0.7-0.3 1.6-0.3 0.6 0 1.2 0.1 0.5 0.1 1 0.3v-0.9q0-0.9-0.4-1.3-0.3-0.4-1.2-0.4-0.4 0-0.8 0.1-0.3 0.2-0.5 0.5-0.2 0.2-0.2 0.6h-1.9q0-0.9 0.4-1.4 0.4-0.5 1.2-0.8 0.8-0.2 1.8-0.2 1 0 1.7 0.3 0.8 0.3 1.2 1 0.4 0.6 0.4 1.7v4.9zm-1.1-3.3q-0.5-0.1-1-0.1-0.7 0-1.1 0.3-0.5 0.2-0.5 0.9 0 0.4 0.4 0.8 0.3 0.3 1.1 0.3 0.6 0 1.1-0.3 0.4-0.2 0.6-0.6 0.3-0.4 0.3-0.8v-0.3q-0.4-0.1-0.9-0.2zm4.9 3.3v-11h1.7v11zm4.3 0v-11h1.7v11zm11.5 0.2q-1.3 0-2.3-0.6-1-0.7-1.6-1.9-0.5-1.2-0.5-2.9 0-1.7 0.5-2.9 0.6-1.2 1.6-1.8 1-0.6 2.3-0.6 1.8 0 2.8 0.9 1 0.8 1.3 2.2l-1.8 0.3q-0.3-0.8-0.9-1.3-0.6-0.5-1.4-0.5-0.7 0-1.3 0.4-0.6 0.4-0.9 1.2-0.4 0.9-0.4 2.1 0 1.2 0.3 2 0.3 0.9 0.9 1.4 0.6 0.4 1.4 0.4 1.1 0 1.7-0.5 0.6-0.6 0.6-1.5h1.8q0 1.2-0.5 2-0.5 0.8-1.4 1.2-0.9 0.4-2.2 0.4zm8.7 0q-1 0-1.8-0.5-0.8-0.5-1.3-1.4-0.5-0.9-0.5-2.2 0-1.2 0.5-2.2 0.5-0.9 1.3-1.4 0.8-0.4 1.8-0.4 0.9 0 1.6 0.3 0.7 0.4 1.1 1 0.4 0.6 0.5 1.4 0.1 0.8 0 1.7h-5.1q0 0.6 0.2 1.2 0.3 0.5 0.7 0.8 0.4 0.3 1 0.3 0.6 0 1-0.2 0.4-0.3 0.5-0.9h1.8q-0.1 0.7-0.6 1.3-0.4 0.6-1.1 0.9-0.7 0.3-1.6 0.3zm-1.9-3.7q0-0.1 0-0.1v-0.6q0-0.2 0-0.3h-0.3v1zm3.5-1q0 0.1 0 0.2l0.4-0.2zm0-0.6q-0.1-0.4-0.3-0.7-0.2-0.4-0.5-0.6-0.3-0.2-0.8-0.2-0.6 0-1.1 0.3-0.4 0.3-0.6 0.9-0.2 0.4-0.2 0.9h3.5q0-0.3 0-0.6zm8.8 5.1v-4.5q0-1-0.4-1.4-0.5-0.5-1.2-0.5-0.6 0-1.1 0.3-0.4 0.3-0.7 1-0.2 0.6-0.2 1.6v3.5h-1.8v-7.7h1.5l0.2 1.3q0.4-0.7 0.9-1 0.7-0.5 1.6-0.5 1 0 1.6 0.4 0.6 0.4 1 1.2 0.3 0.7 0.3 1.8v4.5zm6.6 0.2q-0.7 0-1.2-0.2-0.6-0.3-0.9-0.8-0.3-0.5-0.3-1.3v-4.5h-1.2v-1.1h1.2v-2.1h1.7v2.1h2.2v1.1h-2.2v4.4q0 1.1 0.9 1.1 0.3 0 0.6-0.1 0.3-0.1 0.7-0.2l0.2 1.2q-0.4 0.2-0.8 0.3-0.4 0.1-0.9 0.1zm6 0q-1 0-1.8-0.5-0.8-0.5-1.3-1.4-0.5-0.9-0.5-2.2 0-1.2 0.5-2.2 0.5-0.9 1.3-1.4 0.8-0.4 1.8-0.4 1 0 1.6 0.3 0.7 0.4 1.1 1 0.4 0.6 0.5 1.4 0.2 0.8 0 1.7h-5q0 0.6 0.2 1.2 0.2 0.5 0.6 0.8 0.4 0.3 1 0.3 0.6 0 1-0.2 0.4-0.3 0.6-0.9h1.7q-0.1 0.7-0.6 1.3-0.4 0.6-1.1 0.9-0.7 0.3-1.6 0.3zm-1.8-3.7q0-0.1 0-0.1v-0.6q0-0.2 0-0.3h-0.4v1zm3.6-1q0 0.1 0 0.2l0.3-0.2zm0-0.6q-0.1-0.4-0.3-0.7-0.2-0.4-0.5-0.6-0.3-0.2-0.8-0.2-0.6 0-1.1 0.3-0.4 0.3-0.6 0.9-0.2 0.4-0.2 0.9h3.5q0-0.3 0-0.6zm3.5 5.1v-7.8h1.7v1.6q0.3-0.8 0.7-1.2 0.6-0.5 1.3-0.5 0.3 0 0.4 0.1 0.2 0 0.4 0v1.7q-0.3 0-0.5 0-0.2-0.1-0.4-0.1-0.7 0-1.1 0.3-0.4 0.4-0.6 1-0.2 0.6-0.2 1.5v3.4zm12.6 0.2q-1 0-1.9-0.4-0.9-0.3-1.5-1.1-0.5-0.7-0.5-1.9h1.6q0 0.6 0.4 1.1 0.3 0.4 0.8 0.6 0.5 0.1 1.1 0.1 0.6 0 1.1-0.1 0.5-0.2 0.8-0.5 0.2-0.3 0.2-0.7 0-0.6-0.3-0.9-0.3-0.3-1.1-0.6l-1.9-0.7q-1.2-0.5-1.9-1.1-0.6-0.6-0.6-1.7 0-1.2 0.9-2 1-0.8 2.8-0.8 1.7 0 2.6 0.8 0.9 0.8 1 2.2h-1.6q-0.2-0.7-0.6-1.1-0.5-0.3-1.4-0.3-0.9 0-1.4 0.3-0.5 0.4-0.5 0.9 0 0.5 0.3 0.8 0.4 0.2 1 0.5l2.2 0.8q1.2 0.4 1.8 1.1 0.6 0.7 0.6 1.7 0 0.9-0.5 1.6-0.4 0.7-1.3 1-0.9 0.4-2.2 0.4zm11.3-8h1.7v7.8h-1.7v-1.4q-0.4 0.7-0.9 1.1-0.7 0.4-1.5 0.4-0.9 0-1.5-0.3-0.7-0.3-1.1-0.9-0.4-0.7-0.4-1.7v-5h1.7v4.8q0 0.8 0.4 1.2 0.4 0.4 1.2 0.4 0.6 0 1-0.3 0.5-0.3 0.8-0.9 0.3-0.6 0.3-1.4zm8 7.9q-0.8 0-1.4-0.3-0.4-0.2-0.6-0.6v4.5h-1.7v-11.5h1.4l0.2 1.1q0.3-0.6 0.8-0.9 0.7-0.4 1.4-0.4 0.9 0 1.7 0.5 0.8 0.4 1.3 1.4 0.5 0.9 0.5 2.1 0 1.3-0.5 2.2-0.5 1-1.3 1.4-0.8 0.5-1.8 0.5zm-1.8-2.3q0.3 0.4 0.7 0.6 0.4 0.2 0.9 0.2 0.5 0 1-0.3 0.5-0.3 0.8-0.8 0.3-0.6 0.3-1.5 0-0.7-0.3-1.3-0.3-0.6-0.7-0.9-0.5-0.3-1.1-0.3-0.5 0-0.9 0.2-0.4 0.3-0.7 0.7-0.2 0.4-0.2 1.1v1.3q0 0.6 0.2 1zm10.1 2.3q-1 0-1.8-0.5-0.9-0.5-1.3-1.4-0.5-0.9-0.5-2.1 0-1.3 0.5-2.2 0.4-0.9 1.2-1.4 0.9-0.5 1.9-0.5 0.9 0 1.5 0.3 0.7 0.4 1.1 1 0.4 0.7 0.5 1.5 0.2 0.7 0.1 1.6h-5.1q0 0.7 0.2 1.2 0.2 0.5 0.6 0.8 0.4 0.4 1.1 0.4 0.6 0 1-0.3 0.4-0.3 0.5-0.9h1.7q-0.1 0.8-0.5 1.3-0.5 0.6-1.2 0.9-0.7 0.3-1.5 0.3zm-1.9-3.7q0 0 0 0v-0.7q0-0.2 0-0.3h-0.4v1zm3.6-1q0 0.1 0 0.3l0.3-0.3zm0-0.6q-0.1-0.4-0.2-0.7-0.2-0.3-0.5-0.5-0.4-0.3-0.9-0.3-0.6 0-1 0.4-0.5 0.3-0.7 0.8-0.2 0.4-0.2 0.9h3.5q0-0.3 0-0.6zm3.5 5.1v-7.7h1.7v1.5q0.3-0.8 0.8-1.2 0.5-0.5 1.3-0.5 0.2 0 0.4 0.1 0.1 0 0.3 0.1h1.8l1.9 6 2-6h1.9l-2.9 7.7h-1.9l-2.8-7.2v1.2q-0.2-0.1-0.5-0.1-0.2-0.1-0.4-0.1-0.7 0-1.1 0.4-0.4 0.3-0.6 0.9-0.2 0.6-0.2 1.5v3.4zm8.2-1.7v0.3h0.1zm6.2-7.6q-0.5 0-0.8-0.3-0.3-0.3-0.3-0.7 0-0.5 0.3-0.8 0.3-0.2 0.8-0.2 0.5 0 0.8 0.2 0.3 0.3 0.3 0.8 0 0.4-0.3 0.7-0.3 0.3-0.8 0.3zm-0.9 9.3v-7.8h1.7v7.8zm7.4 0.2q-1.1 0-1.9-0.3-0.8-0.4-1.2-0.9-0.4-0.6-0.5-1.4h1.6q0.1 0.6 0.5 0.9 0.5 0.3 1.3 0.3 0.4 0 0.8-0.1 0.3-0.2 0.5-0.4 0.2-0.2 0.2-0.5 0-0.3-0.3-0.6-0.2-0.2-0.8-0.3l-1.6-0.6q-1-0.3-1.5-0.9-0.5-0.5-0.5-1.2 0-1 0.9-1.6 0.9-0.6 2.3-0.6 1.5 0 2.3 0.6 0.8 0.7 0.8 1.6h-1.6q0-0.4-0.4-0.6-0.4-0.3-1.1-0.3-0.6 0-1 0.3-0.3 0.3-0.3 0.7 0 0.6 1 0.9l1.8 0.6q0.9 0.3 1.4 0.8 0.5 0.5 0.5 1.2 0 0.6-0.4 1.2-0.4 0.5-1.1 0.8-0.8 0.4-1.7 0.4zm8.1 0q-1.1 0-1.9-0.5-0.9-0.4-1.4-1.3-0.5-0.9-0.5-2.3 0-1.4 0.5-2.3 0.5-0.9 1.4-1.3 0.8-0.5 1.9-0.5 1 0 1.8 0.5 0.9 0.4 1.4 1.3 0.5 0.9 0.5 2.3 0 1.4-0.5 2.3-0.5 0.9-1.4 1.3-0.8 0.5-1.8 0.5zm-0.1-1.5q0.6 0 1.1-0.3 0.4-0.3 0.7-0.9 0.3-0.6 0.3-1.4 0-1.3-0.6-1.9-0.5-0.7-1.4-0.7-0.6 0-1.1 0.3-0.4 0.3-0.7 0.9-0.2 0.6-0.2 1.4 0 1.2 0.5 1.9 0.5 0.7 1.4 0.7zm5.6 1.3v-7.8h1.7v1.5q0.3-0.7 0.8-1.1 0.5-0.5 1.3-0.5 0.2 0 0.4 0 0.1 0 0.3 0.1v1.7q-0.2-0.1-0.5-0.1-0.2 0-0.4 0-0.7 0-1.1 0.3-0.4 0.3-0.6 0.9-0.2 0.7-0.2 1.5v3.5zm9.1-10.3h3.3q1.6 0 2.7 0.6 1.2 0.6 1.9 1.8 0.6 1.1 0.6 2.7 0 1.6-0.6 2.7-0.7 1.2-1.9 1.8-1.1 0.7-2.7 0.7h-3.3zm1.8 1.5v7.2h1.5q1 0 1.8-0.5 0.7-0.4 1.2-1.2 0.4-0.9 0.4-1.9 0-1-0.4-1.9-0.5-0.8-1.2-1.2-0.8-0.5-1.8-0.5zm13.6 8.7l-0.2-1.2q-0.3 0.6-0.9 1-0.6 0.5-1.5 0.5-1 0-1.6-0.4-0.7-0.3-1-0.9-0.3-0.5-0.3-1.2 0-0.7 0.3-1.2 0.4-0.5 1.1-0.8 0.7-0.2 1.7-0.2 0.6 0 1.2 0.1 0.5 0.1 1 0.2v-0.8q0-0.9-0.4-1.3-0.4-0.4-1.2-0.4-0.5 0-0.8 0.1-0.4 0.1-0.6 0.4-0.2 0.3-0.2 0.7h-1.8q0-0.9 0.4-1.5 0.4-0.5 1.2-0.7 0.8-0.3 1.8-0.3 1 0 1.7 0.3 0.7 0.3 1.2 1 0.4 0.7 0.4 1.7v4.9zm-1.1-3.3q-0.5-0.1-1-0.1-0.7 0-1.2 0.3-0.4 0.3-0.4 0.9 0 0.5 0.4 0.8 0.3 0.3 1.1 0.3 0.6 0 1-0.2 0.5-0.3 0.7-0.7 0.2-0.4 0.2-0.8v-0.3q-0.3-0.1-0.8-0.2zm7.8 3.6q-1.2 0-1.9-0.4-0.8-0.3-1.3-0.8-0.4-0.6-0.4-1.4h1.6q0 0.6 0.5 0.9 0.5 0.3 1.3 0.3 0.4 0 0.7-0.1 0.4-0.2 0.6-0.4 0.2-0.2 0.2-0.5 0-0.4-0.3-0.6-0.2-0.2-0.8-0.3l-1.7-0.6q-0.9-0.3-1.4-0.9-0.5-0.5-0.5-1.2 0-1 0.9-1.6 0.9-0.6 2.3-0.6 1.5 0 2.3 0.6 0.8 0.7 0.8 1.6h-1.6q-0.1-0.4-0.4-0.6-0.4-0.3-1.1-0.3-0.6 0-1 0.3-0.4 0.3-0.4 0.6 0 0.7 1.1 1l1.7 0.6q1 0.3 1.5 0.8 0.5 0.5 0.5 1.2 0 0.6-0.4 1.2-0.4 0.5-1.2 0.8-0.7 0.4-1.6 0.4zm10.4-0.3v-4.5q0-0.9-0.4-1.4-0.5-0.5-1.2-0.5-0.6 0-1.1 0.4-0.4 0.3-0.7 0.9-0.2 0.7-0.2 1.6v3.5h-1.7v-10.9h1.7v4.5q0.3-0.6 0.8-1 0.7-0.5 1.6-0.5 1 0 1.6 0.4 0.7 0.4 1 1.2 0.3 0.8 0.3 1.8v4.5zm7.9 0.3q-0.7 0-1.3-0.4-0.6-0.4-1-1.2l-0.4 1.3h-1.1v-10.9h1.7v4.2q0.3-0.5 0.7-0.8 0.7-0.4 1.5-0.4 1 0 1.7 0.5 0.8 0.5 1.3 1.4 0.4 0.9 0.4 2.1 0 1.3-0.5 2.2-0.4 0.9-1.2 1.4-0.8 0.6-1.8 0.6zm-1.8-2.6q0.2 0.5 0.7 0.8 0.4 0.2 0.9 0.2 0.5 0 1-0.3 0.5-0.3 0.7-0.9 0.3-0.6 0.3-1.4 0-0.7-0.3-1.3-0.2-0.5-0.7-0.9-0.5-0.3-1-0.3-0.5 0-1 0.3-0.4 0.2-0.7 0.7-0.2 0.4-0.2 1.1v1q0 0.6 0.3 1zm10.2 2.6q-1.1 0-1.9-0.5-0.8-0.5-1.3-1.4-0.5-0.9-0.5-2.2 0-1.4 0.5-2.3 0.5-0.9 1.3-1.3 0.8-0.5 1.9-0.5 1 0 1.9 0.5 0.8 0.4 1.3 1.3 0.5 0.9 0.5 2.3 0 1.3-0.5 2.2-0.5 0.9-1.3 1.4-0.9 0.5-1.9 0.5zm-0.1-1.5q0.7 0 1.1-0.3 0.5-0.3 0.7-0.9 0.3-0.6 0.3-1.4 0-1.3-0.5-1.9-0.5-0.7-1.5-0.7-0.6 0-1 0.3-0.5 0.3-0.7 0.9-0.3 0.5-0.3 1.4 0 1.2 0.5 1.9 0.5 0.7 1.4 0.7zm10.5 1.2l-0.2-1.2q-0.3 0.6-0.9 1-0.6 0.5-1.5 0.5-0.9 0-1.6-0.4-0.7-0.3-1-0.9-0.3-0.5-0.3-1.2 0-0.7 0.4-1.2 0.4-0.5 1.1-0.8 0.7-0.2 1.6-0.2 0.6 0 1.2 0.1 0.5 0.1 1 0.2v-0.8q0-0.9-0.4-1.3-0.3-0.4-1.2-0.4-0.4 0-0.8 0.1-0.3 0.1-0.5 0.4-0.2 0.3-0.2 0.7h-1.9q0-0.9 0.4-1.5 0.4-0.5 1.2-0.7 0.8-0.3 1.8-0.3 1 0 1.7 0.3 0.8 0.3 1.2 1 0.4 0.7 0.4 1.7v4.9zm-1.1-3.3q-0.5-0.1-1-0.1-0.7 0-1.1 0.3-0.5 0.3-0.5 0.9 0 0.5 0.4 0.8 0.3 0.3 1.1 0.3 0.6 0 1.1-0.2 0.4-0.3 0.6-0.7 0.3-0.4 0.3-0.8v-0.3q-0.4-0.1-0.9-0.2zm4.9 3.3v-7.7h1.7v1.5q0.3-0.7 0.8-1.1 0.6-0.5 1.3-0.5 0.2 0 0.4 0 0.2 0 0.4 0.1l-0.1 1.7q-0.2-0.1-0.4-0.1-0.3 0-0.5 0-0.6 0-1 0.3-0.4 0.3-0.7 0.9-0.2 0.6-0.2 1.5v3.4zm8.5 0.3q-0.9 0-1.7-0.6-0.8-0.5-1.3-1.4-0.5-0.9-0.5-2.2 0-1.2 0.5-2.1 0.4-0.9 1.2-1.4 0.8-0.5 1.7-0.5 0.9 0 1.5 0.4 0.5 0.3 0.8 0.8v-4.2h1.7v10.9h-1.4l-0.2-1.2q-0.4 0.7-0.9 1.1-0.6 0.4-1.4 0.4zm1.9-5.7q-0.3-0.5-0.7-0.7-0.4-0.3-0.9-0.3-0.6 0-1.1 0.3-0.4 0.4-0.7 0.9-0.2 0.6-0.2 1.3 0 0.8 0.2 1.4 0.3 0.6 0.7 0.9 0.5 0.3 1.1 0.3 0.4 0 0.9-0.2 0.4-0.3 0.7-0.8 0.3-0.4 0.3-1v-1q0-0.7-0.3-1.1zm7.4 5.7q-1.1 0-1.9-0.4-0.8-0.3-1.2-0.8-0.4-0.6-0.4-1.4h1.6q0 0.6 0.5 0.9 0.4 0.3 1.2 0.3 0.4 0 0.8-0.1 0.3-0.2 0.5-0.4 0.2-0.2 0.2-0.5 0-0.4-0.2-0.6-0.3-0.2-0.9-0.3l-1.6-0.6q-0.9-0.3-1.4-0.9-0.5-0.5-0.5-1.2 0-1 0.8-1.6 0.9-0.6 2.4-0.6 1.4 0 2.2 0.6 0.8 0.7 0.9 1.6h-1.7q0-0.4-0.4-0.6-0.3-0.3-1-0.3-0.7 0-1.1 0.3-0.3 0.3-0.3 0.6 0 0.7 1 1l1.8 0.6q0.9 0.3 1.4 0.8 0.5 0.5 0.5 1.2 0 0.6-0.4 1.2-0.4 0.5-1.1 0.8-0.7 0.4-1.7 0.4z"/>
	</g>
	<g>
		<path class="s6" d="m491 418h82c4.4 0 8 3.6 8 8v32c0 4.4-3.6 8-8 8h-82c-4.4 0-8-3.6-8-8v-32c0-4.4 3.6-8 8-8z"/>
		<path class="s9" d="m521.5 433.8v2.2q-0.1 1.6-3.1 2.7-2.9 1-7.4 1-4.5 0-7.4-1-3-1.1-3.1-2.7v-2.3q0.1-1.5 3.1-2.6 2.9-1.1 7.4-1.1 4.5 0 7.4 1.1 3 1.1 3.1 2.6zm-2.6 6.4q1.5-0.5 2.6-1.4v4.8q-0.1 1.6-3.1 2.7-2.9 1-7.4 1-4.5 0-7.4-1-3-1.1-3.1-2.7v-4.8q1.1 0.9 2.6 1.4 3.3 1.1 7.9 1.1 4.6 0 7.9-1.1zm-15.8 7.5q3.3 1.1 7.9 1.1 4.6 0 7.9-1.1 1.5-0.5 2.6-1.4v4q-0.1 1.6-3.1 2.7-2.9 1.1-7.4 1.1-4.5 0-7.4-1.1-3-1.1-3.1-2.7v-4q1.1 0.9 2.6 1.4z"/>
		<path fill-rule="evenodd" class="s5" d="m540.7 447.2q-1.4 0-2.4-0.6-1-0.7-1.5-1.9-0.6-1.2-0.6-2.9 0-1.7 0.6-2.9 0.6-1.2 1.6-1.8 1-0.6 2.3-0.6 1.7 0 2.7 0.9 1 0.8 1.3 2.2l-1.8 0.3q-0.3-0.8-0.8-1.3-0.6-0.5-1.4-0.5-0.8 0-1.4 0.4-0.5 0.4-0.9 1.2-0.3 0.9-0.3 2.1 0 1.2 0.3 2 0.3 0.9 0.8 1.4 0.6 0.4 1.5 0.4 1 0 1.6-0.5 0.6-0.6 0.6-1.5h1.9q0 1.2-0.6 2-0.4 0.8-1.4 1.2-0.9 0.4-2.1 0.4zm5.8-0.2v-10.3h3.8q1.8 0 2.8 0.9 0.9 0.8 0.9 2.2 0 1.4-0.9 2.3-0.6 0.5-1.5 0.7l2.8 4.2h-2.2l-2.4-4.1h-1.6v4.1zm1.8-5.2h1.8q1.1 0 1.6-0.5 0.6-0.5 0.6-1.3 0-0.8-0.5-1.3-0.5-0.5-1.5-0.5h-2zm7.9-5.1h2.5l3 6.4 3-6.4h2.3v10.3h-1.7v-7.8l-3.1 6.6h-1.1l-3.2-6.8v8h-1.7zm5.5 6.4l-0.1 0.1h0.1zm3.7-3.8l0.3-0.6h-0.3zm-7.4-0.2v-0.3h-0.2z"/>
	</g>
	<g>
		<path class="s6" d="m549 51h202c4.4 0 8 3.6 8 8v32c0 4.4-3.6 8-8 8h-202c-4.4 0-8-3.6-8-8v-32c0-4.4 3.6-8 8-8z"/>
		<path class="s9" d="m572.9 73.1q-0.9 0.7-1.8 0.1l-5.1-3.8-6.6 5.2q-0.5 0.4-1.1 0.4-0.5-0.1-1-0.6-0.3-0.5-0.3-1.1 0.1-0.5 0.6-1l7.5-6q0.9-0.6 1.8 0l5.1 3.8 6.6-5.3q0.5-0.3 1-0.3 0.7 0.1 1 0.6 0.4 0.5 0.4 1.1-0.1 0.5-0.6 1zm-8.4 1.8q0-0.6 0.4-1 0.4-0.5 1.1-0.5 0.7 0 1.1 0.5 0.4 0.4 0.4 1v9q0 0.7-0.4 1.1-0.4 0.4-1.1 0.4-0.7 0-1.1-0.4-0.4-0.4-0.4-1.1zm-6 4.5q0-0.6 0.4-1 0.4-0.5 1.1-0.5 0.7 0 1.1 0.5 0.4 0.4 0.4 1v4.5q0 0.7-0.4 1.1-0.4 0.4-1.1 0.4-0.7 0-1.1-0.4-0.4-0.4-0.4-1.1zm15-1.5v6q0 0.7-0.4 1.1-0.4 0.4-1.1 0.4-0.7 0-1.1-0.4-0.4-0.4-0.4-1.1v-6q0-0.6 0.4-1 0.4-0.5 1.1-0.5 0.7 0 1.1 0.5 0.4 0.4 0.4 1zm3-3q0-0.6 0.4-1 0.4-0.5 1.1-0.5 0.7 0 1.1 0.5 0.4 0.4 0.4 1v9q0 0.7-0.4 1.1-0.4 0.4-1.1 0.4-0.7 0-1.1-0.4-0.4-0.4-0.4-1.1z"/>
		<path fill-rule="evenodd" class="s5" d="m594.9 69.7h2.5l2.9 6.4 3-6.4h2.4v10.3h-1.7v-7.8l-3.1 6.6h-1.1l-3.2-6.8v8h-1.7zm5.4 6.4v0.1h0.1zm3.7-3.8l0.2-0.6h-0.2zm-7.4-0.2v-0.4h-0.2zm16.6 8l-0.2-1.3q-0.3 0.7-0.9 1.1-0.6 0.4-1.5 0.4-1 0-1.6-0.3-0.7-0.4-1-0.9-0.3-0.6-0.3-1.2 0-0.8 0.4-1.3 0.4-0.5 1.1-0.7 0.7-0.3 1.6-0.3 0.6 0 1.2 0.1 0.5 0.1 1 0.3v-0.9q0-0.9-0.4-1.3-0.3-0.4-1.2-0.4-0.4 0-0.8 0.2-0.3 0.1-0.5 0.4-0.2 0.2-0.2 0.6h-1.9q0-0.9 0.4-1.4 0.4-0.5 1.2-0.8 0.8-0.2 1.8-0.2 1 0 1.7 0.3 0.8 0.3 1.2 1 0.4 0.6 0.4 1.7v4.9zm-1.1-3.3q-0.5-0.1-1-0.1-0.7 0-1.1 0.3-0.5 0.2-0.5 0.9 0 0.4 0.4 0.8 0.3 0.3 1.1 0.3 0.6 0 1.1-0.3 0.4-0.2 0.6-0.6 0.3-0.4 0.3-0.8v-0.3q-0.4-0.1-0.9-0.2zm10.3 3.3v-4.5q0-0.9-0.5-1.4-0.4-0.5-1.1-0.5-0.6 0-1.1 0.3-0.5 0.4-0.7 1-0.3 0.7-0.3 1.6v3.5h-1.7v-7.7h1.5l0.2 1.3q0.3-0.6 0.9-1 0.7-0.5 1.6-0.5 0.9 0 1.6 0.4 0.6 0.4 1 1.2 0.3 0.7 0.3 1.8v4.5zm8.9 0l-0.1-1.3q-0.3 0.7-0.9 1.1-0.6 0.4-1.5 0.4-1 0-1.7-0.3-0.6-0.4-1-0.9-0.3-0.6-0.3-1.2 0-0.8 0.4-1.3 0.4-0.5 1.1-0.7 0.7-0.3 1.6-0.3 0.6 0 1.2 0.1 0.5 0.1 1 0.3v-0.9q0-0.9-0.4-1.3-0.3-0.4-1.1-0.4-0.5 0-0.9 0.2-0.3 0.1-0.5 0.4-0.2 0.2-0.2 0.6h-1.9q0-0.9 0.4-1.4 0.5-0.5 1.2-0.8 0.8-0.2 1.9-0.2 0.9 0 1.7 0.3 0.7 0.3 1.1 1 0.4 0.6 0.4 1.7v4.9zm-1-3.3q-0.6-0.1-1.1-0.1-0.7 0-1.1 0.3-0.5 0.2-0.5 0.9 0 0.4 0.4 0.8 0.4 0.3 1.2 0.3 0.6 0 1-0.3 0.4-0.2 0.7-0.6 0.2-0.4 0.2-0.8v-0.3q-0.4-0.1-0.8-0.2zm7.8 7.3q-1.3 0-2.3-0.4-0.9-0.3-1.4-0.9-0.5-0.6-0.5-1.3 0-0.8 0.6-1.3 0.4-0.3 1-0.4-0.4-0.2-0.6-0.5-0.4-0.4-0.4-0.9 0-0.5 0.3-0.8 0.3-0.4 0.7-0.5 0.2-0.1 0.3-0.1-0.3-0.3-0.5-0.6-0.4-0.6-0.4-1.4 0-0.9 0.4-1.5 0.5-0.6 1.2-1 0.8-0.3 1.7-0.3 0.9 0 1.6 0.3 0.2 0.1 0.3 0.2 0.1-0.5 0.3-0.9 0.3-0.5 0.8-0.8 0.6-0.3 1.2-0.3l-0.1 1.6q-0.7 0-1.1 0.3-0.3 0.2-0.3 0.7 0.1 0.1 0.1 0.2 0.5 0.6 0.5 1.5 0 0.8-0.5 1.4-0.4 0.7-1.2 1-0.7 0.4-1.6 0.4-0.8 0-1.5-0.3-0.1 0-0.2 0-0.2 0.1-0.3 0.3-0.2 0.2-0.2 0.5 0 0.3 0.3 0.5 0.3 0.3 1 0.3h2.7q1.2 0 1.9 0.4 0.7 0.5 0.7 1.4 0 0.8-0.6 1.5-0.5 0.8-1.5 1.2-1.1 0.5-2.4 0.5zm-2.6-4.3q0.2 0.1 0.4 0.2 0.6 0.3 1.4 0.3l-1.2-0.5q-0.3 0-0.6 0zm0.5 0.8q-0.4 0.3-0.4 0.8 0 0.6 0.6 1 0.7 0.3 1.9 0.3 0.8 0 1.4-0.2 0.7-0.3 1-0.7 0.4-0.4 0.4-0.8 0-0.3-0.3-0.5-0.2-0.2-0.6-0.2h-2.7q-0.8 0-1.3 0.3zm2.2-4q0.8 0 1.2-0.5 0.4-0.5 0.4-1.1 0-0.8-0.4-1.2-0.4-0.4-1.2-0.4-0.8 0-1.2 0.4-0.4 0.4-0.4 1.2 0 0.6 0.4 1.1 0.4 0.5 1.2 0.5zm8.5 3.7q-1 0-1.8-0.5-0.8-0.5-1.3-1.4-0.5-0.9-0.5-2.2 0-1.2 0.5-2.1 0.5-1 1.3-1.4 0.8-0.5 1.8-0.5 1 0 1.6 0.3 0.7 0.4 1.1 1 0.4 0.6 0.5 1.4 0.2 0.8 0 1.7h-5q0 0.6 0.2 1.2 0.2 0.5 0.6 0.8 0.4 0.3 1 0.3 0.6 0 1-0.2 0.4-0.3 0.6-0.9h1.7q-0.1 0.8-0.6 1.3-0.4 0.6-1.1 0.9-0.7 0.3-1.6 0.3zm-1.8-3.7q0 0 0-0.1v-0.6q0-0.2 0-0.3h-0.4v1zm3.6-1q0 0.1 0 0.3l0.3-0.3zm0-0.6q-0.1-0.4-0.3-0.7-0.2-0.4-0.5-0.6-0.3-0.2-0.8-0.2-0.6 0-1.1 0.3-0.4 0.4-0.6 0.9-0.2 0.4-0.2 0.9h3.5q0-0.3 0-0.6zm14.1 5.1v-4.5q0-0.9-0.5-1.4-0.4-0.5-1.2-0.5-0.9 0-1.4 0.7-0.5 0.7-0.5 2.1v3.6h-1.7v-4.5q0-0.9-0.4-1.4-0.5-0.5-1.2-0.5-0.6 0-1.1 0.3-0.4 0.4-0.7 1-0.2 0.7-0.2 1.6v3.5h-1.7v-7.7h1.4l0.2 1.4q0.4-0.8 1-1.2 0.7-0.4 1.5-0.4 1 0 1.6 0.4 0.7 0.4 1 1.2 0 0 0 0.1 0.2-0.4 0.4-0.7 0.5-0.5 1-0.8 0.6-0.2 1.3-0.2 0.9 0 1.6 0.4 0.6 0.4 0.9 1.2 0.4 0.7 0.4 1.8v4.5zm6.8 0.2q-0.9 0-1.8-0.5-0.8-0.5-1.3-1.4-0.4-0.9-0.4-2.2 0-1.2 0.4-2.1 0.5-1 1.3-1.4 0.8-0.5 1.8-0.5 1 0 1.6 0.3 0.7 0.4 1.1 1 0.4 0.6 0.5 1.4 0.2 0.8 0.1 1.7h-5.1q0 0.6 0.2 1.2 0.2 0.5 0.6 0.8 0.4 0.3 1 0.3 0.7 0 1.1-0.2 0.4-0.3 0.5-0.9h1.7q-0.1 0.8-0.6 1.3-0.4 0.6-1.1 0.9-0.7 0.3-1.6 0.3zm-1.8-3.7q0 0 0-0.1v-0.6q0-0.2 0-0.3h-0.4v1zm3.6-1q0 0.1 0 0.3l0.3-0.3zm0-0.6q-0.1-0.4-0.3-0.7-0.1-0.4-0.5-0.6-0.3-0.2-0.8-0.2-0.6 0-1 0.3-0.5 0.4-0.7 0.9-0.2 0.4-0.2 0.9h3.5q0-0.3 0-0.6zm8.8 5.1v-4.5q0-0.9-0.4-1.4-0.5-0.5-1.2-0.5-0.6 0-1.1 0.3-0.4 0.4-0.7 1-0.2 0.7-0.2 1.6v3.5h-1.7v-7.7h1.5l0.1 1.3q0.4-0.6 0.9-1 0.7-0.5 1.6-0.5 1 0 1.6 0.4 0.7 0.4 1 1.2 0.3 0.7 0.3 1.8v4.5zm6.6 0.2q-0.6 0-1.2-0.2-0.5-0.3-0.9-0.8-0.3-0.5-0.3-1.3v-4.5h-1.1v-1.1h1.1v-2.1h1.7v2.1h2.2v1.1h-2.2v4.4q0 1.1 1 1.1 0.3 0 0.6-0.1 0.2-0.1 0.6-0.2l0.3 1.2q-0.5 0.2-0.9 0.3-0.4 0.1-0.9 0.1zm6.7-0.2v-10.3h3.8q1.8 0 2.8 0.9 0.9 0.8 0.9 2.2 0 1.4-0.9 2.3-0.6 0.5-1.5 0.7l2.8 4.2h-2.2l-2.4-4.1h-1.6v4.1zm1.8-5.2h1.8q1.1 0 1.6-0.5 0.6-0.5 0.6-1.3 0-0.8-0.5-1.3-0.5-0.5-1.5-0.5h-2zm10.8 5.4q-1 0-1.9-0.5-0.8-0.5-1.2-1.4-0.5-0.9-0.5-2.1 0-1.3 0.5-2.2 0.4-1 1.2-1.4 0.9-0.5 1.9-0.5 0.9 0 1.5 0.3 0.7 0.4 1.1 1 0.4 0.7 0.5 1.4 0.2 0.8 0.1 1.7h-5.1q0 0.7 0.2 1.2 0.2 0.5 0.6 0.8 0.4 0.3 1.1 0.3 0.6 0 1-0.2 0.4-0.3 0.5-0.9h1.7q-0.1 0.8-0.5 1.3-0.5 0.6-1.2 0.9-0.7 0.3-1.5 0.3zm-1.9-3.7q0 0 0 0v-0.7q0-0.2 0-0.3h-0.4v1zm3.6-1q0 0.1 0 0.3l0.3-0.3zm0-0.6q-0.1-0.4-0.3-0.7-0.1-0.3-0.5-0.6-0.3-0.2-0.8-0.2-0.6 0-1 0.4-0.5 0.3-0.7 0.8-0.2 0.4-0.2 0.9h3.5q0-0.3 0-0.6zm7.2 5.3q-0.8 0-1.4-0.3-0.4-0.3-0.6-0.6v4.5h-1.7v-11.5h1.4l0.2 1q0.3-0.5 0.8-0.9 0.7-0.3 1.4-0.3 0.9 0 1.7 0.5 0.8 0.4 1.3 1.4 0.5 0.9 0.5 2.1 0 1.3-0.5 2.2-0.5 1-1.3 1.4-0.8 0.5-1.8 0.5zm-1.8-2.3q0.3 0.4 0.7 0.6 0.4 0.2 0.9 0.2 0.5 0 1-0.3 0.5-0.3 0.8-0.8 0.3-0.6 0.3-1.5 0-0.7-0.3-1.3-0.2-0.6-0.7-0.9-0.5-0.3-1.1-0.3-0.5 0-0.9 0.2-0.4 0.3-0.7 0.7-0.2 0.4-0.2 1.1v1.3q0 0.6 0.2 1zm10.2 2.3q-1 0-1.9-0.4-0.8-0.5-1.3-1.4-0.5-0.9-0.5-2.2 0-1.4 0.5-2.3 0.5-0.9 1.3-1.4 0.9-0.4 1.9-0.4 1.1 0 1.9 0.4 0.8 0.5 1.3 1.4 0.5 0.9 0.5 2.3 0 1.3-0.5 2.2-0.5 0.9-1.3 1.4-0.8 0.4-1.9 0.4zm0-1.5q0.6 0 1-0.3 0.5-0.3 0.7-0.8 0.3-0.6 0.3-1.4 0-1.3-0.5-2-0.5-0.6-1.4-0.6-0.6 0-1.1 0.2-0.5 0.3-0.7 0.9-0.3 0.6-0.3 1.5 0 1.2 0.5 1.9 0.5 0.6 1.5 0.6zm5.5 1.3v-7.7h1.7v1.5q0.3-0.8 0.8-1.2 0.6-0.5 1.3-0.5 0.2 0 0.4 0.1 0.2 0 0.4 0.1l-0.1 1.7q-0.2-0.1-0.4-0.1-0.3-0.1-0.5-0.1-0.6 0-1 0.4-0.4 0.3-0.7 0.9-0.2 0.6-0.2 1.5v3.4zm8.2 0.2q-0.6 0-1.2-0.2-0.5-0.3-0.8-0.8-0.4-0.5-0.4-1.3v-4.5h-1.1v-1.1h1.1v-2.1h1.7v2.1h2.2v1.1h-2.2v4.5q0 1 1 1 0.3 0 0.6-0.1 0.3-0.1 0.6-0.2l0.3 1.2q-0.5 0.2-0.9 0.3-0.4 0.1-0.9 0.1zm6.1 0q-1.1 0-1.9-0.3-0.8-0.3-1.2-0.9-0.4-0.5-0.4-1.3h1.6q0 0.6 0.5 0.9 0.4 0.3 1.2 0.3 0.4 0 0.8-0.2 0.3-0.1 0.5-0.3 0.2-0.2 0.2-0.5 0-0.4-0.2-0.6-0.3-0.2-0.9-0.4l-1.6-0.5q-0.9-0.4-1.4-0.9-0.5-0.5-0.5-1.3 0-0.9 0.8-1.5 0.9-0.6 2.4-0.6 1.4 0 2.2 0.6 0.8 0.6 0.9 1.6h-1.7q0-0.4-0.4-0.7-0.3-0.2-1-0.2-0.7 0-1.1 0.3-0.3 0.3-0.3 0.6 0 0.6 1 0.9l1.8 0.7q0.9 0.3 1.4 0.8 0.5 0.4 0.5 1.2 0 0.6-0.4 1.1-0.4 0.6-1.1 0.9-0.7 0.3-1.7 0.3z"/>
	</g>
	<g>
		<path class="s6" d="m147 177h154c4.4 0 8 3.6 8 8v32c0 4.4-3.6 8-8 8h-154c-4.4 0-8-3.6-8-8v-32c0-4.4 3.6-8 8-8z"/>
		<path fill-rule="evenodd" class="s9" d="m167 189q3.4 0 6 1.7 2.7 1.6 4.3 4.3 1.6 2.8 1.7 6v6.8q0 1.7-1.2 2.9-1.2 1.1-2.9 1.2h-5.2q-0.6 1.1-1.9 1.1h-1.6q-1 0-1.7-0.8-0.6-0.8-0.5-1.9 0.2-0.8 0.8-1.3 0.7-0.5 1.5-0.5h1.5q1.3 0 1.9 1.1h5.2q0.8 0 1.3-0.5 0.5-0.6 0.6-1.3v-6.8q-0.1-4.1-2.9-6.9-2.8-2.8-6.9-2.8-4.1 0-6.9 2.8-2.8 2.8-2.8 6.9v1.9q0 0.4-0.4 0.8-0.4 0.3-0.8 0.3-1-0.1-1.1-1.1v-1.9q0.1-3.2 1.7-6 1.6-2.7 4.3-4.3 2.6-1.7 6-1.7zm-3 10.5v5.3q0 0.6-0.4 1-0.4 0.4-1.1 0.5h-0.7q-1.3-0.1-2.2-0.9-0.8-0.9-0.8-2.1v-2.3q0-1.3 0.8-2.1 0.9-0.9 2.2-0.9h0.7q0.6 0 1 0.4 0.5 0.4 0.5 1.1zm8.3 6.8h-0.8q-0.7-0.1-1.1-0.5-0.4-0.4-0.4-1v-5.3q0-0.7 0.4-1.1 0.4-0.4 1.1-0.4h0.8q1.2 0 2.1 0.9 0.8 0.8 0.9 2.1v2.3q-0.1 1.2-0.9 2.1-0.9 0.8-2.1 0.9z"/>
		<path fill-rule="evenodd" class="s5" d="m196.3 206.2q-1.3 0-2.3-0.6-1-0.7-1.6-1.9-0.5-1.2-0.5-2.9 0-1.7 0.5-2.9 0.6-1.2 1.6-1.8 1-0.6 2.3-0.6 1.8 0 2.8 0.9 1 0.8 1.3 2.2l-1.8 0.3q-0.3-0.8-0.9-1.3-0.6-0.5-1.4-0.5-0.7 0-1.3 0.4-0.6 0.4-1 1.2-0.3 0.9-0.3 2.1 0 1.2 0.3 2 0.3 0.9 0.9 1.4 0.6 0.4 1.4 0.4 1.1 0 1.7-0.5 0.6-0.6 0.6-1.5h1.8q0 1.2-0.5 2-0.5 0.8-1.4 1.2-0.9 0.4-2.2 0.4zm8.9 0q-1.1 0-1.9-0.4-0.9-0.5-1.4-1.4-0.5-0.9-0.5-2.3 0-1.3 0.5-2.2 0.5-0.9 1.4-1.4 0.8-0.4 1.9-0.4 1 0 1.8 0.4 0.9 0.5 1.4 1.4 0.5 0.9 0.5 2.2 0 1.4-0.5 2.3-0.5 0.9-1.4 1.4-0.8 0.4-1.8 0.4zm-0.1-1.5q0.6 0 1.1-0.3 0.4-0.3 0.7-0.8 0.2-0.6 0.2-1.5 0-1.2-0.5-1.9-0.5-0.7-1.4-0.7-0.6 0-1.1 0.3-0.4 0.3-0.7 0.9-0.2 0.6-0.2 1.4 0 1.3 0.5 2 0.5 0.6 1.4 0.6zm10.9 1.3v-4.5q0-1-0.4-1.4-0.5-0.5-1.2-0.5-0.6 0-1.1 0.3-0.4 0.3-0.7 1-0.2 0.6-0.2 1.6v3.5h-1.7v-7.7h1.5l0.1 1.3q0.4-0.7 0.9-1 0.7-0.5 1.6-0.5 1 0 1.6 0.4 0.7 0.4 1 1.2 0.3 0.7 0.3 1.8v4.5zm6.6 0.2q-0.6 0-1.2-0.2-0.5-0.3-0.9-0.8-0.3-0.5-0.3-1.3v-4.5h-1.1v-1.1h1.1v-2.1h1.7v2.1h2.2v1.1h-2.2v4.4q0 1.1 1 1.1 0.3 0 0.6-0.1 0.2-0.1 0.6-0.2l0.3 1.2q-0.5 0.2-0.9 0.3-0.4 0.1-0.9 0.1zm8.1-0.2l-0.1-1.3q-0.3 0.7-0.9 1.1-0.7 0.4-1.5 0.4-1 0-1.7-0.3-0.6-0.4-1-0.9-0.3-0.6-0.3-1.2 0-0.8 0.4-1.3 0.4-0.5 1.1-0.7 0.7-0.3 1.6-0.3 0.6 0 1.2 0.1 0.5 0.1 1 0.3v-0.9q0-0.9-0.4-1.3-0.3-0.4-1.1-0.4-0.5 0-0.9 0.1-0.3 0.2-0.5 0.5-0.2 0.2-0.2 0.6h-1.9q0-0.9 0.4-1.4 0.5-0.5 1.2-0.8 0.8-0.2 1.9-0.2 0.9 0 1.7 0.3 0.7 0.3 1.1 1 0.4 0.6 0.4 1.7v4.9zm-1-3.3q-0.6-0.1-1.1-0.1-0.7 0-1.1 0.3-0.5 0.2-0.5 0.9 0 0.4 0.4 0.8 0.4 0.3 1.2 0.3 0.6 0 1-0.3 0.4-0.2 0.7-0.6 0.2-0.4 0.2-0.8v-0.3q-0.4-0.1-0.8-0.2zm7.7 3.5q-0.9 0-1.8-0.5-0.8-0.5-1.3-1.4-0.5-0.9-0.5-2.2 0-1.3 0.5-2.2 0.5-0.9 1.3-1.4 0.9-0.4 1.8-0.4 0.8 0 1.3 0.2 0.6 0.2 1 0.6 0.4 0.4 0.6 0.9 0.3 0.5 0.3 1h-1.7q-0.1-0.5-0.5-0.9-0.4-0.3-1-0.3-0.5 0-0.9 0.3-0.4 0.2-0.7 0.8-0.3 0.5-0.3 1.4 0 0.9 0.3 1.4 0.2 0.6 0.6 0.9 0.5 0.3 1 0.3 0.8 0 1.1-0.4 0.4-0.4 0.4-1h1.7q0 0.8-0.3 1.5-0.4 0.6-1.1 1-0.8 0.4-1.8 0.4zm7.6 0q-0.6 0-1.2-0.2-0.5-0.3-0.9-0.8-0.3-0.5-0.3-1.3v-4.5h-1.1v-1.1h1.1v-2.1h1.7v2.1h2.2v1.1h-2.2v4.4q0 1.1 1 1.1 0.3 0 0.6-0.1 0.2-0.1 0.6-0.2l0.3 1.2q-0.5 0.2-0.9 0.3-0.4 0.1-0.9 0.1zm10.4 0q-1.3 0-2.3-0.6-1-0.7-1.6-1.9-0.5-1.2-0.5-2.9 0-1.7 0.6-2.9 0.5-1.2 1.5-1.8 1-0.6 2.3-0.6 1.8 0 2.8 0.9 1 0.8 1.3 2.2l-1.8 0.3q-0.3-0.8-0.9-1.3-0.5-0.5-1.4-0.5-0.7 0-1.3 0.4-0.6 0.4-0.9 1.2-0.4 0.9-0.4 2.1 0 1.2 0.3 2 0.3 0.9 0.9 1.4 0.6 0.4 1.4 0.4 1.1 0 1.7-0.5 0.6-0.6 0.6-1.5h1.8q0 1.2-0.5 2-0.5 0.8-1.4 1.2-0.9 0.4-2.2 0.4zm8.7 0q-1 0-1.8-0.5-0.8-0.5-1.3-1.4-0.5-0.9-0.5-2.2 0-1.2 0.5-2.2 0.5-0.9 1.3-1.4 0.8-0.4 1.8-0.4 0.9 0 1.6 0.3 0.7 0.4 1.1 1 0.4 0.6 0.5 1.4 0.2 0.8 0 1.7h-5.1q0.1 0.6 0.3 1.2 0.2 0.5 0.6 0.8 0.4 0.3 1 0.3 0.6 0 1-0.2 0.4-0.3 0.5-0.9h1.8q-0.1 0.7-0.6 1.3-0.4 0.6-1.1 0.9-0.7 0.3-1.6 0.3zm-1.9-3.7q0-0.1 0-0.1v-0.6q0-0.2 0.1-0.3h-0.4v1zm3.6-1q0 0.1-0.1 0.2l0.4-0.2zm0-0.6q-0.1-0.4-0.3-0.7-0.2-0.4-0.5-0.6-0.3-0.2-0.8-0.2-0.6 0-1.1 0.3-0.4 0.3-0.6 0.9-0.2 0.4-0.2 0.9h3.5q0-0.3 0-0.6zm8.8 5.1v-4.5q0-1-0.4-1.4-0.5-0.5-1.2-0.5-0.6 0-1.1 0.3-0.4 0.3-0.7 1-0.2 0.6-0.2 1.6v3.5h-1.8v-7.7h1.5l0.2 1.3q0.4-0.7 0.9-1 0.7-0.5 1.6-0.5 1 0 1.6 0.4 0.7 0.4 1 1.2 0.3 0.7 0.3 1.8v4.5zm6.6 0.2q-0.7 0-1.2-0.2-0.6-0.3-0.9-0.8-0.3-0.5-0.3-1.3v-4.5h-1.1v-1.1h1.1v-2.1h1.7v2.1h2.2v1.1h-2.2v4.4q0 1.1 1 1.1 0.3 0 0.5-0.1 0.3-0.1 0.7-0.2l0.2 1.2q-0.4 0.2-0.8 0.3-0.4 0.1-0.9 0.1zm3.2-0.2v-7.8h1.7v1.6q0.3-0.8 0.8-1.2 0.6-0.5 1.3-0.5 0.2 0 0.4 0.1 0.2 0 0.4 0l-0.1 1.7q-0.2 0-0.5 0-0.2-0.1-0.4-0.1-0.6 0-1 0.3-0.5 0.4-0.7 1-0.2 0.6-0.2 1.5v3.4zm8.5 0.2q-1 0-1.8-0.5-0.8-0.5-1.3-1.4-0.5-0.9-0.5-2.2 0-1.2 0.5-2.2 0.5-0.9 1.3-1.4 0.8-0.4 1.8-0.4 0.9 0 1.6 0.3 0.6 0.4 1 1 0.5 0.6 0.6 1.4 0.1 0.8 0 1.7h-5.1q0 0.6 0.2 1.2 0.3 0.5 0.7 0.8 0.4 0.3 1 0.3 0.6 0 1-0.2 0.4-0.3 0.5-0.9h1.8q-0.1 0.7-0.6 1.3-0.4 0.6-1.1 0.9-0.7 0.3-1.6 0.3zm-1.9-3.7q0-0.1 0-0.1v-0.6q0-0.2 0-0.3h-0.3v1zm3.5-1q0 0.1 0 0.2l0.4-0.2zm0-0.6q-0.1-0.4-0.3-0.7-0.2-0.4-0.5-0.6-0.3-0.2-0.8-0.2-0.7 0-1.1 0.3-0.4 0.3-0.6 0.9-0.2 0.4-0.2 0.9h3.5q0-0.3 0-0.6z"/>
	</g>
	<g>
		<path class="s6" d="m164 237h120c4.4 0 8 3.6 8 8v32c0 4.4-3.6 8-8 8h-120c-4.4 0-8-3.6-8-8v-32c0-4.4 3.6-8 8-8z"/>
		<path class="s9" d="m176.5 259.5q0 0.7-0.4 1.1-0.4 0.4-1.1 0.4-0.7 0-1.1-0.4-0.4-0.4-0.4-1.1v-3q0-0.7 0.4-1.1 0.4-0.4 1.1-0.4 0.7 0 1.1 0.4 0.4 0.4 0.4 1.1zm13.5-7.5v9h-12v-9q0-1.3 0.9-2.1 0.8-0.9 2.1-0.9h6q1.2 0 2.1 0.9 0.8 0.8 0.9 2.1zm3 3q0.7 0 1.1 0.4 0.4 0.4 0.4 1.1v3q0 0.7-0.4 1.1-0.4 0.4-1.1 0.4-0.7 0-1.1-0.4-0.4-0.4-0.4-1.1v-3q0-0.7 0.4-1.1 0.4-0.4 1.1-0.4zm-0.6 8.5l0.5 1.5q0.2 0.8-0.2 1.4-0.4 0.6-1.2 0.6h-6v3.1q2.1 0.5 2.9 1.8 0.2 0.4 0 0.7-0.2 0.4-0.7 0.4h-7.4q-0.5 0-0.7-0.4-0.2-0.3 0-0.7 0.8-1.3 2.9-1.8v-3.1h-6q-0.8 0-1.2-0.6-0.4-0.6-0.2-1.4l0.5-1.5q0.3-1 1.4-1h14q1.1 0 1.4 1z"/>
		<path fill-rule="evenodd" class="s5" d="m209.8 266v-10.3h3.8q1.8 0 2.8 0.9 0.9 0.8 0.9 2.2 0 1.4-0.9 2.3-0.6 0.5-1.5 0.7l2.8 4.2h-2.2l-2.4-4.1h-1.5v4.1zm1.7-5.2h1.8q1.1 0 1.7-0.5 0.5-0.5 0.5-1.3 0-0.8-0.5-1.3-0.5-0.5-1.5-0.5h-2zm10.8 5.4q-1 0-1.8-0.5-0.9-0.5-1.3-1.4-0.5-0.9-0.5-2.2 0-1.2 0.5-2.1 0.4-1 1.2-1.4 0.9-0.5 1.9-0.5 0.9 0 1.5 0.3 0.7 0.4 1.1 1 0.4 0.6 0.5 1.4 0.2 0.8 0.1 1.7h-5.1q0 0.7 0.2 1.2 0.2 0.5 0.6 0.8 0.4 0.3 1.1 0.3 0.6 0 1-0.2 0.4-0.3 0.5-0.9h1.7q-0.1 0.8-0.5 1.3-0.5 0.6-1.2 0.9-0.7 0.3-1.5 0.3zm-1.9-3.7q0 0 0-0.1v-0.6q0-0.2 0-0.3h-0.4v1zm3.6-1q0 0.1 0 0.3l0.3-0.3zm0-0.6q-0.1-0.4-0.2-0.7-0.2-0.4-0.6-0.6-0.3-0.2-0.8-0.2-0.6 0-1 0.3-0.5 0.4-0.7 0.9-0.2 0.4-0.2 0.9h3.5q0-0.3 0-0.6zm6.4 5.3q-1 0-1.8-0.5-0.9-0.5-1.4-1.4-0.5-0.9-0.5-2.2 0-1.3 0.5-2.2 0.5-0.9 1.4-1.4 0.8-0.4 1.8-0.4 0.7 0 1.2 0.2 0.6 0.2 1 0.6 0.4 0.4 0.6 0.9 0.3 0.5 0.4 1h-1.8q-0.1-0.5-0.5-0.8-0.4-0.4-1-0.4-0.4 0-0.9 0.3-0.4 0.2-0.7 0.8-0.2 0.6-0.2 1.4 0 0.9 0.2 1.4 0.3 0.6 0.7 0.9 0.4 0.3 0.9 0.3 0.8 0 1.2-0.4 0.3-0.4 0.3-1h1.8q0 0.8-0.4 1.5-0.4 0.6-1.1 1-0.7 0.4-1.7 0.4zm7.8 0q-1 0-1.8-0.5-0.8-0.5-1.3-1.4-0.4-0.9-0.4-2.2 0-1.2 0.4-2.1 0.5-1 1.3-1.4 0.8-0.5 1.8-0.5 1 0 1.6 0.3 0.7 0.4 1.1 1 0.4 0.6 0.5 1.4 0.2 0.8 0.1 1.7h-5.1q0 0.7 0.2 1.2 0.2 0.5 0.6 0.8 0.4 0.3 1 0.3 0.6 0 1-0.2 0.5-0.3 0.6-0.9h1.7q-0.1 0.8-0.6 1.3-0.4 0.6-1.1 0.9-0.7 0.3-1.6 0.3zm-1.8-3.7q0 0 0-0.1v-0.6q0-0.2 0-0.3h-0.4v1zm3.6-1q0 0.1 0 0.3l0.3-0.3zm0-0.6q-0.1-0.4-0.3-0.7-0.1-0.4-0.5-0.6-0.3-0.2-0.8-0.2-0.6 0-1.1 0.3-0.4 0.4-0.6 0.9-0.2 0.4-0.2 0.9h3.5q0-0.3 0-0.6zm7.2 5.3q-0.8 0-1.4-0.3-0.4-0.3-0.6-0.6v4.5h-1.7v-11.5h1.4l0.1 1q0.4-0.5 0.9-0.9 0.6-0.3 1.4-0.3 0.9 0 1.7 0.5 0.8 0.4 1.3 1.3 0.5 1 0.5 2.2 0 1.3-0.5 2.2-0.5 0.9-1.3 1.4-0.8 0.5-1.8 0.5zm-1.8-2.4q0.3 0.4 0.7 0.7 0.4 0.2 0.9 0.2 0.5 0 1-0.3 0.5-0.3 0.8-0.8 0.3-0.6 0.3-1.5 0-0.8-0.3-1.3-0.3-0.6-0.7-0.9-0.5-0.3-1.1-0.3-0.5 0-0.9 0.2-0.4 0.3-0.7 0.7-0.2 0.4-0.2 1.1v1.3q0 0.5 0.2 0.9zm9.8 2.4q-0.7 0-1.3-0.2-0.5-0.3-0.8-0.8-0.4-0.5-0.4-1.3v-4.5h-1.1v-1.1h1.1v-2.1h1.7v2.1h2.2v1.1h-2.2v4.4q0 1.1 1 1.1 0.3 0 0.6-0.1 0.3-0.1 0.6-0.2l0.3 1.2q-0.4 0.2-0.9 0.3-0.4 0.1-0.8 0.1zm4.2-9.4q-0.5 0-0.8-0.3-0.3-0.3-0.3-0.8 0-0.4 0.3-0.7 0.3-0.3 0.8-0.3 0.5 0 0.8 0.3 0.2 0.3 0.2 0.7 0 0.5-0.2 0.8-0.3 0.3-0.8 0.3zm-0.9 9.2v-7.8h1.7v7.8zm7.5 0.2q-1.1 0-1.9-0.4-0.8-0.5-1.3-1.4-0.5-0.9-0.5-2.2 0-1.4 0.5-2.3 0.5-0.9 1.3-1.4 0.8-0.4 1.9-0.4 1 0 1.9 0.4 0.8 0.5 1.3 1.4 0.5 0.9 0.5 2.3 0 1.3-0.5 2.2-0.5 0.9-1.3 1.4-0.9 0.4-1.9 0.4zm-0.1-1.5q0.6 0 1.1-0.3 0.5-0.3 0.7-0.8 0.3-0.6 0.3-1.4 0-1.3-0.5-2-0.5-0.7-1.5-0.7-0.6 0-1 0.3-0.5 0.3-0.7 0.9-0.3 0.6-0.3 1.5 0 1.2 0.5 1.9 0.5 0.6 1.4 0.6zm11 1.3v-4.5q0-0.9-0.5-1.4-0.4-0.5-1.2-0.5-0.6 0-1 0.3-0.5 0.4-0.7 1-0.3 0.7-0.3 1.6v3.5h-1.7v-7.7h1.5l0.2 1.3q0.3-0.6 0.9-1 0.6-0.5 1.6-0.5 0.9 0 1.6 0.4 0.6 0.4 0.9 1.2 0.4 0.7 0.4 1.8v4.5z"/>
	</g>
	<g>
		<path class="s6" d="m178.5 297h91c4.4 0 8 3.6 8 8v32c0 4.4-3.6 8-8 8h-91c-4.4 0-8-3.6-8-8v-32c0-4.4 3.6-8 8-8z"/>
		<path fill-rule="evenodd" class="s9" d="m205.3 309q0.9 0 1.5 0.7 0.7 0.6 0.7 1.6v19.4q0 1-0.7 1.6-0.6 0.7-1.6 0.7h-4.5v-3.7q0-1-0.6-1.6-0.7-0.7-1.6-0.7-0.9 0-1.6 0.7-0.6 0.6-0.7 1.6v3.7h-4.5q-0.9 0-1.5-0.7-0.7-0.6-0.7-1.5v-19.5q0-1 0.7-1.6 0.6-0.7 1.5-0.7zm-12.7 12.8q0 0.7 0.7 0.7h1.5q0.8 0 0.8-0.7v-1.5q0-0.8-0.8-0.8h-1.5q-0.7 0-0.7 0.8zm5.2-2.3q-0.7 0-0.7 0.8v1.5q0 0.7 0.7 0.7h1.5q0.8 0 0.8-0.7v-1.5q0-0.8-0.8-0.8zm3.8 2.3q0 0.7 0.7 0.7h1.5q0.8 0 0.8-0.7v-1.5q0-0.8-0.8-0.8h-1.5q-0.7 0-0.7 0.8zm-8.3-8.3q-0.7 0-0.7 0.8v1.5q0 0.7 0.7 0.7h1.5q0.8 0 0.8-0.7v-1.5q0-0.8-0.8-0.8zm3.8 2.3q0 0.7 0.7 0.7h1.5q0.8 0 0.8-0.7v-1.5q0-0.8-0.8-0.8h-1.5q-0.7 0-0.7 0.8zm5.2-2.3q-0.7 0-0.7 0.8v1.5q0 0.7 0.7 0.7h1.5q0.8 0 0.8-0.7v-1.5q0-0.8-0.8-0.8z"/>
		<path fill-rule="evenodd" class="s5" d="m228.2 326.2q-1.3 0-2.4-0.6-1-0.6-1.6-1.8-0.6-1.2-0.6-2.9 0-1.9 0.6-3 0.6-1.2 1.6-1.8 1.1-0.6 2.4-0.6 1.4 0 2.4 0.6 1.1 0.6 1.6 1.8 0.6 1.2 0.6 3 0 1.7-0.6 2.9-0.5 1.2-1.6 1.8-1 0.6-2.4 0.6zm0-1.5q1.3 0 2.1-1 0.8-1 0.8-2.9 0-1.8-0.8-2.8-0.8-1-2.1-1-1.3 0-2 1-0.8 1-0.8 2.9 0 1.8 0.8 2.8 0.7 1 2 1zm6.9 1.3v-6.6h-1.2v-1.1h1.2v-1q0-0.9 0.3-1.4 0.3-0.5 0.9-0.7 0.5-0.3 1.1-0.3 0.4 0 0.8 0.1 0.4 0 0.7 0.1l-0.3 1.3q-0.2 0-0.4-0.1-0.2 0-0.4 0-0.3 0-0.5 0.1-0.2 0-0.3 0.3-0.2 0.2-0.2 0.6v1h1.5v1.1h-1.5v6.6zm5.3 0v-6.6h-1.2v-1.1h1.2v-1q0-0.9 0.3-1.4 0.3-0.5 0.9-0.7 0.5-0.3 1.1-0.3 0.4 0 0.8 0.1 0.4 0 0.8 0.1l-0.4 1.3q-0.2 0-0.4-0.1-0.2 0-0.4 0-0.3 0-0.5 0.1-0.2 0-0.3 0.3-0.2 0.2-0.2 0.6v1h1.5v1.1h-1.5v6.6zm6.4-9.3q-0.5 0-0.8-0.2-0.3-0.3-0.3-0.8 0-0.4 0.3-0.7 0.3-0.3 0.8-0.3 0.5 0 0.7 0.3 0.3 0.3 0.3 0.7 0 0.5-0.3 0.8-0.2 0.2-0.7 0.2zm-0.9 9.3v-7.8h1.7v7.8zm7.4 0.2q-1 0-1.8-0.5-0.8-0.5-1.3-1.4-0.5-0.9-0.5-2.2 0-1.3 0.5-2.2 0.5-0.9 1.3-1.4 0.8-0.4 1.8-0.4 0.7 0 1.3 0.2 0.5 0.2 0.9 0.6 0.4 0.4 0.7 0.9 0.2 0.5 0.3 1h-1.7q-0.2-0.5-0.6-0.9-0.3-0.3-0.9-0.3-0.5 0-0.9 0.3-0.5 0.2-0.7 0.8-0.3 0.5-0.3 1.4 0 0.9 0.2 1.4 0.3 0.6 0.7 0.9 0.4 0.3 1 0.3 0.7 0 1.1-0.4 0.4-0.4 0.4-1h1.7q0 0.8-0.4 1.5-0.4 0.6-1.1 1-0.7 0.4-1.7 0.4zm7.9 0q-1 0-1.8-0.5-0.8-0.5-1.3-1.4-0.5-0.9-0.5-2.2 0-1.2 0.5-2.2 0.4-0.9 1.3-1.4 0.8-0.4 1.8-0.4 0.9 0 1.5 0.3 0.7 0.4 1.1 1 0.4 0.6 0.6 1.4 0.1 0.8 0 1.7h-5.1q0 0.6 0.2 1.2 0.2 0.5 0.6 0.8 0.4 0.3 1.1 0.3 0.6 0 1-0.2 0.4-0.3 0.5-0.9h1.7q-0.1 0.7-0.5 1.3-0.5 0.6-1.2 0.9-0.6 0.3-1.5 0.3zm-1.9-3.7q0-0.1 0-0.1v-0.6q0-0.2 0-0.3h-0.3v1zm3.5-1q0 0.1 0 0.2l0.4-0.2zm-0.1-0.6q-0.1-0.4-0.2-0.7-0.2-0.4-0.5-0.6-0.4-0.2-0.9-0.2-0.6 0-1 0.3-0.5 0.3-0.7 0.9-0.1 0.4-0.2 0.9h3.6q0-0.3-0.1-0.6z"/>
	</g>
	<g>
		<path class="s10" d="m841 159h84c11 0 20 9 20 20v164c0 11-9 20-20 20h-84c-11 0-20-9-20-20v-164c0-11 9-20 20-20z"/>
		<path class="s11" d="m841 160h84c10.5 0 19 8.5 19 19v164c0 10.5-8.5 19-19 19h-84c-10.5 0-19-8.5-19-19v-164c0-10.5 8.5-19 19-19z"/>
		<path fill-rule="evenodd" class="s9" d="m868 216.8q-0.1 1.5-1.1 2.6-1.1 1-2.6 1.1-1.6-0.1-2.7-1.1-1-1.1-1.1-2.7 0.1-1.5 1.1-2.6 1.1-1 2.7-1.1 1.5 0.1 2.6 1.1 1 1.1 1.1 2.6zm36.3-1.2q1.5 0.1 2.6 1.1 1 1.1 1.1 2.6v5q-0.1 1.6-1.1 2.7-1.1 1-2.6 1.1h-25q-1.6-0.1-2.7-1.1-1-1.1-1.1-2.7v-5q0.1-1.5 1.1-2.6 1.1-1 2.7-1.1zm-1.3 5h-7.5v2.5h7.5zm1.3 17.5q1.5 0.1 2.6 1.1 1 1.1 1.1 2.6v5q-0.1 1.6-1.1 2.7-1.1 1-2.6 1.1h-25q-1.6-0.1-2.7-1.1-1-1.1-1.1-2.7v-5q0.1-1.5 1.1-2.6 1.1-1 2.7-1.1zm-1.3 5h-17.5v2.5h17.5zm-37.5-20q2.1 0.1 3.5 1.5 1.4 1.4 1.5 3.5 0 1.1-0.7 1.8-0.7 0.7-1.8 0.7h-7.5q-1.1 0-1.8-0.7-0.7-0.7-0.7-1.8 0.1-2.1 1.5-3.5 1.4-1.4 3.5-1.5zm2.5 16.2q-0.1 1.6-1.1 2.7-1.1 1-2.6 1.1-1.6-0.1-2.7-1.1-1-1.1-1.1-2.7 0.1-1.5 1.1-2.6 1.1-1 2.7-1.1 1.5 0.1 2.6 1.1 1 1.1 1.1 2.6zm-2.5 6.3q2.1 0.1 3.5 1.5 1.4 1.4 1.5 3.5 0 1.1-0.7 1.8-0.7 0.7-1.8 0.7h-7.5q-1.1 0-1.8-0.7-0.7-0.7-0.7-1.8 0.1-2.1 1.5-3.5 1.4-1.4 3.5-1.5z"/>
		<path fill-rule="evenodd" class="s5" d="m853.2 287.2q-1.3 0-2.3-0.6-1-0.7-1.6-1.9-0.5-1.2-0.5-2.9 0-1.7 0.6-2.9 0.6-1.2 1.6-1.8 1-0.6 2.2-0.6 1.8 0 2.8 0.9 1 0.8 1.3 2.2l-1.8 0.3q-0.3-0.8-0.8-1.3-0.6-0.5-1.5-0.5-0.7 0-1.3 0.4-0.6 0.4-0.9 1.2-0.4 0.9-0.4 2.1 0 1.2 0.3 2 0.3 0.9 0.9 1.4 0.6 0.4 1.4 0.4 1.1 0 1.7-0.5 0.6-0.6 0.6-1.5h1.8q0 1.2-0.5 2-0.5 0.8-1.4 1.2-0.9 0.4-2.2 0.4zm11.1-8h1.7v7.8h-1.7v-1.4q-0.3 0.7-0.9 1.1-0.6 0.4-1.5 0.4-0.9 0-1.5-0.3-0.7-0.3-1.1-0.9-0.4-0.7-0.4-1.7v-5h1.8v4.8q0 0.8 0.4 1.2 0.4 0.4 1.1 0.4 0.6 0 1.1-0.3 0.4-0.3 0.7-0.9 0.3-0.6 0.3-1.4zm7.1 7.9q-1.1 0-1.9-0.3-0.8-0.3-1.2-0.9-0.4-0.5-0.4-1.3h1.6q0 0.6 0.5 0.9 0.4 0.3 1.2 0.3 0.5 0 0.8-0.2 0.4-0.1 0.6-0.3 0.2-0.2 0.2-0.5 0-0.4-0.3-0.6-0.3-0.2-0.8-0.4l-1.7-0.5q-0.9-0.4-1.4-0.9-0.5-0.5-0.5-1.3 0-0.9 0.9-1.5 0.8-0.6 2.3-0.6 1.5 0 2.3 0.6 0.8 0.6 0.8 1.6h-1.6q-0.1-0.4-0.4-0.6-0.4-0.3-1.1-0.3-0.7 0-1 0.3-0.4 0.3-0.4 0.6 0 0.6 1.1 0.9l1.7 0.7q0.9 0.3 1.4 0.8 0.5 0.4 0.5 1.2 0 0.6-0.4 1.1-0.4 0.6-1.1 0.9-0.7 0.3-1.7 0.3zm7.7 0q-0.7 0-1.2-0.2-0.6-0.3-0.9-0.8-0.3-0.5-0.3-1.3v-4.5h-1.2v-1.1h1.2v-2.1h1.7v2.1h2.2v1.1h-2.2v4.5q0 1 0.9 1 0.3 0 0.6-0.1 0.3-0.1 0.7-0.2l0.2 1.2q-0.4 0.2-0.8 0.3-0.5 0.1-0.9 0.1zm6.2 0q-1.1 0-1.9-0.4-0.9-0.5-1.4-1.4-0.5-0.9-0.5-2.2 0-1.4 0.5-2.3 0.5-0.9 1.4-1.4 0.8-0.4 1.9-0.4 1 0 1.8 0.4 0.9 0.5 1.4 1.4 0.5 0.9 0.5 2.3 0 1.3-0.5 2.2-0.5 0.9-1.4 1.4-0.8 0.4-1.8 0.4zm-0.1-1.5q0.6 0 1.1-0.3 0.4-0.3 0.7-0.8 0.3-0.6 0.3-1.4 0-1.3-0.6-2-0.5-0.6-1.4-0.6-0.6 0-1.1 0.3-0.4 0.2-0.7 0.8-0.2 0.6-0.2 1.5 0 1.2 0.5 1.9 0.5 0.6 1.4 0.6zm16.2 1.3v-4.5q0-0.9-0.5-1.4-0.4-0.5-1.1-0.5-0.9 0-1.4 0.7-0.6 0.7-0.6 2.1v3.6h-1.7v-4.5q0-0.9-0.4-1.4-0.5-0.5-1.2-0.5-0.6 0-1 0.3-0.5 0.4-0.8 1-0.2 0.7-0.2 1.6v3.5h-1.7v-7.7h1.5l0.2 1.4q0.3-0.8 1-1.2 0.6-0.4 1.5-0.4 0.9 0 1.5 0.4 0.7 0.4 1 1.2 0 0 0.1 0.1 0.1-0.4 0.4-0.7 0.4-0.5 1-0.8 0.5-0.2 1.2-0.2 1 0 1.6 0.4 0.6 0.4 1 1.2 0.3 0.8 0.3 1.8v4.5zm6.9 0.2q-1 0-1.8-0.5-0.8-0.5-1.3-1.4-0.5-0.9-0.5-2.1 0-1.3 0.5-2.2 0.4-0.9 1.3-1.4 0.8-0.5 1.8-0.5 0.9 0 1.6 0.3 0.6 0.4 1 1 0.4 0.7 0.6 1.5 0.1 0.7 0 1.6h-5.1q0 0.7 0.2 1.2 0.2 0.5 0.6 0.8 0.4 0.4 1.1 0.4 0.6 0 1-0.3 0.4-0.3 0.5-0.9h1.7q-0.1 0.8-0.5 1.3-0.5 0.6-1.2 0.9-0.6 0.3-1.5 0.3zm-1.9-3.7q0 0 0 0v-0.7q0-0.2 0-0.3h-0.3v1zm3.5-1q0 0.1 0 0.3l0.4-0.3zm-0.1-0.6q0-0.4-0.2-0.7-0.2-0.3-0.5-0.5-0.4-0.3-0.9-0.3-0.6 0-1 0.4-0.4 0.3-0.7 0.8-0.1 0.4-0.2 0.9h3.6q0-0.3-0.1-0.6zm3.5 5.1v-7.7h1.7v1.5q0.3-0.8 0.8-1.2 0.6-0.5 1.3-0.5 0.2 0 0.4 0.1 0.2 0 0.3 0.1v1.7q-0.2-0.1-0.5-0.1-0.2-0.1-0.4-0.1-0.6 0-1.1 0.4-0.4 0.3-0.6 0.9-0.2 0.6-0.2 1.5v3.4zm-63.9 22v-10.3h3.6q1.7 0 2.7 0.9 0.9 0.8 0.9 2.4 0 1.5-0.9 2.4-1 0.8-2.7 0.8h-1.8v3.8zm1.7-5.3h1.8q0.9 0 1.4-0.5 0.5-0.4 0.5-1.2 0-0.8-0.5-1.3-0.5-0.5-1.4-0.5h-1.8zm7 5.3v-7.8h1.7v1.6q0.3-0.8 0.8-1.2 0.6-0.5 1.3-0.5 0.2 0 0.4 0.1 0.2 0 0.3 0v1.7q-0.2 0-0.5 0-0.2-0.1-0.4-0.1-0.6 0-1.1 0.3-0.4 0.4-0.6 1-0.2 0.6-0.2 1.5v3.4zm8.6 0.2q-1 0-1.9-0.4-0.8-0.5-1.3-1.4-0.5-0.9-0.5-2.3 0-1.3 0.5-2.2 0.5-0.9 1.3-1.4 0.9-0.4 1.9-0.4 1.1 0 1.9 0.4 0.9 0.5 1.4 1.4 0.4 0.9 0.4 2.2 0 1.4-0.4 2.3-0.5 0.9-1.4 1.4-0.8 0.4-1.9 0.4zm0-1.5q0.6 0 1.1-0.3 0.4-0.3 0.7-0.8 0.2-0.6 0.2-1.5 0-1.2-0.5-1.9-0.5-0.7-1.4-0.7-0.6 0-1.1 0.3-0.4 0.3-0.7 0.9-0.2 0.6-0.2 1.4 0 1.3 0.5 2 0.5 0.6 1.4 0.6zm8.4 1.5q-1.1 0-1.9-0.3-0.8-0.3-1.2-0.9-0.4-0.6-0.4-1.3h1.6q0 0.6 0.5 0.9 0.4 0.3 1.2 0.3 0.5 0 0.8-0.2 0.3-0.1 0.5-0.3 0.2-0.3 0.2-0.5 0-0.4-0.2-0.6-0.3-0.2-0.9-0.4l-1.6-0.6q-0.9-0.3-1.4-0.8-0.5-0.5-0.5-1.3 0-1 0.8-1.6 0.9-0.5 2.4-0.5 1.4 0 2.2 0.6 0.8 0.6 0.9 1.6h-1.7q0-0.4-0.4-0.7-0.3-0.2-1-0.2-0.7 0-1 0.3-0.4 0.2-0.4 0.6 0 0.6 1 0.9l1.8 0.7q0.9 0.3 1.4 0.7 0.5 0.5 0.5 1.3 0 0.6-0.4 1.1-0.4 0.5-1.1 0.9-0.7 0.3-1.7 0.3zm8.9 0q-0.9 0-1.5-0.4-0.3-0.2-0.6-0.5v4.5h-1.7v-11.5h1.4l0.2 1q0.3-0.6 0.9-0.9 0.6-0.3 1.4-0.3 0.9 0 1.7 0.4 0.8 0.5 1.3 1.4 0.5 0.9 0.5 2.2 0 1.3-0.5 2.2-0.5 0.9-1.4 1.4-0.8 0.5-1.7 0.5zm-1.8-2.4q0.2 0.4 0.7 0.7 0.4 0.2 0.9 0.2 0.5 0 0.9-0.3 0.5-0.3 0.8-0.9 0.3-0.5 0.3-1.4 0-0.8-0.2-1.3-0.3-0.6-0.8-0.9-0.4-0.3-1-0.3-0.5 0-0.9 0.2-0.5 0.2-0.7 0.7-0.3 0.4-0.3 1.1v1.3q0 0.5 0.3 0.9zm10 2.4q-1 0-1.8-0.5-0.8-0.5-1.3-1.4-0.5-0.9-0.5-2.2 0-1.2 0.5-2.2 0.5-0.9 1.3-1.4 0.8-0.4 1.8-0.4 0.9 0 1.6 0.3 0.6 0.4 1 1 0.4 0.6 0.6 1.4 0.1 0.8 0 1.7h-5.1q0 0.6 0.2 1.2 0.2 0.5 0.7 0.8 0.4 0.3 1 0.3 0.6 0 1-0.2 0.4-0.3 0.5-0.9h1.8q-0.2 0.7-0.6 1.3-0.4 0.6-1.1 0.9-0.7 0.3-1.6 0.3zm-1.9-3.7q0-0.1 0-0.1v-0.6q0-0.2 0-0.3h-0.3v1zm3.5-1q0 0.1 0 0.2l0.4-0.2zm-0.1-0.6q0-0.4-0.2-0.7-0.2-0.4-0.5-0.6-0.3-0.2-0.8-0.2-0.7 0-1.1 0.3-0.4 0.3-0.6 0.9-0.2 0.4-0.2 0.9h3.5q0-0.3-0.1-0.6zm6.4 5.3q-1 0-1.8-0.5-0.8-0.5-1.3-1.4-0.5-0.9-0.5-2.2 0-1.3 0.5-2.2 0.5-0.9 1.3-1.4 0.8-0.4 1.8-0.4 0.7 0 1.3 0.2 0.6 0.2 1 0.6 0.4 0.4 0.6 0.9 0.2 0.5 0.3 1h-1.7q-0.2-0.5-0.5-0.9-0.4-0.3-1-0.3-0.5 0-0.9 0.3-0.5 0.2-0.7 0.8-0.3 0.5-0.3 1.4 0 0.9 0.3 1.4 0.2 0.6 0.6 0.9 0.5 0.3 1 0.3 0.8 0 1.1-0.4 0.4-0.4 0.4-1h1.7q0 0.8-0.4 1.5-0.3 0.6-1.1 1-0.7 0.4-1.7 0.4zm7.6 0q-0.7 0-1.2-0.2-0.6-0.3-0.9-0.8-0.3-0.5-0.3-1.3v-4.5h-1.1v-1.1h1.1v-2.1h1.7v2.1h2.2v1.1h-2.2v4.4q0 1.1 1 1.1 0.2 0 0.5-0.1 0.3-0.1 0.7-0.2l0.2 1.2q-0.4 0.2-0.8 0.3-0.4 0.1-0.9 0.1zm6.1 0q-1.1 0-1.9-0.3-0.8-0.3-1.2-0.9-0.5-0.6-0.5-1.3h1.6q0.1 0.6 0.5 0.9 0.5 0.3 1.3 0.3 0.4 0 0.7-0.2 0.4-0.1 0.6-0.3 0.2-0.3 0.2-0.5 0-0.4-0.3-0.6-0.2-0.2-0.8-0.4l-1.7-0.6q-0.9-0.3-1.4-0.8-0.5-0.5-0.5-1.3 0-1 0.9-1.6 0.9-0.5 2.3-0.5 1.5 0 2.3 0.6 0.8 0.6 0.8 1.6h-1.6q-0.1-0.4-0.4-0.7-0.4-0.2-1.1-0.2-0.6 0-1 0.3-0.4 0.2-0.4 0.6 0 0.6 1.1 0.9l1.8 0.7q0.9 0.3 1.4 0.7 0.5 0.5 0.5 1.3 0 0.6-0.4 1.1-0.4 0.5-1.1 0.9-0.8 0.3-1.7 0.3z"/>
	</g>
</svg>