<svg width="559" height="380" viewBox="0 0 559 380" fill="none" xmlns="http://www.w3.org/2000/svg">
<path d="M138.719 158.706C138.719 155.653 136.244 153.178 133.192 153.178C130.139 153.178 127.664 155.653 127.664 158.706C127.664 161.758 130.139 164.233 133.192 164.233C136.244 164.233 138.719 161.758 138.719 158.706ZM173.147 157.669H170.65V159.742H173.147V157.669ZM165.656 157.669H160.661V159.742H165.656V157.669ZM155.667 157.669H150.672V159.742H155.667V157.669ZM145.678 157.669H140.683V159.742H145.678V157.669ZM135.689 157.669H133.192V159.742H135.689V157.669Z" fill="#3BB24A"/>
<path d="M428.547 158.706C428.547 161.758 431.021 164.233 434.074 164.233C437.127 164.233 439.601 161.758 439.601 158.706C439.601 155.653 437.127 153.178 434.074 153.178C431.021 153.178 428.547 155.653 428.547 158.706ZM394.118 159.742H396.615V157.669H394.118V159.742ZM401.61 159.742H406.604V157.669H401.61V159.742ZM411.599 159.742H416.593V157.669H411.599V159.742ZM421.588 159.742H426.582V157.669H421.588V159.742ZM431.577 159.742H434.074V157.669H431.577V159.742Z" fill="#3BB24A"/>
<path d="M279.589 236.109C276.536 236.109 274.062 238.584 274.062 241.636C274.062 244.689 276.536 247.164 279.589 247.164C282.642 247.164 285.116 244.689 285.116 241.636C285.116 238.584 282.642 236.109 279.589 236.109ZM278.552 184.981L278.552 187.814L280.625 187.814L280.625 184.981L278.552 184.981ZM278.552 193.479L278.552 199.145L280.625 199.145L280.625 193.479L278.552 193.479ZM278.552 204.81L278.552 210.476L280.625 210.476L280.625 204.81L278.552 204.81ZM278.552 216.141L278.552 221.807L280.625 221.807L280.625 216.141L278.552 216.141ZM278.552 227.472L278.552 233.138L280.625 233.138L280.625 227.472L278.552 227.472ZM278.552 238.803L278.552 241.636L280.625 241.636L280.625 238.803L278.552 238.803Z" fill="#3BB24A"/>
<path d="M47.4042 169.636C46.8745 169.636 46.5718 169.296 46.4962 168.615V138.761C46.5718 137.248 47.1015 135.961 48.0853 134.902C49.1447 133.918 50.4312 133.389 51.9447 133.313H99.1653C100.679 133.389 101.965 133.918 103.025 134.902C104.008 135.961 104.538 137.248 104.614 138.761V168.728C104.538 169.258 104.235 169.561 103.706 169.636C103.176 169.561 102.873 169.258 102.798 168.728V138.761C102.798 137.778 102.457 136.907 101.776 136.151C101.095 135.47 100.225 135.129 99.1653 135.129H51.9447C50.8852 135.129 50.015 135.47 49.3339 136.151C48.6529 136.907 48.3123 137.778 48.3123 138.761V168.728C48.2367 169.258 47.934 169.561 47.4042 169.636ZM110.062 173.269C111.197 173.42 111.803 174.025 111.879 175.085V176.901C111.803 178.944 111.084 180.647 109.722 182.009C108.36 183.371 106.657 184.09 104.614 184.166H46.4962C44.453 184.09 42.7503 183.371 41.3882 182.009C40.026 180.647 39.3071 178.944 39.2314 176.901V175.085C39.3071 174.025 39.9125 173.42 41.0476 173.269H110.062ZM110.062 176.901V175.085H41.0476V176.901C41.1233 178.415 41.653 179.701 42.6368 180.76C43.6962 181.82 44.9827 182.35 46.4962 182.35H104.614C106.127 182.35 107.414 181.82 108.473 180.76C109.457 179.701 109.987 178.415 110.062 176.901Z" fill="#3BB24A"/>
<path d="M254.441 289.674V264.248H305.294V289.674H254.441ZM256.258 266.064V287.858H303.478V266.064H256.258ZM307.111 256.983C308.624 257.059 309.911 257.588 310.97 258.572C311.954 259.632 312.483 260.918 312.559 262.432V298.755C312.483 300.269 311.954 301.555 310.97 302.614C309.911 303.598 308.624 304.128 307.111 304.204H286.565L289.63 313.285H297.122C297.651 313.36 297.954 313.663 298.03 314.193C297.954 314.722 297.651 315.025 297.122 315.101H262.614C262.085 315.025 261.782 314.722 261.706 314.193C261.782 313.663 262.085 313.36 262.614 313.285H270.106L273.171 304.204H252.625C251.112 304.128 249.825 303.598 248.766 302.614C247.782 301.555 247.252 300.269 247.177 298.755V262.432C247.252 260.918 247.782 259.632 248.766 258.572C249.825 257.588 251.112 257.059 252.625 256.983H307.111ZM287.7 313.285L284.635 304.204H275.1L272.036 313.285H287.7ZM310.743 298.755V262.432C310.743 261.372 310.402 260.502 309.721 259.821C309.04 259.14 308.17 258.799 307.111 258.799H252.625C251.566 258.799 250.696 259.14 250.015 259.821C249.333 260.502 248.993 261.372 248.993 262.432V298.755C248.993 299.815 249.333 300.685 250.015 301.366C250.696 302.047 251.566 302.387 252.625 302.387H307.111C308.17 302.387 309.04 302.047 309.721 301.366C310.402 300.685 310.743 299.815 310.743 298.755Z" fill="#3BB24A"/>
<path d="M456.101 187.912C454.587 187.836 453.301 187.306 452.241 186.323C451.258 185.263 450.728 183.977 450.652 182.463V135.243C450.728 133.729 451.258 132.443 452.241 131.383C453.301 130.399 454.587 129.87 456.101 129.794H496.057C497.57 129.87 498.857 130.399 499.916 131.383C500.9 132.443 501.43 133.729 501.505 135.243V182.463C501.43 183.977 500.9 185.263 499.916 186.323C498.857 187.306 497.57 187.836 496.057 187.912H456.101ZM452.469 135.243V182.463C452.469 183.523 452.809 184.393 453.49 185.074C454.171 185.755 455.041 186.096 456.101 186.096H496.057C497.116 186.096 497.986 185.755 498.668 185.074C499.349 184.393 499.689 183.523 499.689 182.463V135.243C499.689 134.183 499.349 133.313 498.668 132.632C497.986 131.951 497.116 131.61 496.057 131.61H456.101C455.041 131.61 454.171 131.951 453.49 132.632C452.809 133.313 452.469 134.183 452.469 135.243ZM470.63 181.555C470.101 181.479 469.798 181.177 469.722 180.647C469.798 180.117 470.101 179.815 470.63 179.739H481.527C482.057 179.815 482.36 180.117 482.435 180.647C482.36 181.177 482.057 181.479 481.527 181.555H470.63Z" fill="#3BB24A"/>
<path opacity="0.5" d="M381.561 164.443C383.073 164.443 384.314 164.929 385.286 165.901C386.257 166.872 386.743 168.114 386.743 169.625V190.353C386.743 191.864 386.257 193.106 385.286 194.077C384.314 195.049 383.073 195.535 381.561 195.535H309.015C307.504 195.535 306.262 195.049 305.29 194.077C304.319 193.106 303.833 191.864 303.833 190.353V169.625C303.833 168.114 304.319 166.872 305.29 165.901C306.262 164.929 307.504 164.443 309.015 164.443H381.561ZM360.834 183.875C363.209 183.66 364.504 182.364 364.72 179.989C364.504 177.614 363.209 176.319 360.834 176.103C358.459 176.319 357.163 177.614 356.947 179.989C357.163 182.364 358.459 183.66 360.834 183.875ZM371.197 183.875C373.573 183.66 374.868 182.364 375.084 179.989C374.868 177.614 373.573 176.319 371.197 176.103C368.822 176.319 367.527 177.614 367.311 179.989C367.527 182.364 368.822 183.66 371.197 183.875ZM381.561 122.988C383.073 122.988 384.314 123.474 385.286 124.446C386.257 125.417 386.743 126.659 386.743 128.17V148.898C386.743 150.409 386.257 151.651 385.286 152.622C384.314 153.594 383.073 154.08 381.561 154.08H309.015C307.504 154.08 306.262 153.594 305.29 152.622C304.319 151.651 303.833 150.409 303.833 148.898V128.17C303.833 126.659 304.319 125.417 305.29 124.446C306.262 123.474 307.504 122.988 309.015 122.988H381.561ZM360.834 142.42C363.209 142.204 364.504 140.909 364.72 138.534C364.504 136.159 363.209 134.863 360.834 134.648C358.459 134.863 357.163 136.159 356.947 138.534C357.163 140.909 358.459 142.204 360.834 142.42ZM371.197 142.42C373.573 142.204 374.868 140.909 375.084 138.534C374.868 136.159 373.573 134.863 371.197 134.648C368.822 134.863 367.527 136.159 367.311 138.534C367.527 140.909 368.822 142.204 371.197 142.42Z" fill="white"/>
<path opacity="0.5" d="M248.904 164.443C250.415 164.443 251.657 164.929 252.628 165.901C253.6 166.872 254.086 168.114 254.086 169.625V190.353C254.086 191.864 253.6 193.106 252.628 194.077C251.657 195.049 250.415 195.535 248.904 195.535H176.358C174.846 195.535 173.605 195.049 172.633 194.077C171.662 193.106 171.176 191.864 171.176 190.353V169.625C171.176 168.114 171.662 166.872 172.633 165.901C173.605 164.929 174.846 164.443 176.358 164.443H248.904ZM228.176 183.875C230.552 183.66 231.847 182.364 232.063 179.989C231.847 177.614 230.552 176.319 228.176 176.103C225.801 176.319 224.506 177.614 224.29 179.989C224.506 182.364 225.801 183.66 228.176 183.875ZM238.54 183.875C240.915 183.66 242.211 182.364 242.427 179.989C242.211 177.614 240.915 176.319 238.54 176.103C236.165 176.319 234.87 177.614 234.654 179.989C234.87 182.364 236.165 183.66 238.54 183.875ZM248.904 122.988C250.415 122.988 251.657 123.474 252.628 124.446C253.6 125.417 254.086 126.659 254.086 128.17V148.898C254.086 150.409 253.6 151.651 252.628 152.622C251.657 153.594 250.415 154.08 248.904 154.08H176.358C174.846 154.08 173.605 153.594 172.633 152.622C171.662 151.651 171.176 150.409 171.176 148.898V128.17C171.176 126.659 171.662 125.417 172.633 124.446C173.605 123.474 174.846 122.988 176.358 122.988H248.904ZM228.176 142.42C230.552 142.205 231.847 140.909 232.063 138.534C231.847 136.159 230.552 134.864 228.176 134.648C225.801 134.864 224.506 136.159 224.29 138.534C224.506 140.909 225.801 142.205 228.176 142.42ZM238.54 142.42C240.915 142.205 242.211 140.909 242.427 138.534C242.211 136.159 240.915 134.864 238.54 134.648C236.165 134.864 234.87 136.159 234.654 138.534C234.87 140.909 236.165 142.205 238.54 142.42Z" fill="white"/>
<path d="M322.211 131.619C323.975 131.619 325.423 132.186 326.556 133.32C327.69 134.453 328.257 135.902 328.257 137.665V161.847C328.257 163.61 327.69 165.059 326.556 166.192C325.423 167.326 323.975 167.893 322.211 167.893H237.574C235.811 167.893 234.362 167.326 233.229 166.192C232.095 165.059 231.528 163.61 231.528 161.847V137.665C231.528 135.902 232.095 134.453 233.229 133.32C234.362 132.186 235.811 131.619 237.574 131.619H322.211ZM298.029 154.29C300.8 154.038 302.311 152.527 302.563 149.756C302.311 146.985 300.8 145.474 298.029 145.222C295.258 145.474 293.747 146.985 293.495 149.756C293.747 152.527 295.258 154.038 298.029 154.29ZM310.12 154.29C312.891 154.038 314.402 152.527 314.654 149.756C314.402 146.985 312.891 145.474 310.12 145.222C307.349 145.474 305.838 146.985 305.586 149.756C305.838 152.527 307.349 154.038 310.12 154.29Z" fill="#0D3F46"/>
<path d="M322.211 174.744C323.975 174.744 325.423 175.311 326.556 176.445C327.69 177.578 328.257 179.027 328.257 180.79V204.972C328.257 206.735 327.69 208.184 326.556 209.317C325.423 210.451 323.975 211.017 322.211 211.017H237.574C235.811 211.017 234.362 210.451 233.229 209.317C232.095 208.184 231.528 206.735 231.528 204.972V180.79C231.528 179.027 232.095 177.578 233.229 176.445C234.362 175.311 235.811 174.744 237.574 174.744H322.211ZM298.029 197.415C300.8 197.163 302.311 195.652 302.563 192.881C302.311 190.11 300.8 188.599 298.029 188.347C295.258 188.599 293.747 190.11 293.495 192.881C293.747 195.652 295.258 197.163 298.029 197.415ZM310.12 197.415C312.891 197.163 314.402 195.652 314.654 192.881C314.402 190.11 312.891 188.599 310.12 188.347C307.349 188.599 305.838 190.11 305.586 192.881C305.838 195.652 307.349 197.163 310.12 197.415Z" fill="white"/>
<path d="M322.211 89.4117C323.975 89.4117 325.423 89.9785 326.556 91.112C327.69 92.2455 328.257 93.6939 328.257 95.4572V119.639C328.257 121.403 327.69 122.851 326.556 123.985C325.423 125.118 323.975 125.685 322.211 125.685H237.574C235.811 125.685 234.362 125.118 233.229 123.985C232.095 122.851 231.528 121.403 231.528 119.639V95.4572C231.528 93.6939 232.095 92.2455 233.229 91.112C234.362 89.9785 235.811 89.4117 237.574 89.4117H322.211ZM298.029 112.082C300.8 111.831 302.311 110.319 302.563 107.548C302.311 104.777 300.8 103.266 298.029 103.014C295.258 103.266 293.747 104.777 293.495 107.548C293.747 110.319 295.258 111.831 298.029 112.082ZM310.12 112.082C312.891 111.831 314.402 110.319 314.654 107.548C314.402 104.777 312.891 103.266 310.12 103.014C307.349 103.266 305.838 104.777 305.586 107.548C305.838 110.319 307.349 111.831 310.12 112.082Z" fill="#3BB24A"/>
</svg>
