<svg version="1.2" xmlns="http://www.w3.org/2000/svg" viewBox="0 0 1440 1086" width="1440" height="1086">
	<title>Frame 1597882695-svg</title>
	<defs>
		<radialGradient id="g1" cx="0" cy="0" r="1" gradientUnits="userSpaceOnUse" gradientTransform="matrix(-400.371,-400.371,400.371,-400.371,506.01,489.737)">
			<stop offset=".85" stop-color="#c7e1e5" stop-opacity="0"/>
			<stop offset="1" stop-color="#c7e1e5" stop-opacity="1"/>
		</radialGradient>
		<radialGradient id="g2" cx="0" cy="0" r="1" gradientUnits="userSpaceOnUse" gradientTransform="matrix(-318.394,-318.394,318.394,-318.394,502.302,485.755)">
			<stop offset=".85" stop-color="#c7e1e5" stop-opacity="0"/>
			<stop offset="1" stop-color="#c7e1e5" stop-opacity="1"/>
		</radialGradient>
		<radialGradient id="g3" cx="0" cy="0" r="1" gradientUnits="userSpaceOnUse" gradientTransform="matrix(-202.015,-202.015,202.015,-202.015,456.487,440.765)">
			<stop offset=".85" stop-color="#c7e1e5" stop-opacity="0"/>
			<stop offset="1" stop-color="#c7e1e5" stop-opacity="1"/>
		</radialGradient>
	</defs>
	<style>
		.s0 { fill: #f5f5f5 } 
		.s1 { fill: url(#g1) } 
		.s2 { fill: url(#g2) } 
		.s3 { fill: url(#g3) } 
	</style>
	<path class="s0" d="m0-1h1440v1087h-1440z"/>
	<g style="opacity: .5">
		<path class="s1" d="m562.7 547.2c-126.5 126.5-331 126.5-457.5 0-126.5-126.5-126.5-330.9 0-457.4 126.5-126.5 331-126.5 457.5 0 126.4 126.5 126.4 330.9 0 457.4z"/>
		<path class="s2" d="m547.4 531.5c-100.6 100.6-263.2 100.6-363.8 0-100.6-100.6-100.6-263.2 0-363.8 100.6-100.6 263.2-100.6 363.8 0 100.5 100.6 100.5 263.2 0 363.8z"/>
		<path class="s3" d="m485.1 469.8c-64.1 64-167.4 64.2-231.3 0.4-63.8-63.8-63.6-167.2 0.5-231.2 64-64.1 167.4-64.3 231.2-0.5 63.8 63.9 63.6 167.2-0.4 231.3z"/>
	</g>
</svg>