<svg version="1.2" xmlns="http://www.w3.org/2000/svg" viewBox="0 0 1440 1242" width="1440" height="1242">
	<title>calling_banner-svg</title>
	<defs>
		<radialGradient id="g1" cx="0" cy="0" r="1" gradientUnits="userSpaceOnUse" gradientTransform="matrix(400.371,-400.371,400.371,400.371,914.702,531.579)">
			<stop offset=".85" stop-color="#c7e1e5" stop-opacity="0"/>
			<stop offset="1" stop-color="#c7e1e5" stop-opacity="1"/>
		</radialGradient>
		<radialGradient id="g2" cx="0" cy="0" r="1" gradientUnits="userSpaceOnUse" gradientTransform="matrix(318.394,-318.394,318.394,318.394,918.686,527.864)">
			<stop offset=".85" stop-color="#c7e1e5" stop-opacity="0"/>
			<stop offset="1" stop-color="#c7e1e5" stop-opacity="1"/>
		</radialGradient>
		<radialGradient id="g3" cx="0" cy="0" r="1" gradientUnits="userSpaceOnUse" gradientTransform="matrix(202.015,-202.015,202.015,202.015,963.671,482.05)">
			<stop offset=".85" stop-color="#c7e1e5" stop-opacity="0"/>
			<stop offset="1" stop-color="#c7e1e5" stop-opacity="1"/>
		</radialGradient>
	</defs>
	<style>
		.s0 { fill: #f5f5f5 } 
		.s1 { fill: url(#g1) } 
		.s2 { fill: url(#g2) } 
		.s3 { fill: url(#g3) } 
	</style>
	<path class="s0" d="m0 0h1440v1242h-1440z"/>
	<g style="opacity: .5">
		<path class="s1" d="m857.2 588.2c-126.5-126.5-126.5-330.9 0-457.4 126.5-126.5 331-126.5 457.4 0 126.5 126.5 126.5 330.9 0 457.4-126.4 126.5-330.9 126.5-457.4 0z"/>
		<path class="s2" d="m873 572.9c-100.6-100.6-100.6-263.2 0-363.8 100.6-100.5 263.2-100.5 363.7 0 100.6 100.6 100.6 263.2 0 363.8-100.5 100.6-263.1 100.6-363.7 0z"/>
		<path class="s3" d="m934.7 510.6c-64.1-64-64.3-167.4-0.5-231.2 63.9-63.8 167.2-63.6 231.3 0.4 64 64.1 64.2 167.4 0.4 231.2-63.8 63.9-167.2 63.7-231.2-0.4z"/>
	</g>
</svg>