<svg width="500" height="415" viewBox="0 0 500 415" fill="none" xmlns="http://www.w3.org/2000/svg">
<g filter="url(#filter0_d_1754_7154)">
<g clip-path="url(#clip0_1754_7154)">
<rect x="166.945" y="42.0033" width="147.734" height="317.95" rx="16.4863" fill="white"/>
<path d="M240.457 70.9809C243.107 71.0177 245.48 71.5328 247.578 72.5264C249.712 73.5568 251.405 74.9368 252.656 76.6664C253.908 78.396 254.552 80.328 254.588 82.4624C254.552 84.5968 253.908 86.5288 252.656 88.2583C251.405 89.9879 249.712 91.3679 247.578 92.3983C245.48 93.3919 243.107 93.9071 240.457 93.9439C238.323 93.9439 236.354 93.5943 234.551 92.8951C233.852 93.4839 232.84 94.0911 231.515 94.7167C230.19 95.3423 228.608 95.6735 226.768 95.7103C226.547 95.7103 226.418 95.6183 226.381 95.4343C226.308 95.2503 226.326 95.1031 226.437 94.9927C226.547 94.9191 226.97 94.3671 227.706 93.3367C228.442 92.3431 229.031 91.1287 229.473 89.6935C227.449 87.6695 226.4 85.2592 226.326 82.4624C226.363 80.328 227.007 78.396 228.258 76.6664C229.509 74.9368 231.202 73.5568 233.337 72.5264C235.434 71.5328 237.808 71.0177 240.457 70.9809ZM235.545 84.2288C235.655 83.3456 235.434 82.72 234.882 82.352C234.293 81.984 233.741 81.7448 233.226 81.6344C233.189 81.6344 233.171 81.6344 233.171 81.6344C233.134 81.5976 233.079 81.5792 233.005 81.5792C232.417 81.432 232.104 81.248 232.067 81.0272C232.177 80.7328 232.582 80.6408 233.281 80.7512C233.502 80.788 233.741 80.8432 233.999 80.9168C234.514 81.064 234.882 80.88 235.103 80.3648C235.25 79.8496 235.066 79.4816 234.551 79.2608C234.22 79.1504 233.889 79.0584 233.557 78.9848C232.674 78.8744 231.957 78.9664 231.405 79.2608C230.816 79.5552 230.466 80.0336 230.356 80.696C230.245 81.5792 230.466 82.2048 231.018 82.5728C231.57 82.9408 232.049 83.1616 232.453 83.2352C232.564 83.272 232.656 83.2904 232.729 83.2904C233.429 83.4376 233.797 83.64 233.833 83.8976C233.723 84.192 233.318 84.284 232.619 84.1736C232.325 84.1368 231.993 84.0448 231.625 83.8976C231.589 83.8608 231.533 83.8424 231.46 83.8424C230.981 83.6952 230.632 83.8792 230.411 84.3944C230.301 84.9464 230.521 85.3328 231.073 85.5536C231.478 85.7376 231.901 85.8664 232.343 85.94C232.564 85.9768 232.785 85.9952 233.005 85.9952C234.477 85.9216 235.324 85.3328 235.545 84.2288ZM243.99 85.112V79.8128C243.953 79.408 243.751 79.132 243.383 78.9848C242.978 78.8744 242.647 78.9664 242.389 79.2608L240.457 81.8552L238.525 79.2608C238.268 78.9664 237.936 78.8744 237.532 78.9848C237.164 79.1688 236.961 79.4448 236.925 79.8128V85.112C236.961 85.664 237.256 85.9584 237.808 85.9952C238.36 85.9584 238.654 85.664 238.691 85.112V82.4624L239.74 83.8976C239.924 84.1184 240.163 84.2288 240.457 84.2288C240.752 84.2288 240.991 84.1184 241.175 83.8976L242.224 82.4624V85.112C242.26 85.664 242.555 85.9584 243.107 85.9952C243.659 85.9584 243.953 85.664 243.99 85.112ZM250.559 84.2288C250.669 83.3456 250.448 82.72 249.896 82.352C249.308 81.984 248.756 81.7448 248.24 81.6344C248.204 81.6344 248.185 81.6344 248.185 81.6344C248.148 81.5976 248.093 81.5792 248.02 81.5792C247.431 81.432 247.1 81.248 247.026 81.0272C247.136 80.7328 247.541 80.6408 248.24 80.7512C248.461 80.788 248.7 80.8432 248.958 80.9168C249.473 81.064 249.841 80.88 250.062 80.3648C250.209 79.8496 250.025 79.4816 249.51 79.2608C249.179 79.1504 248.848 79.0584 248.516 78.9848C247.633 78.8744 246.916 78.9664 246.364 79.2608C245.775 79.5552 245.425 80.0336 245.315 80.696C245.204 81.5792 245.425 82.2048 245.977 82.5728C246.529 82.9408 247.008 83.1616 247.412 83.2352C247.523 83.272 247.615 83.2904 247.688 83.2904C248.388 83.4376 248.756 83.64 248.792 83.8976C248.682 84.192 248.277 84.284 247.578 84.1736C247.284 84.1368 246.952 84.0448 246.584 83.8976C246.548 83.8608 246.511 83.8424 246.474 83.8424C245.959 83.732 245.609 83.916 245.425 84.3944C245.315 84.9464 245.517 85.3328 246.032 85.5536C246.437 85.7376 246.879 85.8664 247.357 85.94C247.578 85.9768 247.799 85.9952 248.02 85.9952C249.492 85.9216 250.338 85.3328 250.559 84.2288Z" fill="#3BB24A"/>
<rect x="199.598" y="109.126" width="82.4315" height="9.42074" rx="4.71037" fill="#E5E5E5"/>
<g opacity="0.7">
<rect x="286.05" y="48.8527" width="1.14157" height="3.80523" rx="0.570785" fill="#757575"/>
<rect x="284.147" y="49.6136" width="1.14157" height="3.04419" rx="0.570785" fill="#757575"/>
<rect x="282.245" y="50.3746" width="1.14157" height="2.28314" rx="0.570785" fill="#757575"/>
<rect x="280.342" y="51.1359" width="1.14157" height="1.52209" rx="0.570785" fill="#757575"/>
<path opacity="0.35" d="M299.496 50.7553C299.496 49.6695 300.376 48.7893 301.462 48.7893H305.521C306.607 48.7893 307.487 49.6695 307.487 50.7553C307.487 51.8411 306.607 52.7213 305.521 52.7213H301.462C300.376 52.7213 299.496 51.8411 299.496 50.7553Z" stroke="#757575" stroke-width="0.380523"/>
<path opacity="0.4" d="M308.058 49.9941V51.5162C308.364 51.3873 308.563 51.0874 308.563 50.7552C308.563 50.4229 308.364 50.1231 308.058 49.9941Z" fill="#757575"/>
<path d="M300.067 50.7552C300.067 49.9847 300.692 49.36 301.463 49.36H305.522C306.292 49.36 306.917 49.9847 306.917 50.7552C306.917 51.5258 306.292 52.1505 305.522 52.1505H301.463C300.692 52.1505 300.067 51.5258 300.067 50.7552Z" fill="#757575"/>
<path d="M180.239 52.4478L181.098 50.9855C180.887 50.9981 180.686 50.9698 180.495 50.9006C180.305 50.8314 180.136 50.7287 179.987 50.5924C179.838 50.4561 179.72 50.2947 179.633 50.1081C179.547 49.9215 179.505 49.7192 179.505 49.5011C179.505 49.2894 179.545 49.0913 179.626 48.9068C179.707 48.7202 179.819 48.5566 179.961 48.4162C180.106 48.2736 180.272 48.1625 180.459 48.0828C180.649 48.0032 180.852 47.9633 181.069 47.9633C181.352 47.9633 181.611 48.0325 181.845 48.1709C182.081 48.3092 182.27 48.4948 182.41 48.7275C182.553 48.9602 182.624 49.2181 182.624 49.5011C182.624 49.6416 182.606 49.7747 182.57 49.9005C182.536 50.0242 182.481 50.15 182.407 50.2779L181.139 52.4478H180.239ZM181.063 50.2716C181.216 50.2716 181.351 50.2349 181.468 50.1615C181.587 50.0882 181.68 49.9928 181.746 49.8754C181.812 49.758 181.845 49.6322 181.845 49.498C181.845 49.3512 181.809 49.2202 181.736 49.1049C181.664 48.9875 181.568 48.8963 181.449 48.8313C181.33 48.7642 181.203 48.7307 181.069 48.7307C180.916 48.7307 180.78 48.7673 180.661 48.8407C180.544 48.912 180.451 49.0064 180.383 49.1238C180.315 49.2412 180.281 49.3659 180.281 49.498C180.281 49.6385 180.315 49.7674 180.383 49.8848C180.453 50.0022 180.547 50.0966 180.664 50.1678C180.783 50.237 180.916 50.2716 181.063 50.2716Z" fill="#757575"/>
<path d="M183.421 50.0924C183.31 50.0924 183.216 50.0546 183.137 49.9791C183.06 49.9016 183.022 49.8072 183.022 49.6961C183.022 49.5892 183.06 49.4969 183.137 49.4194C183.216 49.3418 183.31 49.303 183.421 49.303C183.532 49.303 183.626 49.3418 183.705 49.4194C183.784 49.4969 183.823 49.5892 183.823 49.6961C183.823 49.8072 183.784 49.9016 183.705 49.9791C183.626 50.0546 183.532 50.0924 183.421 50.0924ZM183.421 52.5296C183.31 52.5296 183.216 52.4919 183.137 52.4164C183.06 52.3388 183.022 52.2445 183.022 52.1333C183.022 52.0264 183.06 51.9342 183.137 51.8566C183.216 51.779 183.31 51.7402 183.421 51.7402C183.532 51.7402 183.626 51.779 183.705 51.8566C183.784 51.9342 183.823 52.0264 183.823 52.1333C183.823 52.2445 183.784 52.3388 183.705 52.4164C183.626 52.4919 183.532 52.5296 183.421 52.5296Z" fill="#757575"/>
<path d="M186.314 52.4478V51.3817H184.411V50.6113L186.132 48.0451H187.093V50.6144H187.47V51.3817H187.093V52.4478H186.314ZM185.315 50.6113L186.314 50.6144L186.311 49.0923L185.315 50.6113Z" fill="#757575"/>
<path d="M188.62 52.4478V48.8124H188.058L188.268 48.0451H189.398V52.4478H188.62Z" fill="#757575"/>
<path d="M293.122 52.1197C293.265 51.977 293.459 51.8968 293.66 51.8968C293.862 51.8968 294.056 51.977 294.199 52.1197M292.046 51.0434C292.258 50.8314 292.51 50.6632 292.787 50.5485C293.064 50.4337 293.361 50.3747 293.66 50.3747C293.96 50.3747 294.257 50.4337 294.534 50.5485C294.811 50.6632 295.063 50.8314 295.275 51.0434M290.97 49.9671C291.323 49.6138 291.743 49.3335 292.204 49.1423C292.666 48.951 293.161 48.8526 293.66 48.8526C294.16 48.8526 294.655 48.951 295.117 49.1423C295.578 49.3335 295.998 49.6138 296.351 49.9671" stroke="#757575" stroke-width="0.761046"/>
</g>
</g>
<rect x="165.34" y="40.3975" width="150.946" height="321.162" rx="18.0921" stroke="#0D3F46" stroke-width="3.21162"/>
</g>
<path d="M191.428 121.283C191.428 112.563 198.497 105.493 207.218 105.493H365.12C373.841 105.493 380.91 112.563 380.91 121.283V160.759C380.91 162.212 379.732 163.391 378.279 163.391H207.218C198.497 163.391 191.428 156.321 191.428 147.6V121.283Z" fill="#C7E1E5"/>
<rect x="217.745" y="118.652" width="136.849" height="10.5268" rx="5.26341" fill="#3BB24A"/>
<rect x="217.745" y="139.705" width="97.3731" height="10.5268" rx="5.26341" fill="#3BB24A"/>
<path d="M248.448 262.08C248.448 253.359 255.518 246.289 264.238 246.289H335.294C344.015 246.289 351.085 253.359 351.085 262.08V301.555C351.085 303.009 349.906 304.187 348.453 304.187H264.238C255.518 304.187 248.448 297.117 248.448 288.397V262.08Z" fill="#C7E1E5"/>
<rect x="274.766" y="259.448" width="38.1597" height="10.5268" rx="5.26341" fill="#3BB24A"/>
<rect x="274.766" y="280.502" width="56.5816" height="10.5268" rx="5.26341" fill="#3BB24A"/>
<g filter="url(#filter1_d_1754_7154)">
<path d="M119.056 193.655C119.056 184.935 126.125 177.865 134.846 177.865H240.114C248.835 177.865 255.904 184.935 255.904 193.655V219.972C255.904 228.693 248.835 235.762 240.114 235.762H121.687C120.234 235.762 119.056 234.584 119.056 233.131V193.655Z" fill="white" shape-rendering="crispEdges"/>
<rect x="145.373" y="191.023" width="84.2145" height="10.5268" rx="5.26341" fill="#D1D1D1"/>
<rect x="169.058" y="212.077" width="60.5292" height="10.5268" rx="5.26341" fill="#D1D1D1"/>
</g>
<path d="M442.537 167.306C438.196 167.397 434.587 168.585 431.709 170.87C428.784 173.108 427.277 175.941 427.185 179.368C427.231 181.972 428.236 184.348 430.201 186.495C430.795 187.226 430.955 187.98 430.681 188.757V188.826C430.269 189.831 429.79 190.745 429.241 191.567C428.739 192.389 428.282 193.052 427.871 193.554C429.378 193.372 430.749 193.029 431.983 192.526C433.171 191.978 434.153 191.43 434.93 190.882C435.524 190.47 436.163 190.356 436.849 190.539C438.676 191.133 440.572 191.43 442.537 191.43C446.877 191.339 450.487 190.151 453.365 187.866C456.244 185.627 457.729 182.795 457.82 179.368C457.729 175.941 456.244 173.108 453.365 170.87C450.487 168.585 446.877 167.397 442.537 167.306ZM442.537 165.113C445.781 165.159 448.728 165.798 451.378 167.032C453.982 168.311 456.061 170.024 457.614 172.172C459.168 174.319 459.967 176.718 460.013 179.368C459.967 182.018 459.168 184.417 457.614 186.564C456.061 188.711 453.982 190.425 451.378 191.704C448.728 192.938 445.781 193.577 442.537 193.623C440.298 193.623 438.174 193.303 436.163 192.664C435.112 193.395 433.787 194.103 432.188 194.788C430.589 195.428 428.739 195.77 426.637 195.816C425.952 195.77 425.449 195.428 425.129 194.788C424.855 194.148 424.969 193.554 425.472 193.006C425.518 192.96 425.906 192.458 426.637 191.498C427.368 190.585 428.031 189.42 428.624 188.003C426.294 185.582 425.084 182.703 424.992 179.368C425.038 176.718 425.837 174.319 427.391 172.172C428.944 170.024 431.046 168.311 433.696 167.032C436.346 165.798 439.293 165.159 442.537 165.113Z" fill="#A0D8A5"/>
<path d="M67.5179 94.934C67.4266 98.3607 66.033 101.193 63.3374 103.432C60.6417 105.717 57.2835 106.905 53.2629 106.996C51.8465 106.996 50.5215 106.836 49.2879 106.516C48.2827 107.156 47.0491 107.75 45.5871 108.298C44.125 108.846 42.4802 109.143 40.6526 109.189C39.9673 109.143 39.4647 108.824 39.1449 108.23C38.9164 107.544 39.0078 106.95 39.419 106.448C39.5104 106.402 39.8302 106.014 40.3785 105.283C40.9725 104.506 41.5436 103.569 42.0918 102.473C40.0815 100.325 39.0535 97.8124 39.0078 94.934C39.0992 91.5073 40.4927 88.6746 43.1884 86.4358C45.8841 84.1513 49.2422 82.9634 53.2629 82.872C57.2835 82.9634 60.6417 84.1513 63.3374 86.4358C66.033 88.6746 67.4266 91.5073 67.5179 94.934ZM53.2629 104.803C56.6896 104.712 59.5223 103.752 61.7611 101.924C64.0456 100.051 65.2335 97.7211 65.3249 94.934C65.2335 92.147 64.0684 89.8168 61.8296 87.9436C59.5452 86.116 56.6896 85.1565 53.2629 85.0651C49.8362 85.1565 46.9806 86.116 44.6961 87.9436C42.4574 89.8168 41.2923 92.147 41.2009 94.934C41.2009 97.1728 42.0462 99.1831 43.7367 100.965L44.7647 102.062L44.0793 103.364C43.3483 104.871 42.6173 106.059 41.8862 106.927C43.2112 106.79 44.3992 106.493 45.45 106.037C46.5009 105.625 47.369 105.168 48.0543 104.666L48.8767 104.118L49.7676 104.392C50.9099 104.666 52.075 104.803 53.2629 104.803ZM80.5394 112.684C80.9963 113.415 81.4075 113.986 81.773 114.398C82.1385 114.855 82.3441 115.129 82.3898 115.22C82.8467 115.723 82.9609 116.317 82.7325 117.002C82.4127 117.596 81.9101 117.916 81.2247 117.961C78.986 117.916 77.0442 117.505 75.3993 116.728C73.6632 117.55 71.767 117.961 69.711 117.961C66.5585 117.916 63.84 117.048 61.5555 115.357C59.271 113.667 57.7404 111.496 56.9637 108.846C57.6947 108.664 58.4029 108.458 59.0883 108.23C59.7279 110.423 61.0072 112.227 62.9262 113.644C64.8451 115.014 67.1067 115.723 69.711 115.768C71.4015 115.768 73.0007 115.426 74.5084 114.74L75.3993 114.398L76.2218 114.74C77.4554 115.243 78.7118 115.563 79.9911 115.7C79.5799 115.197 79.1459 114.58 78.689 113.849L77.9351 112.616L78.826 111.382C80.0597 109.737 80.6765 107.91 80.6765 105.899C80.5851 103.112 79.5114 100.782 77.4554 98.909C75.3993 97.0814 72.8179 96.1219 69.711 96.0306C69.6653 96.0306 69.6425 96.0306 69.6425 96.0306C69.6882 95.665 69.711 95.2995 69.711 94.934C69.711 94.6142 69.6882 94.2944 69.6425 93.9745C69.6425 93.9289 69.6425 93.8832 69.6425 93.8375C69.6425 93.8375 69.6653 93.8375 69.711 93.8375C73.4576 93.9289 76.5644 95.1168 79.0316 97.4012C81.4989 99.64 82.7782 102.473 82.8696 105.899C82.8239 108.458 82.0471 110.72 80.5394 112.684Z" fill="#A0D8A5"/>
<path d="M93.8359 307.663C93.8816 306.43 94.3157 305.402 95.1381 304.579C95.9605 303.757 96.9885 303.323 98.2221 303.277H124.539C125.773 303.323 126.801 303.757 127.623 304.579C128.446 305.402 128.88 306.43 128.925 307.663V325.208C128.88 326.442 128.446 327.47 127.623 328.292C126.801 329.115 125.773 329.549 124.539 329.594H98.2221C96.9885 329.549 95.9605 329.115 95.1381 328.292C94.3157 327.47 93.8816 326.442 93.8359 325.208V307.663ZM96.029 307.663V310.405L109.462 320.205C110.741 321.073 112.02 321.073 113.3 320.205L126.732 310.405V307.663C126.732 307.024 126.527 306.498 126.115 306.087C125.704 305.676 125.179 305.47 124.539 305.47H98.1536C97.5596 305.47 97.057 305.676 96.6458 306.087C96.2346 306.498 96.0062 307.024 95.9605 307.663H96.029ZM96.029 313.146V325.208C96.029 325.848 96.2346 326.373 96.6458 326.784C97.057 327.196 97.5825 327.401 98.2221 327.401H124.539C125.179 327.401 125.704 327.196 126.115 326.784C126.527 326.373 126.732 325.848 126.732 325.208V313.146L114.602 321.987C113.642 322.718 112.569 323.084 111.381 323.084C110.193 323.084 109.119 322.718 108.16 321.987L96.029 313.146Z" fill="#A0D8A5"/>
<defs>
<filter id="filter0_d_1754_7154" x="118.771" y="0.2523" width="244.083" height="414.298" filterUnits="userSpaceOnUse" color-interpolation-filters="sRGB">
<feFlood flood-opacity="0" result="BackgroundImageFix"/>
<feColorMatrix in="SourceAlpha" type="matrix" values="0 0 0 0 0 0 0 0 0 0 0 0 0 0 0 0 0 0 127 0" result="hardAlpha"/>
<feOffset dy="6.42323"/>
<feGaussianBlur stdDeviation="22.4813"/>
<feComposite in2="hardAlpha" operator="out"/>
<feColorMatrix type="matrix" values="0 0 0 0 0 0 0 0 0 0 0 0 0 0 0 0 0 0 0.08 0"/>
<feBlend mode="normal" in2="BackgroundImageFix" result="effect1_dropShadow_1754_7154"/>
<feBlend mode="normal" in="SourceGraphic" in2="effect1_dropShadow_1754_7154" result="shape"/>
</filter>
<filter id="filter1_d_1754_7154" x="82.2118" y="146.285" width="210.536" height="131.585" filterUnits="userSpaceOnUse" color-interpolation-filters="sRGB">
<feFlood flood-opacity="0" result="BackgroundImageFix"/>
<feColorMatrix in="SourceAlpha" type="matrix" values="0 0 0 0 0 0 0 0 0 0 0 0 0 0 0 0 0 0 127 0" result="hardAlpha"/>
<feOffset dy="5.26341"/>
<feGaussianBlur stdDeviation="18.4219"/>
<feComposite in2="hardAlpha" operator="out"/>
<feColorMatrix type="matrix" values="0 0 0 0 0 0 0 0 0 0 0 0 0 0 0 0 0 0 0.08 0"/>
<feBlend mode="normal" in2="BackgroundImageFix" result="effect1_dropShadow_1754_7154"/>
<feBlend mode="normal" in="SourceGraphic" in2="effect1_dropShadow_1754_7154" result="shape"/>
</filter>
<clipPath id="clip0_1754_7154">
<rect x="166.945" y="42.0033" width="147.734" height="317.95" rx="16.4863" fill="white"/>
</clipPath>
</defs>
</svg>
