<svg width="500" height="340" viewBox="0 0 500 340" fill="none" xmlns="http://www.w3.org/2000/svg">
<g clip-path="url(#clip0_1729_8016)">
<path d="M0 20C0 8.9543 8.9543 0 20 0H480C491.046 0 500 8.95431 500 20V320C500 331.046 491.046 340 480 340H20C8.95432 340 0 331.046 0 320V20Z" fill="#C7E1E5"/>
<g opacity="0.2">
<circle cx="240.399" cy="456.613" r="404.8" fill="url(#paint0_radial_1729_8016)"/>
<circle cx="231.674" cy="486.339" r="321.916" fill="url(#paint1_radial_1729_8016)"/>
<ellipse cx="244.268" cy="476.557" rx="204.99" ry="204.25" fill="url(#paint2_radial_1729_8016)"/>
</g>
<path d="M123.958 142C123.958 139.269 121.744 137.054 119.013 137.054C116.281 137.054 114.067 139.269 114.067 142C114.067 144.731 116.281 146.946 119.013 146.946C121.744 146.946 123.958 144.731 123.958 142ZM154.763 141.073H152.528V142.927H154.763V141.073ZM148.06 141.073H143.591V142.927H148.06V141.073ZM139.122 141.073H134.653V142.927H139.122V141.073ZM130.185 141.073H125.716V142.927H130.185V141.073ZM121.247 141.073H119.013V142.927H121.247V141.073Z" fill="#3BB24A"/>
<path d="M383.279 142C383.279 144.731 385.493 146.946 388.225 146.946C390.956 146.946 393.17 144.731 393.17 142C393.17 139.269 390.956 137.054 388.225 137.054C385.493 137.054 383.279 139.269 383.279 142ZM352.475 142.927H354.709V141.073H352.475V142.927ZM359.178 142.927H363.646V141.073H359.178V142.927ZM368.115 142.927H372.584V141.073H368.115V142.927ZM377.053 142.927H381.521V141.073H377.053V142.927ZM385.99 142.927H388.225V141.073H385.99V142.927Z" fill="#3BB24A"/>
<path d="M250 211.255C247.269 211.255 245.054 213.469 245.054 216.201C245.054 218.932 247.269 221.146 250 221.146C252.731 221.146 254.946 218.932 254.946 216.201C254.946 213.469 252.731 211.255 250 211.255ZM249.073 165.509L249.073 168.044L250.927 168.044L250.927 165.509L249.073 165.509ZM249.073 173.113L249.073 178.182L250.927 178.182L250.927 173.113L249.073 173.113ZM249.073 183.251L249.073 188.32L250.927 188.32L250.927 183.251L249.073 183.251ZM249.073 193.39L249.073 198.459L250.927 198.459L250.927 193.39L249.073 193.39ZM249.073 203.528L249.073 208.597L250.927 208.597L250.927 203.528L249.073 203.528ZM249.073 213.666L249.073 216.201L250.927 216.201L250.927 213.666L249.073 213.666Z" fill="#3BB24A"/>
<path d="M42.2555 152.148C41.7815 152.148 41.5107 151.844 41.443 151.234V124.523C41.5107 123.169 41.9847 122.018 42.8649 121.07C43.8128 120.19 44.9638 119.716 46.318 119.648H88.568C89.9222 119.716 91.0732 120.19 92.0211 121.07C92.9013 122.018 93.3753 123.169 93.443 124.523V151.336C93.3753 151.81 93.1045 152.081 92.6305 152.148C92.1565 152.081 91.8857 151.81 91.818 151.336V124.523C91.818 123.643 91.5133 122.865 90.9039 122.188C90.2946 121.578 89.5159 121.273 88.568 121.273H46.318C45.3701 121.273 44.5914 121.578 43.9821 122.188C43.3727 122.865 43.068 123.643 43.068 124.523V151.336C43.0003 151.81 42.7295 152.081 42.2555 152.148ZM98.318 155.398C99.3336 155.534 99.8753 156.076 99.943 157.023V158.648C99.8753 160.477 99.2321 162 98.0133 163.219C96.7946 164.438 95.2711 165.081 93.443 165.148H41.443C39.6149 165.081 38.0914 164.438 36.8727 163.219C35.6539 162 35.0107 160.477 34.943 158.648V157.023C35.0107 156.076 35.5524 155.534 36.568 155.398H98.318ZM98.318 158.648V157.023H36.568V158.648C36.6357 160.003 37.1097 161.154 37.9899 162.102C38.9378 163.049 40.0888 163.523 41.443 163.523H93.443C94.7972 163.523 95.9482 163.049 96.8961 162.102C97.7763 161.154 98.2503 160.003 98.318 158.648Z" fill="#3BB24A"/>
<path d="M227.5 259.551V236.801H273V259.551H227.5ZM229.125 238.426V257.926H271.375V238.426H229.125ZM274.625 230.301C275.979 230.368 277.13 230.842 278.078 231.723C278.958 232.671 279.432 233.822 279.5 235.176V267.676C279.432 269.03 278.958 270.181 278.078 271.129C277.13 272.009 275.979 272.483 274.625 272.551H256.242L258.984 280.676H265.688C266.161 280.743 266.432 281.014 266.5 281.488C266.432 281.962 266.161 282.233 265.688 282.301H234.812C234.339 282.233 234.068 281.962 234 281.488C234.068 281.014 234.339 280.743 234.812 280.676H241.516L244.258 272.551H225.875C224.521 272.483 223.37 272.009 222.422 271.129C221.542 270.181 221.068 269.03 221 267.676V235.176C221.068 233.822 221.542 232.671 222.422 231.723C223.37 230.842 224.521 230.368 225.875 230.301H274.625ZM257.258 280.676L254.516 272.551H245.984L243.242 280.676H257.258ZM277.875 267.676V235.176C277.875 234.228 277.57 233.449 276.961 232.84C276.352 232.23 275.573 231.926 274.625 231.926H225.875C224.927 231.926 224.148 232.23 223.539 232.84C222.93 233.449 222.625 234.228 222.625 235.176V267.676C222.625 268.624 222.93 269.402 223.539 270.012C224.148 270.621 224.927 270.926 225.875 270.926H274.625C275.573 270.926 276.352 270.621 276.961 270.012C277.57 269.402 277.875 268.624 277.875 267.676Z" fill="#3BB24A"/>
<path d="M407.932 168.5C406.578 168.432 405.427 167.958 404.479 167.078C403.599 166.13 403.125 164.979 403.057 163.625V121.375C403.125 120.021 403.599 118.87 404.479 117.922C405.427 117.042 406.578 116.568 407.932 116.5H443.682C445.036 116.568 446.187 117.042 447.135 117.922C448.015 118.87 448.489 120.021 448.557 121.375V163.625C448.489 164.979 448.015 166.13 447.135 167.078C446.187 167.958 445.036 168.432 443.682 168.5H407.932ZM404.682 121.375V163.625C404.682 164.573 404.987 165.352 405.596 165.961C406.205 166.57 406.984 166.875 407.932 166.875H443.682C444.63 166.875 445.409 166.57 446.018 165.961C446.627 165.352 446.932 164.573 446.932 163.625V121.375C446.932 120.427 446.627 119.648 446.018 119.039C445.409 118.43 444.63 118.125 443.682 118.125H407.932C406.984 118.125 406.205 118.43 405.596 119.039C404.987 119.648 404.682 120.427 404.682 121.375ZM420.932 162.812C420.458 162.745 420.187 162.474 420.12 162C420.187 161.526 420.458 161.255 420.932 161.188H430.682C431.156 161.255 431.427 161.526 431.495 162C431.427 162.474 431.156 162.745 430.682 162.812H420.932Z" fill="#3BB24A"/>
<path opacity="0.5" d="M341.239 146.818C342.591 146.818 343.702 147.253 344.571 148.122C345.44 148.991 345.875 150.102 345.875 151.454V170C345.875 171.352 345.44 172.463 344.571 173.332C343.702 174.202 342.591 174.636 341.239 174.636H276.329C274.977 174.636 273.866 174.202 272.996 173.332C272.127 172.463 271.692 171.352 271.692 170V151.454C271.692 150.102 272.127 148.991 272.996 148.122C273.866 147.253 274.977 146.818 276.329 146.818H341.239ZM322.693 164.204C324.818 164.011 325.977 162.852 326.17 160.727C325.977 158.602 324.818 157.443 322.693 157.25C320.568 157.443 319.409 158.602 319.216 160.727C319.409 162.852 320.568 164.011 322.693 164.204ZM331.966 164.204C334.091 164.011 335.25 162.852 335.443 160.727C335.25 158.602 334.091 157.443 331.966 157.25C329.841 157.443 328.682 158.602 328.489 160.727C328.682 162.852 329.841 164.011 331.966 164.204ZM341.239 109.727C342.591 109.727 343.702 110.161 344.571 111.031C345.44 111.9 345.875 113.011 345.875 114.363V132.909C345.875 134.261 345.44 135.372 344.571 136.241C343.702 137.11 342.591 137.545 341.239 137.545H276.329C274.977 137.545 273.866 137.11 272.996 136.241C272.127 135.372 271.692 134.261 271.692 132.909V114.363C271.692 113.011 272.127 111.9 272.996 111.031C273.866 110.161 274.977 109.727 276.329 109.727H341.239ZM322.693 127.113C324.818 126.92 325.977 125.761 326.17 123.636C325.977 121.511 324.818 120.352 322.693 120.158C320.568 120.352 319.409 121.511 319.216 123.636C319.409 125.761 320.568 126.92 322.693 127.113ZM331.966 127.113C334.091 126.92 335.25 125.761 335.443 123.636C335.25 121.511 334.091 120.352 331.966 120.158C329.841 120.352 328.682 121.511 328.489 123.636C328.682 125.761 329.841 126.92 331.966 127.113Z" fill="white"/>
<path opacity="0.5" d="M222.546 146.818C223.899 146.818 225.009 147.253 225.879 148.122C226.748 148.991 227.183 150.102 227.183 151.454V170C227.183 171.352 226.748 172.463 225.879 173.332C225.009 174.202 223.899 174.636 222.546 174.636H157.636C156.284 174.636 155.173 174.202 154.304 173.332C153.435 172.463 153 171.352 153 170V151.454C153 150.102 153.435 148.991 154.304 148.122C155.173 147.253 156.284 146.818 157.636 146.818H222.546ZM204.001 164.204C206.126 164.011 207.285 162.852 207.478 160.727C207.285 158.602 206.126 157.443 204.001 157.25C201.876 157.443 200.716 158.602 200.523 160.727C200.716 162.852 201.876 164.011 204.001 164.204ZM213.273 164.204C215.398 164.011 216.558 162.852 216.751 160.727C216.558 158.602 215.398 157.443 213.273 157.25C211.148 157.443 209.989 158.602 209.796 160.727C209.989 162.852 211.148 164.011 213.273 164.204ZM222.546 109.727C223.899 109.727 225.009 110.161 225.879 111.031C226.748 111.9 227.183 113.011 227.183 114.363V132.909C227.183 134.261 226.748 135.372 225.879 136.241C225.009 137.11 223.899 137.545 222.546 137.545H157.636C156.284 137.545 155.173 137.11 154.304 136.241C153.435 135.372 153 134.261 153 132.909V114.363C153 113.011 153.435 111.9 154.304 111.031C155.173 110.161 156.284 109.727 157.636 109.727H222.546ZM204.001 127.113C206.126 126.92 207.285 125.761 207.478 123.636C207.285 121.511 206.126 120.352 204.001 120.158C201.876 120.352 200.716 121.511 200.523 123.636C200.716 125.761 201.876 126.92 204.001 127.113ZM213.273 127.113C215.398 126.92 216.558 125.761 216.751 123.636C216.558 121.511 215.398 120.352 213.273 120.158C211.148 120.352 209.989 121.511 209.796 123.636C209.989 125.761 211.148 126.92 213.273 127.113Z" fill="white"/>
<path d="M288.137 117.765C289.715 117.765 291.011 118.272 292.025 119.286C293.039 120.3 293.547 121.596 293.547 123.174V144.81C293.547 146.388 293.039 147.684 292.025 148.698C291.011 149.712 289.715 150.22 288.137 150.22H212.409C210.831 150.22 209.536 149.712 208.521 148.698C207.507 147.684 207 146.388 207 144.81V123.174C207 121.596 207.507 120.3 208.521 119.286C209.536 118.272 210.831 117.765 212.409 117.765H288.137ZM266.501 138.049C268.98 137.824 270.332 136.471 270.558 133.992C270.332 131.513 268.98 130.161 266.501 129.935C264.022 130.161 262.669 131.513 262.444 133.992C262.669 136.471 264.022 137.824 266.501 138.049ZM277.319 138.049C279.798 137.824 281.151 136.471 281.376 133.992C281.151 131.513 279.798 130.161 277.319 129.935C274.84 130.161 273.488 131.513 273.262 133.992C273.488 136.471 274.84 137.824 277.319 138.049Z" fill="#0D3F46"/>
<path d="M288.137 156.35C289.715 156.35 291.011 156.857 292.025 157.871C293.039 158.886 293.547 160.182 293.547 161.759V183.396C293.547 184.974 293.039 186.269 292.025 187.284C291.011 188.298 289.715 188.805 288.137 188.805H212.409C210.831 188.805 209.536 188.298 208.521 187.284C207.507 186.269 207 184.974 207 183.396V161.759C207 160.182 207.507 158.886 208.521 157.871C209.536 156.857 210.831 156.35 212.409 156.35H288.137ZM266.501 176.634C268.98 176.409 270.332 175.057 270.558 172.578C270.332 170.098 268.98 168.746 266.501 168.521C264.022 168.746 262.669 170.098 262.444 172.578C262.669 175.057 264.022 176.409 266.501 176.634ZM277.319 176.634C279.798 176.409 281.151 175.057 281.376 172.578C281.151 170.098 279.798 168.746 277.319 168.521C274.84 168.746 273.488 170.098 273.262 172.578C273.488 175.057 274.84 176.409 277.319 176.634Z" fill="white"/>
<path d="M288.137 80C289.715 80 291.011 80.5071 292.025 81.5213C293.039 82.5355 293.547 83.8315 293.547 85.4092V107.046C293.547 108.623 293.039 109.919 292.025 110.934C291.011 111.948 289.715 112.455 288.137 112.455H212.409C210.831 112.455 209.536 111.948 208.521 110.934C207.507 109.919 207 108.623 207 107.046V85.4092C207 83.8315 207.507 82.5355 208.521 81.5213C209.536 80.5071 210.831 80 212.409 80H288.137ZM266.501 100.284C268.98 100.059 270.332 98.7067 270.558 96.2275C270.332 93.7483 268.98 92.396 266.501 92.1706C264.022 92.396 262.669 93.7483 262.444 96.2275C262.669 98.7067 264.022 100.059 266.501 100.284ZM277.319 100.284C279.798 100.059 281.151 98.7067 281.376 96.2275C281.151 93.7483 279.798 92.396 277.319 92.1706C274.84 92.396 273.488 93.7483 273.262 96.2275C273.488 98.7067 274.84 100.059 277.319 100.284Z" fill="#3BB24A"/>
</g>
<defs>
<radialGradient id="paint0_radial_1729_8016" cx="0" cy="0" r="1" gradientUnits="userSpaceOnUse" gradientTransform="translate(241.139 760.412) rotate(-90) scale(708.599)">
<stop offset="0.85" stop-color="white" stop-opacity="0"/>
<stop offset="1" stop-color="white"/>
</radialGradient>
<radialGradient id="paint1_radial_1729_8016" cx="0" cy="0" r="1" gradientUnits="userSpaceOnUse" gradientTransform="translate(232.262 727.934) rotate(-90) scale(563.511)">
<stop offset="0.85" stop-color="white" stop-opacity="0"/>
<stop offset="1" stop-color="white"/>
</radialGradient>
<radialGradient id="paint2_radial_1729_8016" cx="0" cy="0" r="1" gradientUnits="userSpaceOnUse" gradientTransform="translate(244.643 629.846) rotate(-90) scale(357.538 358.833)">
<stop offset="0.85" stop-color="white" stop-opacity="0"/>
<stop offset="1" stop-color="white"/>
</radialGradient>
<clipPath id="clip0_1729_8016">
<path d="M0 20C0 8.9543 8.9543 0 20 0H480C491.046 0 500 8.95431 500 20V320C500 331.046 491.046 340 480 340H20C8.95432 340 0 331.046 0 320V20Z" fill="white"/>
</clipPath>
</defs>
</svg>
