<svg width="500" height="380" viewBox="0 0 500 380" fill="none" xmlns="http://www.w3.org/2000/svg">
<g clip-path="url(#clip0_1729_8039)">
<rect width="500" height="380" rx="20" fill="#E9F2ED"/>
<g opacity="0.7">
<circle cx="70.0193" cy="24.4294" r="404.8" transform="rotate(135 70.0193 24.4294)" fill="url(#paint0_radial_1729_8039)"/>
<circle cx="55.1689" cy="-2.75977" r="321.916" transform="rotate(135 55.1689 -2.75977)" fill="url(#paint1_radial_1729_8039)"/>
<ellipse cx="53.1797" cy="13.0624" rx="204.99" ry="204.25" transform="rotate(135 53.1797 13.0624)" fill="url(#paint2_radial_1729_8039)"/>
</g>
<g filter="url(#filter0_d_1729_8039)">
<g clip-path="url(#clip1_1729_8039)">
<rect x="174.673" y="45" width="134.727" height="289.957" rx="15.0348" fill="white"/>
<path d="M241.936 71.6273C244.352 71.6609 246.517 72.1307 248.43 73.0368C250.376 73.9765 251.92 75.235 253.061 76.8123C254.202 78.3896 254.789 80.1515 254.823 82.0979C254.789 84.0444 254.202 85.8063 253.061 87.3836C251.92 88.9609 250.376 90.2194 248.43 91.1591C246.517 92.0652 244.352 92.535 241.936 92.5686C239.989 92.5686 238.194 92.2498 236.55 91.6121C235.912 92.1491 234.989 92.7028 233.781 93.2734C232.573 93.8439 231.13 94.1459 229.452 94.1795C229.25 94.1795 229.133 94.0956 229.099 93.9278C229.032 93.76 229.049 93.6257 229.15 93.5251C229.25 93.4579 229.636 92.9545 230.307 92.0149C230.979 91.1088 231.516 90.0013 231.918 88.6924C230.072 86.8467 229.116 84.6485 229.049 82.0979C229.082 80.1515 229.67 78.3896 230.811 76.8123C231.952 75.235 233.496 73.9765 235.442 73.0368C237.355 72.1307 239.52 71.6609 241.936 71.6273ZM237.456 83.7088C237.556 82.9034 237.355 82.3329 236.852 81.9973C236.315 81.6617 235.811 81.4435 235.341 81.3429C235.308 81.3429 235.291 81.3429 235.291 81.3429C235.257 81.3093 235.207 81.2925 235.14 81.2925C234.603 81.1583 234.318 80.9905 234.284 80.7891C234.385 80.5206 234.754 80.4367 235.392 80.5374C235.593 80.571 235.811 80.6213 236.046 80.6884C236.516 80.8227 236.852 80.6549 237.053 80.185C237.187 79.7152 237.019 79.3796 236.55 79.1782C236.247 79.0776 235.945 78.9937 235.643 78.9265C234.838 78.8259 234.184 78.9098 233.68 79.1782C233.143 79.4467 232.824 79.883 232.724 80.4871C232.623 81.2925 232.824 81.863 233.328 82.1986C233.831 82.5342 234.267 82.7356 234.637 82.8027C234.737 82.8363 234.821 82.853 234.888 82.853C235.526 82.9873 235.862 83.1719 235.895 83.4068C235.794 83.6753 235.425 83.7592 234.788 83.6585C234.519 83.6249 234.217 83.541 233.881 83.4068C233.848 83.3732 233.798 83.3564 233.73 83.3564C233.294 83.2222 232.975 83.39 232.774 83.8598C232.673 84.3632 232.875 84.7156 233.378 84.917C233.747 85.0848 234.133 85.2022 234.536 85.2693C234.737 85.3029 234.939 85.3197 235.14 85.3197C236.482 85.2526 237.254 84.7156 237.456 83.7088ZM245.158 84.5143V79.6816C245.124 79.3125 244.939 79.0608 244.604 78.9265C244.235 78.8259 243.933 78.9098 243.698 79.1782L241.936 81.5442L240.174 79.1782C239.939 78.9098 239.637 78.8259 239.268 78.9265C238.932 79.0943 238.748 79.346 238.714 79.6816V84.5143C238.748 85.0177 239.016 85.2861 239.52 85.3197C240.023 85.2861 240.291 85.0177 240.325 84.5143V82.0979L241.281 83.4068C241.449 83.6081 241.667 83.7088 241.936 83.7088C242.204 83.7088 242.422 83.6081 242.59 83.4068L243.547 82.0979V84.5143C243.58 85.0177 243.849 85.2861 244.352 85.3197C244.856 85.2861 245.124 85.0177 245.158 84.5143ZM251.148 83.7088C251.249 82.9034 251.047 82.3329 250.544 81.9973C250.007 81.6617 249.504 81.4435 249.034 81.3429C249 81.3429 248.983 81.3429 248.983 81.3429C248.95 81.3093 248.9 81.2925 248.832 81.2925C248.295 81.1583 247.993 80.9905 247.926 80.7891C248.027 80.5206 248.396 80.4367 249.034 80.5374C249.235 80.571 249.453 80.6213 249.688 80.6884C250.158 80.8227 250.494 80.6549 250.695 80.185C250.829 79.7152 250.661 79.3796 250.192 79.1782C249.89 79.0776 249.587 78.9937 249.285 78.9265C248.48 78.8259 247.826 78.9098 247.322 79.1782C246.785 79.4467 246.466 79.883 246.366 80.4871C246.265 81.2925 246.466 81.863 246.97 82.1986C247.473 82.5342 247.909 82.7356 248.279 82.8027C248.379 82.8363 248.463 82.853 248.53 82.853C249.168 82.9873 249.504 83.1719 249.537 83.4068C249.436 83.6753 249.067 83.7592 248.43 83.6585C248.161 83.6249 247.859 83.541 247.524 83.4068C247.49 83.3732 247.456 83.3564 247.423 83.3564C246.953 83.2558 246.634 83.4236 246.466 83.8598C246.366 84.3632 246.55 84.7156 247.02 84.917C247.389 85.0848 247.792 85.2022 248.228 85.2693C248.43 85.3029 248.631 85.3197 248.832 85.3197C250.175 85.2526 250.947 84.7156 251.148 83.7088Z" fill="#3BB24A"/>
<rect x="204.449" y="106.213" width="75.1739" height="8.59131" rx="4.29565" fill="#E5E5E5"/>
<g opacity="0.7">
<rect x="283.29" y="51.2463" width="1.04106" height="3.47021" rx="0.520531" fill="#757575"/>
<rect x="281.555" y="51.9404" width="1.04106" height="2.77617" rx="0.520531" fill="#757575"/>
<rect x="279.82" y="52.6343" width="1.04106" height="2.08212" rx="0.520531" fill="#757575"/>
<rect x="278.085" y="53.3286" width="1.04106" height="1.38808" rx="0.520531" fill="#757575"/>
<path opacity="0.35" d="M295.552 52.9816C295.552 51.9914 296.354 51.1886 297.345 51.1886H301.046C302.036 51.1886 302.839 51.9914 302.839 52.9816C302.839 53.9718 302.036 54.7745 301.046 54.7745H297.344C296.354 54.7745 295.552 53.9718 295.552 52.9816Z" stroke="#757575" stroke-width="0.347021"/>
<path opacity="0.4" d="M303.359 52.2874V53.6754C303.639 53.5579 303.82 53.2844 303.82 52.9814C303.82 52.6784 303.639 52.4049 303.359 52.2874Z" fill="#757575"/>
<path d="M296.072 52.9814C296.072 52.2787 296.642 51.709 297.345 51.709H301.046C301.749 51.709 302.319 52.2787 302.319 52.9814C302.319 53.6841 301.749 54.2538 301.046 54.2538H297.345C296.642 54.2538 296.072 53.6841 296.072 52.9814Z" fill="#757575"/>
<path d="M186.794 54.525L187.577 53.1914C187.385 53.2029 187.202 53.1771 187.027 53.114C186.854 53.0509 186.7 52.9572 186.564 52.8329C186.428 52.7086 186.32 52.5614 186.241 52.3912C186.163 52.2211 186.124 52.0366 186.124 51.8377C186.124 51.6446 186.161 51.4639 186.235 51.2957C186.309 51.1255 186.411 50.9764 186.541 50.8483C186.673 50.7183 186.824 50.6169 186.995 50.5443C187.168 50.4716 187.353 50.4353 187.551 50.4353C187.809 50.4353 188.045 50.4984 188.258 50.6246C188.474 50.7508 188.646 50.92 188.774 51.1322C188.904 51.3444 188.969 51.5796 188.969 51.8377C188.969 51.9658 188.952 52.0872 188.919 52.202C188.888 52.3148 188.839 52.4295 188.771 52.5461L187.615 54.525H186.794ZM187.545 52.5404C187.685 52.5404 187.808 52.5069 187.915 52.44C188.024 52.3731 188.108 52.2861 188.168 52.179C188.228 52.0719 188.258 51.9572 188.258 51.8349C188.258 51.701 188.225 51.5815 188.159 51.4764C188.093 51.3693 188.006 51.2861 187.897 51.2269C187.789 51.1657 187.673 51.1351 187.551 51.1351C187.411 51.1351 187.287 51.1685 187.178 51.2355C187.072 51.3005 186.987 51.3865 186.925 51.4936C186.863 51.6006 186.832 51.7144 186.832 51.8349C186.832 51.963 186.863 52.0805 186.925 52.1876C186.989 52.2947 187.074 52.3807 187.181 52.4457C187.29 52.5088 187.411 52.5404 187.545 52.5404Z" fill="#757575"/>
<path d="M189.696 52.3769C189.595 52.3769 189.508 52.3425 189.437 52.2737C189.367 52.2029 189.332 52.1169 189.332 52.0155C189.332 51.918 189.367 51.8339 189.437 51.7632C189.508 51.6924 189.595 51.657 189.696 51.657C189.797 51.657 189.883 51.6924 189.955 51.7632C190.027 51.8339 190.063 51.918 190.063 52.0155C190.063 52.1169 190.027 52.2029 189.955 52.2737C189.883 52.3425 189.797 52.3769 189.696 52.3769ZM189.696 54.5996C189.595 54.5996 189.508 54.5651 189.437 54.4963C189.367 54.4256 189.332 54.3395 189.332 54.2382C189.332 54.1407 189.367 54.0566 189.437 53.9858C189.508 53.9151 189.595 53.8797 189.696 53.8797C189.797 53.8797 189.883 53.9151 189.955 53.9858C190.027 54.0566 190.063 54.1407 190.063 54.2382C190.063 54.3395 190.027 54.4256 189.955 54.4963C189.883 54.5651 189.797 54.5996 189.696 54.5996Z" fill="#757575"/>
<path d="M192.334 54.525V53.5528H190.599V52.8501L192.168 50.5099H193.044V52.853H193.388V53.5528H193.044V54.525H192.334ZM191.423 52.8501L192.334 52.853L192.331 51.4649L191.423 52.8501Z" fill="#757575"/>
<path d="M194.437 54.525V51.2096H193.924L194.116 50.5099H195.147V54.525H194.437Z" fill="#757575"/>
<path d="M289.74 54.2258C289.87 54.0956 290.047 54.0225 290.231 54.0225C290.415 54.0225 290.591 54.0956 290.721 54.2258M288.758 53.2443C288.952 53.0509 289.181 52.8975 289.434 52.7929C289.686 52.6883 289.957 52.6344 290.231 52.6344C290.504 52.6344 290.775 52.6883 291.027 52.7929C291.28 52.8975 291.51 53.0509 291.703 53.2443M287.777 52.2627C288.099 51.9405 288.482 51.6849 288.903 51.5105C289.324 51.3361 289.775 51.2463 290.231 51.2463C290.686 51.2463 291.138 51.3361 291.559 51.5105C291.98 51.6849 292.362 51.9405 292.684 52.2627" stroke="#757575" stroke-width="0.694041"/>
</g>
</g>
<rect x="173.208" y="43.5356" width="137.656" height="292.885" rx="16.4992" stroke="#0D3F46" stroke-width="2.92885"/>
</g>
<path d="M197 117.3C197 109.347 203.447 102.9 211.4 102.9H355.4C363.353 102.9 369.8 109.347 369.8 117.3V153.3C369.8 154.625 368.725 155.7 367.4 155.7H211.4C203.447 155.7 197 149.253 197 141.3V117.3Z" fill="#C7E1E5"/>
<rect x="221" y="114.9" width="124.8" height="9.6" rx="4.8" fill="#3BB24A"/>
<rect x="221" y="134.1" width="88.8" height="9.6" rx="4.8" fill="#3BB24A"/>
<path d="M249 245.7C249 237.747 255.447 231.3 263.4 231.3H328.2C336.153 231.3 342.6 237.747 342.6 245.7V281.7C342.6 283.026 341.525 284.1 340.2 284.1H263.4C255.447 284.1 249 277.653 249 269.7V245.7Z" fill="#C7E1E5"/>
<rect x="273" y="243.3" width="34.8" height="9.6" rx="4.8" fill="#3BB24A"/>
<rect x="273" y="262.5" width="51.6" height="9.6" rx="4.8" fill="#3BB24A"/>
<g filter="url(#filter1_d_1729_8039)">
<path d="M131 183.3C131 175.347 137.447 168.9 145.4 168.9H241.4C249.353 168.9 255.8 175.347 255.8 183.3V207.3C255.8 215.253 249.353 221.7 241.4 221.7H133.4C132.075 221.7 131 220.625 131 219.3V183.3Z" fill="white" shape-rendering="crispEdges"/>
<rect x="155" y="180.9" width="76.8" height="9.6" rx="4.8" fill="#D1D1D1"/>
<rect x="176.6" y="200.1" width="55.2" height="9.6" rx="4.8" fill="#D1D1D1"/>
</g>
<path d="M426 159C422.042 159.083 418.75 160.167 416.125 162.25C413.458 164.292 412.083 166.875 412 170C412.042 172.375 412.958 174.542 414.75 176.5C415.292 177.167 415.437 177.854 415.187 178.562V178.625C414.812 179.542 414.375 180.375 413.875 181.125C413.417 181.875 413 182.479 412.625 182.937C414 182.771 415.25 182.458 416.375 182C417.458 181.5 418.354 181 419.062 180.5C419.604 180.125 420.187 180.021 420.812 180.187C422.479 180.729 424.208 181 426 181C429.958 180.917 433.25 179.833 435.875 177.75C438.5 175.708 439.854 173.125 439.937 170C439.854 166.875 438.5 164.292 435.875 162.25C433.25 160.167 429.958 159.083 426 159ZM426 157C428.958 157.042 431.646 157.625 434.062 158.75C436.437 159.917 438.333 161.479 439.75 163.437C441.167 165.396 441.896 167.583 441.937 170C441.896 172.417 441.167 174.604 439.75 176.562C438.333 178.521 436.437 180.083 434.062 181.25C431.646 182.375 428.958 182.958 426 183C423.958 183 422.021 182.708 420.187 182.125C419.229 182.792 418.021 183.437 416.562 184.062C415.104 184.646 413.417 184.958 411.5 185C410.875 184.958 410.417 184.646 410.125 184.062C409.875 183.479 409.979 182.937 410.437 182.437C410.479 182.396 410.833 181.937 411.5 181.062C412.167 180.229 412.771 179.167 413.312 177.875C411.187 175.667 410.083 173.042 410 170C410.042 167.583 410.771 165.396 412.187 163.437C413.604 161.479 415.521 159.917 417.937 158.75C420.354 157.625 423.042 157.042 426 157Z" fill="#A0D8A5"/>
<path d="M84 93C83.9167 96.125 82.6458 98.7083 80.1875 100.75C77.7292 102.833 74.6667 103.917 71 104C69.7083 104 68.5 103.854 67.375 103.562C66.4583 104.146 65.3333 104.687 64 105.187C62.6667 105.687 61.1667 105.958 59.5 106C58.875 105.958 58.4167 105.667 58.125 105.125C57.9167 104.5 58 103.958 58.375 103.5C58.4583 103.458 58.75 103.104 59.25 102.437C59.7917 101.729 60.3125 100.875 60.8125 99.875C58.9792 97.9167 58.0417 95.625 58 93C58.0833 89.875 59.3542 87.2917 61.8125 85.25C64.2708 83.1667 67.3333 82.0833 71 82C74.6667 82.0833 77.7292 83.1667 80.1875 85.25C82.6458 87.2917 83.9167 89.875 84 93ZM71 102C74.125 101.917 76.7083 101.042 78.75 99.375C80.8333 97.6667 81.9167 95.5417 82 93C81.9167 90.4583 80.8542 88.3333 78.8125 86.625C76.7292 84.9583 74.125 84.0833 71 84C67.875 84.0833 65.2708 84.9583 63.1875 86.625C61.1458 88.3333 60.0833 90.4583 60 93C60 95.0417 60.7708 96.875 62.3125 98.5L63.25 99.5L62.625 100.687C61.9583 102.062 61.2917 103.146 60.625 103.937C61.8333 103.812 62.9167 103.542 63.875 103.125C64.8333 102.75 65.625 102.333 66.25 101.875L67 101.375L67.8125 101.625C68.8542 101.875 69.9167 102 71 102ZM95.875 109.187C96.2917 109.854 96.6667 110.375 97 110.75C97.3333 111.167 97.5208 111.417 97.5625 111.5C97.9792 111.958 98.0833 112.5 97.875 113.125C97.5833 113.667 97.125 113.958 96.5 114C94.4583 113.958 92.6875 113.583 91.1875 112.875C89.6042 113.625 87.875 114 86 114C83.125 113.958 80.6458 113.167 78.5625 111.625C76.4792 110.083 75.0833 108.104 74.375 105.687C75.0417 105.521 75.6875 105.333 76.3125 105.125C76.8958 107.125 78.0625 108.771 79.8125 110.062C81.5625 111.312 83.625 111.958 86 112C87.5417 112 89 111.687 90.375 111.062L91.1875 110.75L91.9375 111.062C93.0625 111.521 94.2083 111.812 95.375 111.937C95 111.479 94.6042 110.917 94.1875 110.25L93.5 109.125L94.3125 108C95.4375 106.5 96 104.833 96 103C95.9167 100.458 94.9375 98.3333 93.0625 96.625C91.1875 94.9583 88.8333 94.0833 86 94C85.9583 94 85.9375 94 85.9375 94C85.9792 93.6667 86 93.3333 86 93C86 92.7083 85.9792 92.4167 85.9375 92.125C85.9375 92.0833 85.9375 92.0417 85.9375 92C85.9375 92 85.9583 92 86 92C89.4167 92.0833 92.25 93.1667 94.5 95.25C96.75 97.2917 97.9167 99.875 98 103C97.9583 105.333 97.25 107.396 95.875 109.187Z" fill="#A0D8A5"/>
<path d="M108 287C108.042 285.875 108.437 284.937 109.187 284.187C109.937 283.437 110.875 283.042 112 283H136C137.125 283.042 138.062 283.437 138.812 284.187C139.562 284.937 139.958 285.875 140 287V303C139.958 304.125 139.562 305.062 138.812 305.812C138.062 306.562 137.125 306.958 136 307H112C110.875 306.958 109.937 306.562 109.187 305.812C108.437 305.062 108.042 304.125 108 303V287ZM110 287V289.5L122.25 298.437C123.417 299.229 124.583 299.229 125.75 298.437L138 289.5V287C138 286.417 137.812 285.937 137.437 285.562C137.062 285.187 136.583 285 136 285H111.937C111.396 285 110.937 285.187 110.562 285.562C110.187 285.937 109.979 286.417 109.937 287H110ZM110 292V303C110 303.583 110.187 304.062 110.562 304.437C110.937 304.812 111.417 305 112 305H136C136.583 305 137.062 304.812 137.437 304.437C137.812 304.062 138 303.583 138 303V292L126.937 300.062C126.062 300.729 125.083 301.062 124 301.062C122.917 301.062 121.937 300.729 121.062 300.062L110 292Z" fill="#A0D8A5"/>
</g>
<defs>
<filter id="filter0_d_1729_8039" x="130.74" y="6.9248" width="222.593" height="377.822" filterUnits="userSpaceOnUse" color-interpolation-filters="sRGB">
<feFlood flood-opacity="0" result="BackgroundImageFix"/>
<feColorMatrix in="SourceAlpha" type="matrix" values="0 0 0 0 0 0 0 0 0 0 0 0 0 0 0 0 0 0 127 0" result="hardAlpha"/>
<feOffset dy="5.85771"/>
<feGaussianBlur stdDeviation="20.502"/>
<feComposite in2="hardAlpha" operator="out"/>
<feColorMatrix type="matrix" values="0 0 0 0 0 0 0 0 0 0 0 0 0 0 0 0 0 0 0.08 0"/>
<feBlend mode="normal" in2="BackgroundImageFix" result="effect1_dropShadow_1729_8039"/>
<feBlend mode="normal" in="SourceGraphic" in2="effect1_dropShadow_1729_8039" result="shape"/>
</filter>
<filter id="filter1_d_1729_8039" x="97.4" y="140.1" width="192" height="120" filterUnits="userSpaceOnUse" color-interpolation-filters="sRGB">
<feFlood flood-opacity="0" result="BackgroundImageFix"/>
<feColorMatrix in="SourceAlpha" type="matrix" values="0 0 0 0 0 0 0 0 0 0 0 0 0 0 0 0 0 0 127 0" result="hardAlpha"/>
<feOffset dy="4.8"/>
<feGaussianBlur stdDeviation="16.8"/>
<feComposite in2="hardAlpha" operator="out"/>
<feColorMatrix type="matrix" values="0 0 0 0 0 0 0 0 0 0 0 0 0 0 0 0 0 0 0.08 0"/>
<feBlend mode="normal" in2="BackgroundImageFix" result="effect1_dropShadow_1729_8039"/>
<feBlend mode="normal" in="SourceGraphic" in2="effect1_dropShadow_1729_8039" result="shape"/>
</filter>
<radialGradient id="paint0_radial_1729_8039" cx="0" cy="0" r="1" gradientUnits="userSpaceOnUse" gradientTransform="translate(70.7593 328.229) rotate(-90) scale(708.599)">
<stop offset="0.85" stop-color="white" stop-opacity="0"/>
<stop offset="1" stop-color="white"/>
</radialGradient>
<radialGradient id="paint1_radial_1729_8039" cx="0" cy="0" r="1" gradientUnits="userSpaceOnUse" gradientTransform="translate(55.7574 238.836) rotate(-90) scale(563.511)">
<stop offset="0.85" stop-color="white" stop-opacity="0"/>
<stop offset="1" stop-color="white"/>
</radialGradient>
<radialGradient id="paint2_radial_1729_8039" cx="0" cy="0" r="1" gradientUnits="userSpaceOnUse" gradientTransform="translate(53.5545 166.35) rotate(-90) scale(357.538 358.833)">
<stop offset="0.85" stop-color="white" stop-opacity="0"/>
<stop offset="1" stop-color="white"/>
</radialGradient>
<clipPath id="clip0_1729_8039">
<rect width="500" height="380" rx="20" fill="white"/>
</clipPath>
<clipPath id="clip1_1729_8039">
<rect x="174.673" y="45" width="134.727" height="289.957" rx="15.0348" fill="white"/>
</clipPath>
</defs>
</svg>
