<svg width="408" height="287" viewBox="0 0 408 287" fill="none" xmlns="http://www.w3.org/2000/svg">
<g filter="url(#filter0_d_3001_5945)">
<rect x="143" y="81" width="220" height="178" rx="12" fill="white" shape-rendering="crispEdges"/>
<rect x="143.423" y="81.4231" width="219.154" height="177.154" rx="11.5769" stroke="#E5E5E5" stroke-width="0.846154" shape-rendering="crispEdges"/>
<g clip-path="url(#clip0_3001_5945)">
<path d="M167.999 228.468C164.253 214.49 164.013 199.804 167.299 185.711C170.585 171.617 177.295 158.552 186.837 147.671C196.378 136.791 208.455 128.432 221.999 123.334C235.543 118.236 250.135 116.556 264.482 118.445" stroke="#A0D8A5" stroke-width="10.1538" stroke-linecap="square"/>
<path d="M273.236 120.05C287.147 123.337 300.047 129.963 310.822 139.356C321.598 148.748 329.923 160.623 335.078 173.955" stroke="#81D4FA" stroke-width="10.1538" stroke-linecap="square"/>
<path d="M336.879 179.079C341.39 193.295 342.213 208.424 339.272 223.045" stroke="#FFAB91" stroke-width="10.1538" stroke-linecap="square"/>
</g>
<path d="M220.904 201.137C219.166 201.137 217.634 200.839 216.306 200.243C214.978 199.635 213.929 198.754 213.16 197.6C212.403 196.446 212.006 195.043 211.968 193.393H216.436C216.436 194.634 216.864 195.564 217.72 196.185C218.577 196.805 219.638 197.116 220.904 197.116C222.256 197.116 223.361 196.681 224.217 195.813C225.086 194.931 225.52 193.852 225.52 192.574C225.52 190.091 223.857 188.85 220.531 188.85H213.16L214.277 176.453H228.759V180.474H217.814L218.67 179.208L217.962 186.393L217.59 185.984C218.186 185.847 218.893 185.748 219.712 185.686C220.531 185.611 221.239 185.574 221.834 185.574C224.329 185.574 226.315 186.182 227.791 187.398C229.281 188.602 230.025 190.327 230.025 192.574C230.025 194.174 229.647 195.626 228.89 196.93C228.133 198.22 227.072 199.244 225.706 200.001C224.341 200.758 222.74 201.137 220.904 201.137ZM242.015 201.137C239.992 201.137 238.211 200.609 236.672 199.554C235.133 198.499 233.929 197.06 233.061 195.236C232.204 193.399 231.776 191.308 231.776 188.962C231.776 186.195 232.211 183.843 233.079 181.907C233.948 179.971 235.164 178.5 236.728 177.495C238.304 176.477 240.141 175.969 242.238 175.969C243.839 175.969 245.254 176.266 246.482 176.862C247.711 177.445 248.679 178.271 249.386 179.338C250.094 180.405 250.478 181.652 250.541 183.08H245.849C245.713 182.112 245.365 181.348 244.807 180.79C244.249 180.232 243.442 179.952 242.387 179.952C240.476 179.952 238.962 180.796 237.845 182.484C236.728 184.159 236.169 186.443 236.169 189.334C236.169 189.707 236.176 190.11 236.188 190.544C236.213 190.979 236.256 191.395 236.318 191.792C236.517 190.265 236.951 189.068 237.621 188.199C238.304 187.33 239.123 186.716 240.079 186.356C241.034 185.984 242.04 185.798 243.094 185.798C244.608 185.798 245.943 186.126 247.097 186.784C248.251 187.442 249.157 188.348 249.815 189.502C250.472 190.656 250.801 191.978 250.801 193.467C250.801 194.994 250.429 196.334 249.684 197.488C248.952 198.642 247.922 199.542 246.594 200.187C245.279 200.82 243.752 201.137 242.015 201.137ZM242.015 197.116C243.181 197.116 244.18 196.768 245.012 196.073C245.843 195.366 246.259 194.435 246.259 193.281C246.259 192.077 245.843 191.134 245.012 190.451C244.18 189.756 243.181 189.409 242.015 189.409C241.245 189.409 240.544 189.57 239.911 189.893C239.291 190.216 238.788 190.669 238.403 191.252C238.031 191.835 237.845 192.511 237.845 193.281C237.845 194.435 238.248 195.366 239.055 196.073C239.874 196.768 240.861 197.116 242.015 197.116Z" fill="#121212"/>
<path d="M271.038 185.769V190.212C271.038 190.397 270.979 190.549 270.86 190.668C270.741 190.787 270.589 190.846 270.404 190.846C270.219 190.846 270.067 190.787 269.948 190.668C269.829 190.549 269.769 190.397 269.769 190.212V187.296L265.783 191.302C265.651 191.421 265.499 191.481 265.327 191.481C265.155 191.481 265.003 191.421 264.871 191.302C264.752 191.17 264.692 191.018 264.692 190.846C264.692 190.674 264.752 190.522 264.871 190.39L268.877 186.404H265.961C265.776 186.404 265.624 186.344 265.505 186.225C265.386 186.106 265.327 185.954 265.327 185.769C265.327 185.584 265.386 185.432 265.505 185.313C265.624 185.194 265.776 185.135 265.961 185.135H270.404C270.589 185.135 270.741 185.194 270.86 185.313C270.979 185.432 271.038 185.584 271.038 185.769Z" fill="#3BB24A"/>
<path d="M275.8 191.615V190.36C275.8 189.929 275.865 189.566 275.995 189.27C276.129 188.97 276.325 188.719 276.581 188.518C276.842 188.316 277.162 188.142 277.541 187.996L279.087 187.398C279.438 187.256 279.699 187.078 279.869 186.865C280.042 186.652 280.129 186.389 280.129 186.077C280.129 185.757 280.015 185.491 279.786 185.278C279.557 185.064 279.235 184.958 278.82 184.958C278.41 184.958 278.07 185.055 277.802 185.248C277.533 185.442 277.379 185.726 277.34 186.101H275.93C275.95 185.603 276.084 185.187 276.333 184.851C276.585 184.516 276.923 184.265 277.345 184.099C277.772 183.933 278.256 183.85 278.797 183.85C279.306 183.85 279.764 183.947 280.171 184.14C280.577 184.33 280.899 184.597 281.136 184.94C281.377 185.284 281.498 185.682 281.498 186.137C281.498 186.527 281.424 186.871 281.278 187.167C281.136 187.463 280.923 187.722 280.639 187.943C280.354 188.16 280.001 188.352 279.578 188.518L278.015 189.134C277.691 189.26 277.452 189.404 277.298 189.566C277.144 189.724 277.067 189.933 277.067 190.194V190.454H281.444V191.615H275.8ZM283.075 191.615L288.228 183.998H289.513L284.366 191.615H283.075ZM288.495 191.74C288.218 191.74 287.958 191.675 287.713 191.544C287.472 191.414 287.278 191.219 287.132 190.958C286.986 190.693 286.913 190.364 286.913 189.969C286.913 189.574 286.986 189.246 287.132 188.986C287.278 188.721 287.472 188.524 287.713 188.393C287.958 188.263 288.218 188.198 288.495 188.198C288.779 188.198 289.043 188.263 289.288 188.393C289.533 188.524 289.729 188.721 289.875 188.986C290.025 189.246 290.1 189.574 290.1 189.969C290.1 190.364 290.025 190.693 289.875 190.958C289.729 191.219 289.533 191.414 289.288 191.544C289.043 191.675 288.779 191.74 288.495 191.74ZM288.495 190.916C288.684 190.916 288.836 190.843 288.951 190.697C289.069 190.551 289.128 190.308 289.128 189.969C289.128 189.629 289.069 189.386 288.951 189.24C288.836 189.09 288.684 189.015 288.495 189.015C288.305 189.015 288.153 189.09 288.038 189.24C287.924 189.386 287.867 189.629 287.867 189.969C287.867 190.308 287.924 190.551 288.038 190.697C288.153 190.843 288.305 190.916 288.495 190.916ZM284.106 187.38C283.829 187.38 283.57 187.315 283.33 187.185C283.089 187.055 282.893 186.859 282.743 186.599C282.597 186.334 282.524 186.004 282.524 185.609C282.524 185.218 282.597 184.893 282.743 184.632C282.893 184.371 283.089 184.176 283.33 184.046C283.57 183.915 283.829 183.85 284.106 183.85C284.394 183.85 284.658 183.915 284.899 184.046C285.144 184.176 285.34 184.371 285.486 184.632C285.636 184.893 285.711 185.218 285.711 185.609C285.711 186.004 285.636 186.334 285.486 186.599C285.34 186.859 285.144 187.055 284.899 187.185C284.658 187.315 284.394 187.38 284.106 187.38ZM284.106 186.563C284.291 186.563 284.443 186.49 284.562 186.344C284.68 186.198 284.739 185.953 284.739 185.609C284.739 185.274 284.68 185.033 284.562 184.887C284.443 184.737 284.291 184.662 284.106 184.662C283.92 184.662 283.77 184.737 283.655 184.887C283.541 185.033 283.484 185.274 283.484 185.609C283.484 185.953 283.541 186.198 283.655 186.344C283.77 186.49 283.92 186.563 284.106 186.563Z" fill="#3BB24A"/>
<path d="M222.39 217.156V215.91H229.315V217.156H226.248L226.573 216.824V224.615H225.124V216.824L225.449 217.156H222.39ZM231.603 224.798C231.012 224.798 230.477 224.67 229.999 224.412C229.525 224.155 229.148 223.771 228.868 223.262C228.589 222.752 228.449 222.115 228.449 221.353C228.449 220.576 228.589 219.933 228.868 219.423C229.148 218.913 229.525 218.532 229.999 218.279C230.477 218.022 231.012 217.894 231.603 217.894C232.194 217.894 232.725 218.022 233.194 218.279C233.668 218.532 234.042 218.913 234.318 219.423C234.597 219.933 234.737 220.576 234.737 221.353C234.737 222.115 234.597 222.752 234.318 223.262C234.042 223.771 233.668 224.155 233.194 224.412C232.725 224.67 232.194 224.798 231.603 224.798ZM231.563 223.532C231.906 223.532 232.206 223.449 232.463 223.282C232.725 223.115 232.928 222.869 233.072 222.544C233.217 222.219 233.289 221.822 233.289 221.353C233.289 220.635 233.144 220.089 232.855 219.714C232.571 219.335 232.17 219.146 231.651 219.146C231.303 219.146 230.998 219.229 230.737 219.396C230.479 219.563 230.279 219.811 230.134 220.141C229.99 220.47 229.918 220.874 229.918 221.353C229.918 222.057 230.062 222.596 230.351 222.97C230.64 223.345 231.044 223.532 231.563 223.532ZM238.427 224.798C238.048 224.798 237.703 224.728 237.391 224.588C237.085 224.444 236.839 224.227 236.654 223.938C236.469 223.645 236.376 223.277 236.376 222.835V216.316H237.818V222.788C237.818 223.361 238.091 223.647 238.637 223.647C238.804 223.647 238.969 223.629 239.131 223.593C239.294 223.557 239.476 223.501 239.679 223.424L239.889 224.446C239.646 224.545 239.404 224.629 239.165 224.697C238.93 224.764 238.684 224.798 238.427 224.798ZM235.422 219.044V218.076H239.679V219.044H235.422ZM245.273 224.615L245.09 223.065V220.391C245.09 219.895 244.989 219.532 244.786 219.302C244.582 219.071 244.251 218.956 243.79 218.956C243.524 218.956 243.292 218.995 243.093 219.071C242.895 219.148 242.739 219.263 242.626 219.417C242.518 219.566 242.464 219.751 242.464 219.972H240.873C240.873 219.48 240.99 219.083 241.225 218.78C241.464 218.473 241.8 218.25 242.234 218.11C242.671 217.966 243.19 217.894 243.79 217.894C244.336 217.894 244.815 217.984 245.226 218.164C245.641 218.34 245.963 218.616 246.194 218.99C246.424 219.365 246.539 219.848 246.539 220.439V224.615H245.273ZM243.107 224.798C242.552 224.798 242.089 224.701 241.719 224.507C241.354 224.313 241.078 224.058 240.893 223.742C240.708 223.426 240.616 223.086 240.616 222.72C240.616 222.3 240.724 221.951 240.941 221.671C241.162 221.391 241.469 221.183 241.861 221.048C242.258 220.908 242.721 220.838 243.249 220.838C243.601 220.838 243.937 220.867 244.258 220.926C244.582 220.98 244.905 221.057 245.226 221.156V222.016C244.968 221.926 244.686 221.856 244.379 221.806C244.077 221.756 243.793 221.732 243.526 221.732C243.134 221.732 242.807 221.808 242.545 221.962C242.288 222.111 242.159 222.363 242.159 222.72C242.159 222.986 242.263 223.214 242.47 223.404C242.678 223.593 243.007 223.688 243.459 223.688C243.793 223.688 244.082 223.614 244.325 223.465C244.569 223.311 244.756 223.122 244.887 222.896C245.022 222.67 245.09 222.447 245.09 222.226H245.435C245.435 222.686 245.345 223.113 245.165 223.505C244.989 223.893 244.727 224.207 244.379 224.446C244.036 224.681 243.612 224.798 243.107 224.798ZM248.518 224.615V215.342H249.967V224.615H248.518ZM258.237 224.798C257.474 224.798 256.811 224.613 256.247 224.243C255.683 223.873 255.245 223.347 254.934 222.666C254.627 221.984 254.473 221.172 254.473 220.229C254.473 219.25 254.636 218.428 254.961 217.765C255.286 217.097 255.732 216.594 256.301 216.255C256.87 215.912 257.515 215.741 258.237 215.741C259.23 215.741 260.01 215.985 260.579 216.472C261.152 216.955 261.525 217.582 261.696 218.354L260.146 218.645C259.997 218.167 259.758 217.781 259.428 217.487C259.103 217.194 258.706 217.047 258.237 217.047C257.831 217.047 257.461 217.167 257.127 217.406C256.793 217.641 256.527 217.995 256.328 218.469C256.134 218.938 256.037 219.525 256.037 220.229C256.037 220.888 256.12 221.461 256.287 221.948C256.459 222.431 256.707 222.806 257.032 223.072C257.361 223.338 257.763 223.471 258.237 223.471C258.837 223.471 259.304 223.311 259.638 222.991C259.977 222.67 260.146 222.26 260.146 221.759H261.703C261.703 222.4 261.561 222.946 261.276 223.397C260.997 223.848 260.597 224.196 260.078 224.439C259.564 224.679 258.95 224.798 258.237 224.798ZM267.341 224.615L267.158 223.065V220.391C267.158 219.895 267.056 219.532 266.853 219.302C266.65 219.071 266.318 218.956 265.858 218.956C265.592 218.956 265.359 218.995 265.161 219.071C264.962 219.148 264.807 219.263 264.694 219.417C264.586 219.566 264.531 219.751 264.531 219.972H262.941C262.941 219.48 263.058 219.083 263.293 218.78C263.532 218.473 263.868 218.25 264.301 218.11C264.739 217.966 265.258 217.894 265.858 217.894C266.404 217.894 266.883 217.984 267.293 218.164C267.708 218.34 268.031 218.616 268.261 218.99C268.491 219.365 268.606 219.848 268.606 220.439V224.615H267.341ZM265.174 224.798C264.619 224.798 264.157 224.701 263.787 224.507C263.421 224.313 263.146 224.058 262.961 223.742C262.776 223.426 262.683 223.086 262.683 222.72C262.683 222.3 262.792 221.951 263.008 221.671C263.229 221.391 263.536 221.183 263.929 221.048C264.326 220.908 264.789 220.838 265.317 220.838C265.669 220.838 266.005 220.867 266.325 220.926C266.65 220.98 266.973 221.057 267.293 221.156V222.016C267.036 221.926 266.754 221.856 266.447 221.806C266.145 221.756 265.86 221.732 265.594 221.732C265.202 221.732 264.874 221.808 264.613 221.962C264.355 222.111 264.227 222.363 264.227 222.72C264.227 222.986 264.331 223.214 264.538 223.404C264.746 223.593 265.075 223.688 265.526 223.688C265.86 223.688 266.149 223.614 266.393 223.465C266.637 223.311 266.824 223.122 266.955 222.896C267.09 222.67 267.158 222.447 267.158 222.226H267.503C267.503 222.686 267.413 223.113 267.232 223.505C267.056 223.893 266.795 224.207 266.447 224.446C266.104 224.681 265.68 224.798 265.174 224.798ZM270.586 224.615V215.342H272.034V224.615H270.586ZM274.212 224.615V215.342H275.661V224.615H274.212ZM280.255 224.798C279.628 224.798 279.091 224.71 278.644 224.534C278.202 224.358 277.861 224.11 277.622 223.79C277.387 223.465 277.267 223.079 277.263 222.632H278.61C278.628 222.979 278.768 223.237 279.03 223.404C279.291 223.566 279.646 223.647 280.092 223.647C280.336 223.647 280.555 223.611 280.749 223.539C280.943 223.462 281.094 223.361 281.203 223.234C281.315 223.104 281.372 222.959 281.372 222.801C281.372 222.598 281.297 222.438 281.148 222.321C281.004 222.203 280.769 222.097 280.444 222.002L279.057 221.522C278.533 221.341 278.132 221.1 277.852 220.798C277.572 220.495 277.432 220.134 277.432 219.714C277.432 219.168 277.678 218.728 278.17 218.394C278.662 218.06 279.316 217.894 280.133 217.894C280.963 217.894 281.604 218.072 282.056 218.428C282.507 218.785 282.739 219.234 282.753 219.775H281.379C281.352 219.541 281.236 219.358 281.033 219.227C280.83 219.092 280.53 219.024 280.133 219.024C279.768 219.024 279.481 219.103 279.273 219.261C279.07 219.414 278.969 219.59 278.969 219.789C278.969 220.136 279.267 220.396 279.862 220.567L281.345 221.109C281.864 221.28 282.265 221.502 282.55 221.772C282.834 222.043 282.976 222.386 282.976 222.801C282.976 223.144 282.861 223.469 282.631 223.776C282.405 224.078 282.089 224.324 281.683 224.514C281.277 224.703 280.801 224.798 280.255 224.798Z" fill="#757575"/>
</g>
<g filter="url(#filter1_d_3001_5945)">
<mask id="path-11-inside-1_3001_5945" fill="white">
<path d="M24 33C24 26.3726 29.3726 21 36 21H372C378.627 21 384 26.3726 384 33V82C384 88.6274 378.627 94 372 94H36C29.3726 94 24 88.6274 24 82V33Z"/>
</mask>
<path d="M24 33C24 26.3726 29.3726 21 36 21H372C378.627 21 384 26.3726 384 33V82C384 88.6274 378.627 94 372 94H36C29.3726 94 24 88.6274 24 82V33Z" fill="white"/>
<path d="M24 33C24 25.8992 29.7563 20.1429 36.8571 20.1429H371.143C378.244 20.1429 384 25.8992 384 33C384 26.846 378.627 21.8571 372 21.8571H36C29.3726 21.8571 24 26.846 24 33ZM384 94H24H384ZM24 94V21V94ZM384 21V94V21Z" fill="#E5E5E5" mask="url(#path-11-inside-1_3001_5945)"/>
<path d="M38.9486 53.7143V51.4309C38.9486 50.6834 39.0617 50.0492 39.288 49.528C39.5143 49.0069 39.8503 48.568 40.296 48.2114C40.7486 47.848 41.3143 47.536 41.9932 47.2754L44.7292 46.2263C45.3257 45.9863 45.7646 45.6914 46.0457 45.3417C46.3337 44.992 46.4777 44.56 46.4777 44.0457C46.4777 43.5314 46.2892 43.0994 45.912 42.7497C45.5417 42.3932 45.0103 42.2149 44.3177 42.2149C43.6526 42.2149 43.0937 42.3829 42.6412 42.7189C42.1954 43.048 41.9383 43.5314 41.8697 44.1692H39.1749C39.1954 43.2571 39.432 42.4994 39.8846 41.896C40.3372 41.2926 40.944 40.8434 41.7052 40.5486C42.4663 40.2469 43.3234 40.096 44.2766 40.096C45.1749 40.096 45.9874 40.2674 46.7143 40.6103C47.4412 40.9463 48.0172 41.4194 48.4423 42.0297C48.8743 42.6331 49.0903 43.3394 49.0903 44.1486C49.0903 44.8343 48.9634 45.4377 48.7097 45.9589C48.4629 46.48 48.0857 46.936 47.5783 47.3269C47.0709 47.7177 46.4297 48.064 45.6549 48.3657L42.8983 49.4354C42.3634 49.6412 41.976 49.8709 41.736 50.1246C41.496 50.3714 41.376 50.6972 41.376 51.1017V51.4926H49.008V53.7143H38.9486ZM56.6291 40.2194H58.9742V48.6743H61.2988V50.752H58.9742V53.7143H56.5674V50.752H49.7994V48.9212L56.6291 40.2194ZM56.6908 43.8194L52.6794 48.9212H56.6908V43.8194Z" fill="#121212"/>
<path d="M80.1429 44.7857V49.2857C80.1429 49.4732 80.0826 49.6272 79.9621 49.7478C79.8415 49.8683 79.6875 49.9286 79.5 49.9286C79.3125 49.9286 79.1585 49.8683 79.038 49.7478C78.9174 49.6272 78.8572 49.4732 78.8572 49.2857V46.3326L74.8192 50.3906C74.6853 50.5112 74.5313 50.5714 74.3572 50.5714C74.183 50.5714 74.029 50.5112 73.8951 50.3906C73.7746 50.2567 73.7143 50.1027 73.7143 49.9286C73.7143 49.7545 73.7746 49.6005 73.8951 49.4665L77.9531 45.4286H75C74.8125 45.4286 74.6585 45.3683 74.538 45.2478C74.4174 45.1272 74.3572 44.9732 74.3572 44.7857C74.3572 44.5982 74.4174 44.4442 74.538 44.3237C74.6585 44.2031 74.8125 44.1429 75 44.1429H79.5C79.6875 44.1429 79.8415 44.2031 79.9621 44.3237C80.0826 44.4442 80.1429 44.5982 80.1429 44.7857Z" fill="#3BB24A"/>
<path d="M87.9649 50.8763C87.3209 50.8763 86.7569 50.7783 86.2729 50.5823C85.7929 50.3863 85.4189 50.1203 85.1509 49.7843C84.8829 49.4443 84.7489 49.0603 84.7489 48.6323C84.7489 48.2603 84.8469 47.9443 85.0429 47.6843C85.2429 47.4203 85.5129 47.2183 85.8529 47.0783C86.1929 46.9343 86.5789 46.8623 87.0109 46.8623C87.1629 46.8623 87.3049 46.8743 87.4369 46.8983C87.5729 46.9223 87.7269 46.9563 87.8989 47.0003V47.3243C87.5429 47.3243 87.2269 47.3803 86.9509 47.4923C86.6789 47.6003 86.4649 47.7443 86.3089 47.9243C86.1569 48.1003 86.0809 48.2963 86.0809 48.5123C86.0809 48.7603 86.1649 48.9743 86.3329 49.1543C86.5009 49.3303 86.7269 49.4663 87.0109 49.5623C87.2989 49.6543 87.6169 49.7003 87.9649 49.7003C88.5969 49.7003 89.0709 49.6123 89.3869 49.4363C89.7029 49.2603 89.8609 49.0363 89.8609 48.7643C89.8609 48.5443 89.7809 48.3583 89.6209 48.2063C89.4649 48.0543 89.2469 47.9263 88.9669 47.8223L86.7889 46.9823C86.5249 46.8823 86.2549 46.7423 85.9789 46.5623C85.7069 46.3823 85.4769 46.1583 85.2889 45.8903C85.1049 45.6183 85.0129 45.3003 85.0129 44.9363C85.0129 44.5163 85.1289 44.1503 85.3609 43.8383C85.5929 43.5223 85.9289 43.2783 86.3689 43.1063C86.8089 42.9343 87.3409 42.8483 87.9649 42.8483C88.5249 42.8483 89.0269 42.9423 89.4709 43.1303C89.9149 43.3183 90.2669 43.5783 90.5269 43.9103C90.7869 44.2383 90.9169 44.6143 90.9169 45.0383C90.9169 45.3423 90.8349 45.6243 90.6709 45.8843C90.5069 46.1403 90.2689 46.3483 89.9569 46.5083C89.6489 46.6683 89.2749 46.7483 88.8349 46.7483C88.6949 46.7483 88.5649 46.7383 88.4449 46.7183C88.3249 46.6943 88.1869 46.6583 88.0309 46.6103V46.2323C88.3109 46.2323 88.5689 46.1863 88.8049 46.0943C89.0409 45.9983 89.2289 45.8683 89.3689 45.7043C89.5129 45.5363 89.5849 45.3423 89.5849 45.1223C89.5849 44.8983 89.5169 44.7043 89.3809 44.5403C89.2449 44.3723 89.0549 44.2423 88.8109 44.1503C88.5669 44.0583 88.2849 44.0123 87.9649 44.0123C87.6609 44.0123 87.3869 44.0563 87.1429 44.1443C86.8989 44.2283 86.7049 44.3443 86.5609 44.4923C86.4169 44.6363 86.3449 44.8023 86.3449 44.9903C86.3449 45.2063 86.4189 45.3823 86.5669 45.5183C86.7149 45.6543 86.9269 45.7763 87.2029 45.8843L89.4349 46.7423C89.9989 46.9583 90.4329 47.2123 90.7369 47.5043C91.0409 47.7923 91.1929 48.1903 91.1929 48.6983C91.1929 49.1183 91.0649 49.4943 90.8089 49.8263C90.5569 50.1543 90.1909 50.4123 89.7109 50.6003C89.2309 50.7843 88.6489 50.8763 87.9649 50.8763ZM92.7252 50.7143L97.9452 42.9983H99.2472L94.0332 50.7143H92.7252ZM98.2152 50.8403C97.9352 50.8403 97.6712 50.7743 97.4232 50.6423C97.1792 50.5103 96.9832 50.3123 96.8352 50.0483C96.6872 49.7803 96.6132 49.4463 96.6132 49.0463C96.6132 48.6463 96.6872 48.3143 96.8352 48.0503C96.9832 47.7823 97.1792 47.5823 97.4232 47.4503C97.6712 47.3183 97.9352 47.2523 98.2152 47.2523C98.5032 47.2523 98.7712 47.3183 99.0192 47.4503C99.2672 47.5823 99.4652 47.7823 99.6132 48.0503C99.7652 48.3143 99.8412 48.6463 99.8412 49.0463C99.8412 49.4463 99.7652 49.7803 99.6132 50.0483C99.4652 50.3123 99.2672 50.5103 99.0192 50.6423C98.7712 50.7743 98.5032 50.8403 98.2152 50.8403ZM98.2152 50.0063C98.4072 50.0063 98.5612 49.9323 98.6772 49.7843C98.7972 49.6363 98.8572 49.3903 98.8572 49.0463C98.8572 48.7023 98.7972 48.4563 98.6772 48.3083C98.5612 48.1563 98.4072 48.0803 98.2152 48.0803C98.0232 48.0803 97.8692 48.1563 97.7532 48.3083C97.6372 48.4563 97.5792 48.7023 97.5792 49.0463C97.5792 49.3903 97.6372 49.6363 97.7532 49.7843C97.8692 49.9323 98.0232 50.0063 98.2152 50.0063ZM93.7692 46.4243C93.4892 46.4243 93.2272 46.3583 92.9832 46.2263C92.7392 46.0943 92.5412 45.8963 92.3892 45.6323C92.2412 45.3643 92.1672 45.0303 92.1672 44.6303C92.1672 44.2343 92.2412 43.9043 92.3892 43.6403C92.5412 43.3763 92.7392 43.1783 92.9832 43.0463C93.2272 42.9143 93.4892 42.8483 93.7692 42.8483C94.0612 42.8483 94.3292 42.9143 94.5732 43.0463C94.8212 43.1783 95.0192 43.3763 95.1672 43.6403C95.3192 43.9043 95.3952 44.2343 95.3952 44.6303C95.3952 45.0303 95.3192 45.3643 95.1672 45.6323C95.0192 45.8963 94.8212 46.0943 94.5732 46.2263C94.3292 46.3583 94.0612 46.4243 93.7692 46.4243ZM93.7692 45.5963C93.9572 45.5963 94.1112 45.5223 94.2312 45.3743C94.3512 45.2263 94.4112 44.9783 94.4112 44.6303C94.4112 44.2903 94.3512 44.0463 94.2312 43.8983C94.1112 43.7463 93.9572 43.6703 93.7692 43.6703C93.5812 43.6703 93.4292 43.7463 93.3132 43.8983C93.1972 44.0463 93.1392 44.2903 93.1392 44.6303C93.1392 44.9783 93.1972 45.2263 93.3132 45.3743C93.4292 45.5223 93.5812 45.5963 93.7692 45.5963Z" fill="#3BB24A"/>
<path d="M52.4911 74.1161C52.8839 74.3304 53.0446 74.6518 52.9732 75.0804L52.3571 77.7857C52.2321 78.1964 51.9643 78.4107 51.5536 78.4286C49.2678 78.4107 47.2053 77.8482 45.3661 76.7411C43.5268 75.6518 42.0625 74.1875 40.9732 72.3482C39.8661 70.5089 39.3036 68.4554 39.2857 66.1875C39.3036 65.7589 39.5178 65.4822 39.9286 65.3572L42.6071 64.7411C43.0714 64.6697 43.4018 64.8304 43.5982 65.2232L44.8303 68.1161C44.9732 68.5089 44.8928 68.8393 44.5893 69.1072L43.1696 70.2857C43.6161 71.2143 44.2053 72.0447 44.9375 72.7768C45.6696 73.5089 46.5 74.0982 47.4286 74.5447L48.6071 73.125C48.875 72.8214 49.2053 72.7411 49.5982 72.8839L52.4911 74.1161ZM47.8571 70.7143C47.6071 70.7143 47.4018 70.6339 47.2411 70.4732C47.0803 70.3125 47 70.1072 47 69.8572V67.2857C47 67.0357 47.0803 66.8304 47.2411 66.6697C47.4018 66.5089 47.6071 66.4286 47.8571 66.4286C48.1071 66.4286 48.3125 66.5089 48.4732 66.6697C48.6339 66.8304 48.7143 67.0357 48.7143 67.2857V67.7947L51.5268 64.9554C51.7053 64.7947 51.9107 64.7143 52.1428 64.7143C52.375 64.7143 52.5803 64.7947 52.7589 64.9554C52.9196 65.1339 53 65.3393 53 65.5714C53 65.8036 52.9196 66.0089 52.7589 66.1875L49.9196 69H50.4286C50.6786 69 50.8839 69.0804 51.0446 69.2411C51.2053 69.4018 51.2857 69.6072 51.2857 69.8572C51.2857 70.1072 51.2053 70.3125 51.0446 70.4732C50.8839 70.6339 50.6786 70.7143 50.4286 70.7143H47.8571Z" fill="#A0D8A5"/>
<path d="M61.14 75.2143V67.4983H62.424V75.2143H61.14ZM68.3742 75.2143V71.8183C68.3742 71.3543 68.2622 71.0043 68.0382 70.7683C67.8182 70.5283 67.5242 70.4083 67.1562 70.4083C66.8562 70.4083 66.5922 70.4903 66.3642 70.6543C66.1362 70.8183 65.9582 71.0623 65.8302 71.3863C65.7022 71.7103 65.6382 72.1083 65.6382 72.5803H65.2002C65.2002 71.8483 65.2922 71.2363 65.4762 70.7443C65.6642 70.2523 65.9282 69.8823 66.2682 69.6343C66.6122 69.3823 67.0182 69.2563 67.4862 69.2563C67.9582 69.2563 68.3542 69.3623 68.6742 69.5743C68.9982 69.7863 69.2422 70.0843 69.4062 70.4683C69.5742 70.8523 69.6582 71.3023 69.6582 71.8183V75.2143H68.3742ZM64.3542 75.2143V69.4183H65.4762L65.6382 70.6183V75.2143H64.3542ZM74.2804 75.3763C73.9124 75.3763 73.5764 75.2763 73.2724 75.0763C72.9684 74.8723 72.7264 74.5703 72.5464 74.1703C72.3664 73.7663 72.2764 73.2663 72.2764 72.6703H72.6844C72.6844 72.9863 72.7544 73.2603 72.8944 73.4923C73.0344 73.7203 73.2124 73.8983 73.4284 74.0263C73.6444 74.1503 73.8704 74.2123 74.1064 74.2123C74.3944 74.2123 74.6504 74.1343 74.8744 73.9783C75.1024 73.8183 75.2824 73.5943 75.4144 73.3063C75.5504 73.0183 75.6184 72.6783 75.6184 72.2863C75.6184 71.9063 75.5524 71.5763 75.4204 71.2963C75.2884 71.0123 75.1084 70.7943 74.8804 70.6423C74.6524 70.4863 74.3904 70.4083 74.0944 70.4083C73.8504 70.4083 73.6204 70.4683 73.4044 70.5883C73.1884 70.7043 73.0144 70.8763 72.8824 71.1043C72.7504 71.3323 72.6844 71.6083 72.6844 71.9323H72.2764C72.2764 71.3563 72.3624 70.8703 72.5344 70.4743C72.7064 70.0743 72.9484 69.7723 73.2604 69.5683C73.5764 69.3603 73.9484 69.2563 74.3764 69.2563C74.8444 69.2563 75.2704 69.3803 75.6544 69.6283C76.0384 69.8763 76.3444 70.2283 76.5724 70.6843C76.8004 71.1363 76.9144 71.6703 76.9144 72.2863C76.9144 72.9103 76.7964 73.4543 76.5604 73.9183C76.3244 74.3783 76.0064 74.7363 75.6064 74.9923C75.2104 75.2483 74.7684 75.3763 74.2804 75.3763ZM71.4004 75.2143V66.9943H72.6844V73.7983L72.2524 75.2143H71.4004ZM80.5732 75.3763C80.0492 75.3763 79.5752 75.2623 79.1512 75.0343C78.7312 74.8063 78.3972 74.4663 78.1492 74.0143C77.9012 73.5623 77.7772 72.9983 77.7772 72.3223C77.7772 71.6343 77.9012 71.0643 78.1492 70.6123C78.3972 70.1603 78.7312 69.8223 79.1512 69.5983C79.5752 69.3703 80.0492 69.2563 80.5732 69.2563C81.0972 69.2563 81.5672 69.3703 81.9832 69.5983C82.4032 69.8223 82.7352 70.1603 82.9792 70.6123C83.2272 71.0643 83.3512 71.6343 83.3512 72.3223C83.3512 72.9983 83.2272 73.5623 82.9792 74.0143C82.7352 74.4663 82.4032 74.8063 81.9832 75.0343C81.5672 75.2623 81.0972 75.3763 80.5732 75.3763ZM80.5372 74.2543C80.8412 74.2543 81.1072 74.1803 81.3352 74.0323C81.5672 73.8843 81.7472 73.6663 81.8752 73.3783C82.0032 73.0903 82.0672 72.7383 82.0672 72.3223C82.0672 71.6863 81.9392 71.2023 81.6832 70.8703C81.4312 70.5343 81.0752 70.3663 80.6152 70.3663C80.3072 70.3663 80.0372 70.4403 79.8052 70.5883C79.5772 70.7363 79.3992 70.9563 79.2712 71.2483C79.1432 71.5403 79.0792 71.8983 79.0792 72.3223C79.0792 72.9463 79.2072 73.4243 79.4632 73.7563C79.7192 74.0883 80.0772 74.2543 80.5372 74.2543ZM88.5958 69.3943H89.8738V75.2143H88.5958V69.3943ZM84.5758 69.3943H85.8598V72.9703C85.8598 73.3783 85.9598 73.6863 86.1598 73.8943C86.3598 74.0983 86.6398 74.2003 86.9998 74.2003C87.2998 74.2003 87.5698 74.1223 87.8098 73.9663C88.0538 73.8063 88.2458 73.5763 88.3858 73.2763C88.5258 72.9763 88.5958 72.6123 88.5958 72.1843H88.9678C88.9678 72.8763 88.8758 73.4563 88.6918 73.9243C88.5078 74.3883 88.2518 74.7383 87.9238 74.9743C87.5958 75.2063 87.2138 75.3223 86.7778 75.3223C86.3618 75.3223 85.9858 75.2463 85.6498 75.0943C85.3178 74.9423 85.0558 74.7043 84.8638 74.3803C84.6718 74.0523 84.5758 73.6243 84.5758 73.0963V69.3943ZM95.8209 75.2143V71.8183C95.8209 71.3543 95.7089 71.0043 95.4849 70.7683C95.2649 70.5283 94.9709 70.4083 94.6029 70.4083C94.3029 70.4083 94.0389 70.4903 93.8109 70.6543C93.5829 70.8183 93.4049 71.0623 93.2769 71.3863C93.1489 71.7103 93.0849 72.1083 93.0849 72.5803H92.6469C92.6469 71.8483 92.7389 71.2363 92.9229 70.7443C93.1109 70.2523 93.3749 69.8823 93.7149 69.6343C94.0589 69.3823 94.4649 69.2563 94.9329 69.2563C95.4049 69.2563 95.8009 69.3623 96.1209 69.5743C96.4449 69.7863 96.6889 70.0843 96.8529 70.4683C97.0209 70.8523 97.1049 71.3023 97.1049 71.8183V75.2143H95.8209ZM91.8009 75.2143V69.4183H92.9229L93.0849 70.6183V75.2143H91.8009ZM100.971 75.3763C100.491 75.3763 100.051 75.2483 99.6512 74.9923C99.2512 74.7363 98.9332 74.3783 98.6972 73.9183C98.4612 73.4543 98.3432 72.9103 98.3432 72.2863C98.3432 71.6703 98.4572 71.1363 98.6852 70.6843C98.9172 70.2283 99.2252 69.8763 99.6092 69.6283C99.9932 69.3803 100.419 69.2563 100.887 69.2563C101.315 69.2563 101.687 69.3603 102.003 69.5683C102.319 69.7723 102.561 70.0743 102.729 70.4743C102.901 70.8703 102.987 71.3563 102.987 71.9323H102.567C102.567 71.6083 102.501 71.3323 102.369 71.1043C102.237 70.8763 102.065 70.7043 101.853 70.5883C101.641 70.4683 101.411 70.4083 101.163 70.4083C100.875 70.4083 100.615 70.4863 100.383 70.6423C100.155 70.7943 99.9752 71.0123 99.8432 71.2963C99.7112 71.5763 99.6452 71.9063 99.6452 72.2863C99.6452 72.6783 99.7112 73.0183 99.8432 73.3063C99.9752 73.5943 100.155 73.8183 100.383 73.9783C100.615 74.1343 100.873 74.2123 101.157 74.2123C101.393 74.2123 101.617 74.1503 101.829 74.0263C102.045 73.8983 102.221 73.7203 102.357 73.4923C102.497 73.2603 102.567 72.9863 102.567 72.6703H102.987C102.987 73.2663 102.895 73.7663 102.711 74.1703C102.531 74.5703 102.287 74.8723 101.979 75.0763C101.675 75.2763 101.339 75.3763 100.971 75.3763ZM102.801 75.2143L102.567 73.7983V66.9943H103.857V75.2143H102.801Z" fill="#757575"/>
<mask id="path-19-inside-2_3001_5945" fill="white">
<path d="M145.143 27.8572H262.857V87.1429H145.143V27.8572Z"/>
</mask>
<path d="M146 87.1429V27.8572H144.286V87.1429H146Z" fill="#D1D1D1" mask="url(#path-19-inside-2_3001_5945)"/>
<path d="M159.008 40.2811H160.839V53.7143H158.411V43.1817C158.048 43.3463 157.691 43.4732 157.342 43.5623C156.992 43.6514 156.642 43.696 156.293 43.696V41.3714C156.759 41.3234 157.211 41.2172 157.65 41.0526C158.089 40.8812 158.542 40.624 159.008 40.2811ZM168.583 54.0023C167.438 54.0023 166.443 53.8343 165.6 53.4983C164.757 53.1554 164.102 52.6926 163.635 52.1097C163.176 51.52 162.946 50.8549 162.946 50.1143C162.946 49.4834 163.114 48.9452 163.45 48.4994C163.786 48.0537 164.246 47.7109 164.829 47.4709C165.411 47.2309 166.066 47.1109 166.793 47.1109C167.081 47.1109 167.349 47.1349 167.595 47.1829C167.842 47.2309 168.13 47.296 168.459 47.3783V47.9749C167.877 47.9749 167.359 48.0606 166.906 48.232C166.454 48.4034 166.097 48.6332 165.837 48.9212C165.583 49.2092 165.456 49.5246 165.456 49.8674C165.456 50.2652 165.597 50.608 165.878 50.896C166.159 51.1772 166.536 51.3966 167.009 51.5543C167.482 51.7052 168.007 51.7806 168.583 51.7806C169.653 51.7806 170.445 51.6434 170.959 51.3692C171.473 51.088 171.73 50.7314 171.73 50.2994C171.73 49.9566 171.603 49.6652 171.35 49.4252C171.103 49.1783 170.757 48.9692 170.311 48.7977L166.505 47.3372C166.046 47.1589 165.576 46.912 165.096 46.5966C164.623 46.2812 164.222 45.8869 163.893 45.4137C163.563 44.9406 163.399 44.3817 163.399 43.7372C163.399 42.9966 163.601 42.3554 164.006 41.8137C164.417 41.2651 165.007 40.8434 165.775 40.5486C166.55 40.2469 167.486 40.096 168.583 40.096C169.557 40.096 170.434 40.2606 171.216 40.5897C171.998 40.9189 172.618 41.3714 173.078 41.9474C173.537 42.5234 173.767 43.1817 173.767 43.9223C173.767 44.4366 173.626 44.9132 173.345 45.352C173.064 45.7909 172.656 46.1474 172.121 46.4217C171.586 46.6892 170.942 46.8229 170.187 46.8229C169.927 46.8229 169.687 46.8023 169.467 46.7612C169.248 46.7132 168.994 46.6446 168.706 46.5554V45.856C169.159 45.856 169.577 45.784 169.961 45.64C170.352 45.4892 170.664 45.2834 170.897 45.0229C171.137 44.7554 171.257 44.4434 171.257 44.0869C171.257 43.7234 171.144 43.408 170.918 43.1406C170.691 42.8732 170.376 42.6674 169.971 42.5234C169.574 42.3726 169.111 42.2972 168.583 42.2972C168.082 42.2972 167.63 42.3657 167.225 42.5029C166.821 42.6331 166.498 42.8149 166.258 43.048C166.025 43.2812 165.909 43.5452 165.909 43.84C165.909 44.176 166.025 44.4537 166.258 44.6732C166.491 44.8857 166.827 45.0812 167.266 45.2594L171.195 46.7817C172.176 47.1589 172.927 47.5977 173.448 48.0983C173.976 48.592 174.24 49.2846 174.24 50.176C174.24 50.9166 174.017 51.5749 173.571 52.1509C173.133 52.7269 172.491 53.1794 171.648 53.5086C170.805 53.8377 169.783 54.0023 168.583 54.0023Z" fill="#121212"/>
<path d="M193.857 44.7857V49.2857C193.857 49.4732 193.797 49.6272 193.676 49.7478C193.556 49.8683 193.402 49.9286 193.214 49.9286C193.027 49.9286 192.873 49.8683 192.752 49.7478C192.632 49.6272 192.571 49.4732 192.571 49.2857V46.3326L188.533 50.3906C188.4 50.5112 188.246 50.5714 188.071 50.5714C187.897 50.5714 187.743 50.5112 187.609 50.3906C187.489 50.2567 187.429 50.1027 187.429 49.9286C187.429 49.7545 187.489 49.6005 187.609 49.4665L191.667 45.4286H188.714C188.527 45.4286 188.373 45.3683 188.252 45.2478C188.132 45.1272 188.071 44.9732 188.071 44.7857C188.071 44.5982 188.132 44.4442 188.252 44.3237C188.373 44.2031 188.527 44.1429 188.714 44.1429H193.214C193.402 44.1429 193.556 44.2031 193.676 44.3237C193.797 44.4442 193.857 44.5982 193.857 44.7857Z" fill="#3BB24A"/>
<path d="M202.111 42.9023H203.341V47.8583H204.685V48.9563H203.341V50.7143H202.069V48.9563H198.133V47.9843L202.111 42.9023ZM202.129 44.8343L199.657 47.9843H202.129V44.8343ZM205.807 50.7143L211.027 42.9983H212.329L207.115 50.7143H205.807ZM211.297 50.8403C211.017 50.8403 210.753 50.7743 210.505 50.6423C210.261 50.5103 210.065 50.3123 209.917 50.0483C209.769 49.7803 209.695 49.4463 209.695 49.0463C209.695 48.6463 209.769 48.3143 209.917 48.0503C210.065 47.7823 210.261 47.5823 210.505 47.4503C210.753 47.3183 211.017 47.2523 211.297 47.2523C211.585 47.2523 211.853 47.3183 212.101 47.4503C212.349 47.5823 212.547 47.7823 212.695 48.0503C212.847 48.3143 212.923 48.6463 212.923 49.0463C212.923 49.4463 212.847 49.7803 212.695 50.0483C212.547 50.3123 212.349 50.5103 212.101 50.6423C211.853 50.7743 211.585 50.8403 211.297 50.8403ZM211.297 50.0063C211.489 50.0063 211.643 49.9323 211.759 49.7843C211.879 49.6363 211.939 49.3903 211.939 49.0463C211.939 48.7023 211.879 48.4563 211.759 48.3083C211.643 48.1563 211.489 48.0803 211.297 48.0803C211.105 48.0803 210.951 48.1563 210.835 48.3083C210.719 48.4563 210.661 48.7023 210.661 49.0463C210.661 49.3903 210.719 49.6363 210.835 49.7843C210.951 49.9323 211.105 50.0063 211.297 50.0063ZM206.851 46.4243C206.571 46.4243 206.309 46.3583 206.065 46.2263C205.821 46.0943 205.623 45.8963 205.471 45.6323C205.323 45.3643 205.249 45.0303 205.249 44.6303C205.249 44.2343 205.323 43.9043 205.471 43.6403C205.623 43.3763 205.821 43.1783 206.065 43.0463C206.309 42.9143 206.571 42.8483 206.851 42.8483C207.143 42.8483 207.411 42.9143 207.655 43.0463C207.903 43.1783 208.101 43.3763 208.249 43.6403C208.401 43.9043 208.477 44.2343 208.477 44.6303C208.477 45.0303 208.401 45.3643 208.249 45.6323C208.101 45.8963 207.903 46.0943 207.655 46.2263C207.411 46.3583 207.143 46.4243 206.851 46.4243ZM206.851 45.5963C207.039 45.5963 207.193 45.5223 207.313 45.3743C207.433 45.2263 207.493 44.9783 207.493 44.6303C207.493 44.2903 207.433 44.0463 207.313 43.8983C207.193 43.7463 207.039 43.6703 206.851 43.6703C206.663 43.6703 206.511 43.7463 206.395 43.8983C206.279 44.0463 206.221 44.2903 206.221 44.6303C206.221 44.9783 206.279 45.2263 206.395 45.3743C206.511 45.5223 206.663 45.5963 206.851 45.5963Z" fill="#3BB24A"/>
<path d="M170.205 74.1161C170.598 74.3304 170.759 74.6518 170.687 75.0804L170.071 77.7857C169.946 78.1964 169.679 78.4107 169.268 78.4286C166.982 78.4107 164.92 77.8482 163.08 76.7411C161.241 75.6518 159.777 74.1875 158.687 72.3482C157.58 70.5089 157.018 68.4554 157 66.1875C157.018 65.7589 157.232 65.4822 157.643 65.3572L160.321 64.7411C160.786 64.6697 161.116 64.8304 161.312 65.2232L162.545 68.1161C162.687 68.5089 162.607 68.8393 162.304 69.1072L160.884 70.2857C161.33 71.2143 161.92 72.0447 162.652 72.7768C163.384 73.5089 164.214 74.0982 165.143 74.5447L166.321 73.125C166.589 72.8214 166.92 72.7411 167.312 72.8839L170.205 74.1161ZM169.857 64.7143C170.107 64.7143 170.312 64.7947 170.473 64.9554C170.634 65.1161 170.714 65.3214 170.714 65.5714V68.1429C170.714 68.3929 170.634 68.5982 170.473 68.7589C170.312 68.9197 170.107 69 169.857 69C169.607 69 169.402 68.9197 169.241 68.7589C169.08 68.5982 169 68.3929 169 68.1429V67.6339L166.187 70.4732C166.009 70.6339 165.804 70.7143 165.571 70.7143C165.339 70.7143 165.134 70.6339 164.955 70.4732C164.795 70.2947 164.714 70.0893 164.714 69.8572C164.714 69.625 164.795 69.4197 164.955 69.2411L167.795 66.4286H167.286C167.036 66.4286 166.83 66.3482 166.67 66.1875C166.509 66.0268 166.429 65.8214 166.429 65.5714C166.429 65.3214 166.509 65.1161 166.67 64.9554C166.83 64.7947 167.036 64.7143 167.286 64.7143H169.857Z" fill="#81D4FA"/>
<path d="M181.746 75.3763C181.074 75.3763 180.478 75.2263 179.958 74.9263C179.438 74.6263 179.03 74.1783 178.734 73.5823C178.438 72.9863 178.29 72.2443 178.29 71.3563C178.29 70.4523 178.438 69.7043 178.734 69.1123C179.03 68.5203 179.438 68.0783 179.958 67.7863C180.478 67.4943 181.074 67.3483 181.746 67.3483C182.422 67.3483 183.02 67.4983 183.54 67.7983C184.064 68.0943 184.472 68.5403 184.764 69.1363C185.06 69.7283 185.208 70.4683 185.208 71.3563C185.208 72.2523 185.06 73.0003 184.764 73.6003C184.472 74.1963 184.064 74.6423 183.54 74.9383C183.02 75.2303 182.422 75.3763 181.746 75.3763ZM181.746 74.2063C182.402 74.2063 182.922 73.9623 183.306 73.4743C183.69 72.9823 183.882 72.2723 183.882 71.3443C183.882 70.4403 183.69 69.7403 183.306 69.2443C182.922 68.7483 182.402 68.5003 181.746 68.5003C181.102 68.5003 180.586 68.7503 180.198 69.2503C179.814 69.7463 179.622 70.4483 179.622 71.3563C179.622 72.2803 179.814 72.9863 180.198 73.4743C180.586 73.9623 181.102 74.2063 181.746 74.2063ZM190.456 69.3943H191.734V75.2143H190.456V69.3943ZM186.436 69.3943H187.72V72.9703C187.72 73.3783 187.82 73.6863 188.02 73.8943C188.22 74.0983 188.5 74.2003 188.86 74.2003C189.16 74.2003 189.43 74.1223 189.67 73.9663C189.914 73.8063 190.106 73.5763 190.246 73.2763C190.386 72.9763 190.456 72.6123 190.456 72.1843H190.828C190.828 72.8763 190.736 73.4563 190.552 73.9243C190.368 74.3883 190.112 74.7383 189.784 74.9743C189.456 75.2063 189.074 75.3223 188.638 75.3223C188.222 75.3223 187.846 75.2463 187.51 75.0943C187.178 74.9423 186.916 74.7043 186.724 74.3803C186.532 74.0523 186.436 73.6243 186.436 73.0963V69.3943ZM195.576 75.3763C195.24 75.3763 194.934 75.3143 194.658 75.1903C194.386 75.0623 194.168 74.8703 194.004 74.6143C193.84 74.3543 193.758 74.0283 193.758 73.6363V67.8583H195.036V73.5943C195.036 74.1023 195.278 74.3563 195.762 74.3563C195.91 74.3563 196.056 74.3403 196.2 74.3083C196.344 74.2763 196.506 74.2263 196.686 74.1583L196.872 75.0643C196.656 75.1523 196.442 75.2263 196.23 75.2863C196.022 75.3463 195.804 75.3763 195.576 75.3763ZM192.912 70.2763V69.4183H196.686V70.2763H192.912ZM200.857 75.3763C200.489 75.3763 200.153 75.2763 199.849 75.0763C199.545 74.8723 199.303 74.5703 199.123 74.1703C198.943 73.7663 198.853 73.2663 198.853 72.6703H199.261C199.261 72.9863 199.331 73.2603 199.471 73.4923C199.611 73.7203 199.789 73.8983 200.005 74.0263C200.221 74.1503 200.447 74.2123 200.683 74.2123C200.971 74.2123 201.227 74.1343 201.451 73.9783C201.679 73.8183 201.859 73.5943 201.991 73.3063C202.127 73.0183 202.195 72.6783 202.195 72.2863C202.195 71.9063 202.129 71.5763 201.997 71.2963C201.865 71.0123 201.685 70.7943 201.457 70.6423C201.229 70.4863 200.967 70.4083 200.671 70.4083C200.427 70.4083 200.197 70.4683 199.981 70.5883C199.765 70.7043 199.591 70.8763 199.459 71.1043C199.327 71.3323 199.261 71.6083 199.261 71.9323H198.853C198.853 71.3563 198.939 70.8703 199.111 70.4743C199.283 70.0743 199.525 69.7723 199.837 69.5683C200.153 69.3603 200.525 69.2563 200.953 69.2563C201.421 69.2563 201.847 69.3803 202.231 69.6283C202.615 69.8763 202.921 70.2283 203.149 70.6843C203.377 71.1363 203.491 71.6703 203.491 72.2863C203.491 72.9103 203.373 73.4543 203.137 73.9183C202.901 74.3783 202.583 74.7363 202.183 74.9923C201.787 75.2483 201.345 75.3763 200.857 75.3763ZM197.977 75.2143V66.9943H199.261V73.7983L198.829 75.2143H197.977ZM207.15 75.3763C206.626 75.3763 206.152 75.2623 205.728 75.0343C205.308 74.8063 204.974 74.4663 204.726 74.0143C204.478 73.5623 204.354 72.9983 204.354 72.3223C204.354 71.6343 204.478 71.0643 204.726 70.6123C204.974 70.1603 205.308 69.8223 205.728 69.5983C206.152 69.3703 206.626 69.2563 207.15 69.2563C207.674 69.2563 208.144 69.3703 208.56 69.5983C208.98 69.8223 209.312 70.1603 209.556 70.6123C209.804 71.0643 209.928 71.6343 209.928 72.3223C209.928 72.9983 209.804 73.5623 209.556 74.0143C209.312 74.4663 208.98 74.8063 208.56 75.0343C208.144 75.2623 207.674 75.3763 207.15 75.3763ZM207.114 74.2543C207.418 74.2543 207.684 74.1803 207.912 74.0323C208.144 73.8843 208.324 73.6663 208.452 73.3783C208.58 73.0903 208.644 72.7383 208.644 72.3223C208.644 71.6863 208.516 71.2023 208.26 70.8703C208.008 70.5343 207.652 70.3663 207.192 70.3663C206.884 70.3663 206.614 70.4403 206.382 70.5883C206.154 70.7363 205.976 70.9563 205.848 71.2483C205.72 71.5403 205.656 71.8983 205.656 72.3223C205.656 72.9463 205.784 73.4243 206.04 73.7563C206.296 74.0883 206.654 74.2543 207.114 74.2543ZM215.173 69.3943H216.451V75.2143H215.173V69.3943ZM211.153 69.3943H212.437V72.9703C212.437 73.3783 212.537 73.6863 212.737 73.8943C212.937 74.0983 213.217 74.2003 213.577 74.2003C213.877 74.2003 214.147 74.1223 214.387 73.9663C214.631 73.8063 214.823 73.5763 214.963 73.2763C215.103 72.9763 215.173 72.6123 215.173 72.1843H215.545C215.545 72.8763 215.453 73.4563 215.269 73.9243C215.085 74.3883 214.829 74.7383 214.501 74.9743C214.173 75.2063 213.791 75.3223 213.355 75.3223C212.939 75.3223 212.563 75.2463 212.227 75.0943C211.895 74.9423 211.633 74.7043 211.441 74.3803C211.249 74.0523 211.153 73.6243 211.153 73.0963V69.3943ZM222.398 75.2143V71.8183C222.398 71.3543 222.286 71.0043 222.062 70.7683C221.842 70.5283 221.548 70.4083 221.18 70.4083C220.88 70.4083 220.616 70.4903 220.388 70.6543C220.16 70.8183 219.982 71.0623 219.854 71.3863C219.726 71.7103 219.662 72.1083 219.662 72.5803H219.224C219.224 71.8483 219.316 71.2363 219.5 70.7443C219.688 70.2523 219.952 69.8823 220.292 69.6343C220.636 69.3823 221.042 69.2563 221.51 69.2563C221.982 69.2563 222.378 69.3623 222.698 69.5743C223.022 69.7863 223.266 70.0843 223.43 70.4683C223.598 70.8523 223.682 71.3023 223.682 71.8183V75.2143H222.398ZM218.378 75.2143V69.4183H219.5L219.662 70.6183V75.2143H218.378ZM227.548 75.3763C227.068 75.3763 226.628 75.2483 226.228 74.9923C225.828 74.7363 225.51 74.3783 225.274 73.9183C225.038 73.4543 224.92 72.9103 224.92 72.2863C224.92 71.6703 225.034 71.1363 225.262 70.6843C225.494 70.2283 225.802 69.8763 226.186 69.6283C226.57 69.3803 226.996 69.2563 227.464 69.2563C227.892 69.2563 228.264 69.3603 228.58 69.5683C228.896 69.7723 229.138 70.0743 229.306 70.4743C229.478 70.8703 229.564 71.3563 229.564 71.9323H229.144C229.144 71.6083 229.078 71.3323 228.946 71.1043C228.814 70.8763 228.642 70.7043 228.43 70.5883C228.218 70.4683 227.988 70.4083 227.74 70.4083C227.452 70.4083 227.192 70.4863 226.96 70.6423C226.732 70.7943 226.552 71.0123 226.42 71.2963C226.288 71.5763 226.222 71.9063 226.222 72.2863C226.222 72.6783 226.288 73.0183 226.42 73.3063C226.552 73.5943 226.732 73.8183 226.96 73.9783C227.192 74.1343 227.45 74.2123 227.734 74.2123C227.97 74.2123 228.194 74.1503 228.406 74.0263C228.622 73.8983 228.798 73.7203 228.934 73.4923C229.074 73.2603 229.144 72.9863 229.144 72.6703H229.564C229.564 73.2663 229.472 73.7663 229.288 74.1703C229.108 74.5703 228.864 74.8723 228.556 75.0763C228.252 75.2763 227.916 75.3763 227.548 75.3763ZM229.378 75.2143L229.144 73.7983V66.9943H230.434V75.2143H229.378Z" fill="#757575"/>
<mask id="path-27-inside-3_3001_5945" fill="white">
<path d="M262.857 27.8572H380.571V87.1429H262.857V27.8572Z"/>
</mask>
<path d="M263.714 87.1429V27.8572H262V87.1429H263.714Z" fill="#D1D1D1" mask="url(#path-27-inside-3_3001_5945)"/>
<path d="M276.722 40.2811H278.553V53.7143H276.126V43.1817C275.762 43.3463 275.406 43.4732 275.056 43.5623C274.706 43.6514 274.357 43.696 274.007 43.696V41.3714C274.473 41.3234 274.926 41.2172 275.365 41.0526C275.803 40.8812 276.256 40.624 276.722 40.2811ZM280.887 53.7143V51.4309C280.887 50.6834 281 50.0492 281.226 49.528C281.453 49.0069 281.789 48.568 282.234 48.2114C282.687 47.848 283.253 47.536 283.931 47.2754L286.667 46.2263C287.264 45.9863 287.703 45.6914 287.984 45.3417C288.272 44.992 288.416 44.56 288.416 44.0457C288.416 43.5314 288.227 43.0994 287.85 42.7497C287.48 42.3932 286.949 42.2149 286.256 42.2149C285.591 42.2149 285.032 42.3829 284.579 42.7189C284.134 43.048 283.877 43.5314 283.808 44.1692H281.113C281.134 43.2571 281.37 42.4994 281.823 41.896C282.275 41.2926 282.882 40.8434 283.643 40.5486C284.405 40.2469 285.262 40.096 286.215 40.096C287.113 40.096 287.926 40.2674 288.653 40.6103C289.379 40.9463 289.955 41.4194 290.381 42.0297C290.813 42.6331 291.029 43.3394 291.029 44.1486C291.029 44.8343 290.902 45.4377 290.648 45.9589C290.401 46.48 290.024 46.936 289.517 47.3269C289.009 47.7177 288.368 48.064 287.593 48.3657L284.837 49.4354C284.302 49.6412 283.914 49.8709 283.674 50.1246C283.434 50.3714 283.314 50.6972 283.314 51.1017V51.4926H290.946V53.7143H280.887Z" fill="#121212"/>
<path d="M310.571 45.4286V49.9286C310.571 50.1161 310.511 50.2701 310.391 50.3906C310.27 50.5112 310.116 50.5714 309.929 50.5714H305.429C305.241 50.5714 305.087 50.5112 304.967 50.3906C304.846 50.2701 304.786 50.1161 304.786 49.9286C304.786 49.7411 304.846 49.5871 304.967 49.4665C305.087 49.346 305.241 49.2857 305.429 49.2857H308.382L304.324 45.2478C304.203 45.1138 304.143 44.9598 304.143 44.7857C304.143 44.6116 304.203 44.4576 304.324 44.3237C304.458 44.2031 304.612 44.1429 304.786 44.1429C304.96 44.1429 305.114 44.2031 305.248 44.3237L309.286 48.3817V45.4286C309.286 45.2411 309.346 45.0871 309.467 44.9665C309.587 44.846 309.741 44.7857 309.929 44.7857C310.116 44.7857 310.27 44.846 310.391 44.9665C310.511 45.0871 310.571 45.2411 310.571 45.4286Z" fill="#FE4D16"/>
<path d="M315.303 50.7143V49.4423C315.303 49.0063 315.369 48.6383 315.501 48.3383C315.637 48.0343 315.835 47.7803 316.095 47.5763C316.359 47.3723 316.683 47.1963 317.067 47.0483L318.633 46.4423C318.989 46.2983 319.253 46.1183 319.425 45.9023C319.601 45.6863 319.689 45.4203 319.689 45.1043C319.689 44.7803 319.573 44.5103 319.341 44.2943C319.109 44.0783 318.783 43.9703 318.363 43.9703C317.947 43.9703 317.603 44.0683 317.331 44.2643C317.059 44.4603 316.903 44.7483 316.863 45.1283H315.435C315.455 44.6243 315.591 44.2023 315.843 43.8623C316.099 43.5223 316.441 43.2683 316.869 43.1003C317.301 42.9323 317.791 42.8483 318.339 42.8483C318.855 42.8483 319.319 42.9463 319.731 43.1423C320.143 43.3343 320.469 43.6043 320.709 43.9523C320.953 44.3003 321.075 44.7043 321.075 45.1643C321.075 45.5603 321.001 45.9083 320.853 46.2083C320.709 46.5083 320.493 46.7703 320.205 46.9943C319.917 47.2143 319.559 47.4083 319.131 47.5763L317.547 48.2003C317.219 48.3283 316.977 48.4743 316.821 48.6383C316.665 48.7983 316.587 49.0103 316.587 49.2743V49.5383H321.021V50.7143H315.303ZM322.673 50.7143L327.893 42.9983H329.195L323.981 50.7143H322.673ZM328.163 50.8403C327.883 50.8403 327.619 50.7743 327.371 50.6423C327.127 50.5103 326.931 50.3123 326.783 50.0483C326.635 49.7803 326.561 49.4463 326.561 49.0463C326.561 48.6463 326.635 48.3143 326.783 48.0503C326.931 47.7823 327.127 47.5823 327.371 47.4503C327.619 47.3183 327.883 47.2523 328.163 47.2523C328.451 47.2523 328.719 47.3183 328.967 47.4503C329.215 47.5823 329.413 47.7823 329.561 48.0503C329.713 48.3143 329.789 48.6463 329.789 49.0463C329.789 49.4463 329.713 49.7803 329.561 50.0483C329.413 50.3123 329.215 50.5103 328.967 50.6423C328.719 50.7743 328.451 50.8403 328.163 50.8403ZM328.163 50.0063C328.355 50.0063 328.509 49.9323 328.625 49.7843C328.745 49.6363 328.805 49.3903 328.805 49.0463C328.805 48.7023 328.745 48.4563 328.625 48.3083C328.509 48.1563 328.355 48.0803 328.163 48.0803C327.971 48.0803 327.817 48.1563 327.701 48.3083C327.585 48.4563 327.527 48.7023 327.527 49.0463C327.527 49.3903 327.585 49.6363 327.701 49.7843C327.817 49.9323 327.971 50.0063 328.163 50.0063ZM323.717 46.4243C323.437 46.4243 323.175 46.3583 322.931 46.2263C322.687 46.0943 322.489 45.8963 322.337 45.6323C322.189 45.3643 322.115 45.0303 322.115 44.6303C322.115 44.2343 322.189 43.9043 322.337 43.6403C322.489 43.3763 322.687 43.1783 322.931 43.0463C323.175 42.9143 323.437 42.8483 323.717 42.8483C324.009 42.8483 324.277 42.9143 324.521 43.0463C324.769 43.1783 324.967 43.3763 325.115 43.6403C325.267 43.9043 325.343 44.2343 325.343 44.6303C325.343 45.0303 325.267 45.3643 325.115 45.6323C324.967 45.8963 324.769 46.0943 324.521 46.2263C324.277 46.3583 324.009 46.4243 323.717 46.4243ZM323.717 45.5963C323.905 45.5963 324.059 45.5223 324.179 45.3743C324.299 45.2263 324.359 44.9783 324.359 44.6303C324.359 44.2903 324.299 44.0463 324.179 43.8983C324.059 43.7463 323.905 43.6703 323.717 43.6703C323.529 43.6703 323.377 43.7463 323.261 43.8983C323.145 44.0463 323.087 44.2903 323.087 44.6303C323.087 44.9783 323.145 45.2263 323.261 45.3743C323.377 45.5223 323.529 45.5963 323.717 45.5963Z" fill="#FE4D16"/>
<path d="M289.616 74.7857C289.902 75.1072 289.929 75.4464 289.696 75.8036L288.304 78.0536C288.036 78.3929 287.705 78.5 287.313 78.375L284.5 77.25C284.143 77.0893 283.973 76.8125 283.991 76.4197L284.179 74.625C283.232 74.3036 282.268 74.1429 281.286 74.1429C280.304 74.1429 279.339 74.3036 278.393 74.625L278.554 76.4197C278.571 76.8125 278.402 77.0893 278.045 77.25L275.232 78.375C274.821 78.5 274.491 78.3929 274.241 78.0536L272.848 75.8036C272.652 75.4464 272.688 75.1072 272.955 74.7857C274.527 73.2679 276.304 72.25 278.286 71.7322C280.286 71.2143 282.286 71.2143 284.286 71.7322C286.268 72.25 288.045 73.2679 289.616 74.7857ZM275.741 68.9197C275.455 68.8125 275.304 68.5893 275.286 68.25V65.2232C275.304 64.9197 275.473 64.75 275.795 64.7143H278.848C279.17 64.7322 279.393 64.875 279.518 65.1429C279.625 65.4464 279.571 65.7143 279.357 65.9464L278.527 66.75L280.08 68.2768C280.42 68.6161 280.821 68.7857 281.286 68.7857C281.75 68.7857 282.152 68.6161 282.491 68.2768L285.946 64.8482C286.143 64.6697 286.348 64.6697 286.563 64.8482L287.152 65.4375C287.33 65.6518 287.33 65.8572 287.152 66.0536L283.723 69.5089C282.92 70.2768 281.955 70.5982 280.83 70.4732C280.027 70.3482 279.339 69.9911 278.768 69.4018L277.321 67.9822L276.518 68.7589C276.339 68.9554 276.08 69.0089 275.741 68.9197Z" fill="#FFAB91"/>
<path d="M296.569 67.4983H298.411L300.715 72.3823H300.601L302.905 67.4983H304.687V75.2143H303.391V68.9443H303.595L301.075 74.3383H300.235L297.727 68.9743H297.853V75.2143H296.569V67.4983ZM307.365 68.2723C307.113 68.2723 306.915 68.2043 306.771 68.0683C306.627 67.9283 306.555 67.7403 306.555 67.5043C306.555 67.2723 306.627 67.0883 306.771 66.9523C306.915 66.8163 307.113 66.7483 307.365 66.7483C307.613 66.7483 307.809 66.8163 307.953 66.9523C308.097 67.0883 308.169 67.2723 308.169 67.5043C308.169 67.7403 308.097 67.9283 307.953 68.0683C307.809 68.2043 307.613 68.2723 307.365 68.2723ZM306.723 75.2143V69.3943H308.007V75.2143H306.723ZM312.229 75.3763C311.673 75.3763 311.197 75.2983 310.801 75.1423C310.409 74.9863 310.107 74.7663 309.895 74.4823C309.687 74.1943 309.581 73.8523 309.577 73.4563H310.771C310.787 73.7643 310.911 73.9923 311.143 74.1403C311.375 74.2843 311.689 74.3563 312.085 74.3563C312.301 74.3563 312.495 74.3243 312.667 74.2603C312.839 74.1923 312.973 74.1023 313.069 73.9903C313.169 73.8743 313.219 73.7463 313.219 73.6063C313.219 73.4263 313.153 73.2843 313.021 73.1803C312.893 73.0763 312.685 72.9823 312.397 72.8983L311.167 72.4723C310.703 72.3123 310.347 72.0983 310.099 71.8303C309.851 71.5623 309.727 71.2423 309.727 70.8703C309.727 70.3863 309.945 69.9963 310.381 69.7003C310.817 69.4043 311.397 69.2563 312.121 69.2563C312.857 69.2563 313.425 69.4143 313.825 69.7303C314.225 70.0463 314.431 70.4443 314.443 70.9243H313.225C313.201 70.7163 313.099 70.5543 312.919 70.4383C312.739 70.3183 312.473 70.2583 312.121 70.2583C311.797 70.2583 311.543 70.3283 311.359 70.4683C311.179 70.6043 311.089 70.7603 311.089 70.9363C311.089 71.2443 311.353 71.4743 311.881 71.6263L313.195 72.1063C313.655 72.2583 314.011 72.4543 314.263 72.6943C314.515 72.9343 314.641 73.2383 314.641 73.6063C314.641 73.9103 314.539 74.1983 314.335 74.4703C314.135 74.7383 313.855 74.9563 313.495 75.1243C313.135 75.2923 312.713 75.3763 312.229 75.3763ZM318.197 75.3763C317.641 75.3763 317.165 75.2983 316.769 75.1423C316.377 74.9863 316.075 74.7663 315.863 74.4823C315.655 74.1943 315.549 73.8523 315.545 73.4563H316.739C316.755 73.7643 316.879 73.9923 317.111 74.1403C317.343 74.2843 317.657 74.3563 318.053 74.3563C318.269 74.3563 318.463 74.3243 318.635 74.2603C318.807 74.1923 318.941 74.1023 319.037 73.9903C319.137 73.8743 319.187 73.7463 319.187 73.6063C319.187 73.4263 319.121 73.2843 318.989 73.1803C318.861 73.0763 318.653 72.9823 318.365 72.8983L317.135 72.4723C316.671 72.3123 316.315 72.0983 316.067 71.8303C315.819 71.5623 315.695 71.2423 315.695 70.8703C315.695 70.3863 315.913 69.9963 316.349 69.7003C316.785 69.4043 317.365 69.2563 318.089 69.2563C318.825 69.2563 319.393 69.4143 319.793 69.7303C320.193 70.0463 320.399 70.4443 320.411 70.9243H319.193C319.169 70.7163 319.067 70.5543 318.887 70.4383C318.707 70.3183 318.441 70.2583 318.089 70.2583C317.765 70.2583 317.511 70.3283 317.327 70.4683C317.147 70.6043 317.057 70.7603 317.057 70.9363C317.057 71.2443 317.321 71.4743 317.849 71.6263L319.163 72.1063C319.623 72.2583 319.979 72.4543 320.231 72.6943C320.483 72.9343 320.609 73.2383 320.609 73.6063C320.609 73.9103 320.507 74.1983 320.303 74.4703C320.103 74.7383 319.823 74.9563 319.463 75.1243C319.103 75.2923 318.681 75.3763 318.197 75.3763ZM324.147 75.3763C323.651 75.3763 323.199 75.2483 322.791 74.9923C322.387 74.7363 322.063 74.3783 321.819 73.9183C321.579 73.4583 321.459 72.9243 321.459 72.3163C321.459 71.6763 321.579 71.1283 321.819 70.6723C322.059 70.2163 322.381 69.8663 322.785 69.6223C323.193 69.3783 323.647 69.2563 324.147 69.2563C324.607 69.2563 325.001 69.3483 325.329 69.5323C325.657 69.7163 325.921 69.9643 326.121 70.2763C326.325 70.5883 326.463 70.9423 326.535 71.3383C326.607 71.7303 326.615 72.1363 326.559 72.5563H322.485V71.8423H325.665L325.389 72.0223C325.401 71.8183 325.391 71.6143 325.359 71.4103C325.327 71.2063 325.265 71.0203 325.173 70.8523C325.085 70.6803 324.959 70.5423 324.795 70.4383C324.631 70.3343 324.423 70.2823 324.171 70.2823C323.859 70.2823 323.595 70.3603 323.379 70.5163C323.167 70.6723 323.007 70.8823 322.899 71.1463C322.791 71.4103 322.737 71.7043 322.737 72.0283V72.5443C322.737 72.8923 322.789 73.2003 322.893 73.4683C322.997 73.7363 323.153 73.9483 323.361 74.1043C323.569 74.2603 323.831 74.3383 324.147 74.3383C324.451 74.3383 324.703 74.2683 324.903 74.1283C325.107 73.9843 325.235 73.7703 325.287 73.4863H326.589C326.529 73.8623 326.389 74.1923 326.169 74.4763C325.949 74.7603 325.667 74.9823 325.323 75.1423C324.979 75.2983 324.587 75.3763 324.147 75.3763ZM330.092 75.3763C329.612 75.3763 329.172 75.2483 328.772 74.9923C328.372 74.7363 328.054 74.3783 327.818 73.9183C327.582 73.4543 327.464 72.9103 327.464 72.2863C327.464 71.6703 327.578 71.1363 327.806 70.6843C328.038 70.2283 328.346 69.8763 328.73 69.6283C329.114 69.3803 329.54 69.2563 330.008 69.2563C330.436 69.2563 330.808 69.3603 331.124 69.5683C331.44 69.7723 331.682 70.0743 331.85 70.4743C332.022 70.8703 332.108 71.3563 332.108 71.9323H331.688C331.688 71.6083 331.622 71.3323 331.49 71.1043C331.358 70.8763 331.186 70.7043 330.974 70.5883C330.762 70.4683 330.532 70.4083 330.284 70.4083C329.996 70.4083 329.736 70.4863 329.504 70.6423C329.276 70.7943 329.096 71.0123 328.964 71.2963C328.832 71.5763 328.766 71.9063 328.766 72.2863C328.766 72.6783 328.832 73.0183 328.964 73.3063C329.096 73.5943 329.276 73.8183 329.504 73.9783C329.736 74.1343 329.994 74.2123 330.278 74.2123C330.514 74.2123 330.738 74.1503 330.95 74.0263C331.166 73.8983 331.342 73.7203 331.478 73.4923C331.618 73.2603 331.688 72.9863 331.688 72.6703H332.108C332.108 73.2663 332.016 73.7663 331.832 74.1703C331.652 74.5703 331.408 74.8723 331.1 75.0763C330.796 75.2763 330.46 75.3763 330.092 75.3763ZM331.922 75.2143L331.688 73.7983V66.9943H332.978V75.2143H331.922ZM340.309 75.3763C339.633 75.3763 339.045 75.2123 338.545 74.8843C338.045 74.5563 337.657 74.0903 337.381 73.4863C337.109 72.8823 336.973 72.1623 336.973 71.3263C336.973 70.4583 337.117 69.7303 337.405 69.1423C337.693 68.5503 338.089 68.1043 338.593 67.8043C339.097 67.5003 339.669 67.3483 340.309 67.3483C341.189 67.3483 341.881 67.5643 342.385 67.9963C342.893 68.4243 343.223 68.9803 343.375 69.6643L342.001 69.9223C341.869 69.4983 341.657 69.1563 341.365 68.8963C341.077 68.6363 340.725 68.5063 340.309 68.5063C339.949 68.5063 339.621 68.6123 339.325 68.8243C339.029 69.0323 338.793 69.3463 338.617 69.7663C338.445 70.1823 338.359 70.7023 338.359 71.3263C338.359 71.9103 338.433 72.4183 338.581 72.8503C338.733 73.2783 338.953 73.6103 339.241 73.8463C339.533 74.0823 339.889 74.2003 340.309 74.2003C340.841 74.2003 341.255 74.0583 341.551 73.7743C341.851 73.4903 342.001 73.1263 342.001 72.6823H343.381C343.381 73.2503 343.255 73.7343 343.003 74.1343C342.755 74.5343 342.401 74.8423 341.941 75.0583C341.485 75.2703 340.941 75.3763 340.309 75.3763ZM348.378 75.2143L348.216 73.8403V71.4703C348.216 71.0303 348.126 70.7083 347.946 70.5043C347.766 70.3003 347.472 70.1983 347.064 70.1983C346.828 70.1983 346.622 70.2323 346.446 70.3003C346.27 70.3683 346.132 70.4703 346.032 70.6063C345.936 70.7383 345.888 70.9023 345.888 71.0983H344.478C344.478 70.6623 344.582 70.3103 344.79 70.0423C345.002 69.7703 345.3 69.5723 345.684 69.4483C346.072 69.3203 346.532 69.2563 347.064 69.2563C347.548 69.2563 347.972 69.3363 348.336 69.4963C348.704 69.6523 348.99 69.8963 349.194 70.2283C349.398 70.5603 349.5 70.9883 349.5 71.5123V75.2143H348.378ZM346.458 75.3763C345.966 75.3763 345.556 75.2903 345.228 75.1183C344.904 74.9463 344.66 74.7203 344.496 74.4403C344.332 74.1603 344.25 73.8583 344.25 73.5343C344.25 73.1623 344.346 72.8523 344.538 72.6043C344.734 72.3563 345.006 72.1723 345.354 72.0523C345.706 71.9283 346.116 71.8663 346.584 71.8663C346.896 71.8663 347.194 71.8923 347.478 71.9443C347.766 71.9923 348.052 72.0603 348.336 72.1483V72.9103C348.108 72.8303 347.858 72.7683 347.586 72.7243C347.318 72.6803 347.066 72.6583 346.83 72.6583C346.482 72.6583 346.192 72.7263 345.96 72.8623C345.732 72.9943 345.618 73.2183 345.618 73.5343C345.618 73.7703 345.71 73.9723 345.894 74.1403C346.078 74.3083 346.37 74.3923 346.77 74.3923C347.066 74.3923 347.322 74.3263 347.538 74.1943C347.754 74.0583 347.92 73.8903 348.036 73.6903C348.156 73.4903 348.216 73.2923 348.216 73.0963H348.522C348.522 73.5043 348.442 73.8823 348.282 74.2303C348.126 74.5743 347.894 74.8523 347.586 75.0643C347.282 75.2723 346.906 75.3763 346.458 75.3763ZM351.254 75.2143V66.9943H352.538V75.2143H351.254ZM354.469 75.2143V66.9943H355.753V75.2143H354.469ZM359.825 75.3763C359.269 75.3763 358.793 75.2983 358.397 75.1423C358.005 74.9863 357.703 74.7663 357.491 74.4823C357.283 74.1943 357.177 73.8523 357.173 73.4563H358.367C358.383 73.7643 358.507 73.9923 358.739 74.1403C358.971 74.2843 359.285 74.3563 359.681 74.3563C359.897 74.3563 360.091 74.3243 360.263 74.2603C360.435 74.1923 360.569 74.1023 360.665 73.9903C360.765 73.8743 360.815 73.7463 360.815 73.6063C360.815 73.4263 360.749 73.2843 360.617 73.1803C360.489 73.0763 360.281 72.9823 359.993 72.8983L358.763 72.4723C358.299 72.3123 357.943 72.0983 357.695 71.8303C357.447 71.5623 357.323 71.2423 357.323 70.8703C357.323 70.3863 357.541 69.9963 357.977 69.7003C358.413 69.4043 358.993 69.2563 359.717 69.2563C360.453 69.2563 361.021 69.4143 361.421 69.7303C361.821 70.0463 362.027 70.4443 362.039 70.9243H360.821C360.797 70.7163 360.695 70.5543 360.515 70.4383C360.335 70.3183 360.069 70.2583 359.717 70.2583C359.393 70.2583 359.139 70.3283 358.955 70.4683C358.775 70.6043 358.685 70.7603 358.685 70.9363C358.685 71.2443 358.949 71.4743 359.477 71.6263L360.791 72.1063C361.251 72.2583 361.607 72.4543 361.859 72.6943C362.111 72.9343 362.237 73.2383 362.237 73.6063C362.237 73.9103 362.135 74.1983 361.931 74.4703C361.731 74.7383 361.451 74.9563 361.091 75.1243C360.731 75.2923 360.309 75.3763 359.825 75.3763Z" fill="#757575"/>
</g>
<defs>
<filter id="filter0_d_3001_5945" x="119.308" y="60.6923" width="267.385" height="225.385" filterUnits="userSpaceOnUse" color-interpolation-filters="sRGB">
<feFlood flood-opacity="0" result="BackgroundImageFix"/>
<feColorMatrix in="SourceAlpha" type="matrix" values="0 0 0 0 0 0 0 0 0 0 0 0 0 0 0 0 0 0 127 0" result="hardAlpha"/>
<feOffset dy="3.38462"/>
<feGaussianBlur stdDeviation="11.8462"/>
<feComposite in2="hardAlpha" operator="out"/>
<feColorMatrix type="matrix" values="0 0 0 0 0 0 0 0 0 0 0 0 0 0 0 0 0 0 0.08 0"/>
<feBlend mode="normal" in2="BackgroundImageFix" result="effect1_dropShadow_3001_5945"/>
<feBlend mode="normal" in="SourceGraphic" in2="effect1_dropShadow_3001_5945" result="shape"/>
</filter>
<filter id="filter1_d_3001_5945" x="-1.90735e-06" y="0.42857" width="408" height="121" filterUnits="userSpaceOnUse" color-interpolation-filters="sRGB">
<feFlood flood-opacity="0" result="BackgroundImageFix"/>
<feColorMatrix in="SourceAlpha" type="matrix" values="0 0 0 0 0 0 0 0 0 0 0 0 0 0 0 0 0 0 127 0" result="hardAlpha"/>
<feOffset dy="3.42857"/>
<feGaussianBlur stdDeviation="12"/>
<feComposite in2="hardAlpha" operator="out"/>
<feColorMatrix type="matrix" values="0 0 0 0 0 0 0 0 0 0 0 0 0 0 0 0 0 0 0.08 0"/>
<feBlend mode="normal" in2="BackgroundImageFix" result="effect1_dropShadow_3001_5945"/>
<feBlend mode="normal" in="SourceGraphic" in2="effect1_dropShadow_3001_5945" result="shape"/>
</filter>
<clipPath id="clip0_3001_5945">
<rect width="214.923" height="113.385" fill="white" transform="translate(145.538 112.615)"/>
</clipPath>
</defs>
</svg>
