<svg width="160" height="160" viewBox="0 0 160 160" fill="none" xmlns="http://www.w3.org/2000/svg">
<path d="M85.7559 146.754C80.9684 145.236 79.1769 143.058 80.8521 140.792C81.3295 140.146 81.6602 139.574 81.587 139.519C81.5137 139.465 78.8203 137.573 75.6017 135.316C72.383 133.059 65.4328 128.153 60.1568 124.415L50.5641 117.618L49.2697 118.407C48.539 118.852 47.2807 119.197 46.3802 119.198C45.5028 119.198 44.5886 119.395 44.3486 119.635C44.0804 119.904 43.1772 119.984 42.0051 119.843C39.5663 119.551 39.5734 119.551 37.8853 119.827C36.982 119.975 36.0448 119.849 35.3252 119.481C34.7009 119.162 33.4244 118.904 32.4886 118.907C31.3481 118.911 30.4019 118.628 29.6188 118.049C28.9762 117.574 28.1467 117.216 27.7755 117.253C26.0495 117.426 25.1796 117.142 24.0859 116.048C23.3977 115.36 22.4895 114.867 21.911 114.867C21.3152 114.867 20.476 114.394 19.814 113.685C19.2069 113.035 18.4132 112.503 18.0502 112.503C17.6872 112.503 16.8864 111.957 16.2707 111.29C14.8186 109.716 14.5685 109.464 13.3501 108.351C12.7894 107.838 12.3305 107.038 12.3305 106.572C12.3305 106.105 11.9011 105.386 11.3761 104.973C10.8512 104.56 10.3094 103.711 10.1722 103.087C10.035 102.462 9.57829 101.639 9.1573 101.258C8.70842 100.852 8.39189 100.053 8.39189 99.3266C8.39189 98.6453 8.20349 97.8995 7.97322 97.6692C7.74296 97.439 7.54239 96.6502 7.52752 95.9165C7.51262 95.1828 7.33505 94.3732 7.13288 94.1175C6.68919 93.5562 6.59131 91.5237 6.97787 90.8983C7.13081 90.6508 6.97982 90.0541 6.64232 89.5723C5.94203 88.5724 5.85061 87.1832 6.41563 86.1274C6.67291 85.6467 6.66132 84.9993 6.38108 84.1954C6.04888 83.2424 6.09205 82.7209 6.58496 81.7328C6.92889 81.0434 7.2103 79.8314 7.2103 79.0396C7.2103 78.2478 7.47052 77.2559 7.78856 76.8354C8.10663 76.4149 8.37248 75.5187 8.37936 74.8439C8.38627 74.1691 8.74639 73.1663 9.17963 72.6155C9.61288 72.0647 9.96735 71.2672 9.96735 70.8431C9.96735 70.4191 10.2822 69.6495 10.667 69.1329C11.7631 67.6613 12.1902 66.523 13.3103 62.0887C15.1346 54.8664 15.2974 54.6722 23.1618 50.3382C26.986 48.2307 29.1895 47.1525 36.3563 43.8817C39.1484 42.6074 48.8577 39.0474 52.5217 37.9545C59.7183 35.8078 70.7063 33.7454 79.2876 32.9306C91.2422 31.7956 111.871 33.0342 115.917 35.1299C117.023 35.7027 120.799 39.5677 122.125 41.4841C125.121 45.8138 126.616 50.6644 126.605 56.0173C126.596 60.4202 126.097 61.7607 123.41 64.6019L121.413 66.713L123.537 68.8318C129.965 75.2456 135.436 81.8891 142.799 92.222C149.887 102.169 153.867 110.275 155.525 118.142C156.268 121.664 156.243 122.199 155.289 123.152C154.568 123.873 154.549 124.015 155.092 124.558C155.872 125.338 155.866 127.053 155.08 128.176C154.741 128.66 153.722 129.453 152.816 129.937C151.396 130.696 150.567 130.818 146.835 130.818C143.773 130.818 141.81 130.608 140.14 130.101L137.776 129.384L121.037 135.086C111.831 138.222 103.589 141.045 102.722 141.358C101.341 141.858 101.163 142.062 101.279 143.012C101.463 144.521 99.711 146.245 97.2513 146.976C94.4488 147.808 88.732 147.698 85.7559 146.754ZM97.0959 145.906C98.9952 145.342 100.507 143.805 99.8287 143.127C99.4503 142.749 98.396 142.968 94.8745 144.157L90.4012 145.667L86.577 143.02L82.7529 140.372L81.9636 141.161C80.0348 143.09 83.3366 145.434 89.528 146.532C90.9422 146.782 95.3813 146.415 97.0959 145.906ZM90.702 141.748C90.6878 138.279 89.627 132.412 88.5121 129.636C85.7871 122.852 74.2208 104.218 64.9664 91.7036C63.414 89.6044 61.8044 87.3551 61.3895 86.7052C60.9746 86.0553 59.3375 83.9082 57.7516 81.9338C54.97 78.4711 54.0842 77.0119 55.592 78.3764C57.4049 80.0171 67.4844 93.777 73.7956 103.227C82.7964 116.704 87.8489 125.564 89.6932 131.104C90.6585 134.003 91.6147 141.313 91.2241 142.806C91.0831 143.345 91.1998 143.619 91.5708 143.619C92.1659 143.619 107.766 138.335 129.111 130.905C136.26 128.416 144.59 125.539 147.623 124.511C150.656 123.483 153.447 122.481 153.826 122.285C154.672 121.847 154.693 120.61 153.913 117.23C153.143 113.896 152.566 112.503 151.957 112.503C151.358 112.503 111.092 125.777 101.096 129.269C93.9243 131.775 91.132 132.6 92.2851 131.874C92.8246 131.535 131.203 118.536 145.949 113.699C149.361 112.579 152.153 111.511 152.153 111.324C152.153 110.62 146.339 99.5977 144.681 97.1578C143.73 95.7581 140.611 91.4887 137.751 87.6704C123.941 69.2329 114.402 61.0985 103.313 58.3038C100.051 57.4815 95.4763 57.7582 86.0149 59.3505C76.3966 60.9691 66.5651 63.7117 61.7606 66.1165C58.3197 67.8387 57.6694 68.6285 54.813 74.5543C52.4948 79.3637 51.8287 80.407 50.4216 81.4322C49.0233 82.451 48.4994 82.6116 47.0832 82.4559C45.6629 82.2997 45.1788 82.4497 43.9496 83.4266C40.2439 86.3714 34.8643 88.0532 28.1614 88.3622L23.3144 88.5857L23.5448 92.5603C23.6715 94.7463 23.903 96.6516 24.0593 96.7942C24.2155 96.9368 28.3473 99.894 33.241 103.366C41.4655 109.201 42.2586 109.672 43.7237 109.597C44.5972 109.552 45.6105 109.213 45.9809 108.843C46.747 108.077 48.2433 107.97 49.4168 108.598C50.6514 109.259 51.7898 112.233 51.6703 114.485L51.5674 116.423L55.8762 119.456C58.2461 121.123 61.7803 123.616 63.7299 124.995C78.5813 135.498 90.1662 143.572 90.4142 143.593C90.5767 143.607 90.7062 142.777 90.702 141.748ZM97.0991 125.282C96.3511 124.758 96.2237 124.305 96.2237 122.173C96.2237 120.261 96.3693 119.621 96.8467 119.438C97.7164 119.104 101.051 119.15 101.606 119.503C101.859 119.664 102.114 120.838 102.173 122.112C102.266 124.125 102.162 124.524 101.375 125.161C100.271 126.055 98.2827 126.111 97.0991 125.282ZM100.576 124.9C101.547 124.398 101.738 124.058 101.738 122.832V121.365H99.1777H96.6176V122.794C96.6176 124.283 97.0609 124.889 98.39 125.216C98.8232 125.322 99.2309 125.43 99.2958 125.455C99.3607 125.48 99.9367 125.23 100.576 124.9ZM101.344 120.423C101.344 119.947 100.336 119.593 98.9808 119.593C97.5432 119.593 96.5624 119.973 96.84 120.422C97.1242 120.882 101.344 120.882 101.344 120.423ZM108.664 122.717C108.033 122.534 107.371 122.154 107.193 121.874C106.623 120.977 106.803 116.978 107.436 116.452C108.171 115.843 111.86 115.854 112.6 116.468C113.451 117.174 113.356 121.27 112.471 122.039C111.534 122.853 110.045 123.118 108.664 122.717ZM111.978 121.562C112.443 121.098 112.766 120.249 112.766 119.494V118.214H110.206H107.646V120.056C107.646 121.479 107.803 121.939 108.335 122.078C109.92 122.493 111.234 122.306 111.978 121.562ZM112.361 117.359C112.748 116.999 111.331 116.454 110.009 116.454C108.391 116.454 107.091 117.065 108.051 117.374C108.37 117.477 108.896 117.652 109.221 117.762C109.814 117.964 112.013 117.682 112.361 117.359ZM119.732 119.577C117.797 119.013 117.492 118.505 117.492 115.845C117.492 113.031 117.636 112.897 120.647 112.897C123.228 112.897 123.794 113.532 123.794 116.422C123.794 117.782 123.595 118.866 123.302 119.097C122.518 119.714 120.934 119.927 119.732 119.577ZM122.639 118.791C123.209 118.486 123.4 117.962 123.4 116.705V115.027L120.842 115.045L118.285 115.063L118.282 116.705C118.28 118.137 118.418 118.396 119.363 118.741C120.808 119.269 121.72 119.283 122.639 118.791ZM122.753 114.172C123.324 113.848 122.092 113.304 120.774 113.297C119.332 113.29 118.28 113.627 118.28 114.095C118.28 114.744 121.644 114.802 122.753 114.172ZM128.774 115.547C128.319 115.214 128.008 114.267 127.849 112.731C127.646 110.764 127.72 110.336 128.338 109.884C129.252 109.216 132.492 109.19 133.34 109.845C134.36 110.633 134.412 114.433 133.416 115.429C132.663 116.182 129.743 116.256 128.774 115.547ZM132.766 115.041C133.401 114.596 133.641 114.03 133.641 112.973V111.519H131.081H128.521V113.132C128.521 114.417 128.702 114.833 129.407 115.174C130.678 115.787 131.762 115.744 132.766 115.041ZM132.361 111.074C132.848 110.943 133.247 110.688 133.247 110.506C133.247 109.953 130.603 109.642 129.428 110.055L128.324 110.444L129.308 110.858C130.472 111.347 131.16 111.395 132.361 111.074ZM139.647 112.097C138.848 111.776 138.761 111.474 138.761 109.013C138.761 106.89 138.899 106.233 139.384 106.047C140.326 105.685 142.523 105.76 143.659 106.192C144.592 106.547 144.669 106.76 144.669 109.004C144.669 110.854 144.505 111.556 143.98 111.955C143.194 112.552 140.96 112.625 139.647 112.097ZM143.513 111.308C144.033 111.03 144.275 110.482 144.275 109.585V108.269H141.715H139.155V109.579C139.155 110.411 139.407 111.035 139.844 111.29C140.743 111.814 142.552 111.823 143.513 111.308ZM143.476 107.398C143.987 107.075 143.987 107.007 143.476 106.827C142.749 106.571 141.227 106.45 139.943 106.547C138.99 106.618 138.983 106.639 139.723 107.199C140.581 107.848 142.596 107.955 143.476 107.398ZM100.234 111.312C92.8488 110.237 83.7326 106.266 78.5751 101.878C70.9246 95.3685 67.5242 88.6987 67.9782 81.0923C68.8652 66.2346 87.6134 58.9054 109.03 65.0441C120.791 68.4152 129.834 76.2359 132.651 85.4713C134.205 90.5643 133.811 94.9428 131.356 99.864C127.254 108.086 113.308 113.216 100.234 111.312ZM115.72 109.371C130.34 105.618 136.461 93.4849 129.837 81.388C127.65 77.3954 126.392 75.8669 123.105 73.2106C116.032 67.4952 106.826 64.2932 96.0268 63.7922C82.8519 63.1809 73.0632 68.2379 69.7269 77.379C68.0676 81.9251 69.151 88.9723 72.1877 93.3859C74.1419 96.2263 78.381 100.563 81.1 102.503C86.2582 106.184 93.9602 109.249 100.3 110.145C104.173 110.692 112.128 110.293 115.72 109.371ZM106.333 108.807C105.719 107.87 105.82 107.382 106.628 107.384C106.863 107.384 107.092 107.916 107.138 108.566C107.237 109.992 107.13 110.024 106.333 108.807ZM108.512 108.88C108.252 108.62 108.04 108.23 108.04 108.013C108.04 107.794 108.25 107.829 108.512 108.092C109.201 108.781 109.627 108.67 109.35 107.875C109.126 107.233 109.156 107.23 109.803 107.838C110.518 108.51 110.335 109.352 109.474 109.352C109.205 109.352 108.772 109.14 108.512 108.88ZM111.486 108.533C110.645 108.043 110.565 107.319 111.388 107.635C111.712 107.759 111.978 107.655 111.978 107.402C111.978 107.149 112.156 107.052 112.372 107.186C112.828 107.468 112.911 108.964 112.471 108.947C112.308 108.94 111.865 108.754 111.486 108.533ZM95.2575 107.807C95.1338 107.607 95.3448 107.361 95.7266 107.262C96.3824 107.091 96.3827 107.078 95.7314 107.035C94.9838 106.985 94.7532 105.808 95.4911 105.808C96.2636 105.808 96.9983 107.121 96.5368 107.677C96.0518 108.262 95.5689 108.311 95.2575 107.807ZM91.8869 106.193C91.6526 105.756 91.5682 105.224 91.6993 105.012C92.1171 104.336 92.8616 104.601 93.32 105.59C93.6768 106.36 93.6511 106.592 93.1893 106.769C92.374 107.082 92.3586 107.075 91.8869 106.193ZM107.436 106.162C107.292 105.707 107.324 105.188 107.508 105.008C107.948 104.579 109.749 106.06 109.425 106.584C108.988 107.292 107.709 107.02 107.436 106.162ZM119.567 106.149C119.203 105.785 119.326 105.56 120.112 105.153C121.449 104.459 121.507 104.476 121.36 105.508C121.217 106.51 120.267 106.849 119.567 106.149ZM89.6095 105.004C89.0246 104.068 89.2994 103.381 90.1315 103.701C90.7153 103.925 90.9647 105.808 90.4105 105.808C90.246 105.808 89.8855 105.446 89.6095 105.004ZM122.308 104.622C121.967 104.077 121.98 103.863 122.364 103.716C122.64 103.61 123.067 103.844 123.312 104.236C123.652 104.782 123.639 104.995 123.255 105.143C122.979 105.249 122.553 105.014 122.308 104.622ZM93.3862 103.937C92.8372 102.851 92.8261 102.657 93.3123 102.657C93.9859 102.657 94.3802 103.5 94.177 104.505C94.0646 105.06 93.8909 104.936 93.3862 103.937ZM124.239 103.496C123.386 102.841 123.366 102.754 124.01 102.507C124.726 102.232 125.352 102.803 125.364 103.74C125.371 104.362 125.361 104.359 124.239 103.496ZM119.289 103.022C118.716 102.445 118.638 102.141 118.977 101.802C119.566 101.214 120.643 102.052 120.643 103.099C120.643 104.026 120.264 104.005 119.289 103.022ZM97.9588 100.929C92.3074 99.4286 87.3627 96.5716 83.8498 92.7773C81.0713 89.7761 79.874 87.7174 79.0605 84.5421C77.992 80.3712 79.0213 76.0333 81.7482 73.2153C82.4295 72.5113 82.7531 71.9353 82.4675 71.9353C82.046 71.9353 82.05 71.8098 82.4887 71.2689C82.856 70.8161 82.8715 70.6973 82.5369 70.8983C82.2662 71.0609 82.0446 71.1094 82.0446 71.0061C82.0446 70.9027 81.937 70.5377 81.8055 70.1951C81.4573 69.2876 82.543 69.4122 83.1266 70.3468C83.598 71.1016 83.6824 71.0869 86.4236 69.7732C87.9709 69.0317 90.1789 68.2295 91.3304 67.9904C93.5655 67.5264 93.6425 67.3304 92.3703 65.3421C91.8693 64.559 91.8801 64.4314 92.4658 64.2066C93.5482 63.7913 94.0112 64.5308 94.2223 67.012C94.2414 67.2365 95.8312 67.4466 97.9193 67.5006C99.9826 67.554 102.935 67.9411 104.677 68.3868C106.379 68.8221 107.838 69.1782 107.92 69.1782C108.001 69.1782 107.878 68.8237 107.646 68.3905C107.368 67.871 107.361 67.6028 107.624 67.6028C107.845 67.6028 108.141 68.0649 108.282 68.6298C108.455 69.3189 109.009 69.8524 109.964 70.2509C114.44 72.1187 119.746 76.6598 121.89 80.4576C122.545 81.6192 123.172 82.5696 123.283 82.5696C123.393 82.5696 124.01 82.1265 124.654 81.585C126.972 79.6341 127.826 80.5684 128.053 85.3039C128.208 88.5627 128.171 88.7681 127.379 88.9751C126.918 89.0957 126.056 89.0483 125.463 88.8698C124.506 88.5817 124.485 88.5415 125.271 88.5115C126.89 88.4496 126.191 86.5083 124.55 86.5083C124.351 86.5083 124.188 87.1891 124.188 88.0211C124.188 93.3768 120.352 98.145 114.124 100.531C111.816 101.415 110.617 101.603 106.464 101.73C102.203 101.86 101.059 101.753 97.9588 100.929ZM112.626 99.864C119.069 97.899 123.007 93.4791 123.007 88.2105V86.5083H119.485C117.548 86.5083 115.863 86.3459 115.74 86.1475C115.618 85.949 115.692 85.3287 115.904 84.7689C116.261 83.8321 116.477 83.7512 118.632 83.7512C122.348 83.7512 122.425 83.6581 120.976 80.9395C119.469 78.1122 115.695 74.4788 112.289 72.5774C108.469 70.4448 108.022 70.3407 109.32 71.887C110.657 73.4806 110.66 73.7035 109.361 74.9081C108.787 75.4393 108.502 75.8739 108.727 75.8739C109.71 75.8739 113.099 79.5016 113.937 81.4506C118.288 91.5648 102.017 96.3238 93.0004 87.5739C90.0594 84.7198 89.0298 80.2958 90.6776 77.5935C91.5941 76.0904 93.6762 74.455 95.1374 74.0903L96.2173 73.8208L95.039 72.72C93.6654 71.4369 93.4729 69.8073 94.6224 69.1921C95.6569 68.6384 97.783 68.6882 98.9808 69.294C100.263 69.9425 101.178 71.777 100.579 72.4984C100.245 72.9011 100.351 73.0756 101.04 73.2603C102.948 73.7716 103.611 73.5767 103.416 72.5609C103.158 71.2112 104.798 70.1878 106.767 70.4692L108.237 70.6792L106.874 70.0909C102.873 68.3631 95.7398 67.9421 91.0015 69.154C87.0902 70.1543 85.0984 71.2072 82.8344 73.4711C76.8688 79.4368 79.5317 89.6593 88.5924 95.5741C94.0372 99.1285 99.0204 100.606 105.733 100.656C108.932 100.68 110.566 100.492 112.626 99.864ZM104.644 98.9552C103.503 98.4444 102.132 96.9773 102.132 96.2673C102.132 95.4182 103.813 94.3856 105.195 94.3856C107.381 94.3856 109.203 95.7475 109.215 97.3898C109.227 99.0547 106.756 99.9009 104.644 98.9552ZM108.577 97.8496C109.451 96.4545 106.162 94.3223 104.13 94.9672C102.785 95.394 102.674 96.7753 103.899 97.8292C105.194 98.943 107.885 98.9547 108.577 97.8496ZM94.7573 97.1534C93.0513 96.1132 92.6455 94.5025 93.8448 93.5314C96.5557 91.3362 101.944 94.9106 99.5435 97.3114C98.6907 98.1642 96.2848 98.0847 94.7573 97.1534ZM98.6128 97.1288C99.6463 96.5757 99.5839 94.9706 98.4993 94.211C97.5088 93.5172 94.4347 93.3814 94.0437 94.0141C93.5086 94.8798 94.2905 96.4082 95.5482 96.9551C97.0911 97.6259 97.6271 97.6563 98.6128 97.1288ZM111.693 96.3656C109.987 95.3254 109.582 93.7148 110.781 92.7437C111.87 91.862 113.217 91.8257 114.917 92.6322C117.767 93.9846 117.426 97.1442 114.431 97.1412C113.624 97.1404 112.392 96.7914 111.693 96.3656ZM115.549 96.341C117.438 95.3304 115.423 92.8101 112.727 92.8101C110.042 92.8101 109.898 95.0417 112.51 96.1782C114.027 96.838 114.566 96.8669 115.549 96.341ZM86.88 92.427C85.4666 91.5652 84.8476 89.9623 85.585 89.0737C85.8476 88.7573 86.6616 88.3861 87.394 88.2486C89.021 87.9434 91.6485 89.1636 91.7858 90.2882C91.8362 90.7004 91.7758 90.8125 91.6518 90.5371C91.3321 89.8276 89.3513 88.8715 88.2013 88.8715C86.6352 88.8715 85.9833 89.2864 85.9833 90.2831C85.9833 92.0387 89.2457 93.3438 90.9094 92.2537C91.9236 91.5892 92.2523 91.8976 91.4186 92.7313C90.6969 93.453 88.2991 93.2922 86.88 92.427ZM117.22 91.6248C116 91.1334 115.008 89.4813 115.327 88.4743C115.912 86.6331 119.421 86.5745 121.222 88.3759C122.365 89.5186 122.489 90.5144 121.6 91.4035C120.929 92.0743 118.625 92.1907 117.22 91.6248ZM120.669 91.2208C121.737 90.6493 121.617 89.4689 120.393 88.5062C118.679 87.1574 115.917 87.4925 115.917 89.0495C115.917 90.9103 118.794 92.2246 120.669 91.2208ZM82.596 85.9569C81.0299 84.3907 80.9711 84.037 82.0906 82.9175C82.7682 82.2399 83.2524 82.1207 84.6753 82.281C89.0069 82.7693 89.7711 87.296 85.5219 87.296C84.2425 87.296 83.6758 87.0366 82.596 85.9569ZM87.2197 86.1391C87.9673 85.5256 88.067 85.2361 87.7285 84.6621C87.1036 83.6024 84.7736 82.588 83.5343 82.8361C81.4048 83.2625 81.7972 85.3044 84.2107 86.3563C85.8054 87.0513 86.1373 87.0273 87.2197 86.1391ZM83.2304 79.9104C81.4413 79.0139 80.8222 77.4009 81.8369 76.2797C83.5216 74.4181 88.3465 76.1417 88.3465 78.6051C88.3465 79.4116 86.7621 80.6003 85.6879 80.5997C85.0921 80.5994 83.9863 80.2892 83.2304 79.9104ZM86.9357 79.5735C88.0458 79.1475 87.6768 77.5098 86.2787 76.6573C84.0158 75.2777 81.6918 75.9899 82.1749 77.9149C82.5485 79.4032 85.0806 80.2854 86.9357 79.5735ZM87.5479 74.8136C86.2888 73.952 85.9967 73.5073 85.9893 72.4415C85.9762 70.5553 90.0356 70.0439 91.7122 71.7204C92.7499 72.7581 92.9728 74.241 92.2063 75.0074C91.5124 75.7013 88.6723 75.5831 87.5479 74.8136ZM91.8125 74.6136C92.6403 73.7857 92.3241 72.7352 91.005 71.931C89.4634 70.991 87.8382 70.9244 86.9961 71.7665C86.135 72.6275 86.206 72.9029 87.5889 74.0665C88.8911 75.1622 90.9917 75.4343 91.8125 74.6136ZM109.534 90.3567C112.892 89.1212 114.475 86.0644 113.524 82.6521C112.846 80.22 109.672 77 106.57 75.5972C103.911 74.3949 98.6493 73.9307 95.9463 74.6601C88.5683 76.6508 89.2493 85.5289 97.0844 89.4992C101.249 91.6095 105.359 91.8926 109.534 90.3567ZM99.4646 88.4897C95.3372 87.0045 92.679 83.9052 92.679 80.5783C92.679 73.2508 105.668 72.6979 110.453 79.8218C111.762 81.7703 111.962 84.2413 110.968 86.164C109.542 88.9221 103.859 90.071 99.4646 88.4897ZM108.525 87.361C110.094 86.3913 110.797 85.0705 110.797 83.0899C110.797 81.1896 109.573 79.3323 107.353 77.8614C102.73 74.7996 97.251 74.7422 94.6294 77.728C91.6965 81.0684 94.4438 86.0219 100.29 87.9344C102.637 88.7023 106.827 88.4105 108.525 87.361ZM127.733 86.8789C127.733 85.8019 127.629 85.721 126.256 85.7264C124.809 85.7321 124.799 85.7421 125.764 86.2285C126.305 86.5015 126.805 87.1219 126.875 87.6071C127.054 88.8515 127.733 88.2749 127.733 86.8789ZM124.491 85.2665C127.153 84.8946 127.717 84.6966 127.58 84.1829C127.488 83.8371 127.304 83.0669 127.171 82.4712C127.039 81.8755 126.773 81.388 126.581 81.388C126.389 81.388 125.494 82.005 124.591 82.759C122.704 84.3359 120.324 85.0994 118.189 84.8131C116.746 84.6195 115.805 85.0574 116.801 85.4589C117.691 85.8176 121.17 85.7306 124.491 85.2665ZM108.853 74.6785C110.726 73.6762 108.73 71.1476 106.065 71.1476C105.238 71.1476 104.377 71.4058 104.103 71.7364C103.404 72.5785 104.451 74.0467 106.134 74.5852C107.889 75.1466 107.973 75.1495 108.853 74.6785ZM99.9254 72.2082C100.285 71.618 100.14 71.2986 99.073 70.3374C97.7412 69.1372 96.3398 68.8776 95.0163 69.5859C93.9634 70.1494 94.0634 71.0081 95.3169 72.1699C96.6028 73.3615 99.2089 73.3832 99.9254 72.2082ZM81.3553 100.82C80.7955 100.595 80.6884 99.2664 81.2042 98.9476C81.6888 98.6481 82.9625 100.158 82.6508 100.663C82.3752 101.109 82.1402 101.137 81.3553 100.82ZM127.606 99.6192C127.482 99.4191 127.726 99.0068 128.148 98.7029C128.57 98.399 128.915 97.8882 128.915 97.5677C128.915 97.1385 129.03 97.101 129.355 97.4251C129.679 97.7493 129.536 98.1441 128.813 98.9241C128.273 99.5064 127.73 99.8193 127.606 99.6192ZM78.5187 98.7533C77.8833 97.566 77.9799 96.9416 78.7058 97.544C79.2073 97.9602 79.2649 97.9358 79.0575 97.3953C78.9211 97.0397 78.9937 96.7488 79.2189 96.7488C79.9439 96.7488 80.1646 98.2912 79.5303 98.9255C78.9943 99.4615 78.888 99.4434 78.5187 98.7533ZM81.5195 97.6678C81.375 97.5234 81.2569 96.9934 81.2569 96.49C81.2569 95.6126 81.2894 95.6027 82.0446 96.2494C82.4779 96.6203 82.8323 97.1503 82.8323 97.4271C82.8323 97.9567 81.967 98.1153 81.5195 97.6678ZM76.1366 96.2001C76.1366 95.1137 77.1663 94.5569 77.959 95.2147C78.7325 95.8567 78.635 96.1669 77.4966 96.6855C76.1595 97.2948 76.1366 97.2867 76.1366 96.2001ZM129.526 96.7824C129.404 96.5843 129.477 96.3627 129.688 96.2901C130.125 96.1403 130.418 94.8279 130.461 92.8298C130.482 91.823 130.605 91.5858 130.933 91.9142C131.317 92.2978 131.224 93.6061 130.668 95.6656C130.624 95.8281 130.566 96.2269 130.539 96.5518C130.485 97.2056 129.874 97.3447 129.526 96.7824ZM126.42 95.6985C125.839 95.1171 126.176 93.9917 126.931 93.9917C127.723 93.9917 128.693 95.2635 128.244 95.7123C127.917 96.04 126.753 96.0311 126.42 95.6985ZM127.733 95.1733C127.733 94.9567 127.457 94.7795 127.119 94.7795C126.781 94.7795 126.614 94.9567 126.748 95.1733C126.882 95.3899 127.158 95.5672 127.362 95.5672C127.566 95.5672 127.733 95.3899 127.733 95.1733ZM72.3989 90.4533C72.2628 90.2332 72.2512 89.8918 72.3729 89.6947C72.7225 89.1292 72.1843 88.1137 71.6448 88.3208C71.3763 88.4238 70.9517 88.0581 70.7011 87.5082C70.4506 86.9582 70.3159 86.5083 70.4018 86.5083C70.4878 86.5083 70.8385 86.4007 71.1811 86.2692C71.5899 86.1123 71.8041 86.2477 71.8041 86.6631C71.8041 87.0112 71.9371 87.2974 72.0995 87.2991C72.4474 87.3027 73.3796 89.205 73.3796 89.9114C73.3796 90.5756 72.7049 90.9484 72.3989 90.4533ZM74.955 88.5433C74.955 88.3266 75.088 88.0751 75.2504 87.9842C75.4129 87.8933 75.3176 87.8756 75.0386 87.9447C74.3521 88.1149 73.9533 86.9586 74.5074 86.4045C75.0302 85.8817 76.1829 87.1272 76.0313 88.0511C75.926 88.693 74.955 89.137 74.955 88.5433ZM70.7013 85.2479C70.4413 84.988 70.2343 84.5006 70.2412 84.1648C70.2517 83.6511 70.3367 83.6636 70.7769 84.2435C71.0647 84.6227 71.5126 84.9328 71.7723 84.9328C72.032 84.9328 72.1349 85.1101 72.0011 85.3267C71.6788 85.8482 71.2772 85.8239 70.7013 85.2479ZM70.7761 78.857C70.4791 78.083 70.8489 77.0555 71.4244 77.0555C71.6845 77.0555 71.7578 77.4092 71.6079 77.9417C71.416 78.6239 71.4515 78.6927 71.7619 78.2404C71.9837 77.9172 72.06 77.2336 71.9314 76.7211C71.6996 75.7975 72.4101 74.9274 73.0654 75.3324C73.5389 75.625 73.4425 76.9689 72.9359 77.1378C72.6918 77.2191 72.4703 77.7189 72.4435 78.2485C72.3875 79.3588 71.143 79.813 70.7761 78.857ZM74.5666 78.5089C74.5884 76.6015 75.6315 75.5603 76.0225 77.0555C76.1358 77.4888 76.3998 77.8432 76.6093 77.8432C76.8187 77.8432 76.9171 78.0621 76.8279 78.3296C76.6165 78.9636 74.5595 79.1268 74.5666 78.5089ZM73.3615 74.6586C72.8548 73.7118 73.2383 73.0454 73.7888 73.916C74.1752 74.527 74.2943 75.4801 73.9842 75.4801C73.8836 75.4801 73.6033 75.1104 73.3615 74.6586ZM77.9829 70.1054C77.4035 69.5261 77.7082 68.332 78.4014 68.4655C78.7805 68.5385 79.0906 68.9355 79.0906 69.3477C79.0906 70.1313 78.4482 70.5708 77.9829 70.1054ZM79.7595 68.6015C79.5163 68.0677 79.4641 67.5401 79.6436 67.4292C80.1176 67.1363 81.3813 68.6582 81.0753 69.1534C80.6615 69.823 80.2344 69.6438 79.7595 68.6015ZM81.6239 67.9465C81.2742 67.2931 81.2928 67.0344 81.7085 66.771C82.5741 66.2225 82.7054 66.3567 82.5225 67.6028C82.3162 69.008 82.2131 69.0474 81.6239 67.9465ZM90.1416 66.1158C89.7958 65.7699 89.8853 64.4519 90.2547 64.4519C90.4378 64.4519 90.888 64.7838 91.2551 65.1895C91.8856 65.8862 91.8793 65.9385 91.142 66.1314C90.7127 66.2436 90.2625 66.2366 90.1416 66.1158ZM94.7805 65.41C94.4868 64.6445 95.2016 63.8666 95.8376 64.2597C96.1924 64.479 96.1766 64.6334 95.7735 64.8889C95.3802 65.1381 95.3691 65.2291 95.7314 65.2336C96.0022 65.2369 96.2237 65.4168 96.2237 65.6335C96.2237 66.2684 95.0396 66.0851 94.7805 65.41ZM151.449 128.96C154.418 128.099 155.433 125.451 153.026 124.847C151.836 124.548 140.164 128.242 140.676 128.755C141.663 129.742 148.318 129.868 151.449 128.96ZM43.6279 118.74C44.9322 118.146 45.505 116.195 45.3436 112.897C45.2341 110.662 45.1154 110.322 44.4074 110.221C43.9615 110.157 43.0994 110.496 42.4918 110.974C41.4934 111.76 41.4098 112.01 41.6243 113.575C41.7798 114.709 41.6593 115.791 41.2752 116.71C40.9527 117.482 40.6888 118.186 40.6888 118.275C40.6888 118.398 41.8289 118.952 42.5411 119.174C42.5851 119.188 43.0741 118.993 43.6279 118.74ZM39.5575 118.154C39.8548 117.796 40.2098 116.334 40.3463 114.905C40.4829 113.476 40.7252 111.908 40.8846 111.42C41.131 110.667 41.0328 110.534 40.2316 110.534C38.3443 110.534 36.3563 112.411 36.3563 114.193C36.3563 114.823 36.0624 115.958 35.7032 116.715C35.1478 117.885 35.1331 118.143 35.6047 118.442C36.5421 119.035 38.9728 118.858 39.5575 118.154ZM49.4116 116.318C50.5835 113.523 49.5113 109.556 47.655 109.821C46.8824 109.931 46.769 110.247 46.5535 112.897C46.4214 114.522 46.1744 116.268 46.0047 116.778C45.2942 118.911 48.5062 118.477 49.4116 116.318ZM34.0772 117.328C34.4072 116.949 34.776 115.858 34.8966 114.905C35.0173 113.951 35.491 112.663 35.9494 112.043C36.6677 111.071 36.6986 110.883 36.1727 110.682C35.1621 110.294 32.8587 110.91 32.0418 111.787C31.6202 112.24 31.1678 113.099 31.0364 113.697C30.905 114.295 30.4537 115.096 30.0335 115.476C29.4199 116.032 29.3634 116.281 29.7468 116.743C30.8403 118.06 33.1661 118.375 34.0772 117.328ZM28.8443 115.404C29.2932 114.833 29.6606 114.012 29.6606 113.58C29.6606 113.147 30.2941 112.196 31.0684 111.466C32.1955 110.403 32.3524 110.09 31.8552 109.9C30.7106 109.46 29.1544 110.173 27.3327 111.97C26.3385 112.951 25.2761 113.894 24.9718 114.065C23.7982 114.723 25.449 116.345 27.3673 116.417C27.7306 116.431 28.3953 115.975 28.8443 115.404ZM26.1158 111.519C27.4118 110.327 28.8177 109.352 29.2401 109.352C30.2334 109.352 30.626 108.717 29.8231 108.409C29.4816 108.278 28.4529 108.171 27.5371 108.171C26.1373 108.171 25.5456 108.449 23.8259 109.917C22.7006 110.878 21.4262 111.776 20.9939 111.913C19.4461 112.404 20.503 113.685 22.4563 113.685C23.4877 113.685 24.2509 113.233 26.1158 111.519ZM22.6349 109.607C23.7929 108.663 25.1478 107.762 25.6458 107.604C26.4043 107.363 26.4704 107.22 26.0534 106.717C25.2433 105.741 22.2687 106.239 20.2731 107.684C19.3456 108.356 18.0653 109.021 17.428 109.161C16.0892 109.455 16.0315 109.619 16.921 110.601C18.115 111.921 20.2505 111.549 22.6349 109.607ZM38.3256 109.74C38.7212 109.481 38.7775 109.255 38.4958 109.057C38.2645 108.895 36.5807 107.68 34.7541 106.357C31.6663 104.122 31.2455 103.936 28.7641 103.713C27.2961 103.58 25.3022 103.121 24.3331 102.693C23.3639 102.264 22.571 101.963 22.571 102.024C22.571 102.433 25.7262 105.307 26.6081 105.701C27.2039 105.967 27.6913 106.366 27.6913 106.587C27.6913 106.808 28.104 106.989 28.6084 106.989C29.1128 106.989 30.3935 107.564 31.4542 108.267C32.6918 109.086 34.092 109.631 35.3619 109.787C36.4504 109.92 37.4296 110.052 37.5379 110.079C37.6462 110.106 38.0007 109.954 38.3256 109.74ZM47.9753 108.848C48.6553 108.682 48.6652 108.65 48.0479 108.61C47.1172 108.551 45.8091 109.258 45.8091 109.821C45.8091 110.082 46.0909 110.012 46.4983 109.651C46.8774 109.315 47.5421 108.954 47.9753 108.848ZM19.59 106.792C21.0192 106.034 22.5404 105.414 22.9705 105.414C23.9362 105.414 23.9713 104.937 23.0634 104.152C21.7674 103.031 20.7168 103.075 18.7443 104.334C17.5706 105.083 16.1545 105.607 14.9891 105.722C12.9237 105.927 12.8433 106.028 13.7314 107.295C14.6337 108.584 16.5185 108.422 19.59 106.792ZM18.1326 103.35C19.5989 102.648 20.8872 102.012 20.9956 101.937C21.1039 101.862 20.7558 101.447 20.222 101.014C19.4963 100.426 18.8504 100.272 17.6619 100.404C15.8963 100.6 11.4329 102.396 11.2347 102.99C11.0222 103.628 12.8214 104.626 14.1831 104.626C14.889 104.626 16.6663 104.052 18.1326 103.35ZM28.489 101.947C27.953 101.579 26.7445 100.694 25.8035 99.9802C24.0985 98.6866 22.571 98.5392 22.571 99.6683C22.571 100.878 26.0211 102.596 28.479 102.61L29.4637 102.615L28.489 101.947ZM13.906 100.253C14.8808 99.8075 16.3873 99.3164 17.2539 99.1621L18.8293 98.8815L17.7099 98.1399C15.1441 96.4402 9.57349 97.2173 9.57349 99.275C9.57349 101.199 11.0902 101.541 13.906 100.253ZM21.5757 100.276C21.4359 100.05 21.5661 99.474 21.8651 98.9962C22.2763 98.3389 22.3711 96.92 22.2542 93.1706L22.0997 88.214L20.7598 87.7295C20.0228 87.463 18.8807 86.7913 18.2217 86.2368C16.9451 85.1626 16.6048 85.1903 16.6474 86.3653C16.7364 88.8238 17.9008 94.9064 18.4089 95.5672C18.6588 95.8921 19.097 96.8669 19.3826 97.7334C19.6682 98.5999 20.2809 99.6151 20.7442 99.9894C21.7204 100.778 21.9307 100.851 21.5757 100.276ZM10.4402 96.7065C11.452 96.165 16.0329 96.2008 17.0746 96.7582C18.3147 97.4219 17.9703 96.5468 16.4745 95.2335C15.0158 93.9527 12.9548 93.3558 11.3672 93.7542C9.88141 94.1272 8.21591 95.722 8.51052 96.4898C8.80336 97.2529 9.31242 97.3101 10.4402 96.7065ZM15.9234 92.4837C14.3168 90.2275 10.178 89.3479 8.51575 90.9095C7.45631 91.9047 7.37035 92.5196 8.19498 93.204C8.65496 93.5858 8.91163 93.5898 9.35426 93.2225C10.2036 92.5176 13.9087 92.5622 15.2845 93.294C16.8015 94.1007 16.9451 93.9186 15.9234 92.4837ZM15.6022 90.0095C14.6346 88.3435 12.4398 86.5783 10.6745 86.0463C8.72522 85.4589 7.09916 86.4009 7.28499 88.0099C7.4037 89.0379 7.47151 89.0645 9.63361 88.9345C11.8669 88.8003 15.0202 89.7759 15.6508 90.7962C16.2917 91.8331 16.2477 91.1209 15.6022 90.0095ZM15.1133 86.0131C13.121 82.0001 6.88241 79.8486 7.28887 83.3148C7.38892 84.1682 7.66783 84.3685 9.092 84.6099C11.1929 84.966 14.6063 86.7907 15.1813 87.865C16.0168 89.4262 15.9536 87.7059 15.1133 86.0131ZM33.5174 86.6731C37.5723 85.8412 42.5446 83.4697 44.9483 81.2213C47.0773 79.2299 49.1031 75.7905 49.6927 73.1665C49.9802 71.8869 49.9284 71.0562 49.479 69.7373C49.1528 68.7799 48.7468 67.9966 48.5769 67.9966C48.4069 67.9966 48.0332 68.5631 47.7464 69.2554C46.5103 72.2395 39.6522 78.1946 35.3716 80.0006C31.0534 81.8226 28.6966 82.3243 24.3434 82.3486C21.9606 82.3619 19.4792 82.2841 18.8293 82.1758C17.1566 81.897 17.0314 83.202 18.5878 84.6932C21.1496 87.1475 27.2573 87.9576 33.5174 86.6731ZM15.6213 83.6528C15.2821 81.8006 14.0239 80.0943 11.9573 78.684C9.73653 77.1686 8.55443 77.0796 8.30036 78.4086C8.05416 79.6965 8.27272 79.9314 10.4923 80.764C11.5494 81.1606 13.1256 82.219 14.0371 83.1445C14.9398 84.0609 15.7183 84.8382 15.767 84.8718C15.8158 84.9054 15.7502 84.3568 15.6213 83.6528ZM15.8911 77.8742C14.9789 76.086 11.374 73.0169 10.4019 73.2008C10.0239 73.2723 9.72374 73.7945 9.6541 74.5019C9.55205 75.5386 9.7915 75.8543 11.6065 77.0757C12.7689 77.8579 14.2867 79.3793 15.0707 80.5481L16.4661 82.6284L16.586 81.0497C16.6633 80.0308 16.417 78.905 15.8911 77.8742ZM50.0176 80.7683C50.9636 80.0467 52.0919 78.2591 53.9331 74.5649C55.3557 71.7106 57.1208 68.7494 57.8556 67.9846C59.1837 66.6022 59.1894 66.5802 58.8268 64.2429C58.6263 62.9497 58.2687 60.586 58.0322 58.9901C57.7958 57.3942 57.2368 55.0015 56.7901 53.6729C55.382 49.4852 54.4766 49.1191 54.4687 52.7344C54.4623 55.6479 54.1647 56.9684 53.5144 56.9684C52.5384 56.9684 49.7659 59.814 48.8365 61.7695L47.8728 63.797L49.2041 66.575C51.2514 70.847 50.8158 74.807 47.8196 79.1619C47.147 80.1394 46.5968 81.1288 46.5968 81.3605C46.5968 82.1475 48.6829 81.7863 50.0176 80.7683ZM32.3563 79.872C38.5082 77.7811 44.2923 73.3815 46.9061 68.805C48.5866 65.8625 48.0261 65.4149 46.2154 68.2537C43.0706 73.1842 37.2347 77.4326 31.236 79.1584C27.2678 80.3 21.8647 80.817 19.5186 80.2797C18.199 79.9775 17.8447 80.0067 17.8447 80.4179C17.8447 81.1795 19.0829 81.3381 24.1465 81.2245C28.0368 81.1373 29.1953 80.9464 32.3563 79.872ZM28.8729 79.2023C30.2809 78.8731 32.4018 78.2435 33.5858 77.8033C38.3581 76.0291 43.982 71.2255 46.297 66.9461L47.3759 64.952L46.1493 63.2249C45.4746 62.275 44.3784 60.9218 43.7132 60.2178C41.8542 58.2505 43.0484 58.6999 45.0213 60.7101C45.978 61.685 46.8838 62.4825 47.0341 62.4825C47.1844 62.4825 47.4832 61.9784 47.6979 61.3624C48.2566 59.7598 50.4067 57.444 52.1721 56.5433L53.6863 55.7708V53.0218C53.6863 49.5467 54.0811 49.1271 58.27 48.1494C62.4627 47.1708 63.2776 47.3964 64.1608 49.7796C64.5422 50.809 64.8872 51.7008 64.9275 51.7614C64.9677 51.8221 67.7278 51.173 71.061 50.319C74.3942 49.4651 79.3157 48.4026 81.9978 47.9581C84.6799 47.5135 86.9113 47.0992 86.9564 47.0373C87.0016 46.9755 87.1999 45.8614 87.3971 44.5617C87.7359 42.3288 87.8317 42.1726 89.1342 41.7284C91.2072 41.0214 96.8138 41.0724 97.5463 41.8049C98.2789 42.5375 99.1334 45.4425 99.9792 50.0758C100.882 55.0222 100.945 55.1311 103.476 56.0995C110.38 58.7414 122.499 58.8869 124.602 56.3532C126.182 54.4502 122.323 42.4473 119.462 40.3644C117.756 39.1227 112.876 38.6794 100.95 38.683C90.7525 38.6861 89.094 38.7833 82.8323 39.7445C71.7608 41.444 64.335 43.2078 54.671 46.4334C45.1702 49.6046 27.3063 57.8166 25.3279 59.9226C24.1554 61.1707 23.2483 66.2782 23.5093 70.1629C23.6707 72.5651 23.6232 73.0798 23.3095 72.3291C22.8805 71.3025 23.0265 61.2045 23.486 60.1193C23.6637 59.6998 22.8301 58.8739 20.611 57.2708L17.4857 55.013L16.8642 55.8923C16.2649 56.7401 14.6253 61.7549 14.1097 64.317C13.8802 65.4572 13.9578 65.5822 15.0415 65.8202C17.104 66.2733 19.2672 68.1609 20.0386 70.1807C20.6428 71.7628 20.6802 72.3364 20.2976 74.1605C20.0517 75.3327 19.4878 76.8012 19.0445 77.4237C17.5589 79.5101 17.8781 79.7005 22.9649 79.7611C24.8062 79.783 27.4648 79.5315 28.8729 79.2023ZM17.0883 74.2533C16.0493 70.7719 11.8796 68.2816 10.9864 70.6091C10.755 71.2122 11.4549 71.9899 14.2107 74.1917C15.0862 74.8911 16.1291 76.1531 16.5282 76.9961L17.2539 78.5289L17.3835 77.1029C17.4548 76.3187 17.3219 75.0363 17.0883 74.2533ZM19.2232 73.3007C19.2232 70.4725 19.1757 70.3254 17.8263 68.9761C16.2693 67.4191 13.933 66.7632 12.9247 67.6C12.0509 68.3252 12.1922 68.6582 13.4834 68.9165C15.891 69.398 18.2385 72.9429 18.2385 76.0969C18.2385 76.9898 18.337 77.1146 18.7308 76.7207C19.0364 76.4152 19.2232 75.1177 19.2232 73.3007ZM62.9535 64.8718C66.2014 63.505 66.2207 63.4524 65.3203 58.4025C64.3954 53.2154 63.1325 49.1312 62.2658 48.5241C61.5093 47.9943 61.2115 48.0268 57.1699 49.0813L55.3363 49.5597L56.2288 50.875C57.3022 52.4567 58.5922 57.4027 59.2305 62.3841C59.4873 64.3878 59.8122 66.0273 59.9526 66.0273C60.093 66.0273 61.4434 65.5073 62.9535 64.8718ZM122.097 63.9595C123.386 62.6019 124.771 60.1775 124.445 59.8514C124.338 59.7443 123.268 59.8606 122.068 60.1098C120.867 60.3591 118.469 60.5962 116.74 60.6366C115.01 60.677 113.721 60.8366 113.875 60.9913C114.822 61.9411 119.763 65.2118 120.271 65.2244C120.607 65.2327 121.429 64.6636 122.097 63.9595ZM76.3336 60.5165C78.9331 59.8942 83.2754 58.9961 85.9833 58.5206C92.9047 57.3052 92.7694 57.3902 90.4652 55.7037C87.1988 53.3129 80.8506 49.4851 80.15 49.4837C79.1424 49.4819 66.1409 52.6871 65.7664 53.0297C65.5024 53.2713 66.4019 60.9319 66.9093 62.7629C67.0062 63.1127 67.6519 63.0274 69.3244 62.4441C70.5799 62.0062 73.7341 61.1388 76.3336 60.5165ZM123.302 58.7372C124.223 58.3672 124.976 57.8875 124.976 57.6712C124.976 57.4514 124.672 57.4029 124.287 57.5612C120.748 59.0152 115.577 59.3058 110.221 58.3515C105.438 57.4994 106.045 57.9373 111.781 59.4769C113.489 59.9353 121.62 59.4133 123.302 58.7372ZM29.6767 56.0671C50.7885 45.4252 65.4936 40.84 86.9824 38.1984C93.6148 37.3831 107.055 37.2847 113.303 38.0057C115.656 38.2773 117.662 38.4184 117.761 38.3192C117.861 38.22 117.176 37.6121 116.24 36.9683C113.095 34.8049 103.538 33.585 90.1188 33.6344C65.4908 33.725 43.0578 40.0918 19.5211 53.6712C18.8184 54.0766 18.2502 54.4969 18.2583 54.6052C18.2664 54.7135 19.5503 55.7184 21.1113 56.8383C22.6723 57.9582 23.9568 58.8887 23.9657 58.9061C23.9746 58.9235 26.5446 57.646 29.6767 56.0671ZM104.462 57.2294C104.372 57.1563 103.528 56.7967 102.587 56.4302C101.328 55.9396 100.921 55.8967 101.044 56.2677C101.137 56.5448 101.729 56.8834 102.361 57.0203C103.736 57.3179 104.689 57.4128 104.462 57.2294ZM97.7772 56.7116L100.234 56.4549L99.9676 54.6439C98.8799 47.2474 97.3454 42.2561 96.0004 41.74C95.6804 41.6172 94.1074 41.6396 92.5047 41.7898L89.5908 42.0629L90.3158 43.3123C91.356 45.1049 92.5578 49.5291 93.0893 53.5221C93.6086 57.4234 93.257 57.1841 97.7772 56.7116ZM92.8762 55.7872C92.7609 55.6008 92.5014 54.1448 92.2994 52.5517C91.6382 47.3367 89.4262 41.5782 88.4567 42.5478C88.3111 42.6933 88.0036 44.065 87.7734 45.596L87.3547 48.3796L85.3257 48.5381C81.1852 48.8615 81.1404 49.1207 84.8351 51.3833C86.658 52.4997 89.1243 54.1027 90.3158 54.9455C92.256 56.3181 93.446 56.7093 92.8762 55.7872Z" fill="#C7E1E5"/>
</svg>
