<svg width="160" height="160" viewBox="0 0 160 160" fill="none" xmlns="http://www.w3.org/2000/svg">
<path d="M22.9648 74.1104C22.9648 74.1104 16.6046 74.4633 14.8491 77.3849C13.0937 80.3065 15.3792 83.3131 18.7289 84.5549C22.0786 85.7967 23.232 85.2609 23.673 84.4656C24.1139 83.6704 22.9648 74.1104 22.9648 74.1104Z" fill="#0D3F46" stroke="#C7E1E5" stroke-linecap="round" stroke-linejoin="round"/>
<path d="M145.391 92.3546C145.391 92.3546 141.999 92.5247 130.928 83.6494C119.857 74.7741 119.183 69.6539 102.846 61.1102C86.5081 52.5666 78.6765 51.7246 78.1677 53.6C77.6589 55.4754 77.9981 134.167 80.0418 135.872C82.0856 137.578 95.3574 136.723 105.737 135.022C116.117 133.321 127.362 134.511 131.267 135.872C135.173 137.233 146.744 140.835 146.744 140.835" stroke="#C7E1E5" stroke-width="1.5" stroke-linecap="round" stroke-linejoin="round"/>
<path d="M21.0271 39.9447C21.0271 39.9447 15.8201 38.7072 13.5262 42.8663C11.2323 47.0254 16.965 51.8947 20.5861 53.0472L21.0271 39.9447Z" fill="#0D3F46" stroke="#C7E1E5" stroke-linecap="round" stroke-linejoin="round"/>
<path d="M24.0249 40.1229C23.9867 39.2129 21.2518 39.7402 20.7684 39.8082C19.5012 39.9759 18.3246 40.5581 17.4207 41.4646C16.5169 42.3711 15.9365 43.5512 15.7692 44.8221C15.2731 48.6496 18.8985 52.8555 22.5069 53.7528L24.5506 54.2673C24.5506 54.2673 24.0249 40.1357 24.0249 40.1229Z" fill="#0D3F46" stroke="#C7E1E5" stroke-linecap="round" stroke-linejoin="round"/>
<path d="M19.4582 93.4941C19.4582 93.4941 15.0781 93.6685 14.1791 97.4576C13.2802 101.247 18.8773 103.837 21.9853 103.93L19.4582 93.4941Z" fill="#0D3F46" stroke="#C7E1E5" stroke-linecap="round" stroke-linejoin="round"/>
<path d="M23.1429 92.5206C22.914 91.8104 19.5939 93.2819 19.225 93.4435C18.2623 93.856 17.4621 94.5754 16.9485 95.4904C16.4348 96.4053 16.2365 97.4646 16.3841 98.5041C16.8335 101.643 20.6243 104.152 23.6602 104.071L25.386 104.024C25.386 104.024 23.1472 92.5291 23.1429 92.5206Z" fill="#0D3F46" stroke="#C7E1E5" stroke-linecap="round" stroke-linejoin="round"/>
<path d="M22.9648 58.5332C22.9648 58.5332 16.6046 58.8862 14.8491 61.8078C13.0937 64.7294 15.3792 67.736 18.7289 68.9778C22.0786 70.2196 23.232 69.6837 23.673 68.8885C24.1139 68.0932 22.9648 58.5332 22.9648 58.5332Z" fill="#0D3F46" stroke="#C7E1E5" stroke-linecap="round" stroke-linejoin="round"/>
<path d="M19.8822 78.3588C19.8822 78.3588 22.2652 83.8447 22.0871 88.2717C21.909 92.6988 16.8802 94.0214 15.0272 93.2261C13.1743 92.4309 12.3814 82.8708 13.6153 79.6856C14.8491 76.5003 17.2364 76.2324 17.2364 76.2324" fill="#0D3F46"/>
<path d="M19.8822 78.3588C19.8822 78.3588 22.2652 83.8447 22.0871 88.2717C21.909 92.6988 16.8802 94.0214 15.0272 93.2261C13.1743 92.4309 12.3814 82.8708 13.6153 79.6856C14.8491 76.5003 17.2364 76.2324 17.2364 76.2324" stroke="#C7E1E5" stroke-linecap="round" stroke-linejoin="round"/>
<path d="M13.7891 83.5815C13.7891 83.5815 13.0979 89.1568 13.0979 91.5468C13.0979 93.9368 13.6237 93.4052 14.8618 90.4836C16.0999 87.562 16.172 81.0129 13.7891 83.5815Z" fill="#0D3F46" stroke="#C7E1E5" stroke-linecap="round" stroke-linejoin="round"/>
<path d="M19.8822 62.7816C19.8822 62.7816 22.2652 68.2676 22.0871 72.6946C21.909 77.1216 16.8802 78.4485 15.0272 77.649C13.1743 76.8495 12.3814 67.2937 13.6153 64.1084C14.8491 60.9232 17.2364 60.6553 17.2364 60.6553" fill="#0D3F46"/>
<path d="M19.8822 62.7816C19.8822 62.7816 22.2652 68.2676 22.0871 72.6946C21.909 77.1216 16.8802 78.4485 15.0272 77.649C13.1743 76.8495 12.3814 67.2937 13.6153 64.1084C14.8491 60.9232 17.2364 60.6553 17.2364 60.6553" stroke="#C7E1E5" stroke-linecap="round" stroke-linejoin="round"/>
<path d="M13.7891 68.0039C13.7891 68.0039 13.0979 73.5792 13.0979 75.9692C13.0979 78.3592 13.6237 77.8276 14.8618 74.906C16.0999 71.9844 16.172 65.4353 13.7891 68.0039Z" fill="#0D3F46" stroke="#C7E1E5" stroke-linecap="round" stroke-linejoin="round"/>
<path d="M120.879 133.473C119.829 129.638 119.313 125.675 119.344 121.698" stroke="#C7E1E5" stroke-width="1.5" stroke-linecap="round" stroke-linejoin="round"/>
<path d="M122.579 118.624C122.579 118.624 122.41 125.964 123.427 128.524" stroke="#C7E1E5" stroke-width="1.5" stroke-linecap="round" stroke-linejoin="round"/>
<path d="M100.284 111.968C100.284 111.968 107.264 116.748 115.6 116.748" stroke="#C7E1E5" stroke-width="1.5" stroke-linecap="round" stroke-linejoin="round"/>
<path d="M134.27 86.2833C134.27 86.2833 130.878 83.8933 126.782 77.2378C122.686 70.5824 112.841 56.2424 111.144 49.0724C109.448 41.9024 109.275 39.5166 108.253 35.417C107.231 31.3175 104.678 29.2719 105.191 24.1517C105.704 19.0315 104.169 16.4714 101.799 16.1311C99.4289 15.7909 95.8417 15.4465 93.9718 24.3218C92.1019 33.1971 95.5025 45.6575 96.694 51.4624C97.8855 57.2673 97.8855 62.3875 95.5025 68.5326C93.1195 74.6777 90.5669 82.8684 92.9584 94.9885C95.3498 107.109 102.999 110.694 108.957 113.254" fill="#0D3F46"/>
<path d="M134.27 86.2833C134.27 86.2833 130.878 83.8933 126.782 77.2378C122.686 70.5824 112.841 56.2424 111.144 49.0724C109.448 41.9024 109.275 39.5166 108.253 35.417C107.231 31.3175 104.678 29.2719 105.191 24.1517C105.704 19.0315 104.169 16.4714 101.799 16.1311C99.4289 15.7909 95.8417 15.4465 93.9718 24.3218C92.1019 33.1971 95.5025 45.6575 96.694 51.4624C97.8855 57.2673 97.8855 62.3875 95.5025 68.5326C93.1195 74.6777 90.5669 82.8684 92.9584 94.9885C95.3498 107.109 102.999 110.694 108.957 113.254" stroke="#C7E1E5" stroke-width="1.5" stroke-linecap="round" stroke-linejoin="round"/>
<path d="M106.708 35.1943C106.708 35.1943 105.47 33.6463 102.074 35.5048" stroke="#C7E1E5" stroke-linecap="round" stroke-linejoin="round"/>
<path d="M102.383 37.2059C102.383 37.2059 104.855 35.6579 106.861 37.0528" stroke="#C7E1E5" stroke-linecap="round" stroke-linejoin="round"/>
<path d="M107.654 38.6006C106.577 38.7193 105.494 38.7705 104.41 38.7537" stroke="#C7E1E5" stroke-linecap="round" stroke-linejoin="round"/>
<path d="M104.423 27.3609L103.363 27.1653C102.269 26.9585 101.284 26.3678 100.585 25.4989C99.8853 24.63 99.5173 23.5398 99.5467 22.4236C99.575 21.3888 99.6742 20.3572 99.8435 19.3361C100.522 15.2408 100.692 13.7056 102.388 14.0458C104.084 14.386 105.11 14.8963 105.11 17.1205C105.11 19.3446 104.423 27.3609 104.423 27.3609Z" fill="#0D3F46" stroke="#C7E1E5" stroke-linecap="round" stroke-linejoin="round"/>
<path d="M90.3667 16.6865H24.8984C23.3177 16.6865 22.0363 17.9717 22.0363 19.5571V142.498C22.0363 144.083 23.3177 145.368 24.8984 145.368H90.3667C91.9474 145.368 93.2289 144.083 93.2289 142.498V19.5571C93.2289 17.9717 91.9474 16.6865 90.3667 16.6865Z" fill="#E9F2ED" stroke="#C7E1E5" stroke-linecap="round" stroke-linejoin="round"/>
<path d="M90.3667 14.2754H24.8984C23.3177 14.2754 22.0363 15.5606 22.0363 17.1459V140.087C22.0363 141.672 23.3177 142.957 24.8984 142.957H90.3667C91.9474 142.957 93.2289 141.672 93.2289 140.087V17.1459C93.2289 15.5606 91.9474 14.2754 90.3667 14.2754Z" fill="#5F9FA9" stroke="#C7E1E5" stroke-miterlimit="10"/>
<path d="M62.5554 21.9645H53.6934C53.5737 21.9645 53.4551 21.9409 53.3445 21.8949C53.2339 21.849 53.1334 21.7816 53.0488 21.6967C52.9641 21.6118 52.8969 21.511 52.8511 21.4001C52.8053 21.2892 52.7817 21.1703 52.7817 21.0502C52.7817 20.9303 52.8053 20.8117 52.8512 20.701C52.8971 20.5903 52.9643 20.4898 53.049 20.4052C53.1337 20.3206 53.2342 20.2537 53.3448 20.2082C53.4554 20.1627 53.5739 20.1396 53.6934 20.1401H62.5554C62.796 20.1401 63.0268 20.236 63.197 20.4067C63.3672 20.5774 63.4628 20.8089 63.4628 21.0502C63.4633 21.1701 63.4403 21.2889 63.3949 21.3998C63.3495 21.5107 63.2828 21.6115 63.1985 21.6965C63.1142 21.7814 63.0139 21.8489 62.9036 21.8949C62.7932 21.9409 62.6749 21.9645 62.5554 21.9645Z" fill="white"/>
<path d="M88.73 131.479H26.535V22.0664H41.2781L42.936 23.4485C43.5152 23.9303 44.2443 24.1936 44.9968 24.1927H71.006C71.7862 24.19 72.5392 23.9045 73.1261 23.389L74.6229 22.0664H88.7172L88.73 131.479Z" fill="white" stroke="#C7E1E5" stroke-linecap="round" stroke-linejoin="round"/>
<path d="M59.6211 134.826C59.6211 134.545 59.5381 134.271 59.3825 134.037C59.2268 133.803 59.0057 133.621 58.7469 133.514C58.4881 133.406 58.2033 133.378 57.9286 133.433C57.6539 133.488 57.4016 133.623 57.2035 133.822C57.0054 134.02 56.8706 134.274 56.8159 134.549C56.7613 134.825 56.7893 135.11 56.8965 135.37C57.0037 135.629 57.1852 135.851 57.4181 136.007C57.651 136.163 57.9248 136.247 58.2049 136.247C58.5805 136.247 58.9407 136.097 59.2063 135.831C59.4719 135.564 59.6211 135.203 59.6211 134.826Z" fill="white"/>
<path d="M38.25 69.6875C38.25 69.4583 38.25 69.2292 38.25 69C38.3646 65.1042 39.7109 61.8672 42.2891 59.2891C44.8672 56.7109 48.1042 55.3646 52 55.25C54.5781 55.3073 56.8984 55.9375 58.9609 57.1406C61.0234 58.401 62.6849 60.0625 63.9453 62.125C65.263 61.2083 66.7812 60.75 68.5 60.75C70.849 60.8073 72.7969 61.6094 74.3437 63.1562C75.8906 64.7031 76.6927 66.651 76.75 69C76.75 70.0312 76.5781 71.0339 76.2344 72.0078C78.7552 72.5234 80.8464 73.7839 82.5078 75.7891C84.112 77.737 84.9427 80.0573 85 82.75C84.9427 85.8437 83.8828 88.4505 81.8203 90.5703C79.7005 92.6328 77.0937 93.6927 74 93.75H42.375C38.8802 93.6354 35.9583 92.4323 33.6094 90.1406C31.3177 87.7917 30.1146 84.8698 30 81.375C30.0573 78.625 30.8307 76.2187 32.3203 74.1562C33.8099 72.0937 35.7865 70.6042 38.25 69.6875Z" fill="#C7E1E5"/>
<path d="M56.5373 61.6618C56.5359 61.6777 56.5337 61.6943 56.5301 61.7102C56.4904 61.8855 56.3101 61.9959 56.1282 61.9562C55.5078 61.8213 54.8678 61.7296 54.2264 61.6842C47.2415 61.1957 41.1759 66.2888 40.704 73.0384C40.66 73.6647 40.665 74.2953 40.7192 74.9129C40.7321 75.0962 40.5972 75.2498 40.4118 75.2635C40.2264 75.278 40.0633 75.1438 40.0474 74.9648C39.9904 74.3148 39.9847 73.6503 40.0308 72.9915C40.5287 65.884 46.9161 60.5197 54.2718 61.0341C54.9471 61.081 55.621 61.1777 56.274 61.3206C56.4392 61.3566 56.5489 61.5031 56.5373 61.6611V61.6618Z" fill="#121212"/>
<path d="M56.2812 65.3503C56.2798 65.3734 56.2754 65.3957 56.2689 65.4188C56.217 65.5912 56.0308 65.6901 55.8519 65.6403C55.2422 65.4679 54.6102 65.3575 53.9724 65.3127C49.0583 64.9693 44.7913 68.5523 44.4587 73.3012C44.4154 73.9166 44.4407 74.5357 44.5316 75.141C44.5583 75.3185 44.4313 75.4837 44.2466 75.509C44.0626 75.5342 43.8909 75.4101 43.8642 75.2319C43.7661 74.5804 43.7394 73.9145 43.7855 73.2536C44.1427 68.1468 48.7321 64.2933 54.0171 64.6627C54.7026 64.7103 55.3822 64.8286 56.0373 65.0148C56.1925 65.0588 56.2913 65.2009 56.2805 65.351L56.2812 65.3503Z" fill="#121212"/>
<path d="M56.0113 69.1844C56.0085 69.2233 55.9984 69.2623 55.9803 69.3005C55.901 69.4629 55.7011 69.5329 55.5323 69.4557C54.9616 69.1952 54.3504 69.0408 53.7141 68.9961C50.9024 68.7991 48.4594 70.8503 48.2696 73.5675C48.2264 74.1873 48.3014 74.8005 48.4933 75.3886C48.5496 75.5596 48.4507 75.7428 48.2733 75.7962C48.0958 75.8496 47.9067 75.7536 47.8505 75.5812C47.6333 74.9153 47.5481 74.2219 47.5972 73.5199C47.8122 70.4441 50.5763 68.1231 53.7595 68.3453C54.4789 68.3958 55.1708 68.5704 55.8173 68.8655C55.9471 68.9246 56.02 69.0538 56.0106 69.1837L56.0113 69.1844Z" fill="#121212"/>
<path d="M62.2169 87.1238C61.7616 86.6685 62.1065 78.1606 62.004 77.3633C62.004 75.4939 61.4947 74.1447 60.4903 73.3525C58.6404 71.794 54.3042 71.7695 52.5228 73.5285C51.4384 74.4455 50.8294 76.1569 50.7263 77.952H52.0408C52.2486 75.0408 53.5401 73.4643 56.5228 73.5011C59.7515 73.5184 60.6722 74.8922 60.7198 78.0357C60.8273 79.3893 58.3092 79.1916 57.1801 79.3366C55.8085 79.4528 54.3374 79.4585 53.0711 79.9715C51.1592 80.7212 49.8821 82.2738 49.9088 84.408C49.7869 87.5249 52.7342 88.9939 55.3893 88.9997C57.6548 89.0285 59.517 87.8727 60.7198 86.0639C60.6981 88.5264 61.8092 88.6295 63.9326 88.5516V87.2168C63.569 87.2709 62.3287 87.315 62.2154 87.1238H62.2169ZM60.7212 80.0112C60.8042 82.0992 60.7385 84.4852 59.1981 86.0336C57.538 88.0242 54.481 88.2269 52.3763 86.8294C50.701 85.9282 50.8958 82.1771 52.6404 81.618C55.0307 80.39 58.284 80.9701 60.7219 80.0112H60.7212Z" fill="#121212"/>
<path d="M71.7401 85.1785C71.9955 85.1785 72.1239 85.3502 72.1239 85.6944C72.1239 85.9851 72.0359 86.268 71.8591 86.5407C71.621 87.0522 71.1449 87.5371 70.4306 87.996C69.6189 88.5162 68.8036 88.7766 67.9832 88.7766C66.5633 88.7766 65.6636 88.1417 65.2848 86.8719C64.8353 85.3639 65.5099 82.167 67.3086 77.281C66.2942 77.1929 65.743 77.0162 65.655 76.7521C65.6283 76.6727 65.6153 76.5869 65.6153 76.4938C65.6153 76.4007 65.6571 76.2932 65.7408 76.1698C65.8245 76.0465 65.9327 75.9274 66.0648 75.8127C66.3736 75.5573 66.6867 75.4289 67.0042 75.4289H68.0496C69.002 73.198 69.6809 71.9274 70.0871 71.6186C70.2812 71.4779 70.497 71.4072 70.735 71.4072C70.9731 71.4072 71.1716 71.4383 71.3303 71.4996C71.489 71.5616 71.6297 71.6497 71.7538 71.7644C72.0359 72.0292 72.1773 72.3243 72.1773 72.6504C72.1773 72.8271 72.1247 73.0299 72.0186 73.2586L71.0395 75.3885H71.357C71.9039 75.3885 72.3447 75.3841 72.6795 75.3755L73.4335 75.3625C73.6008 75.3538 73.8108 75.3495 74.0619 75.3495C74.313 75.3495 74.4392 75.4419 74.4392 75.6273C74.4392 76.7918 73.0633 77.3733 70.3115 77.3733H70.2055L69.3058 79.7016C68.2913 82.4534 67.7841 84.3805 67.7841 85.483C67.7841 85.7918 67.8548 86.032 67.9955 86.2038C68.1362 86.3755 68.401 86.4621 68.7892 86.4621C69.1773 86.4621 69.5301 86.3957 69.8476 86.2636C70.1651 86.1316 70.4428 85.9837 70.6809 85.8206C70.919 85.6576 71.1239 85.5097 71.2964 85.3776C71.4681 85.2456 71.616 85.1792 71.7394 85.1792L71.7401 85.1785Z" fill="#3BB24A"/>
</svg>
