<svg width="500" height="340" viewBox="0 0 500 340" fill="none" xmlns="http://www.w3.org/2000/svg">
<rect width="500" height="340" rx="20" fill="#0D3F46"/>
<rect x="303" y="62" width="42" height="42" rx="21" fill="#A0D8A5"/>
<path d="M323.563 86.7187C322.628 86.696 321.854 86.377 321.238 85.7617C320.623 85.1465 320.304 84.3717 320.281 83.4375V77.9687C320.304 77.0345 320.623 76.2598 321.238 75.6445C321.854 75.0293 322.628 74.7103 323.563 74.6875C324.497 74.7103 325.272 75.0293 325.887 75.6445C326.502 76.2598 326.821 77.0345 326.844 77.9687L324.11 77.9346C323.768 77.9574 323.585 78.1396 323.563 78.4814C323.585 78.8232 323.768 79.0055 324.11 79.0283H326.844V80.1562H324.11C323.768 80.179 323.585 80.3613 323.563 80.7031C323.585 81.0449 323.768 81.2272 324.11 81.25H326.844V82.3437H324.11C323.768 82.3665 323.585 82.5488 323.563 82.8906C323.585 83.2324 323.768 83.4147 324.11 83.4375H326.844C326.821 84.3717 326.502 85.1465 325.887 85.7617C325.272 86.377 324.497 86.696 323.563 86.7187ZM328.758 81.25C329.259 81.2956 329.533 81.5576 329.578 82.0361V83.4375C329.556 84.987 329.054 86.3086 328.074 87.4023C327.117 88.4961 325.887 89.1569 324.383 89.3848V90.5469H325.75C326.069 90.5469 326.331 90.6608 326.536 90.8887C326.741 91.0938 326.844 91.3672 326.844 91.709C326.798 92.0052 326.616 92.1647 326.297 92.1875H320.828C320.509 92.1647 320.327 92.0052 320.281 91.709C320.281 91.3672 320.384 91.0938 320.589 90.8887C320.794 90.6608 321.056 90.5469 321.375 90.5469H322.742V89.3506C321.216 89.0999 319.974 88.3936 319.017 87.2314C318.06 86.0693 317.57 84.7021 317.547 83.1299V82.0361C317.593 81.5576 317.866 81.2956 318.367 81.25C318.869 81.2956 319.142 81.5576 319.188 82.0361V83.2666C319.21 84.4287 319.609 85.4541 320.384 86.3428C321.159 87.2087 322.127 87.6986 323.289 87.8125C324.588 87.8581 325.682 87.4593 326.57 86.6162C327.436 85.7959 327.892 84.7363 327.938 83.4375V82.0361C327.983 81.5576 328.257 81.2956 328.758 81.25Z" fill="white"/>
<path d="M356.33 78V68.998H359.613C360.677 68.998 361.489 69.2477 362.049 69.747C362.614 70.2463 362.896 70.9067 362.896 71.728C362.896 72.54 362.614 73.1957 362.049 73.695C361.489 74.1943 360.677 74.444 359.613 74.444H357.828V78H356.33ZM361.251 78L358.815 73.814H360.418L363.204 78H361.251ZM357.828 73.429H359.466C360.087 73.429 360.558 73.2843 360.88 72.995C361.202 72.701 361.363 72.323 361.363 71.861C361.363 71.385 361.214 71.0047 360.915 70.72C360.621 70.4307 360.187 70.286 359.613 70.286H357.828V73.429ZM367.275 78.189C366.696 78.189 366.169 78.0397 365.693 77.741C365.221 77.4423 364.843 77.0247 364.559 76.488C364.279 75.9513 364.139 75.3283 364.139 74.619C364.139 73.8723 364.279 73.233 364.559 72.701C364.839 72.169 365.214 71.7607 365.686 71.476C366.162 71.1913 366.691 71.049 367.275 71.049C367.811 71.049 368.271 71.1563 368.654 71.371C369.036 71.5857 369.344 71.875 369.578 72.239C369.816 72.603 369.977 73.016 370.061 73.478C370.145 73.9353 370.154 74.409 370.089 74.899H365.336V74.066H369.046L368.724 74.276C368.738 74.038 368.726 73.8 368.689 73.562C368.651 73.324 368.579 73.107 368.472 72.911C368.369 72.7103 368.222 72.5493 368.031 72.428C367.839 72.3067 367.597 72.246 367.303 72.246C366.939 72.246 366.631 72.337 366.379 72.519C366.131 72.701 365.945 72.946 365.819 73.254C365.693 73.562 365.63 73.905 365.63 74.283V74.885C365.63 75.291 365.69 75.6503 365.812 75.963C365.933 76.2757 366.115 76.523 366.358 76.705C366.6 76.887 366.906 76.978 367.275 76.978C367.629 76.978 367.923 76.8963 368.157 76.733C368.395 76.565 368.544 76.3153 368.605 75.984H370.124C370.054 76.4227 369.89 76.8077 369.634 77.139C369.377 77.4703 369.048 77.7293 368.647 77.916C368.245 78.098 367.788 78.189 367.275 78.189ZM374.252 78.189C373.692 78.189 373.17 78.042 372.684 77.748C372.204 77.454 371.814 77.0387 371.515 76.502C371.221 75.9653 371.074 75.3353 371.074 74.612C371.074 73.8467 371.221 73.2003 371.515 72.673C371.814 72.141 372.204 71.7373 372.684 71.462C373.17 71.1867 373.692 71.049 374.252 71.049C374.677 71.049 375.053 71.1167 375.379 71.252C375.711 71.3873 375.993 71.5693 376.226 71.798C376.46 72.0267 376.644 72.2833 376.779 72.568C376.919 72.848 377.013 73.135 377.059 73.429L375.54 73.485C375.456 73.163 375.302 72.9017 375.078 72.701C374.859 72.4957 374.579 72.393 374.238 72.393C373.954 72.393 373.685 72.4723 373.433 72.631C373.186 72.785 372.983 73.0253 372.824 73.352C372.67 73.6787 372.593 74.0987 372.593 74.612C372.593 75.0927 372.666 75.4987 372.81 75.83C372.955 76.1567 373.151 76.4063 373.398 76.579C373.65 76.747 373.93 76.831 374.238 76.831C374.682 76.831 375.008 76.7237 375.218 76.509C375.433 76.2897 375.54 75.9957 375.54 75.627H377.059C377.059 76.103 376.95 76.5347 376.73 76.922C376.511 77.3093 376.191 77.6173 375.771 77.846C375.356 78.0747 374.85 78.189 374.252 78.189ZM381.272 78.189C380.66 78.189 380.107 78.056 379.613 77.79C379.123 77.524 378.733 77.1273 378.444 76.6C378.154 76.0727 378.01 75.4147 378.01 74.626C378.01 73.8233 378.154 73.1583 378.444 72.631C378.733 72.1037 379.123 71.7093 379.613 71.448C380.107 71.182 380.66 71.049 381.272 71.049C381.883 71.049 382.431 71.182 382.917 71.448C383.407 71.7093 383.794 72.1037 384.079 72.631C384.368 73.1583 384.513 73.8233 384.513 74.626C384.513 75.4147 384.368 76.0727 384.079 76.6C383.794 77.1273 383.407 77.524 382.917 77.79C382.431 78.056 381.883 78.189 381.272 78.189ZM381.23 76.88C381.584 76.88 381.895 76.7937 382.161 76.621C382.431 76.4483 382.641 76.194 382.791 75.858C382.94 75.522 383.015 75.1113 383.015 74.626C383.015 73.884 382.865 73.3193 382.567 72.932C382.273 72.54 381.857 72.344 381.321 72.344C380.961 72.344 380.646 72.4303 380.376 72.603C380.11 72.7757 379.902 73.0323 379.753 73.373C379.603 73.7137 379.529 74.1313 379.529 74.626C379.529 75.354 379.678 75.9117 379.977 76.299C380.275 76.6863 380.693 76.88 381.23 76.88ZM386.095 78V71.21H387.593V78H386.095ZM387.208 75.004C387.208 74.1267 387.304 73.401 387.495 72.827C387.687 72.2483 387.948 71.819 388.279 71.539C388.611 71.2543 388.989 71.112 389.413 71.112C389.539 71.112 389.654 71.1213 389.756 71.14C389.864 71.154 389.971 71.1773 390.078 71.21L390.036 72.701C389.91 72.6683 389.775 72.6427 389.63 72.624C389.49 72.6007 389.362 72.589 389.245 72.589C388.877 72.589 388.569 72.6847 388.321 72.876C388.079 73.0627 387.897 73.3357 387.775 73.695C387.654 74.0543 387.593 74.4907 387.593 75.004H387.208ZM393.526 78.189C392.966 78.189 392.453 78.0397 391.986 77.741C391.52 77.4423 391.149 77.0247 390.873 76.488C390.598 75.9467 390.46 75.312 390.46 74.584C390.46 73.8653 390.593 73.2423 390.859 72.715C391.13 72.183 391.489 71.7723 391.937 71.483C392.385 71.1937 392.882 71.049 393.428 71.049C393.928 71.049 394.362 71.1703 394.73 71.413C395.099 71.651 395.381 72.0033 395.577 72.47C395.778 72.932 395.878 73.499 395.878 74.171H395.388C395.388 73.793 395.311 73.471 395.157 73.205C395.003 72.939 394.803 72.7383 394.555 72.603C394.308 72.463 394.04 72.393 393.75 72.393C393.414 72.393 393.111 72.484 392.84 72.666C392.574 72.8433 392.364 73.0977 392.21 73.429C392.056 73.7557 391.979 74.1407 391.979 74.584C391.979 75.0413 392.056 75.438 392.21 75.774C392.364 76.11 392.574 76.3713 392.84 76.558C393.111 76.74 393.412 76.831 393.743 76.831C394.019 76.831 394.28 76.7587 394.527 76.614C394.779 76.4647 394.985 76.257 395.143 75.991C395.307 75.7203 395.388 75.4007 395.388 75.032H395.878C395.878 75.7273 395.771 76.3107 395.556 76.782C395.346 77.2487 395.062 77.601 394.702 77.839C394.348 78.0723 393.956 78.189 393.526 78.189ZM395.661 78L395.388 76.348V68.41H396.893V78H395.661ZM400.987 68.998H402.772L405.04 73.002H404.725L407.063 68.998H408.834L405.614 74.29V78H404.116V74.29L400.987 68.998ZM411.383 78.189C410.771 78.189 410.218 78.056 409.724 77.79C409.234 77.524 408.844 77.1273 408.555 76.6C408.265 76.0727 408.121 75.4147 408.121 74.626C408.121 73.8233 408.265 73.1583 408.555 72.631C408.844 72.1037 409.234 71.7093 409.724 71.448C410.218 71.182 410.771 71.049 411.383 71.049C411.994 71.049 412.542 71.182 413.028 71.448C413.518 71.7093 413.905 72.1037 414.19 72.631C414.479 73.1583 414.624 73.8233 414.624 74.626C414.624 75.4147 414.479 76.0727 414.19 76.6C413.905 77.1273 413.518 77.524 413.028 77.79C412.542 78.056 411.994 78.189 411.383 78.189ZM411.341 76.88C411.695 76.88 412.006 76.7937 412.272 76.621C412.542 76.4483 412.752 76.194 412.902 75.858C413.051 75.522 413.126 75.1113 413.126 74.626C413.126 73.884 412.976 73.3193 412.678 72.932C412.384 72.54 411.968 72.344 411.432 72.344C411.072 72.344 410.757 72.4303 410.487 72.603C410.221 72.7757 410.013 73.0323 409.864 73.373C409.714 73.7137 409.64 74.1313 409.64 74.626C409.64 75.354 409.789 75.9117 410.088 76.299C410.386 76.6863 410.804 76.88 411.341 76.88ZM420.742 71.21H422.233V78H420.742V71.21ZM416.052 71.21H417.55V75.382C417.55 75.858 417.667 76.2173 417.9 76.46C418.134 76.698 418.46 76.817 418.88 76.817C419.23 76.817 419.545 76.726 419.825 76.544C420.11 76.3573 420.334 76.089 420.497 75.739C420.661 75.389 420.742 74.9643 420.742 74.465H421.176C421.176 75.2723 421.069 75.949 420.854 76.495C420.64 77.0363 420.341 77.4447 419.958 77.72C419.576 77.9907 419.13 78.126 418.621 78.126C418.136 78.126 417.697 78.0373 417.305 77.86C416.918 77.6827 416.612 77.405 416.388 77.027C416.164 76.6443 416.052 76.145 416.052 75.529V71.21ZM424.482 78V71.21H425.98V78H424.482ZM425.595 75.004C425.595 74.1267 425.69 73.401 425.882 72.827C426.073 72.2483 426.334 71.819 426.666 71.539C426.997 71.2543 427.375 71.112 427.8 71.112C427.926 71.112 428.04 71.1213 428.143 71.14C428.25 71.154 428.357 71.1773 428.465 71.21L428.423 72.701C428.297 72.6683 428.161 72.6427 428.017 72.624C427.877 72.6007 427.748 72.589 427.632 72.589C427.263 72.589 426.955 72.6847 426.708 72.876C426.465 73.0627 426.283 73.3357 426.162 73.695C426.04 74.0543 425.98 74.4907 425.98 75.004H425.595ZM356.33 88.998H358.479L361.167 94.696H361.034L363.722 88.998H365.801V98H364.289V90.685H364.527L361.587 96.978H360.607L357.681 90.72H357.828V98H356.33V88.998ZM370.529 98.189C369.95 98.189 369.423 98.0397 368.947 97.741C368.475 97.4423 368.097 97.0247 367.813 96.488C367.533 95.9513 367.393 95.3283 367.393 94.619C367.393 93.8723 367.533 93.233 367.813 92.701C368.093 92.169 368.468 91.7607 368.94 91.476C369.416 91.1913 369.945 91.049 370.529 91.049C371.065 91.049 371.525 91.1563 371.908 91.371C372.29 91.5857 372.598 91.875 372.832 92.239C373.07 92.603 373.231 93.016 373.315 93.478C373.399 93.9353 373.408 94.409 373.343 94.899H368.59V94.066H372.3L371.978 94.276C371.992 94.038 371.98 93.8 371.943 93.562C371.905 93.324 371.833 93.107 371.726 92.911C371.623 92.7103 371.476 92.5493 371.285 92.428C371.093 92.3067 370.851 92.246 370.557 92.246C370.193 92.246 369.885 92.337 369.633 92.519C369.385 92.701 369.199 92.946 369.073 93.254C368.947 93.562 368.884 93.905 368.884 94.283V94.885C368.884 95.291 368.944 95.6503 369.066 95.963C369.187 96.2757 369.369 96.523 369.612 96.705C369.854 96.887 370.16 96.978 370.529 96.978C370.883 96.978 371.177 96.8963 371.411 96.733C371.649 96.565 371.798 96.3153 371.859 95.984H373.378C373.308 96.4227 373.144 96.8077 372.888 97.139C372.631 97.4703 372.302 97.7293 371.901 97.916C371.499 98.098 371.042 98.189 370.529 98.189ZM377.485 98.189C376.836 98.189 376.281 98.098 375.819 97.916C375.362 97.734 375.009 97.4773 374.762 97.146C374.519 96.81 374.396 96.411 374.391 95.949H375.784C375.803 96.3083 375.947 96.5743 376.218 96.747C376.489 96.915 376.855 96.999 377.317 96.999C377.569 96.999 377.795 96.9617 377.996 96.887C378.197 96.8077 378.353 96.7027 378.465 96.572C378.582 96.4367 378.64 96.2873 378.64 96.124C378.64 95.914 378.563 95.7483 378.409 95.627C378.26 95.5057 378.017 95.396 377.681 95.298L376.246 94.801C375.705 94.6143 375.289 94.3647 375 94.052C374.711 93.7393 374.566 93.366 374.566 92.932C374.566 92.3673 374.82 91.9123 375.329 91.567C375.838 91.2217 376.514 91.049 377.359 91.049C378.218 91.049 378.88 91.2333 379.347 91.602C379.814 91.9707 380.054 92.435 380.068 92.995H378.647C378.619 92.7523 378.5 92.5633 378.29 92.428C378.08 92.288 377.77 92.218 377.359 92.218C376.981 92.218 376.685 92.2997 376.47 92.463C376.26 92.6217 376.155 92.8037 376.155 93.009C376.155 93.3683 376.463 93.6367 377.079 93.814L378.612 94.374C379.149 94.5513 379.564 94.78 379.858 95.06C380.152 95.34 380.299 95.6947 380.299 96.124C380.299 96.4787 380.18 96.8147 379.942 97.132C379.709 97.4447 379.382 97.699 378.962 97.895C378.542 98.091 378.05 98.189 377.485 98.189ZM384.448 98.189C383.799 98.189 383.244 98.098 382.782 97.916C382.325 97.734 381.972 97.4773 381.725 97.146C381.482 96.81 381.359 96.411 381.354 95.949H382.747C382.766 96.3083 382.91 96.5743 383.181 96.747C383.452 96.915 383.818 96.999 384.28 96.999C384.532 96.999 384.758 96.9617 384.959 96.887C385.16 96.8077 385.316 96.7027 385.428 96.572C385.545 96.4367 385.603 96.2873 385.603 96.124C385.603 95.914 385.526 95.7483 385.372 95.627C385.223 95.5057 384.98 95.396 384.644 95.298L383.209 94.801C382.668 94.6143 382.252 94.3647 381.963 94.052C381.674 93.7393 381.529 93.366 381.529 92.932C381.529 92.3673 381.783 91.9123 382.292 91.567C382.801 91.2217 383.477 91.049 384.322 91.049C385.181 91.049 385.843 91.2333 386.31 91.602C386.777 91.9707 387.017 92.435 387.031 92.995H385.61C385.582 92.7523 385.463 92.5633 385.253 92.428C385.043 92.288 384.733 92.218 384.322 92.218C383.944 92.218 383.648 92.2997 383.433 92.463C383.223 92.6217 383.118 92.8037 383.118 93.009C383.118 93.3683 383.426 93.6367 384.042 93.814L385.575 94.374C386.112 94.5513 386.527 94.78 386.821 95.06C387.115 95.34 387.262 95.6947 387.262 96.124C387.262 96.4787 387.143 96.8147 386.905 97.132C386.672 97.4447 386.345 97.699 385.925 97.895C385.505 98.091 385.013 98.189 384.448 98.189ZM393.189 98L393 96.397V93.632C393 93.1187 392.895 92.743 392.685 92.505C392.475 92.267 392.132 92.148 391.656 92.148C391.38 92.148 391.14 92.1877 390.935 92.267C390.729 92.3463 390.568 92.4653 390.452 92.624C390.34 92.778 390.284 92.9693 390.284 93.198H388.639C388.639 92.6893 388.76 92.2787 389.003 91.966C389.25 91.6487 389.598 91.4177 390.046 91.273C390.498 91.1237 391.035 91.049 391.656 91.049C392.22 91.049 392.715 91.1423 393.14 91.329C393.569 91.511 393.903 91.7957 394.141 92.183C394.379 92.5703 394.498 93.0697 394.498 93.681V98H393.189ZM390.949 98.189C390.375 98.189 389.896 98.0887 389.514 97.888C389.136 97.6873 388.851 97.4237 388.66 97.097C388.468 96.7703 388.373 96.418 388.373 96.04C388.373 95.606 388.485 95.2443 388.709 94.955C388.937 94.6657 389.255 94.451 389.661 94.311C390.071 94.1663 390.55 94.094 391.096 94.094C391.46 94.094 391.807 94.1243 392.139 94.185C392.475 94.241 392.808 94.3203 393.14 94.423V95.312C392.874 95.2187 392.582 95.1463 392.265 95.095C391.952 95.0437 391.658 95.018 391.383 95.018C390.977 95.018 390.638 95.0973 390.368 95.256C390.102 95.41 389.969 95.6713 389.969 96.04C389.969 96.3153 390.076 96.551 390.291 96.747C390.505 96.943 390.846 97.041 391.313 97.041C391.658 97.041 391.957 96.964 392.209 96.81C392.461 96.6513 392.654 96.4553 392.79 96.222C392.93 95.9887 393 95.7577 393 95.529H393.357C393.357 96.005 393.263 96.446 393.077 96.852C392.895 97.2533 392.624 97.5777 392.265 97.825C391.91 98.0677 391.471 98.189 390.949 98.189ZM399.092 101.493C398.341 101.493 397.695 101.388 397.153 101.178C396.617 100.973 396.204 100.697 395.914 100.352C395.625 100.011 395.48 99.6403 395.48 99.239C395.48 98.749 395.658 98.371 396.012 98.105C396.372 97.839 396.827 97.706 397.377 97.706L398.42 98.133C397.949 98.133 397.585 98.224 397.328 98.406C397.076 98.5927 396.95 98.847 396.95 99.169C396.95 99.505 397.137 99.7757 397.51 99.981C397.888 100.191 398.416 100.296 399.092 100.296C399.592 100.296 400.023 100.224 400.387 100.079C400.756 99.9343 401.041 99.743 401.241 99.505C401.442 99.2717 401.542 99.0243 401.542 98.763C401.542 98.5857 401.479 98.4363 401.353 98.315C401.232 98.1937 401.043 98.133 400.786 98.133H398.42C397.963 98.133 397.552 98.0607 397.188 97.916C396.829 97.7713 396.544 97.5777 396.334 97.335C396.124 97.0923 396.019 96.824 396.019 96.53C396.019 96.2453 396.099 96.0027 396.257 95.802C396.416 95.5967 396.628 95.4403 396.894 95.333C397.165 95.221 397.464 95.165 397.79 95.165L398.154 95.669C398.014 95.669 397.879 95.697 397.748 95.753C397.622 95.809 397.517 95.893 397.433 96.005C397.349 96.1123 397.307 96.2477 397.307 96.411C397.307 96.6023 397.389 96.761 397.552 96.887C397.72 97.013 398.01 97.076 398.42 97.076H400.786C401.486 97.076 402.035 97.209 402.431 97.475C402.833 97.7363 403.033 98.133 403.033 98.665C403.033 99.141 402.872 99.5937 402.55 100.023C402.233 100.457 401.78 100.809 401.192 101.08C400.604 101.355 399.904 101.493 399.092 101.493ZM399.211 95.942C398.679 95.942 398.194 95.8417 397.755 95.641C397.321 95.4357 396.974 95.151 396.712 94.787C396.456 94.4183 396.327 93.989 396.327 93.499C396.327 93.0043 396.456 92.5727 396.712 92.204C396.974 91.8353 397.321 91.5507 397.755 91.35C398.194 91.1493 398.679 91.049 399.211 91.049C399.729 91.049 400.205 91.1493 400.639 91.35C401.073 91.5507 401.421 91.8353 401.682 92.204C401.944 92.5727 402.074 93.0043 402.074 93.499C402.074 93.989 401.944 94.4183 401.682 94.787C401.421 95.151 401.073 95.4357 400.639 95.641C400.205 95.8417 399.729 95.942 399.211 95.942ZM399.218 94.892C399.671 94.892 400.014 94.759 400.247 94.493C400.485 94.227 400.604 93.8957 400.604 93.499C400.604 93.079 400.485 92.7407 400.247 92.484C400.014 92.2273 399.669 92.099 399.211 92.099C398.768 92.099 398.425 92.2273 398.182 92.484C397.94 92.7407 397.818 93.079 397.818 93.499C397.818 93.8957 397.94 94.227 398.182 94.493C398.425 94.759 398.77 94.892 399.218 94.892ZM401.563 92.134L400.87 91.763C400.87 91.357 400.959 91.0047 401.136 90.706C401.318 90.4027 401.563 90.167 401.871 89.999C402.179 89.831 402.525 89.747 402.907 89.747L402.823 91.189C402.413 91.189 402.1 91.266 401.885 91.42C401.671 91.574 401.563 91.812 401.563 92.134ZM406.683 98.189C406.104 98.189 405.577 98.0397 405.101 97.741C404.629 97.4423 404.251 97.0247 403.967 96.488C403.687 95.9513 403.547 95.3283 403.547 94.619C403.547 93.8723 403.687 93.233 403.967 92.701C404.247 92.169 404.622 91.7607 405.094 91.476C405.57 91.1913 406.099 91.049 406.683 91.049C407.219 91.049 407.679 91.1563 408.062 91.371C408.444 91.5857 408.752 91.875 408.986 92.239C409.224 92.603 409.385 93.016 409.469 93.478C409.553 93.9353 409.562 94.409 409.497 94.899H404.744V94.066H408.454L408.132 94.276C408.146 94.038 408.134 93.8 408.097 93.562C408.059 93.324 407.987 93.107 407.88 92.911C407.777 92.7103 407.63 92.5493 407.439 92.428C407.247 92.3067 407.005 92.246 406.711 92.246C406.347 92.246 406.039 92.337 405.787 92.519C405.539 92.701 405.353 92.946 405.227 93.254C405.101 93.562 405.038 93.905 405.038 94.283V94.885C405.038 95.291 405.098 95.6503 405.22 95.963C405.341 96.2757 405.523 96.523 405.766 96.705C406.008 96.887 406.314 96.978 406.683 96.978C407.037 96.978 407.331 96.8963 407.565 96.733C407.803 96.565 407.952 96.3153 408.013 95.984H409.532C409.462 96.4227 409.298 96.8077 409.042 97.139C408.785 97.4703 408.456 97.7293 408.055 97.916C407.653 98.098 407.196 98.189 406.683 98.189Z" fill="#E9F2ED"/>
<rect x="303" y="152" width="42" height="42" rx="21" fill="#FFAB91"/>
<path d="M330.859 166.875C331.315 166.898 331.702 167.057 332.021 167.354C332.318 167.673 332.477 168.06 332.5 168.516C332.477 169.062 332.261 169.495 331.851 169.814L324.399 175.42C323.966 175.693 323.533 175.693 323.101 175.42L315.649 169.814C315.239 169.495 315.023 169.062 315 168.516C315.023 168.06 315.182 167.673 315.478 167.354C315.797 167.057 316.185 166.898 316.641 166.875H330.859ZM322.451 176.274C322.838 176.571 323.271 176.719 323.75 176.719C324.228 176.719 324.661 176.571 325.049 176.274L332.5 170.703V177.812C332.477 178.428 332.261 178.94 331.851 179.351C331.44 179.761 330.928 179.977 330.312 180H317.187C316.572 179.977 316.06 179.761 315.649 179.351C315.239 178.94 315.023 178.428 315 177.812V170.703L322.451 176.274Z" fill="white"/>
<path d="M359.564 168.189C358.775 168.189 358.089 167.998 357.506 167.615C356.923 167.232 356.47 166.689 356.148 165.984C355.831 165.279 355.672 164.439 355.672 163.464C355.672 162.451 355.84 161.602 356.176 160.916C356.512 160.225 356.974 159.705 357.562 159.355C358.15 159 358.817 158.823 359.564 158.823C360.591 158.823 361.398 159.075 361.986 159.579C362.579 160.078 362.964 160.727 363.141 161.525L361.538 161.826C361.384 161.331 361.137 160.932 360.796 160.629C360.46 160.326 360.049 160.174 359.564 160.174C359.144 160.174 358.761 160.298 358.416 160.545C358.071 160.788 357.795 161.154 357.59 161.644C357.389 162.129 357.289 162.736 357.289 163.464C357.289 164.145 357.375 164.738 357.548 165.242C357.725 165.741 357.982 166.129 358.318 166.404C358.659 166.679 359.074 166.817 359.564 166.817C360.185 166.817 360.668 166.651 361.013 166.32C361.363 165.989 361.538 165.564 361.538 165.046H363.148C363.148 165.709 363.001 166.273 362.707 166.74C362.418 167.207 362.005 167.566 361.468 167.818C360.936 168.065 360.301 168.189 359.564 168.189ZM364.701 168V161.21H366.199V168H364.701ZM365.814 165.004C365.814 164.127 365.91 163.401 366.101 162.827C366.292 162.248 366.554 161.819 366.885 161.539C367.216 161.254 367.594 161.112 368.019 161.112C368.145 161.112 368.259 161.121 368.362 161.14C368.469 161.154 368.577 161.177 368.684 161.21L368.642 162.701C368.516 162.668 368.381 162.643 368.236 162.624C368.096 162.601 367.968 162.589 367.851 162.589C367.482 162.589 367.174 162.685 366.927 162.876C366.684 163.063 366.502 163.336 366.381 163.695C366.26 164.054 366.199 164.491 366.199 165.004H365.814ZM372.132 168.189C371.553 168.189 371.026 168.04 370.55 167.741C370.079 167.442 369.701 167.025 369.416 166.488C369.136 165.951 368.996 165.328 368.996 164.619C368.996 163.872 369.136 163.233 369.416 162.701C369.696 162.169 370.072 161.761 370.543 161.476C371.019 161.191 371.549 161.049 372.132 161.049C372.669 161.049 373.128 161.156 373.511 161.371C373.894 161.586 374.202 161.875 374.435 162.239C374.673 162.603 374.834 163.016 374.918 163.478C375.002 163.935 375.011 164.409 374.946 164.899H370.193V164.066H373.903L373.581 164.276C373.595 164.038 373.583 163.8 373.546 163.562C373.509 163.324 373.436 163.107 373.329 162.911C373.226 162.71 373.079 162.549 372.888 162.428C372.697 162.307 372.454 162.246 372.16 162.246C371.796 162.246 371.488 162.337 371.236 162.519C370.989 162.701 370.802 162.946 370.676 163.254C370.55 163.562 370.487 163.905 370.487 164.283V164.885C370.487 165.291 370.548 165.65 370.669 165.963C370.79 166.276 370.972 166.523 371.215 166.705C371.458 166.887 371.763 166.978 372.132 166.978C372.487 166.978 372.781 166.896 373.014 166.733C373.252 166.565 373.401 166.315 373.462 165.984H374.981C374.911 166.423 374.748 166.808 374.491 167.139C374.234 167.47 373.905 167.729 373.504 167.916C373.103 168.098 372.645 168.189 372.132 168.189ZM380.867 168L380.678 166.397V163.632C380.678 163.119 380.573 162.743 380.363 162.505C380.153 162.267 379.81 162.148 379.334 162.148C379.058 162.148 378.818 162.188 378.613 162.267C378.407 162.346 378.246 162.465 378.13 162.624C378.018 162.778 377.962 162.969 377.962 163.198H376.317C376.317 162.689 376.438 162.279 376.681 161.966C376.928 161.649 377.276 161.418 377.724 161.273C378.176 161.124 378.713 161.049 379.334 161.049C379.898 161.049 380.393 161.142 380.818 161.329C381.247 161.511 381.581 161.796 381.819 162.183C382.057 162.57 382.176 163.07 382.176 163.681V168H380.867ZM378.627 168.189C378.053 168.189 377.574 168.089 377.192 167.888C376.814 167.687 376.529 167.424 376.338 167.097C376.146 166.77 376.051 166.418 376.051 166.04C376.051 165.606 376.163 165.244 376.387 164.955C376.615 164.666 376.933 164.451 377.339 164.311C377.749 164.166 378.228 164.094 378.774 164.094C379.138 164.094 379.485 164.124 379.817 164.185C380.153 164.241 380.486 164.32 380.818 164.423V165.312C380.552 165.219 380.26 165.146 379.943 165.095C379.63 165.044 379.336 165.018 379.061 165.018C378.655 165.018 378.316 165.097 378.046 165.256C377.78 165.41 377.647 165.671 377.647 166.04C377.647 166.315 377.754 166.551 377.969 166.747C378.183 166.943 378.524 167.041 378.991 167.041C379.336 167.041 379.635 166.964 379.887 166.81C380.139 166.651 380.332 166.455 380.468 166.222C380.608 165.989 380.678 165.758 380.678 165.529H381.035C381.035 166.005 380.941 166.446 380.755 166.852C380.573 167.253 380.302 167.578 379.943 167.825C379.588 168.068 379.149 168.189 378.627 168.189ZM386.455 168.189C386.063 168.189 385.706 168.117 385.384 167.972C385.067 167.823 384.813 167.599 384.621 167.3C384.43 166.997 384.334 166.616 384.334 166.159V159.418H385.825V166.11C385.825 166.703 386.108 166.999 386.672 166.999C386.845 166.999 387.015 166.98 387.183 166.943C387.351 166.906 387.54 166.847 387.75 166.768L387.967 167.825C387.715 167.928 387.466 168.014 387.218 168.084C386.976 168.154 386.721 168.189 386.455 168.189ZM383.347 162.239V161.238H387.75V162.239H383.347ZM391.735 168.189C391.157 168.189 390.629 168.04 390.153 167.741C389.682 167.442 389.304 167.025 389.019 166.488C388.739 165.951 388.599 165.328 388.599 164.619C388.599 163.872 388.739 163.233 389.019 162.701C389.299 162.169 389.675 161.761 390.146 161.476C390.622 161.191 391.152 161.049 391.735 161.049C392.272 161.049 392.732 161.156 393.114 161.371C393.497 161.586 393.805 161.875 394.038 162.239C394.276 162.603 394.437 163.016 394.521 163.478C394.605 163.935 394.615 164.409 394.549 164.899H389.796V164.066H393.506L393.184 164.276C393.198 164.038 393.187 163.8 393.149 163.562C393.112 163.324 393.04 163.107 392.932 162.911C392.83 162.71 392.683 162.549 392.491 162.428C392.3 162.307 392.057 162.246 391.763 162.246C391.399 162.246 391.091 162.337 390.839 162.519C390.592 162.701 390.405 162.946 390.279 163.254C390.153 163.562 390.09 163.905 390.09 164.283V164.885C390.09 165.291 390.151 165.65 390.272 165.963C390.394 166.276 390.576 166.523 390.818 166.705C391.061 166.887 391.367 166.978 391.735 166.978C392.09 166.978 392.384 166.896 392.617 166.733C392.855 166.565 393.005 166.315 393.065 165.984H394.584C394.514 166.423 394.351 166.808 394.094 167.139C393.838 167.47 393.509 167.729 393.107 167.916C392.706 168.098 392.249 168.189 391.735 168.189ZM399.259 168V158.998H402.542C403.606 158.998 404.418 159.248 404.978 159.747C405.543 160.246 405.825 160.907 405.825 161.728C405.825 162.54 405.543 163.196 404.978 163.695C404.418 164.194 403.606 164.444 402.542 164.444H400.757V168H399.259ZM404.18 168L401.744 163.814H403.347L406.133 168H404.18ZM400.757 163.429H402.395C403.016 163.429 403.487 163.284 403.809 162.995C404.131 162.701 404.292 162.323 404.292 161.861C404.292 161.385 404.143 161.005 403.844 160.72C403.55 160.431 403.116 160.286 402.542 160.286H400.757V163.429ZM410.204 168.189C409.625 168.189 409.098 168.04 408.622 167.741C408.151 167.442 407.773 167.025 407.488 166.488C407.208 165.951 407.068 165.328 407.068 164.619C407.068 163.872 407.208 163.233 407.488 162.701C407.768 162.169 408.144 161.761 408.615 161.476C409.091 161.191 409.621 161.049 410.204 161.049C410.741 161.049 411.2 161.156 411.583 161.371C411.966 161.586 412.274 161.875 412.507 162.239C412.745 162.603 412.906 163.016 412.99 163.478C413.074 163.935 413.083 164.409 413.018 164.899H408.265V164.066H411.975L411.653 164.276C411.667 164.038 411.655 163.8 411.618 163.562C411.581 163.324 411.508 163.107 411.401 162.911C411.298 162.71 411.151 162.549 410.96 162.428C410.769 162.307 410.526 162.246 410.232 162.246C409.868 162.246 409.56 162.337 409.308 162.519C409.061 162.701 408.874 162.946 408.748 163.254C408.622 163.562 408.559 163.905 408.559 164.283V164.885C408.559 165.291 408.62 165.65 408.741 165.963C408.862 166.276 409.044 166.523 409.287 166.705C409.53 166.887 409.835 166.978 410.204 166.978C410.559 166.978 410.853 166.896 411.086 166.733C411.324 166.565 411.473 166.315 411.534 165.984H413.053C412.983 166.423 412.82 166.808 412.563 167.139C412.306 167.47 411.977 167.729 411.576 167.916C411.175 168.098 410.717 168.189 410.204 168.189ZM417.181 168.189C416.621 168.189 416.099 168.042 415.613 167.748C415.133 167.454 414.743 167.039 414.444 166.502C414.15 165.965 414.003 165.335 414.003 164.612C414.003 163.847 414.15 163.2 414.444 162.673C414.743 162.141 415.133 161.737 415.613 161.462C416.099 161.187 416.621 161.049 417.181 161.049C417.606 161.049 417.982 161.117 418.308 161.252C418.64 161.387 418.922 161.569 419.155 161.798C419.389 162.027 419.573 162.283 419.708 162.568C419.848 162.848 419.942 163.135 419.988 163.429L418.469 163.485C418.385 163.163 418.231 162.902 418.007 162.701C417.788 162.496 417.508 162.393 417.167 162.393C416.883 162.393 416.614 162.472 416.362 162.631C416.115 162.785 415.912 163.025 415.753 163.352C415.599 163.679 415.522 164.099 415.522 164.612C415.522 165.093 415.595 165.499 415.739 165.83C415.884 166.157 416.08 166.406 416.327 166.579C416.579 166.747 416.859 166.831 417.167 166.831C417.611 166.831 417.937 166.724 418.147 166.509C418.362 166.29 418.469 165.996 418.469 165.627H419.988C419.988 166.103 419.879 166.535 419.659 166.922C419.44 167.309 419.12 167.617 418.7 167.846C418.285 168.075 417.779 168.189 417.181 168.189ZM422.472 159.901C422.178 159.901 421.947 159.822 421.779 159.663C421.611 159.5 421.527 159.28 421.527 159.005C421.527 158.734 421.611 158.52 421.779 158.361C421.947 158.202 422.178 158.123 422.472 158.123C422.761 158.123 422.99 158.202 423.158 158.361C423.326 158.52 423.41 158.734 423.41 159.005C423.41 159.28 423.326 159.5 423.158 159.663C422.99 159.822 422.761 159.901 422.472 159.901ZM421.723 168V161.21H423.221V168H421.723ZM428.951 168.189C428.457 168.189 428.032 168.082 427.677 167.867C427.323 167.648 427.052 167.321 426.865 166.887C426.679 166.453 426.585 165.912 426.585 165.263H427.145C427.145 165.594 427.22 165.877 427.369 166.11C427.519 166.343 427.715 166.523 427.957 166.649C428.205 166.77 428.466 166.831 428.741 166.831C429.035 166.831 429.322 166.749 429.602 166.586C429.882 166.423 430.113 166.178 430.295 165.851C430.477 165.52 430.568 165.107 430.568 164.612C430.568 164.15 430.489 163.753 430.33 163.422C430.172 163.091 429.957 162.836 429.686 162.659C429.416 162.482 429.11 162.393 428.769 162.393C428.48 162.393 428.212 162.461 427.964 162.596C427.717 162.727 427.519 162.92 427.369 163.177C427.22 163.429 427.145 163.739 427.145 164.108H426.585C426.585 163.413 426.695 162.839 426.914 162.386C427.134 161.933 427.428 161.597 427.796 161.378C428.165 161.159 428.569 161.049 429.007 161.049C429.544 161.049 430.046 161.191 430.512 161.476C430.979 161.756 431.357 162.162 431.646 162.694C431.936 163.226 432.08 163.865 432.08 164.612C432.08 165.363 431.933 166.005 431.639 166.537C431.35 167.069 430.965 167.477 430.484 167.762C430.008 168.047 429.497 168.189 428.951 168.189ZM425.647 171.311V161.238H426.886L427.145 162.883V171.311H425.647ZM434.538 159.901C434.244 159.901 434.013 159.822 433.845 159.663C433.677 159.5 433.593 159.28 433.593 159.005C433.593 158.734 433.677 158.52 433.845 158.361C434.013 158.202 434.244 158.123 434.538 158.123C434.827 158.123 435.056 158.202 435.224 158.361C435.392 158.52 435.476 158.734 435.476 159.005C435.476 159.28 435.392 159.5 435.224 159.663C435.056 159.822 434.827 159.901 434.538 159.901ZM433.789 168V161.21H435.287V168H433.789ZM440.192 168.189C439.613 168.189 439.086 168.04 438.61 167.741C438.138 167.442 437.76 167.025 437.476 166.488C437.196 165.951 437.056 165.328 437.056 164.619C437.056 163.872 437.196 163.233 437.476 162.701C437.756 162.169 438.131 161.761 438.603 161.476C439.079 161.191 439.608 161.049 440.192 161.049C440.728 161.049 441.188 161.156 441.571 161.371C441.953 161.586 442.261 161.875 442.495 162.239C442.733 162.603 442.894 163.016 442.978 163.478C443.062 163.935 443.071 164.409 443.006 164.899H438.253V164.066H441.963L441.641 164.276C441.655 164.038 441.643 163.8 441.606 163.562C441.568 163.324 441.496 163.107 441.389 162.911C441.286 162.71 441.139 162.549 440.948 162.428C440.756 162.307 440.514 162.246 440.22 162.246C439.856 162.246 439.548 162.337 439.296 162.519C439.048 162.701 438.862 162.946 438.736 163.254C438.61 163.562 438.547 163.905 438.547 164.283V164.885C438.547 165.291 438.607 165.65 438.729 165.963C438.85 166.276 439.032 166.523 439.275 166.705C439.517 166.887 439.823 166.978 440.192 166.978C440.546 166.978 440.84 166.896 441.074 166.733C441.312 166.565 441.461 166.315 441.522 165.984H443.041C442.971 166.423 442.807 166.808 442.551 167.139C442.294 167.47 441.965 167.729 441.564 167.916C441.162 168.098 440.705 168.189 440.192 168.189ZM449.339 168V164.038C449.339 163.497 449.209 163.088 448.947 162.813C448.691 162.533 448.348 162.393 447.918 162.393C447.568 162.393 447.26 162.489 446.994 162.68C446.728 162.871 446.521 163.156 446.371 163.534C446.222 163.912 446.147 164.376 446.147 164.927H445.636C445.636 164.073 445.744 163.359 445.958 162.785C446.178 162.211 446.486 161.779 446.882 161.49C447.284 161.196 447.757 161.049 448.303 161.049C448.854 161.049 449.316 161.173 449.689 161.42C450.067 161.667 450.352 162.015 450.543 162.463C450.739 162.911 450.837 163.436 450.837 164.038V168H449.339ZM444.649 168V161.238H445.958L446.147 162.638V168H444.649ZM455.103 168.189C454.711 168.189 454.354 168.117 454.032 167.972C453.715 167.823 453.46 167.599 453.269 167.3C453.078 166.997 452.982 166.616 452.982 166.159V159.418H454.473V166.11C454.473 166.703 454.755 166.999 455.32 166.999C455.493 166.999 455.663 166.98 455.831 166.943C455.999 166.906 456.188 166.847 456.398 166.768L456.615 167.825C456.363 167.928 456.113 168.014 455.866 168.084C455.623 168.154 455.369 168.189 455.103 168.189ZM451.995 162.239V161.238H456.398V162.239H451.995ZM460.404 168.189C459.755 168.189 459.2 168.098 458.738 167.916C458.281 167.734 457.928 167.477 457.681 167.146C457.438 166.81 457.315 166.411 457.31 165.949H458.703C458.722 166.308 458.866 166.574 459.137 166.747C459.408 166.915 459.774 166.999 460.236 166.999C460.488 166.999 460.714 166.962 460.915 166.887C461.116 166.808 461.272 166.703 461.384 166.572C461.501 166.437 461.559 166.287 461.559 166.124C461.559 165.914 461.482 165.748 461.328 165.627C461.179 165.506 460.936 165.396 460.6 165.298L459.165 164.801C458.624 164.614 458.208 164.365 457.919 164.052C457.63 163.739 457.485 163.366 457.485 162.932C457.485 162.367 457.739 161.912 458.248 161.567C458.757 161.222 459.433 161.049 460.278 161.049C461.137 161.049 461.799 161.233 462.266 161.602C462.733 161.971 462.973 162.435 462.987 162.995H461.566C461.538 162.752 461.419 162.563 461.209 162.428C460.999 162.288 460.689 162.218 460.278 162.218C459.9 162.218 459.604 162.3 459.389 162.463C459.179 162.622 459.074 162.804 459.074 163.009C459.074 163.368 459.382 163.637 459.998 163.814L461.531 164.374C462.068 164.551 462.483 164.78 462.777 165.06C463.071 165.34 463.218 165.695 463.218 166.124C463.218 166.479 463.099 166.815 462.861 167.132C462.628 167.445 462.301 167.699 461.881 167.895C461.461 168.091 460.969 168.189 460.404 168.189ZM360.607 188L360.418 186.397V183.632C360.418 183.119 360.313 182.743 360.103 182.505C359.893 182.267 359.55 182.148 359.074 182.148C358.799 182.148 358.558 182.188 358.353 182.267C358.148 182.346 357.987 182.465 357.87 182.624C357.758 182.778 357.702 182.969 357.702 183.198H356.057C356.057 182.689 356.178 182.279 356.421 181.966C356.668 181.649 357.016 181.418 357.464 181.273C357.917 181.124 358.453 181.049 359.074 181.049C359.639 181.049 360.133 181.142 360.558 181.329C360.987 181.511 361.321 181.796 361.559 182.183C361.797 182.57 361.916 183.07 361.916 183.681V188H360.607ZM358.367 188.189C357.793 188.189 357.315 188.089 356.932 187.888C356.554 187.687 356.269 187.424 356.078 187.097C355.887 186.77 355.791 186.418 355.791 186.04C355.791 185.606 355.903 185.244 356.127 184.955C356.356 184.666 356.673 184.451 357.079 184.311C357.49 184.166 357.968 184.094 358.514 184.094C358.878 184.094 359.226 184.124 359.557 184.185C359.893 184.241 360.227 184.32 360.558 184.423V185.312C360.292 185.219 360 185.146 359.683 185.095C359.37 185.044 359.076 185.018 358.801 185.018C358.395 185.018 358.057 185.097 357.786 185.256C357.52 185.41 357.387 185.671 357.387 186.04C357.387 186.315 357.494 186.551 357.709 186.747C357.924 186.943 358.264 187.041 358.731 187.041C359.076 187.041 359.375 186.964 359.627 186.81C359.879 186.651 360.073 186.455 360.208 186.222C360.348 185.989 360.418 185.758 360.418 185.529H360.775C360.775 186.005 360.682 186.446 360.495 186.852C360.313 187.253 360.042 187.578 359.683 187.825C359.328 188.068 358.89 188.189 358.367 188.189ZM368.653 188V184.038C368.653 183.497 368.522 183.088 368.261 182.813C368.004 182.533 367.661 182.393 367.232 182.393C366.882 182.393 366.574 182.489 366.308 182.68C366.042 182.871 365.834 183.156 365.685 183.534C365.535 183.912 365.461 184.376 365.461 184.927H364.95C364.95 184.073 365.057 183.359 365.272 182.785C365.491 182.211 365.799 181.779 366.196 181.49C366.597 181.196 367.071 181.049 367.617 181.049C368.167 181.049 368.629 181.173 369.003 181.42C369.381 181.667 369.665 182.015 369.857 182.463C370.053 182.911 370.151 183.436 370.151 184.038V188H368.653ZM363.963 188V181.238H365.272L365.461 182.638V188H363.963ZM374.661 188.189C374.101 188.189 373.588 188.04 373.121 187.741C372.655 187.442 372.284 187.025 372.008 186.488C371.733 185.947 371.595 185.312 371.595 184.584C371.595 183.865 371.728 183.242 371.994 182.715C372.265 182.183 372.624 181.772 373.072 181.483C373.52 181.194 374.017 181.049 374.563 181.049C375.063 181.049 375.497 181.17 375.865 181.413C376.234 181.651 376.516 182.003 376.712 182.47C376.913 182.932 377.013 183.499 377.013 184.171H376.523C376.523 183.793 376.446 183.471 376.292 183.205C376.138 182.939 375.938 182.738 375.69 182.603C375.443 182.463 375.175 182.393 374.885 182.393C374.549 182.393 374.246 182.484 373.975 182.666C373.709 182.843 373.499 183.098 373.345 183.429C373.191 183.756 373.114 184.141 373.114 184.584C373.114 185.041 373.191 185.438 373.345 185.774C373.499 186.11 373.709 186.371 373.975 186.558C374.246 186.74 374.547 186.831 374.878 186.831C375.154 186.831 375.415 186.759 375.662 186.614C375.914 186.465 376.12 186.257 376.278 185.991C376.442 185.72 376.523 185.401 376.523 185.032H377.013C377.013 185.727 376.906 186.311 376.691 186.782C376.481 187.249 376.197 187.601 375.837 187.839C375.483 188.072 375.091 188.189 374.661 188.189ZM376.796 188L376.523 186.348V178.41H378.028V188H376.796ZM386.42 188.189C385.8 188.189 385.23 188.082 384.712 187.867C384.194 187.648 383.774 187.319 383.452 186.88C383.13 186.437 382.96 185.881 382.941 185.214H384.411C384.411 185.583 384.502 185.886 384.684 186.124C384.866 186.357 385.107 186.532 385.405 186.649C385.709 186.761 386.042 186.817 386.406 186.817C386.766 186.817 387.083 186.766 387.358 186.663C387.638 186.56 387.855 186.418 388.009 186.236C388.168 186.054 388.247 185.844 388.247 185.606C388.247 185.284 388.149 185.03 387.953 184.843C387.757 184.652 387.449 184.484 387.029 184.339L385.307 183.674C384.598 183.403 384.057 183.091 383.683 182.736C383.31 182.377 383.123 181.882 383.123 181.252C383.123 180.533 383.406 179.95 383.97 179.502C384.54 179.049 385.335 178.823 386.357 178.823C387.342 178.823 388.105 179.052 388.646 179.509C389.188 179.966 389.496 180.596 389.57 181.399H388.1C388.035 181.026 387.862 180.729 387.582 180.51C387.307 180.291 386.899 180.181 386.357 180.181C385.858 180.181 385.466 180.286 385.181 180.496C384.901 180.706 384.761 180.972 384.761 181.294C384.761 181.565 384.85 181.779 385.027 181.938C385.209 182.097 385.489 182.246 385.867 182.386L387.806 183.114C388.469 183.361 388.98 183.683 389.339 184.08C389.703 184.472 389.885 184.967 389.885 185.564C389.885 186.087 389.75 186.546 389.479 186.943C389.213 187.335 388.821 187.641 388.303 187.86C387.79 188.079 387.162 188.189 386.42 188.189ZM394.21 188.189C393.631 188.189 393.104 188.04 392.628 187.741C392.157 187.442 391.779 187.025 391.494 186.488C391.214 185.951 391.074 185.328 391.074 184.619C391.074 183.872 391.214 183.233 391.494 182.701C391.774 182.169 392.15 181.761 392.621 181.476C393.097 181.191 393.627 181.049 394.21 181.049C394.747 181.049 395.206 181.156 395.589 181.371C395.972 181.586 396.28 181.875 396.513 182.239C396.751 182.603 396.912 183.016 396.996 183.478C397.08 183.935 397.089 184.409 397.024 184.899H392.271V184.066H395.981L395.659 184.276C395.673 184.038 395.661 183.8 395.624 183.562C395.587 183.324 395.514 183.107 395.407 182.911C395.304 182.71 395.157 182.549 394.966 182.428C394.775 182.307 394.532 182.246 394.238 182.246C393.874 182.246 393.566 182.337 393.314 182.519C393.067 182.701 392.88 182.946 392.754 183.254C392.628 183.562 392.565 183.905 392.565 184.283V184.885C392.565 185.291 392.626 185.65 392.747 185.963C392.868 186.276 393.05 186.523 393.293 186.705C393.536 186.887 393.841 186.978 394.21 186.978C394.565 186.978 394.859 186.896 395.092 186.733C395.33 186.565 395.479 186.315 395.54 185.984H397.059C396.989 186.423 396.826 186.808 396.569 187.139C396.312 187.47 395.983 187.729 395.582 187.916C395.181 188.098 394.723 188.189 394.21 188.189ZM403.357 188V184.038C403.357 183.497 403.227 183.088 402.965 182.813C402.709 182.533 402.366 182.393 401.936 182.393C401.586 182.393 401.278 182.489 401.012 182.68C400.746 182.871 400.539 183.156 400.389 183.534C400.24 183.912 400.165 184.376 400.165 184.927H399.654C399.654 184.073 399.762 183.359 399.976 182.785C400.196 182.211 400.504 181.779 400.9 181.49C401.302 181.196 401.775 181.049 402.321 181.049C402.872 181.049 403.334 181.173 403.707 181.42C404.085 181.667 404.37 182.015 404.561 182.463C404.757 182.911 404.855 183.436 404.855 184.038V188H403.357ZM398.667 188V181.238H399.976L400.165 182.638V188H398.667ZM409.366 188.189C408.806 188.189 408.293 188.04 407.826 187.741C407.359 187.442 406.988 187.025 406.713 186.488C406.438 185.947 406.3 185.312 406.3 184.584C406.3 183.865 406.433 183.242 406.699 182.715C406.97 182.183 407.329 181.772 407.777 181.483C408.225 181.194 408.722 181.049 409.268 181.049C409.767 181.049 410.201 181.17 410.57 181.413C410.939 181.651 411.221 182.003 411.417 182.47C411.618 182.932 411.718 183.499 411.718 184.171H411.228C411.228 183.793 411.151 183.471 410.997 183.205C410.843 182.939 410.642 182.738 410.395 182.603C410.148 182.463 409.879 182.393 409.59 182.393C409.254 182.393 408.951 182.484 408.68 182.666C408.414 182.843 408.204 183.098 408.05 183.429C407.896 183.756 407.819 184.141 407.819 184.584C407.819 185.041 407.896 185.438 408.05 185.774C408.204 186.11 408.414 186.371 408.68 186.558C408.951 186.74 409.252 186.831 409.583 186.831C409.858 186.831 410.12 186.759 410.367 186.614C410.619 186.465 410.824 186.257 410.983 185.991C411.146 185.72 411.228 185.401 411.228 185.032H411.718C411.718 185.727 411.611 186.311 411.396 186.782C411.186 187.249 410.901 187.601 410.542 187.839C410.187 188.072 409.795 188.189 409.366 188.189ZM411.501 188L411.228 186.348V178.41H412.733V188H411.501Z" fill="#E9F2ED"/>
<rect x="303" y="242" width="42" height="42" rx="21" fill="#FFE082"/>
<path d="M331.406 260.84C331.725 261 331.987 261.262 332.193 261.626C332.398 261.991 332.5 262.412 332.5 262.891C332.5 263.369 332.398 263.791 332.193 264.156C331.987 264.52 331.725 264.782 331.406 264.942V270C331.384 270.479 331.156 270.821 330.723 271.026C330.29 271.185 329.891 271.105 329.527 270.786L328.057 269.248C327.214 268.428 326.268 267.801 325.22 267.368C324.149 266.935 323.032 266.719 321.87 266.719H321.563V271.094C321.563 271.413 321.46 271.675 321.255 271.88C321.05 272.085 320.788 272.188 320.469 272.188H318.281C317.962 272.188 317.7 272.085 317.495 271.88C317.29 271.675 317.188 271.413 317.188 271.094V266.719C316.572 266.696 316.06 266.48 315.65 266.07C315.239 265.659 315.023 265.147 315 264.531V261.25C315.023 260.635 315.239 260.122 315.65 259.712C316.06 259.302 316.572 259.086 317.188 259.063H321.87C323.032 259.063 324.149 258.846 325.22 258.413C326.268 257.958 327.214 257.32 328.057 256.499L329.527 254.995C329.891 254.676 330.29 254.597 330.723 254.756C331.156 254.961 331.384 255.303 331.406 255.781V260.84ZM321.87 261.25H321.563V264.531H321.87C323.237 264.531 324.548 264.782 325.801 265.283C327.054 265.762 328.194 266.457 329.219 267.368V258.413C328.194 259.325 327.054 260.02 325.801 260.498C324.548 261 323.237 261.25 321.87 261.25Z" fill="#757575"/>
<path d="M359.06 256.369L361.461 248.998H363.036L359.907 258H358.339L355.252 248.998H356.841L359.214 256.369H359.06ZM366.266 258.189C365.655 258.189 365.102 258.056 364.607 257.79C364.117 257.524 363.727 257.127 363.438 256.6C363.149 256.073 363.004 255.415 363.004 254.626C363.004 253.823 363.149 253.158 363.438 252.631C363.727 252.104 364.117 251.709 364.607 251.448C365.102 251.182 365.655 251.049 366.266 251.049C366.877 251.049 367.426 251.182 367.911 251.448C368.401 251.709 368.788 252.104 369.073 252.631C369.362 253.158 369.507 253.823 369.507 254.626C369.507 255.415 369.362 256.073 369.073 256.6C368.788 257.127 368.401 257.524 367.911 257.79C367.426 258.056 366.877 258.189 366.266 258.189ZM366.224 256.88C366.579 256.88 366.889 256.794 367.155 256.621C367.426 256.448 367.636 256.194 367.785 255.858C367.934 255.522 368.009 255.111 368.009 254.626C368.009 253.884 367.86 253.319 367.561 252.932C367.267 252.54 366.852 252.344 366.315 252.344C365.956 252.344 365.641 252.43 365.37 252.603C365.104 252.776 364.896 253.032 364.747 253.373C364.598 253.714 364.523 254.131 364.523 254.626C364.523 255.354 364.672 255.912 364.971 256.299C365.27 256.686 365.687 256.88 366.224 256.88ZM371.965 249.901C371.671 249.901 371.44 249.822 371.272 249.663C371.104 249.5 371.02 249.28 371.02 249.005C371.02 248.734 371.104 248.52 371.272 248.361C371.44 248.202 371.671 248.123 371.965 248.123C372.254 248.123 372.483 248.202 372.651 248.361C372.819 248.52 372.903 248.734 372.903 249.005C372.903 249.28 372.819 249.5 372.651 249.663C372.483 249.822 372.254 249.901 371.965 249.901ZM371.216 258V251.21H372.714V258H371.216ZM377.66 258.189C377.1 258.189 376.578 258.042 376.092 257.748C375.612 257.454 375.222 257.039 374.923 256.502C374.629 255.965 374.482 255.335 374.482 254.612C374.482 253.847 374.629 253.2 374.923 252.673C375.222 252.141 375.612 251.737 376.092 251.462C376.578 251.187 377.1 251.049 377.66 251.049C378.085 251.049 378.461 251.117 378.787 251.252C379.119 251.387 379.401 251.569 379.634 251.798C379.868 252.027 380.052 252.283 380.187 252.568C380.327 252.848 380.421 253.135 380.467 253.429L378.948 253.485C378.864 253.163 378.71 252.902 378.486 252.701C378.267 252.496 377.987 252.393 377.646 252.393C377.362 252.393 377.093 252.472 376.841 252.631C376.594 252.785 376.391 253.025 376.232 253.352C376.078 253.679 376.001 254.099 376.001 254.612C376.001 255.093 376.074 255.499 376.218 255.83C376.363 256.157 376.559 256.406 376.806 256.579C377.058 256.747 377.338 256.831 377.646 256.831C378.09 256.831 378.416 256.724 378.626 256.509C378.841 256.29 378.948 255.996 378.948 255.627H380.467C380.467 256.103 380.358 256.535 380.138 256.922C379.919 257.309 379.599 257.617 379.179 257.846C378.764 258.075 378.258 258.189 377.66 258.189ZM384.554 258.189C383.975 258.189 383.448 258.04 382.972 257.741C382.5 257.442 382.122 257.025 381.838 256.488C381.558 255.951 381.418 255.328 381.418 254.619C381.418 253.872 381.558 253.233 381.838 252.701C382.118 252.169 382.493 251.761 382.965 251.476C383.441 251.191 383.97 251.049 384.554 251.049C385.09 251.049 385.55 251.156 385.933 251.371C386.315 251.586 386.623 251.875 386.857 252.239C387.095 252.603 387.256 253.016 387.34 253.478C387.424 253.935 387.433 254.409 387.368 254.899H382.615V254.066H386.325L386.003 254.276C386.017 254.038 386.005 253.8 385.968 253.562C385.93 253.324 385.858 253.107 385.751 252.911C385.648 252.71 385.501 252.549 385.31 252.428C385.118 252.307 384.876 252.246 384.582 252.246C384.218 252.246 383.91 252.337 383.658 252.519C383.41 252.701 383.224 252.946 383.098 253.254C382.972 253.562 382.909 253.905 382.909 254.283V254.885C382.909 255.291 382.969 255.65 383.091 255.963C383.212 256.276 383.394 256.523 383.637 256.705C383.879 256.887 384.185 256.978 384.554 256.978C384.908 256.978 385.202 256.896 385.436 256.733C385.674 256.565 385.823 256.315 385.884 255.984H387.403C387.333 256.423 387.169 256.808 386.913 257.139C386.656 257.47 386.327 257.729 385.926 257.916C385.524 258.098 385.067 258.189 384.554 258.189ZM392.078 248.998H394.227L396.915 254.696H396.782L399.47 248.998H401.549V258H400.037V250.685H400.275L397.335 256.978H396.355L393.429 250.72H393.576V258H392.078V248.998ZM406.276 258.189C405.698 258.189 405.17 258.04 404.694 257.741C404.223 257.442 403.845 257.025 403.56 256.488C403.28 255.951 403.14 255.328 403.14 254.619C403.14 253.872 403.28 253.233 403.56 252.701C403.84 252.169 404.216 251.761 404.687 251.476C405.163 251.191 405.693 251.049 406.276 251.049C406.813 251.049 407.273 251.156 407.655 251.371C408.038 251.586 408.346 251.875 408.579 252.239C408.817 252.603 408.978 253.016 409.062 253.478C409.146 253.935 409.156 254.409 409.09 254.899H404.337V254.066H408.047L407.725 254.276C407.739 254.038 407.728 253.8 407.69 253.562C407.653 253.324 407.581 253.107 407.473 252.911C407.371 252.71 407.224 252.549 407.032 252.428C406.841 252.307 406.598 252.246 406.304 252.246C405.94 252.246 405.632 252.337 405.38 252.519C405.133 252.701 404.946 252.946 404.82 253.254C404.694 253.562 404.631 253.905 404.631 254.283V254.885C404.631 255.291 404.692 255.65 404.813 255.963C404.935 256.276 405.117 256.523 405.359 256.705C405.602 256.887 405.908 256.978 406.276 256.978C406.631 256.978 406.925 256.896 407.158 256.733C407.396 256.565 407.546 256.315 407.606 255.984H409.125C409.055 256.423 408.892 256.808 408.635 257.139C408.379 257.47 408.05 257.729 407.648 257.916C407.247 258.098 406.79 258.189 406.276 258.189ZM413.233 258.189C412.584 258.189 412.029 258.098 411.567 257.916C411.109 257.734 410.757 257.477 410.51 257.146C410.267 256.81 410.143 256.411 410.139 255.949H411.532C411.55 256.308 411.695 256.574 411.966 256.747C412.236 256.915 412.603 256.999 413.065 256.999C413.317 256.999 413.543 256.962 413.744 256.887C413.944 256.808 414.101 256.703 414.213 256.572C414.329 256.437 414.388 256.287 414.388 256.124C414.388 255.914 414.311 255.748 414.157 255.627C414.007 255.506 413.765 255.396 413.429 255.298L411.994 254.801C411.452 254.614 411.037 254.365 410.748 254.052C410.458 253.739 410.314 253.366 410.314 252.932C410.314 252.367 410.568 251.912 411.077 251.567C411.585 251.222 412.262 251.049 413.107 251.049C413.965 251.049 414.628 251.233 415.095 251.602C415.561 251.971 415.802 252.435 415.816 252.995H414.395C414.367 252.752 414.248 252.563 414.038 252.428C413.828 252.288 413.517 252.218 413.107 252.218C412.729 252.218 412.432 252.3 412.218 252.463C412.008 252.622 411.903 252.804 411.903 253.009C411.903 253.368 412.211 253.637 412.827 253.814L414.36 254.374C414.896 254.551 415.312 254.78 415.606 255.06C415.9 255.34 416.047 255.695 416.047 256.124C416.047 256.479 415.928 256.815 415.69 257.132C415.456 257.445 415.13 257.699 414.71 257.895C414.29 258.091 413.797 258.189 413.233 258.189ZM420.195 258.189C419.547 258.189 418.991 258.098 418.529 257.916C418.072 257.734 417.72 257.477 417.472 257.146C417.23 256.81 417.106 256.411 417.101 255.949H418.494C418.513 256.308 418.658 256.574 418.928 256.747C419.199 256.915 419.565 256.999 420.027 256.999C420.279 256.999 420.506 256.962 420.706 256.887C420.907 256.808 421.063 256.703 421.175 256.572C421.292 256.437 421.35 256.287 421.35 256.124C421.35 255.914 421.273 255.748 421.119 255.627C420.97 255.506 420.727 255.396 420.391 255.298L418.956 254.801C418.415 254.614 418 254.365 417.71 254.052C417.421 253.739 417.276 253.366 417.276 252.932C417.276 252.367 417.531 251.912 418.039 251.567C418.548 251.222 419.225 251.049 420.069 251.049C420.928 251.049 421.591 251.233 422.057 251.602C422.524 251.971 422.764 252.435 422.778 252.995H421.357C421.329 252.752 421.21 252.563 421 252.428C420.79 252.288 420.48 252.218 420.069 252.218C419.691 252.218 419.395 252.3 419.18 252.463C418.97 252.622 418.865 252.804 418.865 253.009C418.865 253.368 419.173 253.637 419.789 253.814L421.322 254.374C421.859 254.551 422.274 254.78 422.568 255.06C422.862 255.34 423.009 255.695 423.009 256.124C423.009 256.479 422.89 256.815 422.652 257.132C422.419 257.445 422.092 257.699 421.672 257.895C421.252 258.091 420.76 258.189 420.195 258.189ZM428.936 258L428.747 256.397V253.632C428.747 253.119 428.642 252.743 428.432 252.505C428.222 252.267 427.879 252.148 427.403 252.148C427.128 252.148 426.888 252.188 426.682 252.267C426.477 252.346 426.316 252.465 426.199 252.624C426.087 252.778 426.031 252.969 426.031 253.198H424.386C424.386 252.689 424.508 252.279 424.75 251.966C424.998 251.649 425.345 251.418 425.793 251.273C426.246 251.124 426.783 251.049 427.403 251.049C427.968 251.049 428.463 251.142 428.887 251.329C429.317 251.511 429.65 251.796 429.888 252.183C430.126 252.57 430.245 253.07 430.245 253.681V258H428.936ZM426.696 258.189C426.122 258.189 425.644 258.089 425.261 257.888C424.883 257.687 424.599 257.424 424.407 257.097C424.216 256.77 424.12 256.418 424.12 256.04C424.12 255.606 424.232 255.244 424.456 254.955C424.685 254.666 425.002 254.451 425.408 254.311C425.819 254.166 426.297 254.094 426.843 254.094C427.207 254.094 427.555 254.124 427.886 254.185C428.222 254.241 428.556 254.32 428.887 254.423V255.312C428.621 255.219 428.33 255.146 428.012 255.095C427.7 255.044 427.406 255.018 427.13 255.018C426.724 255.018 426.386 255.097 426.115 255.256C425.849 255.41 425.716 255.671 425.716 256.04C425.716 256.315 425.824 256.551 426.038 256.747C426.253 256.943 426.594 257.041 427.06 257.041C427.406 257.041 427.704 256.964 427.956 256.81C428.208 256.651 428.402 256.455 428.537 256.222C428.677 255.989 428.747 255.758 428.747 255.529H429.104C429.104 256.005 429.011 256.446 428.824 256.852C428.642 257.253 428.372 257.578 428.012 257.825C427.658 258.068 427.219 258.189 426.696 258.189ZM434.84 261.493C434.089 261.493 433.442 261.388 432.901 261.178C432.364 260.973 431.951 260.697 431.662 260.352C431.373 260.011 431.228 259.64 431.228 259.239C431.228 258.749 431.405 258.371 431.76 258.105C432.119 257.839 432.574 257.706 433.125 257.706L434.168 258.133C433.697 258.133 433.333 258.224 433.076 258.406C432.824 258.593 432.698 258.847 432.698 259.169C432.698 259.505 432.885 259.776 433.258 259.981C433.636 260.191 434.163 260.296 434.84 260.296C435.339 260.296 435.771 260.224 436.135 260.079C436.504 259.934 436.788 259.743 436.989 259.505C437.19 259.272 437.29 259.024 437.29 258.763C437.29 258.586 437.227 258.436 437.101 258.315C436.98 258.194 436.791 258.133 436.534 258.133H434.168C433.711 258.133 433.3 258.061 432.936 257.916C432.577 257.771 432.292 257.578 432.082 257.335C431.872 257.092 431.767 256.824 431.767 256.53C431.767 256.245 431.846 256.003 432.005 255.802C432.164 255.597 432.376 255.44 432.642 255.333C432.913 255.221 433.211 255.165 433.538 255.165L433.902 255.669C433.762 255.669 433.627 255.697 433.496 255.753C433.37 255.809 433.265 255.893 433.181 256.005C433.097 256.112 433.055 256.248 433.055 256.411C433.055 256.602 433.137 256.761 433.3 256.887C433.468 257.013 433.757 257.076 434.168 257.076H436.534C437.234 257.076 437.782 257.209 438.179 257.475C438.58 257.736 438.781 258.133 438.781 258.665C438.781 259.141 438.62 259.594 438.298 260.023C437.981 260.457 437.528 260.809 436.94 261.08C436.352 261.355 435.652 261.493 434.84 261.493ZM434.959 255.942C434.427 255.942 433.942 255.842 433.503 255.641C433.069 255.436 432.721 255.151 432.46 254.787C432.203 254.418 432.075 253.989 432.075 253.499C432.075 253.004 432.203 252.573 432.46 252.204C432.721 251.835 433.069 251.551 433.503 251.35C433.942 251.149 434.427 251.049 434.959 251.049C435.477 251.049 435.953 251.149 436.387 251.35C436.821 251.551 437.169 251.835 437.43 252.204C437.691 252.573 437.822 253.004 437.822 253.499C437.822 253.989 437.691 254.418 437.43 254.787C437.169 255.151 436.821 255.436 436.387 255.641C435.953 255.842 435.477 255.942 434.959 255.942ZM434.966 254.892C435.419 254.892 435.762 254.759 435.995 254.493C436.233 254.227 436.352 253.896 436.352 253.499C436.352 253.079 436.233 252.741 435.995 252.484C435.762 252.227 435.416 252.099 434.959 252.099C434.516 252.099 434.173 252.227 433.93 252.484C433.687 252.741 433.566 253.079 433.566 253.499C433.566 253.896 433.687 254.227 433.93 254.493C434.173 254.759 434.518 254.892 434.966 254.892ZM437.311 252.134L436.618 251.763C436.618 251.357 436.707 251.005 436.884 250.706C437.066 250.403 437.311 250.167 437.619 249.999C437.927 249.831 438.272 249.747 438.655 249.747L438.571 251.189C438.16 251.189 437.848 251.266 437.633 251.42C437.418 251.574 437.311 251.812 437.311 252.134ZM442.43 258.189C441.851 258.189 441.324 258.04 440.848 257.741C440.377 257.442 439.999 257.025 439.714 256.488C439.434 255.951 439.294 255.328 439.294 254.619C439.294 253.872 439.434 253.233 439.714 252.701C439.994 252.169 440.37 251.761 440.841 251.476C441.317 251.191 441.847 251.049 442.43 251.049C442.967 251.049 443.426 251.156 443.809 251.371C444.192 251.586 444.5 251.875 444.733 252.239C444.971 252.603 445.132 253.016 445.216 253.478C445.3 253.935 445.309 254.409 445.244 254.899H440.491V254.066H444.201L443.879 254.276C443.893 254.038 443.881 253.8 443.844 253.562C443.807 253.324 443.734 253.107 443.627 252.911C443.524 252.71 443.377 252.549 443.186 252.428C442.995 252.307 442.752 252.246 442.458 252.246C442.094 252.246 441.786 252.337 441.534 252.519C441.287 252.701 441.1 252.946 440.974 253.254C440.848 253.562 440.785 253.905 440.785 254.283V254.885C440.785 255.291 440.846 255.65 440.967 255.963C441.088 256.276 441.27 256.523 441.513 256.705C441.756 256.887 442.061 256.978 442.43 256.978C442.785 256.978 443.079 256.896 443.312 256.733C443.55 256.565 443.699 256.315 443.76 255.984H445.279C445.209 256.423 445.046 256.808 444.789 257.139C444.532 257.47 444.203 257.729 443.802 257.916C443.401 258.098 442.943 258.189 442.43 258.189ZM356.33 278V268.998H359.613C360.677 268.998 361.489 269.248 362.049 269.747C362.614 270.246 362.896 270.907 362.896 271.728C362.896 272.54 362.614 273.196 362.049 273.695C361.489 274.194 360.677 274.444 359.613 274.444H357.828V278H356.33ZM361.251 278L358.815 273.814H360.418L363.204 278H361.251ZM357.828 273.429H359.466C360.087 273.429 360.558 273.284 360.88 272.995C361.202 272.701 361.363 272.323 361.363 271.861C361.363 271.385 361.214 271.005 360.915 270.72C360.621 270.431 360.187 270.286 359.613 270.286H357.828V273.429ZM367.275 278.189C366.696 278.189 366.169 278.04 365.693 277.741C365.221 277.442 364.843 277.025 364.559 276.488C364.279 275.951 364.139 275.328 364.139 274.619C364.139 273.872 364.279 273.233 364.559 272.701C364.839 272.169 365.214 271.761 365.686 271.476C366.162 271.191 366.691 271.049 367.275 271.049C367.811 271.049 368.271 271.156 368.654 271.371C369.036 271.586 369.344 271.875 369.578 272.239C369.816 272.603 369.977 273.016 370.061 273.478C370.145 273.935 370.154 274.409 370.089 274.899H365.336V274.066H369.046L368.724 274.276C368.738 274.038 368.726 273.8 368.689 273.562C368.651 273.324 368.579 273.107 368.472 272.911C368.369 272.71 368.222 272.549 368.031 272.428C367.839 272.307 367.597 272.246 367.303 272.246C366.939 272.246 366.631 272.337 366.379 272.519C366.131 272.701 365.945 272.946 365.819 273.254C365.693 273.562 365.63 273.905 365.63 274.283V274.885C365.63 275.291 365.69 275.65 365.812 275.963C365.933 276.276 366.115 276.523 366.358 276.705C366.6 276.887 366.906 276.978 367.275 276.978C367.629 276.978 367.923 276.896 368.157 276.733C368.395 276.565 368.544 276.315 368.605 275.984H370.124C370.054 276.423 369.89 276.808 369.634 277.139C369.377 277.47 369.048 277.729 368.647 277.916C368.245 278.098 367.788 278.189 367.275 278.189ZM374.252 278.189C373.692 278.189 373.17 278.042 372.684 277.748C372.204 277.454 371.814 277.039 371.515 276.502C371.221 275.965 371.074 275.335 371.074 274.612C371.074 273.847 371.221 273.2 371.515 272.673C371.814 272.141 372.204 271.737 372.684 271.462C373.17 271.187 373.692 271.049 374.252 271.049C374.677 271.049 375.053 271.117 375.379 271.252C375.711 271.387 375.993 271.569 376.226 271.798C376.46 272.027 376.644 272.283 376.779 272.568C376.919 272.848 377.013 273.135 377.059 273.429L375.54 273.485C375.456 273.163 375.302 272.902 375.078 272.701C374.859 272.496 374.579 272.393 374.238 272.393C373.954 272.393 373.685 272.472 373.433 272.631C373.186 272.785 372.983 273.025 372.824 273.352C372.67 273.679 372.593 274.099 372.593 274.612C372.593 275.093 372.666 275.499 372.81 275.83C372.955 276.157 373.151 276.406 373.398 276.579C373.65 276.747 373.93 276.831 374.238 276.831C374.682 276.831 375.008 276.724 375.218 276.509C375.433 276.29 375.54 275.996 375.54 275.627H377.059C377.059 276.103 376.95 276.535 376.73 276.922C376.511 277.309 376.191 277.617 375.771 277.846C375.356 278.075 374.85 278.189 374.252 278.189ZM381.146 278.189C380.567 278.189 380.04 278.04 379.564 277.741C379.092 277.442 378.714 277.025 378.43 276.488C378.15 275.951 378.01 275.328 378.01 274.619C378.01 273.872 378.15 273.233 378.43 272.701C378.71 272.169 379.085 271.761 379.557 271.476C380.033 271.191 380.562 271.049 381.146 271.049C381.682 271.049 382.142 271.156 382.525 271.371C382.907 271.586 383.215 271.875 383.449 272.239C383.687 272.603 383.848 273.016 383.932 273.478C384.016 273.935 384.025 274.409 383.96 274.899H379.207V274.066H382.917L382.595 274.276C382.609 274.038 382.597 273.8 382.56 273.562C382.522 273.324 382.45 273.107 382.343 272.911C382.24 272.71 382.093 272.549 381.902 272.428C381.71 272.307 381.468 272.246 381.174 272.246C380.81 272.246 380.502 272.337 380.25 272.519C380.002 272.701 379.816 272.946 379.69 273.254C379.564 273.562 379.501 273.905 379.501 274.283V274.885C379.501 275.291 379.561 275.65 379.683 275.963C379.804 276.276 379.986 276.523 380.229 276.705C380.471 276.887 380.777 276.978 381.146 276.978C381.5 276.978 381.794 276.896 382.028 276.733C382.266 276.565 382.415 276.315 382.476 275.984H383.995C383.925 276.423 383.761 276.808 383.505 277.139C383.248 277.47 382.919 277.729 382.518 277.916C382.116 278.098 381.659 278.189 381.146 278.189ZM386.478 269.901C386.184 269.901 385.953 269.822 385.785 269.663C385.617 269.5 385.533 269.28 385.533 269.005C385.533 268.734 385.617 268.52 385.785 268.361C385.953 268.202 386.184 268.123 386.478 268.123C386.767 268.123 386.996 268.202 387.164 268.361C387.332 268.52 387.416 268.734 387.416 269.005C387.416 269.28 387.332 269.5 387.164 269.663C386.996 269.822 386.767 269.901 386.478 269.901ZM385.729 278V271.21H387.227V278H385.729ZM388.513 271.238H390.235L391.992 276.719H391.859L393.616 271.238H395.338L392.762 278H391.089L388.513 271.238ZM398.917 278.189C398.338 278.189 397.811 278.04 397.335 277.741C396.864 277.442 396.486 277.025 396.201 276.488C395.921 275.951 395.781 275.328 395.781 274.619C395.781 273.872 395.921 273.233 396.201 272.701C396.481 272.169 396.857 271.761 397.328 271.476C397.804 271.191 398.334 271.049 398.917 271.049C399.454 271.049 399.913 271.156 400.296 271.371C400.679 271.586 400.987 271.875 401.22 272.239C401.458 272.603 401.619 273.016 401.703 273.478C401.787 273.935 401.796 274.409 401.731 274.899H396.978V274.066H400.688L400.366 274.276C400.38 274.038 400.368 273.8 400.331 273.562C400.294 273.324 400.221 273.107 400.114 272.911C400.011 272.71 399.864 272.549 399.673 272.428C399.482 272.307 399.239 272.246 398.945 272.246C398.581 272.246 398.273 272.337 398.021 272.519C397.774 272.701 397.587 272.946 397.461 273.254C397.335 273.562 397.272 273.905 397.272 274.283V274.885C397.272 275.291 397.333 275.65 397.454 275.963C397.575 276.276 397.757 276.523 398 276.705C398.243 276.887 398.548 276.978 398.917 276.978C399.272 276.978 399.566 276.896 399.799 276.733C400.037 276.565 400.186 276.315 400.247 275.984H401.766C401.696 276.423 401.533 276.808 401.276 277.139C401.019 277.47 400.69 277.729 400.289 277.916C399.888 278.098 399.43 278.189 398.917 278.189ZM405.852 278.189C405.292 278.189 404.779 278.04 404.312 277.741C403.846 277.442 403.475 277.025 403.199 276.488C402.924 275.947 402.786 275.312 402.786 274.584C402.786 273.865 402.919 273.242 403.185 272.715C403.456 272.183 403.815 271.772 404.263 271.483C404.711 271.194 405.208 271.049 405.754 271.049C406.254 271.049 406.688 271.17 407.056 271.413C407.425 271.651 407.707 272.003 407.903 272.47C408.104 272.932 408.204 273.499 408.204 274.171H407.714C407.714 273.793 407.637 273.471 407.483 273.205C407.329 272.939 407.129 272.738 406.881 272.603C406.634 272.463 406.366 272.393 406.076 272.393C405.74 272.393 405.437 272.484 405.166 272.666C404.9 272.843 404.69 273.098 404.536 273.429C404.382 273.756 404.305 274.141 404.305 274.584C404.305 275.041 404.382 275.438 404.536 275.774C404.69 276.11 404.9 276.371 405.166 276.558C405.437 276.74 405.738 276.831 406.069 276.831C406.345 276.831 406.606 276.759 406.853 276.614C407.105 276.465 407.311 276.257 407.469 275.991C407.633 275.72 407.714 275.401 407.714 275.032H408.204C408.204 275.727 408.097 276.311 407.882 276.782C407.672 277.249 407.388 277.601 407.028 277.839C406.674 278.072 406.282 278.189 405.852 278.189ZM407.987 278L407.714 276.348V268.41H409.219V278H407.987ZM414.538 278V268.998H416.036V278H414.538ZM422.978 278V274.038C422.978 273.497 422.848 273.088 422.586 272.813C422.33 272.533 421.987 272.393 421.557 272.393C421.207 272.393 420.899 272.489 420.633 272.68C420.367 272.871 420.16 273.156 420.01 273.534C419.861 273.912 419.786 274.376 419.786 274.927H419.275C419.275 274.073 419.383 273.359 419.597 272.785C419.817 272.211 420.125 271.779 420.521 271.49C420.923 271.196 421.396 271.049 421.942 271.049C422.493 271.049 422.955 271.173 423.328 271.42C423.706 271.667 423.991 272.015 424.182 272.463C424.378 272.911 424.476 273.436 424.476 274.038V278H422.978ZM418.288 278V271.238H419.597L419.786 272.638V278H418.288ZM429.008 278.189C428.359 278.189 427.804 278.098 427.342 277.916C426.884 277.734 426.532 277.477 426.285 277.146C426.042 276.81 425.918 276.411 425.914 275.949H427.307C427.325 276.308 427.47 276.574 427.741 276.747C428.011 276.915 428.378 276.999 428.84 276.999C429.092 276.999 429.318 276.962 429.519 276.887C429.719 276.808 429.876 276.703 429.988 276.572C430.104 276.437 430.163 276.287 430.163 276.124C430.163 275.914 430.086 275.748 429.932 275.627C429.782 275.506 429.54 275.396 429.204 275.298L427.769 274.801C427.227 274.614 426.812 274.365 426.523 274.052C426.233 273.739 426.089 273.366 426.089 272.932C426.089 272.367 426.343 271.912 426.852 271.567C427.36 271.222 428.037 271.049 428.882 271.049C429.74 271.049 430.403 271.233 430.87 271.602C431.336 271.971 431.577 272.435 431.591 272.995H430.17C430.142 272.752 430.023 272.563 429.813 272.428C429.603 272.288 429.292 272.218 428.882 272.218C428.504 272.218 428.207 272.3 427.993 272.463C427.783 272.622 427.678 272.804 427.678 273.009C427.678 273.368 427.986 273.637 428.602 273.814L430.135 274.374C430.671 274.551 431.087 274.78 431.381 275.06C431.675 275.34 431.822 275.695 431.822 276.124C431.822 276.479 431.703 276.815 431.465 277.132C431.231 277.445 430.905 277.699 430.485 277.895C430.065 278.091 429.572 278.189 429.008 278.189ZM435.705 278.189C435.313 278.189 434.956 278.117 434.634 277.972C434.316 277.823 434.062 277.599 433.871 277.3C433.679 276.997 433.584 276.616 433.584 276.159V269.418H435.075V276.11C435.075 276.703 435.357 276.999 435.922 276.999C436.094 276.999 436.265 276.98 436.433 276.943C436.601 276.906 436.79 276.847 437 276.768L437.217 277.825C436.965 277.928 436.715 278.014 436.468 278.084C436.225 278.154 435.971 278.189 435.705 278.189ZM432.597 272.239V271.238H437V272.239H432.597ZM442.784 278L442.595 276.397V273.632C442.595 273.119 442.49 272.743 442.28 272.505C442.07 272.267 441.727 272.148 441.251 272.148C440.975 272.148 440.735 272.188 440.53 272.267C440.324 272.346 440.163 272.465 440.047 272.624C439.935 272.778 439.879 272.969 439.879 273.198H438.234C438.234 272.689 438.355 272.279 438.598 271.966C438.845 271.649 439.193 271.418 439.641 271.273C440.093 271.124 440.63 271.049 441.251 271.049C441.815 271.049 442.31 271.142 442.735 271.329C443.164 271.511 443.498 271.796 443.736 272.183C443.974 272.57 444.093 273.07 444.093 273.681V278H442.784ZM440.544 278.189C439.97 278.189 439.491 278.089 439.109 277.888C438.731 277.687 438.446 277.424 438.255 277.097C438.063 276.77 437.968 276.418 437.968 276.04C437.968 275.606 438.08 275.244 438.304 274.955C438.532 274.666 438.85 274.451 439.256 274.311C439.666 274.166 440.145 274.094 440.691 274.094C441.055 274.094 441.402 274.124 441.734 274.185C442.07 274.241 442.403 274.32 442.735 274.423V275.312C442.469 275.219 442.177 275.146 441.86 275.095C441.547 275.044 441.253 275.018 440.978 275.018C440.572 275.018 440.233 275.097 439.963 275.256C439.697 275.41 439.564 275.671 439.564 276.04C439.564 276.315 439.671 276.551 439.886 276.747C440.1 276.943 440.441 277.041 440.908 277.041C441.253 277.041 441.552 276.964 441.804 276.81C442.056 276.651 442.249 276.455 442.385 276.222C442.525 275.989 442.595 275.758 442.595 275.529H442.952C442.952 276.005 442.858 276.446 442.672 276.852C442.49 277.253 442.219 277.578 441.86 277.825C441.505 278.068 441.066 278.189 440.544 278.189ZM450.829 278V274.038C450.829 273.497 450.699 273.088 450.437 272.813C450.181 272.533 449.838 272.393 449.408 272.393C449.058 272.393 448.75 272.489 448.484 272.68C448.218 272.871 448.011 273.156 447.861 273.534C447.712 273.912 447.637 274.376 447.637 274.927H447.126C447.126 274.073 447.234 273.359 447.448 272.785C447.668 272.211 447.976 271.779 448.372 271.49C448.774 271.196 449.247 271.049 449.793 271.049C450.344 271.049 450.806 271.173 451.179 271.42C451.557 271.667 451.842 272.015 452.033 272.463C452.229 272.911 452.327 273.436 452.327 274.038V278H450.829ZM446.139 278V271.238H447.448L447.637 272.638V278H446.139ZM456.593 278.189C456.201 278.189 455.844 278.117 455.522 277.972C455.205 277.823 454.95 277.599 454.759 277.3C454.568 276.997 454.472 276.616 454.472 276.159V269.418H455.963V276.11C455.963 276.703 456.245 276.999 456.81 276.999C456.983 276.999 457.153 276.98 457.321 276.943C457.489 276.906 457.678 276.847 457.888 276.768L458.105 277.825C457.853 277.928 457.603 278.014 457.356 278.084C457.113 278.154 456.859 278.189 456.593 278.189ZM453.485 272.239V271.238H457.888V272.239H453.485ZM459.395 278V268.41H460.893V278H459.395ZM462.095 271.238H463.789L465.7 276.691H465.413L467.009 271.238H468.535L465.952 279.26C465.7 280.03 465.385 280.595 465.007 280.954C464.629 281.313 464.162 281.493 463.607 281.493C463.294 281.493 462.989 281.456 462.69 281.381C462.396 281.306 462.097 281.192 461.794 281.038V279.701C462.046 279.874 462.291 279.997 462.529 280.072C462.767 280.151 463.01 280.191 463.257 280.191C463.49 280.191 463.693 280.123 463.866 279.988C464.039 279.853 464.186 279.668 464.307 279.435C464.433 279.206 464.538 278.95 464.622 278.665L464.825 278L462.095 271.238Z" fill="#E9F2ED"/>
<path d="M326.551 131.551C326.355 131.837 326.089 131.987 325.75 132C325.398 131.987 325.138 131.837 324.969 131.551L321.531 125.926C321.336 125.613 321.323 125.301 321.492 124.988C321.674 124.676 321.948 124.513 322.312 124.5H329.188C329.552 124.513 329.826 124.676 330.008 124.988C330.177 125.301 330.171 125.613 329.988 125.926L326.551 131.551Z" fill="#3BB24A"/>
<path d="M326.551 222.551C326.355 222.837 326.089 222.987 325.75 223C325.398 222.987 325.138 222.837 324.969 222.551L321.531 216.926C321.336 216.613 321.323 216.301 321.492 215.988C321.674 215.676 321.948 215.513 322.312 215.5H329.188C329.552 215.513 329.826 215.676 330.008 215.988C330.177 216.301 330.171 216.613 329.988 216.926L326.551 222.551Z" fill="#3BB24A"/>
<g opacity="0.6">
<path d="M111.779 85.4421L149.345 190.419L230.015 87.0985" stroke="#3BB24A" stroke-width="1.85571" stroke-miterlimit="10" stroke-dasharray="2.47 2.47"/>
<path d="M262.057 153.956L149.345 190.42L225.038 275.505" stroke="#3BB24A" stroke-width="1.85571" stroke-miterlimit="10" stroke-dasharray="2.47 2.47"/>
<path d="M62.6031 272.192L149.345 190.42L31.1083 170.527" stroke="#3BB24A" stroke-width="1.85571" stroke-miterlimit="10" stroke-dasharray="2.47 2.47"/>
<path d="M271.703 159.581C274.628 153.992 272.469 147.09 266.88 144.164C261.291 141.238 254.388 143.397 251.462 148.987C248.537 154.576 250.696 161.478 256.285 164.404C261.874 167.33 268.777 165.171 271.703 159.581Z" fill="#002B32" stroke="#002B32" stroke-width="0.618571" stroke-miterlimit="10"/>
<path d="M265.362 153.495H257.916C257.218 153.495 256.548 153.772 256.054 154.266C255.56 154.76 255.283 155.43 255.283 156.128V162.378C257.102 163.798 259.349 164.561 261.657 164.543C263.964 164.524 266.198 163.726 267.995 162.277V156.128C267.995 155.43 267.717 154.76 267.224 154.266C266.73 153.772 266.06 153.495 265.362 153.495Z" fill="#3BB24A" stroke="#002B32" stroke-width="1.23714" stroke-miterlimit="10"/>
<path d="M261.51 152.346C262.26 152.346 262.992 152.124 263.615 151.708C264.239 151.291 264.724 150.699 265.011 150.007C265.298 149.315 265.373 148.553 265.227 147.818C265.08 147.083 264.72 146.407 264.19 145.877C263.66 145.348 262.984 144.987 262.249 144.84C261.514 144.694 260.752 144.769 260.06 145.056C259.368 145.343 258.776 145.829 258.359 146.452C257.943 147.075 257.721 147.807 257.721 148.557C257.721 149.562 258.12 150.526 258.831 151.236C259.541 151.947 260.505 152.346 261.51 152.346Z" fill="#3BB24A" stroke="#002B32" stroke-width="1.23714" stroke-miterlimit="10"/>
<path d="M236.735 275.857C239.171 270.037 236.428 263.345 230.608 260.91C224.789 258.474 218.097 261.217 215.661 267.037C213.226 272.857 215.969 279.549 221.788 281.984C227.608 284.42 234.3 281.677 236.735 275.857Z" fill="#002B32" stroke="#002B32" stroke-width="0.618571" stroke-miterlimit="10"/>
<path d="M230.031 270.691H222.585C222.239 270.69 221.897 270.758 221.578 270.889C221.258 271.02 220.968 271.214 220.724 271.458C220.479 271.701 220.285 271.991 220.152 272.31C220.02 272.629 219.952 272.971 219.952 273.317V279.567C221.771 280.987 224.018 281.75 226.326 281.731C228.633 281.713 230.867 280.914 232.664 279.466V273.317C232.664 272.971 232.596 272.629 232.463 272.31C232.331 271.991 232.137 271.701 231.892 271.458C231.648 271.214 231.357 271.02 231.038 270.889C230.718 270.758 230.376 270.69 230.031 270.691Z" fill="#3BB24A" stroke="#002B32" stroke-width="1.23714" stroke-miterlimit="10"/>
<path d="M226.124 269.536C226.874 269.536 227.606 269.313 228.23 268.897C228.853 268.481 229.338 267.889 229.625 267.196C229.912 266.504 229.987 265.742 229.841 265.007C229.695 264.272 229.334 263.597 228.804 263.067C228.274 262.537 227.599 262.176 226.864 262.03C226.129 261.883 225.367 261.958 224.674 262.245C223.982 262.532 223.39 263.018 222.974 263.641C222.557 264.264 222.335 264.997 222.335 265.746C222.335 266.244 222.433 266.737 222.623 267.196C222.814 267.656 223.093 268.074 223.445 268.426C223.797 268.778 224.214 269.057 224.674 269.247C225.134 269.438 225.627 269.536 226.124 269.536Z" fill="#3BB24A" stroke="#002B32" stroke-width="1.23714" stroke-miterlimit="10"/>
<path d="M111.287 92.8177C115.766 92.8177 119.397 89.1867 119.397 84.7077C119.397 80.2286 115.766 76.5977 111.287 76.5977C106.808 76.5977 103.177 80.2286 103.177 84.7077C103.177 89.1867 106.808 92.8177 111.287 92.8177Z" fill="#002B32" stroke="#002B32" stroke-width="0.618571" stroke-miterlimit="10"/>
<path d="M113.974 84.2002H108.693C108.198 84.2002 107.723 84.3969 107.372 84.7471C107.022 85.0973 106.825 85.5723 106.825 86.0675V90.4507C108.117 91.4547 109.71 91.9938 111.346 91.9811C112.982 91.9683 114.566 91.4044 115.842 90.3804V86.0285C115.832 85.54 115.63 85.075 115.281 84.7332C114.932 84.3915 114.463 84.2001 113.974 84.2002Z" fill="#3BB24A" stroke="#002B32" stroke-width="1.23714" stroke-miterlimit="10"/>
<path d="M111.271 83.3408C111.803 83.3408 112.322 83.1831 112.764 82.8878C113.206 82.5925 113.551 82.1727 113.754 81.6816C113.958 81.1905 114.011 80.6501 113.907 80.1287C113.804 79.6073 113.548 79.1284 113.172 78.7525C112.796 78.3767 112.317 78.1207 111.796 78.017C111.274 77.9133 110.734 77.9665 110.243 78.1699C109.752 78.3734 109.332 78.7178 109.036 79.1598C108.741 79.6018 108.583 80.1215 108.583 80.6531C108.583 81.3659 108.867 82.0495 109.371 82.5536C109.875 83.0576 110.558 83.3408 111.271 83.3408Z" fill="#3BB24A" stroke="#002B32" stroke-width="1.23714" stroke-miterlimit="10"/>
<path d="M68.8436 273.989C70.5684 269.855 68.6158 265.106 64.4822 263.381C60.3486 261.656 55.5993 263.609 53.8745 267.743C52.1496 271.876 54.1022 276.625 58.2358 278.35C62.3694 280.075 67.1187 278.122 68.8436 273.989Z" fill="#002B32" stroke="#002B32" stroke-width="0.618571" stroke-miterlimit="10"/>
<path d="M64.0485 270.317H58.7668C58.5203 270.316 58.276 270.363 58.048 270.457C57.82 270.551 57.6129 270.689 57.4386 270.864C57.2643 271.038 57.1262 271.245 57.0323 271.473C56.9385 271.701 56.8906 271.945 56.8917 272.192V276.622C58.1824 277.632 59.7772 278.175 61.416 278.162C63.0549 278.149 64.641 277.581 65.9159 276.552V272.192C65.9169 271.946 65.8693 271.702 65.776 271.475C65.6826 271.247 65.5452 271.041 65.3717 270.866C65.1982 270.692 64.992 270.554 64.7649 270.46C64.5379 270.365 64.2944 270.317 64.0485 270.317Z" fill="#3BB24A" stroke="#002B32" stroke-width="1.23714" stroke-miterlimit="10"/>
<path d="M61.314 269.496C61.8456 269.496 62.3652 269.339 62.8072 269.043C63.2492 268.748 63.5937 268.328 63.7971 267.837C64.0005 267.346 64.0538 266.806 63.95 266.284C63.8463 265.763 63.5904 265.284 63.2145 264.908C62.8386 264.532 62.3597 264.276 61.8383 264.172C61.317 264.069 60.7766 264.122 60.2854 264.325C59.7943 264.529 59.3745 264.873 59.0792 265.315C58.7839 265.757 58.6263 266.277 58.6263 266.809C58.6263 267.521 58.9094 268.205 59.4135 268.709C59.9175 269.213 60.6011 269.496 61.314 269.496Z" fill="#3BB24A" stroke="#002B32" stroke-width="1.23714" stroke-miterlimit="10"/>
<path d="M237.415 87.066C239.047 82.8946 236.988 78.1906 232.816 76.5592C228.645 74.9278 223.941 76.9869 222.309 81.1582C220.678 85.3296 222.737 90.0337 226.908 91.6651C231.08 93.2965 235.784 91.2374 237.415 87.066Z" fill="#002B32" stroke="#002B32" stroke-width="0.618571" stroke-miterlimit="10"/>
<path d="M232.57 83.5669H227.281C227.035 83.5669 226.793 83.6152 226.566 83.709C226.34 83.8029 226.134 83.9404 225.96 84.1138C225.787 84.2872 225.649 84.4931 225.555 84.7196C225.462 84.9462 225.413 85.189 225.413 85.4342V89.8721C226.706 90.8767 228.3 91.4162 229.938 91.4034C231.575 91.3906 233.16 90.8264 234.438 89.8018V85.4342C234.438 85.189 234.389 84.9462 234.295 84.7196C234.202 84.4931 234.064 84.2872 233.891 84.1138C233.717 83.9404 233.511 83.8029 233.285 83.709C233.058 83.6152 232.815 83.5669 232.57 83.5669Z" fill="#3BB24A" stroke="#002B32" stroke-width="1.23714" stroke-miterlimit="10"/>
<path d="M229.836 82.7465C230.367 82.7465 230.887 82.5889 231.329 82.2936C231.771 81.9982 232.115 81.5785 232.319 81.0874C232.522 80.5962 232.575 80.0558 232.472 79.5345C232.368 79.0131 232.112 78.5342 231.736 78.1583C231.36 77.7824 230.881 77.5264 230.36 77.4227C229.839 77.319 229.298 77.3723 228.807 77.5757C228.316 77.7791 227.896 78.1236 227.601 78.5656C227.306 79.0076 227.148 79.5272 227.148 80.0588C227.148 80.7716 227.431 81.4553 227.935 81.9593C228.439 82.4634 229.123 82.7465 229.836 82.7465Z" fill="#3BB24A" stroke="#002B32" stroke-width="1.23714" stroke-miterlimit="10"/>
<path d="M43.7512 174.345C46.9305 166.812 43.4005 158.127 35.8668 154.948C28.3331 151.768 19.6485 155.298 16.4693 162.832C13.29 170.366 16.82 179.05 24.3537 182.23C31.8874 185.409 40.572 181.879 43.7512 174.345Z" fill="#002B32" stroke="#002B32" stroke-width="0.618571" stroke-miterlimit="10"/>
<path d="M35.0227 167.59H25.3735C24.4693 167.59 23.602 167.948 22.962 168.587C22.3219 169.226 21.9612 170.092 21.9592 170.996V179.091C24.3182 180.926 27.2272 181.912 30.2159 181.889C33.2047 181.866 36.0984 180.836 38.4293 178.966V170.996C38.4293 170.093 38.0704 169.226 37.4315 168.587C36.7927 167.949 35.9262 167.59 35.0227 167.59Z" fill="#3BB24A" stroke="#002B32" stroke-width="1.23714" stroke-miterlimit="10"/>
<path d="M30.0145 166.09C30.985 166.09 31.9336 165.802 32.7405 165.263C33.5474 164.724 34.1763 163.958 34.5477 163.061C34.9191 162.164 35.0162 161.178 34.8269 160.226C34.6376 159.274 34.1703 158.4 33.4841 157.714C32.7978 157.028 31.9236 156.56 30.9718 156.371C30.02 156.182 29.0334 156.279 28.1368 156.65C27.2403 157.021 26.474 157.65 25.9348 158.457C25.3957 159.264 25.1079 160.213 25.1079 161.183C25.1079 162.485 25.6248 163.733 26.545 164.653C27.4652 165.573 28.7132 166.09 30.0145 166.09Z" fill="#3BB24A" stroke="#002B32" stroke-width="1.23714" stroke-miterlimit="10"/>
</g>
<g filter="url(#filter0_d_1729_7536)">
<path d="M180.258 220.419C200.924 199.753 200.924 166.247 180.258 145.581C159.591 124.915 126.085 124.915 105.419 145.581C84.7531 166.247 84.7531 199.753 105.419 220.419C126.085 241.085 159.591 241.085 180.258 220.419Z" fill="#002B32"/>
</g>
<path d="M166.125 171.461C167.615 172.07 168.799 173.052 169.68 174.406C170.56 175.693 171 177.148 171 178.773C171 180.534 170.56 182.057 169.68 183.344C168.799 184.63 167.615 185.612 166.125 186.289V200C166.057 201.49 165.414 202.471 164.195 202.945C162.977 203.487 161.792 203.284 160.641 202.336L156.172 198.07C151.974 194.211 147.167 191.773 141.75 190.758V189.133C147.641 190.148 152.82 192.755 157.289 196.953L161.656 201.219C162.266 201.693 162.875 201.794 163.484 201.523C164.094 201.253 164.432 200.745 164.5 200V157.648C164.432 156.971 164.094 156.497 163.484 156.227C162.875 155.956 162.266 156.057 161.656 156.531L157.289 160.797C152.82 164.995 147.641 167.635 141.75 168.719V166.992C147.167 165.977 151.974 163.539 156.172 159.68L160.641 155.414C161.792 154.466 162.977 154.263 164.195 154.805C165.414 155.279 166.057 156.26 166.125 157.75V171.461ZM166.125 184.461C168.156 183.242 169.24 181.346 169.375 178.773C169.24 176.336 168.156 174.508 166.125 173.289V184.461ZM138.5 202.438C138.5 203.589 138.094 204.536 137.281 205.281C136.536 206.094 135.589 206.5 134.438 206.5H129.562C128.411 206.5 127.464 206.094 126.719 205.281C125.906 204.536 125.5 203.589 125.5 202.438V190.25C123.672 190.182 122.148 189.539 120.93 188.32C119.711 187.102 119.068 185.544 119 183.648V173.898C119.068 172.138 119.711 170.615 120.93 169.328C122.148 168.109 123.672 167.466 125.5 167.398H136.57C136.773 167.398 137.01 167.398 137.281 167.398C137.688 167.466 138.094 167.466 138.5 167.398V202.438ZM136.875 190.25C136.807 190.25 136.74 190.25 136.672 190.25C136.672 190.25 136.638 190.25 136.57 190.25H127.125V202.438C127.26 203.927 128.073 204.74 129.562 204.875H134.438C135.927 204.74 136.74 203.927 136.875 202.438V190.25ZM136.57 188.625C136.638 188.625 136.672 188.625 136.672 188.625C136.74 188.625 136.807 188.625 136.875 188.625V169.023C136.807 169.023 136.74 169.023 136.672 169.023C136.672 169.023 136.638 169.023 136.57 169.023H125.5C124.146 169.091 122.995 169.599 122.047 170.547C121.167 171.427 120.693 172.544 120.625 173.898V183.648C120.693 185.07 121.167 186.255 122.047 187.203C122.995 188.151 124.146 188.625 125.5 188.625H136.57Z" fill="#A0D8A5"/>
<defs>
<filter id="filter0_d_1729_7536" x="61.9197" y="106.081" width="161.837" height="161.837" filterUnits="userSpaceOnUse" color-interpolation-filters="sRGB">
<feFlood flood-opacity="0" result="BackgroundImageFix"/>
<feColorMatrix in="SourceAlpha" type="matrix" values="0 0 0 0 0 0 0 0 0 0 0 0 0 0 0 0 0 0 127 0" result="hardAlpha"/>
<feOffset dy="4"/>
<feGaussianBlur stdDeviation="14"/>
<feComposite in2="hardAlpha" operator="out"/>
<feColorMatrix type="matrix" values="0 0 0 0 0 0 0 0 0 0 0 0 0 0 0 0 0 0 0.08 0"/>
<feBlend mode="normal" in2="BackgroundImageFix" result="effect1_dropShadow_1729_7536"/>
<feBlend mode="normal" in="SourceGraphic" in2="effect1_dropShadow_1729_7536" result="shape"/>
</filter>
</defs>
</svg>
