<svg width="152" height="36" viewBox="0 0 152 36" fill="none" xmlns="http://www.w3.org/2000/svg">
<g clip-path="url(#clip0_2115_1106)">
<path d="M20.9883 1.07082C20.9865 1.09097 20.9838 1.11203 20.9792 1.13218C20.9288 1.3547 20.6999 1.49481 20.4691 1.44444C19.6816 1.2732 18.8693 1.1569 18.0552 1.09921C9.19002 0.47926 1.49145 6.94343 0.892556 15.5101C0.836696 16.305 0.843106 17.1053 0.911786 17.8892C0.928269 18.1218 0.757027 18.3168 0.521683 18.3342C0.28634 18.3526 0.0793836 18.1822 0.0592374 17.9551C-0.0131056 17.1301 -0.0204315 16.2867 0.0381755 15.4506C0.670032 6.4297 8.77703 -0.378783 18.1129 0.274136C18.9701 0.333659 19.8254 0.456367 20.6541 0.637682C20.8638 0.683469 21.003 0.869363 20.9883 1.06991V1.07082Z" fill="white"/>
<path d="M20.6634 5.75168C20.6616 5.78098 20.6561 5.80937 20.6478 5.83867C20.5819 6.05753 20.3456 6.18299 20.1185 6.1198C19.3447 5.90094 18.5426 5.76084 17.733 5.70406C11.496 5.26817 6.08032 9.81571 5.65817 15.8431C5.60323 16.6242 5.63528 17.4099 5.75066 18.1782C5.78454 18.4035 5.62337 18.6132 5.38894 18.6452C5.15543 18.6773 4.93749 18.5198 4.90361 18.2936C4.77907 17.4667 4.74518 16.6214 4.80379 15.7826C5.25708 9.30106 11.0821 4.41013 17.7898 4.87898C18.6598 4.93942 19.5224 5.0896 20.3539 5.32586C20.5508 5.38172 20.6762 5.56212 20.6625 5.75259L20.6634 5.75168Z" fill="white"/>
<path d="M20.3209 10.6184C20.3172 10.6679 20.3044 10.7173 20.2815 10.7658C20.1808 10.9719 19.9271 11.0607 19.7129 10.9627C18.9885 10.6321 18.2129 10.4362 17.4052 10.3794C13.8366 10.1294 10.7359 12.7328 10.4951 16.1815C10.4401 16.9681 10.5354 17.7465 10.7789 18.4928C10.8504 18.7098 10.7249 18.9424 10.4996 19.0102C10.2744 19.078 10.0345 18.9562 9.96303 18.7373C9.68739 17.8921 9.57933 17.0121 9.6416 16.1211C9.91449 12.2173 13.4227 9.27136 17.4629 9.55341C18.3759 9.61751 19.2541 9.83911 20.0746 10.2137C20.2394 10.2887 20.3319 10.4527 20.32 10.6175L20.3209 10.6184Z" fill="white"/>
<path d="M28.1974 33.3866C27.6196 32.8087 28.0573 22.0104 27.9273 20.9985C27.9273 18.6258 27.2808 16.9134 26.0061 15.9079C23.6582 13.93 18.1546 13.8988 15.8936 16.1314C14.5173 17.2953 13.7444 19.4674 13.6135 21.7457H15.2819C15.5457 18.0508 17.1848 16.0499 20.9705 16.0966C25.0684 16.1186 26.2369 17.8621 26.2973 21.852C26.4337 23.5699 23.2378 23.319 21.8047 23.503C20.0639 23.6505 18.1967 23.6578 16.5896 24.3089C14.1629 25.2603 12.5421 27.231 12.5759 29.9397C12.4212 33.8957 16.1619 35.7601 19.5319 35.7675C22.4073 35.8041 24.7708 34.3371 26.2973 32.0413C26.2698 35.1667 27.6801 35.2977 30.3751 35.1988V33.5047C29.9135 33.5734 28.3394 33.6292 28.1956 33.3866H28.1974ZM26.2991 24.3593C26.4044 27.0094 26.3211 30.0377 24.366 32.0029C22.2589 34.5294 18.3789 34.7867 15.7077 33.0129C13.5814 31.8692 13.8287 27.1083 16.0429 26.3986C19.0767 24.84 23.2058 25.5763 26.3 24.3593H26.2991Z" fill="white"/>
<path d="M44.9113 33.3873C44.3335 32.8085 44.7712 22.0111 44.6412 20.9983C44.6412 18.6256 43.9947 16.9132 42.72 15.9077C40.3729 13.9288 34.8685 13.8986 32.6075 16.1312C31.2312 17.2951 30.4583 19.4672 30.3273 21.7455H31.9958C32.2595 18.0506 33.8987 16.0497 37.6843 16.0964C41.7822 16.1184 42.9507 17.8619 43.0112 21.8518C43.1476 23.5697 39.9517 23.3188 38.5186 23.5028C36.7778 23.6512 34.9115 23.6576 33.3035 24.3087C30.8759 25.2611 29.2568 27.2308 29.2898 29.9395C29.135 33.8955 32.8758 35.7599 36.2457 35.7673C39.122 35.8039 41.4846 34.3369 43.0112 32.0402C42.9837 35.1656 44.393 35.2966 47.0889 35.1977V33.5036C46.6283 33.5723 45.0533 33.6281 44.9095 33.3864L44.9113 33.3873ZM43.0121 24.36C43.1174 27.0101 43.0341 30.0384 41.079 32.0036C38.9709 34.5301 35.0919 34.7874 32.4207 33.0137C30.2953 31.8699 30.5425 27.109 32.7559 26.3993C35.7842 24.8426 39.916 25.5761 43.013 24.36H43.0121Z" fill="white"/>
<path d="M63.8899 14.9671H61.4448L49.1887 25.2811V7.08176H47.5596V35.1994H49.1887V27.4486L53.543 23.7197L62.2333 35.1994H64.2745L54.8149 22.6996L63.8899 14.9671Z" fill="white"/>
<path d="M79.3098 33.3869C78.732 32.8091 79.1697 22.0107 79.0397 20.9989C79.0397 18.6262 78.3932 16.9138 77.1185 15.9083C74.7714 13.9294 69.266 13.8992 67.006 16.1317C65.6297 17.2956 64.8568 19.4678 64.7258 21.7461H66.3943C66.658 18.0502 68.2972 16.0502 72.0828 16.0969C76.1807 16.1189 77.3492 17.8625 77.4097 21.8523C77.5461 23.5702 74.3502 23.3193 72.9171 23.5034C71.1781 23.6508 69.3082 23.6582 67.7029 24.3092C65.2753 25.2607 63.6553 27.2313 63.6892 29.9401C63.5345 33.8961 67.2752 35.7605 70.6451 35.7678C73.5205 35.8045 75.885 34.3374 77.4106 32.0417C77.3831 35.1671 78.7933 35.298 81.4874 35.1991V33.505C81.0268 33.5737 79.4527 33.6296 79.3089 33.3878L79.3098 33.3869ZM77.4115 24.3596C77.5168 27.0097 77.4335 30.0381 75.4784 32.0032C73.3704 34.5297 69.4913 34.7871 66.8201 33.0133C64.6947 31.8695 64.941 27.1086 67.1553 26.3989C70.1836 24.8422 74.3163 25.5757 77.4124 24.3596H77.4115Z" fill="white"/>
<path d="M93.9784 25.5062C91.3622 24.1015 87.6013 23.7498 84.9392 22.5035C82.9356 21.8158 82.9246 18.1858 84.6151 17.1666C86.7817 15.5742 90.6543 15.5742 92.5838 17.1236C93.6131 17.8644 94.0984 19.6556 94.0599 21.4202H95.6762C96.635 11.9323 81.5776 12.4277 81.725 19.7884C81.3999 27.2937 94.863 23.8405 94.5911 29.7671C94.8951 35.5454 81.9613 36.3311 82.6939 27.6069H81.0144C80.4247 38.4794 96.4821 37.6067 96.2595 29.7653C96.2595 27.6948 95.4922 26.2617 93.9784 25.5062Z" fill="white"/>
<path d="M111.306 16.4955C108.22 12.8491 101.666 13.5771 99.4074 18.0239V7.08176H97.7783V35.1985H99.4074C100.019 29.5163 96.7582 16.0404 105.784 15.8527C110.257 15.7593 111.405 19.0641 111.501 22.9496V35.1985H113.13C112.732 31.0914 114.403 19.6511 111.306 16.4946L111.306 16.4955Z" fill="white"/>
<path d="M123.388 30.9178C123.712 30.9178 123.875 31.1358 123.875 31.5726C123.875 31.9416 123.764 32.3006 123.539 32.6467C123.237 33.296 122.633 33.9114 121.726 34.4938C120.696 35.154 119.661 35.4846 118.62 35.4846C116.818 35.4846 115.676 34.6788 115.195 33.0671C114.625 31.1532 115.481 27.0956 117.764 20.8942C116.476 20.7825 115.777 20.5581 115.665 20.223C115.631 20.1222 115.614 20.0133 115.614 19.8951C115.614 19.777 115.668 19.6406 115.774 19.484C115.88 19.3274 116.017 19.1763 116.185 19.0307C116.577 18.7065 116.974 18.5435 117.377 18.5435H118.704C119.913 15.7121 120.775 14.0995 121.29 13.7075C121.536 13.529 121.81 13.4392 122.112 13.4392C122.415 13.4392 122.666 13.4786 122.868 13.5564C123.069 13.6352 123.248 13.7469 123.405 13.8925C123.764 14.2286 123.943 14.6031 123.943 15.017C123.943 15.2414 123.876 15.4987 123.742 15.789L122.499 18.4922H122.902C123.596 18.4922 124.155 18.4867 124.58 18.4757L125.537 18.4593C125.75 18.4483 126.016 18.4428 126.335 18.4428C126.654 18.4428 126.814 18.56 126.814 18.7953C126.814 20.2733 125.068 21.0114 121.575 21.0114H121.44L120.298 23.9665C119.011 27.4591 118.367 29.905 118.367 31.3043C118.367 31.6962 118.457 32.0011 118.635 32.2191C118.814 32.437 119.15 32.5469 119.643 32.5469C120.135 32.5469 120.583 32.4627 120.986 32.2951C121.389 32.1275 121.742 31.9398 122.044 31.7328C122.346 31.5259 122.606 31.3382 122.825 31.1706C123.043 31.003 123.231 30.9187 123.387 30.9187L123.388 30.9178Z" fill="#3BB24A"/>
<path d="M126.125 29.441C126.17 28.4675 126.332 27.5353 126.613 26.6452C126.892 25.7551 127.267 24.8934 127.738 24.0592C128.208 23.2259 128.759 22.4365 129.392 21.692C130.024 20.9475 130.71 20.2955 131.449 19.736C133.049 18.5382 134.666 17.9393 136.301 17.9393C138.215 17.9393 139.491 18.7287 140.13 20.3065C140.353 20.844 140.459 21.4796 140.448 22.2121C140.437 22.9456 140.297 23.6224 140.029 24.2442C139.761 24.8659 139.388 25.431 138.913 25.9401C138.436 26.4492 137.871 26.9053 137.217 27.3082C136.562 27.7111 135.849 28.0527 135.076 28.332C133.486 28.8915 131.785 29.1827 129.971 29.2047C129.927 29.3613 129.898 29.5966 129.887 29.9098C129.876 30.223 129.909 30.5728 129.988 30.9592C130.066 31.3457 130.2 31.69 130.391 31.9922C130.794 32.6634 131.375 32.9995 132.137 32.9995C133.436 32.9995 134.7 32.6195 135.932 31.8576C136.369 31.6003 136.724 31.3347 136.998 31.06C137.272 30.7862 137.51 30.6488 137.711 30.6488C137.913 30.6488 138.088 30.7688 138.241 31.0096C138.392 31.2504 138.468 31.5215 138.468 31.8237C138.468 32.4171 138.3 32.9317 137.964 33.3685C136.554 34.7788 134.455 35.4839 131.667 35.4839C130.022 35.4839 128.701 34.9912 127.705 34.0059C126.586 32.8869 126.059 31.364 126.126 29.4391L126.125 29.441ZM135.931 20.1728C134.756 20.1728 133.625 20.9787 132.539 22.5903C131.622 23.9786 130.883 25.6242 130.323 27.5271C132.192 27.3366 133.816 26.5985 135.192 25.311C136.457 24.1022 137.089 22.9438 137.089 21.8358C137.089 20.7277 136.703 20.1737 135.931 20.1737V20.1728Z" fill="#3BB24A"/>
<path d="M143 34.6461C142.719 34.3549 142.493 33.9831 142.319 33.5298C142.145 33.0765 142.059 32.5509 142.059 31.9511C142.059 31.3513 142.196 30.5491 142.47 29.5418C142.744 28.5345 143.094 27.3871 143.52 26.0995L144.93 21.9183C146.934 16.0979 148.092 11.598 148.406 8.41853C148.507 7.47807 148.966 7.0083 149.783 7.0083C150.298 7.0083 150.724 7.13192 151.059 7.37734C151.708 7.87001 152.021 8.41853 151.999 9.02292C151.976 9.6273 151.87 10.3636 151.681 11.2308C151.49 12.098 151.244 13.0439 150.942 14.0686C150.64 15.0924 150.292 16.1757 149.901 17.3176L147.584 24.1344C146.251 28.007 145.586 30.5088 145.586 31.6397C145.586 32.2441 145.832 32.5463 146.325 32.5463C146.817 32.5463 147.223 32.4456 147.609 32.2441C147.996 32.0427 148.245 31.9419 148.357 31.9419C148.592 31.9419 148.709 32.0591 148.709 32.2945C148.709 33.2908 148.2 34.125 147.181 34.7963C146.498 35.255 145.874 35.4849 145.309 35.4849C144.744 35.4849 144.287 35.418 143.941 35.2834C143.594 35.1488 143.281 34.9364 143 34.6452L143 34.6461Z" fill="#3BB24A"/>
</g>
<defs>
<clipPath id="clip0_2115_1106">
<rect width="152" height="35.5378" fill="white" transform="translate(0 0.231079)"/>
</clipPath>
</defs>
</svg>
