<svg width="152" height="36" viewBox="0 0 152 36" fill="none" xmlns="http://www.w3.org/2000/svg">
<g clip-path="url(#clip0_614_3346)">
<path d="M20.9882 1.07084C20.9864 1.09099 20.9836 1.11205 20.979 1.13219C20.9287 1.35472 20.6997 1.49483 20.469 1.44446C19.6814 1.27322 18.8692 1.15692 18.0551 1.09923C9.18987 0.479276 1.49129 6.94344 0.892403 15.5101C0.836543 16.305 0.842953 17.1053 0.911633 17.8892C0.928117 18.1218 0.756874 18.3169 0.521531 18.3343C0.286187 18.3526 0.079231 18.1823 0.0590848 17.9551C-0.0132582 17.1301 -0.020584 16.2867 0.038023 15.4506C0.66988 6.42972 8.77688 -0.378767 18.1128 0.274151C18.9699 0.333674 19.8252 0.456382 20.6539 0.637698C20.8637 0.683484 21.0028 0.869378 20.9882 1.06992V1.07084Z" fill="#121212"/>
<path d="M20.6634 5.75168C20.6616 5.78098 20.6561 5.80937 20.6478 5.83867C20.5819 6.05753 20.3456 6.18299 20.1185 6.1198C19.3447 5.90094 18.5426 5.76084 17.733 5.70406C11.496 5.26817 6.08032 9.81571 5.65817 15.8431C5.60323 16.6242 5.63528 17.4099 5.75066 18.1782C5.78454 18.4035 5.62337 18.6132 5.38894 18.6452C5.15543 18.6773 4.93749 18.5198 4.90361 18.2936C4.77907 17.4667 4.74518 16.6214 4.80379 15.7826C5.25708 9.30106 11.0821 4.41013 17.7898 4.87898C18.6598 4.93942 19.5224 5.0896 20.3539 5.32586C20.5508 5.38172 20.6762 5.56212 20.6625 5.75259L20.6634 5.75168Z" fill="#121212"/>
<path d="M20.3208 10.6184C20.3172 10.6679 20.3044 10.7173 20.2815 10.7658C20.1807 10.9719 19.9271 11.0607 19.7128 10.9627C18.9884 10.6321 18.2128 10.4362 17.4051 10.3794C13.8365 10.1294 10.7358 12.7328 10.495 16.1815C10.4401 16.9681 10.5353 17.7465 10.7789 18.4928C10.8503 18.7098 10.7249 18.9424 10.4996 19.0102C10.2743 19.078 10.0344 18.9562 9.96296 18.7373C9.68733 17.8921 9.57927 17.0121 9.64154 16.1211C9.91443 12.2173 13.4226 9.27136 17.4628 9.55341C18.3758 9.61751 19.254 9.83911 20.0745 10.2137C20.2393 10.2887 20.3318 10.4527 20.3199 10.6175L20.3208 10.6184Z" fill="#121212"/>
<path d="M28.1971 33.3866C27.6193 32.8088 28.057 22.0104 27.927 20.9985C27.927 18.6259 27.2805 16.9134 26.0058 15.908C23.6578 13.93 18.1543 13.8988 15.8933 16.1314C14.517 17.2953 13.7441 19.4674 13.6132 21.7458H15.2816C15.5454 18.0508 17.1845 16.0499 20.9702 16.0966C25.0681 16.1186 26.2366 17.8621 26.297 21.852C26.4334 23.5699 23.2375 23.319 21.8044 23.5031C20.0636 23.6505 18.1964 23.6578 16.5893 24.3089C14.1626 25.2604 12.5417 27.231 12.5756 29.9398C12.4209 33.8957 16.1616 35.7602 19.5315 35.7675C22.407 35.8041 24.7705 34.3371 26.297 32.0414C26.2695 35.1668 27.6798 35.2977 30.3748 35.1988V33.5047C29.9132 33.5734 28.3391 33.6293 28.1953 33.3866H28.1971ZM26.2988 24.3593C26.4041 27.0094 26.3208 30.0378 24.3657 32.0029C22.2586 34.5294 18.3786 34.7867 15.7074 33.013C13.5811 31.8692 13.8284 27.1083 16.0426 26.3986C19.0764 24.84 23.2055 25.5763 26.2997 24.3593H26.2988Z" fill="#121212"/>
<path d="M44.9112 33.3873C44.3334 32.8086 44.7711 22.0111 44.6411 20.9983C44.6411 18.6257 43.9946 16.9132 42.7199 15.9078C40.3728 13.9289 34.8684 13.8987 32.6074 16.1312C31.2311 17.2951 30.4582 19.4672 30.3272 21.7456H31.9957C32.2594 18.0506 33.8986 16.0497 37.6842 16.0964C41.7822 16.1184 42.9506 17.8619 43.0111 21.8518C43.1475 23.5697 39.9516 23.3188 38.5185 23.5029C36.7777 23.6512 34.9114 23.6576 33.3034 24.3087C30.8758 25.2611 29.2567 27.2308 29.2897 29.9396C29.135 33.8955 32.8757 35.76 36.2456 35.7673C39.122 35.8039 41.4845 34.3369 43.0111 32.0403C42.9836 35.1657 44.3929 35.2966 47.0888 35.1977V33.5036C46.6282 33.5723 45.0532 33.6281 44.9094 33.3864L44.9112 33.3873ZM43.012 24.36C43.1173 27.0101 43.034 30.0385 41.0789 32.0036C38.9709 34.5301 35.0918 34.7875 32.4206 33.0137C30.2952 31.8699 30.5424 27.109 32.7558 26.3993C35.7841 24.8426 39.9159 25.5761 43.0129 24.36H43.012Z" fill="#121212"/>
<path d="M63.8896 14.9672H61.4446L49.1885 25.2811V7.08179H47.5594V35.1994H49.1885V27.4486L53.5428 23.7198L62.2331 35.1994H64.2743L54.8147 22.6996L63.8896 14.9672Z" fill="#121212"/>
<path d="M79.3097 33.3869C78.7319 32.8091 79.1696 22.0108 79.0396 20.9989C79.0396 18.6262 78.393 16.9138 77.1183 15.9083C74.7713 13.9294 69.2659 13.8992 67.0059 16.1318C65.6295 17.2957 64.8567 19.4678 64.7257 21.7461H66.3942C66.6579 18.0502 68.2971 16.0503 72.0827 16.097C76.1806 16.1189 77.3491 17.8625 77.4095 21.8524C77.546 23.5703 74.3501 23.3194 72.917 23.5034C71.178 23.6509 69.308 23.6582 67.7028 24.3093C65.2751 25.2607 63.6552 27.2314 63.6891 29.9401C63.5343 33.8961 67.2751 35.7605 70.645 35.7679C73.5204 35.8045 75.8848 34.3375 77.4105 32.0417C77.383 35.1671 78.7932 35.2981 81.4873 35.1992V33.5051C81.0267 33.5737 79.4525 33.6296 79.3088 33.3879L79.3097 33.3869ZM77.4114 24.3596C77.5167 27.0098 77.4334 30.0381 75.4783 32.0033C73.3702 34.5298 69.4912 34.7871 66.82 33.0133C64.6946 31.8696 64.9409 27.1087 67.1551 26.399C70.1835 24.8422 74.3162 25.5757 77.4123 24.3596H77.4114Z" fill="#121212"/>
<path d="M93.9781 25.5062C91.3618 24.1015 87.6009 23.7498 84.9389 22.5035C82.9352 21.8158 82.9242 18.1858 84.6147 17.1666C86.7813 15.5742 90.654 15.5742 92.5834 17.1236C93.6127 17.8644 94.098 19.6556 94.0596 21.4202H95.6759C96.6346 11.9323 81.5772 12.4277 81.7246 19.7884C81.3996 27.2937 94.8627 23.8405 94.5907 29.7671C94.8947 35.5454 81.9609 36.3311 82.6935 27.6069H81.014C80.4243 38.4794 96.4817 37.6067 96.2592 29.7653C96.2592 27.6948 95.4918 26.2617 93.9781 25.5062Z" fill="#121212"/>
<path d="M111.306 16.4955C108.221 12.8491 101.666 13.5771 99.4075 18.0239V7.08179H97.7784V35.1985H99.4075C100.019 29.5164 96.7583 16.0404 105.784 15.8527C110.257 15.7593 111.405 19.0642 111.501 22.9496V35.1985H113.13C112.732 31.0914 114.403 19.6512 111.307 16.4946L111.306 16.4955Z" fill="#121212"/>
<path d="M123.388 30.9179C123.712 30.9179 123.875 31.1358 123.875 31.5726C123.875 31.9417 123.763 32.3007 123.539 32.6468C123.237 33.2961 122.632 33.9114 121.726 34.4938C120.696 35.1541 119.661 35.4847 118.62 35.4847C116.817 35.4847 115.676 34.6788 115.195 33.0671C114.624 31.1532 115.481 27.0956 117.763 20.8943C116.476 20.7825 115.776 20.5582 115.665 20.223C115.631 20.1223 115.614 20.0133 115.614 19.8952C115.614 19.7771 115.667 19.6406 115.774 19.484C115.88 19.3274 116.017 19.1763 116.185 19.0307C116.577 18.7066 116.974 18.5436 117.377 18.5436H118.704C119.913 15.7121 120.774 14.0995 121.29 13.7076C121.536 13.529 121.81 13.4393 122.112 13.4393C122.414 13.4393 122.666 13.4786 122.868 13.5565C123.069 13.6352 123.248 13.747 123.405 13.8926C123.763 14.2286 123.943 14.6032 123.943 15.0171C123.943 15.2414 123.876 15.4988 123.741 15.789L122.499 18.4923H122.902C123.596 18.4923 124.155 18.4868 124.58 18.4758L125.537 18.4593C125.75 18.4483 126.016 18.4428 126.335 18.4428C126.653 18.4428 126.814 18.5601 126.814 18.7954C126.814 20.2734 125.067 21.0115 121.575 21.0115H121.44L120.298 23.9666C119.011 27.4592 118.367 29.9051 118.367 31.3043C118.367 31.6963 118.457 32.0012 118.635 32.2192C118.814 32.4371 119.15 32.547 119.643 32.547C120.135 32.547 120.583 32.4627 120.986 32.2952C121.389 32.1276 121.741 31.9399 122.044 31.7329C122.346 31.5259 122.606 31.3382 122.825 31.1706C123.043 31.0031 123.23 30.9188 123.387 30.9188L123.388 30.9179Z" fill="#3BB24A"/>
<path d="M126.125 29.441C126.17 28.4676 126.332 27.5354 126.612 26.6453C126.892 25.7552 127.267 24.8935 127.738 24.0592C128.207 23.2259 128.759 22.4366 129.391 21.6921C130.023 20.9476 130.709 20.2956 131.448 19.7361C133.049 18.5383 134.666 17.9394 136.301 17.9394C138.215 17.9394 139.491 18.7288 140.129 20.3066C140.353 20.8441 140.459 21.4796 140.448 22.2122C140.437 22.9457 140.297 23.6224 140.029 24.2442C139.76 24.866 139.388 25.431 138.912 25.9402C138.436 26.4493 137.871 26.9053 137.216 27.3083C136.562 27.7112 135.848 28.0528 135.075 28.3321C133.486 28.8916 131.784 29.1828 129.971 29.2048C129.926 29.3613 129.898 29.5967 129.887 29.9099C129.876 30.2231 129.909 30.5729 129.988 30.9593C130.065 31.3457 130.2 31.6901 130.391 31.9923C130.793 32.6635 131.375 32.9996 132.137 32.9996C133.435 32.9996 134.7 32.6195 135.932 31.8576C136.368 31.6003 136.724 31.3348 136.998 31.06C137.271 30.7862 137.509 30.6489 137.711 30.6489C137.912 30.6489 138.088 30.7688 138.24 31.0097C138.391 31.2505 138.467 31.5216 138.467 31.8238C138.467 32.4172 138.3 32.9318 137.964 33.3686C136.553 34.7788 134.455 35.4839 131.667 35.4839C130.021 35.4839 128.701 34.9913 127.705 34.0059C126.586 32.8869 126.059 31.3641 126.126 29.4392L126.125 29.441ZM135.931 20.1729C134.756 20.1729 133.625 20.9787 132.539 22.5904C131.621 23.9787 130.882 25.6242 130.323 27.5271C132.192 27.3367 133.815 26.5986 135.192 25.3111C136.456 24.1023 137.089 22.9439 137.089 21.8358C137.089 20.7278 136.703 20.1738 135.931 20.1738V20.1729Z" fill="#3BB24A"/>
<path d="M142.999 34.6461C142.719 34.3549 142.493 33.9831 142.319 33.5298C142.145 33.0765 142.059 32.5509 142.059 31.9511C142.059 31.3513 142.196 30.5491 142.47 29.5418C142.744 28.5345 143.094 27.3871 143.519 26.0996L144.93 21.9183C146.933 16.0979 148.092 11.598 148.406 8.41856C148.506 7.4781 148.965 7.00833 149.783 7.00833C150.298 7.00833 150.723 7.13196 151.059 7.37737C151.708 7.87004 152.021 8.41856 151.999 9.02295C151.976 9.62733 151.87 10.3636 151.68 11.2308C151.49 12.098 151.244 13.0439 150.941 14.0686C150.639 15.0924 150.292 16.1757 149.9 17.3177L147.583 24.1344C146.251 28.007 145.585 30.5088 145.585 31.6398C145.585 32.2441 145.832 32.5463 146.324 32.5463C146.817 32.5463 147.223 32.4456 147.609 32.2441C147.995 32.0427 148.245 31.942 148.356 31.942C148.592 31.942 148.709 32.0592 148.709 32.2945C148.709 33.2908 148.2 34.1251 147.18 34.7963C146.497 35.2551 145.874 35.4849 145.309 35.4849C144.744 35.4849 144.287 35.4181 143.941 35.2835C143.594 35.1489 143.28 34.9364 143 34.6452L142.999 34.6461Z" fill="#3BB24A"/>
</g>
<defs>
<clipPath id="clip0_614_3346">
<rect width="152" height="35.5378" fill="white" transform="translate(0 0.231094)"/>
</clipPath>
</defs>
</svg>
