<svg width="20" height="20" viewBox="0 0 20 20" fill="none" xmlns="http://www.w3.org/2000/svg">
<path d="M4 3C4.29167 3 4.53125 3.09375 4.71875 3.28125C4.90625 3.46875 5 3.70833 5 4V16C5 16.2917 4.90625 16.5312 4.71875 16.7188C4.53125 16.9062 4.29167 17 4 17C3.70833 17 3.46875 16.9062 3.28125 16.7188C3.09375 16.5312 3 16.2917 3 16V4C3 3.70833 3.09375 3.46875 3.28125 3.28125C3.46875 3.09375 3.70833 3 4 3ZM8 3C8.29167 3 8.53125 3.09375 8.71875 3.28125C8.90625 3.46875 9 3.70833 9 4V16C9 16.2917 8.90625 16.5312 8.71875 16.7188C8.53125 16.9062 8.29167 17 8 17C7.70833 17 7.46875 16.9062 7.28125 16.7188C7.09375 16.5312 7 16.2917 7 16V4C7 3.70833 7.09375 3.46875 7.28125 3.28125C7.46875 3.09375 7.70833 3 8 3ZM13 16C13 16.2917 12.9062 16.5312 12.7188 16.7188C12.5312 16.9062 12.2917 17 12 17C11.7083 17 11.4688 16.9062 11.2812 16.7188C11.0938 16.5312 11 16.2917 11 16V4C11 3.70833 11.0938 3.46875 11.2812 3.28125C11.4688 3.09375 11.7083 3 12 3C12.2917 3 12.5312 3.09375 12.7188 3.28125C12.9062 3.46875 13 3.70833 13 4V16Z" fill="#3BB24A"/>
</svg>
