<svg width="32" height="32" viewBox="0 0 32 32" fill="none" xmlns="http://www.w3.org/2000/svg">
<path d="M15.25 19.75C14.75 20.2188 14.2344 20.2188 13.7031 19.75L11.0781 17.125C10.6406 16.625 10.6406 16.1094 11.0781 15.5781C11.6094 15.1406 12.125 15.1406 12.625 15.5781L14.5 17.4062L18.9531 12.9531C19.4844 12.5156 20 12.5156 20.5 12.9531C20.9688 13.4844 20.9688 14 20.5 14.5L15.25 19.75ZM20.125 6.01562C21.75 5.82812 23.2031 6.32813 24.4844 7.51562C25.6719 8.76562 26.1719 10.2188 25.9844 11.875C27.2344 12.875 27.9062 14.25 28 16C27.9062 17.75 27.2344 19.125 25.9844 20.125C26.1719 21.75 25.6719 23.2031 24.4844 24.4844C23.2031 25.6719 21.75 26.1719 20.125 25.9844C19.125 27.2344 17.75 27.9062 16 28C14.25 27.9062 12.875 27.2344 11.875 25.9844C10.2188 26.1719 8.76562 25.6719 7.51562 24.4844C6.32812 23.2031 5.82812 21.75 6.01562 20.125C4.73438 19.125 4.0625 17.75 4 16C4.0625 14.25 4.73438 12.875 6.01562 11.875C5.82812 10.2188 6.32812 8.76562 7.51562 7.51562C8.76562 6.32813 10.2188 5.82812 11.875 6.01562C12.875 4.73438 14.25 4.0625 16 4C17.75 4.0625 19.125 4.73438 20.125 6.01562ZM12.9062 8.64062L12.0625 8.35938C10.9375 8.04688 9.95312 8.29688 9.10938 9.10938C8.29688 9.95312 8.04688 10.9375 8.35938 12.0625L8.64062 12.9062L7.84375 13.375C6.84375 13.9375 6.3125 14.8125 6.25 16C6.3125 17.1875 6.84375 18.0625 7.84375 18.625L8.64062 19.0469L8.35938 19.8906C8.04688 21.0156 8.29688 22.0156 9.10938 22.8906C9.95312 23.7031 10.9375 23.9531 12.0625 23.6406L12.9062 23.3594L13.375 24.2031C13.9375 25.1719 14.8125 25.6875 16 25.75C17.1875 25.6875 18.0625 25.1719 18.625 24.2031L19.0469 23.3594L19.8906 23.6406C21.0156 23.9531 22.0156 23.7031 22.8906 22.8906C23.7031 22.0156 23.9531 21.0156 23.6406 19.8906L23.3594 19.0469L24.2031 18.625C25.1719 18.0625 25.6875 17.1875 25.75 16C25.6875 14.8125 25.1719 13.9375 24.2031 13.375L23.3594 12.9062L23.6406 12.0625C23.9531 10.9375 23.7031 9.95312 22.8906 9.10938C22.0156 8.29688 21.0156 8.04688 19.8906 8.35938L19.0469 8.64062L18.625 7.84375C18.0625 6.84375 17.1875 6.3125 16 6.25C14.8125 6.3125 13.9375 6.84375 13.375 7.84375L12.9062 8.64062Z" fill="#121212"/>
</svg>
