<svg width="136" height="40" viewBox="0 0 136 40" fill="none" xmlns="http://www.w3.org/2000/svg">
<g clip-path="url(#clip0_719_4742)">
<path d="M130.483 40H5.01471C3.7607 39.9971 2.55894 39.4974 1.6726 38.6103C0.786253 37.7232 0.287554 36.521 0.285706 35.267L0.285706 4.726C0.287559 3.47264 0.786482 2.27118 1.67303 1.3852C2.55957 0.499218 3.76134 0.00105789 5.01471 0L130.483 0C133.089 0 135.286 2.12 135.286 4.726V35.267C135.286 37.872 133.089 40 130.483 40Z" fill="#A6A6A6"/>
<path d="M134.318 35.2677C134.318 35.771 134.219 36.2693 134.026 36.7343C133.833 37.1992 133.551 37.6216 133.195 37.9773C132.838 38.333 132.416 38.615 131.951 38.8073C131.485 38.9995 130.987 39.0982 130.484 39.0976H5.01472C3.99779 39.0987 3.02207 38.6958 2.30215 37.9776C1.58222 37.2593 1.17705 36.2846 1.17572 35.2677V4.72465C1.17704 3.70726 1.58206 2.73197 2.30184 2.01294C3.02162 1.29391 3.99733 0.889913 5.01472 0.889648H130.483C130.986 0.889648 131.485 0.988851 131.95 1.18159C132.415 1.37433 132.838 1.65683 133.194 2.01295C133.55 2.36908 133.833 2.79186 134.025 3.25713C134.218 3.72241 134.317 4.22108 134.317 4.72465L134.318 35.2677Z" fill="#121212"/>
<path d="M30.4137 19.7838C30.3847 16.5608 33.0527 14.9928 33.1747 14.9198C31.6637 12.7168 29.3217 12.4158 28.4987 12.3918C26.5317 12.1848 24.6237 13.5688 23.6217 13.5688C22.5997 13.5688 21.0567 12.4118 19.3937 12.4458C17.2537 12.4788 15.2517 13.7178 14.1537 15.6418C11.8877 19.5648 13.5777 25.3298 15.7487 28.5008C16.8347 30.0538 18.1037 31.7878 19.7647 31.7268C21.3897 31.6598 21.9967 30.6908 23.9577 30.6908C25.9007 30.6908 26.4707 31.7268 28.1647 31.6878C29.9087 31.6598 31.0067 30.1278 32.0547 28.5608C33.3097 26.7808 33.8137 25.0278 33.8337 24.9378C33.7927 24.9238 30.4467 23.6468 30.4137 19.7838ZM27.2137 10.3058C28.0877 9.2128 28.6857 7.7258 28.5197 6.2168C27.2547 6.2728 25.6727 7.0918 24.7617 8.1608C23.9557 9.1028 23.2357 10.6468 23.4217 12.0988C24.8427 12.2048 26.3017 11.3818 27.2137 10.3058Z" fill="white"/>
<path d="M53.9307 31.504H51.6597L50.4157 27.595H46.0917L44.9067 31.504H42.6957L46.9797 18.196H49.6257L53.9307 31.504ZM50.0407 25.955L48.9157 22.48C48.7967 22.125 48.5737 21.289 48.2447 19.973H48.2047C48.0052 20.8114 47.7945 21.6472 47.5727 22.48L46.4677 25.955H50.0407ZM64.9477 26.588C64.9477 28.22 64.5067 29.51 63.6247 30.457C62.8347 31.3 61.8537 31.721 60.6827 31.721C59.4187 31.721 58.5107 31.267 57.9577 30.359H57.9177V35.414H55.7857V25.067C55.7857 24.041 55.7587 22.988 55.7067 21.908H57.5817L57.7007 23.429H57.7407C58.4517 22.283 59.5307 21.711 60.9787 21.711C62.1107 21.711 63.0557 22.158 63.8117 23.053C64.5697 23.949 64.9477 25.127 64.9477 26.588ZM62.7757 26.666C62.7757 25.732 62.5657 24.962 62.1437 24.356C61.6827 23.724 61.0637 23.408 60.2877 23.408C59.7617 23.408 59.2837 23.584 58.8567 23.931C58.4287 24.281 58.1487 24.738 58.0177 25.304C57.9517 25.568 57.9187 25.784 57.9187 25.954V27.554C57.9187 28.252 58.1327 28.841 58.5607 29.322C58.9887 29.803 59.5447 30.043 60.2287 30.043C61.0317 30.043 61.6567 29.733 62.1037 29.115C62.5517 28.496 62.7757 27.68 62.7757 26.666ZM75.9847 26.588C75.9847 28.22 75.5437 29.51 74.6607 30.457C73.8717 31.3 72.8907 31.721 71.7197 31.721C70.4557 31.721 69.5477 31.267 68.9957 30.359H68.9557V35.414H66.8237V25.067C66.8237 24.041 66.7967 22.988 66.7447 21.908H68.6197L68.7387 23.429H68.7787C69.4887 22.283 70.5677 21.711 72.0167 21.711C73.1477 21.711 74.0927 22.158 74.8507 23.053C75.6057 23.949 75.9847 25.127 75.9847 26.588ZM73.8127 26.666C73.8127 25.732 73.6017 24.962 73.1797 24.356C72.7187 23.724 72.1017 23.408 71.3247 23.408C70.8006 23.4078 70.2933 23.5931 69.8927 23.931C69.4647 24.281 69.1857 24.738 69.0547 25.304C68.9897 25.568 68.9557 25.784 68.9557 25.954V27.554C68.9557 28.252 69.1697 28.841 69.5957 29.322C70.0237 29.802 70.5797 30.043 71.2657 30.043C72.0687 30.043 72.6937 29.733 73.1407 29.115C73.5887 28.496 73.8127 27.68 73.8127 26.666ZM88.3247 27.772C88.3247 28.904 87.9317 29.825 87.1427 30.536C86.2757 31.313 85.0687 31.701 83.5177 31.701C82.0857 31.701 80.9377 31.425 80.0687 30.872L80.5627 29.095C81.4987 29.661 82.5257 29.945 83.6447 29.945C84.4477 29.945 85.0727 29.763 85.5217 29.401C85.9687 29.039 86.1917 28.553 86.1917 27.947C86.1917 27.407 86.0077 26.952 85.6387 26.583C85.2717 26.214 84.6587 25.871 83.8027 25.554C81.4727 24.685 80.3087 23.412 80.3087 21.738C80.3087 20.644 80.7167 19.747 81.5337 19.049C82.3477 18.35 83.4337 18.001 84.7917 18.001C86.0027 18.001 87.0087 18.212 87.8117 18.633L87.2787 20.371C86.5287 19.963 85.6807 19.759 84.7317 19.759C83.9817 19.759 83.3957 19.944 82.9757 20.312C82.8054 20.4626 82.6696 20.6483 82.5776 20.8563C82.4856 21.0642 82.4396 21.2896 82.4427 21.517C82.4427 22.043 82.6457 22.478 83.0537 22.82C83.4087 23.136 84.0537 23.478 84.9897 23.847C86.1347 24.308 86.9757 24.847 87.5167 25.465C88.0557 26.081 88.3247 26.852 88.3247 27.772ZM95.3737 23.508H93.0237V28.167C93.0237 29.352 93.4377 29.944 94.2677 29.944C94.6487 29.944 94.9647 29.911 95.2147 29.845L95.2737 31.464C94.8537 31.621 94.3007 31.7 93.6157 31.7C92.7737 31.7 92.1157 31.443 91.6407 30.93C91.1677 30.416 90.9297 29.554 90.9297 28.343V23.506H89.5297V21.906H90.9297V20.149L93.0237 19.517V21.906H95.3737V23.508ZM105.977 26.627C105.977 28.102 105.555 29.313 104.713 30.26C103.83 31.235 102.658 31.721 101.197 31.721C99.7887 31.721 98.6677 31.254 97.8317 30.32C96.9957 29.386 96.5777 28.207 96.5777 26.786C96.5777 25.299 97.0077 24.081 97.8707 23.134C98.7317 22.186 99.8937 21.712 101.355 21.712C102.763 21.712 103.896 22.179 104.751 23.114C105.569 24.021 105.977 25.192 105.977 26.627ZM103.765 26.696C103.765 25.811 103.576 25.052 103.193 24.419C102.746 23.653 102.107 23.271 101.279 23.271C100.422 23.271 99.7707 23.654 99.3237 24.419C98.9407 25.053 98.7517 25.824 98.7517 26.736C98.7517 27.621 98.9407 28.38 99.3237 29.012C99.7847 29.778 100.429 30.16 101.26 30.16C102.074 30.16 102.713 29.77 103.174 28.992C103.567 28.347 103.765 27.58 103.765 26.696ZM112.907 23.783C112.685 23.7429 112.46 23.7232 112.235 23.724C111.485 23.724 110.905 24.007 110.497 24.574C110.142 25.074 109.964 25.706 109.964 26.469V31.504H107.833L107.853 24.93C107.853 23.824 107.826 22.817 107.773 21.909H109.63L109.708 23.745H109.767C109.992 23.114 110.347 22.606 110.833 22.225C111.278 21.8921 111.818 21.7118 112.374 21.711C112.571 21.711 112.749 21.725 112.907 21.75V23.783ZM122.442 26.252C122.447 26.5761 122.421 26.8999 122.364 27.219H115.968C115.993 28.167 116.302 28.892 116.896 29.392C117.435 29.839 118.132 30.063 118.988 30.063C119.935 30.063 120.799 29.912 121.576 29.609L121.91 31.089C121.002 31.485 119.93 31.682 118.693 31.682C117.205 31.682 116.037 31.244 115.187 30.369C114.339 29.494 113.914 28.319 113.914 26.845C113.914 25.398 114.309 24.193 115.1 23.232C115.928 22.206 117.047 21.693 118.455 21.693C119.838 21.693 120.885 22.206 121.596 23.232C122.159 24.047 122.442 25.055 122.442 26.252ZM120.409 25.699C120.423 25.067 120.284 24.521 119.995 24.06C119.626 23.467 119.059 23.171 118.296 23.171C117.599 23.171 117.032 23.46 116.599 24.04C116.244 24.501 116.033 25.054 115.968 25.698L120.409 25.699Z" fill="white"/>
<path d="M49.3357 10.0087C49.3357 11.1857 48.9827 12.0717 48.2777 12.6667C47.6247 13.2157 46.6967 13.4907 45.4947 13.4907C44.8987 13.4907 44.3887 13.4647 43.9617 13.4127V6.98166C44.5187 6.89166 45.1187 6.84566 45.7667 6.84566C46.9117 6.84566 47.7747 7.09466 48.3567 7.59266C49.0087 8.15566 49.3357 8.96066 49.3357 10.0087ZM48.2307 10.0377C48.2307 9.27466 48.0287 8.68966 47.6247 8.28166C47.2207 7.87466 46.6307 7.67066 45.8537 7.67066C45.5237 7.67066 45.2427 7.69266 45.0097 7.73866V12.6277C45.1387 12.6477 45.3747 12.6567 45.7177 12.6567C46.5197 12.6567 47.1387 12.4337 47.5747 11.9877C48.0107 11.5417 48.2307 10.8917 48.2307 10.0377ZM55.1947 11.0367C55.1947 11.7617 54.9877 12.3557 54.5737 12.8217C54.1397 13.3007 53.5647 13.5397 52.8467 13.5397C52.1547 13.5397 51.6037 13.3107 51.1927 12.8507C50.7827 12.3917 50.5777 11.8127 50.5777 11.1147C50.5777 10.3847 50.7887 9.78566 51.2127 9.32066C51.6367 8.85566 52.2067 8.62266 52.9247 8.62266C53.6167 8.62266 54.1727 8.85166 54.5937 9.31066C54.9937 9.75666 55.1947 10.3327 55.1947 11.0367ZM54.1077 11.0707C54.1077 10.6357 54.0137 10.2627 53.8267 9.95166C53.6067 9.57566 53.2937 9.38766 52.8867 9.38766C52.4657 9.38766 52.1457 9.57566 51.9257 9.95166C51.7377 10.2627 51.6447 10.6417 51.6447 11.0897C51.6447 11.5247 51.7387 11.8977 51.9257 12.2087C52.1527 12.5847 52.4687 12.7727 52.8767 12.7727C53.2767 12.7727 53.5907 12.5817 53.8167 12.1987C54.0107 11.8817 54.1077 11.5057 54.1077 11.0707ZM63.0507 8.71866L61.5757 13.4327H60.6157L60.0047 11.3857C59.8525 10.8848 59.726 10.3765 59.6257 9.86266H59.6067C59.5163 10.3786 59.3897 10.8875 59.2277 11.3857L58.5787 13.4327H57.6077L56.2207 8.71866H57.2977L57.8307 10.9597C57.9597 11.4897 58.0657 11.9947 58.1507 12.4727H58.1697C58.2477 12.0787 58.3767 11.5767 58.5587 10.9697L59.2277 8.71966H60.0817L60.7227 10.9217C60.8777 11.4587 61.0037 11.9757 61.1007 12.4737H61.1297C61.2007 11.9887 61.3077 11.4717 61.4497 10.9217L62.0217 8.71966H63.0507V8.71866ZM68.4837 13.4327H67.4357V10.7327C67.4357 9.90066 67.1197 9.48466 66.4857 9.48466C66.3418 9.48044 66.1987 9.50914 66.0675 9.56858C65.9364 9.62803 65.8205 9.71664 65.7287 9.82766C65.5368 10.0527 65.4333 10.3399 65.4377 10.6357V13.4317H64.3897V10.0657C64.3897 9.65166 64.3767 9.20266 64.3517 8.71666H65.2727L65.3217 9.45366H65.3507C65.4727 9.22466 65.6547 9.03566 65.8937 8.88466C66.1777 8.70866 66.4957 8.61966 66.8437 8.61966C67.2837 8.61966 67.6497 8.76166 67.9407 9.04666C68.3027 9.39566 68.4837 9.91666 68.4837 10.6087V13.4327ZM71.3737 13.4327H70.3267V6.55566H71.3737V13.4327ZM77.5437 11.0367C77.5437 11.7617 77.3367 12.3557 76.9227 12.8217C76.4887 13.3007 75.9127 13.5397 75.1957 13.5397C74.5027 13.5397 73.9517 13.3107 73.5417 12.8507C73.1317 12.3917 72.9267 11.8127 72.9267 11.1147C72.9267 10.3847 73.1377 9.78566 73.5617 9.32066C73.9857 8.85566 74.5557 8.62266 75.2727 8.62266C75.9657 8.62266 76.5207 8.85166 76.9427 9.31066C77.3427 9.75666 77.5437 10.3327 77.5437 11.0367ZM76.4557 11.0707C76.4557 10.6357 76.3617 10.2627 76.1747 9.95166C75.9557 9.57566 75.6417 9.38766 75.2357 9.38766C74.8137 9.38766 74.4937 9.57566 74.2747 9.95166C74.0867 10.2627 73.9937 10.6417 73.9937 11.0897C73.9937 11.5247 74.0877 11.8977 74.2747 12.2087C74.5017 12.5847 74.8177 12.7727 75.2257 12.7727C75.6257 12.7727 75.9387 12.5817 76.1647 12.1987C76.3597 11.8817 76.4557 11.5057 76.4557 11.0707ZM82.6157 13.4327H81.6747L81.5967 12.8897H81.5677C81.2457 13.3227 80.7867 13.5397 80.1907 13.5397C79.7457 13.5397 79.3857 13.3967 79.1147 13.1127C78.993 12.9849 78.8977 12.8343 78.8344 12.6695C78.7711 12.5048 78.7409 12.3291 78.7457 12.1527C78.7457 11.5767 78.9857 11.1377 79.4687 10.8337C79.9507 10.5297 80.6287 10.3807 81.5017 10.3877V10.2997C81.5017 9.67866 81.1757 9.36866 80.5227 9.36866C80.0577 9.36866 79.6477 9.48566 79.2937 9.71766L79.0807 9.02966C79.5187 8.75866 80.0597 8.62266 80.6977 8.62266C81.9297 8.62266 82.5477 9.27266 82.5477 10.5727V12.3087C82.5477 12.7797 82.5707 13.1547 82.6157 13.4327ZM81.5277 11.8127V11.0857C80.3717 11.0657 79.7937 11.3827 79.7937 12.0357C79.7937 12.2817 79.8597 12.4657 79.9947 12.5887C80.1355 12.7134 80.3188 12.7793 80.5067 12.7727C80.7367 12.7727 80.9517 12.6997 81.1477 12.5547C81.2666 12.4712 81.3634 12.36 81.4296 12.2307C81.4958 12.1014 81.5295 11.9579 81.5277 11.8127ZM88.5707 13.4327H87.6407L87.5917 12.6757H87.5627C87.2657 13.2517 86.7597 13.5397 86.0487 13.5397C85.4807 13.5397 85.0077 13.3167 84.6327 12.8707C84.2577 12.4247 84.0707 11.8457 84.0707 11.1347C84.0707 10.3717 84.2737 9.75366 84.6817 9.28166C85.0767 8.84166 85.5607 8.62166 86.1367 8.62166C86.7697 8.62166 87.2127 8.83466 87.4647 9.26166H87.4847V6.55566H88.5337V12.1627C88.5337 12.6217 88.5457 13.0447 88.5707 13.4327ZM87.4847 11.4447V10.6587C87.4946 10.4774 87.4629 10.2962 87.3922 10.129C87.3215 9.9618 87.2136 9.81291 87.0767 9.69366C86.8834 9.52334 86.6333 9.43165 86.3757 9.43666C85.9847 9.43666 85.6787 9.59166 85.4537 9.90266C85.2307 10.2137 85.1177 10.6107 85.1177 11.0957C85.1177 11.5617 85.2247 11.9397 85.4397 12.2307C85.6667 12.5407 85.9727 12.6957 86.3557 12.6957C86.6997 12.6957 86.9747 12.5667 87.1837 12.3077C87.3857 12.0687 87.4847 11.7807 87.4847 11.4447ZM97.5337 11.0367C97.5337 11.7617 97.3267 12.3557 96.9127 12.8217C96.4787 13.3007 95.9047 13.5397 95.1857 13.5397C94.4947 13.5397 93.9437 13.3107 93.5317 12.8507C93.1217 12.3917 92.9167 11.8127 92.9167 11.1147C92.9167 10.3847 93.1277 9.78566 93.5517 9.32066C93.9757 8.85566 94.5457 8.62266 95.2647 8.62266C95.9557 8.62266 96.5127 8.85166 96.9327 9.31066C97.3327 9.75666 97.5337 10.3327 97.5337 11.0367ZM96.4477 11.0707C96.4477 10.6357 96.3537 10.2627 96.1667 9.95166C95.9457 9.57566 95.6337 9.38766 95.2257 9.38766C94.8057 9.38766 94.4857 9.57566 94.2647 9.95166C94.0767 10.2627 93.9837 10.6417 93.9837 11.0897C93.9837 11.5247 94.0777 11.8977 94.2647 12.2087C94.4917 12.5847 94.8077 12.7727 95.2157 12.7727C95.6157 12.7727 95.9307 12.5817 96.1567 12.1987C96.3497 11.8817 96.4477 11.5057 96.4477 11.0707ZM103.169 13.4327H102.122V10.7327C102.122 9.90066 101.806 9.48466 101.171 9.48466C100.86 9.48466 100.609 9.59866 100.415 9.82766C100.221 10.0567 100.124 10.3267 100.124 10.6357V13.4317H99.0747V10.0657C99.0747 9.65166 99.0627 9.20266 99.0377 8.71666H99.9577L100.007 9.45366H100.036C100.164 9.21992 100.351 9.02377 100.579 8.88466C100.864 8.70866 101.181 8.61966 101.53 8.61966C101.969 8.61966 102.335 8.76166 102.626 9.04666C102.989 9.39566 103.169 9.91666 103.169 10.6087V13.4327ZM110.222 9.50366H109.068V11.7937C109.068 12.3757 109.273 12.6667 109.679 12.6667C109.867 12.6667 110.023 12.6507 110.146 12.6177L110.173 13.4127C109.966 13.4907 109.694 13.5297 109.359 13.5297C108.945 13.5297 108.623 13.4037 108.39 13.1517C108.156 12.8997 108.04 12.4757 108.04 11.8807V9.50366H107.351V8.71866H108.04V7.85466L109.067 7.54466V8.71766H110.221L110.222 9.50366ZM115.77 13.4327H114.721V10.7527C114.721 9.90766 114.405 9.48466 113.772 9.48466C113.286 9.48466 112.954 9.72966 112.772 10.2197C112.737 10.3423 112.721 10.4693 112.723 10.5967V13.4317H111.676V6.55566H112.723V9.39666H112.743C113.073 8.87966 113.546 8.62166 114.159 8.62166C114.593 8.62166 114.952 8.76366 115.237 9.04866C115.592 9.40366 115.77 9.93166 115.77 10.6297V13.4327ZM121.493 10.8527C121.493 11.0407 121.479 11.1987 121.454 11.3277H118.311C118.325 11.7937 118.475 12.1487 118.766 12.3947C119.032 12.6147 119.375 12.7247 119.795 12.7247C120.26 12.7247 120.684 12.6507 121.066 12.5017L121.23 13.2297C120.783 13.4237 120.257 13.5207 119.648 13.5207C118.918 13.5207 118.343 13.3057 117.927 12.8757C117.509 12.4457 117.302 11.8687 117.302 11.1447C117.302 10.4337 117.495 9.84166 117.884 9.36966C118.29 8.86566 118.839 8.61366 119.532 8.61366C120.21 8.61366 120.725 8.86566 121.073 9.36966C121.354 9.76966 121.493 10.2647 121.493 10.8527ZM120.493 10.5817C120.507 10.299 120.437 10.0186 120.29 9.77666C120.108 9.48566 119.831 9.33966 119.456 9.33966C119.292 9.33688 119.131 9.37438 118.985 9.44885C118.84 9.52333 118.715 9.63248 118.622 9.76666C118.444 10.0039 118.336 10.2863 118.311 10.5817H120.493Z" fill="white"/>
</g>
<defs>
<clipPath id="clip0_719_4742">
<rect width="135" height="40" fill="white" transform="translate(0.285706)"/>
</clipPath>
</defs>
</svg>
