<svg width="24" height="24" viewBox="0 0 24 24" fill="none" xmlns="http://www.w3.org/2000/svg">
<path d="M17.7891 13.0391L14.7891 16.0391C14.6328 16.1797 14.4531 16.25 14.25 16.25C14.0469 16.25 13.8672 16.1797 13.7109 16.0391C13.5703 15.8828 13.5 15.7031 13.5 15.5C13.5 15.2969 13.5703 15.1172 13.7109 14.9609L15.4453 13.25H6.75C6.53125 13.25 6.35156 13.1797 6.21094 13.0391C6.07031 12.8828 6 12.6953 6 12.4766C6.04688 12.0234 6.29688 11.7812 6.75 11.75H15.4453L13.7109 10.0391C13.5703 9.88281 13.5 9.70312 13.5 9.5C13.5 9.29688 13.5703 9.11719 13.7109 8.96094C13.8672 8.82031 14.0469 8.75 14.25 8.75C14.4531 8.75 14.6328 8.82031 14.7891 8.96094L17.7891 11.9609C17.9297 12.1172 18 12.2969 18 12.5C18 12.7031 17.9297 12.8828 17.7891 13.0391Z" fill="white"/>
</svg>
