<svg width="14" height="17" viewBox="0 0 14 17" fill="none" xmlns="http://www.w3.org/2000/svg">
<path d="M13.3789 10.1914L7.47266 16.3789C7.29687 16.5547 7.08594 16.625 6.83984 16.625C6.62891 16.625 6.41797 16.5547 6.24219 16.3789L0.335937 10.1914C0.0195312 9.83984 0.0195312 9.3125 0.371094 8.99609C0.6875 8.67969 1.25 8.67969 1.56641 9.03125L5.99609 13.707V1.75391C5.99609 1.26172 6.38281 0.910156 6.83984 0.910156C7.33203 0.910156 7.68359 1.26172 7.68359 1.75391V13.707L12.1484 9.03125C12.4648 8.67969 13.0273 8.67969 13.3437 8.99609C13.6953 9.3125 13.6953 9.83984 13.3789 10.1914Z" fill="black"/>
</svg>
