<svg width="14" height="12" viewBox="0 0 14 12" fill="none" xmlns="http://www.w3.org/2000/svg">
<path d="M12.8242 7.01562L8.66797 11.3906C8.44922 11.6094 8.14844 11.7188 7.875 11.7188C7.60156 11.7188 7.32812 11.6367 7.10938 11.418C6.67188 11.0078 6.64453 10.3242 7.08203 9.88672L9.46094 7.34375H1.96875C1.33984 7.34375 0.875 6.87891 0.875 6.25C0.875 5.64844 1.33984 5.15625 1.96875 5.15625H9.46094L7.08203 2.64062C6.64453 2.20312 6.67188 1.51953 7.10938 1.08203C7.54688 0.671875 8.23047 0.699219 8.66797 1.13672L12.8242 5.51172C13.207 5.92188 13.207 6.60547 12.8242 7.01562Z" fill="#269137"/>
</svg>
