<svg width="16" height="16" viewBox="0 0 16 16" fill="none" xmlns="http://www.w3.org/2000/svg">
<path d="M9.08984 6.875H12.125C12.526 6.89323 12.7904 7.08464 12.918 7.44922C13.0638 7.8138 12.9909 8.13281 12.6992 8.40625L5.69922 14.5312C5.35286 14.8047 4.98828 14.8229 4.60547 14.5859C4.25911 14.2943 4.16797 13.9388 4.33203 13.5195L6.4375 8.625H3.34766C2.98307 8.60677 2.71875 8.41536 2.55469 8.05078C2.42708 7.6862 2.50911 7.36719 2.80078 7.09375L9.80078 0.96875C10.1471 0.695312 10.5117 0.677083 10.8945 0.914062C11.2409 1.20573 11.332 1.5612 11.168 1.98047L9.08984 6.875Z" fill="#121212"/>
</svg>
