<svg width="32" height="32" viewBox="0 0 32 32" fill="none" xmlns="http://www.w3.org/2000/svg">
<path d="M20.5938 4C21.0312 4.03125 21.3906 4.20312 21.6719 4.51562C21.9219 4.85937 21.9844 5.26562 21.8594 5.73438L19.375 14.5H23.3594C23.8281 14.5 24.2188 14.6562 24.5312 14.9688C24.8438 15.2812 25 15.6719 25 16.1406C25 16.6406 24.8125 17.0625 24.4375 17.4062L12.2969 27.6719C12.0469 27.8906 11.75 28 11.4062 28C10.9688 27.9688 10.6094 27.7969 10.3281 27.4844C10.0781 27.1406 10.0156 26.7344 10.1406 26.2656L12.625 17.5H8.59375C8.125 17.5 7.75 17.3438 7.46875 17.0312C7.15625 16.75 7 16.375 7 15.9062C7 15.4375 7.1875 15.0469 7.5625 14.7344L19.7031 4.32812C19.9531 4.10937 20.25 4 20.5938 4ZM18.9062 7.98438L10.375 15.25H14.125C14.5 15.25 14.7969 15.4062 15.0156 15.7188C15.2344 16 15.2969 16.3281 15.2031 16.7031L13.0938 24.0625L21.7188 16.75H17.875C17.5 16.75 17.2031 16.6094 16.9844 16.3281C16.7656 16.0156 16.7031 15.6719 16.7969 15.2969L18.9062 7.98438Z" fill="#121212"/>
</svg>
