<svg width="13" height="12" viewBox="0 0 13 12" fill="none" xmlns="http://www.w3.org/2000/svg">
<path d="M8 7.875V6.75H12.5V10.125C12.5 10.7344 11.9609 11.25 11.375 11.25H1.625C1.01562 11.25 0.5 10.7344 0.5 10.125V6.75H5V7.875C5 8.08594 5.16406 8.25 5.375 8.25H7.625C7.8125 8.25 8 8.08594 8 7.875ZM11.375 2.25C11.9609 2.25 12.5 2.78906 12.5 3.375V6H0.5V3.375C0.5 2.78906 1.01562 2.25 1.625 2.25H3.5V1.125C3.5 0.539062 4.01562 0 4.625 0H8.375C8.96094 0 9.5 0.539062 9.5 1.125V2.25H11.375ZM8.375 2.25V1.125H4.625V2.25H8.375Z" fill="#3BB24A"/>
</svg>
