<svg width="32" height="32" viewBox="0 0 32 32" fill="none" xmlns="http://www.w3.org/2000/svg">
<path d="M12.25 25.2812V23.4531H19.75V25.2812C19.7188 25.5938 19.6406 25.875 19.5156 26.125L18.6719 27.3438C18.3594 27.75 17.9531 27.9688 17.4531 28H14.5469C14.0469 27.9688 13.6406 27.75 13.3281 27.3438L12.4844 26.125C12.3281 25.875 12.25 25.5938 12.25 25.2812ZM16 4C18.3438 4.0625 20.2812 4.85937 21.8125 6.39062C23.375 7.95312 24.1875 9.89062 24.25 12.2031C24.2188 14.3594 23.5312 16.1719 22.1875 17.6406C21.7812 18.1094 21.3438 18.7344 20.875 19.5156C20.375 20.3281 20 21.125 19.75 21.9062C19.75 21.9375 19.75 21.9531 19.75 21.9531H12.25C12.25 21.9531 12.25 21.9375 12.25 21.9062C12 21.125 11.625 20.3281 11.125 19.5156C10.6562 18.7344 10.2188 18.1094 9.8125 17.6406C8.46875 16.1406 7.78125 14.3281 7.75 12.2031C7.78125 9.98438 8.5625 8.07812 10.0938 6.48438C11.5938 4.92188 13.5625 4.09375 16 4ZM20.5 16.1875C21.4688 15.0312 21.9688 13.7031 22 12.2031C21.9688 10.5156 21.375 9.10938 20.2188 7.98438C19.0938 6.85938 17.6719 6.28125 15.9531 6.25C14.0781 6.3125 12.625 6.9375 11.5938 8.125C10.5625 9.34375 10.0312 10.7031 10 12.2031C10.0312 13.7031 10.5312 15.0312 11.5 16.1875C11.875 16.625 12.2656 17.1562 12.6719 17.7812C13.0781 18.4062 13.4531 19.0625 13.7969 19.75H18.2031C18.5469 19.0625 18.9219 18.4062 19.3281 17.7812C19.7344 17.1562 20.125 16.625 20.5 16.1875ZM15.25 7.75C15.7188 7.78125 15.9688 8.03125 16 8.5C15.9688 8.96875 15.7188 9.21875 15.25 9.25C14.625 9.28125 14.0938 9.5 13.6562 9.90625C13.25 10.3438 13.0312 10.875 13 11.5C12.9688 11.9688 12.7188 12.2188 12.25 12.25C11.7812 12.2188 11.5312 11.9688 11.5 11.5C11.5312 10.4375 11.8906 9.54688 12.5781 8.82812C13.2969 8.14062 14.1875 7.78125 15.25 7.75Z" fill="#121212"/>
</svg>
