<svg width="20" height="20" viewBox="0 0 20 20" fill="none" xmlns="http://www.w3.org/2000/svg">
<path d="M12 12.5V11H18V15.5C17.9792 15.9167 17.8333 16.2708 17.5625 16.5625C17.2708 16.8333 16.9167 16.9792 16.5 17H3.5C3.08333 16.9792 2.72917 16.8333 2.4375 16.5625C2.16667 16.2708 2.02083 15.9167 2 15.5V11H8V12.5C8.02083 12.8125 8.1875 12.9792 8.5 13H11.5C11.8125 12.9792 11.9792 12.8125 12 12.5ZM16.5 5C16.9167 5.02083 17.2708 5.16667 17.5625 5.4375C17.8333 5.72917 17.9792 6.08333 18 6.5V10H2V6.5C2.02083 6.08333 2.16667 5.72917 2.4375 5.4375C2.72917 5.16667 3.08333 5.02083 3.5 5H6V3.5C6.02083 3.08333 6.16667 2.72917 6.4375 2.4375C6.72917 2.16667 7.08333 2.02083 7.5 2H12.5C12.9167 2.02083 13.2708 2.16667 13.5625 2.4375C13.8333 2.72917 13.9792 3.08333 14 3.5V5H16.5ZM12.5 5V3.5H7.5V5H12.5Z" fill="#3BB24A"/>
</svg>
