<svg width="24" height="24" viewBox="0 0 24 24" fill="none" xmlns="http://www.w3.org/2000/svg">
<path d="M12 22.5C10.125 22.474 8.44531 22.0182 6.96094 21.1328C5.45052 20.2474 4.2526 19.0495 3.36719 17.5391C2.48177 16.0547 2.02604 14.375 2 12.5C2.02604 10.625 2.48177 8.94531 3.36719 7.46094C4.2526 5.95052 5.45052 4.7526 6.96094 3.86719C8.44531 2.98177 10.125 2.52604 12 2.5C13.875 2.52604 15.5547 2.98177 17.0391 3.86719C18.5495 4.7526 19.7474 5.95052 20.6328 7.46094C21.5182 8.94531 21.974 10.625 22 12.5C21.974 14.375 21.5182 16.0547 20.6328 17.5391C19.7474 19.0495 18.5495 20.2474 17.0391 21.1328C15.5547 22.0182 13.875 22.474 12 22.5ZM11.0625 12.5C11.0625 12.8385 11.2057 13.0859 11.4922 13.2422L15.2422 15.7422C15.737 16.0547 16.1536 15.9766 16.4922 15.5078C16.8047 15.013 16.7266 14.5833 16.2578 14.2188L12.9375 11.9922V7.1875C12.8854 6.61458 12.5599 6.30208 11.9609 6.25C11.7005 6.25 11.4792 6.34115 11.2969 6.52344C11.1146 6.70573 11.0234 6.92708 11.0234 7.1875L11.0625 12.5Z" fill="#3BB24A"/>
</svg>
