<svg width="24" height="24" viewBox="0 0 24 24" fill="none" xmlns="http://www.w3.org/2000/svg">
<path d="M18.5625 13.7109L21.6875 16.8359C22.0521 17.2786 22.0521 17.7214 21.6875 18.1641L18.6016 21.2891C18.263 21.5755 17.9245 21.6406 17.5859 21.4844C17.2214 21.3281 17.026 21.0417 17 20.625V18.75H14.5C14.0833 18.75 13.7448 18.5807 13.4844 18.2422L6.375 8.75H3.25C2.88542 8.75 2.58594 8.63281 2.35156 8.39844C2.11719 8.16406 2 7.86458 2 7.5C2 7.13542 2.11719 6.83594 2.35156 6.60156C2.58594 6.36719 2.88542 6.25 3.25 6.25H7C7.41667 6.25 7.75521 6.41927 8.01562 6.75781L15.125 16.25H17V14.375C17.026 13.9323 17.2083 13.6458 17.5469 13.5156C17.9115 13.3594 18.25 13.4245 18.5625 13.7109ZM15.125 8.75L13.4453 10.9375L11.9219 8.86719L13.4844 6.75781C13.7448 6.41927 14.0833 6.25 14.5 6.25H16.9609V4.375C16.987 3.95833 17.1823 3.67188 17.5469 3.51562C17.9115 3.35938 18.25 3.42448 18.5625 3.71094L21.6484 6.83594C22.013 7.27865 22.013 7.72135 21.6484 8.16406L18.5625 11.2891C18.25 11.5755 17.9245 11.6406 17.5859 11.4844C17.2214 11.3542 17.026 11.0677 17 10.625V8.75H15.125ZM6.375 16.25L8.01562 14.0625L9.57812 16.1328L8.01562 18.2422C7.75521 18.5807 7.41667 18.75 7 18.75H3.25C2.88542 18.75 2.58594 18.6328 2.35156 18.3984C2.11719 18.1641 2 17.8646 2 17.5C2 17.1354 2.11719 16.8359 2.35156 16.6016C2.58594 16.3672 2.88542 16.25 3.25 16.25H6.375Z" fill="#3BB24A"/>
</svg>
