<svg width="20" height="20" viewBox="0 0 20 20" fill="none" xmlns="http://www.w3.org/2000/svg">
<path d="M4.5 3H9.1875C9.72917 3 10.1979 3.19792 10.5938 3.59375L16.0938 9.09375C16.4688 9.48958 16.6562 9.95833 16.6562 10.5C16.6562 11.0417 16.4688 11.5104 16.0938 11.9062L11.9062 16.0938C11.5104 16.4688 11.0417 16.6562 10.5 16.6562C9.95833 16.6562 9.48958 16.4688 9.09375 16.0938L3.59375 10.5938C3.19792 10.1979 3 9.72917 3 9.1875V4.5C3.02083 4.08333 3.16667 3.72917 3.4375 3.4375C3.72917 3.16667 4.08333 3.02083 4.5 3ZM6.5 7.5C6.79167 7.5 7.03125 7.40625 7.21875 7.21875C7.40625 7.03125 7.5 6.79167 7.5 6.5C7.5 6.20833 7.40625 5.96875 7.21875 5.78125C7.03125 5.59375 6.79167 5.5 6.5 5.5C6.20833 5.5 5.96875 5.59375 5.78125 5.78125C5.59375 5.96875 5.5 6.20833 5.5 6.5C5.5 6.79167 5.59375 7.03125 5.78125 7.21875C5.96875 7.40625 6.20833 7.5 6.5 7.5Z" fill="#3BB24A"/>
</svg>
