<svg width="24" height="24" viewBox="0 0 24 24" fill="none" xmlns="http://www.w3.org/2000/svg">
<path d="M19.9688 5.27344C20.3854 4.96094 20.8151 4.90885 21.2578 5.11719C21.7266 5.32552 21.974 5.70312 22 6.25V18.7109C21.974 19.2839 21.7266 19.6745 21.2578 19.8828C20.8151 20.0911 20.3854 20.0391 19.9688 19.7266L13.25 14.1406V10.8594L19.9688 5.27344ZM9.96875 5.27344C10.3854 4.96094 10.8151 4.90885 11.2578 5.11719C11.7005 5.32552 11.9479 5.6901 12 6.21094V18.7109C11.974 19.2578 11.7266 19.6354 11.2578 19.8438C10.8151 20.0521 10.3724 20 9.92969 19.6875L2.42969 13.4766C2.14323 13.1901 2 12.8646 2 12.5C2 12.1354 2.14323 11.8099 2.42969 11.5234L9.96875 5.27344Z" fill="#3BB24A"/>
</svg>
