<svg width="22" height="20" viewBox="0 0 22 20" fill="none" xmlns="http://www.w3.org/2000/svg">
<path d="M9.75 9.6875H8.9375C8.96875 9.53125 9.03125 9.25 9.375 9.25C9.5625 9.25 9.75 9.375 9.75 9.6875ZM14.0312 9.25C14.0625 9.25 14.4688 9.1875 14.4688 9.875C14.4688 10.0938 14.4375 10.5 14.0312 10.5C14.0312 10.5 13.5938 10.5625 13.5938 9.875C13.5938 9.1875 14.0312 9.25 14.0312 9.25ZM6.4375 10C6.5625 9.875 6.90625 9.90625 7.09375 9.9375V10.4688C6.90625 10.5 6.59375 10.5625 6.4375 10.4375C6.40625 10.4062 6.34375 10.375 6.34375 10.2188C6.34375 10.125 6.375 10.0625 6.4375 10ZM22 9.25C22 12 19.5 14.0938 16.8125 13.5312C16.25 14.5625 14.5938 15.75 12.6875 14.8438C11.4062 17.8438 7.125 17.7188 6 14.6562C2.25 15.4062 0.40625 10.3438 3.65625 8.4375C2.5625 5.96875 4.375 3 7.21875 3C8.46875 3.03125 9.59375 3.625 10.3125 4.53125C10.9375 3.875 11.8438 3.4375 12.8438 3.4375C14.1562 3.4375 15.3125 4.1875 15.9375 5.28125C18.8438 4 22 6.15625 22 9.25ZM5.75 10.25C5.75 9.90625 5.375 9.78125 5.1875 9.71875C5.03125 9.65625 4.78125 9.625 4.78125 9.4375C4.78125 9.15625 5.3125 9.25 5.5625 9.375C5.5625 9.375 5.59375 9.40625 5.59375 9.375C5.625 9.34375 5.6875 9.15625 5.6875 9.125C5.6875 9.09375 5.6875 9.09375 5.65625 9.09375C5.28125 8.84375 4.40625 8.8125 4.40625 9.5C4.40625 9.875 4.75 9.96875 4.96875 10.0312C5.09375 10.0625 5.375 10.125 5.375 10.2812C5.375 10.4062 5.25 10.5312 5.09375 10.5312C4.84375 10.5312 4.65625 10.4375 4.5 10.3125C4.46875 10.3125 4.4375 10.2812 4.4375 10.3438L4.375 10.5625C4.34375 10.5938 4.375 10.625 4.375 10.625C4.40625 10.6562 4.6875 10.8125 5.09375 10.8125C5.5 10.8125 5.75 10.5938 5.75 10.25ZM6.75 8.9375C6.4375 8.9375 6.15625 9.03125 6.09375 9.09375C6.0625 9.09375 6.0625 9.09375 6.0625 9.125L6.15625 9.34375C6.15625 9.375 6.15625 9.375 6.1875 9.375C6.21875 9.375 6.40625 9.25 6.71875 9.25C6.84375 9.25 6.9375 9.28125 7 9.3125C7.125 9.40625 7.09375 9.59375 7.09375 9.65625C6.9375 9.65625 6.5 9.5625 6.1875 9.78125C6.03125 9.875 5.9375 10.0312 5.9375 10.2188C5.9375 10.2188 5.9375 10.2188 5.96875 10.2188C5.96875 10.4062 6 10.5625 6.15625 10.6875C6.53125 10.9375 7.28125 10.75 7.34375 10.7188C7.40625 10.7188 7.46875 10.6875 7.46875 10.6562V9.59375C7.46875 9.46875 7.46875 8.9375 6.75 8.9375ZM8.21875 8.28125C8.21875 8.25 8.1875 8.25 8.15625 8.25H7.875C7.84375 8.25 7.84375 8.25 7.84375 8.25C7.84375 8.25 7.8125 8.25 7.8125 8.28125V10.75L7.84375 10.7812C7.84375 10.7812 7.84375 10.7812 7.875 10.7812H8.15625C8.1875 10.7812 8.21875 10.75 8.21875 10.75V8.28125ZM9.9375 9.1875C9.875 9.09375 9.71875 8.9375 9.40625 8.9375C9.28125 8.9375 8.9375 8.9375 8.75 9.21875C8.5625 9.46875 8.53125 9.78125 8.53125 9.875C8.53125 10 8.53125 10.3438 8.75 10.5625C8.84375 10.6562 9.03125 10.8125 9.46875 10.8125C9.8125 10.8125 10 10.75 10.0625 10.6875C10.0625 10.6875 10.0625 10.6562 10.0625 10.625L10 10.4062C9.96875 10.4062 9.96875 10.4062 9.96875 10.4062C9.9375 10.4062 9.9375 10.4062 9.9375 10.4062C9.875 10.4375 9.75 10.5 9.46875 10.5C8.9375 10.5 8.9375 10.0312 8.9375 9.96875H10.0938C10.125 9.96875 10.125 9.9375 10.125 9.9375C10.125 9.9375 10.1875 9.46875 9.9375 9.1875ZM11.0938 10.8125C11.5 10.8125 11.75 10.5938 11.75 10.25C11.75 9.875 11.4062 9.78125 11.1875 9.71875C11.0625 9.65625 10.7812 9.625 10.7812 9.4375C10.7812 9.3125 10.875 9.25 11.0625 9.25C11.25 9.25 11.4062 9.28125 11.5625 9.375C11.7188 9.46875 11.5938 9.40625 11.625 9.375C11.625 9.34375 11.6875 9.15625 11.6875 9.125H11.7188C11.7188 9.09375 11.6875 9.09375 11.6875 9.09375C11.4375 8.9375 11.1562 8.9375 11.0625 8.9375C10.6875 8.9375 10.4062 9.15625 10.4062 9.5C10.4062 9.875 10.7812 9.96875 10.9688 10.0312C11.1562 10.0938 11.375 10.125 11.375 10.2812C11.375 10.4062 11.2812 10.5 11.0938 10.5C10.875 10.5 10.6562 10.4375 10.5 10.3125C10.5 10.3125 10.5 10.3125 10.4688 10.3125C10.4688 10.3125 10.4375 10.3125 10.4375 10.3438L10.375 10.5625C10.3438 10.5938 10.375 10.625 10.375 10.625C10.4375 10.6562 10.7188 10.8125 11.0938 10.8125ZM13.1562 9C13.1562 9 13.125 8.96875 13.0938 8.96875H12.75C12.75 8.96875 12.7812 8.6875 12.875 8.59375C13 8.46875 13.25 8.53125 13.25 8.53125C13.2812 8.5625 13.3125 8.53125 13.3125 8.53125L13.4062 8.28125C13.4062 8.25 13.4062 8.25 13.375 8.25C13.2188 8.1875 12.8438 8.15625 12.625 8.375C12.4375 8.53125 12.4062 8.8125 12.375 8.96875H12.0938L12.0625 9L12.0312 9.25C12.0312 9.28125 12.0312 9.28125 12.0625 9.28125H12.3125C12.0625 10.7812 12.0312 10.875 12 11.0312C11.9688 11.1562 11.9062 11.25 11.8125 11.2812C11.8125 11.2812 11.6875 11.3125 11.5 11.25C11.5 11.25 11.4688 11.25 11.4688 11.2812C11.4688 11.3125 11.375 11.5 11.375 11.5312C11.375 11.5312 11.375 11.5625 11.4062 11.5625C11.5625 11.625 11.8125 11.625 11.9375 11.5625C12.1562 11.5 12.25 11.3125 12.3125 11.1562C12.4062 10.9062 12.4062 10.8438 12.6875 9.28125H13.0625C13.0938 9.28125 13.0938 9.28125 13.0938 9.25L13.1562 9ZM14.8125 9.5C14.7812 9.46875 14.6562 8.9375 14.0312 8.9375C13.5625 8.9375 13.3125 9.25 13.25 9.5C13.2188 9.59375 13.125 9.9375 13.25 10.25C13.25 10.25 13.375 10.8125 14.0312 10.8125C14.5 10.8125 14.75 10.5312 14.8125 10.25C14.9062 9.9375 14.8438 9.59375 14.8125 9.5ZM16.2188 9C16.0625 8.9375 15.7188 8.9375 15.5312 9.15625V9.03125C15.5312 9 15.5312 9 15.5 9H15.2188C15.1875 9 15.1875 9 15.1875 9.03125V10.75C15.1875 10.7812 15.1875 10.7812 15.2188 10.7812H15.5C15.5312 10.7812 15.5625 10.7812 15.5625 10.75V9.875C15.5625 9.78125 15.5625 9.53125 15.6875 9.40625C15.8438 9.25 16.0625 9.3125 16.0938 9.3125C16.125 9.3125 16.1562 9.3125 16.1562 9.28125C16.1875 9.21875 16.2188 9.125 16.25 9.03125C16.25 9 16.25 9 16.2188 9ZM17.6875 10.6875L17.625 10.4688C17.625 10.4062 17.5938 10.4375 17.5938 10.4375C17.4375 10.5 17.2812 10.5 17.2188 10.5C17.0938 10.5 16.6875 10.4688 16.6875 9.875C16.6875 9.6875 16.75 9.25 17.2188 9.25C17.2188 9.25 17.2188 9.25 17.25 9.25C17.3438 9.25 17.4688 9.28125 17.5625 9.3125C17.6875 9.34375 17.5938 9.3125 17.5938 9.28125C17.625 9.21875 17.6562 9.15625 17.6875 9.0625C17.6875 9.03125 17.6562 9.03125 17.6562 9.03125C17.3125 8.90625 16.9688 8.9375 16.7812 9.03125C16.75 9.03125 16.2812 9.21875 16.2812 9.875C16.2812 9.96875 16.2812 10.8125 17.1875 10.8125C17.375 10.8125 17.5312 10.7812 17.6875 10.7188C17.6875 10.7188 17.6875 10.7188 17.6875 10.6875ZM19.375 9.4375C19.3438 9.34375 19.2188 8.9375 18.6875 8.9375C18.1875 8.9375 17.9375 9.25 17.875 9.53125C17.8438 9.625 17.8125 9.75 17.8125 9.875C17.8125 10.6875 18.4062 10.8125 18.75 10.8125C19.0938 10.8125 19.2812 10.75 19.3438 10.6875C19.3438 10.6875 19.375 10.6562 19.3438 10.625L19.2812 10.4062H19.25H19.2188C19.1562 10.4375 19.0312 10.5 18.75 10.5C18.2188 10.5 18.2188 10.0312 18.2188 9.96875H19.375C19.4062 9.96875 19.4062 9.9375 19.4062 9.9375C19.4062 9.9375 19.4375 9.71875 19.375 9.4375ZM18.6562 9.25C18.8125 9.25 19.0312 9.3125 19.0625 9.6875H18.2188C18.25 9.53125 18.3125 9.25 18.6562 9.25Z" fill="#3BB24A"/>
</svg>
