<svg width="40" height="41" viewBox="0 0 40 41" fill="none" xmlns="http://www.w3.org/2000/svg">
<path d="M13.75 16.75L11.4375 16.5C10.7292 19.1667 10.7292 21.8333 11.4375 24.5L13.75 24.3125C14.9167 24.2292 15.75 24.7292 16.25 25.8125L18.1875 30.75C18.6042 31.9583 18.2917 32.9375 17.25 33.6875L13.3125 36.125C12.8958 36.375 12.4583 36.5 12 36.5C11.375 36.5 10.8125 36.25 10.3125 35.75C8.27083 33.6667 6.70833 31.3333 5.625 28.75C4.54167 26.125 4 23.3542 4 20.4375C4 17.5625 4.54167 14.8125 5.625 12.1875C6.70833 9.60417 8.27083 7.27083 10.3125 5.1875C11.2292 4.39583 12.2292 4.29167 13.3125 4.875L17.25 7.3125C18.2917 8.0625 18.625 9.04167 18.25 10.25L16.25 15.25C15.75 16.2917 14.9167 16.7917 13.75 16.75ZM9.8125 25.9375C8.60417 22.3125 8.60417 18.7083 9.8125 15.125C9.97917 14.625 10.3333 14.3958 10.875 14.4375L14 14.75C14.1667 14.75 14.2917 14.6667 14.375 14.5L16.3125 9.5C16.3542 9.29167 16.2917 9.125 16.125 9L12.1875 6.5C12.1042 6.45833 12.0208 6.4375 11.9375 6.4375C11.8542 6.4375 11.7708 6.47917 11.6875 6.5625C9.8125 8.4375 8.39583 10.5625 7.4375 12.9375C6.4375 15.3125 5.9375 17.8125 5.9375 20.4375C5.9375 23.1042 6.4375 25.625 7.4375 28C8.4375 30.375 9.875 32.5 11.75 34.375C11.9167 34.5 12.0833 34.5208 12.25 34.4375L16.1875 31.9375C16.3542 31.8125 16.4167 31.6458 16.375 31.4375L14.375 26.5C14.2917 26.3333 14.1667 26.25 14 26.25L10.875 26.5625C10.375 26.6042 10.0208 26.3958 9.8125 25.9375ZM29.125 6.6875C31.3333 8.35417 33.0208 10.375 34.1875 12.75C35.3958 15.125 36 17.6875 36 20.4375C36 23.2292 35.3958 25.8125 34.1875 28.1875C33.0208 30.6042 31.3333 32.6458 29.125 34.3125C28.9167 34.4375 28.7083 34.5 28.5 34.5C28.1667 34.5 27.8958 34.375 27.6875 34.125C27.3958 33.5833 27.4583 33.1042 27.875 32.6875C29.8333 31.2292 31.3333 29.4375 32.375 27.3125C33.4583 25.2292 34 22.9583 34 20.5C34 18.0417 33.4583 15.7708 32.375 13.6875C31.3333 11.5625 29.8333 9.77083 27.875 8.3125C27.4583 7.89583 27.3958 7.41667 27.6875 6.875C28.1042 6.45833 28.5833 6.39583 29.125 6.6875ZM24.8125 10.6875C26.4375 11.8125 27.7083 13.2292 28.625 14.9375C29.5417 16.6458 30 18.4792 30 20.4375C30 22.4375 29.5417 24.3125 28.625 26.0625C27.7083 27.7708 26.4375 29.1875 24.8125 30.3125C24.6458 30.4375 24.4583 30.5 24.25 30.5C23.9167 30.5 23.6458 30.3542 23.4375 30.0625C23.1458 29.5208 23.2292 29.0625 23.6875 28.6875C25.0625 27.7292 26.125 26.5417 26.875 25.125C27.625 23.7083 28 22.1667 28 20.5C28 18.8333 27.625 17.2917 26.875 15.875C26.125 14.4583 25.0625 13.2708 23.6875 12.3125C23.2292 11.9375 23.1458 11.4792 23.4375 10.9375C23.8125 10.4792 24.2708 10.3958 24.8125 10.6875ZM21 15.625C22.9167 16.6667 23.9167 18.2917 24 20.5C24 21.5417 23.7292 22.5 23.1875 23.375C22.6458 24.25 21.9167 24.9167 21 25.375C20.875 25.4583 20.7292 25.5 20.5625 25.5C20.1458 25.5 19.8542 25.3125 19.6875 24.9375C19.4375 24.3958 19.5833 23.9583 20.125 23.625C21.3333 22.9583 21.9583 21.9167 22 20.5C21.9583 19.125 21.3333 18.0833 20.125 17.375C19.5833 17.0417 19.4375 16.6042 19.6875 16.0625C19.9792 15.5208 20.4167 15.375 21 15.625Z" fill="#FFAB91"/>
</svg>
