<svg width="24" height="24" viewBox="0 0 24 24" fill="none" xmlns="http://www.w3.org/2000/svg">
<path d="M18.0547 9.375C18.2891 9.79167 18.3021 10.2083 18.0938 10.625C17.8333 11.0156 17.4688 11.2109 17 11.2109H9.5C9.03125 11.2109 8.66667 11.0156 8.40625 10.625C8.19792 10.1823 8.21094 9.76562 8.44531 9.375L12.1953 3.125C12.4297 2.73438 12.7812 2.52604 13.25 2.5C13.7188 2.52604 14.0703 2.73438 14.3047 3.125L18.0547 9.375ZM13.25 14.6875C13.25 14.2448 13.4062 13.8802 13.7188 13.5938C14.0052 13.2812 14.3698 13.125 14.8125 13.125H20.4375C20.8802 13.125 21.2448 13.2812 21.5312 13.5938C21.8438 13.8802 22 14.2448 22 14.6875V20.3125C22 20.7552 21.8438 21.1198 21.5312 21.4062C21.2448 21.7188 20.8802 21.875 20.4375 21.875H14.8125C14.3698 21.875 14.0052 21.7188 13.7188 21.4062C13.4062 21.1198 13.25 20.7552 13.25 20.3125V14.6875ZM2 17.5C2.02604 16.0938 2.50781 14.9089 3.44531 13.9453C4.40885 13.0078 5.59375 12.526 7 12.5C8.40625 12.526 9.59115 13.0078 10.5547 13.9453C11.4922 14.9089 11.974 16.0938 12 17.5C11.974 18.9062 11.4922 20.0911 10.5547 21.0547C9.59115 21.9922 8.40625 22.474 7 22.5C5.59375 22.474 4.40885 21.9922 3.44531 21.0547C2.50781 20.0911 2.02604 18.9062 2 17.5Z" fill="#3BB24A"/>
</svg>
