<svg width="20" height="20" viewBox="0 0 20 20" fill="none" xmlns="http://www.w3.org/2000/svg">
<path d="M14.5 4C14.9167 4.02083 15.2708 4.16667 15.5625 4.4375C15.8333 4.72917 15.9792 5.08333 16 5.5V16.5C15.9792 16.9167 15.8333 17.2708 15.5625 17.5625C15.2708 17.8333 14.9167 17.9792 14.5 18H5.5C5.08333 17.9792 4.72917 17.8333 4.4375 17.5625C4.16667 17.2708 4.02083 16.9167 4 16.5V5.5C4.02083 5.08333 4.16667 4.72917 4.4375 4.4375C4.72917 4.16667 5.08333 4.02083 5.5 4H7.1875C7.39583 3.41667 7.75 2.9375 8.25 2.5625C8.75 2.20833 9.33333 2.02083 10 2C10.6667 2.02083 11.25 2.20833 11.75 2.5625C12.25 2.9375 12.6042 3.41667 12.8125 4H14.5ZM10 4C9.70833 4 9.46875 4.09375 9.28125 4.28125C9.09375 4.46875 9 4.70833 9 5C9 5.29167 9.09375 5.53125 9.28125 5.71875C9.46875 5.90625 9.70833 6 10 6C10.2917 6 10.5312 5.90625 10.7188 5.71875C10.9062 5.53125 11 5.29167 11 5C11 4.70833 10.9062 4.46875 10.7188 4.28125C10.5312 4.09375 10.2917 4 10 4ZM12.5 9C12.8125 8.97917 12.9792 8.8125 13 8.5C12.9792 8.1875 12.8125 8.02083 12.5 8H7.5C7.1875 8.02083 7.02083 8.1875 7 8.5C7.02083 8.8125 7.1875 8.97917 7.5 9H12.5Z" fill="#3BB24A"/>
</svg>
