<svg width="20" height="20" viewBox="0 0 20 20" fill="none" xmlns="http://www.w3.org/2000/svg">
<path d="M10.3438 8.625L5.25 5.03125C5 5.1875 4.71875 5.28125 4.40625 5.28125C3.5 5.28125 2.78125 4.5625 2.78125 3.65625C2.78125 2.75 3.5 2 4.40625 2C5.3125 2 6.03125 2.75 6.03125 3.65625C6.03125 3.78125 6.03125 3.9375 5.96875 4.0625C7.59375 5.3125 10.4062 7.3125 11.25 7.96875C11.6562 7.75 12.125 7.625 12.5938 7.5625V5.625C12.0312 5.40625 11.7188 4.90625 11.7188 4.3125C11.7188 3.46875 12.3438 2.8125 13.1562 2.8125C14 2.8125 14.625 3.46875 14.625 4.3125C14.625 4.90625 14.3125 5.40625 13.75 5.625V7.5625C15.7188 7.875 17.1875 9.5625 17.1875 11.5938C17.1875 13.8438 15.375 15.6562 13.125 15.6562C12.2188 15.6562 11.3438 15.3438 10.6562 14.8125L9.09375 16.375C9.125 16.5 9.15625 16.625 9.15625 16.75C9.15625 17.0938 9.03125 17.4062 8.78125 17.6562C8.5625 17.9062 8.21875 18 7.90625 18C7.5625 18 7.25 17.875 7 17.6562C6.78125 17.4062 6.625 17.0938 6.625 16.75C6.625 16.4375 6.78125 16.0938 7 15.875C7.25 15.625 7.5625 15.5 7.90625 15.5C8.0625 15.5 8.1875 15.5312 8.34375 15.5625L9.875 14.0312C9.375 13.3438 9.0625 12.5 9.0625 11.5938C9.0625 10.4062 9.5625 9.375 10.3438 8.625ZM13.125 13.75C14.3438 13.75 15.2812 12.7812 15.2812 11.5938C15.2812 10.4062 14.3438 9.4375 13.125 9.4375C11.9375 9.4375 10.9688 10.4062 10.9688 11.5938C10.9688 12.7812 11.9375 13.75 13.125 13.75Z" fill="#3BB24A"/>
</svg>
