<svg width="24" height="24" viewBox="0 0 24 24" fill="none" xmlns="http://www.w3.org/2000/svg">
<path d="M21.75 2.5C22.1146 2.5 22.4141 2.61719 22.6484 2.85156C22.8828 3.08594 23 3.3724 23 3.71094V21.2891C23 21.6276 22.8828 21.9141 22.6484 22.1484C22.4141 22.3828 22.1146 22.5 21.75 22.5C21.3854 22.5 21.0859 22.3828 20.8516 22.1484C20.6172 21.9141 20.5 21.6146 20.5 21.25V3.71094C20.5 3.3724 20.6172 3.08594 20.8516 2.85156C21.0859 2.61719 21.3854 2.5 21.75 2.5ZM6.75 13.75C7.11458 13.75 7.41406 13.8672 7.64844 14.1016C7.88281 14.3359 8 14.6224 8 14.9609V21.2891C8 21.6276 7.88281 21.9141 7.64844 22.1484C7.41406 22.3828 7.11458 22.5 6.75 22.5C6.38542 22.5 6.08594 22.3828 5.85156 22.1484C5.61719 21.888 5.5 21.5755 5.5 21.2109V14.9609C5.5 14.6224 5.61719 14.3359 5.85156 14.1016C6.08594 13.8672 6.38542 13.75 6.75 13.75ZM1.75 17.5C2.11458 17.5 2.41406 17.6172 2.64844 17.8516C2.88281 18.0859 3 18.3724 3 18.7109V21.25C3 21.6146 2.86979 21.9141 2.60938 22.1484C2.34896 22.3828 2.04948 22.5 1.71094 22.5C1.3724 22.5 1.08594 22.3828 0.851562 22.1484C0.617188 21.888 0.5 21.5755 0.5 21.2109V18.7109C0.5 18.3724 0.617188 18.0859 0.851562 17.8516C1.08594 17.6172 1.38542 17.5 1.75 17.5ZM16.75 6.25C17.1146 6.25 17.4141 6.36719 17.6484 6.60156C17.8828 6.83594 18 7.1224 18 7.46094V21.2891C18 21.6276 17.8828 21.9141 17.6484 22.1484C17.4141 22.3828 17.1146 22.5 16.75 22.5C16.3854 22.5 16.0859 22.3828 15.8516 22.1484C15.6172 21.9141 15.5 21.6146 15.5 21.25V7.46094C15.5 7.1224 15.6172 6.83594 15.8516 6.60156C16.0859 6.36719 16.3854 6.25 16.75 6.25ZM11.75 10C12.1146 10 12.4141 10.1172 12.6484 10.3516C12.8828 10.5859 13 10.8724 13 11.2109V21.2891C13 21.6276 12.8828 21.9141 12.6484 22.1484C12.4141 22.3828 12.1146 22.5 11.75 22.5C11.3854 22.5 11.0859 22.3828 10.8516 22.1484C10.6172 21.888 10.5 21.5755 10.5 21.2109V11.2109C10.5 10.8724 10.6172 10.5859 10.8516 10.3516C11.0859 10.1172 11.3854 10 11.75 10Z" fill="#3BB24A"/>
</svg>
