<svg width="20" height="20" viewBox="0 0 20 20" fill="none" xmlns="http://www.w3.org/2000/svg">
<path d="M19.7188 11.2812C19.9062 11.4896 20 11.7292 20 12C20 12.2708 19.9062 12.5104 19.7188 12.7188L16.7188 15.7188C16.5104 15.9062 16.2708 16 16 16C15.7292 16 15.4896 15.9062 15.2812 15.7188L12.2812 12.7188C12.0938 12.5104 12 12.2708 12 12C12 11.7292 12.0938 11.4896 12.2812 11.2812C12.4896 11.0938 12.7292 11 13 11C13.2708 11 13.5104 11.0938 13.7188 11.2812L15 12.5938V7.5C14.9792 7.1875 14.8125 7.02083 14.5 7H10.5C10.2083 7 9.96875 6.90625 9.78125 6.71875C9.59375 6.53125 9.5 6.29167 9.5 6C9.5 5.70833 9.59375 5.46875 9.78125 5.28125C9.96875 5.09375 10.2083 5 10.5 5H14.5C15.2083 5.02083 15.8021 5.26042 16.2812 5.71875C16.7396 6.19792 16.9792 6.79167 17 7.5V12.5938L18.2812 11.2812C18.4896 11.0938 18.7292 11 19 11C19.2708 11 19.5104 11.0938 19.7188 11.2812ZM9.5 13C9.79167 13 10.0312 13.0938 10.2188 13.2812C10.4062 13.4688 10.5 13.7083 10.5 14C10.5 14.2917 10.4062 14.5312 10.2188 14.7188C10.0312 14.9062 9.79167 15 9.5 15H5.5C4.79167 14.9792 4.19792 14.7396 3.71875 14.2812C3.26042 13.8021 3.02083 13.2083 3 12.5V7.40625L1.71875 8.71875C1.51042 8.90625 1.27083 9 1 9C0.729167 9 0.489583 8.90625 0.28125 8.71875C0.09375 8.51042 0 8.27083 0 8C0 7.72917 0.09375 7.48958 0.28125 7.28125L3.28125 4.28125C3.48958 4.09375 3.72917 4 4 4C4.27083 4 4.51042 4.09375 4.71875 4.28125L7.71875 7.28125C7.90625 7.48958 8 7.72917 8 8C8 8.27083 7.90625 8.51042 7.71875 8.71875C7.51042 8.90625 7.27083 9 7 9C6.72917 9 6.48958 8.90625 6.28125 8.71875L5 7.40625V12.5C5.02083 12.8125 5.1875 12.9792 5.5 13H9.5Z" fill="#3BB24A"/>
</svg>
