<svg width="20" height="20" viewBox="0 0 20 20" fill="none" xmlns="http://www.w3.org/2000/svg">
<path d="M17 7.625C17.2917 7.77083 17.5312 8.01042 17.7188 8.34375C17.9062 8.67708 18 9.0625 18 9.5C18 9.9375 17.9062 10.3229 17.7188 10.6562C17.5312 10.9896 17.2917 11.2292 17 11.375V16C16.9792 16.4375 16.7708 16.75 16.375 16.9375C15.9792 17.0833 15.6146 17.0104 15.2812 16.7188L13.9375 15.3125C13.1667 14.5625 12.3021 13.9896 11.3438 13.5938C10.3646 13.1979 9.34375 13 8.28125 13H8V17C8 17.2917 7.90625 17.5312 7.71875 17.7188C7.53125 17.9062 7.29167 18 7 18H5C4.70833 18 4.46875 17.9062 4.28125 17.7188C4.09375 17.5312 4 17.2917 4 17V13C3.4375 12.9792 2.96875 12.7812 2.59375 12.4062C2.21875 12.0312 2.02083 11.5625 2 11V8C2.02083 7.4375 2.21875 6.96875 2.59375 6.59375C2.96875 6.21875 3.4375 6.02083 4 6H8.28125C9.34375 6 10.3646 5.80208 11.3438 5.40625C12.3021 4.98958 13.1667 4.40625 13.9375 3.65625L15.2812 2.28125C15.6146 1.98958 15.9792 1.91667 16.375 2.0625C16.7708 2.25 16.9792 2.5625 17 3V7.625ZM8.28125 8H8V11H8.28125C9.53125 11 10.7292 11.2292 11.875 11.6875C13.0208 12.125 14.0625 12.7604 15 13.5938V5.40625C14.0625 6.23958 13.0208 6.875 11.875 7.3125C10.7292 7.77083 9.53125 8 8.28125 8Z" fill="#3BB24A"/>
</svg>
