<svg width="32" height="32" viewBox="0 0 32 32" fill="none" xmlns="http://www.w3.org/2000/svg">
<path d="M21.25 4C22.0938 4.03125 22.7969 4.32812 23.3594 4.89062C23.9219 5.45312 24.2188 6.15625 24.25 7V25C24.2188 25.8438 23.9219 26.5469 23.3594 27.1094C22.7969 27.6719 22.0938 27.9688 21.25 28H10.75C9.90625 27.9688 9.20312 27.6719 8.64062 27.1094C8.07812 26.5469 7.78125 25.8438 7.75 25V7C7.78125 6.15625 8.07812 5.45312 8.64062 4.89062C9.20312 4.32812 9.90625 4.03125 10.75 4H21.25ZM22 25V7C21.9688 6.53125 21.7188 6.28125 21.25 6.25H10.75C10.2812 6.28125 10.0312 6.53125 10 7V25C10.0312 25.4688 10.2812 25.7188 10.75 25.75H21.25C21.7188 25.7188 21.9688 25.4688 22 25ZM17.5 22.75C17.9688 22.7812 18.2188 23.0312 18.25 23.5C18.2188 23.9688 17.9688 24.2188 17.5 24.25H14.5C14.0312 24.2188 13.7812 23.9688 13.75 23.5C13.7812 23.0312 14.0312 22.7812 14.5 22.75H17.5Z" fill="#121212"/>
</svg>
