<svg width="25" height="22" viewBox="0 0 25 22" fill="none" xmlns="http://www.w3.org/2000/svg">
<path d="M23.375 19.25C23.9844 19.25 24.5 19.7656 24.5 20.375C24.5 21.0312 23.9844 21.5 23.375 21.5H2C1.15625 21.5 0.5 20.8438 0.5 20V1.625C0.5 1.01562 0.96875 0.5 1.625 0.5C2.23438 0.5 2.75 1.01562 2.75 1.625V19.25H23.375ZM9.45312 11.0469L5.70312 7.29688C5.23438 6.875 5.23438 6.17188 5.70312 5.75C6.125 5.28125 6.82812 5.28125 7.25 5.75L10.25 8.70312L13.9531 5C14.375 4.53125 15.0781 4.53125 15.5 5L20.75 10.2031V7.625C20.75 7.01562 21.2188 6.5 21.875 6.5C22.4844 6.5 23 7.01562 23 7.625V12.875C23 13.5312 22.4844 14 21.875 14H16.625C15.9688 14 15.5 13.5312 15.5 12.875C15.5 12.2656 15.9688 11.75 16.625 11.75H19.1562L14.75 7.34375L11 11.0469C10.5781 11.5156 9.875 11.5156 9.45312 11.0469Z" fill="#FFAB91"/>
</svg>
