<svg width="32" height="32" viewBox="0 0 32 32" fill="none" xmlns="http://www.w3.org/2000/svg">
<path d="M10.75 4C13.5 4.0625 15.7969 4.875 17.6406 6.4375C19.4844 7.96875 20.4375 9.90625 20.5 12.25C20.4375 14.5938 19.4844 16.5312 17.6406 18.0625C15.7969 19.625 13.5 20.4375 10.75 20.5C9.875 20.5 9.03125 20.4062 8.21875 20.2188C7.5 20.6875 6.625 21.0938 5.59375 21.4375C4.59375 21.7812 3.45312 21.9688 2.17188 22C1.67188 21.9688 1.3125 21.7344 1.09375 21.2969C0.90625 20.8281 0.984375 20.4062 1.32812 20.0312C1.35938 20 1.5625 19.75 1.9375 19.2812C2.34375 18.7812 2.75 18.1562 3.15625 17.4062C1.75 15.9688 1.03125 14.25 1 12.25C1.0625 9.90625 2.01562 7.96875 3.85938 6.4375C5.70312 4.875 8 4.0625 10.75 4ZM8.73438 17.9688C9.42188 18.1562 10.0938 18.25 10.75 18.25C12.875 18.2188 14.6406 17.625 16.0469 16.4688C17.4531 15.3438 18.1875 13.9375 18.25 12.25C18.1875 10.5625 17.4531 9.15625 16.0469 8.03125C14.6406 6.875 12.875 6.28125 10.75 6.25C8.625 6.28125 6.85938 6.875 5.45312 8.03125C4.04688 9.15625 3.3125 10.5625 3.25 12.25C3.28125 13.0625 3.45312 13.7812 3.76562 14.4062C4.07812 15 4.42188 15.4844 4.79688 15.8594L5.875 17.0312L5.125 18.4375C5.0625 18.5625 5 18.6875 4.9375 18.8125C4.8125 19 4.70312 19.2031 4.60938 19.4219C5.42188 19.1719 6.23438 18.7812 7.04688 18.25L7.79688 17.8281L8.73438 17.9688ZM21.7188 10C24.3438 10.1562 26.5312 11 28.2812 12.5312C30.0312 14.0625 30.9375 15.9688 31 18.25C30.9688 20.25 30.25 21.9688 28.8438 23.4062C29.25 24.1562 29.6562 24.7812 30.0625 25.2812C30.4375 25.75 30.6406 26 30.6719 26.0312C31.0156 26.4062 31.0781 26.8281 30.8594 27.2969C30.6719 27.7344 30.3281 27.9688 29.8281 28C28.5469 27.9688 27.4062 27.7812 26.4062 27.4375C25.375 27.0938 24.5 26.6875 23.7812 26.2188C22.9688 26.4062 22.125 26.5 21.25 26.5C19.3125 26.4688 17.5781 26.0469 16.0469 25.2344C14.4844 24.3906 13.2969 23.2812 12.4844 21.9062C13.2969 21.7812 14.0781 21.5938 14.8281 21.3438C15.4844 22.2188 16.375 22.9219 17.5 23.4531C18.625 23.9844 19.875 24.25 21.25 24.25C21.9062 24.25 22.5781 24.1562 23.2656 23.9688L24.2031 23.8281L24.9531 24.25C25.7656 24.7812 26.5938 25.1719 27.4375 25.4219C27.3125 25.2344 27.1875 25.0312 27.0625 24.8125C27 24.6875 26.9375 24.5625 26.875 24.4375L26.125 23.0312L27.2031 21.8594C27.5781 21.4844 27.9219 21 28.2344 20.4062C28.5469 19.7812 28.7188 19.0625 28.75 18.25C28.7188 16.6562 28.0625 15.3125 26.7812 14.2188C25.5312 13.125 23.9219 12.4844 21.9531 12.2969L22 12.25C22 11.4688 21.9062 10.7188 21.7188 10Z" fill="#121212"/>
</svg>
