<svg width="24" height="24" viewBox="0 0 24 24" fill="none" xmlns="http://www.w3.org/2000/svg">
<g opacity="0.6">
<path d="M10.25 17.75C10.0469 17.75 9.86719 17.6797 9.71094 17.5391C9.57031 17.3828 9.5 17.2031 9.5 17C9.5 16.7969 9.57031 16.6172 9.71094 16.4609L13.6953 12.5L9.71094 8.53906C9.57031 8.38281 9.5 8.20312 9.5 8C9.5 7.79688 9.57031 7.61719 9.71094 7.46094C9.86719 7.32031 10.0469 7.25 10.25 7.25C10.4531 7.25 10.6328 7.32031 10.7891 7.46094L15.2891 11.9609C15.4297 12.1172 15.5 12.2969 15.5 12.5C15.5 12.7031 15.4297 12.8828 15.2891 13.0391L10.7891 17.5391C10.6328 17.6797 10.4531 17.75 10.25 17.75Z" fill="#121212"/>
</g>
</svg>
