<svg width="24" height="24" viewBox="0 0 24 24" fill="none" xmlns="http://www.w3.org/2000/svg">
<path d="M11.75 16.25C11.5469 16.25 11.3672 16.1797 11.2109 16.0391L6.71094 11.5391C6.57031 11.3828 6.5 11.2031 6.5 11C6.5 10.7969 6.57031 10.6172 6.71094 10.4609C6.86719 10.3203 7.04688 10.25 7.25 10.25C7.45312 10.25 7.63281 10.3203 7.78906 10.4609L11.75 14.4453L15.7109 10.4609C15.8672 10.3203 16.0469 10.25 16.25 10.25C16.4531 10.25 16.6328 10.3203 16.7891 10.4609C16.9297 10.6172 17 10.7969 17 11C17 11.2031 16.9297 11.3828 16.7891 11.5391L12.2891 16.0391C12.1328 16.1797 11.9531 16.25 11.75 16.25Z" fill="#757575"/>
</svg>
