<svg width="24" height="24" viewBox="0 0 24 24" fill="none" xmlns="http://www.w3.org/2000/svg">
<path d="M11.5312 15.7812C11.2969 15.9896 11.0365 16.0938 10.75 16.0938C10.4635 16.0938 10.2031 15.9896 9.96875 15.7812L7.46875 13.2812C7.26042 13.0469 7.15625 12.7865 7.15625 12.5C7.15625 12.2135 7.26042 11.9531 7.46875 11.7188C7.70312 11.5104 7.96354 11.4062 8.25 11.4062C8.53646 11.4062 8.79688 11.5104 9.03125 11.7188L10.75 13.4375L14.9688 9.21875C15.2031 9.01042 15.4635 8.90625 15.75 8.90625C16.0365 8.90625 16.2969 9.01042 16.5312 9.21875C16.7396 9.45312 16.8438 9.71354 16.8438 10C16.8438 10.2865 16.7396 10.5469 16.5312 10.7812L11.5312 15.7812ZM22 12.5C21.974 14.375 21.5182 16.0547 20.6328 17.5391C19.7474 19.0495 18.5495 20.2474 17.0391 21.1328C15.5547 22.0182 13.875 22.474 12 22.5C10.125 22.474 8.44531 22.0182 6.96094 21.1328C5.45052 20.2474 4.2526 19.0495 3.36719 17.5391C2.48177 16.0547 2.02604 14.375 2 12.5C2.02604 10.625 2.48177 8.94531 3.36719 7.46094C4.2526 5.95052 5.45052 4.7526 6.96094 3.86719C8.44531 2.98177 10.125 2.52604 12 2.5C13.875 2.52604 15.5547 2.98177 17.0391 3.86719C18.5495 4.7526 19.7474 5.95052 20.6328 7.46094C21.5182 8.94531 21.974 10.625 22 12.5ZM12 4.375C9.70833 4.42708 7.79427 5.22135 6.25781 6.75781C4.72135 8.29427 3.92708 10.2083 3.875 12.5C3.92708 14.7917 4.72135 16.7057 6.25781 18.2422C7.79427 19.7786 9.70833 20.5729 12 20.625C14.2917 20.5729 16.2057 19.7786 17.7422 18.2422C19.2786 16.7057 20.0729 14.7917 20.125 12.5C20.0729 10.2083 19.2786 8.29427 17.7422 6.75781C16.2057 5.22135 14.2917 4.42708 12 4.375Z" fill="#3BB24A"/>
</svg>
