<svg width="20" height="20" viewBox="0 0 20 20" fill="none" xmlns="http://www.w3.org/2000/svg">
<path d="M5.71875 3C5.90625 3 6.07292 3.0625 6.21875 3.1875L14.7812 10.7812C14.9271 10.9271 15 11.1042 15 11.3125C14.9583 11.7292 14.7292 11.9583 14.3125 12H10.625L12.4062 15.5625C12.5104 15.8125 12.5208 16.0625 12.4375 16.3125C12.3542 16.5625 12.1875 16.7604 11.9375 16.9062C11.6875 17.0104 11.4375 17.0208 11.1875 16.9375C10.9375 16.8542 10.7396 16.6875 10.5938 16.4375L8.78125 12.8125L6.21875 15.7812C6.07292 15.9271 5.89583 16 5.6875 16C5.27083 15.9583 5.04167 15.7188 5 15.2812V3.71875C5.04167 3.28125 5.28125 3.04167 5.71875 3Z" fill="#3BB24A"/>
</svg>
