<svg width="16" height="16" viewBox="0 0 16 16" fill="none" xmlns="http://www.w3.org/2000/svg">
<path d="M12.0039 10.6211C12.168 10.8034 12.25 11.013 12.25 11.25C12.25 11.487 12.168 11.6966 12.0039 11.8789C11.8216 12.043 11.612 12.125 11.375 12.125C11.138 12.125 10.9284 12.043 10.7461 11.8789L7.875 8.98047L5.00391 11.8789C4.82161 12.043 4.61198 12.125 4.375 12.125C4.13802 12.125 3.92839 12.043 3.74609 11.8789C3.58203 11.6966 3.5 11.487 3.5 11.25C3.5 11.013 3.58203 10.8034 3.74609 10.6211L6.64453 7.75L3.74609 4.87891C3.58203 4.69661 3.5 4.48698 3.5 4.25C3.5 4.01302 3.58203 3.80339 3.74609 3.62109C3.92839 3.45703 4.13802 3.375 4.375 3.375C4.61198 3.375 4.82161 3.45703 5.00391 3.62109L7.875 6.51953L10.7461 3.62109C10.9284 3.45703 11.138 3.375 11.375 3.375C11.612 3.375 11.8216 3.45703 12.0039 3.62109C12.168 3.80339 12.25 4.01302 12.25 4.25C12.25 4.48698 12.168 4.69661 12.0039 4.87891L9.10547 7.75L12.0039 10.6211Z" fill="#FE4D16"/>
</svg>
