<svg width="33" height="32" viewBox="0 0 33 32" fill="none" xmlns="http://www.w3.org/2000/svg">
<path d="M3.75 10.375C3.6875 11.0625 3.3125 11.4375 2.625 11.5C1.9375 11.4375 1.5625 11.0625 1.5 10.375V5.5C1.5 5.0625 1.64062 4.70312 1.92188 4.42188C2.20312 4.14062 2.5625 4 3 4H7.875C8.5625 4.0625 8.9375 4.4375 9 5.125C8.9375 5.8125 8.5625 6.1875 7.875 6.25H3.75V10.375ZM29.25 6.25H25.125C24.4375 6.1875 24.0625 5.8125 24 5.125C24.0625 4.4375 24.4375 4.0625 25.125 4H30C30.4375 4 30.7969 4.14062 31.0781 4.42188C31.3594 4.70312 31.5 5.0625 31.5 5.5V10.375C31.4375 11.0625 31.0625 11.4375 30.375 11.5C29.6875 11.4375 29.3125 11.0625 29.25 10.375V6.25ZM9 26.875C8.9375 27.5625 8.5625 27.9375 7.875 28H3C2.5625 28 2.20312 27.8594 1.92188 27.5781C1.64062 27.2969 1.5 26.9375 1.5 26.5V21.625C1.5625 20.9375 1.9375 20.5625 2.625 20.5C3.3125 20.5625 3.6875 20.9375 3.75 21.625V25.75H7.875C8.5625 25.8125 8.9375 26.1875 9 26.875ZM29.25 21.625C29.3125 20.9375 29.6875 20.5625 30.375 20.5C31.0625 20.5625 31.4375 20.9375 31.5 21.625V26.5C31.5 26.9375 31.3594 27.2969 31.0781 27.5781C30.7969 27.8594 30.4375 28 30 28H25.125C24.4375 27.9375 24.0625 27.5625 24 26.875C24.0625 26.1875 24.4375 25.8125 25.125 25.75H29.25V21.625ZM14.0625 17.5938C14.375 17.5312 14.6875 17.5 15 17.5H18C18.3125 17.5 18.625 17.5312 18.9375 17.5938C18.9375 17.5938 18.9531 17.5938 18.9844 17.5938C19.0156 17.625 19.0469 17.6406 19.0781 17.6406C20.2031 17.9219 21.0938 18.5469 21.75 19.5156C21.75 19.5469 21.7812 19.5938 21.8438 19.6562C21.875 19.6875 21.8906 19.7188 21.8906 19.75C22.2969 20.4062 22.5 21.1562 22.5 22C22.5 22.4375 22.3594 22.7969 22.0781 23.0781C21.7969 23.3594 21.4375 23.5 21 23.5H12C11.5625 23.5 11.2031 23.3594 10.9219 23.0781C10.6406 22.7969 10.5 22.4375 10.5 22C10.5 21.1562 10.7031 20.4062 11.1094 19.75C11.7344 18.6562 12.6719 17.9531 13.9219 17.6406C13.9531 17.6406 13.9844 17.625 14.0156 17.5938C14.0469 17.5938 14.0625 17.5938 14.0625 17.5938ZM20.1094 21.25C19.7344 20.3125 19.0312 19.8125 18 19.75H15C13.9688 19.8125 13.2656 20.3125 12.8906 21.25H20.1094ZM13.125 12.625C13.1562 11.6562 13.4844 10.8594 14.1094 10.2344C14.7344 9.60938 15.5312 9.28125 16.5 9.25C17.4688 9.28125 18.2656 9.60938 18.8906 10.2344C19.5156 10.8594 19.8438 11.6562 19.875 12.625C19.8438 13.75 19.4219 14.6406 18.6094 15.2969C18.4219 15.4219 18.2188 15.5469 18 15.6719C17.5312 15.8906 17.0312 16 16.5 16C15.9688 16 15.4688 15.8906 15 15.6719C14.7812 15.5469 14.5781 15.4219 14.3906 15.2969C13.5781 14.6406 13.1562 13.75 13.125 12.625ZM16.5 13.75C17.1875 13.6875 17.5625 13.3125 17.625 12.625C17.5625 11.9375 17.1875 11.5625 16.5 11.5C15.8125 11.5625 15.4375 11.9375 15.375 12.625C15.4375 13.3125 15.8125 13.6875 16.5 13.75ZM12 12.25C11.9688 12.875 11.75 13.4062 11.3438 13.8438C10.9062 14.25 10.375 14.4688 9.75 14.5C9.09375 14.4688 8.5625 14.25 8.15625 13.8438C7.71875 13.4062 7.5 12.875 7.5 12.25C7.5 11.625 7.71875 11.0938 8.15625 10.6562C8.5625 10.25 9.09375 10.0312 9.75 10C10.375 10.0312 10.9062 10.25 11.3438 10.6562C11.75 11.0938 11.9688 11.625 12 12.25ZM6 18.4844C6.03125 17.7969 6.28125 17.2188 6.75 16.75C7.21875 16.2812 7.79688 16.0312 8.48438 16H11.7656C12.2031 16 12.625 16.1094 13.0312 16.3281C11.3438 16.9531 10.1406 18.0938 9.42188 19.75H7.26562C6.48438 19.6875 6.0625 19.2656 6 18.4844ZM20.0156 16.3281C20.3906 16.1094 20.7969 16 21.2344 16H24.5156C25.2031 16.0312 25.7812 16.2812 26.25 16.75C26.7188 17.2188 26.9688 17.7969 27 18.4844C26.9375 19.2656 26.5156 19.6875 25.7344 19.75H23.5781C22.8594 18.0938 21.6719 16.9531 20.0156 16.3281ZM25.5 12.25C25.4688 12.875 25.25 13.4062 24.8438 13.8438C24.4062 14.25 23.875 14.4688 23.25 14.5C22.625 14.4688 22.0938 14.25 21.6562 13.8438C21.25 13.4062 21.0312 12.875 21 12.25C21.0312 11.625 21.25 11.0938 21.6562 10.6562C22.0938 10.25 22.625 10.0312 23.25 10C23.875 10.0312 24.4062 10.25 24.8438 10.6562C25.25 11.0938 25.4688 11.625 25.5 12.25Z" fill="#121212"/>
</svg>
