<svg width="18" height="16" viewBox="0 0 18 16" fill="none" xmlns="http://www.w3.org/2000/svg">
<path d="M9.84375 2.71875C9.84375 3.02865 9.73438 3.28385 9.51562 3.48438C9.3151 3.70312 9.0599 3.8125 8.75 3.8125C8.4401 3.8125 8.1849 3.70312 7.98438 3.48438C7.76562 3.28385 7.65625 3.02865 7.65625 2.71875C7.65625 2.40885 7.76562 2.15365 7.98438 1.95312C8.1849 1.73438 8.4401 1.625 8.75 1.625C9.0599 1.625 9.3151 1.73438 9.51562 1.95312C9.73438 2.15365 9.84375 2.40885 9.84375 2.71875ZM2.84375 5.34375C2.84375 5.03385 2.95312 4.77865 3.17188 4.57812C3.3724 4.35938 3.6276 4.25 3.9375 4.25C4.2474 4.25 4.5026 4.35938 4.70312 4.57812C4.92188 4.77865 5.03125 5.03385 5.03125 5.34375C5.03125 5.65365 4.92188 5.90885 4.70312 6.10938C4.5026 6.32812 4.2474 6.4375 3.9375 6.4375C3.6276 6.4375 3.3724 6.32812 3.17188 6.10938C2.95312 5.90885 2.84375 5.65365 2.84375 5.34375ZM16.625 12.125C16.8802 12.125 17.0898 12.207 17.2539 12.3711C17.418 12.5352 17.5 12.7448 17.5 13C17.5 13.2552 17.418 13.4648 17.2539 13.6289C17.0898 13.793 16.8802 13.875 16.625 13.875H0.875C0.619792 13.875 0.410156 13.793 0.246094 13.6289C0.0820312 13.4648 0 13.2552 0 13C0 12.7448 0.0820312 12.5352 0.246094 12.3711C0.410156 12.207 0.619792 12.125 0.875 12.125H16.625ZM12.4688 5.34375C12.4688 5.03385 12.5781 4.77865 12.7969 4.57812C12.9974 4.35938 13.2526 4.25 13.5625 4.25C13.8724 4.25 14.1276 4.35938 14.3281 4.57812C14.5469 4.77865 14.6562 5.03385 14.6562 5.34375C14.6562 5.65365 14.5469 5.90885 14.3281 6.10938C14.1276 6.32812 13.8724 6.4375 13.5625 6.4375C13.2526 6.4375 12.9974 6.32812 12.7969 6.10938C12.5781 5.90885 12.4688 5.65365 12.4688 5.34375ZM5.46875 10.375C5.46875 10.6302 5.38672 10.8398 5.22266 11.0039C5.05859 11.168 4.84896 11.25 4.59375 11.25H3.28125C3.02604 11.25 2.81641 11.168 2.65234 11.0039C2.48828 10.8398 2.40625 10.6302 2.40625 10.375V9.33594L1.66797 10.6758C1.44922 11.0221 1.15755 11.1133 0.792969 10.9492C0.446615 10.7305 0.355469 10.4388 0.519531 10.0742L1.55859 8.13281C1.77734 7.75 2.06901 7.4401 2.43359 7.20312C2.81641 6.98438 3.22656 6.875 3.66406 6.875H4.21094C4.66667 6.875 5.07682 6.99349 5.44141 7.23047L6.37109 5.50781C6.58984 5.125 6.88151 4.8151 7.24609 4.57812C7.62891 4.35938 8.03906 4.25 8.47656 4.25H9.02344C9.46094 4.25 9.87109 4.35938 10.2539 4.57812C10.6185 4.8151 10.9102 5.125 11.1289 5.50781L12.0586 7.23047C12.4232 6.99349 12.8333 6.875 13.2891 6.875H13.8359C14.2734 6.875 14.6836 6.98438 15.0664 7.20312C15.431 7.4401 15.7227 7.75 15.9414 8.13281L16.9805 10.0742C17.1445 10.4388 17.0534 10.7305 16.707 10.9492C16.3424 11.1133 16.0508 11.0221 15.832 10.6758L15.0938 9.33594V10.375C15.0938 10.6302 15.0117 10.8398 14.8477 11.0039C14.6836 11.168 14.474 11.25 14.2188 11.25H12.9062C12.651 11.25 12.4414 11.168 12.2773 11.0039C12.1133 10.8398 12.0312 10.6302 12.0312 10.375V9.33594L11.293 10.6758C11.0742 11.0221 10.7826 11.1133 10.418 10.9492C10.0716 10.7305 9.98047 10.4388 10.1445 10.0742L11.1289 8.21484C11.0924 8.17839 11.056 8.1237 11.0195 8.05078L10.2812 6.71094V8.1875C10.2812 8.44271 10.1992 8.65234 10.0352 8.81641C9.87109 8.98047 9.66146 9.0625 9.40625 9.0625H8.06641C7.82943 9.0625 7.62891 8.98047 7.46484 8.81641C7.30078 8.65234 7.20964 8.44271 7.19141 8.1875V6.71094L6.48047 8.05078C6.46224 8.08724 6.44401 8.11458 6.42578 8.13281C6.40755 8.16927 6.38932 8.19661 6.37109 8.21484L7.35547 10.0742C7.51953 10.4388 7.42839 10.7305 7.08203 10.9492C6.71745 11.1133 6.42578 11.0221 6.20703 10.6758L5.44141 9.33594L5.46875 10.375Z" fill="#121212"/>
</svg>
