<svg width="33" height="32" viewBox="0 0 33 32" fill="none" xmlns="http://www.w3.org/2000/svg">
<path d="M7.07812 12.25C7.10938 11.7188 7.29688 11.2812 7.64062 10.9375C8.01562 10.5625 8.45312 10.375 8.95312 10.375C9.51562 10.375 9.96875 10.5625 10.3125 10.9375C10.6562 11.2812 10.8281 11.7188 10.8281 12.25C10.8281 12.7812 10.6562 13.2188 10.3125 13.5625C9.96875 13.9375 9.51562 14.125 8.95312 14.125C8.45312 14.125 8.01562 13.9375 7.64062 13.5625C7.29688 13.2188 7.10938 12.7812 7.07812 12.25ZM11.2031 5.07812L11.5312 6.39062C11.9688 6.57812 12.3906 6.82812 12.7969 7.14062L14.0625 6.76562C14.3438 6.67188 14.5781 6.73437 14.7656 6.95312C15.5469 7.79688 16.1094 8.76562 16.4531 9.85938C16.5469 10.1406 16.4844 10.3906 16.2656 10.6094L15.2812 11.5C15.3438 11.6875 15.3594 11.8906 15.3281 12.1094C15.3281 12.1719 15.3281 12.2344 15.3281 12.2969C15.3281 12.3594 15.3281 12.4375 15.3281 12.5312C15.3594 12.6875 15.3594 12.8438 15.3281 13L16.2656 13.8906C16.4844 14.1094 16.5469 14.3594 16.4531 14.6406C16.1094 15.7344 15.5469 16.7031 14.7656 17.5469C14.5781 17.7656 14.3438 17.8438 14.0625 17.7812L12.8438 17.4062C12.4375 17.7188 12 17.9844 11.5312 18.2031L11.2031 19.4219C11.1094 19.7031 10.9375 19.875 10.6875 19.9375C10.1562 20.0625 9.57812 20.125 8.95312 20.125C8.42188 20.125 7.85938 20.0625 7.26562 19.9375C7.01562 19.875 6.85938 19.7031 6.79688 19.4219L6.51562 18.2031C6.01562 17.9844 5.5625 17.7188 5.15625 17.4062L3.9375 17.7812C3.65625 17.8438 3.42188 17.7656 3.23438 17.5469C2.45312 16.7031 1.89062 15.7344 1.54688 14.6406C1.45312 14.3594 1.51562 14.1094 1.73438 13.8906L2.67188 13C2.64062 12.75 2.625 12.5156 2.625 12.2969C2.625 12.0156 2.64062 11.75 2.67188 11.5L1.73438 10.6094C1.51562 10.3906 1.45312 10.1406 1.54688 9.85938C1.89062 8.76562 2.45312 7.79688 3.23438 6.95312C3.42188 6.73437 3.65625 6.67188 3.9375 6.76562L5.20312 7.14062C5.60938 6.82812 6.03125 6.57812 6.46875 6.39062L6.79688 5.07812C6.85938 4.79688 7.01562 4.625 7.26562 4.5625C7.85938 4.4375 8.42188 4.375 8.95312 4.375C9.57812 4.375 10.1562 4.4375 10.6875 4.5625C10.9375 4.625 11.1094 4.79688 11.2031 5.07812ZM4.45312 12.2969C4.45312 12.3906 4.46875 12.4844 4.5 12.5781C4.5 12.6719 4.51562 12.75 4.54688 12.8125L4.64062 13.7031L3.5625 14.7344C3.71875 15.0781 3.92188 15.4062 4.17188 15.7188L5.53125 15.3438L6.28125 15.9062C6.59375 16.125 6.90625 16.3125 7.21875 16.4688L8.10938 16.8438L8.4375 18.2031C8.625 18.2344 8.79688 18.25 8.95312 18.25C9.17188 18.25 9.375 18.2344 9.5625 18.2031L9.89062 16.8438L10.7812 16.4688C11.125 16.3125 11.4375 16.125 11.7188 15.9062L12.4688 15.3438L13.8281 15.7188C14.0781 15.4062 14.2812 15.0781 14.4375 14.7344L13.3594 13.7031L13.4531 12.8125C13.4844 12.6875 13.4844 12.5781 13.4531 12.4844C13.4531 12.4219 13.4531 12.3594 13.4531 12.2969C13.4531 12.2344 13.4531 12.1562 13.4531 12.0625C13.4844 11.9375 13.4844 11.8281 13.4531 11.7344L13.3594 10.7969L14.4375 9.76562C14.2812 9.42188 14.0781 9.09375 13.8281 8.78125L12.4219 9.20312L11.6719 8.64062C11.6406 8.60938 11.6094 8.59375 11.5781 8.59375C11.3281 8.40625 11.0469 8.25 10.7344 8.125L9.9375 7.75L9.5625 6.29688C9.375 6.26562 9.17188 6.25 8.95312 6.25C8.79688 6.25 8.625 6.26562 8.4375 6.29688L8.0625 7.75L7.21875 8.125C6.90625 8.25 6.60938 8.42188 6.32812 8.64062L5.57812 9.20312L4.17188 8.78125C3.92188 9.09375 3.71875 9.42188 3.5625 9.76562L4.64062 10.7969L4.54688 11.7344C4.51562 11.7969 4.5 11.8594 4.5 11.9219C4.46875 12.0469 4.45312 12.1719 4.45312 12.2969ZM23.25 18.625C23.7812 18.625 24.2188 18.8125 24.5625 19.1875C24.9375 19.5312 25.125 19.9688 25.125 20.5C25.125 21.0312 24.9375 21.4688 24.5625 21.8125C24.2188 22.1875 23.7812 22.375 23.25 22.375C22.7188 22.375 22.2812 22.1875 21.9375 21.8125C21.5625 21.4688 21.375 21.0312 21.375 20.5C21.375 19.9688 21.5625 19.5312 21.9375 19.1875C22.2812 18.8125 22.7188 18.625 23.25 18.625ZM28.7812 15.4375L28.3594 16.7031C28.6719 17.1094 28.9219 17.5312 29.1094 17.9688L30.4219 18.2969C30.7031 18.3594 30.875 18.5156 30.9375 18.7656C31.0625 19.3594 31.125 19.9375 31.125 20.5C31.125 21.0938 31.0625 21.6562 30.9375 22.1875C30.875 22.4375 30.7031 22.6094 30.4219 22.7031L29.1094 23.0312C28.9219 23.4688 28.6719 23.8906 28.3594 24.2969L28.7812 25.5625C28.8438 25.8438 28.7656 26.0781 28.5469 26.2656C27.7031 27.0469 26.7344 27.6094 25.6406 27.9531C25.3594 28.0469 25.1094 27.9844 24.8906 27.7656L23.9531 26.7812C23.7344 26.8438 23.4844 26.875 23.2031 26.875C22.9531 26.875 22.7188 26.8594 22.5 26.8281L21.6094 27.7656C21.3906 27.9844 21.1406 28.0469 20.8594 27.9531C19.7656 27.6094 18.7969 27.0469 17.9531 26.2656C17.7344 26.0781 17.6719 25.8438 17.7656 25.5625L18.0938 24.3438C17.7812 23.9375 17.5156 23.5 17.2969 23.0312L16.0781 22.7031C15.7969 22.6094 15.625 22.4375 15.5625 22.1875C15.4375 21.6562 15.3594 21.0938 15.3281 20.5C15.3594 19.9375 15.4375 19.3594 15.5625 18.7656C15.625 18.5156 15.7969 18.3594 16.0781 18.2969L17.2969 18.0156C17.5156 17.5156 17.7812 17.0625 18.0938 16.6562L17.7656 15.4375C17.6719 15.1562 17.7344 14.9219 17.9531 14.7344C18.7969 13.9531 19.7656 13.3906 20.8594 13.0469C21.1406 12.9531 21.3906 13.0156 21.6094 13.2344L22.5 14.1719C22.7188 14.1406 22.9531 14.125 23.2031 14.125C23.4844 14.125 23.7344 14.1406 23.9531 14.1719L24.8906 13.2344C25.1094 13.0156 25.3594 12.9531 25.6406 13.0469C26.7344 13.3906 27.7031 13.9531 28.5469 14.7344C28.7656 14.9219 28.8438 15.1562 28.7812 15.4375ZM23.2031 16C23.0469 16 22.875 16.0156 22.6875 16.0469L21.7969 16.1406L20.7656 15.0625C20.4219 15.2188 20.0938 15.4219 19.7812 15.6719L20.1562 16.9844L19.5469 17.7812C19.3594 18.0938 19.1875 18.4062 19.0312 18.7188L18.6562 19.6094L17.2969 19.9375C17.2656 20.125 17.25 20.3125 17.25 20.5C17.25 20.6875 17.2656 20.875 17.2969 21.0625L18.6562 21.3906L19.0312 22.2812C19.1875 22.5938 19.3594 22.9062 19.5469 23.2188L20.1562 23.9688L19.7812 25.3281C20.0938 25.5781 20.4219 25.7812 20.7656 25.9375L21.7969 24.8594L22.6875 24.9531C22.875 24.9844 23.0469 25 23.2031 25C23.3906 25 23.5781 24.9844 23.7656 24.9531L24.7031 24.8594L25.7344 25.9375C26.0781 25.7812 26.4062 25.5781 26.7188 25.3281L26.2969 23.9219L26.8594 23.1719C26.8906 23.1406 26.9062 23.125 26.9062 23.125C27.0938 22.8438 27.25 22.5469 27.375 22.2344L27.75 21.4375L29.2031 21.0625C29.2344 20.875 29.25 20.6875 29.25 20.5C29.25 20.3125 29.2344 20.125 29.2031 19.9375L27.75 19.5625L27.375 18.7188C27.25 18.4062 27.0781 18.1094 26.8594 17.8281L26.2969 17.0781L26.7188 15.6719C26.4062 15.4219 26.0781 15.2188 25.7344 15.0625L24.7031 16.1406L23.7656 16.0469C23.5781 16.0156 23.3906 16 23.2031 16Z" fill="#121212"/>
</svg>
