<svg width="24" height="24" viewBox="0 0 24 24" fill="none" xmlns="http://www.w3.org/2000/svg">
<path d="M20.4766 9.0625C21.4922 10.1562 22 11.4062 22 12.8125C22 14.2188 21.4922 15.4688 20.4766 16.5625L16.1016 20.9766C15.6589 21.3411 15.2161 21.3411 14.7734 20.9766C14.4089 20.5339 14.4089 20.0911 14.7734 19.6484L19.1484 15.2344C19.7995 14.5312 20.125 13.724 20.125 12.8125C20.125 11.901 19.7995 11.0938 19.1484 10.3906L14.1484 5.35156C13.7839 4.90885 13.7839 4.46615 14.1484 4.02344C14.5911 3.65885 15.0208 3.65885 15.4375 4.02344L20.4766 9.0625ZM2 11.4844V5.625C2.02604 5.10417 2.20833 4.66146 2.54688 4.29688C2.91146 3.95833 3.35417 3.77604 3.875 3.75H9.73438C10.4115 3.75 10.9974 3.9974 11.4922 4.49219L18.0547 11.0547C18.5234 11.5495 18.7578 12.1354 18.7578 12.8125C18.7578 13.4896 18.5234 14.0755 18.0547 14.5703L12.8203 19.8047C12.3255 20.2734 11.7396 20.5078 11.0625 20.5078C10.3854 20.5078 9.79948 20.2734 9.30469 19.8047L2.74219 13.2422C2.2474 12.7474 2 12.1615 2 11.4844ZM6.375 6.875C6.01042 6.875 5.71094 6.99219 5.47656 7.22656C5.24219 7.46094 5.125 7.76042 5.125 8.125C5.125 8.48958 5.24219 8.78906 5.47656 9.02344C5.71094 9.25781 6.01042 9.375 6.375 9.375C6.73958 9.375 7.03906 9.25781 7.27344 9.02344C7.50781 8.78906 7.625 8.48958 7.625 8.125C7.625 7.76042 7.50781 7.46094 7.27344 7.22656C7.03906 6.99219 6.73958 6.875 6.375 6.875Z" fill="#3BB24A"/>
</svg>
