<svg width="20" height="20" viewBox="0 0 20 20" fill="none" xmlns="http://www.w3.org/2000/svg">
<path d="M17.625 15.875C17.875 16.125 18 16.4167 18 16.75C18 17.0833 17.875 17.375 17.625 17.625C17.375 17.875 17.0833 18 16.75 18C16.4167 18 16.125 17.875 15.875 17.625L12.125 13.9062C10.8333 14.7812 9.32292 15.125 7.59375 14.9375C6.13542 14.7292 4.90625 14.1042 3.90625 13.0625C2.88542 12.0417 2.27083 10.8021 2.0625 9.34375C1.89583 7.90625 2.125 6.60417 2.75 5.4375C3.39583 4.29167 4.29167 3.39583 5.4375 2.75C6.60417 2.125 7.90625 1.89583 9.34375 2.0625C10.8021 2.27083 12.0417 2.88542 13.0625 3.90625C14.0833 4.90625 14.7083 6.13542 14.9375 7.59375C15.125 9.32292 14.7812 10.8333 13.9062 12.125L17.625 15.875ZM4.46875 8.5C4.48958 9.625 4.88542 10.5625 5.65625 11.3125C6.40625 12.0833 7.34375 12.4792 8.46875 12.5C9.59375 12.4792 10.5417 12.0833 11.3125 11.3125C12.0625 10.5625 12.4479 9.625 12.4688 8.5C12.4479 7.375 12.0625 6.4375 11.3125 5.6875C10.5417 4.91667 9.59375 4.52083 8.46875 4.5C7.34375 4.52083 6.40625 4.91667 5.65625 5.6875C4.88542 6.4375 4.48958 7.375 4.46875 8.5Z" fill="#3BB24A"/>
</svg>
