<svg width="20" height="20" viewBox="0 0 20 20" fill="none" xmlns="http://www.w3.org/2000/svg">
<path d="M7.96875 9L8 12.5C8 12.7917 7.90625 13.0312 7.71875 13.2188C7.53125 13.4062 7.29167 13.5 7 13.5H6.5C5.9375 13.4792 5.46875 13.2812 5.09375 12.9062C4.71875 12.5312 4.52083 12.0625 4.5 11.5V10C4.52083 9.4375 4.71875 8.96875 5.09375 8.59375C5.46875 8.21875 5.9375 8.02083 6.5 8H6.96875C7.26042 8 7.5 8.09375 7.6875 8.28125C7.875 8.46875 7.96875 8.70833 7.96875 9ZM10 2C11.5 2.02083 12.8438 2.39583 14.0312 3.125C15.2188 3.85417 16.1562 4.82292 16.8438 6.03125C17.5521 7.23958 17.9375 8.5625 18 10V14.5C17.9792 15.2708 17.7083 15.9167 17.1875 16.4375C16.6667 16.9583 16.0208 17.2292 15.25 17.25H11.7812C11.5104 17.7292 11.0833 17.9792 10.5 18H9.46875C9.01042 17.9792 8.63542 17.8021 8.34375 17.4688C8.05208 17.1146 7.94792 16.6875 8.03125 16.1875C8.11458 15.8333 8.29167 15.5521 8.5625 15.3438C8.85417 15.1146 9.1875 15 9.5625 15H10.5C11.0833 15.0208 11.5104 15.2708 11.7812 15.75H15.25C15.6042 15.75 15.8958 15.625 16.125 15.375C16.375 15.1458 16.5 14.8542 16.5 14.5V10C16.4583 8.16667 15.8229 6.63542 14.5938 5.40625C13.3646 4.17708 11.8333 3.54167 10 3.5C8.16667 3.54167 6.63542 4.17708 5.40625 5.40625C4.17708 6.63542 3.54167 8.16667 3.5 10V11.25C3.5 11.4583 3.41667 11.6354 3.25 11.7812C3.10417 11.9271 2.92708 12 2.71875 12C2.28125 11.9583 2.04167 11.7083 2 11.25V10C2.0625 8.5625 2.44792 7.23958 3.15625 6.03125C3.84375 4.82292 4.78125 3.85417 5.96875 3.125C7.15625 2.39583 8.5 2.02083 10 2ZM13.5 13.5H13C12.7083 13.5 12.4688 13.4062 12.2812 13.2188C12.0938 13.0312 12 12.7917 12 12.5V9C12 8.70833 12.0938 8.46875 12.2812 8.28125C12.4688 8.09375 12.7083 8 13 8H13.5C14.0625 8.02083 14.5312 8.21875 14.9062 8.59375C15.2812 8.96875 15.4792 9.4375 15.5 10V11.5C15.4792 12.0625 15.2812 12.5312 14.9062 12.9062C14.5312 13.2812 14.0625 13.4792 13.5 13.5Z" fill="#3BB24A"/>
</svg>
