<svg width="32" height="32" viewBox="0 0 32 32" fill="none" xmlns="http://www.w3.org/2000/svg">
<path d="M26.5 4C27.3438 4.03125 28.0469 4.32812 28.6094 4.89062C29.1719 5.45312 29.4688 6.15625 29.5 7V20.5C29.4688 21.3438 29.1719 22.0469 28.6094 22.6094C28.0469 23.1719 27.3438 23.4688 26.5 23.5H19.5625L19.9844 25.75H22.375C23.0625 25.8125 23.4375 26.1875 23.5 26.875C23.4375 27.5625 23.0625 27.9375 22.375 28H9.625C8.9375 27.9375 8.5625 27.5625 8.5 26.875C8.5625 26.1875 8.9375 25.8125 9.625 25.75H12.0156L12.4375 23.5H5.5C4.65625 23.4688 3.95312 23.1719 3.39062 22.6094C2.82812 22.0469 2.53125 21.3438 2.5 20.5V7C2.53125 6.15625 2.82812 5.45312 3.39062 4.89062C3.95312 4.32812 4.65625 4.03125 5.5 4H26.5ZM17.6875 25.75L17.2656 23.5H14.7344L14.3125 25.75H17.6875ZM27.25 20.5V7C27.2188 6.53125 26.9688 6.28125 26.5 6.25H5.5C5.03125 6.28125 4.78125 6.53125 4.75 7V20.5C4.78125 20.9688 5.03125 21.2188 5.5 21.25H26.5C26.9688 21.2188 27.2188 20.9688 27.25 20.5Z" fill="#121212"/>
</svg>
