<svg width="24" height="24" viewBox="0 0 24 24" fill="none" xmlns="http://www.w3.org/2000/svg">
<path d="M20.9963 12.2639C21.1432 7.128 16.986 2.92652 11.8661 3.00097C6.93832 3.07264 2.96256 7.14227 3.00027 12.0704C3.02732 15.6017 5.0882 18.6485 8.0692 20.0981C8.24163 20.182 8.44126 20.0516 8.43406 19.86C8.41232 19.2809 8.43105 18.6619 8.54692 18.1643C8.66096 17.6743 9.10843 15.7795 9.40263 14.5347C9.54582 13.9287 9.56311 13.2995 9.4478 12.6876C9.40996 12.4868 9.38255 12.2509 9.38255 11.9887C9.38255 10.6585 10.1536 9.66537 11.1136 9.66537C11.9297 9.66537 12.324 10.2782 12.324 11.0129C12.324 11.8337 11.8014 13.0609 11.5317 14.1982C11.3063 15.1504 12.0092 15.9269 12.9483 15.9269C14.6487 15.9269 15.9556 14.134 15.9556 11.5461C15.9556 9.25556 14.3098 7.65403 11.9596 7.65403C9.23766 7.65403 7.63993 9.6957 7.63993 11.8057C7.63993 12.6279 7.95669 13.5096 8.35188 13.9889C8.43 14.0836 8.44152 14.1666 8.41826 14.2633C8.34564 14.5654 8.18424 15.2153 8.15256 15.3482C8.11079 15.5233 8.0139 15.5604 7.83265 15.4762C6.63775 14.92 5.8908 13.1731 5.8908 11.77C5.8908 8.75223 8.08338 5.98089 12.2118 5.98089C15.5304 5.98089 18.1094 8.34565 18.1094 11.5061C18.1094 14.8031 16.0306 17.4565 13.1452 17.4565C12.3827 17.4565 11.6561 17.1449 11.2289 16.7224C11.0975 16.5925 10.8754 16.6516 10.8285 16.8304C10.6781 17.4035 10.4349 18.3306 10.3566 18.6321C10.2155 19.1746 9.91827 19.8063 9.62028 20.3565C9.54111 20.5028 9.62119 20.6833 9.78237 20.7242C10.5181 20.9108 11.2897 21.0071 12.0852 20.9997C16.8077 20.9559 20.8613 16.9849 20.9963 12.2639Z" fill="#C7E1E5"/>
</svg>
