<svg width="16" height="16" viewBox="0 0 16 16" fill="none" xmlns="http://www.w3.org/2000/svg">
<path d="M13.75 9.9375C13.7318 10.3385 13.5859 10.6667 13.3125 10.9219V13.1641C13.5859 13.3281 13.7318 13.5742 13.75 13.9023C13.75 14.1393 13.668 14.3398 13.5039 14.5039C13.3398 14.668 13.1302 14.75 12.875 14.75H4.125C3.3776 14.7318 2.75781 14.4766 2.26562 13.9844C1.77344 13.4922 1.51823 12.8724 1.5 12.125V3.375C1.51823 2.6276 1.77344 2.00781 2.26562 1.51562C2.75781 1.02344 3.3776 0.768229 4.125 0.75H12.4375C12.8021 0.768229 13.112 0.895833 13.3672 1.13281C13.6042 1.38802 13.7318 1.69792 13.75 2.0625V9.9375ZM5.41016 4.25C5.17318 4.26823 5.03646 4.41406 5 4.6875C5.03646 4.96094 5.17318 5.10677 5.41016 5.125H10.6875C10.9609 5.10677 11.1068 4.96094 11.125 4.6875C11.1068 4.41406 10.9518 4.26823 10.6602 4.25H5.41016ZM5.41016 6C5.17318 6.01823 5.03646 6.16406 5 6.4375C5.03646 6.71094 5.17318 6.85677 5.41016 6.875H10.6875C10.9609 6.85677 11.1068 6.71094 11.125 6.4375C11.1068 6.16406 10.9518 6.01823 10.6602 6H5.41016ZM12 13V11.25H4.125C3.86979 11.25 3.66016 11.332 3.49609 11.4961C3.33203 11.6602 3.25 11.8698 3.25 12.125C3.25 12.3802 3.33203 12.5898 3.49609 12.7539C3.66016 12.918 3.86979 13 4.125 13H12Z" fill="#121212"/>
</svg>
