<svg width="20" height="20" viewBox="0 0 20 20" fill="none" xmlns="http://www.w3.org/2000/svg">
<path d="M10 14C10.2917 14 10.5312 14.0938 10.7188 14.2812C10.9062 14.4688 11 14.7083 11 15C11 15.2917 10.9062 15.5312 10.7188 15.7188C10.5312 15.9062 10.2917 16 10 16C9.70833 16 9.46875 15.9062 9.28125 15.7188C9.09375 15.5312 9 15.2917 9 15C9 14.7083 9.09375 14.4688 9.28125 14.2812C9.46875 14.0938 9.70833 14 10 14ZM10 9C10.2917 9 10.5312 9.09375 10.7188 9.28125C10.9062 9.46875 11 9.70833 11 10C11 10.2917 10.9062 10.5312 10.7188 10.7188C10.5312 10.9062 10.2917 11 10 11C9.70833 11 9.46875 10.9062 9.28125 10.7188C9.09375 10.5312 9 10.2917 9 10C9 9.70833 9.09375 9.46875 9.28125 9.28125C9.46875 9.09375 9.70833 9 10 9ZM10 6C9.70833 6 9.46875 5.90625 9.28125 5.71875C9.09375 5.53125 9 5.29167 9 5C9 4.70833 9.09375 4.46875 9.28125 4.28125C9.46875 4.09375 9.70833 4 10 4C10.2917 4 10.5312 4.09375 10.7188 4.28125C10.9062 4.46875 11 4.70833 11 5C11 5.29167 10.9062 5.53125 10.7188 5.71875C10.5312 5.90625 10.2917 6 10 6Z" fill="#3BB24A"/>
</svg>
