<svg width="20" height="20" viewBox="0 0 20 20" fill="none" xmlns="http://www.w3.org/2000/svg">
<path d="M19.4688 6.28125C19.8021 6.40625 19.9792 6.64583 20 7C19.9792 7.35417 19.8125 7.59375 19.5 7.71875L10.6562 10.875C10.2188 11.0417 9.78125 11.0417 9.34375 10.875L3.375 8.75C3 9.16667 2.73958 9.65625 2.59375 10.2188C2.84375 10.4062 2.97917 10.6667 3 11C2.97917 11.3125 2.85417 11.5625 2.625 11.75L3.40625 16.4062C3.42708 16.7604 3.26042 16.9583 2.90625 17H1.09375C0.739583 16.9583 0.572917 16.7604 0.59375 16.4062L1.375 11.75C1.14583 11.5625 1.02083 11.3125 1 11C1.02083 10.5625 1.22917 10.2604 1.625 10.0938C1.75 9.46875 2 8.90625 2.375 8.40625L0.5 7.71875C0.1875 7.59375 0.0208333 7.35417 0 7C0.0208333 6.64583 0.1875 6.40625 0.5 6.28125L9.3125 3.125C9.75 2.95833 10.1875 2.95833 10.625 3.125L19.4688 6.28125ZM10.9688 11.8125L15.5312 10.1875L16 14.6562C15.9583 15.3229 15.3646 15.875 14.2188 16.3125C13.0938 16.75 11.6875 16.9792 10 17C8.29167 16.9792 6.875 16.75 5.75 16.3125C4.625 15.875 4.04167 15.3229 4 14.6562L4.46875 10.2188L9 11.8125C9.33333 11.9375 9.66667 12 10 12C10.3542 12 10.6771 11.9375 10.9688 11.8125Z" fill="#3BB24A"/>
</svg>
