<svg width="21" height="21" viewBox="0 0 21 21" fill="none" xmlns="http://www.w3.org/2000/svg">
<path d="M18.9453 13.4297C19.3359 13.612 19.6224 13.8854 19.8047 14.25C19.987 14.6146 20.0391 15.0052 19.9609 15.4219L19.1016 19.1328C18.9974 19.5495 18.7891 19.875 18.4766 20.1094C18.1641 20.3698 17.7995 20.5 17.3828 20.5C14.1536 20.474 11.237 19.6797 8.63281 18.1172C6.0026 16.5807 3.91927 14.4974 2.38281 11.8672C0.820312 9.26302 0.0260417 6.34635 0 3.11719C0.0520833 2.23177 0.507812 1.64583 1.36719 1.35938L5.07812 0.5C5.49479 0.421875 5.88542 0.473958 6.25 0.65625C6.61458 0.838542 6.88802 1.125 7.07031 1.51562L8.78906 5.5C9.07552 6.30729 8.90625 6.9974 8.28125 7.57031L6.71875 8.89844C7.86458 11.0078 9.49219 12.6354 11.6016 13.7812L12.8906 12.2188C13.4635 11.5938 14.1536 11.4245 14.9609 11.7109L18.9453 13.4297ZM17.8906 18.8594L18.75 15.1484C18.776 14.888 18.6719 14.6927 18.4375 14.5625L14.4531 12.8438C14.2188 12.7656 14.0234 12.8177 13.8672 13L12.2266 14.9922C12.0182 15.2266 11.7708 15.2786 11.4844 15.1484C10.1562 14.4974 8.97135 13.638 7.92969 12.5703C6.86198 11.5286 6.0026 10.3438 5.35156 9.01562C5.22135 8.72917 5.27344 8.48177 5.50781 8.27344L7.5 6.63281C7.68229 6.47656 7.73438 6.28125 7.65625 6.04688L5.9375 2.0625C5.83333 1.85417 5.67708 1.75 5.46875 1.75C5.41667 1.75 5.3776 1.75 5.35156 1.75L1.64062 2.60938C1.40625 2.6875 1.27604 2.85677 1.25 3.11719C1.27604 6.11198 2.00521 8.82031 3.4375 11.2422C4.89583 13.6641 6.83594 15.6042 9.25781 17.0625C11.6797 18.4948 14.388 19.224 17.3828 19.25C17.6432 19.224 17.8125 19.0938 17.8906 18.8594ZM13.125 4.875C12.7344 4.84896 12.526 4.64062 12.5 4.25C12.526 3.85938 12.7344 3.65104 13.125 3.625H15.625V1.125C15.651 0.734375 15.8594 0.526042 16.25 0.5C16.6406 0.526042 16.849 0.734375 16.875 1.125V3.625H19.375C19.7656 3.65104 19.974 3.85938 20 4.25C19.974 4.64062 19.7656 4.84896 19.375 4.875H16.875V7.375C16.849 7.76562 16.6406 7.97396 16.25 8C15.8594 7.97396 15.651 7.76562 15.625 7.375V4.875H13.125Z" fill="#3BB24A"/>
</svg>
