<svg width="16" height="16" viewBox="0 0 16 16" fill="none" xmlns="http://www.w3.org/2000/svg">
<path d="M1 7.75C1.01823 6.4375 1.33724 5.26172 1.95703 4.22266C2.57682 3.16536 3.41536 2.32682 4.47266 1.70703C5.51172 1.08724 6.6875 0.768229 8 0.75C9.3125 0.768229 10.4883 1.08724 11.5273 1.70703C12.5846 2.32682 13.4232 3.16536 14.043 4.22266C14.6628 5.26172 14.9818 6.4375 15 7.75C14.9818 9.0625 14.6628 10.2383 14.043 11.2773C13.4232 12.3346 12.5846 13.1732 11.5273 13.793C10.4883 14.4128 9.3125 14.7318 8 14.75C6.6875 14.7318 5.51172 14.4128 4.47266 13.793C3.41536 13.1732 2.57682 12.3346 1.95703 11.2773C1.33724 10.2383 1.01823 9.0625 1 7.75ZM5.48438 9.66406C5.28385 9.46354 5.08333 9.44531 4.88281 9.60938C4.68229 9.8099 4.66406 10.0195 4.82812 10.2383C5.13802 10.6029 5.54818 10.931 6.05859 11.2227C6.58724 11.5143 7.22526 11.6693 7.97266 11.6875C8.73828 11.6693 9.38542 11.5143 9.91406 11.2227C10.4427 10.931 10.862 10.6029 11.1719 10.2383C11.3359 10.0195 11.3268 9.8099 11.1445 9.60938C10.9258 9.44531 10.7161 9.46354 10.5156 9.66406C10.2604 9.95573 9.92318 10.2201 9.50391 10.457C9.08464 10.6758 8.57422 10.7943 7.97266 10.8125C7.38932 10.7943 6.88802 10.6758 6.46875 10.457C6.06771 10.2201 5.73958 9.95573 5.48438 9.66406ZM5.8125 5.5625C5.57552 5.5625 5.375 5.64453 5.21094 5.80859C5.04688 5.97266 4.95573 6.18229 4.9375 6.4375C4.95573 6.69271 5.04688 6.90234 5.21094 7.06641C5.375 7.23047 5.57552 7.3125 5.8125 7.3125C6.06771 7.3125 6.27734 7.23047 6.44141 7.06641C6.60547 6.90234 6.6875 6.69271 6.6875 6.4375C6.6875 6.18229 6.60547 5.97266 6.44141 5.80859C6.27734 5.64453 6.06771 5.5625 5.8125 5.5625ZM10.1875 7.3125C10.4427 7.3125 10.6523 7.23047 10.8164 7.06641C10.9805 6.90234 11.0625 6.69271 11.0625 6.4375C11.0625 6.18229 10.9805 5.97266 10.8164 5.80859C10.6523 5.64453 10.4427 5.5625 10.1875 5.5625C9.95052 5.5625 9.75 5.64453 9.58594 5.80859C9.42188 5.97266 9.33073 6.18229 9.3125 6.4375C9.33073 6.69271 9.42188 6.90234 9.58594 7.06641C9.75 7.23047 9.95052 7.3125 10.1875 7.3125Z" fill="#121212"/>
</svg>
