<svg width="32" height="32" viewBox="0 0 32 32" fill="none" xmlns="http://www.w3.org/2000/svg">
<path d="M27.1562 11.6406C27.7188 12.1094 28 12.7031 28 13.4219V25C27.9688 25.8438 27.6719 26.5469 27.1094 27.1094C26.5469 27.6719 25.8438 27.9688 25 28H7C6.15625 27.9688 5.45312 27.6719 4.89062 27.1094C4.32812 26.5469 4.03125 25.8438 4 25V13.4219C4 12.7031 4.28125 12.1094 4.84375 11.6406C5.21875 11.3594 5.65625 11.0312 6.15625 10.6562C6.625 10.2812 7.35938 9.73438 8.35938 9.01562C9.32812 8.29688 10.7344 7.26563 12.5781 5.92188C12.7031 5.82812 12.8438 5.71875 13 5.59375C13.4375 5.25 13.9219 4.90625 14.4531 4.5625C15.0156 4.21875 15.5312 4.03125 16 4C16.4688 4.03125 16.9844 4.21875 17.5469 4.5625C18.0781 4.90625 18.5625 5.25 19 5.59375C19.1562 5.71875 19.2969 5.82812 19.4219 5.92188C21.2656 7.26563 22.6719 8.29688 23.6406 9.01562C24.6406 9.73438 25.375 10.2812 25.8438 10.6562C26.3438 11.0312 26.7812 11.3594 27.1562 11.6406ZM25.75 25V16.9844L19.375 22.2812C18.375 23.0938 17.25 23.5 16 23.5C14.75 23.5 13.625 23.0938 12.625 22.2812L6.25 16.9844V25C6.28125 25.4688 6.53125 25.7188 7 25.75H25C25.4688 25.7188 25.7188 25.4688 25.75 25ZM25.75 14.0312V13.4219C25.4062 13.1406 25 12.8281 24.5312 12.4844C24.0625 12.1094 23.3438 11.5625 22.375 10.8438C21.375 10.125 19.9531 9.09375 18.1094 7.75C17.9531 7.65625 17.7812 7.53125 17.5938 7.375C17.4062 7.21875 17.1562 7.03125 16.8438 6.8125C16.5312 6.5625 16.25 6.39062 16 6.29688C15.75 6.39062 15.4688 6.5625 15.1562 6.8125C14.8438 7.03125 14.5938 7.21875 14.4062 7.375C14.2188 7.53125 14.0469 7.65625 13.8906 7.75C12.0469 9.09375 10.625 10.125 9.625 10.8438C8.65625 11.5625 7.9375 12.1094 7.46875 12.4844C7 12.8281 6.59375 13.1406 6.25 13.4219V14.0312L14.0781 20.5C14.6406 20.9688 15.2812 21.2031 16 21.2031C16.7188 21.2031 17.3594 20.9688 17.9219 20.5L25.75 14.0312Z" fill="#121212"/>
</svg>
