<svg width="20" height="15" viewBox="0 0 20 15" fill="none" xmlns="http://www.w3.org/2000/svg">
<path d="M17.5 0C18.8672 0 20 1.13281 20 2.5V12.5C20 13.9062 18.8672 15 17.5 15H2.5C1.09375 15 0 13.9062 0 12.5V2.5C0 1.13281 1.09375 0 2.5 0H17.5ZM2.5 1.25C1.79688 1.25 1.25 1.83594 1.25 2.5V3.94531L8.86719 9.64844C9.53125 10.1562 10.4297 10.1562 11.0938 9.64844L18.75 3.94531V2.5C18.75 1.83594 18.1641 1.25 17.5 1.25H2.5ZM18.75 12.5V5.46875L11.875 10.625C11.2891 11.0547 10.625 11.25 10 11.25C9.33594 11.25 8.67188 11.0547 8.125 10.625L1.25 5.46875V12.5C1.25 13.2031 1.79688 13.75 2.5 13.75H17.5C18.1641 13.75 18.75 13.2031 18.75 12.5Z" fill="#757575"/>
</svg>
