<svg width="32" height="32" viewBox="0 0 32 32" fill="none" xmlns="http://www.w3.org/2000/svg">
<path d="M16 26.125C17 26.125 18 25.8125 18.875 25.1875L32 15.6875L32 29C32 30.6875 30.625 32 29 32L3 32C1.3125 32 1.49542e-07 30.6875 1.41821e-07 29L8.09183e-08 15.6875L13.0625 25.1875C13.9375 25.8125 14.9375 26.125 16 26.125ZM30.8125 10.25C31.5625 10.8125 32 11.6875 32 12.5625L32 13.25L26 17.5625L26 6.0625L6 6.0625L6 17.5625L6.9767e-08 13.25L6.66218e-08 12.5625C6.26187e-08 11.6875 0.375 10.8125 1.125 10.25C1.6875 9.8125 2.1875 9.375 3 8.8125L3 6.0625C3 4.375 4.3125 3.0625 6 3.0625L10.8125 3.0625C11 2.875 11.1875 2.75 11.375 2.625C12.4375 1.875 14.5 -6.63358e-08 16 0.0624999C17.4375 -7.97745e-08 19.5 1.875 20.5625 2.625C20.75 2.75 20.9375 2.875 21.125 3.0625L26 3.0625C27.625 3.0625 29 4.375 29 6.0625L29 8.8125C29.75 9.375 30.25 9.8125 30.8125 10.25ZM11 16C10.4375 16 10 15.5625 10 15C10 14.5 10.4375 14 11 14L21 14C21.5 14 22 14.5 22 15C22 15.5625 21.5 16 21 16L11 16ZM11 12C10.4375 12 10 11.5625 10 11C10 10.5 10.4375 10 11 10L21 10C21.5 10 22 10.5 22 11C22 11.5625 21.5 12 21 12L11 12Z" fill="black"/>
</svg>
