<svg width="20" height="20" viewBox="0 0 20 20" fill="none" xmlns="http://www.w3.org/2000/svg">
<path d="M9 7.5C8.97917 7.91667 8.83333 8.27083 8.5625 8.5625C8.27083 8.83333 7.91667 8.97917 7.5 9H4.5C4.08333 8.97917 3.72917 8.83333 3.4375 8.5625C3.16667 8.27083 3.02083 7.91667 3 7.5V4.5C3.02083 4.08333 3.16667 3.72917 3.4375 3.4375C3.72917 3.16667 4.08333 3.02083 4.5 3H7.5C7.91667 3.02083 8.27083 3.16667 8.5625 3.4375C8.83333 3.72917 8.97917 4.08333 9 4.5V7.5ZM9 15.5C8.97917 15.9167 8.83333 16.2708 8.5625 16.5625C8.27083 16.8333 7.91667 16.9792 7.5 17H4.5C4.08333 16.9792 3.72917 16.8333 3.4375 16.5625C3.16667 16.2708 3.02083 15.9167 3 15.5V12.5C3.02083 12.0833 3.16667 11.7292 3.4375 11.4375C3.72917 11.1667 4.08333 11.0208 4.5 11H7.5C7.91667 11.0208 8.27083 11.1667 8.5625 11.4375C8.83333 11.7292 8.97917 12.0833 9 12.5V15.5ZM11 4.5C11.0208 4.08333 11.1667 3.72917 11.4375 3.4375C11.7292 3.16667 12.0833 3.02083 12.5 3H15.5C15.9167 3.02083 16.2708 3.16667 16.5625 3.4375C16.8333 3.72917 16.9792 4.08333 17 4.5V7.5C16.9792 7.91667 16.8333 8.27083 16.5625 8.5625C16.2708 8.83333 15.9167 8.97917 15.5 9H12.5C12.0833 8.97917 11.7292 8.83333 11.4375 8.5625C11.1667 8.27083 11.0208 7.91667 11 7.5V4.5ZM17 15.5C16.9792 15.9167 16.8333 16.2708 16.5625 16.5625C16.2708 16.8333 15.9167 16.9792 15.5 17H12.5C12.0833 16.9792 11.7292 16.8333 11.4375 16.5625C11.1667 16.2708 11.0208 15.9167 11 15.5V12.5C11.0208 12.0833 11.1667 11.7292 11.4375 11.4375C11.7292 11.1667 12.0833 11.0208 12.5 11H15.5C15.9167 11.0208 16.2708 11.1667 16.5625 11.4375C16.8333 11.7292 16.9792 12.0833 17 12.5V15.5Z" fill="#3BB24A"/>
</svg>
