<svg width="24" height="25" viewBox="0 0 24 25" fill="none" xmlns="http://www.w3.org/2000/svg">
<path d="M21.8125 19.5629C22.0417 19.7712 22.0729 20.0108 21.9062 20.2816C21.6771 20.5108 21.4375 20.542 21.1875 20.3754L2.1875 5.37537C1.95833 5.1462 1.92708 4.90662 2.09375 4.65662C2.32292 4.42745 2.5625 4.3962 2.8125 4.56287L21.8125 19.5629ZM20.9375 12.8441C20.6042 13.6566 20.0417 14.5837 19.25 15.6254L18.4688 15.0316C19.1979 14.0524 19.7083 13.1983 20 12.4691C19.7917 11.9483 19.4688 11.3441 19.0312 10.6566C18.5729 9.98995 18.0104 9.34412 17.3438 8.71912C16.6562 8.07328 15.875 7.54203 15 7.12537C14.1042 6.7087 13.1042 6.48995 12 6.46912C10.75 6.48995 9.63542 6.76078 8.65625 7.28162L7.8125 6.62537C9 5.87537 10.3958 5.47953 12 5.43787C13.2708 5.4587 14.4062 5.7087 15.4062 6.18787C16.4062 6.68787 17.2812 7.29203 18.0312 8.00037C18.7604 8.68787 19.3646 9.3962 19.8438 10.1254C20.3229 10.8545 20.6875 11.5108 20.9375 12.0941C21.0208 12.3441 21.0208 12.5941 20.9375 12.8441ZM4.75 9.31287L5.5625 9.93787C4.8125 10.8962 4.28125 11.7295 3.96875 12.4379C4.19792 12.9587 4.53125 13.5629 4.96875 14.2504C5.42708 14.917 5.98958 15.5733 6.65625 16.2191C7.34375 16.8649 8.125 17.3962 9 17.8129C9.89583 18.2295 10.8854 18.4483 11.9688 18.4691C13.2396 18.4483 14.3646 18.1774 15.3438 17.6566L16.1875 18.3129C14.9792 19.042 13.5729 19.4274 11.9688 19.4691C10.7188 19.4483 9.59375 19.1983 8.59375 18.7191C7.59375 18.2399 6.71875 17.6462 5.96875 16.9379C5.23958 16.2295 4.63542 15.5212 4.15625 14.8129C3.67708 14.0837 3.3125 13.4274 3.0625 12.8441C2.97917 12.5941 2.97917 12.3441 3.0625 12.0941C3.39583 11.2816 3.95833 10.3545 4.75 9.31287ZM7.96875 12.4379C7.96875 12.3337 7.97917 12.2087 8 12.0629C8.02083 12.0004 8.03125 11.9483 8.03125 11.9066L9 12.6566C9.0625 13.4691 9.375 14.1358 9.9375 14.6566C10.4792 15.1774 11.1562 15.4483 11.9688 15.4691C12.1771 15.4691 12.3646 15.4587 12.5312 15.4379L13.4688 16.1879C13.0104 16.3754 12.5104 16.4691 11.9688 16.4691C10.8438 16.4483 9.90625 16.0524 9.15625 15.2816C8.40625 14.5316 8.01042 13.5837 7.96875 12.4379ZM16 12.4379C16 12.667 15.9896 12.8754 15.9688 13.0629L15 12.2816C14.9375 11.4691 14.625 10.8024 14.0625 10.2816C13.5 9.73995 12.8021 9.4587 11.9688 9.43787C11.8646 9.43787 11.75 9.4587 11.625 9.50037C11.5833 9.50037 11.5417 9.50037 11.5 9.50037L10.5312 8.75037C10.9896 8.56287 11.4688 8.4587 11.9688 8.43787C13.1146 8.47953 14.0625 8.87537 14.8125 9.62537C15.5833 10.3754 15.9792 11.3129 16 12.4379Z" fill="#9E9E9E"/>
</svg>
