<svg width="22" height="20" viewBox="0 0 22 20" fill="none" xmlns="http://www.w3.org/2000/svg">
<g clip-path="url(#clip0_639_5335)">
<path d="M16.2222 0.255034L13.5129 0.250977C10.4691 0.250977 8.50203 2.13458 8.50203 5.04995V7.2626H5.77794C5.54255 7.2626 5.35193 7.44072 5.35193 7.66042V10.8663C5.35193 11.086 5.54277 11.2639 5.77794 11.2639H8.50203V19.3534C8.50203 19.5731 8.69265 19.751 8.92804 19.751H12.4822C12.7176 19.751 12.9082 19.5729 12.9082 19.3534V11.2639H16.0933C16.3287 11.2639 16.5193 11.086 16.5193 10.8663L16.5206 7.66042C16.5206 7.55493 16.4756 7.4539 16.3959 7.37925C16.3161 7.3046 16.2074 7.2626 16.0944 7.2626H12.9082V5.38691C12.9082 4.48538 13.1384 4.02772 14.3966 4.02772L16.2218 4.02711C16.4569 4.02711 16.6476 3.84899 16.6476 3.62949V0.652649C16.6476 0.433352 16.4572 0.25544 16.2222 0.255034Z" fill="#C7E1E5"/>
</g>
<defs>
<clipPath id="clip0_639_5335">
<rect width="20.8929" height="19.5" fill="white" transform="translate(0.553589 0.25)"/>
</clipPath>
</defs>
</svg>
