<svg width="80" height="80" viewBox="0 0 80 80" fill="none" xmlns="http://www.w3.org/2000/svg">
<path d="M14.5695 61.7852L0.800811 64.8455L3.8611 51.0768C1.84571 47.3071 0.794375 43.0973 0.800811 38.8227C0.800811 24.4502 12.4512 12.7998 26.8237 12.7998C41.1961 12.7998 52.8465 24.4502 52.8465 38.8227C52.8465 53.1951 41.1961 64.8455 26.8237 64.8455C22.549 64.852 18.3392 63.8006 14.5695 61.7852Z" fill="#3BB24A"/>
<path d="M27.0492 22.8623C25.0094 22.8646 23.0538 23.676 21.6115 25.1183C20.1691 26.5607 19.3578 28.5162 19.3555 30.556C19.3555 31.0661 19.5581 31.5554 19.9188 31.9161C20.2795 32.2768 20.7688 32.4794 21.2789 32.4794C21.789 32.4794 22.2783 32.2768 22.639 31.9161C22.9997 31.5554 23.2023 31.0661 23.2023 30.556C23.2023 29.5358 23.6076 28.5573 24.329 27.8359C25.0505 27.1145 26.0289 26.7092 27.0492 26.7092C28.0694 26.7092 29.0479 27.1145 29.7693 27.8359C30.4907 28.5573 30.896 29.5358 30.896 30.556C30.896 32.224 29.9155 33.2477 28.3039 34.7353C26.8125 36.1083 25.1258 37.6637 25.1258 40.1732C25.1258 40.6833 25.3284 41.1725 25.6891 41.5332C26.0498 41.8939 26.5391 42.0966 27.0492 42.0966C27.5593 42.0966 28.0485 41.8939 28.4093 41.5332C28.77 41.1725 28.9726 40.6833 28.9726 40.1732C28.9726 39.3899 29.7089 38.6705 30.9111 37.5623C32.5264 36.0708 34.7429 34.0291 34.7429 30.556C34.7406 28.5162 33.9292 26.5607 32.4869 25.1183C31.0445 23.676 29.089 22.8646 27.0492 22.8623Z" fill="white"/>
<path d="M27.05 45.9434C26.2891 45.9434 25.5454 46.169 24.9128 46.5917C24.2802 47.0144 23.7871 47.6152 23.496 48.3181C23.2048 49.021 23.1286 49.7945 23.277 50.5407C23.4255 51.2869 23.7919 51.9724 24.3298 52.5104C24.8678 53.0483 25.5533 53.4147 26.2995 53.5632C27.0457 53.7116 27.8192 53.6354 28.5221 53.3442C29.225 53.0531 29.8258 52.56 30.2485 51.9274C30.6712 51.2948 30.8968 50.5511 30.8968 49.7902C30.8958 48.7703 30.4902 47.7924 29.769 47.0712C29.0478 46.35 28.0699 45.9444 27.05 45.9434Z" fill="white"/>
<path d="M69.6854 63.6492L69.9468 63.5094L70.2362 63.5737L78.9463 65.5097L77.0103 56.7996L76.946 56.5102L77.0857 56.2488C78.4781 53.6445 79.2044 50.7361 79.2 47.7829V47.7817C79.2 37.8504 71.1496 29.8 61.2183 29.8C51.287 29.8 43.2366 37.8504 43.2366 47.7817C43.2366 57.713 51.287 65.7634 61.2183 65.7634H61.2195C64.1727 65.7679 67.081 65.0415 69.6854 63.6492Z" fill="#C7E1E5" stroke="#F5F5F5" stroke-width="1.6"/>
<path d="M61.0013 44.7478C62.0313 44.938 62.8201 45.4839 63.3677 46.3856C63.8748 47.3107 63.9531 48.2668 63.6029 49.2538C63.5194 49.4374 63.3863 49.5818 63.2036 49.6873C62.9804 49.8162 62.7508 49.8405 62.515 49.7602C62.0285 49.5268 61.8597 49.1642 62.0087 48.6722C62.1982 48.1568 62.1641 47.6759 61.9063 47.2293C61.6485 46.7828 61.249 46.5128 60.7079 46.4192C60.2073 46.3023 59.9777 45.9748 60.0189 45.4368C60.1476 44.9565 60.475 44.7269 61.0013 44.7478ZM61.5097 41.4096C63.6017 41.7986 65.1894 42.8846 66.273 44.6676C66.7886 45.5607 67.0762 46.5042 67.1359 47.4982C67.2276 48.5007 67.0866 49.4753 66.7129 50.4217C66.6411 50.6255 66.524 50.7743 66.3616 50.8681C66.1384 50.997 65.8928 51.017 65.6249 50.928C65.1704 50.7033 65.0118 50.3348 65.1491 49.8226C65.6889 48.3201 65.5764 46.883 64.8116 45.5114C64.0061 44.1632 62.8178 43.3472 61.2467 43.0635C60.7462 42.9465 60.5064 42.6249 60.5273 42.0986C60.6763 41.6067 61.0038 41.377 61.5097 41.4096ZM62.0662 38.0844C63.5935 38.3392 64.9652 38.8869 66.1812 39.7274C67.4175 40.5563 68.4224 41.6405 69.1958 42.9801C69.9692 44.3198 70.4116 45.7423 70.523 47.2477C70.6547 48.7413 70.4431 50.2031 69.8884 51.6329C69.8049 51.8164 69.682 51.9551 69.5196 52.0488C69.2964 52.1777 69.0668 52.202 68.831 52.1217C68.3444 51.8884 68.1757 51.5257 68.3247 51.0338C68.767 49.8312 68.9403 48.608 68.8447 47.3641C68.7373 46.1 68.3672 44.9199 67.7344 43.8239C67.1016 42.7278 66.2705 41.8274 65.2412 41.1227C64.2118 40.4179 63.0658 39.9564 61.8032 39.7382C61.3026 39.6213 61.073 39.2938 61.1142 38.7558C61.2429 38.2755 61.5602 38.0517 62.0662 38.0844ZM56.7985 46.8901L55.0794 47.6391C55.5103 49.7448 56.5298 51.5107 58.138 52.9367L59.6637 51.8529C60.0173 51.6216 60.359 51.6274 60.6885 51.8701L63.2003 53.8299C63.5127 54.1367 63.5811 54.4896 63.4056 54.8887L62.104 57.3451C61.8847 57.7153 61.5626 57.8606 61.1378 57.7811C58.917 57.1689 57.0458 56.0842 55.5243 54.5269C54.0348 52.9783 52.9918 51.1718 52.3954 49.1075C51.8075 47.0112 51.8037 44.8483 52.3839 42.6189C52.5275 42.2113 52.8144 42.0051 53.2446 42.0002L56.0228 42.1013C56.4444 42.1284 56.7158 42.3642 56.837 42.8084L57.296 45.994C57.3094 46.3922 57.1435 46.6909 56.7985 46.8901Z" fill="#0D3F46"/>
</svg>
