<svg width="20" height="20" viewBox="0 0 20 20" fill="none" xmlns="http://www.w3.org/2000/svg">
<path d="M17 3C17.5625 3.02083 18.0312 3.21875 18.4062 3.59375C18.7812 3.96875 18.9792 4.4375 19 5V6H1V5C1.02083 4.4375 1.21875 3.96875 1.59375 3.59375C1.96875 3.21875 2.4375 3.02083 3 3H17ZM19 15C18.9792 15.5625 18.7812 16.0312 18.4062 16.4062C18.0312 16.7812 17.5625 16.9792 17 17H3C2.4375 16.9792 1.96875 16.7812 1.59375 16.4062C1.21875 16.0312 1.02083 15.5625 1 15V9H19V15ZM4.5 13C4.1875 13.0208 4.02083 13.1875 4 13.5C4.02083 13.8125 4.1875 13.9792 4.5 14H6.5C6.8125 13.9792 6.97917 13.8125 7 13.5C6.97917 13.1875 6.8125 13.0208 6.5 13H4.5ZM8.5 14H12.5C12.8125 13.9792 12.9792 13.8125 13 13.5C12.9792 13.1875 12.8125 13.0208 12.5 13H8.5C8.1875 13.0208 8.02083 13.1875 8 13.5C8.02083 13.8125 8.1875 13.9792 8.5 14Z" fill="#3BB24A"/>
</svg>
