<svg width="40" height="41" viewBox="0 0 40 41" fill="none" xmlns="http://www.w3.org/2000/svg">
<path d="M14.5 20.4375C14.5417 18.8958 15.0833 17.6042 16.125 16.5625C17.1667 15.5208 18.4583 14.9792 20 14.9375C21.5417 14.9792 22.8333 15.5208 23.875 16.5625C24.9167 17.6042 25.4583 18.8958 25.5 20.4375C25.4583 22.0208 24.9167 23.3333 23.875 24.375C22.8333 25.4167 21.5417 25.9583 20 26C18.4583 25.9583 17.1667 25.4167 16.125 24.375C15.0833 23.3333 14.5417 22.0208 14.5 20.4375ZM20 16.9375C19 16.9792 18.1667 17.3333 17.5 18C16.875 18.6667 16.5417 19.4792 16.5 20.4375C16.5417 21.4375 16.875 22.2708 17.5 22.9375C18.1667 23.6042 19 23.9375 20 23.9375C21 23.9375 21.8333 23.6042 22.5 22.9375C23.125 22.2708 23.4583 21.4375 23.5 20.4375C23.4583 19.4792 23.125 18.6667 22.5 18C21.8333 17.3333 21 16.9792 20 16.9375ZM8.125 18.9375L5.5625 16.625C4.85417 15.875 4.72917 15.0417 5.1875 14.125L7.0625 10.875C7.64583 10 8.4375 9.6875 9.4375 9.9375L12.6875 11C13.5208 10.3333 14.4375 9.79167 15.4375 9.375L16.1875 6.0625C16.4375 5.10417 17.0833 4.58333 18.125 4.5H21.875C22.9167 4.58333 23.5833 5.10417 23.875 6.0625L24.5625 9.375C25.5208 9.79167 26.4375 10.3333 27.3125 11L30.5625 9.9375C31.5625 9.6875 32.3542 10 32.9375 10.875L34.8125 14.125C35.2708 15.0417 35.1458 15.875 34.4375 16.625L31.875 18.9375C31.9583 19.4375 32 19.9375 32 20.4375C32 21.0208 31.9583 21.5625 31.875 22.0625L34.4375 24.375C35.1458 25.125 35.2708 25.9583 34.8125 26.875L32.9375 30.125C32.3542 31 31.5625 31.3125 30.5625 31.0625L27.3125 30C26.4375 30.6667 25.5208 31.2083 24.5625 31.625L23.875 34.9375C23.5833 35.8958 22.9167 36.4167 21.875 36.5H18.125C17.0833 36.4167 16.4375 35.8958 16.1875 34.9375L15.4375 31.625C14.4375 31.2083 13.5208 30.6667 12.6875 30L9.4375 31.0625C8.4375 31.3125 7.64583 31 7.0625 30.125L5.1875 26.875C4.72917 25.9583 4.85417 25.125 5.5625 24.375L8.125 22.0625C8.04167 21.5625 8 21.0208 8 20.4375C8 19.9375 8.04167 19.4375 8.125 18.9375ZM13.875 12.5625L13.0625 13.25L8.8125 11.875L6.9375 15.125L10.25 18.125L10.0625 19.1875C10.0208 19.6042 10 20.0208 10 20.4375C10 20.9375 10.0208 21.3958 10.0625 21.8125L10.25 22.875L6.9375 25.875L8.8125 29.125L13.0625 27.8125L13.875 28.4375C14.5833 28.9792 15.3542 29.3958 16.1875 29.6875L17.1875 30.125L18.125 34.5H21.875L22.875 30.125L23.75 29.6875C24.625 29.3958 25.4167 28.9792 26.125 28.4375L26.9375 27.8125L31.1875 29.125L33.0625 25.875L29.75 22.875L29.9375 21.8125C29.9792 21.3958 30 20.9583 30 20.5C30 20.0417 29.9792 19.6042 29.9375 19.1875L29.75 18.125L33.0625 15.125L31.1875 11.875L26.9375 13.25L26.125 12.5625C25.4167 12.0208 24.625 11.5833 23.75 11.25L22.875 10.875L21.875 6.5H18.125L17.1875 10.875L16.1875 11.25C15.3542 11.5833 14.5833 12.0208 13.875 12.5625Z" fill="#FFAB91"/>
</svg>
