<svg width="24" height="24" viewBox="0 0 24 24" fill="none" xmlns="http://www.w3.org/2000/svg">
<path d="M15.75 12.5C15.75 13.3594 15.7109 14.1927 15.6328 15H8.36719C8.28906 14.1927 8.23698 13.3594 8.21094 12.5C8.23698 11.6406 8.28906 10.8073 8.36719 10H15.6328C15.7109 10.8073 15.75 11.6406 15.75 12.5ZM21.6875 10C21.8958 10.8073 22 11.6406 22 12.5C22 13.3594 21.8958 14.1927 21.6875 15H16.8828C16.9609 14.1667 17 13.3333 17 12.5C17 11.6406 16.9609 10.8073 16.8828 10H21.6875ZM21.2578 8.75H16.7266C16.3099 6.19792 15.5807 4.21875 14.5391 2.8125C16.1016 3.25521 17.4688 3.98438 18.6406 5C19.7865 6.04167 20.6589 7.29167 21.2578 8.75ZM15.4375 8.75H8.5625C8.79688 7.31771 9.14844 6.08073 9.61719 5.03906C10.0339 4.1276 10.4635 3.46354 10.9062 3.04688C11.349 2.65625 11.7135 2.47396 12 2.5C12.2865 2.47396 12.651 2.65625 13.0938 3.04688C13.5365 3.46354 13.9661 4.1276 14.3828 5.03906C14.8516 6.08073 15.2031 7.31771 15.4375 8.75ZM2.74219 8.75C3.34115 7.29167 4.21354 6.04167 5.35938 5C6.53125 3.98438 7.89844 3.25521 9.46094 2.8125C8.41927 4.21875 7.6901 6.19792 7.27344 8.75H2.74219ZM7.11719 10C7.03906 10.8073 6.98698 11.6406 6.96094 12.5C6.98698 13.3333 7.03906 14.1667 7.11719 15H2.3125C2.10417 14.1927 2 13.3594 2 12.5C2 11.6406 2.10417 10.8073 2.3125 10H7.11719ZM9.61719 19.9609C9.14844 18.9193 8.79688 17.6823 8.5625 16.25H15.4375C15.2031 17.6823 14.8516 18.9193 14.3828 19.9609C13.9661 20.8724 13.5365 21.5365 13.0938 21.9531C12.651 22.3438 12.2734 22.526 11.9609 22.5C11.7005 22.526 11.349 22.3438 10.9062 21.9531C10.4635 21.5365 10.0339 20.8724 9.61719 19.9609ZM9.46094 22.1875C7.89844 21.7448 6.53125 21.0156 5.35938 20C4.21354 18.9583 3.34115 17.7083 2.74219 16.25H7.27344C7.6901 18.8021 8.41927 20.7812 9.46094 22.1875ZM14.5391 22.1875C15.5807 20.7812 16.3099 18.8021 16.7266 16.25H21.2578C20.6589 17.7083 19.7865 18.9583 18.6406 20C17.4688 21.0156 16.1016 21.7448 14.5391 22.1875Z" fill="#3BB24A"/>
</svg>
