<svg width="40" height="41" viewBox="0 0 40 41" fill="none" xmlns="http://www.w3.org/2000/svg">
<path d="M4 20.5C4.04167 17.5 4.77083 14.8125 6.1875 12.4375C7.60417 10.0208 9.52083 8.10417 11.9375 6.6875C14.3125 5.27083 17 4.54167 20 4.5C23 4.54167 25.6875 5.27083 28.0625 6.6875C30.4792 8.10417 32.3958 10.0208 33.8125 12.4375C35.2292 14.8125 35.9583 17.5 36 20.5C35.9583 23.5 35.2292 26.1875 33.8125 28.5625C32.3958 30.9792 30.4792 32.8958 28.0625 34.3125C25.6875 35.7292 23 36.4583 20 36.5C17 36.4583 14.3125 35.7292 11.9375 34.3125C9.52083 32.8958 7.60417 30.9792 6.1875 28.5625C4.77083 26.1875 4.04167 23.5 4 20.5ZM20 34.5C23.4167 34.4167 26.375 33.375 28.875 31.375C31.3333 29.3333 32.9375 26.6875 33.6875 23.4375L30.8125 22.75C29.7708 22.4167 29.0625 21.75 28.6875 20.75L27.625 17.625C27.4167 16.8333 27.4583 16.0833 27.75 15.375C28.0833 14.7083 28.625 14.2083 29.375 13.875L31.75 12.9375C30.5 10.9792 28.875 9.4375 26.875 8.3125C24.875 7.1875 22.6667 6.58333 20.25 6.5L20.6875 7.25C21.3125 8.5 21.2083 9.66667 20.375 10.75L19.0625 12.1875C18.9375 12.3542 18.9375 12.5625 19.0625 12.8125L20.1875 14.1875C20.8125 15.0208 20.8542 15.8958 20.3125 16.8125C19.6875 17.6458 18.8542 17.9375 17.8125 17.6875L16.3125 17.1875C16.1458 17.1458 16 17.125 15.875 17.125C15.5833 17.375 15.5 17.6667 15.625 18V18.0625C15.7083 18.1875 15.8125 18.2917 15.9375 18.375L18.8125 19.8125C19.1042 19.8958 19.3958 19.9375 19.6875 19.9375H22.75C23.875 19.9792 24.8125 20.3958 25.5625 21.1875L25.8125 21.4375C26.6042 22.2292 27 23.1667 27 24.25V24.75C26.9583 26.2917 26.2917 27.4583 25 28.25L24.25 28.625C23.6667 29 23.2917 29.5208 23.125 30.1875L22.875 31.25C22.6667 31.9167 22.3125 32.4583 21.8125 32.875C21.2708 33.2917 20.6458 33.5 19.9375 33.5C19.1042 33.4583 18.4167 33.1667 17.875 32.625C17.3333 32.0833 17.0417 31.3958 17 30.5625V29.125C17 28.75 16.8542 28.5 16.5625 28.375C15.5625 27.8333 15.0417 27 15 25.875V24.9375C14.9583 23.8542 14.4167 23.125 13.375 22.75L9.4375 21.5C8.02083 21.0417 7 20.125 6.375 18.75L6.1875 18.3125C6.0625 19.0625 6 19.7708 6 20.4375C6.04167 23.0625 6.6875 25.4375 7.9375 27.5625C9.14583 29.6458 10.8125 31.3125 12.9375 32.5625C15.0208 33.8125 17.375 34.4583 20 34.5ZM7 15.3125L8.1875 17.9375C8.5625 18.7708 9.16667 19.3125 10 19.5625L13.9375 20.8125C14.8542 21.1042 15.6042 21.625 16.1875 22.375C16.7292 23.125 17 23.9792 17 24.9375V25.875C17 26.2083 17.1458 26.4583 17.4375 26.625C18.4375 27.1667 18.9583 28 19 29.125V30.5625C19.0417 31.1458 19.3542 31.4583 19.9375 31.5C20.4375 31.4583 20.75 31.2083 20.875 30.75L21.1875 29.6875C21.5208 28.4792 22.2083 27.5625 23.25 26.9375L24 26.5C24.625 26.0833 24.9583 25.5 25 24.75V24.25C25 23.7083 24.8125 23.2292 24.4375 22.8125L24.1875 22.5625C23.7708 22.1875 23.2917 22 22.75 22H19.6875C19.0625 22 18.4792 21.8542 17.9375 21.5625L15.0625 20.125C14.5208 19.875 14.125 19.4792 13.875 18.9375L13.8125 18.875C13.5208 18.2083 13.4792 17.5417 13.6875 16.875C13.8958 16.25 14.3333 15.75 15 15.375C15.625 15.0833 16.2708 15.0417 16.9375 15.25L18.4375 15.75C18.5208 15.7917 18.6042 15.75 18.6875 15.625C18.7292 15.5833 18.7292 15.5208 18.6875 15.4375L17.5625 14.125C17.1458 13.625 16.9375 13.0833 16.9375 12.5C16.9792 11.9167 17.1875 11.375 17.5625 10.875L18.8125 9.4375C19.1042 9.0625 19.1458 8.66667 18.9375 8.25L18 6.625C15.4583 7.04167 13.2292 8 11.3125 9.5C9.39583 11.0417 7.95833 12.9792 7 15.3125ZM32.75 14.6875L30.0625 15.75C29.6042 16 29.4375 16.4167 29.5625 17L30.625 20.125C30.75 20.4583 30.9792 20.6875 31.3125 20.8125L34 21.4375C34 21.1458 34 20.8333 34 20.5C34 18.4167 33.5833 16.4792 32.75 14.6875Z" fill="#FFAB91"/>
</svg>
