<svg width="27" height="26" viewBox="0 0 27 26" fill="none" xmlns="http://www.w3.org/2000/svg">
<path d="M26.0469 13.16C26.0469 12.2929 25.963 11.3978 25.8232 10.5586H13.7112V15.5097H20.6483C20.3686 17.1041 19.4455 18.5027 18.0749 19.3978L22.2147 22.6146C24.6483 20.3489 26.0469 17.0482 26.0469 13.16Z" fill="#4280EF"/>
<path d="M13.7112 25.6915C17.1797 25.6915 20.0888 24.5447 22.2147 22.5866L18.0748 19.3978C16.928 20.181 15.4455 20.6286 13.7112 20.6286C10.3545 20.6286 7.52931 18.3628 6.49433 15.3418L2.24255 18.6145C4.42439 22.9502 8.844 25.6915 13.7112 25.6915Z" fill="#34A353"/>
<path d="M6.49433 15.3134C5.96286 13.719 5.96286 11.9847 6.49433 10.3903L2.24255 7.0896C0.424357 10.726 0.424357 15.0057 2.24255 18.6142L6.49433 15.3134Z" fill="#F6B704"/>
<path d="M13.7112 5.10377C15.5294 5.07579 17.3196 5.7751 18.6343 7.03385L22.2986 3.34151C19.977 1.15968 16.9 -0.015155 13.7112 0.0128173C8.844 0.0128173 4.42439 2.7541 2.24255 7.0898L6.49433 10.3905C7.52931 7.34155 10.3545 5.10377 13.7112 5.10377Z" fill="#E54335"/>
</svg>
