<svg width="37" height="33" viewBox="0 0 37 33" fill="none" xmlns="http://www.w3.org/2000/svg">
<path d="M10.958 19.9453C10.3252 20.6484 9.27051 20.6484 8.6377 19.9453C7.93457 19.3125 7.93457 18.2578 8.6377 17.625L14.2627 12C14.8955 11.2969 15.9502 11.2969 16.583 12L22.208 17.5547L31.7002 8.0625C32.333 7.35938 33.3877 7.35938 34.0205 8.0625C34.7236 8.69531 34.7236 9.75 34.0205 10.3828L23.333 21.0703C23.0518 21.4219 22.6299 21.5625 22.208 21.5625C21.7158 21.5625 21.2939 21.4219 21.0127 21.0703L15.458 15.5156L10.958 19.9453ZM35.1455 28.875C36.0596 28.875 36.833 29.6484 36.833 30.5625C36.833 31.5469 36.0596 32.25 35.1455 32.25H3.08301C1.81738 32.25 0.833008 31.2656 0.833008 30V2.4375C0.833008 1.52344 1.53613 0.75 2.52051 0.75C3.43457 0.75 4.20801 1.52344 4.20801 2.4375V28.875H35.1455Z" fill="#3BB24A"/>
</svg>
