<svg width="48" height="49" viewBox="0 0 48 49" fill="none" xmlns="http://www.w3.org/2000/svg">
<path d="M39.75 10.8125C40.125 11.3125 40.1042 11.7917 39.6875 12.25L28.6875 22.25C28.1875 22.5833 27.7292 22.5625 27.3125 22.1875L19.875 14.75L9.5625 22.3125C9.0625 22.6042 8.60417 22.5208 8.1875 22.0625C7.89583 21.5625 7.97917 21.1042 8.4375 20.6875L19.4375 12.6875C19.8542 12.3958 20.2708 12.4375 20.6875 12.8125L28.0625 20.125L38.3125 10.75C38.8125 10.375 39.2917 10.3958 39.75 10.8125ZM15 31.5V35.5C14.9583 36.3333 14.6667 37.0417 14.125 37.625C13.5417 38.1667 12.8333 38.4583 12 38.5C11.1667 38.4583 10.4583 38.1667 9.875 37.625C9.33333 37.0417 9.04167 36.3333 9 35.5V31.5C9.04167 30.6667 9.33333 29.9583 9.875 29.375C10.4583 28.7917 11.1667 28.4792 12 28.4375C12.8333 28.4792 13.5417 28.7917 14.125 29.375C14.6667 29.9583 14.9583 30.6667 15 31.5ZM13 35.5V31.5C12.9583 30.875 12.625 30.5417 12 30.5C11.375 30.5417 11.0417 30.875 11 31.5V35.5C11.0417 36.125 11.375 36.4583 12 36.5C12.625 36.4583 12.9583 36.125 13 35.5ZM17 25.4375C17.0417 24.6042 17.3333 23.9167 17.875 23.375C18.4583 22.7917 19.1667 22.4792 20 22.4375C20.8333 22.4792 21.5417 22.7917 22.125 23.375C22.6667 23.9167 22.9583 24.6042 23 25.4375V35.5C22.9583 36.3333 22.6667 37.0417 22.125 37.625C21.5417 38.1667 20.8333 38.4583 20 38.5C19.1667 38.4583 18.4583 38.1667 17.875 37.625C17.3333 37.0417 17.0417 36.3333 17 35.5V25.4375ZM20 24.4375C19.375 24.5208 19.0417 24.8542 19 25.4375V35.5C19.0417 36.125 19.375 36.4583 20 36.5C20.625 36.4583 20.9583 36.125 21 35.5V25.4375C20.9583 24.8542 20.625 24.5208 20 24.4375ZM31 29.5V35.5C30.9583 36.3333 30.6667 37.0417 30.125 37.625C29.5417 38.1667 28.8333 38.4583 28 38.5C27.1667 38.4583 26.4583 38.1667 25.875 37.625C25.3333 37.0417 25.0417 36.3333 25 35.5V29.5C25.0417 28.6667 25.3333 27.9583 25.875 27.375C26.4583 26.7917 27.1667 26.4792 28 26.4375C28.8333 26.4792 29.5417 26.7917 30.125 27.375C30.6667 27.9583 30.9583 28.6667 31 29.5ZM29 35.5V29.5C28.9583 28.875 28.625 28.5208 28 28.4375C27.375 28.5208 27.0417 28.875 27 29.5V35.5C27.0417 36.125 27.375 36.4583 28 36.5C28.625 36.4583 28.9583 36.125 29 35.5ZM33 25.4375C33.0417 24.6042 33.3333 23.9167 33.875 23.375C34.4583 22.7917 35.1667 22.4792 36 22.4375C36.8333 22.4792 37.5417 22.7917 38.125 23.375C38.6667 23.9167 38.9583 24.6042 39 25.4375V35.5C38.9583 36.3333 38.6667 37.0417 38.125 37.625C37.5417 38.1667 36.8333 38.4583 36 38.5C35.1667 38.4583 34.4583 38.1667 33.875 37.625C33.3333 37.0417 33.0417 36.3333 33 35.5V25.4375ZM36 24.4375C35.375 24.5208 35.0417 24.8542 35 25.4375V35.5C35.0417 36.125 35.375 36.4583 36 36.5C36.625 36.4583 36.9583 36.125 37 35.5V25.4375C36.9583 24.8542 36.625 24.5208 36 24.4375Z" fill="#FFAB91"/>
</svg>
