<svg width="52" height="52" viewBox="0 0 52 52" fill="none" xmlns="http://www.w3.org/2000/svg">
<path d="M9.26243 21.9344C9.26243 21.7313 9.26243 21.5281 9.26243 21.325C9.364 17.8719 10.5574 15.0028 12.8425 12.7176C15.1277 10.4324 17.9968 9.23908 21.4499 9.13752C23.7351 9.1883 25.7917 9.7469 27.6198 10.8133C29.448 11.9305 30.9206 13.4031 32.0378 15.2313C33.2058 14.4188 34.5515 14.0125 36.0749 14.0125C38.157 14.0633 39.8835 14.7742 41.2546 16.1453C42.6257 17.5164 43.3366 19.243 43.3874 21.325C43.3874 22.2391 43.2351 23.1278 42.9304 23.991C45.1648 24.4481 47.0183 25.5652 48.4909 27.3426C49.9128 29.0692 50.6491 31.1258 50.6999 33.5125C50.6491 36.2547 49.7097 38.5652 47.8816 40.4442C46.0027 42.2723 43.6921 43.2117 40.9499 43.2625H12.9187C9.82103 43.1609 7.23118 42.0945 5.14915 40.0633C3.1179 37.9813 2.0515 35.3914 1.94994 32.2938C2.00072 29.8563 2.68626 27.7235 4.00658 25.8953C5.32689 24.0672 7.07884 22.7469 9.26243 21.9344Z" fill="#C7E1E5"/>
<path d="M25.1628 26.1837C26.0554 26.3485 26.7391 26.8216 27.2137 27.6031C27.6531 28.4048 27.7211 29.2335 27.4175 30.0889C27.3451 30.248 27.2298 30.3732 27.0715 30.4646C26.878 30.5763 26.679 30.5974 26.4746 30.5277C26.053 30.3255 25.9067 30.0112 26.0358 29.5849C26.2001 29.1382 26.1706 28.7213 25.9471 28.3343C25.7237 27.9473 25.3775 27.7133 24.9085 27.6323C24.4747 27.5309 24.2756 27.2471 24.3114 26.7808C24.4229 26.3646 24.7067 26.1656 25.1628 26.1837ZM25.6034 23.2906C27.4164 23.6277 28.7925 24.5689 29.7316 26.1142C30.1784 26.8882 30.4277 27.7059 30.4794 28.5674C30.5589 29.4362 30.4367 30.2808 30.1128 31.1011C30.0506 31.2777 29.9491 31.4067 29.8084 31.4879C29.6149 31.5996 29.4021 31.617 29.1699 31.5399C28.776 31.3451 28.6386 31.0258 28.7575 30.5818C29.2254 29.2797 29.1279 28.0342 28.465 26.8455C27.7669 25.677 26.7371 24.9698 25.3755 24.724C24.9417 24.6226 24.7339 24.3438 24.752 23.8877C24.8811 23.4614 25.1649 23.2623 25.6034 23.2906ZM26.0857 20.4087C27.4094 20.6296 28.5982 21.1042 29.652 21.8327C30.7235 22.551 31.5944 23.4907 32.2647 24.6517C32.935 25.8127 33.3184 27.0456 33.4149 28.3502C33.529 29.6447 33.3457 30.9116 32.865 32.1508C32.7926 32.3098 32.6861 32.43 32.5453 32.5112C32.3518 32.623 32.1529 32.644 31.9485 32.5744C31.5268 32.3722 31.3806 32.0579 31.5097 31.6315C31.893 30.5893 32.0433 29.5291 31.9604 28.4512C31.8673 27.3556 31.5466 26.3329 30.9981 25.383C30.4497 24.433 29.7294 23.6527 28.8373 23.0419C27.9452 22.4311 26.952 22.0312 25.8577 21.842C25.4239 21.7407 25.2249 21.4569 25.2606 20.9906C25.3721 20.5744 25.6472 20.3804 26.0857 20.4087ZM21.5203 28.0404L20.0304 28.6895C20.4039 30.5144 21.2875 32.0449 22.6812 33.2808L24.0035 32.3414C24.31 32.141 24.6061 32.146 24.8917 32.3564L27.0686 34.0549C27.3393 34.3207 27.3986 34.6266 27.2465 34.9724L26.1184 37.1014C25.9284 37.4222 25.6493 37.5481 25.2811 37.4792C23.3564 36.9486 21.7347 36.0085 20.416 34.6589C19.1251 33.3168 18.2212 31.7511 17.7043 29.9621C17.1949 28.1453 17.1916 26.2708 17.6944 24.3387C17.8188 23.9854 18.0674 23.8066 18.4403 23.8025L20.8481 23.89C21.2135 23.9136 21.4487 24.1179 21.5537 24.5029L21.9515 27.2637C21.9631 27.6088 21.8194 27.8677 21.5203 28.0404Z" fill="#0D3F46"/>
</svg>
