<svg width="32" height="32" viewBox="0 0 32 32" fill="none" xmlns="http://www.w3.org/2000/svg">
<path d="M9.625 5.5C10.1562 5.5 10.5938 5.6875 10.9375 6.0625C11.3125 6.40625 11.5 6.84375 11.5 7.375V9.625C11.5 10.1562 11.3125 10.5938 10.9375 10.9375C10.5938 11.3125 10.1562 11.5 9.625 11.5H7.375C6.84375 11.5 6.40625 11.3125 6.0625 10.9375C5.6875 10.5938 5.5 10.1562 5.5 9.625V7.375C5.5 6.84375 5.6875 6.40625 6.0625 6.0625C6.40625 5.6875 6.84375 5.5 7.375 5.5H9.625ZM9.625 7.375H7.375V9.625H9.625V7.375ZM9.625 13C10.1562 13 10.5938 13.1875 10.9375 13.5625C11.3125 13.9062 11.5 14.3438 11.5 14.875V17.125C11.5 17.6562 11.3125 18.0938 10.9375 18.4375C10.5938 18.8125 10.1562 19 9.625 19H7.375C6.84375 19 6.40625 18.8125 6.0625 18.4375C5.6875 18.0938 5.5 17.6562 5.5 17.125V14.875C5.5 14.3438 5.6875 13.9062 6.0625 13.5625C6.40625 13.1875 6.84375 13 7.375 13H9.625ZM9.625 14.875H7.375V17.125H9.625V14.875ZM5.5 22.375C5.5 21.8438 5.6875 21.4062 6.0625 21.0625C6.40625 20.6875 6.84375 20.5 7.375 20.5H9.625C10.1562 20.5 10.5938 20.6875 10.9375 21.0625C11.3125 21.4062 11.5 21.8438 11.5 22.375V24.625C11.5 25.1562 11.3125 25.5938 10.9375 25.9375C10.5938 26.3125 10.1562 26.5 9.625 26.5H7.375C6.84375 26.5 6.40625 26.3125 6.0625 25.9375C5.6875 25.5938 5.5 25.1562 5.5 24.625V22.375ZM7.375 24.625H9.625V22.375H7.375V24.625ZM17.125 5.5C17.6562 5.5 18.0938 5.6875 18.4375 6.0625C18.8125 6.40625 19 6.84375 19 7.375V9.625C19 10.1562 18.8125 10.5938 18.4375 10.9375C18.0938 11.3125 17.6562 11.5 17.125 11.5H14.875C14.3438 11.5 13.9062 11.3125 13.5625 10.9375C13.1875 10.5938 13 10.1562 13 9.625V7.375C13 6.84375 13.1875 6.40625 13.5625 6.0625C13.9062 5.6875 14.3438 5.5 14.875 5.5H17.125ZM17.125 7.375H14.875V9.625H17.125V7.375ZM13 14.875C13 14.3438 13.1875 13.9062 13.5625 13.5625C13.9062 13.1875 14.3438 13 14.875 13H17.125C17.6562 13 18.0938 13.1875 18.4375 13.5625C18.8125 13.9062 19 14.3438 19 14.875V17.125C19 17.6562 18.8125 18.0938 18.4375 18.4375C18.0938 18.8125 17.6562 19 17.125 19H14.875C14.3438 19 13.9062 18.8125 13.5625 18.4375C13.1875 18.0938 13 17.6562 13 17.125V14.875ZM14.875 17.125H17.125V14.875H14.875V17.125ZM17.125 20.5C17.6562 20.5 18.0938 20.6875 18.4375 21.0625C18.8125 21.4062 19 21.8438 19 22.375V24.625C19 25.1562 18.8125 25.5938 18.4375 25.9375C18.0938 26.3125 17.6562 26.5 17.125 26.5H14.875C14.3438 26.5 13.9062 26.3125 13.5625 25.9375C13.1875 25.5938 13 25.1562 13 24.625V22.375C13 21.8438 13.1875 21.4062 13.5625 21.0625C13.9062 20.6875 14.3438 20.5 14.875 20.5H17.125ZM17.125 22.375H14.875V24.625H17.125V22.375ZM20.5 7.375C20.5 6.84375 20.6875 6.40625 21.0625 6.0625C21.4062 5.6875 21.8438 5.5 22.375 5.5H24.625C25.1562 5.5 25.5938 5.6875 25.9375 6.0625C26.3125 6.40625 26.5 6.84375 26.5 7.375V9.625C26.5 10.1562 26.3125 10.5938 25.9375 10.9375C25.5938 11.3125 25.1562 11.5 24.625 11.5H22.375C21.8438 11.5 21.4062 11.3125 21.0625 10.9375C20.6875 10.5938 20.5 10.1562 20.5 9.625V7.375ZM22.375 9.625H24.625V7.375H22.375V9.625ZM24.625 13C25.1562 13 25.5938 13.1875 25.9375 13.5625C26.3125 13.9062 26.5 14.3438 26.5 14.875V17.125C26.5 17.6562 26.3125 18.0938 25.9375 18.4375C25.5938 18.8125 25.1562 19 24.625 19H22.375C21.8438 19 21.4062 18.8125 21.0625 18.4375C20.6875 18.0938 20.5 17.6562 20.5 17.125V14.875C20.5 14.3438 20.6875 13.9062 21.0625 13.5625C21.4062 13.1875 21.8438 13 22.375 13H24.625ZM24.625 14.875H22.375V17.125H24.625V14.875ZM20.5 22.375C20.5 21.8438 20.6875 21.4062 21.0625 21.0625C21.4062 20.6875 21.8438 20.5 22.375 20.5H24.625C25.1562 20.5 25.5938 20.6875 25.9375 21.0625C26.3125 21.4062 26.5 21.8438 26.5 22.375V24.625C26.5 25.1562 26.3125 25.5938 25.9375 25.9375C25.5938 26.3125 25.1562 26.5 24.625 26.5H22.375C21.8438 26.5 21.4062 26.3125 21.0625 25.9375C20.6875 25.5938 20.5 25.1562 20.5 24.625V22.375ZM22.375 24.625H24.625V22.375H22.375V24.625Z" fill="#121212"/>
</svg>
