<svg width="32" height="32" viewBox="0 0 32 32" fill="none" xmlns="http://www.w3.org/2000/svg">
<path d="M16 19C14.625 18.9688 13.4688 18.5 12.5312 17.5938C11.625 16.6562 11.1719 15.5 11.1719 14.125C11.2031 12.75 11.6719 11.5938 12.5781 10.6562C13.4844 9.75 14.625 9.28125 16 9.25C17.3438 9.28125 18.4844 9.75 19.4219 10.6562C20.3281 11.5938 20.7969 12.75 20.8281 14.125C20.7969 15.5 20.3281 16.6562 19.4219 17.5938C18.5156 18.5 17.375 18.9688 16 19ZM16 11.5C15.25 11.5312 14.625 11.7812 14.125 12.25C13.6562 12.75 13.4062 13.375 13.375 14.125C13.4062 14.875 13.6562 15.5 14.125 16C14.625 16.4688 15.25 16.7188 16 16.75C16.75 16.7188 17.3594 16.4688 17.8281 16C18.3281 15.5 18.5938 14.875 18.625 14.125C18.5938 13.375 18.3281 12.75 17.8281 12.25C17.3594 11.7812 16.75 11.5312 16 11.5ZM25 11.5C23.9375 11.4688 23.0469 11.1094 22.3281 10.4219C21.6406 9.70312 21.2812 8.8125 21.25 7.75C21.2812 6.6875 21.6406 5.79687 22.3281 5.07812C23.0469 4.39062 23.9375 4.03125 25 4C26.0625 4.03125 26.9531 4.39062 27.6719 5.07812C28.3594 5.79687 28.7188 6.6875 28.75 7.75C28.7188 8.8125 28.3594 9.70312 27.6719 10.4219C26.9531 11.1094 26.0625 11.4688 25 11.5ZM18.3438 20.5C20.2188 20.5312 21.7812 21.1406 23.0312 22.3281C24.2812 23.5156 24.9375 24.9844 25 26.7344C25 27.1094 24.875 27.4062 24.625 27.625C24.375 27.875 24.0625 28 23.6875 28H8.3125C7.9375 28 7.625 27.875 7.375 27.625C7.125 27.4062 7 27.1094 7 26.7344C7.0625 24.9844 7.71875 23.5156 8.96875 22.3281C10.2188 21.1406 11.7812 20.5312 13.6562 20.5H18.3438ZM9.34375 25.75H22.6094C22.3594 24.875 21.8438 24.1562 21.0625 23.5938C20.2812 23.0625 19.375 22.7812 18.3438 22.75H13.6094C12.5781 22.7812 11.6719 23.0625 10.8906 23.5938C10.1406 24.1562 9.625 24.875 9.34375 25.75ZM26.875 13C28.0312 13.0312 29 13.4531 29.7812 14.2656C30.5625 15.1094 30.9688 16.1406 31 17.3594C30.9375 17.8906 30.6562 18.1875 30.1562 18.25H20.8281C21.8281 17.0938 22.3438 15.7188 22.375 14.125C22.375 13.9375 22.3594 13.7656 22.3281 13.6094C22.2969 13.5469 22.2812 13.4688 22.2812 13.375C22.8125 13.125 23.375 13 23.9688 13H26.875ZM9.625 14.125C9.65625 15.7188 10.1719 17.0938 11.1719 18.25H1.84375C1.34375 18.1875 1.0625 17.8906 1 17.3594C1.03125 16.1406 1.4375 15.1094 2.21875 14.2656C3 13.4531 3.96875 13.0312 5.125 13H8.03125C8.625 13 9.1875 13.125 9.71875 13.375C9.6875 13.4375 9.67188 13.5 9.67188 13.5625C9.64062 13.75 9.625 13.9375 9.625 14.125ZM7 11.5C5.9375 11.4688 5.04688 11.1094 4.32812 10.4219C3.64062 9.70312 3.28125 8.8125 3.25 7.75C3.28125 6.6875 3.64062 5.79687 4.32812 5.07812C5.04688 4.39062 5.9375 4.03125 7 4C8.0625 4.03125 8.95312 4.39062 9.67188 5.07812C10.3594 5.79687 10.7188 6.6875 10.75 7.75C10.7188 8.8125 10.3594 9.70312 9.67188 10.4219C8.95312 11.1094 8.0625 11.4688 7 11.5Z" fill="#121212"/>
</svg>
