<svg width="16" height="16" viewBox="0 0 16 16" fill="none" xmlns="http://www.w3.org/2000/svg">
<path d="M12.875 4.22266C13.1302 4.22266 13.3398 4.3138 13.5039 4.49609C13.668 4.67839 13.75 4.90625 13.75 5.17969C13.75 5.41667 13.668 5.61719 13.5039 5.78125C13.3398 5.94531 13.1302 6.02734 12.875 6.02734H10.9883L10.4141 9.52734H12C12.2552 9.52734 12.4648 9.60938 12.6289 9.77344C12.793 9.9375 12.875 10.1471 12.875 10.4023C12.875 10.6393 12.793 10.8398 12.6289 11.0039C12.4648 11.168 12.2552 11.25 12 11.25H10.1133L9.8125 13.1367C9.6849 13.5924 9.39323 13.8385 8.9375 13.875C8.88281 13.875 8.83724 13.875 8.80078 13.875C8.54557 13.8203 8.35417 13.7018 8.22656 13.5195C8.09896 13.319 8.04427 13.1003 8.0625 12.8633L8.33594 11.25H5.73828L5.4375 13.1367C5.3099 13.5924 5.01823 13.8385 4.5625 13.875C4.50781 13.875 4.46224 13.8568 4.42578 13.8203C4.17057 13.7656 3.97917 13.6471 3.85156 13.4648C3.72396 13.2643 3.66927 13.0456 3.6875 12.8086L3.96094 11.1953H2.375C2.11979 11.1953 1.91016 11.1133 1.74609 10.9492C1.58203 10.8034 1.5 10.6029 1.5 10.3477C1.5 10.1107 1.58203 9.90104 1.74609 9.71875C1.91016 9.55469 2.11979 9.47266 2.375 9.47266H4.26172L4.83594 5.97266H3.25C2.99479 5.97266 2.78516 5.89062 2.62109 5.72656C2.45703 5.5625 2.375 5.35286 2.375 5.09766C2.375 4.86068 2.45703 4.65104 2.62109 4.46875C2.78516 4.30469 2.99479 4.22266 3.25 4.22266H5.13672L5.4375 2.33594C5.49219 2.08073 5.61068 1.88932 5.79297 1.76172C5.99349 1.63411 6.21224 1.58854 6.44922 1.625C6.70443 1.66146 6.89583 1.77083 7.02344 1.95312C7.15104 2.15365 7.20573 2.3724 7.1875 2.60938L6.91406 4.22266H9.51172L9.8125 2.33594C9.86719 2.08073 9.98568 1.88932 10.168 1.76172C10.3685 1.63411 10.5872 1.58854 10.8242 1.625C11.0794 1.66146 11.2708 1.77083 11.3984 1.95312C11.526 2.15365 11.5807 2.3724 11.5625 2.60938L11.2891 4.22266H12.875ZM8.63672 9.47266L9.21094 5.97266H6.61328L6.03906 9.47266H8.63672Z" fill="#121212"/>
</svg>
