<svg width="32" height="32" viewBox="0 0 32 32" fill="none" xmlns="http://www.w3.org/2000/svg">
<path d="M23.875 4C24.5625 4.0625 24.9375 4.4375 25 5.125C24.9375 5.8125 24.5625 6.1875 23.875 6.25H23.5V7.14062C23.4375 9.07812 22.75 10.7656 21.4375 12.2031L17.5938 16L21.4375 19.8438C22.75 21.2188 23.4375 22.8906 23.5 24.8594V25.75H23.875C24.5625 25.8125 24.9375 26.1875 25 26.875C24.9375 27.5625 24.5625 27.9375 23.875 28H8.125C7.4375 27.9375 7.0625 27.5625 7 26.875C7.0625 26.1875 7.4375 25.8125 8.125 25.75H8.5V24.8594C8.53125 22.8906 9.23438 21.2188 10.6094 19.8438L14.4062 16L10.6094 12.2031C9.23438 10.7656 8.53125 9.07812 8.5 7.14062V6.25H8.125C7.4375 6.1875 7.0625 5.8125 7 5.125C7.0625 4.4375 7.4375 4.0625 8.125 4H23.875ZM16 17.5938L12.2031 21.4375C11.2656 22.375 10.7812 23.5156 10.75 24.8594V25.75H21.25V24.8594C21.2188 23.5156 20.75 22.375 19.8438 21.4375L16 17.5938ZM16 14.4062L19.8438 10.6094C20.75 9.64062 21.2188 8.48438 21.25 7.14062V6.20312H10.75V7.14062C10.7812 8.48438 11.2656 9.64062 12.2031 10.6094L16 14.4062Z" fill="#121212"/>
</svg>
