<svg width="26" height="26" viewBox="0 0 26 26" fill="none" xmlns="http://www.w3.org/2000/svg">
<path d="M1.75 13C1.75 12.5858 1.41421 12.25 1 12.25C0.585786 12.25 0.25 12.5858 0.25 13H1.75ZM13 25V25.75V25ZM25.75 13C25.75 12.5858 25.4142 12.25 25 12.25C24.5858 12.25 24.25 12.5858 24.25 13H25.75ZM13.75 1C13.75 0.585786 13.4142 0.25 13 0.25C12.5858 0.25 12.25 0.585786 12.25 1H13.75ZM13 16L12.4697 16.5303C12.7626 16.8232 13.2374 16.8232 13.5303 16.5303L13 16ZM18.0303 12.0303C18.3232 11.7374 18.3232 11.2626 18.0303 10.9697C17.7374 10.6768 17.2626 10.6768 16.9697 10.9697L18.0303 12.0303ZM9.03033 10.9697C8.73744 10.6768 8.26256 10.6768 7.96967 10.9697C7.67678 11.2626 7.67678 11.7374 7.96967 12.0303L9.03033 10.9697ZM0.25 13C0.25 16.3815 1.5933 19.6245 3.98439 22.0156L5.04505 20.955C2.93526 18.8452 1.75 15.9837 1.75 13H0.25ZM3.98439 22.0156C6.37548 24.4067 9.61849 25.75 13 25.75V24.25C10.0163 24.25 7.15483 23.0647 5.04505 20.955L3.98439 22.0156ZM13 25.75C16.3815 25.75 19.6245 24.4067 22.0156 22.0156L20.955 20.955C18.8452 23.0647 15.9837 24.25 13 24.25V25.75ZM22.0156 22.0156C24.4067 19.6245 25.75 16.3815 25.75 13H24.25C24.25 15.9837 23.0647 18.8452 20.955 20.955L22.0156 22.0156ZM12.25 1V16H13.75V1H12.25ZM13.5303 16.5303L18.0303 12.0303L16.9697 10.9697L12.4697 15.4697L13.5303 16.5303ZM13.5303 15.4697L9.03033 10.9697L7.96967 12.0303L12.4697 16.5303L13.5303 15.4697Z" fill="#3BB24A"/>
</svg>
