<svg width="24" height="24" viewBox="0 0 24 24" fill="none" xmlns="http://www.w3.org/2000/svg">
<path d="M21.2578 16.2109C21.8307 16.5234 22.0651 16.9922 21.9609 17.6172L21.0625 21.5625C20.8802 22.1615 20.4896 22.474 19.8906 22.5C16.5573 22.474 13.5495 21.6536 10.8672 20.0391C8.1849 18.4505 6.04948 16.3151 4.46094 13.6328C2.84635 10.9505 2.02604 7.95573 2 4.64844C2.02604 4.02344 2.33854 3.61979 2.9375 3.4375L6.84375 2.53906C7.52083 2.4349 8.0026 2.66927 8.28906 3.24219L10.0859 7.46094C10.2943 8.03385 10.1771 8.51562 9.73438 8.90625L7.66406 10.625C8.3151 11.9792 9.17448 13.1901 10.2422 14.2578C11.3099 15.3255 12.5208 16.1849 13.875 16.8359L15.5938 14.7656C15.9844 14.3229 16.4661 14.2057 17.0391 14.4141L21.2578 16.2109ZM14.5 11.25C14.1354 11.25 13.8359 11.1328 13.6016 10.8984C13.3672 10.6641 13.25 10.3646 13.25 10V6.25C13.25 5.88542 13.3672 5.58594 13.6016 5.35156C13.8359 5.11719 14.1354 5 14.5 5C14.8646 5 15.1641 5.11719 15.3984 5.35156C15.6328 5.58594 15.75 5.88542 15.75 6.25V6.99219L19.8516 2.85156C20.112 2.61719 20.4115 2.5 20.75 2.5C21.0885 2.5 21.388 2.61719 21.6484 2.85156C21.8828 3.11198 22 3.41146 22 3.75C22 4.08854 21.8828 4.38802 21.6484 4.64844L17.5078 8.75H18.25C18.6146 8.75 18.9141 8.86719 19.1484 9.10156C19.3828 9.33594 19.5 9.63542 19.5 10C19.5 10.3646 19.3828 10.6641 19.1484 10.8984C18.9141 11.1328 18.6146 11.25 18.25 11.25H14.5Z" fill="#3BB24A"/>
</svg>
