<svg width="18" height="18" viewBox="0 0 18 18" fill="none" xmlns="http://www.w3.org/2000/svg">
<path fill-rule="evenodd" clip-rule="evenodd" d="M14.7634 4.29433C14.7634 4.87863 14.2898 5.35218 13.7056 5.35218C13.1214 5.35218 12.6477 4.87863 12.6477 4.29433C12.6477 3.71004 13.1214 3.23648 13.7056 3.23648C14.2899 3.23648 14.7634 3.71004 14.7634 4.29433ZM8.99996 11.9384C7.37711 11.9384 6.06155 10.6228 6.06155 8.99996C6.06155 7.3771 7.37711 6.06154 8.99996 6.06154C10.6228 6.06154 11.9384 7.3771 11.9384 8.99996C11.9384 10.6228 10.6228 11.9384 8.99996 11.9384ZM8.99996 4.47312C6.49984 4.47312 4.47312 6.49983 4.47312 8.99996C4.47312 11.5001 6.49984 13.5268 8.99996 13.5268C11.5001 13.5268 13.5268 11.5001 13.5268 8.99996C13.5268 6.49983 11.5001 4.47312 8.99996 4.47312ZM8.99996 1.77299C11.3538 1.77299 11.6326 1.78195 12.5621 1.82437C13.4216 1.86363 13.8884 2.00715 14.199 2.12795C14.6104 2.28787 14.9041 2.47891 15.2126 2.78745C15.5212 3.09585 15.7122 3.38951 15.8721 3.80108C15.9928 4.11169 16.1364 4.57849 16.1757 5.43799C16.2181 6.3676 16.2271 6.64639 16.2271 9.00023C16.2271 11.3541 16.2181 11.6329 16.1757 12.5623C16.1364 13.4218 15.9929 13.8886 15.8721 14.1992C15.7122 14.6107 15.5212 14.9043 15.2126 15.2129C14.9042 15.5214 14.6105 15.7125 14.199 15.8724C13.8884 15.993 13.4216 16.1367 12.5621 16.176C11.6326 16.2184 11.3538 16.2273 8.99996 16.2273C6.64598 16.2273 6.36719 16.2184 5.43772 16.176C4.57822 16.1367 4.11142 15.9932 3.80081 15.8724C3.38938 15.7125 3.09572 15.5214 2.78718 15.2129C2.47878 14.9045 2.28759 14.6108 2.12768 14.1992C2.00702 13.8886 1.86335 13.4218 1.8241 12.5623C1.78167 11.6327 1.77272 11.3539 1.77272 9.00023C1.77272 6.64639 1.78167 6.3676 1.8241 5.43799C1.86335 4.57849 2.00688 4.11169 2.12768 3.80108C2.28759 3.38965 2.47864 3.09599 2.78718 2.78745C3.09558 2.47891 3.38924 2.28787 3.80081 2.12795C4.11142 2.00729 4.57822 1.86363 5.43772 1.82437C6.36733 1.78195 6.64612 1.77299 8.99996 1.77299ZM8.99996 0.18457C6.6059 0.18457 6.30562 0.194763 5.36541 0.2376C4.42712 0.280438 3.78621 0.429473 3.22561 0.647378C2.64586 0.872584 2.15426 1.1741 1.66418 1.66418C1.1741 2.15426 0.872584 2.64585 0.647379 3.2256C0.429473 3.78634 0.280438 4.42711 0.2376 5.3654C0.194763 6.30562 0.18457 6.60589 0.18457 8.99996C0.18457 11.394 0.194763 11.6943 0.2376 12.6345C0.280438 13.5728 0.429473 14.2136 0.647379 14.7743C0.872584 15.3541 1.1741 15.8457 1.66418 16.3357C2.15426 16.8258 2.64586 17.1272 3.22561 17.3525C3.78635 17.5704 4.42712 17.7195 5.36541 17.7623C6.30562 17.8051 6.6059 17.8153 8.99996 17.8153C11.394 17.8153 11.6943 17.8051 12.6345 17.7623C13.5728 17.7195 14.2136 17.5704 14.7743 17.3525C15.3541 17.1272 15.8457 16.8258 16.3358 16.3357C16.8258 15.8457 17.1272 15.3541 17.3526 14.7743C17.5705 14.2136 17.7195 13.5728 17.7623 12.6345C17.8052 11.6943 17.8154 11.394 17.8154 8.99996C17.8154 6.60589 17.8052 6.30562 17.7623 5.3654C17.7195 4.42711 17.5705 3.78634 17.3526 3.2256C17.1272 2.64585 16.8258 2.15426 16.3358 1.66418C15.8457 1.1741 15.3541 0.872721 14.7743 0.647378C14.2136 0.429473 13.5728 0.280438 12.6345 0.2376C11.6943 0.194763 11.394 0.18457 8.99996 0.18457Z" fill="#C7E1E5"/>
</svg>
