<svg width="20" height="20" viewBox="0 0 20 20" fill="none" xmlns="http://www.w3.org/2000/svg">
<path d="M7 13V7H13V13H7ZM16 7.5V9.5H17.5C17.8125 9.52083 17.9792 9.6875 18 10C17.9792 10.3125 17.8125 10.4792 17.5 10.5H16V12.5H17.5C17.8125 12.5208 17.9792 12.6875 18 13C17.9792 13.3125 17.8125 13.4792 17.5 13.5H16V14C15.9792 14.5625 15.7812 15.0312 15.4062 15.4062C15.0312 15.7812 14.5625 15.9792 14 16H13.5V17.5C13.4792 17.8125 13.3125 17.9792 13 18C12.6875 17.9792 12.5208 17.8125 12.5 17.5V16H10.5V17.5C10.4792 17.8125 10.3125 17.9792 10 18C9.6875 17.9792 9.52083 17.8125 9.5 17.5V16H7.5V17.5C7.47917 17.8125 7.3125 17.9792 7 18C6.6875 17.9792 6.52083 17.8125 6.5 17.5V16H6C5.4375 15.9792 4.96875 15.7812 4.59375 15.4062C4.21875 15.0312 4.02083 14.5625 4 14V13.5H2.5C2.1875 13.4792 2.02083 13.3125 2 13C2.02083 12.6875 2.1875 12.5208 2.5 12.5H4V10.5H2.5C2.1875 10.4792 2.02083 10.3125 2 10C2.02083 9.6875 2.1875 9.52083 2.5 9.5H4V7.5H2.5C2.1875 7.47917 2.02083 7.3125 2 7C2.02083 6.6875 2.1875 6.52083 2.5 6.5H4V6C4.02083 5.4375 4.21875 4.96875 4.59375 4.59375C4.96875 4.21875 5.4375 4.02083 6 4H6.5V2.5C6.52083 2.1875 6.6875 2.02083 7 2C7.3125 2.02083 7.47917 2.1875 7.5 2.5V4H9.5V2.5C9.52083 2.1875 9.6875 2.02083 10 2C10.3125 2.02083 10.4792 2.1875 10.5 2.5V4H12.5V2.5C12.5208 2.1875 12.6875 2.02083 13 2C13.3125 2.02083 13.4792 2.1875 13.5 2.5V4H14C14.5625 4.02083 15.0312 4.21875 15.4062 4.59375C15.7812 4.96875 15.9792 5.4375 16 6V6.5H17.5C17.8125 6.52083 17.9792 6.6875 18 7C17.9792 7.3125 17.8125 7.47917 17.5 7.5H16ZM14 13.5V6.5C13.9792 6.1875 13.8125 6.02083 13.5 6H6.5C6.1875 6.02083 6.02083 6.1875 6 6.5V13.5C6.02083 13.8125 6.1875 13.9792 6.5 14H13.5C13.8125 13.9792 13.9792 13.8125 14 13.5Z" fill="#3BB24A"/>
</svg>
