<svg width="24" height="24" viewBox="0 0 24 24" fill="none" xmlns="http://www.w3.org/2000/svg">
<path d="M12 16.25C10.9323 16.224 10.0469 15.8594 9.34375 15.1562C8.64062 14.4531 8.27604 13.5677 8.25 12.5V6.25C8.27604 5.18229 8.64062 4.29688 9.34375 3.59375C10.0469 2.89062 10.9323 2.52604 12 2.5C13.0677 2.52604 13.9531 2.89062 14.6562 3.59375C15.3594 4.29688 15.724 5.18229 15.75 6.25L12.625 6.21094C12.2344 6.23698 12.026 6.44531 12 6.83594C12.026 7.22656 12.2344 7.4349 12.625 7.46094H15.75V8.75H12.625C12.2344 8.77604 12.026 8.98438 12 9.375C12.026 9.76562 12.2344 9.97396 12.625 10H15.75V11.25H12.625C12.2344 11.276 12.026 11.4844 12 11.875C12.026 12.2656 12.2344 12.474 12.625 12.5H15.75C15.724 13.5677 15.3594 14.4531 14.6562 15.1562C13.9531 15.8594 13.0677 16.224 12 16.25ZM17.9375 10C18.5104 10.0521 18.8229 10.3516 18.875 10.8984V12.5C18.849 14.2708 18.276 15.7812 17.1562 17.0312C16.0625 18.2812 14.6562 19.0365 12.9375 19.2969V20.625H14.5C14.8646 20.625 15.1641 20.7552 15.3984 21.0156C15.6328 21.25 15.75 21.5625 15.75 21.9531C15.6979 22.2917 15.4896 22.474 15.125 22.5H8.875C8.51042 22.474 8.30208 22.2917 8.25 21.9531C8.25 21.5625 8.36719 21.25 8.60156 21.0156C8.83594 20.7552 9.13542 20.625 9.5 20.625H11.0625V19.2578C9.31771 18.9714 7.89844 18.1641 6.80469 16.8359C5.71094 15.5078 5.15104 13.9453 5.125 12.1484V10.8984C5.17708 10.3516 5.48958 10.0521 6.0625 10C6.63542 10.0521 6.94792 10.3516 7 10.8984V12.3047C7.02604 13.6328 7.48177 14.8047 8.36719 15.8203C9.2526 16.8099 10.3594 17.3698 11.6875 17.5C13.1719 17.5521 14.4219 17.0964 15.4375 16.1328C16.4271 15.1953 16.9479 13.9844 17 12.5V10.8984C17.0521 10.3516 17.3646 10.0521 17.9375 10Z" fill="#3BB24A"/>
</svg>
