<svg width="18" height="18" viewBox="0 0 18 18" fill="none" xmlns="http://www.w3.org/2000/svg">
<g clip-path="url(#clip0_639_5345)">
<path d="M17.9996 10.9448V17.5995H14.1417V11.3904C14.1417 9.83069 13.5836 8.76622 12.1872 8.76622C11.1212 8.76622 10.4868 9.48359 10.2077 10.1775C10.1059 10.4256 10.0797 10.7709 10.0797 11.1182V17.5995H6.22042C6.22042 17.5995 6.27239 7.08342 6.22042 5.99388H10.0793V7.63893C10.0715 7.65123 10.0613 7.6645 10.054 7.67642H10.0793V7.63893C10.592 6.84928 11.5076 5.72124 13.5571 5.72124C16.0962 5.72119 17.9996 7.37997 17.9996 10.9448ZM2.18344 0.399414C0.863189 0.399414 -0.000366211 1.2654 -0.000366211 2.40419C-0.000366211 3.51817 0.838206 4.41044 2.13222 4.41044H2.158C3.50382 4.41044 4.34081 3.51834 4.34081 2.40419C4.31545 1.2654 3.50382 0.399414 2.18344 0.399414ZM0.228841 17.5995H4.08666V5.99388H0.228841V17.5995Z" fill="#C7E1E5"/>
</g>
<defs>
<clipPath id="clip0_639_5345">
<rect width="18" height="18" fill="white"/>
</clipPath>
</defs>
</svg>
