<svg width="120" height="40" viewBox="0 0 120 40" fill="none" xmlns="http://www.w3.org/2000/svg">
<path d="M120 35.3796C120 37.5396 118.455 39.2906 116.544 39.2906H3.46C1.55 39.2906 0 37.5406 0 35.3786V4.1836C0 2.0236 1.55 0.266602 3.46 0.266602H116.544C118.455 0.266602 119.999 2.0236 119.999 4.1836L120 35.3796Z" fill="#121212"/>
<path d="M23.084 11.4085C23.0796 11.3646 23.0773 11.3206 23.077 11.2765C23.077 10.6325 23.499 10.1085 24.017 10.1085C24.548 10.1085 24.964 10.6215 24.964 11.2765C24.964 11.4245 24.942 11.5675 24.9 11.6995C25.056 11.4525 25.145 11.1415 25.145 10.8155C25.145 10.0325 24.645 9.39551 24.029 9.39551C23.414 9.39551 22.913 10.0325 22.913 10.8155C22.913 11.0085 22.943 11.1965 23.003 11.3775L23.083 11.4075L23.084 11.4085ZM20.305 10.1695C20.3365 10.1647 20.3682 10.1624 20.4 10.1625C20.813 10.1625 21.183 10.5675 21.28 11.1255C21.29 11.1865 21.296 11.2475 21.299 11.3075L21.38 11.2695C21.394 11.1725 21.4 11.0825 21.4 10.9905C21.4 10.2685 21.018 9.65851 20.565 9.65851C20.179 9.65851 19.855 10.0825 19.762 10.6565C19.867 10.3955 20.06 10.2105 20.305 10.1695ZM28.077 24.7425C28.2916 23.7834 28.3302 22.7934 28.191 21.8205C27.945 20.1025 25.528 14.7545 25.112 14.1575C24.869 14.1915 24.225 14.5645 23.702 14.8665C23.096 15.2165 22.469 15.5785 22.042 15.7015C21.9519 15.7269 21.8587 15.7396 21.765 15.7395C21.142 15.7395 20.467 15.2125 20.032 14.7975C19.956 15.6025 19.527 16.6245 19.063 17.1495C18.77 17.4855 18.508 18.2545 18.254 18.9975C18.02 19.6855 17.777 20.3975 17.48 20.8665C16.878 21.8035 16.533 23.6235 16.97 24.6585C17.183 25.1595 17.951 25.7525 18.63 26.2755C19.458 26.9145 20.174 27.4655 20.253 28.0235C20.346 28.6815 19.996 29.0465 19.646 29.2195L20.534 30.2355C20.671 30.2555 21.001 30.2955 21.519 30.2955C22.125 30.2955 22.797 30.2425 23.517 30.1385C25.284 29.8765 26.515 28.4205 26.758 28.1105C26.759 27.7005 26.772 25.8785 26.891 25.3085C26.938 25.0885 27.116 24.7225 27.789 24.7225C27.894 24.7225 27.993 24.7315 28.077 24.7425Z" fill="#121212"/>
<path d="M20.3649 13.4603C20.3999 13.5953 20.7059 13.9403 21.1829 14.2533C21.2509 14.2963 21.3149 14.3393 21.3739 14.3803C21.6389 14.5603 21.7569 14.6343 21.9469 14.6083C22.2269 14.5713 23.2589 13.9463 23.6989 13.6783L23.8089 13.6123C23.9729 13.5123 24.1039 13.4443 24.2089 13.3893C24.4189 13.2813 24.4369 13.2633 24.4459 13.2233C24.4219 13.1623 24.2269 12.9983 23.8539 12.8693C23.7349 12.8273 23.5669 12.7593 23.3719 12.6823C22.9489 12.5133 22.3709 12.2823 22.1369 12.2413C22.1271 12.2393 22.117 12.2383 22.1069 12.2383C21.9069 12.2383 21.5039 12.4883 21.1029 12.8613C20.9059 13.0393 20.5209 13.3403 20.3649 13.4603ZM16.8409 27.2833C16.6679 26.9933 16.5179 26.7413 16.4369 26.6163C16.1169 26.1193 15.5639 25.5643 15.2989 25.5643C15.284 25.5635 15.2691 25.567 15.2559 25.5743C15.1159 25.6543 14.9959 25.8993 14.8819 26.1353C14.7239 26.4623 14.5439 26.8333 14.2119 27.0343C13.9669 27.1833 13.5919 27.2643 13.2299 27.3433C12.9719 27.3993 12.3679 27.5303 12.3399 27.6533C12.2999 27.8173 12.3369 27.9883 12.3829 28.2033C12.4369 28.4583 12.5049 28.7753 12.4469 29.1643C12.4069 29.4083 12.3319 29.6413 12.2609 29.8673C12.1609 30.1803 12.0479 30.5373 12.1449 30.6453C12.2649 30.7523 12.9909 30.8693 13.5209 30.9553C14.1869 31.0633 14.8759 31.1753 15.2979 31.3513L15.4089 31.3983C16.1649 31.7153 17.5709 32.3063 18.2809 32.3063C18.3459 32.3063 18.4009 32.3013 18.4459 32.2913C18.5679 32.2093 19.0869 31.8363 19.1849 31.3773C19.3179 30.7873 18.7759 30.0973 18.4419 29.7393C18.0709 29.3413 17.3589 28.1513 16.8409 27.2833ZM32.8979 28.6983L32.8119 28.6533C32.2169 28.3393 31.9039 27.4853 31.9459 26.8433C31.9543 26.7485 31.9437 26.653 31.9149 26.5623C31.8049 26.7423 31.6479 26.9713 31.4619 27.1573C31.1449 27.4743 30.3719 27.8153 29.6759 27.8153C29.4159 27.8153 29.1789 27.7693 28.9719 27.6793C28.2759 27.3763 28.1819 26.5063 28.1799 26.0703C28.1704 26.0728 28.161 26.0762 28.1519 26.0803C28.1089 26.2303 28.1499 26.7373 28.1779 27.0783C28.1929 27.2613 28.2079 27.4493 28.2179 27.6223C28.2569 28.3853 28.0139 29.6783 27.8029 30.6293C27.6029 31.5603 27.9749 32.2133 28.4269 32.3543C28.4713 32.368 28.5175 32.3747 28.5639 32.3743C28.9799 32.3743 29.6699 31.9423 30.2799 31.3003C30.7129 30.8453 31.6779 30.3523 32.5289 29.9183C33.0089 29.6733 33.5039 29.4193 33.6449 29.2913C33.6769 29.2613 33.6809 29.2453 33.6809 29.2453C33.6729 29.1053 33.1099 28.8103 32.8979 28.6983Z" fill="#121212"/>
<path d="M34.306 28.1493C33.471 27.8073 33.113 27.3533 33.148 26.6763C33.184 25.8853 32.735 25.3063 32.522 25.0773C32.651 24.5853 33.027 22.8853 32.522 21.4073C31.98 19.8273 30.325 17.4113 28.618 15.0373C27.918 14.0633 27.886 13.0033 27.848 11.7773C27.811 10.6063 27.77 9.27932 27.117 7.80432C26.407 6.19932 24.983 5.27832 23.21 5.27832C22.155 5.27832 21.072 5.60832 20.24 6.18232C18.533 7.36032 18.758 9.92832 18.908 11.6263C18.928 11.8593 18.948 12.0793 18.958 12.2663C19.058 13.9303 18.968 14.8073 18.849 15.0743C18.773 15.2483 18.396 15.7443 17.998 16.2693C17.586 16.8123 17.118 17.4273 16.735 18.0003C16.278 18.6903 15.909 19.7453 15.553 20.7643C15.292 21.5103 15.045 22.2153 14.805 22.6373C14.4748 23.2186 14.3861 23.9063 14.558 24.5523C14.386 24.6723 14.137 24.9073 13.927 25.3513C13.673 25.8933 13.157 26.1843 12.087 26.3903C11.595 26.4903 11.255 26.6973 11.077 27.0053C10.82 27.4523 10.96 28.0153 11.089 28.3993C11.279 28.9633 11.16 29.3213 10.945 29.9703C10.895 30.1203 10.84 30.2903 10.783 30.4773C10.693 30.7723 10.725 31.0403 10.878 31.2743C11.283 31.8933 12.463 32.1113 13.678 32.2543C14.404 32.3403 15.198 32.6313 15.966 32.9113C16.718 33.1863 17.496 33.4713 18.204 33.5573C18.311 33.5703 18.418 33.5773 18.52 33.5773C19.588 33.5773 20.07 32.8693 20.224 32.5773C20.607 32.4993 21.93 32.2493 23.294 32.2153C24.654 32.1763 25.972 32.4453 26.345 32.5283C26.462 32.7533 26.772 33.2663 27.265 33.5303C27.535 33.6783 27.913 33.7633 28.299 33.7633C28.711 33.7633 29.496 33.6663 30.117 33.0133C30.737 32.3563 32.284 31.5183 33.414 30.9063C33.666 30.7703 33.902 30.6423 34.109 30.5263C34.744 30.1753 35.089 29.6723 35.059 29.1473C35.033 28.7113 34.745 28.3293 34.306 28.1493ZM24.03 9.39532C24.645 9.39532 25.146 10.0323 25.146 10.8153C25.146 11.1413 25.056 11.4523 24.9 11.6993C24.942 11.5673 24.964 11.4243 24.964 11.2763C24.964 10.6213 24.549 10.1083 24.018 10.1083C23.5 10.1083 23.078 10.6323 23.078 11.2763C23.078 11.3203 23.08 11.3643 23.084 11.4083L23.004 11.3783C22.944 11.1963 22.914 11.0083 22.914 10.8153C22.914 10.0323 23.414 9.39532 24.03 9.39532ZM22.137 12.2413C22.372 12.2833 22.95 12.5143 23.372 12.6823C23.568 12.7603 23.736 12.8273 23.855 12.8703C24.228 12.9983 24.423 13.1633 24.447 13.2243C24.437 13.2643 24.419 13.2813 24.21 13.3903C24.074 13.4598 23.9406 13.5342 23.81 13.6133L23.7 13.6793C23.26 13.9463 22.228 14.5723 21.948 14.6093C21.758 14.6343 21.64 14.5603 21.375 14.3813C21.3123 14.3378 21.2489 14.2951 21.185 14.2533C20.707 13.9403 20.401 13.5963 20.365 13.4613C20.521 13.3413 20.907 13.0403 21.105 12.8613C21.505 12.4893 21.908 12.2393 22.107 12.2393C22.117 12.2393 22.127 12.2393 22.137 12.2413ZM20.564 9.65932C21.017 9.65932 21.4 10.2693 21.4 10.9923C21.4 11.0823 21.393 11.1733 21.38 11.2703C21.3523 11.2821 21.3249 11.2948 21.298 11.3083C21.295 11.2473 21.2887 11.1866 21.279 11.1263C21.182 10.5683 20.812 10.1633 20.399 10.1633C20.3675 10.1633 20.3361 10.1656 20.305 10.1703C20.059 10.2113 19.867 10.3963 19.761 10.6573C19.854 10.0843 20.179 9.65932 20.564 9.65932ZM19.184 31.3793C19.087 31.8373 18.568 32.2103 18.446 32.2933C18.3917 32.3043 18.3364 32.3093 18.281 32.3083C17.571 32.3083 16.165 31.7173 15.409 31.3993L15.298 31.3523C14.876 31.1753 14.188 31.0643 13.521 30.9563C12.991 30.8703 12.265 30.7533 12.145 30.6463C12.048 30.5373 12.161 30.1823 12.26 29.8683C12.332 29.6433 12.406 29.4103 12.447 29.1663C12.505 28.7763 12.437 28.4603 12.383 28.2063C12.337 27.9893 12.3 27.8193 12.339 27.6543C12.368 27.5313 12.972 27.4003 13.229 27.3443C13.592 27.2653 13.967 27.1843 14.212 27.0353C14.544 26.8353 14.724 26.4643 14.882 26.1373C14.997 25.9013 15.115 25.6563 15.256 25.5763C15.2691 25.5689 15.284 25.5654 15.299 25.5663C15.563 25.5663 16.117 26.1213 16.437 26.6183C16.517 26.7433 16.667 26.9943 16.841 27.2843C17.361 28.1533 18.071 29.3423 18.441 29.7413C18.776 30.0993 19.317 30.7883 19.184 31.3793ZM26.891 25.3093C26.771 25.8793 26.759 27.7023 26.758 28.1123C26.514 28.4213 25.283 29.8773 23.516 30.1393C22.796 30.2433 22.124 30.2973 21.519 30.2973C21.001 30.2973 20.67 30.2573 20.533 30.2363L19.645 29.2203C19.995 29.0473 20.345 28.6823 20.253 28.0243C20.174 27.4673 19.458 26.9153 18.629 26.2763C17.951 25.7533 17.182 25.1613 16.97 24.6593C16.533 23.6243 16.878 21.8043 17.48 20.8673C17.776 20.3973 18.02 19.6873 18.254 18.9983C18.507 18.2553 18.77 17.4873 19.063 17.1503C19.527 16.6253 19.956 15.6043 20.032 14.7993C20.467 15.2143 21.142 15.7403 21.764 15.7403C21.86 15.7403 21.954 15.7283 22.042 15.7033C22.469 15.5793 23.095 15.2173 23.702 14.8673C24.225 14.5653 24.869 14.1933 25.112 14.1593C25.528 14.7563 27.944 20.1043 28.191 21.8213C28.3298 22.7943 28.2908 23.7843 28.076 24.7433C27.9809 24.7302 27.885 24.7235 27.789 24.7233C27.115 24.7233 26.937 25.0903 26.891 25.3103V25.3093ZM33.645 29.2923C33.505 29.4213 33.008 29.6743 32.529 29.9193C31.678 30.3543 30.713 30.8463 30.28 31.3023C29.67 31.9443 28.98 32.3753 28.564 32.3753C28.5176 32.3758 28.4714 32.369 28.427 32.3553C27.975 32.2153 27.603 31.5623 27.803 30.6313C28.013 29.6803 28.257 28.3873 28.217 27.6243C28.208 27.4513 28.193 27.2623 28.178 27.0803C28.15 26.7393 28.109 26.2323 28.152 26.0823C28.161 26.0782 28.1704 26.0749 28.18 26.0723C28.182 26.5083 28.276 27.3773 28.972 27.6813C29.179 27.7713 29.416 27.8173 29.676 27.8173C30.372 27.8173 31.146 27.4753 31.462 27.1583C31.648 26.9723 31.805 26.7443 31.915 26.5633C31.939 26.6333 31.954 26.7263 31.945 26.8433C31.905 27.4873 32.217 28.3403 32.812 28.6543L32.898 28.7003C33.11 28.8113 33.673 29.1063 33.682 29.2473C33.682 29.2473 33.677 29.2633 33.645 29.2923Z" fill="white"/>
<path d="M44.714 15.8293V8.8293H47.144C49.344 8.8293 50.864 10.3393 50.864 12.3293C50.864 14.2993 49.344 15.8293 47.144 15.8293H44.714ZM45.504 15.0993H47.144C48.914 15.0993 50.044 13.8993 50.044 12.3293C50.044 10.7793 48.914 9.5593 47.144 9.5593H45.504V15.0993ZM54.764 15.9493C53.214 15.9493 52.084 14.7293 52.084 13.2493C52.084 11.7893 53.224 10.5493 54.784 10.5493C56.334 10.5493 57.474 11.7693 57.474 13.2493C57.474 14.7093 56.324 15.9493 54.764 15.9493ZM54.784 15.2593C55.904 15.2593 56.684 14.3593 56.684 13.2493C56.684 12.1393 55.854 11.2293 54.764 11.2293C53.644 11.2293 52.874 12.1393 52.874 13.2493C52.874 14.3593 53.694 15.2593 54.784 15.2593ZM60.234 15.8693L58.424 10.6593H59.244L60.604 14.8093L61.994 10.6393H62.634L64.034 14.8093L65.394 10.6593H66.194L64.374 15.8693H63.704L62.314 11.7893L60.914 15.8693H60.234ZM67.474 15.8293V10.6593H68.244V11.5593C68.584 10.9993 69.124 10.5493 70.014 10.5493C71.264 10.5493 71.994 11.3893 71.994 12.6193V15.8293H71.224V12.8093C71.224 11.8493 70.704 11.2493 69.794 11.2493C68.904 11.2493 68.244 11.8993 68.244 12.8693V15.8293H67.474ZM73.704 15.8293V8.5293H74.474V15.8293H73.704ZM78.624 15.9493C77.074 15.9493 75.944 14.7293 75.944 13.2493C75.944 11.7893 77.084 10.5493 78.644 10.5493C80.194 10.5493 81.334 11.7693 81.334 13.2493C81.334 14.7093 80.184 15.9493 78.624 15.9493ZM78.644 15.2593C79.764 15.2593 80.544 14.3593 80.544 13.2493C80.544 12.1393 79.714 11.2293 78.624 11.2293C77.504 11.2293 76.734 12.1393 76.734 13.2493C76.734 14.3593 77.554 15.2593 78.644 15.2593ZM84.264 15.9393C83.294 15.9393 82.334 15.3893 82.334 14.3093C82.334 13.1993 83.234 12.6193 84.544 12.6193C85.204 12.6193 85.664 12.7093 86.124 12.8393V12.6793C86.124 11.7593 85.564 11.2793 84.594 11.2793C83.984 11.2793 83.504 11.4293 83.024 11.6493L82.794 11.0193C83.364 10.7593 83.914 10.5793 84.674 10.5793C85.404 10.5793 85.974 10.7793 86.344 11.1493C86.704 11.5093 86.884 12.0093 86.884 12.6693V15.8293H86.124V15.0593C85.764 15.5193 85.174 15.9393 84.264 15.9393ZM84.414 15.3193C85.364 15.3193 86.134 14.7493 86.134 13.9293V13.4493C85.754 13.3393 85.254 13.2293 84.624 13.2293C83.664 13.2293 83.114 13.6493 83.114 14.2893C83.114 14.9393 83.714 15.3193 84.414 15.3193ZM90.684 15.9393C89.444 15.9393 88.214 14.9593 88.214 13.2393C88.214 11.5493 89.444 10.5493 90.684 10.5493C91.644 10.5493 92.264 11.0693 92.664 11.6493V8.5293H93.434V15.8293H92.664V14.7893C92.244 15.4093 91.634 15.9393 90.684 15.9393ZM90.824 15.2493C91.784 15.2493 92.694 14.4393 92.694 13.2293C92.694 12.0393 91.784 11.2393 90.824 11.2393C89.824 11.2393 89.004 11.9793 89.004 13.2493C89.004 14.4693 89.844 15.2493 90.824 15.2493Z" fill="white"/>
<path fill-rule="evenodd" clip-rule="evenodd" d="M44.64 29.4993V19.6993H46.363V27.9313H51.515V29.4993H44.64ZM53.139 20.9733V19.3633H54.959V20.9733H53.139ZM53.209 29.4993V22.1073H54.903V29.4993H53.209ZM57.115 29.4993V22.1073H58.809V23.2553C59.285 22.5553 59.971 21.9533 61.119 21.9533C62.785 21.9533 63.751 23.0733 63.751 24.7953V29.4993H62.057V25.2993C62.057 24.1513 61.483 23.4933 60.475 23.4933C59.495 23.4933 58.809 24.1793 58.809 25.3273V29.4993H57.115ZM68.343 29.6533C66.677 29.6533 65.711 28.5333 65.711 26.8113V22.1073H67.405V26.3073C67.405 27.4553 67.979 28.1133 68.987 28.1133C69.967 28.1133 70.653 27.4273 70.653 26.2793V22.1073H72.347V29.4993H70.653V28.3513C70.177 29.0513 69.491 29.6533 68.343 29.6533ZM73.831 29.4993L76.547 25.7473L73.929 22.1073H75.777L77.485 24.5433L79.193 22.1073H80.999L78.381 25.7053L81.111 29.4993H79.263L77.443 26.9093L75.637 29.4993H73.831Z" fill="white"/>
</svg>
