<svg width="120" height="40" viewBox="0 0 120 40" fill="none" xmlns="http://www.w3.org/2000/svg">
<g clip-path="url(#clip0_719_4794)">
<path d="M120 35.3796C120 37.5396 118.455 39.2906 116.544 39.2906H3.46C1.55 39.2906 0 37.5406 0 35.3786V4.1836C0 2.0236 1.55 0.266602 3.46 0.266602H116.544C118.455 0.266602 119.999 2.0236 119.999 4.1836L120 35.3796Z" fill="#121212"/>
<path fill-rule="evenodd" clip-rule="evenodd" d="M41.676 29.5253V19.7253H43.51L46.492 24.3593L49.474 19.7253H51.308V29.5253H49.586V22.4973L46.492 27.1173H46.436L43.37 22.5253V29.5253H41.676ZM59.834 29.5253H58.154V28.6153C57.65 29.2173 56.88 29.6793 55.76 29.6793C54.36 29.6793 53.128 28.8813 53.128 27.3693C53.128 25.7313 54.402 24.9473 56.124 24.9473C57.02 24.9473 57.594 25.0733 58.168 25.2553V25.1153C58.168 24.0933 57.524 23.5333 56.348 23.5333C55.522 23.5333 54.906 23.7153 54.234 23.9953L53.772 22.6373C54.584 22.2733 55.382 22.0213 56.586 22.0213C58.77 22.0213 59.834 23.1693 59.834 25.1433V29.5253ZM58.196 26.8513V26.4313C57.6534 26.233 57.0797 26.1334 56.502 26.1373C55.438 26.1373 54.808 26.5713 54.808 27.3133C54.808 28.0133 55.438 28.4053 56.236 28.4053C57.356 28.4053 58.196 27.7753 58.196 26.8513ZM65.266 29.6933C63.068 29.6933 61.444 27.9713 61.444 25.8433C61.444 23.7433 63.068 21.9793 65.28 21.9793C66.68 21.9793 67.548 22.4973 68.234 23.2533L67.184 24.3873C66.666 23.8413 66.12 23.4633 65.266 23.4633C64.034 23.4633 63.138 24.5273 63.138 25.8433C63.138 27.1593 64.048 28.2233 65.35 28.2233C66.148 28.2233 66.736 27.8453 67.268 27.2993L68.29 28.3073C67.562 29.1193 66.708 29.6933 65.266 29.6933ZM41.406 15.8293V8.8293H43.836C46.036 8.8293 47.556 10.3393 47.556 12.3293C47.556 14.2993 46.036 15.8293 43.836 15.8293H41.406ZM42.196 15.0993H43.836C45.606 15.0993 46.736 13.8993 46.736 12.3293C46.736 10.7793 45.606 9.5593 43.836 9.5593H42.196V15.0993ZM51.456 15.9493C49.906 15.9493 48.776 14.7293 48.776 13.2493C48.776 11.7893 49.916 10.5493 51.476 10.5493C53.026 10.5493 54.166 11.7693 54.166 13.2493C54.166 14.7093 53.016 15.9493 51.456 15.9493ZM51.476 15.2593C52.596 15.2593 53.376 14.3593 53.376 13.2493C53.376 12.1393 52.546 11.2293 51.456 11.2293C50.336 11.2293 49.566 12.1393 49.566 13.2493C49.566 14.3593 50.386 15.2593 51.476 15.2593ZM56.926 15.8693L55.116 10.6593H55.936L57.296 14.8093L58.686 10.6393H59.326L60.726 14.8093L62.086 10.6593H62.886L61.066 15.8693H60.396L59.006 11.7893L57.606 15.8693H56.926ZM64.166 15.8293V10.6593H64.936V11.5593C65.276 10.9993 65.816 10.5493 66.706 10.5493C67.956 10.5493 68.686 11.3893 68.686 12.6193V15.8293H67.916V12.8093C67.916 11.8493 67.396 11.2493 66.486 11.2493C65.596 11.2493 64.936 11.8993 64.936 12.8693V15.8293H64.166ZM70.396 15.8293V8.5293H71.166V15.8293H70.396ZM75.316 15.9493C73.766 15.9493 72.636 14.7293 72.636 13.2493C72.636 11.7893 73.776 10.5493 75.336 10.5493C76.886 10.5493 78.026 11.7693 78.026 13.2493C78.026 14.7093 76.876 15.9493 75.316 15.9493ZM75.336 15.2593C76.456 15.2593 77.236 14.3593 77.236 13.2493C77.236 12.1393 76.406 11.2293 75.316 11.2293C74.196 11.2293 73.426 12.1393 73.426 13.2493C73.426 14.3593 74.246 15.2593 75.336 15.2593ZM80.956 15.9393C79.986 15.9393 79.026 15.3893 79.026 14.3093C79.026 13.1993 79.926 12.6193 81.236 12.6193C81.896 12.6193 82.356 12.7093 82.816 12.8393V12.6793C82.816 11.7593 82.256 11.2793 81.286 11.2793C80.676 11.2793 80.196 11.4293 79.716 11.6493L79.486 11.0193C80.056 10.7593 80.606 10.5793 81.366 10.5793C82.096 10.5793 82.666 10.7793 83.036 11.1493C83.396 11.5093 83.576 12.0093 83.576 12.6693V15.8293H82.816V15.0593C82.456 15.5193 81.866 15.9393 80.956 15.9393ZM81.106 15.3193C82.056 15.3193 82.826 14.7493 82.826 13.9293V13.4493C82.446 13.3393 81.946 13.2293 81.316 13.2293C80.356 13.2293 79.806 13.6493 79.806 14.2893C79.806 14.9393 80.406 15.3193 81.106 15.3193ZM87.376 15.9393C86.136 15.9393 84.906 14.9593 84.906 13.2393C84.906 11.5493 86.136 10.5493 87.376 10.5493C88.336 10.5493 88.956 11.0693 89.356 11.6493V8.5293H90.126V15.8293H89.356V14.7893C88.936 15.4093 88.326 15.9393 87.376 15.9393ZM87.516 15.2493C88.476 15.2493 89.386 14.4393 89.386 13.2293C89.386 12.0393 88.476 11.2393 87.516 11.2393C86.516 11.2393 85.696 11.9793 85.696 13.2493C85.696 14.4693 86.536 15.2493 87.516 15.2493Z" fill="white"/>
<path d="M27.878 19.5436C27.849 16.3986 30.495 14.8696 30.616 14.7976C29.118 12.6486 26.796 12.3556 25.979 12.3316C24.029 12.1296 22.136 13.4796 21.142 13.4796C20.129 13.4796 18.599 12.3516 16.949 12.3846C14.827 12.4166 12.841 13.6246 11.753 15.5026C9.50503 19.3296 11.181 24.9546 13.334 28.0476C14.411 29.5626 15.67 31.2546 17.317 31.1956C18.929 31.1296 19.531 30.1846 21.476 30.1846C23.402 30.1846 23.968 31.1946 25.648 31.1566C27.378 31.1296 28.466 29.6356 29.506 28.1066C30.75 26.3696 31.25 24.6596 31.27 24.5716C31.23 24.5576 27.91 23.3116 27.878 19.5436ZM24.705 10.2966C25.571 9.23064 26.165 7.77964 26 6.30664C24.745 6.36164 23.176 7.16064 22.273 8.20364C21.473 9.12364 20.76 10.6296 20.944 12.0456C22.354 12.1496 23.801 11.3456 24.705 10.2966Z" fill="white"/>
</g>
<defs>
<clipPath id="clip0_719_4794">
<rect width="120" height="40" fill="white"/>
</clipPath>
</defs>
</svg>
