<svg width="32" height="32" viewBox="0 0 32 32" fill="none" xmlns="http://www.w3.org/2000/svg">
<path d="M10.75 13.75C11.1875 13.75 11.5312 13.8906 11.7812 14.1719C12.0625 14.4531 12.2031 14.8125 12.2031 15.25C12.2031 15.6875 12.0625 16.0469 11.7812 16.3281C11.5312 16.6094 11.1875 16.75 10.75 16.75C10.3125 16.75 9.95312 16.6094 9.67188 16.3281C9.39062 16.0156 9.25 15.6406 9.25 15.2031C9.25 14.7969 9.39062 14.4531 9.67188 14.1719C9.95312 13.8906 10.3125 13.75 10.75 13.75ZM16 13.7031C16.4375 13.7344 16.7812 13.8906 17.0312 14.1719C17.3125 14.4531 17.4531 14.7969 17.4531 15.2031C17.4531 15.6094 17.3125 15.9531 17.0312 16.2344C16.75 16.5156 16.4062 16.6562 16 16.6562C15.5938 16.6562 15.25 16.5156 14.9688 16.2344C14.6875 15.9844 14.5469 15.6406 14.5469 15.2031C14.5469 14.7656 14.6875 14.4062 14.9688 14.125C15.2188 13.8438 15.5625 13.7031 16 13.7031ZM21.25 13.75C21.6875 13.75 22.0469 13.8906 22.3281 14.1719C22.6094 14.4531 22.75 14.8125 22.75 15.25C22.75 15.6875 22.6094 16.0469 22.3281 16.3281C22.0469 16.6094 21.6875 16.75 21.25 16.75C20.8438 16.75 20.5 16.6094 20.2188 16.3281C19.9375 16.0469 19.7969 15.6875 19.7969 15.25C19.7969 14.8125 19.9375 14.4531 20.2188 14.1719C20.4688 13.8906 20.8125 13.75 21.25 13.75ZM16 5.45312C18.2188 5.48438 20.2344 5.9375 22.0469 6.8125C23.8281 7.71875 25.25 8.90625 26.3125 10.375C27.375 11.8438 27.9219 13.4844 27.9531 15.2969C27.9219 17.1094 27.375 18.7344 26.3125 20.1719C25.25 21.6406 23.8281 22.8125 22.0469 23.6875C20.2344 24.5312 18.2188 24.9688 16 25C14.4688 25 13.0156 24.7812 11.6406 24.3438C10.9219 24.8438 10.0156 25.3281 8.92188 25.7969C7.82812 26.2344 6.5625 26.4688 5.125 26.5C4.625 26.4688 4.29688 26.2344 4.14062 25.7969C3.95312 25.3281 4.01562 24.9219 4.32812 24.5781C4.39062 24.5469 4.67188 24.2031 5.17188 23.5469C5.67188 22.8906 6.125 22.0781 6.53125 21.1094C4.9375 19.4531 4.10938 17.4844 4.04688 15.2031C4.07812 13.3906 4.625 11.75 5.6875 10.2812C6.75 8.8125 8.17188 7.64063 9.95312 6.76562C11.7656 5.92188 13.7812 5.48438 16 5.45312ZM16 22.75C18.75 22.6875 21.0312 21.9531 22.8438 20.5469C24.6562 19.1406 25.5938 17.375 25.6562 15.25C25.5938 13.125 24.6406 11.3594 22.7969 9.95312C20.9844 8.54688 18.7031 7.8125 15.9531 7.75C13.2031 7.8125 10.9219 8.54688 9.10938 9.95312C7.26562 11.3594 6.3125 13.125 6.25 15.25C6.28125 16.25 6.48438 17.1094 6.85938 17.8281C7.26562 18.5781 7.6875 19.1719 8.125 19.6094L9.0625 20.6406L8.59375 21.9531C8.3125 22.6406 8 23.2812 7.65625 23.875C8.78125 23.4688 9.67188 23.0156 10.3281 22.5156L11.2656 21.8594L12.3438 22.1875C13.5312 22.5625 14.75 22.75 16 22.75Z" fill="#121212"/>
</svg>
