<svg width="20" height="20" viewBox="0 0 20 20" fill="none" xmlns="http://www.w3.org/2000/svg">
<path d="M16.5 8.96875C16.375 8.98958 16.2396 9 16.0938 9C15.2604 8.97917 14.5833 8.67708 14.0625 8.09375C13.5417 8.67708 12.8646 8.97917 12.0312 9C11.1979 8.97917 10.5208 8.67708 10 8.09375C9.47917 8.67708 8.80208 8.97917 7.96875 9C7.13542 8.97917 6.45833 8.67708 5.9375 8.09375C5.41667 8.67708 4.72917 8.97917 3.875 9C3.75 9 3.625 8.98958 3.5 8.96875C2.625 8.80208 2.02083 8.33333 1.6875 7.5625C1.375 6.79167 1.4375 6.02083 1.875 5.25L3.6875 2.40625C3.85417 2.13542 4.10417 2 4.4375 2H15.5625C15.8958 2 16.1458 2.13542 16.3125 2.40625L18.125 5.25C18.5625 6.02083 18.625 6.79167 18.3125 7.5625C17.9792 8.33333 17.375 8.80208 16.5 8.96875ZM16.625 9.96875C16.7292 9.94792 16.8542 9.92708 17 9.90625V16C16.9792 16.5625 16.7812 17.0312 16.4062 17.4062C16.0312 17.7812 15.5625 17.9792 15 18H5C4.4375 17.9792 3.96875 17.7812 3.59375 17.4062C3.21875 17.0312 3.02083 16.5625 3 16V9.90625C3.125 9.92708 3.25 9.94792 3.375 9.96875C3.54167 9.98958 3.70833 10 3.875 10C4.27083 10 4.64583 9.94792 5 9.84375V14H15V9.84375C15.3542 9.94792 15.7188 10 16.0938 10C16.2812 10 16.4583 9.98958 16.625 9.96875Z" fill="#3BB24A"/>
</svg>
