<svg width="33" height="32" viewBox="0 0 33 32" fill="none" xmlns="http://www.w3.org/2000/svg">
<path d="M16.3335 4C18.5835 4.03125 20.5991 4.59375 22.3804 5.6875C24.1616 6.78125 25.5679 8.23438 26.5991 10.0469C27.6616 11.8594 28.2397 13.8438 28.3335 16V22.75C28.3022 23.9062 27.896 24.875 27.1147 25.6562C26.3335 26.4375 25.3647 26.8438 24.2085 26.875H19.0054C18.5991 27.5938 17.9585 27.9688 17.0835 28H15.5366C14.9116 27.9688 14.396 27.75 13.9897 27.3438C13.5835 26.9062 13.3647 26.375 13.3335 25.75C13.3647 25.125 13.5835 24.5938 13.9897 24.1562C14.4272 23.75 14.9585 23.5312 15.5835 23.5H17.0835C17.9585 23.5312 18.5991 23.9062 19.0054 24.625H24.2085C24.7397 24.625 25.1772 24.4375 25.521 24.0625C25.896 23.7188 26.0835 23.2812 26.0835 22.75V21.7656C25.7085 21.9219 25.3179 22 24.9116 22H24.0679C23.5679 22 23.1616 21.8281 22.8491 21.4844C22.5054 21.1719 22.3335 20.7656 22.3335 20.2656V13.9844C22.3335 13.4844 22.5054 13.0781 22.8491 12.7656C23.1616 12.4219 23.5679 12.25 24.0679 12.25H24.9116C24.9741 12.25 25.0366 12.25 25.0991 12.25C25.1616 12.2812 25.2397 12.2812 25.3335 12.25C24.5835 10.4688 23.4116 9.03125 21.8179 7.9375C20.2241 6.84375 18.396 6.28125 16.3335 6.25C14.271 6.28125 12.4429 6.84375 10.8491 7.9375C9.25537 9.03125 8.0835 10.4844 7.3335 12.2969C7.36475 12.2969 7.396 12.2969 7.42725 12.2969C7.55225 12.2656 7.66162 12.25 7.75537 12.25H8.59912C9.09912 12.25 9.50537 12.4219 9.81787 12.7656C10.1616 13.0781 10.3335 13.4844 10.3335 13.9844V20.2656C10.3335 20.7656 10.1616 21.1719 9.81787 21.4844C9.50537 21.8281 9.09912 22 8.59912 22H7.75537C6.78662 21.9688 5.97412 21.625 5.31787 20.9688C4.69287 20.3125 4.36475 19.4844 4.3335 18.4844V16C4.42725 13.8438 5.00537 11.8594 6.06787 10.0469C7.09912 8.23438 8.50537 6.78125 10.2866 5.6875C12.0679 4.59375 14.0835 4.03125 16.3335 4ZM7.75537 14.5C7.09912 14.5625 6.7085 14.9531 6.5835 15.6719C6.5835 15.7031 6.5835 15.75 6.5835 15.8125C6.5835 15.875 6.5835 15.9375 6.5835 16V18.4844C6.5835 18.8281 6.69287 19.125 6.91162 19.375C7.13037 19.625 7.41162 19.75 7.75537 19.75H8.0835V14.5H7.75537ZM24.9116 19.75C25.2554 19.75 25.5366 19.625 25.7554 19.375C25.9741 19.125 26.0835 18.8281 26.0835 18.4844V16C26.0835 15.9375 26.0835 15.875 26.0835 15.8125C26.0835 15.75 26.0835 15.7031 26.0835 15.6719C25.9585 14.9531 25.5679 14.5625 24.9116 14.5H24.5835V19.75H24.9116Z" fill="#121212"/>
</svg>
