<svg width="32" height="32" viewBox="0 0 32 32" fill="none" xmlns="http://www.w3.org/2000/svg">
<path d="M13.4219 10C15.0781 10 16.6562 9.6875 18.1562 9.0625C19.6562 8.4375 20.9844 7.54688 22.1406 6.39062L23.9219 4.60938C24.4531 4.14062 25 4.03125 25.5625 4.28125C26.125 4.5 26.4375 4.95312 26.5 5.64062V12.4375C26.9375 12.6562 27.2969 13.0156 27.5781 13.5156C27.8594 14.0156 28 14.5938 28 15.25C28 15.9062 27.8594 16.4844 27.5781 16.9844C27.2969 17.4844 26.9375 17.8438 26.5 18.0625V24.8594C26.4375 25.5469 26.125 26 25.5625 26.2188C25 26.4688 24.4531 26.3594 23.9219 25.8906L22.1406 24.1094C21.0156 22.9844 19.7344 22.1094 18.2969 21.4844C16.8594 20.8594 15.3438 20.5312 13.75 20.5V25.375C13.7188 26.125 13.4688 26.75 13 27.25C12.5 27.7188 11.875 27.9688 11.125 28H9.625C8.875 27.9688 8.25 27.7188 7.75 27.25C7.28125 26.75 7.03125 26.125 7 25.375V20.5C6.15625 20.4688 5.45312 20.1719 4.89062 19.6094C4.32812 19.0469 4.03125 18.3438 4 17.5V13C4.03125 12.1562 4.32812 11.4531 4.89062 10.8906C5.45312 10.3281 6.15625 10.0312 7 10H13.4219ZM24.25 7.46875L23.7344 7.98438C22.3906 9.29688 20.8594 10.3281 19.1406 11.0781C17.4531 11.7969 15.6562 12.1875 13.75 12.25V18.25C15.6562 18.2812 17.4531 18.6719 19.1406 19.4219C20.8594 20.1719 22.3906 21.2031 23.7344 22.5156L24.25 23.0312V7.46875ZM9.25 25.375C9.28125 25.5938 9.40625 25.7188 9.625 25.75H11.125C11.3438 25.7188 11.4688 25.5938 11.5 25.375V20.5H9.25V25.375ZM6.25 13V17.5C6.28125 17.9375 6.53125 18.1719 7 18.2031H11.5V12.25H7C6.53125 12.2812 6.28125 12.5312 6.25 13Z" fill="#121212"/>
</svg>
