<svg width="33" height="32" viewBox="0 0 33 32" fill="none" xmlns="http://www.w3.org/2000/svg">
<path d="M30.6299 20.125C31.0361 20.5312 31.2705 21.0156 31.333 21.5781C31.3955 22.1094 31.2705 22.625 30.958 23.125L28.6611 26.8281C28.1611 27.5781 27.4736 27.9688 26.5986 28C26.2861 28 25.9893 27.9375 25.708 27.8125L21.1611 25.9844C20.6299 25.7656 20.2393 25.4219 19.9893 24.9531C19.708 24.5156 19.583 24.0156 19.6143 23.4531L19.8486 21.4375C17.5049 20.8125 15.1768 20.8125 12.8643 21.4375L13.0518 23.4531C13.083 23.9844 12.958 24.4844 12.6768 24.9531C12.3955 25.3906 12.0049 25.7188 11.5049 25.9375L6.91113 27.7656C6.34863 27.9844 5.78613 28 5.22363 27.8125C4.69238 27.6562 4.27051 27.3125 3.95801 26.7812L1.66113 23.0781C1.37988 22.5781 1.27051 22.0625 1.33301 21.5312C1.36426 20.9688 1.58301 20.4844 1.98926 20.0781C3.92676 18.1406 6.11426 16.6562 8.55176 15.625C10.9893 14.5938 13.5674 14.0781 16.2861 14.0781C19.0361 14.0781 21.6299 14.6094 24.0674 15.6719C26.5049 16.7031 28.6924 18.1875 30.6299 20.125ZM29.0361 21.9062C29.0986 21.8438 29.083 21.7656 28.9893 21.6719C27.2705 19.9531 25.333 18.625 23.1768 17.6875C20.9893 16.7812 18.6924 16.3281 16.2861 16.3281C13.8799 16.3281 11.5986 16.7969 9.44238 17.7344C7.28613 18.6406 5.34863 19.9688 3.62988 21.7188C3.56738 21.7812 3.56738 21.8438 3.62988 21.9062L5.87988 25.6094C5.94238 25.7031 6.02051 25.7344 6.11426 25.7031L10.708 23.8281C10.7705 23.7969 10.8018 23.7344 10.8018 23.6406L10.5205 20.6875C10.4893 20.125 10.7393 19.7344 11.2705 19.5156C12.9268 18.9531 14.6143 18.6719 16.333 18.6719C18.0518 18.6719 19.7393 18.9531 21.3955 19.5156C21.9268 19.7344 22.1768 20.125 22.1455 20.6875L21.8643 23.6406C21.8643 23.7344 21.9111 23.7969 22.0049 23.8281L26.5518 25.7031C26.6455 25.7344 26.708 25.7031 26.7393 25.6094L29.0361 21.9062ZM6.95801 11.5C6.27051 11.4375 5.89551 11.0625 5.83301 10.375V5.125C5.89551 4.4375 6.27051 4.0625 6.95801 4H12.208C12.8643 4.0625 13.208 4.4375 13.2393 5.125C13.208 5.8125 12.8486 6.1875 12.1611 6.25H9.62988L12.2549 8.82812C13.3174 9.79688 14.5518 10.2812 15.958 10.2812C17.3955 10.2812 18.6299 9.79688 19.6611 8.82812L23.7861 4.70312C24.3174 4.26563 24.8486 4.26563 25.3799 4.70312C25.8174 5.23437 25.8174 5.76563 25.3799 6.29688L21.2549 10.4219C19.7549 11.8594 17.9893 12.5938 15.958 12.625C13.9268 12.5938 12.1611 11.8594 10.6611 10.4219L8.03613 7.84375V10.375C7.97363 11.0625 7.61426 11.4375 6.95801 11.5Z" fill="#121212"/>
</svg>
