<svg width="32" height="32" viewBox="0 0 32 32" fill="none" xmlns="http://www.w3.org/2000/svg">
<path d="M22.75 25V22H25V25C24.9688 25.8438 24.6719 26.5469 24.1094 27.1094C23.5469 27.6719 22.8438 27.9688 22 28H4C3.15625 27.9688 2.45312 27.6719 1.89062 27.1094C1.32812 26.5469 1.03125 25.8438 1 25V13C1.03125 12.1562 1.32812 11.4531 1.89062 10.8906C2.45312 10.3281 3.15625 10.0312 4 10H8.5V25.75H17.5V22H19.75V25.75H22C22.4688 25.7188 22.7188 25.4688 22.75 25ZM6.25 25.75V22.75H3.25V25C3.28125 25.4688 3.53125 25.7188 4 25.75H6.25ZM6.25 20.5V17.5H3.25V20.5H6.25ZM6.25 15.25V12.25H4C3.53125 12.2812 3.28125 12.5312 3.25 13V15.25H6.25ZM28 4C28.8438 4.03125 29.5469 4.32812 30.1094 4.89062C30.6719 5.45312 30.9688 6.15625 31 7V17.5C30.9688 18.3438 30.6719 19.0469 30.1094 19.6094C29.5469 20.1719 28.8438 20.4688 28 20.5H13C12.1562 20.4688 11.4531 20.1719 10.8906 19.6094C10.3281 19.0469 10.0312 18.3438 10 17.5V7C10.0312 6.15625 10.3281 5.45312 10.8906 4.89062C11.4531 4.32812 12.1562 4.03125 13 4H28ZM28.75 17.5V7C28.7188 6.53125 28.4688 6.28125 28 6.25H13C12.5312 6.28125 12.2812 6.53125 12.25 7V17.5C12.2812 17.9688 12.5312 18.2188 13 18.25L16.375 13.7031C16.5312 13.4844 16.7344 13.375 16.9844 13.375C17.2656 13.375 17.4844 13.4844 17.6406 13.7031L18.6719 15.1094L21.625 10.7031C21.7812 10.4844 21.9844 10.375 22.2344 10.375C22.5156 10.375 22.7344 10.4844 22.8906 10.7031L28 18.25C28.4688 18.2188 28.7188 17.9688 28.75 17.5ZM15.2031 7.75C15.6406 7.75 16 7.89062 16.2812 8.17188C16.5625 8.45312 16.7031 8.8125 16.7031 9.25C16.7031 9.6875 16.5625 10.0469 16.2812 10.3281C16 10.6094 15.6406 10.75 15.2031 10.75C14.7969 10.75 14.4375 10.6094 14.125 10.3281C13.8438 10.0469 13.7031 9.6875 13.7031 9.25C13.7031 8.8125 13.8438 8.45312 14.125 8.17188C14.4375 7.89062 14.7969 7.75 15.2031 7.75Z" fill="#121212"/>
</svg>
