<svg width="22" height="20" viewBox="0 0 22 20" fill="none" xmlns="http://www.w3.org/2000/svg">
<path d="M11.9688 4L9.46875 6.25L8.6875 5.625L11.3438 3.25C11.5312 3.08333 11.75 3 12 3C12.1458 3 12.2812 3.03125 12.4062 3.09375C12.7812 3.28125 12.9792 3.58333 13 4V9L11.9688 8.25V4ZM16 10C15.9792 9.33333 15.6979 8.80208 15.1562 8.40625C14.9062 8.21875 14.8542 7.98958 15 7.71875C15.2083 7.48958 15.4375 7.44792 15.6875 7.59375C16.5417 8.17708 16.9792 8.97917 17 10C16.9792 10.6458 16.7812 11.2188 16.4062 11.7188L15.625 11.0938C15.875 10.7812 16 10.4167 16 10ZM19 10C19 9.16667 18.8021 8.39583 18.4062 7.6875C18.0312 6.97917 17.5 6.38542 16.8125 5.90625C16.5625 5.71875 16.5104 5.48958 16.6562 5.21875C16.8438 4.98958 17.0729 4.94792 17.3438 5.09375C18.1771 5.65625 18.8333 6.36458 19.3125 7.21875C19.7708 8.07292 20 9 20 10C19.9792 11.3333 19.5729 12.5312 18.7812 13.5938L17.9688 12.9688C18.6354 12.0938 18.9792 11.1042 19 10ZM11.9688 15.9688L12 13.3438L13 14.125V16C12.9792 16.4167 12.7812 16.7188 12.4062 16.9062C12.2812 16.9688 12.1458 17 12 17C11.75 17 11.5312 16.9062 11.3438 16.7188L7.125 12.9688H4.5C4.08333 12.9688 3.72917 12.8229 3.4375 12.5312C3.16667 12.2604 3.02083 11.9167 3 11.5V8.5C3.04167 7.77083 3.39583 7.29167 4.0625 7.0625L5.25 7.96875H4.5C4.1875 8.01042 4.02083 8.17708 4 8.46875V11.4688C4.02083 11.7812 4.1875 11.9479 4.5 11.9688H7.46875L11.9688 15.9688ZM20.8125 17.0938C21.0417 17.3021 21.0625 17.5417 20.875 17.8125C20.7708 17.9375 20.6354 18 20.4688 18C20.3854 18 20.2917 17.9688 20.1875 17.9062L1.1875 2.90625C0.958333 2.67708 0.927083 2.4375 1.09375 2.1875C1.32292 1.95833 1.5625 1.92708 1.8125 2.09375L20.8125 17.0938Z" fill="#757575"/>
</svg>
