<svg width="20" height="20" viewBox="0 0 20 20" fill="none" xmlns="http://www.w3.org/2000/svg">
<path d="M15 8H18.5C18.9167 8.02083 19.2708 8.16667 19.5625 8.4375C19.8333 8.72917 19.9792 9.08333 20 9.5V16.5C19.9792 16.9167 19.8333 17.2708 19.5625 17.5625C19.2708 17.8333 18.9167 17.9792 18.5 18H1.5C1.08333 17.9792 0.729167 17.8333 0.4375 17.5625C0.166667 17.2708 0.0208333 16.9167 0 16.5V6.5C0.0208333 6.08333 0.166667 5.72917 0.4375 5.4375C0.729167 5.16667 1.08333 5.02083 1.5 5H2V2.75C2.04167 2.29167 2.29167 2.04167 2.75 2C3.20833 2.04167 3.45833 2.29167 3.5 2.75V5H5.5V2.75C5.54167 2.29167 5.79167 2.04167 6.25 2C6.70833 2.04167 6.95833 2.29167 7 2.75V5H9V3.5C9.02083 3.08333 9.16667 2.72917 9.4375 2.4375C9.72917 2.16667 10.0833 2.02083 10.5 2H13.5C13.9167 2.02083 14.2708 2.16667 14.5625 2.4375C14.8333 2.72917 14.9792 3.08333 15 3.5V8ZM18 13.5C17.9792 13.1875 17.8125 13.0208 17.5 13H16.5C16.1875 13.0208 16.0208 13.1875 16 13.5V14.5C16.0208 14.8125 16.1875 14.9792 16.5 15H17.5C17.8125 14.9792 17.9792 14.8125 18 14.5V13.5ZM7.5 15C7.8125 14.9792 7.97917 14.8125 8 14.5V13.5C7.97917 13.1875 7.8125 13.0208 7.5 13H6.5C6.1875 13.0208 6.02083 13.1875 6 13.5V14.5C6.02083 14.8125 6.1875 14.9792 6.5 15H7.5ZM4 13.5C3.97917 13.1875 3.8125 13.0208 3.5 13H2.5C2.1875 13.0208 2.02083 13.1875 2 13.5V14.5C2.02083 14.8125 2.1875 14.9792 2.5 15H3.5C3.8125 14.9792 3.97917 14.8125 4 14.5V13.5ZM16.5 10C16.1875 10.0208 16.0208 10.1875 16 10.5V11.5C16.0208 11.8125 16.1875 11.9792 16.5 12H17.5C17.8125 11.9792 17.9792 11.8125 18 11.5V10.5C17.9792 10.1875 17.8125 10.0208 17.5 10H16.5ZM8 7.5C7.97917 7.1875 7.8125 7.02083 7.5 7H6.5C6.1875 7.02083 6.02083 7.1875 6 7.5V8.5C6.02083 8.8125 6.1875 8.97917 6.5 9H7.5C7.8125 8.97917 7.97917 8.8125 8 8.5V7.5ZM2.5 7C2.1875 7.02083 2.02083 7.1875 2 7.5V8.5C2.02083 8.8125 2.1875 8.97917 2.5 9H3.5C3.8125 8.97917 3.97917 8.8125 4 8.5V7.5C3.97917 7.1875 3.8125 7.02083 3.5 7H2.5ZM8 10.5C7.97917 10.1875 7.8125 10.0208 7.5 10H6.5C6.1875 10.0208 6.02083 10.1875 6 10.5V11.5C6.02083 11.8125 6.1875 11.9792 6.5 12H7.5C7.8125 11.9792 7.97917 11.8125 8 11.5V10.5ZM3.5 12C3.8125 11.9792 3.97917 11.8125 4 11.5V10.5C3.97917 10.1875 3.8125 10.0208 3.5 10H2.5C2.1875 10.0208 2.02083 10.1875 2 10.5V11.5C2.02083 11.8125 2.1875 11.9792 2.5 12H3.5ZM13 10.5C12.9792 10.1875 12.8125 10.0208 12.5 10H11.5C11.1875 10.0208 11.0208 10.1875 11 10.5V11.5C11.0208 11.8125 11.1875 11.9792 11.5 12H12.5C12.8125 11.9792 12.9792 11.8125 13 11.5V10.5ZM11.5 4C11.1875 4.02083 11.0208 4.1875 11 4.5V5.5C11.0208 5.8125 11.1875 5.97917 11.5 6H12.5C12.8125 5.97917 12.9792 5.8125 13 5.5V4.5C12.9792 4.1875 12.8125 4.02083 12.5 4H11.5ZM13 7.5C12.9792 7.1875 12.8125 7.02083 12.5 7H11.5C11.1875 7.02083 11.0208 7.1875 11 7.5V8.5C11.0208 8.8125 11.1875 8.97917 11.5 9H12.5C12.8125 8.97917 12.9792 8.8125 13 8.5V7.5Z" fill="#3BB24A"/>
</svg>
