<svg width="20" height="20" viewBox="0 0 20 20" fill="none" xmlns="http://www.w3.org/2000/svg">
<path d="M11 3V3.59375C12.1667 3.84375 13.1146 4.41667 13.8438 5.3125C14.5938 6.20833 14.9792 7.27083 15 8.5V9.09375C15.0208 10.6146 15.5312 11.9375 16.5312 13.0625L16.75 13.3438C17.0208 13.6562 17.0729 14.0104 16.9062 14.4062C16.7188 14.7812 16.4167 14.9792 16 15H4C3.58333 14.9792 3.28125 14.7812 3.09375 14.4062C2.92708 14.0104 2.97917 13.6562 3.25 13.3438L3.5 13.0625C4.47917 11.9375 4.97917 10.6146 5 9.09375V8.5C5.02083 7.27083 5.39583 6.20833 6.125 5.3125C6.875 4.41667 7.83333 3.84375 9 3.59375V3C9 2.70833 9.09375 2.46875 9.28125 2.28125C9.46875 2.09375 9.70833 2 10 2C10.2917 2 10.5312 2.09375 10.7188 2.28125C10.9062 2.46875 11 2.70833 11 3ZM10 18C9.45833 18 8.98958 17.8021 8.59375 17.4062C8.19792 17.0104 8 16.5417 8 16H12C12 16.5417 11.8021 17.0104 11.4062 17.4062C11.0104 17.8021 10.5417 18 10 18Z" fill="#3BB24A"/>
</svg>
