<svg width="32" height="32" viewBox="0 0 32 32" fill="none" xmlns="http://www.w3.org/2000/svg">
<path d="M16.75 15.25V4.79688C16.7812 4.32812 17.0312 4.0625 17.5 4C19.4688 4.03125 21.2344 4.51562 22.7969 5.45312C24.3906 6.35937 25.6406 7.60938 26.5469 9.20312C27.4844 10.7656 27.9688 12.5312 28 14.5C27.9375 14.9688 27.6719 15.2188 27.2031 15.25H16.75ZM25.6094 13C25.2656 11.2812 24.5 9.84375 23.3125 8.6875C22.125 7.5 20.6875 6.73437 19 6.39062V13H25.6094ZM14.5 6.34375V17.5L21.8594 24.8594C22.1719 25.2344 22.1406 25.5938 21.7656 25.9375C19.8906 27.2812 17.7188 27.9688 15.25 28C13.1562 27.9688 11.2656 27.4531 9.57812 26.4531C7.89062 25.4531 6.54688 24.1094 5.54688 22.4219C4.54688 20.7344 4.03125 18.8438 4 16.75C4.0625 13.8438 5 11.375 6.8125 9.34375C8.59375 7.28125 10.875 6.03125 13.6562 5.59375C14.1875 5.59375 14.4688 5.84375 14.5 6.34375ZM12.25 18.4375V8.26562C10.4688 8.92188 9.03125 10 7.9375 11.5C6.84375 13 6.28125 14.75 6.25 16.75C6.3125 19.3125 7.1875 21.4375 8.875 23.125C10.5625 24.8125 12.6875 25.6875 15.25 25.75C16.5 25.75 17.6875 25.5 18.8125 25L12.25 18.4375ZM28.6562 17.5C29.1562 17.5625 29.4062 17.8281 29.4062 18.2969C28.9688 20.9844 27.8125 23.2031 25.9375 24.9531C25.5938 25.2031 25.2656 25.2031 24.9531 24.9531L17.5 17.5H28.6562Z" fill="#121212"/>
</svg>
