<svg width="24" height="24" viewBox="0 0 24 24" fill="none" xmlns="http://www.w3.org/2000/svg">
<path d="M21.2578 16.2109C21.8307 16.5234 22.0651 16.9922 21.9609 17.6172L21.0625 21.5625C20.8802 22.1615 20.4896 22.474 19.8906 22.5C16.5573 22.474 13.5495 21.6536 10.8672 20.0391C8.1849 18.4505 6.04948 16.3151 4.46094 13.6328C2.84635 10.9505 2.02604 7.95573 2 4.64844C2.02604 4.02344 2.33854 3.61979 2.9375 3.4375L6.84375 2.53906C7.52083 2.4349 8.0026 2.66927 8.28906 3.24219L10.0859 7.46094C10.2943 8.03385 10.1771 8.51562 9.73438 8.90625L7.66406 10.625C8.3151 11.9792 9.17448 13.1901 10.2422 14.2578C11.3099 15.3255 12.5208 16.1849 13.875 16.8359L15.5938 14.7656C15.9844 14.3229 16.4661 14.2057 17.0391 14.4141L21.2578 16.2109ZM20.75 2.5C21.1146 2.5 21.4141 2.61719 21.6484 2.85156C21.8828 3.08594 22 3.38542 22 3.75V7.5C22 7.86458 21.8828 8.16406 21.6484 8.39844C21.4141 8.63281 21.1146 8.75 20.75 8.75C20.3854 8.75 20.0859 8.63281 19.8516 8.39844C19.6172 8.16406 19.5 7.86458 19.5 7.5V6.75781L15.3984 10.8984C15.138 11.1328 14.8385 11.25 14.5 11.25C14.1615 11.25 13.862 11.1328 13.6016 10.8984C13.3672 10.638 13.25 10.3385 13.25 10C13.25 9.66146 13.3672 9.36198 13.6016 9.10156L17.7422 5H17C16.6354 5 16.3359 4.88281 16.1016 4.64844C15.8672 4.41406 15.75 4.11458 15.75 3.75C15.75 3.38542 15.8672 3.08594 16.1016 2.85156C16.3359 2.61719 16.6354 2.5 17 2.5H20.75Z" fill="#3BB24A"/>
</svg>
