<svg width="20" height="20" viewBox="0 0 20 20" fill="none" xmlns="http://www.w3.org/2000/svg">
<path d="M17.9688 3.96875V12.9375C17.9479 13.5 17.75 13.9688 17.375 14.3438C17 14.7188 16.5312 14.9062 15.9688 14.9062H11.4688L7.5625 17.8438C7.4375 17.9271 7.3125 17.9375 7.1875 17.875C7.0625 17.8125 6.98958 17.6979 6.96875 17.5312V14.9062H3.96875C3.40625 14.9062 2.9375 14.7188 2.5625 14.3438C2.1875 13.9688 1.98958 13.5 1.96875 12.9375V3.96875C1.98958 3.40625 2.1875 2.9375 2.5625 2.5625C2.9375 2.20833 3.40625 2.02083 3.96875 2H15.9688C16.5521 2.02083 17.0312 2.21875 17.4062 2.59375C17.7604 2.96875 17.9479 3.42708 17.9688 3.96875Z" fill="#3BB24A"/>
</svg>
