<svg width="24" height="24" viewBox="0 0 24 24" fill="none" xmlns="http://www.w3.org/2000/svg">
<path d="M20.9453 15.4297C21.3359 15.612 21.6224 15.8854 21.8047 16.25C21.987 16.6146 22.0391 17.0052 21.9609 17.4219L21.1016 21.1328C20.9974 21.5495 20.7891 21.875 20.4766 22.1094C20.1641 22.3698 19.7995 22.5 19.3828 22.5C16.1536 22.474 13.237 21.6797 10.6328 20.1172C8.0026 18.5807 5.91927 16.4974 4.38281 13.8672C2.82031 11.263 2.02604 8.34635 2 5.11719C2 4.70052 2.13021 4.33594 2.39062 4.02344C2.625 3.71094 2.95052 3.5026 3.36719 3.39844L7.07812 2.53906C7.49479 2.46094 7.88542 2.51302 8.25 2.69531C8.61458 2.8776 8.88802 3.16406 9.07031 3.55469L10.7891 7.53906C11.0755 8.34635 10.9062 9.03646 10.2812 9.60938L8.71875 10.8984C9.86458 13.0078 11.4922 14.6354 13.6016 15.7812L14.8906 14.2188C15.4635 13.5938 16.1536 13.4245 16.9609 13.7109L20.9453 15.4297ZM19.8906 20.8594L20.75 17.1484C20.776 16.888 20.6719 16.6927 20.4375 16.5625L16.4531 14.8438C16.2188 14.7656 16.0234 14.8177 15.8672 15L14.2266 16.9922C14.0182 17.2266 13.7708 17.2786 13.4844 17.1484C12.1562 16.4974 10.9714 15.638 9.92969 14.5703C8.86198 13.5286 8.0026 12.3438 7.35156 11.0156C7.22135 10.7292 7.27344 10.4818 7.50781 10.2734L9.5 8.63281C9.68229 8.47656 9.73438 8.28125 9.65625 8.04688L7.9375 4.0625C7.83333 3.85417 7.67708 3.75 7.46875 3.75C7.41667 3.75 7.3776 3.75 7.35156 3.75L3.64062 4.60938C3.40625 4.6875 3.27604 4.85677 3.25 5.11719C3.27604 8.11198 4.00521 10.8203 5.4375 13.2422C6.89583 15.6641 8.83594 17.6042 11.2578 19.0625C13.6797 20.4948 16.388 21.224 19.3828 21.25C19.6432 21.224 19.8125 21.0938 19.8906 20.8594Z" fill="#3BB24A"/>
</svg>
