<svg width="34" height="34" viewBox="0 0 34 34" fill="none" xmlns="http://www.w3.org/2000/svg">
<path d="M16.3884 8.92783C19.1124 9.12185 21.571 10.4811 23.117 12.6603C24.6901 14.8777 25.1607 17.6474 24.4168 20.2442C24.3341 20.5328 24.1972 20.7448 23.9678 20.9076C23.7002 21.0974 23.3894 21.1455 23.0355 21.0517C22.4202 20.9135 22.0899 20.2858 22.2281 19.6705C22.7956 17.7161 22.4482 15.6061 21.2819 13.9622C20.1427 12.3565 18.2661 11.3315 16.2339 11.2214C15.6075 11.1486 15.1242 10.6293 15.197 10.0029C15.2317 9.40364 15.7509 8.92033 16.3884 8.92783ZM16.7134 4.44423C20.7667 4.72971 24.4546 6.76864 26.7872 10.0565C29.1469 13.3826 29.8528 17.5371 28.7831 21.4571C28.7004 21.7456 28.5635 21.9577 28.3723 22.0933C28.1047 22.2832 27.7557 22.3583 27.4019 22.2646C26.8248 22.0992 26.4562 21.4986 26.5944 20.8833C27.4877 17.6058 26.9321 14.1493 24.9521 11.3584C22.9992 8.60577 19.9204 6.93934 16.5318 6.69959C15.9054 6.62674 15.4603 6.0804 15.4949 5.4811C15.5678 4.85469 16.087 4.37138 16.7134 4.44423ZM11.8972 17.7464L10.7725 18.4294C11.3506 19.9734 12.3542 21.3879 13.6204 22.4437L14.6477 21.5424C15.3581 20.9235 16.41 20.867 17.2312 21.3764L20.4394 23.4682C21.3149 24.0541 21.6982 25.1615 21.2702 26.0974L19.9687 29.2047C19.7985 29.6128 19.5469 29.9063 19.2028 30.1504C18.7823 30.4487 18.215 30.6213 17.6268 30.5213C13.3788 29.7992 9.70816 27.4607 7.21286 23.9434C4.74468 20.4644 3.7502 16.2272 4.47224 11.9792C4.63886 10.9989 5.47504 10.2333 6.48867 10.2038L9.85144 10.0021C10.8762 9.90731 11.7947 10.635 12.0585 11.6548L12.9729 15.3741C13.1824 16.3175 12.7815 17.2916 11.8972 17.7464ZM13.0133 24.8285C10.7681 23.2029 9.11358 20.8708 8.32109 18.2145C8.16456 17.7508 8.39524 17.1848 8.8429 16.9247L10.8136 15.814L9.8881 12.1601L6.68316 12.4222C6.09933 16.0549 6.93237 19.6595 9.04795 22.6415C11.1907 25.6618 14.3447 27.6772 18.0045 28.2993L19.2295 25.2462L15.999 23.2851L14.4031 24.7621C13.9714 25.1258 13.3993 25.1294 13.0133 24.8285ZM16.0634 13.4114C17.458 13.514 18.6874 14.1936 19.4468 15.2641C20.2334 16.3728 20.4687 17.7576 20.1047 19.1079C20.0331 19.331 19.858 19.5702 19.6668 19.7059C19.3992 19.8957 19.0502 19.9709 18.6964 19.8771C18.1193 19.7118 17.7507 19.1112 17.9271 18.4688C18.1035 17.8263 18.0186 17.1395 17.6117 16.566C17.232 16.0308 16.6118 15.7236 15.9471 15.6779C15.2825 15.6322 14.8374 15.0858 14.872 14.4865C14.9449 13.8601 15.4641 13.3768 16.0634 13.4114Z" fill="#3BB24A"/>
</svg>
