<svg width="25" height="25" viewBox="0 0 25 25" fill="none" xmlns="http://www.w3.org/2000/svg">
<path d="M22.833 16.0469C23.9111 16.5156 24.5205 17.6875 24.2393 18.8594L23.2549 23.125C23.0205 24.25 22.0361 25 20.8643 25C9.52051 25 0.333008 15.8125 0.333008 4.46875C0.333008 3.29688 1.08301 2.3125 2.20801 2.07812L6.47363 1.09375C7.64551 0.8125 8.81738 1.42188 9.28613 2.5L11.2549 7.14062C11.7236 8.125 11.3955 9.29688 10.5518 10L9.00488 11.2656C10.2236 13.375 11.958 15.1094 14.0674 16.3281L15.333 14.7812C16.0361 13.9375 17.208 13.6094 18.2393 14.0781L22.833 16.0469ZM22.0361 18.3438C22.083 18.25 22.0361 18.1562 21.9424 18.1094L17.3486 16.1406C17.2549 16.0938 17.1611 16.0938 17.1143 16.1875L15.2393 18.4844C14.9111 18.8594 14.3018 19 13.833 18.7656C10.6924 17.2188 8.11426 14.6406 6.56738 11.5C6.33301 11.0312 6.47363 10.4688 6.84863 10.0938L9.14551 8.26562C9.23926 8.17188 9.23926 8.07812 9.19238 7.98438L7.22363 3.39062C7.17676 3.34375 7.12988 3.29688 7.03613 3.29688H6.98926L2.72363 4.28125C2.62988 4.28125 2.53613 4.375 2.53613 4.46875C2.53613 14.5469 10.7861 22.75 20.8643 22.75C20.958 22.75 21.0518 22.7031 21.0518 22.6094L22.0361 18.3438Z" fill="#81D4FA"/>
</svg>
