<svg width="37" height="36" viewBox="0 0 37 36" fill="none" xmlns="http://www.w3.org/2000/svg">
<path d="M21.4695 13.1505C22.9711 14.2558 23.8767 15.8953 23.9744 17.6426C24.0757 19.4522 23.3587 21.1825 21.9898 22.4485C21.7507 22.6496 21.3833 22.7954 21.0713 22.8128C20.6344 22.8373 20.1871 22.6745 19.8542 22.3176C19.32 21.7215 19.3301 20.782 19.9851 20.1819C20.6401 19.5819 21.0315 18.7462 20.9791 17.8102C20.9302 16.9365 20.448 16.1498 19.7302 15.6265C19.0123 15.1033 18.8975 14.1708 19.3618 13.5188C19.8885 12.8634 20.8176 12.6862 21.4695 13.1505ZM25.0177 8.31972C27.955 10.4715 29.766 13.7504 29.9651 17.3073C30.1676 20.9267 28.7337 24.3872 26.0513 26.7908C25.7532 27.0579 25.4482 27.2002 25.0738 27.2211C24.637 27.2456 24.2521 27.0793 23.9191 26.7223C23.3226 26.1297 23.395 25.1867 23.9876 24.5902C26.015 22.7866 27.1199 20.1583 26.9697 17.475C26.8231 14.8541 25.4319 12.3654 23.2159 10.7993C22.5605 10.2726 22.3833 9.3435 22.91 8.68805C23.3743 8.03609 24.3033 7.85891 25.0177 8.31972ZM28.5658 3.48894C32.9388 6.68711 35.6554 11.6055 35.9557 16.9721C36.2595 22.4011 34.1086 27.5919 30.1197 31.258C29.8217 31.5251 29.5166 31.6673 29.2046 31.6848C28.7678 31.7092 28.3205 31.5465 27.9876 31.1895C27.4534 30.5934 27.4634 29.6539 28.056 29.0574C31.39 25.9913 33.2153 21.6951 32.9604 17.1397C32.709 12.6468 30.4157 8.58104 26.7606 5.90607C26.1051 5.37937 25.9903 4.44683 26.4546 3.79487C26.9813 3.13942 27.9104 2.96224 28.5658 3.48894ZM13.1456 13.1781L9.82079 13.0512C8.76829 16.6155 8.9813 20.4221 10.4249 23.8468L13.7148 23.3497C14.3353 23.2524 15.0427 23.5884 15.3272 24.1984L17.6798 29.325C18.0302 29.994 17.7636 30.8227 17.2229 31.2285L13.1262 34.0868C12.5856 34.4927 11.7673 34.4133 11.2402 33.942C2.21267 25.8713 1.43398 11.9555 9.50472 2.92801C9.976 2.40085 10.7802 2.23066 11.3628 2.57364L15.7528 4.95709C16.3354 5.30008 16.6928 6.09385 16.4192 6.79774L14.6533 12.1548C14.4386 12.7928 13.7731 13.2056 13.1456 13.1781Z" fill="black"/>
</svg>
