<svg width="28" height="28" viewBox="0 0 28 28" fill="none" xmlns="http://www.w3.org/2000/svg">
<path d="M24.7344 17.5156C25.2031 17.7344 25.5469 18.0625 25.7656 18.5C25.9844 18.9375 26.0469 19.4062 25.9531 19.9062L24.9219 24.3594C24.7969 24.8594 24.5469 25.25 24.1719 25.5312C23.7969 25.8438 23.3594 26 22.8594 26C18.9844 25.9688 15.4844 25.0156 12.3594 23.1406C9.20312 21.2969 6.70312 18.7969 4.85938 15.6406C2.98438 12.5156 2.03125 9.01562 2 5.14062C2 4.64062 2.15625 4.20312 2.46875 3.82812C2.75 3.45312 3.14062 3.20313 3.64062 3.07812L8.09375 2.04688C8.59375 1.95312 9.0625 2.01562 9.5 2.23438C9.9375 2.45313 10.2656 2.79688 10.4844 3.26562L12.5469 8.04688C12.8906 9.01562 12.6875 9.84375 11.9375 10.5312L10.0625 12.0781C11.4375 14.6094 13.3906 16.5625 15.9219 17.9375L17.4688 16.0625C18.1562 15.3125 18.9844 15.1094 19.9531 15.4531L24.7344 17.5156ZM23.4688 24.0312L24.5 19.5781C24.5312 19.2656 24.4062 19.0312 24.125 18.875L19.3438 16.8125C19.0625 16.7188 18.8281 16.7812 18.6406 17L16.6719 19.3906C16.4219 19.6719 16.125 19.7344 15.7812 19.5781C14.1875 18.7969 12.7656 17.7656 11.5156 16.4844C10.2344 15.2344 9.20312 13.8125 8.42188 12.2188C8.26562 11.875 8.32812 11.5781 8.60938 11.3281L11 9.35938C11.2188 9.17188 11.2812 8.9375 11.1875 8.65625L9.125 3.875C9 3.625 8.8125 3.5 8.5625 3.5C8.5 3.5 8.45312 3.5 8.42188 3.5L3.96875 4.53125C3.6875 4.625 3.53125 4.82812 3.5 5.14062C3.53125 8.73438 4.40625 11.9844 6.125 14.8906C7.875 17.7969 10.2031 20.125 13.1094 21.875C16.0156 23.5938 19.2656 24.4688 22.8594 24.5C23.1719 24.4688 23.375 24.3125 23.4688 24.0312Z" fill="#3BB24A"/>
</svg>
