<svg width="24" height="24" viewBox="0 0 24 24" fill="none" xmlns="http://www.w3.org/2000/svg">
<path d="M20.9062 15.4297C21.6875 15.7812 22.1172 16.6406 21.9219 17.4609L21.1016 21.1328C20.9062 21.9531 20.2031 22.5 19.3438 22.5C9.77344 22.5 2 14.7266 2 5.15625C2 4.29688 2.54688 3.59375 3.36719 3.4375L7.03906 2.57812C7.85938 2.38281 8.71875 2.8125 9.07031 3.59375L10.75 7.57812C11.0625 8.28125 10.8672 9.14062 10.2812 9.60938L8.67969 10.9375C9.8125 12.9688 11.5312 14.6875 13.5625 15.8203L14.8906 14.2578C15.3594 13.6328 16.2188 13.4375 16.9219 13.7109L20.9062 15.4297ZM19.8516 20.8594L20.7109 17.1875C20.7891 16.9141 20.6328 16.6797 20.3984 16.5625L16.4531 14.8828C16.2578 14.8047 15.9844 14.8438 15.8281 15.0391L14.2266 16.9922C14.0312 17.2266 13.7188 17.3047 13.4844 17.1484C10.8281 15.8594 8.64062 13.6719 7.35156 11.0547C7.19531 10.7812 7.27344 10.4688 7.50781 10.2734L9.46094 8.67188C9.65625 8.51562 9.69531 8.28125 9.61719 8.04688L7.89844 4.10156C7.82031 3.90625 7.625 3.75 7.42969 3.75C7.39062 3.75 7.35156 3.78906 7.3125 3.78906L3.64062 4.64844C3.40625 4.6875 3.25 4.88281 3.25 5.15625C3.25 14.0234 10.4766 21.25 19.3438 21.25C19.6172 21.25 19.8125 21.0938 19.8516 20.8594Z" fill="#757575"/>
</svg>
