<svg width="20" height="20" viewBox="0 0 20 20" fill="none" xmlns="http://www.w3.org/2000/svg">
<path d="M4.78125 3.1875C5.28125 2.91667 5.78125 2.92708 6.28125 3.21875L15.2812 8.71875C15.7396 9.03125 15.9792 9.45833 16 10C15.9792 10.5625 15.7396 10.9792 15.2812 11.25L6.28125 16.75C5.78125 17.0625 5.28125 17.0833 4.78125 16.8125C4.28125 16.5208 4.02083 16.0833 4 15.5V4.5C4.02083 3.91667 4.28125 3.47917 4.78125 3.1875ZM5.75 4.0625C5.58333 3.97917 5.41667 3.97917 5.25 4.0625C5.08333 4.16667 5 4.3125 5 4.5V15.5C5 15.6875 5.08333 15.8229 5.25 15.9062C5.41667 16.0104 5.58333 16.0208 5.75 15.9375L14.75 10.4375C14.9167 10.3333 15 10.1875 15 10C15 9.8125 14.9167 9.66667 14.75 9.5625L5.75 4.0625Z" fill="white"/>
</svg>
