<svg width="32" height="32" viewBox="0 0 32 32" fill="none" xmlns="http://www.w3.org/2000/svg">
<path d="M4 8.5C4 8.03125 4.15625 7.67187 4.46875 7.42188C4.75 7.14062 5.09375 7 5.5 7C5.84375 7 6.17188 7.10937 6.48438 7.32812L14.5 14.6875V8.5C14.5 8.03125 14.6562 7.67187 14.9688 7.42188C15.25 7.14062 15.5938 7 16 7C16.3438 7 16.6719 7.125 16.9844 7.375L25.0469 14.7344V8.17188C25.1094 7.48437 25.4844 7.10937 26.1719 7.04688C26.8281 7.10937 27.1875 7.46875 27.25 8.125V23.875C27.1875 24.5625 26.8125 24.9375 26.125 25C25.4375 24.9375 25.0625 24.5625 25 23.875V17.3594L16.9375 24.6719C16.6562 24.8906 16.3438 25 16 25C15.5938 25 15.25 24.8594 14.9688 24.5781C14.6562 24.3281 14.5 23.9688 14.5 23.5V17.3594L6.48438 24.6719C6.17188 24.8906 5.84375 25 5.5 25C5.09375 25 4.75 24.8594 4.46875 24.5781C4.15625 24.3281 4 23.9688 4 23.5V8.5ZM16.75 10.1875V21.8125L23.125 16.0469L16.75 10.1875ZM6.25 10.1875V21.8125L12.625 16.0469L6.25 10.1875Z" fill="#121212"/>
</svg>
