<svg width="20" height="20" viewBox="0 0 20 20" fill="none" xmlns="http://www.w3.org/2000/svg">
<path d="M2 10C2.02083 8.5 2.38542 7.15625 3.09375 5.96875C3.80208 4.76042 4.76042 3.80208 5.96875 3.09375C7.15625 2.38542 8.5 2.02083 10 2C11.5 2.02083 12.8438 2.38542 14.0312 3.09375C15.2396 3.80208 16.1979 4.76042 16.9062 5.96875C17.6146 7.15625 17.9792 8.5 18 10C17.9792 11.5 17.6146 12.8438 16.9062 14.0312C16.1979 15.2396 15.2396 16.1979 14.0312 16.9062C12.8438 17.6146 11.5 17.9792 10 18C8.5 17.9792 7.15625 17.6146 5.96875 16.9062C4.76042 16.1979 3.80208 15.2396 3.09375 14.0312C2.38542 12.8438 2.02083 11.5 2 10ZM11.1875 6.125L6.9375 9.625C6.77083 9.77083 6.71875 9.94792 6.78125 10.1562C6.86458 10.3646 7.02083 10.4688 7.25 10.4688H9.25L8.03125 13.3125C7.94792 13.5417 8 13.7396 8.1875 13.9062C8.39583 14.0312 8.60417 14.0208 8.8125 13.875L13.0625 10.375C13.2292 10.2083 13.2812 10.0312 13.2188 9.84375C13.1354 9.61458 12.9792 9.5 12.75 9.5H10.75L11.9688 6.6875C12.0521 6.45833 12 6.26042 11.8125 6.09375C11.6042 5.94792 11.3958 5.95833 11.1875 6.125Z" fill="#3BB24A"/>
</svg>
