<svg width="20" height="20" viewBox="0 0 20 20" fill="none" xmlns="http://www.w3.org/2000/svg">
<path d="M4 17.5V3C4 2.70833 3.90625 2.46875 3.71875 2.28125C3.53125 2.09375 3.29167 2 3 2C2.70833 2 2.46875 2.09375 2.28125 2.28125C2.09375 2.46875 2 2.70833 2 3V17.5C2.02083 17.8125 2.1875 17.9792 2.5 18H3.5C3.8125 17.9792 3.97917 17.8125 4 17.5ZM16.875 2C17.1875 2 17.4479 2.08333 17.6562 2.25C17.8854 2.41667 18 2.65625 18 2.96875V12.375C17.9792 12.7917 17.7604 13.0938 17.3438 13.2812C16.0104 13.7812 14.8438 14.0208 13.8438 14C12.7396 13.9583 11.7083 13.7917 10.75 13.5C9.8125 13.2083 8.78125 13.0417 7.65625 13C6.88542 13 6 13.1458 5 13.4375V2.5C6.10417 2.16667 7.03125 2 7.78125 2C8.86458 2.0625 9.78125 2.23958 10.5312 2.53125C11.2396 2.80208 12.0312 2.95833 12.9062 3C13.7604 3.04167 14.8854 2.75 16.2812 2.125C16.4896 2.04167 16.6875 2 16.875 2Z" fill="#3BB24A"/>
</svg>
