<svg width="20" height="20" viewBox="0 0 20 20" fill="none" xmlns="http://www.w3.org/2000/svg">
<path d="M19 10C18.9792 10.2708 18.875 10.5 18.6875 10.6875C18.5 10.875 18.2708 10.9792 18 11H17L17.0312 16C17.0104 16.5625 16.8125 17.0312 16.4375 17.4062C16.0625 17.7812 15.5938 17.9792 15.0312 18H5C4.4375 17.9792 3.96875 17.7812 3.59375 17.4062C3.21875 17.0312 3.02083 16.5625 3 16V11H2C1.70833 10.9792 1.46875 10.875 1.28125 10.6875C1.09375 10.5 1 10.2708 1 10C1 9.70833 1.10417 9.45833 1.3125 9.25L9.3125 2.25C9.54167 2.0625 9.77083 1.97917 10 2C10.25 2 10.4792 2.07292 10.6875 2.21875L18.6562 9.25C18.9062 9.45833 19.0208 9.70833 19 10ZM10 7C9.4375 7.02083 8.96875 7.21875 8.59375 7.59375C8.21875 7.96875 8.02083 8.4375 8 9C8.02083 9.5625 8.21875 10.0312 8.59375 10.4062C8.96875 10.7812 9.4375 10.9792 10 11C10.5625 10.9792 11.0312 10.7812 11.4062 10.4062C11.7812 10.0312 11.9792 9.5625 12 9C11.9792 8.4375 11.7812 7.96875 11.4062 7.59375C11.0312 7.21875 10.5625 7.02083 10 7ZM9 12C8.29167 12.0208 7.69792 12.2604 7.21875 12.7188C6.76042 13.1979 6.52083 13.7917 6.5 14.5C6.52083 14.8125 6.6875 14.9792 7 15H13C13.3125 14.9792 13.4792 14.8125 13.5 14.5C13.4792 13.7917 13.2396 13.1979 12.7812 12.7188C12.3021 12.2604 11.7083 12.0208 11 12H9Z" fill="#3BB24A"/>
</svg>
