<svg width="20" height="20" viewBox="0 0 20 20" fill="none" xmlns="http://www.w3.org/2000/svg">
<path d="M3 3C3.29167 3 3.53125 3.09375 3.71875 3.28125C3.90625 3.46875 4 3.70833 4 4V14.5C4.02083 14.8125 4.1875 14.9792 4.5 15H17C17.2917 15 17.5312 15.0938 17.7188 15.2812C17.9062 15.4688 18 15.7083 18 16C18 16.2917 17.9062 16.5312 17.7188 16.7188C17.5312 16.9062 17.2917 17 17 17H4.5C3.79167 16.9792 3.19792 16.7396 2.71875 16.2812C2.26042 15.8021 2.02083 15.2083 2 14.5V4C2 3.70833 2.09375 3.46875 2.28125 3.28125C2.46875 3.09375 2.70833 3 3 3ZM7 9C7.29167 9 7.53125 9.09375 7.71875 9.28125C7.90625 9.46875 8 9.70833 8 10V12C8 12.2917 7.90625 12.5312 7.71875 12.7188C7.53125 12.9062 7.29167 13 7 13C6.70833 13 6.46875 12.9062 6.28125 12.7188C6.09375 12.5312 6 12.2917 6 12V10C6 9.70833 6.09375 9.46875 6.28125 9.28125C6.46875 9.09375 6.70833 9 7 9ZM11 12C11 12.2917 10.9062 12.5312 10.7188 12.7188C10.5312 12.9062 10.2917 13 10 13C9.70833 13 9.46875 12.9062 9.28125 12.7188C9.09375 12.5312 9 12.2917 9 12V7C9 6.70833 9.09375 6.46875 9.28125 6.28125C9.46875 6.09375 9.70833 6 10 6C10.2917 6 10.5312 6.09375 10.7188 6.28125C10.9062 6.46875 11 6.70833 11 7V12ZM13 8C13.2917 8 13.5312 8.09375 13.7188 8.28125C13.9062 8.46875 14 8.70833 14 9V12C14 12.2917 13.9062 12.5312 13.7188 12.7188C13.5312 12.9062 13.2917 13 13 13C12.7083 13 12.4688 12.9062 12.2812 12.7188C12.0938 12.5312 12 12.2917 12 12V9C12 8.70833 12.0938 8.46875 12.2812 8.28125C12.4688 8.09375 12.7083 8 13 8ZM17 12C17 12.2917 16.9062 12.5312 16.7188 12.7188C16.5312 12.9062 16.2917 13 16 13C15.7083 13 15.4688 12.9062 15.2812 12.7188C15.0938 12.5312 15 12.2917 15 12V5C15 4.70833 15.0938 4.46875 15.2812 4.28125C15.4688 4.09375 15.7083 4 16 4C16.2917 4 16.5312 4.09375 16.7188 4.28125C16.9062 4.46875 17 4.70833 17 5V12Z" fill="#3BB24A"/>
</svg>
