<svg width="18" height="21" viewBox="0 0 18 21" fill="none" xmlns="http://www.w3.org/2000/svg">
<path d="M9.375 15.8125C9.34896 16.2031 9.14062 16.4115 8.75 16.4375C8.35938 16.4115 8.15104 16.2031 8.125 15.8125V12.6875C8.15104 12.2969 8.35938 12.0885 8.75 12.0625C9.14062 12.0885 9.34896 12.2969 9.375 12.6875V15.8125ZM8.75 0.5C10.1562 0.526042 11.3411 1.00781 12.3047 1.94531C13.2422 2.90885 13.724 4.09375 13.75 5.5V8H14.375C15.2604 8.02604 16.0026 8.32552 16.6016 8.89844C17.1745 9.4974 17.474 10.2396 17.5 11.125V17.375C17.474 18.2604 17.1745 19.0026 16.6016 19.6016C16.0026 20.1745 15.2604 20.474 14.375 20.5H3.125C2.23958 20.474 1.4974 20.1745 0.898438 19.6016C0.325521 19.0026 0.0260417 18.2604 0 17.375V11.125C0.0260417 10.2396 0.325521 9.4974 0.898438 8.89844C1.4974 8.32552 2.23958 8.02604 3.125 8H3.75V5.5C3.77604 4.09375 4.25781 2.90885 5.19531 1.94531C6.15885 1.00781 7.34375 0.526042 8.75 0.5ZM8.75 1.75C7.68229 1.77604 6.79688 2.14062 6.09375 2.84375C5.39062 3.54688 5.02604 4.43229 5 5.5V8H12.5V5.5C12.474 4.43229 12.1094 3.54688 11.4062 2.84375C10.7031 2.14062 9.81771 1.77604 8.75 1.75ZM3.125 9.25C2.60417 9.27604 2.16146 9.45833 1.79688 9.79688C1.45833 10.1615 1.27604 10.6042 1.25 11.125V17.375C1.27604 17.8958 1.45833 18.3385 1.79688 18.7031C2.16146 19.0417 2.60417 19.224 3.125 19.25H14.375C14.8958 19.224 15.3385 19.0417 15.7031 18.7031C16.0417 18.3385 16.224 17.8958 16.25 17.375V11.125C16.224 10.6042 16.0417 10.1615 15.7031 9.79688C15.3385 9.45833 14.8958 9.27604 14.375 9.25H3.125Z" fill="#3BB24A"/>
</svg>
