<svg width="32" height="32" viewBox="0 0 32 32" fill="none" xmlns="http://www.w3.org/2000/svg">
<path d="M16 4C16.2188 4 16.4219 4.04688 16.6094 4.14062L25.4688 7.89062C26 8.10938 26.4219 8.45312 26.7344 8.92188C27.0781 9.39062 27.25 9.92188 27.25 10.5156C27.2812 12.1406 27.0156 14.0312 26.4531 16.1875C25.8906 18.3125 24.875 20.4062 23.4062 22.4688C21.9688 24.5312 19.9062 26.2344 17.2188 27.5781C16.4062 27.9531 15.5938 27.9531 14.7812 27.5781C12.0938 26.2344 10.0312 24.5312 8.59375 22.4688C7.125 20.4062 6.10938 18.3125 5.54688 16.1875C4.98438 14.0312 4.70312 12.1406 4.70312 10.5156C4.73438 9.92188 4.92188 9.39062 5.26562 8.92188C5.57812 8.45312 6 8.10938 6.53125 7.89062L15.3906 4.14062C15.5781 4.04688 15.7812 4 16 4ZM16 24.8594C18.125 23.7656 19.7812 22.375 20.9688 20.6875C22.1875 19 23.0312 17.2656 23.5 15.4844C24 13.6719 24.25 12.0469 24.25 10.6094L16 7.14062V24.8594Z" fill="#121212"/>
</svg>
