<svg width="56" height="52" viewBox="0 0 56 52" fill="none" xmlns="http://www.w3.org/2000/svg">
<path d="M31.25 13.75C31.3125 13.3125 31.5625 13.0625 32 13C32.4375 13.0625 32.6875 13.3125 32.75 13.75V27.625L41.375 33.3438C41.75 33.6562 41.8438 34 41.6562 34.375C41.3438 34.75 41 34.8438 40.625 34.6562L31.625 28.6562C31.375 28.4688 31.2188 28.25 31.1562 28L31.25 13.75ZM32 4C36.5 4.0625 40.5312 5.15625 44.0938 7.28125C47.7188 9.40625 50.5938 12.2812 52.7188 15.9062C54.8438 19.4688 55.9375 23.5 56 28C55.9375 32.5 54.8438 36.5312 52.7188 40.0938C50.5938 43.7188 47.7188 46.5938 44.0938 48.7188C40.5312 50.8438 36.5 51.9375 32 52C27.5 51.9375 23.4688 50.8438 19.9062 48.7188C16.2812 46.5938 13.4062 43.7188 11.2812 40.0938C9.15625 36.5312 8.0625 32.5 8 28C8.0625 23.5 9.15625 19.4688 11.2812 15.9062C13.4062 12.2812 16.2812 9.40625 19.9062 7.28125C23.4688 5.15625 27.5 4.0625 32 4ZM9.5 28C9.5625 32.1875 10.5938 35.9688 12.5938 39.3438C14.5938 42.7188 17.2812 45.4062 20.6562 47.4062C24.0312 49.4062 27.8125 50.4375 32 50.5C36.1875 50.4375 39.9688 49.4062 43.3438 47.4062C46.7188 45.4062 49.4062 42.7188 51.4062 39.3438C53.4062 35.9688 54.4375 32.1875 54.5 28C54.4375 23.8125 53.4062 20.0312 51.4062 16.6562C49.4062 13.2812 46.7188 10.5937 43.3438 8.59375C39.9688 6.59375 36.1875 5.5625 32 5.5C27.8125 5.5625 24.0312 6.59375 20.6562 8.59375C17.2812 10.5937 14.5938 13.2812 12.5938 16.6562C10.5938 20.0312 9.5625 23.8125 9.5 28Z" fill="#757575"/>
<rect x="1" y="1" width="22" height="22" rx="11" fill="#269137"/>
<rect x="1" y="1" width="22" height="22" rx="11" stroke="white" stroke-width="2"/>
<path d="M16.9453 11.2031C16.7812 11.5495 16.5078 11.7318 16.125 11.75H13.5V17C13.5 17.2552 13.418 17.4648 13.2539 17.6289C13.0898 17.793 12.8802 17.875 12.625 17.875H10.875C10.6198 17.875 10.4102 17.793 10.2461 17.6289C10.082 17.4648 10 17.2552 10 17V11.75H7.375C6.99219 11.7318 6.71875 11.5495 6.55469 11.2031C6.42708 10.8568 6.49089 10.5378 6.74609 10.2461L11.0938 5.87109C11.2943 5.70703 11.513 5.625 11.75 5.625C11.987 5.625 12.1966 5.70703 12.3789 5.87109L16.7539 10.2461C17.0091 10.5378 17.0729 10.8568 16.9453 11.2031Z" fill="white"/>
</svg>
