<svg width="24" height="24" viewBox="0 0 24 24" fill="none" xmlns="http://www.w3.org/2000/svg">
<path d="M14.0859 12.1016C14.1953 12.2109 14.25 12.3438 14.25 12.5C14.25 12.6562 14.1953 12.7891 14.0859 12.8984L10.7109 16.0859C10.5234 16.2578 10.3203 16.2969 10.1016 16.2031C9.88281 16.0938 9.76562 15.9219 9.75 15.6875V14H6.75C6.53125 14 6.35156 13.9297 6.21094 13.7891C6.07031 13.6484 6 13.4688 6 13.25V11.75C6 11.5312 6.07031 11.3516 6.21094 11.2109C6.35156 11.0703 6.53125 11 6.75 11H9.75V9.3125C9.76562 9.07812 9.88281 8.90625 10.1016 8.79688C10.3203 8.70312 10.5234 8.74219 10.7109 8.91406L14.0859 12.1016ZM15.75 7.25C16.3906 7.26562 16.9219 7.48438 17.3438 7.90625C17.7656 8.32812 17.9844 8.85938 18 9.5V15.5C17.9844 16.1406 17.7656 16.6719 17.3438 17.0938C16.9219 17.5156 16.3906 17.7344 15.75 17.75H14.25C14.0312 17.75 13.8516 17.6797 13.7109 17.5391C13.5703 17.3984 13.5 17.2188 13.5 17C13.5 16.7812 13.5703 16.6016 13.7109 16.4609C13.8516 16.3203 14.0312 16.25 14.25 16.25H15.75C15.9688 16.25 16.1484 16.1797 16.2891 16.0391C16.4297 15.8984 16.5 15.7188 16.5 15.5V9.5C16.5 9.28125 16.4297 9.10156 16.2891 8.96094C16.1484 8.82031 15.9688 8.75 15.75 8.75H14.25C14.0312 8.75 13.8516 8.67969 13.7109 8.53906C13.5703 8.39844 13.5 8.21875 13.5 8C13.5 7.78125 13.5703 7.60156 13.7109 7.46094C13.8516 7.32031 14.0312 7.25 14.25 7.25H15.75Z" fill="#3BB24A"/>
</svg>
