<svg width="24" height="24" viewBox="0 0 24 24" fill="none" xmlns="http://www.w3.org/2000/svg">
<path d="M10.1484 12.1484C9.88802 12.3828 9.58854 12.5 9.25 12.5C8.91146 12.5 8.61198 12.3828 8.35156 12.1484L5.22656 9.02344C4.99219 8.76302 4.875 8.46354 4.875 8.125C4.875 7.78646 4.99219 7.48698 5.22656 7.22656C5.48698 6.99219 5.78646 6.875 6.125 6.875C6.46354 6.875 6.76302 6.99219 7.02344 7.22656L9.21094 9.49219L14.6016 4.10156C14.862 3.86719 15.1615 3.75 15.5 3.75C15.8385 3.75 16.138 3.86719 16.3984 4.10156C16.6328 4.36198 16.75 4.66146 16.75 5C16.75 5.33854 16.6328 5.63802 16.3984 5.89844L10.1484 12.1484ZM10.1484 20.8984C9.88802 21.1328 9.58854 21.25 9.25 21.25C8.91146 21.25 8.61198 21.1328 8.35156 20.8984L3.35156 15.8984C3.11719 15.638 3 15.3385 3 15C3 14.6615 3.11719 14.362 3.35156 14.1016C3.61198 13.8672 3.91146 13.75 4.25 13.75C4.58854 13.75 4.88802 13.8672 5.14844 14.1016L9.21094 18.2422L18.3516 9.10156C18.612 8.86719 18.9115 8.75 19.25 8.75C19.5885 8.75 19.888 8.86719 20.1484 9.10156C20.3828 9.36198 20.5 9.66146 20.5 10C20.5 10.3385 20.3828 10.638 20.1484 10.8984L10.1484 20.8984Z" fill="#3BB24A"/>
</svg>
