<svg width="20" height="20" viewBox="0 0 20 20" fill="none" xmlns="http://www.w3.org/2000/svg">
<path d="M14.5 2C14.9167 2.02083 15.2708 2.16667 15.5625 2.4375C15.8333 2.72917 15.9792 3.08333 16 3.5V16.5C15.9792 16.9167 15.8333 17.2708 15.5625 17.5625C15.2708 17.8333 14.9167 17.9792 14.5 18H11.5V15.5C11.4792 15.0833 11.3333 14.7292 11.0625 14.4375C10.7708 14.1667 10.4167 14.0208 10 14C9.58333 14.0208 9.22917 14.1667 8.9375 14.4375C8.66667 14.7292 8.52083 15.0833 8.5 15.5V18H5.5C5.08333 17.9792 4.72917 17.8333 4.4375 17.5625C4.16667 17.2708 4.02083 16.9167 4 16.5V3.5C4.02083 3.08333 4.16667 2.72917 4.4375 2.4375C4.72917 2.16667 5.08333 2.02083 5.5 2H14.5ZM6 10.5C6.02083 10.8125 6.1875 10.9792 6.5 11H7.5C7.8125 10.9792 7.97917 10.8125 8 10.5V9.5C7.97917 9.1875 7.8125 9.02083 7.5 9H6.5C6.1875 9.02083 6.02083 9.1875 6 9.5V10.5ZM9.5 9C9.1875 9.02083 9.02083 9.1875 9 9.5V10.5C9.02083 10.8125 9.1875 10.9792 9.5 11H10.5C10.8125 10.9792 10.9792 10.8125 11 10.5V9.5C10.9792 9.1875 10.8125 9.02083 10.5 9H9.5ZM12 10.5C12.0208 10.8125 12.1875 10.9792 12.5 11H13.5C13.8125 10.9792 13.9792 10.8125 14 10.5V9.5C13.9792 9.1875 13.8125 9.02083 13.5 9H12.5C12.1875 9.02083 12.0208 9.1875 12 9.5V10.5ZM6.5 5C6.1875 5.02083 6.02083 5.1875 6 5.5V6.5C6.02083 6.8125 6.1875 6.97917 6.5 7H7.5C7.8125 6.97917 7.97917 6.8125 8 6.5V5.5C7.97917 5.1875 7.8125 5.02083 7.5 5H6.5ZM9 6.5C9.02083 6.8125 9.1875 6.97917 9.5 7H10.5C10.8125 6.97917 10.9792 6.8125 11 6.5V5.5C10.9792 5.1875 10.8125 5.02083 10.5 5H9.5C9.1875 5.02083 9.02083 5.1875 9 5.5V6.5ZM12.5 5C12.1875 5.02083 12.0208 5.1875 12 5.5V6.5C12.0208 6.8125 12.1875 6.97917 12.5 7H13.5C13.8125 6.97917 13.9792 6.8125 14 6.5V5.5C13.9792 5.1875 13.8125 5.02083 13.5 5H12.5Z" fill="#3BB24A"/>
</svg>
