<svg width="20" height="20" viewBox="0 0 20 20" fill="none" xmlns="http://www.w3.org/2000/svg">
<path d="M18 9.96875C18 10.2396 17.9062 10.4792 17.7188 10.6875L15.4688 12.9375C15.2604 13.1458 15.0208 13.25 14.75 13.25C14.4583 13.25 14.2188 13.1458 14.0312 12.9375C13.8438 12.75 13.75 12.5208 13.75 12.25C13.75 11.9792 13.8438 11.7396 14.0312 11.5312L14.5938 11H11V14.5938L11.5312 14.0312C11.7396 13.8438 11.9792 13.75 12.25 13.75C12.5417 13.75 12.7812 13.8542 12.9688 14.0625C13.1562 14.25 13.25 14.4792 13.25 14.75C13.25 15.0208 13.1562 15.2604 12.9688 15.4688L10.7188 17.7188C10.5104 17.9062 10.2708 18 10 18C9.72917 18 9.48958 17.9062 9.28125 17.7188L7.03125 15.4688C6.84375 15.2604 6.75 15.0208 6.75 14.75C6.75 14.4792 6.84375 14.25 7.03125 14.0625C7.21875 13.8542 7.45833 13.75 7.75 13.75C8.02083 13.75 8.26042 13.8438 8.46875 14.0312L9 14.5938V11H5.40625L5.96875 11.5312C6.15625 11.7396 6.25 11.9792 6.25 12.25C6.25 12.5208 6.15625 12.75 5.96875 12.9375C5.78125 13.1458 5.54167 13.25 5.25 13.25C4.97917 13.25 4.73958 13.1562 4.53125 12.9688L2.28125 10.7188C2.09375 10.5104 2 10.2604 2 9.96875C2 9.69792 2.09375 9.46875 2.28125 9.28125L4.53125 7.03125C4.73958 6.84375 4.97917 6.75 5.25 6.75C5.54167 6.75 5.78125 6.85417 5.96875 7.0625C6.15625 7.25 6.25 7.47917 6.25 7.75C6.25 8.02083 6.15625 8.26042 5.96875 8.46875L5.40625 9H9V5.40625L8.46875 5.96875C8.26042 6.15625 8.02083 6.25 7.75 6.25C7.45833 6.25 7.21875 6.14583 7.03125 5.9375C6.84375 5.75 6.75 5.52083 6.75 5.25C6.75 4.97917 6.84375 4.73958 7.03125 4.53125L9.28125 2.28125C9.48958 2.09375 9.72917 2 10 2C10.2708 2 10.5104 2.09375 10.7188 2.28125L12.9688 4.53125C13.1562 4.73958 13.25 4.97917 13.25 5.25C13.25 5.52083 13.1562 5.75 12.9688 5.9375C12.7812 6.14583 12.5417 6.25 12.25 6.25C11.9792 6.25 11.7396 6.15625 11.5312 5.96875L11 5.40625V9H14.5938L14.0312 8.46875C13.8438 8.26042 13.75 8.02083 13.75 7.75C13.75 7.47917 13.8438 7.25 14.0312 7.0625C14.2188 6.85417 14.4583 6.75 14.75 6.75C15.0208 6.75 15.2604 6.84375 15.4688 7.03125L17.7188 9.28125C17.9062 9.48958 18 9.71875 18 9.96875Z" fill="#3BB24A"/>
</svg>
