<svg width="32" height="32" viewBox="0 0 32 32" fill="none" xmlns="http://www.w3.org/2000/svg">
<path d="M18.1562 12.6719C18.4375 12.7656 18.5938 12.9688 18.625 13.2812V17.1719C18.5625 17.5781 18.3438 17.7969 17.9688 17.8281C17.5625 17.7969 17.3438 17.5781 17.3125 17.1719V15.2031L16.5156 16.2344C16.1719 16.5781 15.8281 16.5781 15.4844 16.2344L14.6875 15.2031V17.2188C14.6562 17.5938 14.4375 17.8125 14.0312 17.875C13.6562 17.8125 13.4375 17.5938 13.375 17.2188V13.2812C13.4062 12.9688 13.5625 12.7656 13.8438 12.6719C14.125 12.5781 14.3594 12.6562 14.5469 12.9062L16 14.8281L17.4531 12.9062C17.6406 12.6875 17.875 12.6094 18.1562 12.6719ZM10.6562 14.6406C11.0312 14.7031 11.4219 14.875 11.8281 15.1562C12.2656 15.4375 12.4531 15.9062 12.3906 16.5625C12.2031 17.4062 11.5938 17.8438 10.5625 17.875C10.375 17.875 10.2031 17.8594 10.0469 17.8281C9.70312 17.7656 9.375 17.6719 9.0625 17.5469C8.6875 17.3594 8.53125 17.0781 8.59375 16.7031C8.75 16.3281 9.01562 16.1875 9.39062 16.2812C9.42188 16.2812 9.46875 16.2969 9.53125 16.3281C9.78125 16.4219 10.0156 16.4844 10.2344 16.5156C10.7344 16.5781 11.0312 16.5156 11.125 16.3281C11.0938 16.1406 10.8125 15.9844 10.2812 15.8594C10.2188 15.8594 10.1562 15.8438 10.0938 15.8125C9.8125 15.75 9.46875 15.5938 9.0625 15.3438C8.625 15.0625 8.45312 14.5938 8.54688 13.9375C8.76562 12.9375 9.54688 12.5156 10.8906 12.6719C11.1406 12.7344 11.3906 12.8125 11.6406 12.9062C12.0156 13.0625 12.1562 13.3281 12.0625 13.7031C11.9062 14.0781 11.625 14.2188 11.2188 14.125C11.0312 14.0625 10.8594 14.0156 10.7031 13.9844C10.1719 13.9219 9.875 13.9688 9.8125 14.125C9.84375 14.3438 10.0781 14.5 10.5156 14.5938C10.5469 14.5938 10.5938 14.6094 10.6562 14.6406ZM21.7188 14.6406C22.125 14.7031 22.5312 14.875 22.9375 15.1562C23.375 15.4062 23.5469 15.875 23.4531 16.5625C23.2656 17.4062 22.6562 17.8438 21.625 17.875C21.4688 17.875 21.2969 17.8594 21.1094 17.8281C20.7969 17.7656 20.4844 17.6719 20.1719 17.5469C20.1719 17.5469 20.1562 17.5469 20.125 17.5469C19.75 17.3594 19.6094 17.0781 19.7031 16.7031C19.8281 16.3281 20.0781 16.1875 20.4531 16.2812C20.4844 16.2812 20.5312 16.2969 20.5938 16.3281C20.8438 16.4219 21.0781 16.4844 21.2969 16.5156C21.8281 16.5781 22.125 16.5156 22.1875 16.3281C22.1875 16.1406 21.9219 15.9844 21.3906 15.8594C21.3281 15.8594 21.2656 15.8438 21.2031 15.8125C20.8906 15.75 20.5312 15.5938 20.125 15.3438C19.7188 15.0625 19.5469 14.5938 19.6094 13.9375C19.8594 12.9375 20.6406 12.5156 21.9531 12.6719C22.2031 12.7344 22.4688 12.8125 22.75 12.9062C23.0938 13.0625 23.2188 13.3281 23.125 13.7031C22.9688 14.0781 22.7031 14.2188 22.3281 14.125C22.1406 14.0625 21.9531 14.0156 21.7656 13.9844C21.2656 13.9219 20.9844 13.9844 20.9219 14.1719C20.9219 14.3594 21.1562 14.5 21.625 14.5938C21.6562 14.5938 21.6875 14.6094 21.7188 14.6406ZM16 5.5C18.25 5.53125 20.2656 5.96875 22.0469 6.8125C23.8594 7.6875 25.2969 8.85938 26.3594 10.3281C27.4219 11.7969 27.9688 13.4375 28 15.25C27.9688 17.0625 27.4219 18.7031 26.3594 20.1719C25.2969 21.6406 23.8594 22.8125 22.0469 23.6875C20.2656 24.5312 18.25 24.9688 16 25C14.4375 25 12.9844 24.7812 11.6406 24.3438C10.9219 24.8438 10.0156 25.3281 8.92188 25.7969C7.82812 26.2344 6.5625 26.4688 5.125 26.5C4.65625 26.4688 4.3125 26.25 4.09375 25.8438C3.90625 25.375 3.98438 24.9688 4.32812 24.625C4.35938 24.5625 4.625 24.2188 5.125 23.5938C5.625 22.9375 6.07812 22.125 6.48438 21.1562C4.89062 19.5 4.0625 17.5312 4 15.25C4.03125 13.4375 4.57812 11.7969 5.64062 10.3281C6.70312 8.85938 8.14062 7.6875 9.95312 6.8125C11.7656 5.96875 13.7812 5.53125 16 5.5ZM16 22.75C18.75 22.6875 21.0312 21.9531 22.8438 20.5469C24.6562 19.1406 25.5938 17.375 25.6562 15.25C25.5938 13.125 24.6562 11.3594 22.8438 9.95312C21 8.54688 18.7031 7.8125 15.9531 7.75C13.2031 7.8125 10.9219 8.54688 9.10938 9.95312C7.26562 11.3594 6.3125 13.125 6.25 15.25C6.28125 16.25 6.48438 17.1094 6.85938 17.8281C7.26562 18.5781 7.6875 19.1719 8.125 19.6094L9.0625 20.6406L8.59375 21.9531C8.3125 22.6406 8 23.2812 7.65625 23.875C8.78125 23.4688 9.67188 23.0156 10.3281 22.5156L11.2656 21.8594L12.3438 22.1875C13.5312 22.5625 14.75 22.75 16 22.75Z" fill="#121212"/>
</svg>
