<svg width="20" height="20" viewBox="0 0 20 20" fill="none" xmlns="http://www.w3.org/2000/svg">
<path d="M18.5 2C18.9167 2.02083 19.2708 2.17708 19.5625 2.46875C19.8333 2.76042 19.9792 3.125 20 3.5625V13.4375C19.9792 13.875 19.8333 14.2396 19.5625 14.5312C19.2708 14.8229 18.9167 14.9792 18.5 15H10.5625C10.2083 14.1875 9.67708 13.5208 8.96875 13H11.9688V11.5C11.9896 11.1875 12.1562 11.0208 12.4688 11H15.4688C15.7812 11.0208 15.9479 11.1875 15.9688 11.5V13H17.9688V4H6.96875V5.5625C6.40625 5.20833 5.75 5.02083 5 5V3.5625C5.02083 3.125 5.16667 2.76042 5.4375 2.46875C5.72917 2.17708 6.08333 2.02083 6.5 2H18.5ZM5 12C4.14583 11.9792 3.4375 11.6875 2.875 11.125C2.3125 10.5625 2.02083 9.85417 2 9C2.02083 8.14583 2.3125 7.4375 2.875 6.875C3.4375 6.3125 4.14583 6.02083 5 6C5.85417 6.02083 6.5625 6.3125 7.125 6.875C7.6875 7.4375 7.97917 8.14583 8 9C7.97917 9.85417 7.6875 10.5625 7.125 11.125C6.5625 11.6875 5.85417 11.9792 5 12ZM6 13C7.125 13.0208 8.07292 13.4062 8.84375 14.1562C9.59375 14.9271 9.97917 15.875 10 17C10 17.2917 9.90625 17.5312 9.71875 17.7188C9.53125 17.9062 9.29167 18 9 18H1C0.708333 18 0.46875 17.9062 0.28125 17.7188C0.09375 17.5312 0 17.2917 0 17C0.0208333 15.875 0.40625 14.9271 1.15625 14.1562C1.92708 13.4062 2.875 13.0208 4 13H6Z" fill="#3BB24A"/>
</svg>
