<svg width="24" height="24" viewBox="0 0 24 24" fill="none" xmlns="http://www.w3.org/2000/svg">
<path d="M9.65175 1.77936C9.5203 1.77936 9.39012 1.75635 9.26867 1.71164C9.14722 1.66693 9.03687 1.60139 8.94391 1.51878C8.85096 1.43616 8.77722 1.33809 8.72691 1.23014C8.67661 1.1222 8.65071 1.00651 8.65071 0.889679C8.65071 0.772845 8.67661 0.657155 8.72691 0.549214C8.77722 0.441273 8.85096 0.343195 8.94391 0.260581C9.03687 0.177967 9.14722 0.112433 9.26867 0.0677227C9.39012 0.0230122 9.5203 -2.4621e-09 9.65175 0H14.3713C14.6368 4.97244e-09 14.8914 0.0937339 15.0792 0.260581C15.2669 0.427428 15.3724 0.653722 15.3724 0.889679C15.3724 1.12564 15.2669 1.35193 15.0792 1.51878C14.8914 1.68563 14.6368 1.77936 14.3713 1.77936H9.65175ZM5.02027 2.31554C5.20774 2.48235 5.31303 2.70848 5.31303 2.94425C5.31303 3.18001 5.20774 3.40614 5.02027 3.57295L1.68347 6.53855C1.49371 6.6957 1.24272 6.78126 0.983381 6.77719C0.724043 6.77313 0.476606 6.67976 0.293198 6.51675C0.10979 6.35375 0.00473167 6.13383 0.000155958 5.90335C-0.00441975 5.67286 0.0918445 5.44979 0.268668 5.28114L3.60547 2.31554C3.79316 2.14893 4.04759 2.05535 4.31287 2.05535C4.57815 2.05535 4.83258 2.14893 5.02027 2.31554ZM12.3212 5.02016C10.4073 5.02016 8.53642 5.52456 6.9451 6.46957C5.35377 7.41457 4.11348 8.75775 3.38107 10.3292C2.64866 11.9007 2.45703 13.6299 2.83041 15.2982C3.20378 16.9665 4.1254 18.4989 5.47872 19.7017C6.83203 20.9044 8.55626 21.7235 10.4334 22.0554C12.3105 22.3872 14.2561 22.2169 16.0243 21.566C17.7925 20.9151 19.3038 19.8127 20.3671 18.3984C21.4304 16.9841 21.9979 15.3214 21.9979 13.6204C21.9979 13.3844 22.1034 13.1581 22.2911 12.9913C22.4788 12.8245 22.7335 12.7307 22.999 12.7307C23.2645 12.7307 23.5191 12.8245 23.7068 12.9913C23.8945 13.1581 24 13.3844 24 13.6204C24 15.6733 23.315 17.6801 22.0318 19.387C20.7485 21.0939 18.9245 22.4243 16.7905 23.2099C14.6565 23.9955 12.3082 24.2011 10.0428 23.8006C7.77731 23.4001 5.69634 22.4115 4.06303 20.9599C2.42972 19.5083 1.31742 17.6588 0.866795 15.6454C0.416166 13.6319 0.647445 11.5449 1.53139 9.6483C2.41533 7.75168 3.91223 6.13061 5.8328 4.99008C7.75337 3.84956 10.0113 3.24081 12.3212 3.24081C12.5867 3.24081 12.8413 3.33454 13.029 3.50139C13.2168 3.66823 13.3222 3.89453 13.3222 4.13049C13.3222 4.36644 13.2168 4.59274 13.029 4.75958C12.8413 4.92643 12.5867 5.02016 12.3212 5.02016Z" fill="#3BB24A"/>
<path d="M19.2457 8.12099C19.3945 7.94979 19.4679 7.73628 19.4524 7.52041C19.4368 7.30455 19.3333 7.10111 19.1612 6.94816C18.9891 6.79521 18.7602 6.70322 18.5174 6.6894C18.2745 6.67558 18.0342 6.74087 17.8416 6.87307L13.6105 9.79715L10.845 11.5528C10.5797 11.7216 10.359 11.9397 10.1981 12.192C10.0372 12.4442 9.94009 12.7246 9.9134 13.0136C9.88671 13.3026 9.93113 13.5933 10.0436 13.8655C10.156 14.1376 10.3338 14.3848 10.5645 14.5898C10.7953 14.7948 11.0735 14.9527 11.3798 15.0525C11.6861 15.1523 12.0132 15.1917 12.3383 15.1678C12.6635 15.144 12.9789 15.0575 13.2627 14.9144C13.5464 14.7714 13.7918 14.5751 13.9816 14.3393L15.9556 11.8814L19.2457 8.12099Z" fill="#3BB24A"/>
</svg>
