<svg width="24" height="24" viewBox="0 0 24 24" fill="none" xmlns="http://www.w3.org/2000/svg">
<rect width="24" height="24" fill="#3BB24A"/>
<path d="M15.3828 8.35938L21.0078 9.21875C21.5026 9.29688 21.8411 9.57031 22.0234 10.0391C22.1536 10.5339 22.0495 10.9635 21.7109 11.3281L17.6484 15.3125L18.5859 21.0547C18.6641 21.5495 18.4948 21.9531 18.0781 22.2656C17.6615 22.5521 17.2318 22.5781 16.7891 22.3438L11.75 19.6875L6.75 22.3438C6.28125 22.5781 5.83854 22.5521 5.42188 22.2656C5.03125 21.9531 4.86198 21.5495 4.91406 21.0547L5.89062 15.3125L1.82812 11.3281C1.46354 10.9635 1.35938 10.5339 1.51562 10.0391C1.67188 9.57031 1.9974 9.29688 2.49219 9.21875L8.11719 8.35938L10.6172 3.20312C10.8776 2.76042 11.2552 2.52604 11.75 2.5C12.2708 2.52604 12.6484 2.76042 12.8828 3.20312L15.3828 8.35938Z" fill="white"/>
</svg>
