<svg width="17" height="17" viewBox="0 0 17 17" fill="none" xmlns="http://www.w3.org/2000/svg">
<path d="M11.0321 5.87881L14.6432 6.43051C14.9609 6.48066 15.1782 6.6562 15.2952 6.95713C15.3788 7.27477 15.312 7.55062 15.0946 7.78468L12.4866 10.3425L13.0884 14.0289C13.1386 14.3465 13.0299 14.6057 12.7624 14.8063C12.495 14.9902 12.2191 15.0069 11.9349 14.8564L8.69994 13.1512L5.49007 14.8564C5.18914 15.0069 4.90493 14.9902 4.63744 14.8063C4.38667 14.6057 4.27801 14.3465 4.31144 14.0289L4.93837 10.3425L2.33035 7.78468C2.09629 7.55062 2.02942 7.27477 2.12973 6.95713C2.23004 6.6562 2.43901 6.48066 2.75666 6.43051L6.36777 5.87881L7.97271 2.56863C8.13989 2.28442 8.3823 2.13396 8.69994 2.11724C9.03431 2.13396 9.27672 2.28442 9.42718 2.56863L11.0321 5.87881Z" fill="#FFC505"/>
</svg>
