<svg width="16" height="16" viewBox="0 0 16 16" fill="none" xmlns="http://www.w3.org/2000/svg">
<path d="M13.9336 5.34375C14.6445 6.10938 15 6.98438 15 7.96875C15 8.95312 14.6445 9.82812 13.9336 10.5938L10.8711 13.6836C10.5612 13.9388 10.2513 13.9388 9.94141 13.6836C9.6862 13.3737 9.6862 13.0638 9.94141 12.7539L13.0039 9.66406C13.4596 9.17188 13.6875 8.60677 13.6875 7.96875C13.6875 7.33073 13.4596 6.76562 13.0039 6.27344L9.50391 2.74609C9.2487 2.4362 9.2487 2.1263 9.50391 1.81641C9.8138 1.5612 10.1146 1.5612 10.4062 1.81641L13.9336 5.34375ZM1 7.03906V2.9375C1.01823 2.57292 1.14583 2.26302 1.38281 2.00781C1.63802 1.77083 1.94792 1.64323 2.3125 1.625H6.41406C6.88802 1.625 7.29818 1.79818 7.64453 2.14453L12.2383 6.73828C12.5664 7.08464 12.7305 7.49479 12.7305 7.96875C12.7305 8.44271 12.5664 8.85286 12.2383 9.19922L8.57422 12.8633C8.22786 13.1914 7.81771 13.3555 7.34375 13.3555C6.86979 13.3555 6.45964 13.1914 6.11328 12.8633L1.51953 8.26953C1.17318 7.92318 1 7.51302 1 7.03906ZM4.0625 3.8125C3.80729 3.8125 3.59766 3.89453 3.43359 4.05859C3.26953 4.22266 3.1875 4.43229 3.1875 4.6875C3.1875 4.94271 3.26953 5.15234 3.43359 5.31641C3.59766 5.48047 3.80729 5.5625 4.0625 5.5625C4.31771 5.5625 4.52734 5.48047 4.69141 5.31641C4.85547 5.15234 4.9375 4.94271 4.9375 4.6875C4.9375 4.43229 4.85547 4.22266 4.69141 4.05859C4.52734 3.89453 4.31771 3.8125 4.0625 3.8125Z" fill="#121212"/>
</svg>
