<svg width="17" height="17" viewBox="0 0 17 17" fill="none" xmlns="http://www.w3.org/2000/svg">
<path d="M13.5396 4.13315C13.6901 4.30033 13.7653 4.49259 13.7653 4.70993C13.7653 4.92726 13.6901 5.11952 13.5396 5.2867L7.11988 11.7065C6.9527 11.8569 6.76044 11.9322 6.54311 11.9322C6.32577 11.9322 6.13351 11.8569 5.96633 11.7065L2.75646 8.49658C2.60599 8.3294 2.53076 8.13714 2.53076 7.9198C2.53076 7.70247 2.60599 7.51021 2.75646 7.34303C2.92364 7.19257 3.1159 7.11734 3.33323 7.11734C3.55057 7.11734 3.74282 7.19257 3.91001 7.34303L6.51803 10.0012L12.3861 4.13315C12.5533 3.98269 12.7455 3.90746 12.9629 3.90746C13.1802 3.90746 13.3725 3.98269 13.5396 4.13315Z" fill="#3BB24A"/>
</svg>
