<svg width="16" height="16" viewBox="0 0 16 16" fill="none" xmlns="http://www.w3.org/2000/svg">
<path d="M13.5039 3.62109C13.668 3.80339 13.75 4.01302 13.75 4.25C13.75 4.48698 13.668 4.69661 13.5039 4.87891L6.50391 11.8789C6.32161 12.043 6.11198 12.125 5.875 12.125C5.63802 12.125 5.42839 12.043 5.24609 11.8789L1.74609 8.37891C1.58203 8.19661 1.5 7.98698 1.5 7.75C1.5 7.51302 1.58203 7.30339 1.74609 7.12109C1.92839 6.95703 2.13802 6.875 2.375 6.875C2.61198 6.875 2.82161 6.95703 3.00391 7.12109L5.84766 10.0195L12.2461 3.62109C12.4284 3.45703 12.638 3.375 12.875 3.375C13.112 3.375 13.3216 3.45703 13.5039 3.62109Z" fill="white"/>
</svg>
