<svg width="16" height="16" viewBox="0 0 16 16" fill="none" xmlns="http://www.w3.org/2000/svg">
<path d="M10.0781 6.875C9.84115 6.875 9.61328 6.91146 9.39453 6.98438L7.125 4.71484C7.125 4.49609 7.14323 4.27734 7.17969 4.05859C7.30729 3.27474 7.63542 2.59115 8.16406 2.00781C8.69271 1.44271 9.33984 1.0599 10.1055 0.859375C10.7617 0.713542 11.3906 0.713542 11.9922 0.859375C12.138 0.895833 12.2292 0.986979 12.2656 1.13281C12.3021 1.27865 12.2656 1.40625 12.1562 1.51562L10.2695 3.40234V5.45312H12.3477L14.2344 3.56641C14.3438 3.45703 14.4714 3.42057 14.6172 3.45703C14.763 3.49349 14.8542 3.59375 14.8906 3.75781C15.0365 4.34115 15.0365 4.96094 14.8906 5.61719C14.7448 6.21875 14.4714 6.7474 14.0703 7.20312C13.6875 7.65885 13.2135 8.01432 12.6484 8.26953L12.1289 7.72266C11.5456 7.17578 10.862 6.89323 10.0781 6.875ZM11.5 8.37891L14.6992 11.5234C14.8997 11.724 15 11.9609 15 12.2344C15 12.5078 14.8997 12.7539 14.6992 12.9727L13.25 14.3945C13.0495 14.5951 12.8125 14.6953 12.5391 14.6953C12.2656 14.6953 12.0286 14.5951 11.8281 14.3945L8.62891 11.1953C8.30078 10.8672 8.10938 10.4935 8.05469 10.0742C7.98177 9.65495 8.04557 9.25391 8.24609 8.87109L5.32031 5.94531H3.625L1 2.47266L2.75 0.75L6.22266 3.375V5.07031L9.17578 7.99609C9.55859 7.79557 9.95964 7.73177 10.3789 7.80469C10.7982 7.85938 11.1719 8.05078 11.5 8.37891ZM7.23438 9.14453C7.10677 9.76432 7.16146 10.3659 7.39844 10.9492L4.14453 14.2031C3.76172 14.5677 3.33333 14.75 2.85938 14.75C2.36719 14.75 1.92969 14.5677 1.54688 14.2031C1.18229 13.8203 1 13.3919 1 12.918C1 12.4258 1.18229 11.9883 1.54688 11.6055L5.62109 7.53125L7.23438 9.14453ZM2.75 13.6562C3.15104 13.6198 3.36979 13.401 3.40625 13C3.36979 12.599 3.15104 12.3802 2.75 12.3438C2.34896 12.3802 2.13021 12.599 2.09375 13C2.13021 13.401 2.34896 13.6198 2.75 13.6562Z" fill="#121212"/>
</svg>
