<svg width="20" height="20" viewBox="0 0 20 20" fill="none" xmlns="http://www.w3.org/2000/svg">
<path d="M15.4688 5C16.7396 5.04167 17.8021 5.48958 18.6562 6.34375C19.5104 7.19792 19.9583 8.26042 20 9.53125V10.4688C19.9583 11.7396 19.5104 12.8021 18.6562 13.6562C17.8021 14.5104 16.7396 14.9583 15.4688 15C14.2188 14.9792 13.1458 14.5417 12.25 13.6875L10 11.4062L7.75 13.6562C6.85417 14.5312 5.78125 14.9792 4.53125 15C3.26042 14.9583 2.19792 14.5104 1.34375 13.6562C0.489583 12.8021 0.0416667 11.7396 0 10.4688V9.53125C0.0416667 8.26042 0.489583 7.19792 1.34375 6.34375C2.19792 5.48958 3.26042 5.04167 4.53125 5C5.78125 5.02083 6.85417 5.46875 7.75 6.34375L10 8.59375L12.25 6.34375C13.1458 5.46875 14.2188 5.02083 15.4688 5ZM6.34375 12.25L8.59375 10L6.34375 7.75C5.84375 7.25 5.23958 7 4.53125 7C3.82292 7.02083 3.22917 7.27083 2.75 7.75C2.27083 8.22917 2.02083 8.82292 2 9.53125V10.4688C2.02083 11.1771 2.27083 11.7708 2.75 12.25C3.22917 12.7292 3.82292 12.9792 4.53125 13C5.23958 13 5.84375 12.75 6.34375 12.25ZM18 10.4688V9.53125C17.9792 8.82292 17.7292 8.22917 17.25 7.75C16.7708 7.27083 16.1771 7.02083 15.4688 7C14.7604 7 14.1562 7.25 13.6562 7.75L11.4062 10L13.6562 12.25C14.1562 12.75 14.7604 13 15.4688 13C16.1771 12.9792 16.7708 12.7292 17.25 12.25C17.7292 11.7708 17.9792 11.1771 18 10.4688Z" fill="#3BB24A"/>
</svg>
