<svg width="24" height="24" viewBox="0 0 24 24" fill="none" xmlns="http://www.w3.org/2000/svg">
<path d="M7.9375 3.98438C8.32812 4.40104 8.35417 4.84375 8.01562 5.3125L5.20312 8.4375C5.02083 8.64583 4.79948 8.73698 4.53906 8.71094C4.2526 8.76302 4.01823 8.67188 3.83594 8.4375L2.27344 6.875C1.90885 6.45833 1.90885 6.02865 2.27344 5.58594C2.71615 5.22135 3.15885 5.22135 3.60156 5.58594L4.46094 6.44531L6.60938 4.0625C7.02604 3.67188 7.46875 3.64583 7.9375 3.98438ZM7.9375 10.2344C8.32812 10.651 8.35417 11.0938 8.01562 11.5625L5.20312 14.6875C5.02083 14.8958 4.79948 14.987 4.53906 14.9609C4.2526 15.013 4.01823 14.9219 3.83594 14.6875L2.27344 13.125C1.90885 12.7083 1.90885 12.2786 2.27344 11.8359C2.71615 11.4714 3.15885 11.4714 3.60156 11.8359L4.46094 12.6953L6.60938 10.3125C7.02604 9.92188 7.46875 9.89583 7.9375 10.2344ZM10.75 6.25C10.75 5.88542 10.8672 5.58594 11.1016 5.35156C11.3359 5.11719 11.6354 5 12 5H20.75C21.1146 5 21.4141 5.11719 21.6484 5.35156C21.8828 5.58594 22 5.88542 22 6.25C22 6.61458 21.8828 6.91406 21.6484 7.14844C21.4141 7.38281 21.1146 7.5 20.75 7.5H12C11.6354 7.5 11.3359 7.38281 11.1016 7.14844C10.8672 6.91406 10.75 6.61458 10.75 6.25ZM10.75 12.5C10.75 12.1354 10.8672 11.8359 11.1016 11.6016C11.3359 11.3672 11.6354 11.25 12 11.25H20.75C21.1146 11.25 21.4141 11.3672 21.6484 11.6016C21.8828 11.8359 22 12.1354 22 12.5C22 12.8646 21.8828 13.1641 21.6484 13.3984C21.4141 13.6328 21.1146 13.75 20.75 13.75H12C11.6354 13.75 11.3359 13.6328 11.1016 13.3984C10.8672 13.1641 10.75 12.8646 10.75 12.5ZM8.25 18.75C8.25 18.3854 8.36719 18.0859 8.60156 17.8516C8.83594 17.6172 9.13542 17.5 9.5 17.5H20.75C21.1146 17.5 21.4141 17.6172 21.6484 17.8516C21.8828 18.0859 22 18.3854 22 18.75C22 19.1146 21.8828 19.4141 21.6484 19.6484C21.4141 19.8828 21.1146 20 20.75 20H9.5C9.13542 20 8.83594 19.8828 8.60156 19.6484C8.36719 19.4141 8.25 19.1146 8.25 18.75ZM2 18.75C2.02604 18.2292 2.20833 17.7865 2.54688 17.4219C2.91146 17.0833 3.35417 16.901 3.875 16.875C4.39583 16.901 4.83854 17.0833 5.20312 17.4219C5.54167 17.7865 5.72396 18.2292 5.75 18.75C5.72396 19.2708 5.54167 19.7135 5.20312 20.0781C4.83854 20.4167 4.39583 20.599 3.875 20.625C3.35417 20.599 2.91146 20.4167 2.54688 20.0781C2.20833 19.7135 2.02604 19.2708 2 18.75Z" fill="#3BB24A"/>
</svg>
