<svg width="20" height="20" viewBox="0 0 20 20" fill="none" xmlns="http://www.w3.org/2000/svg">
<path d="M10 13C9.14583 12.9792 8.4375 12.6875 7.875 12.125C7.3125 11.5625 7.02083 10.8542 7 10V5C7.02083 4.14583 7.3125 3.4375 7.875 2.875C8.4375 2.3125 9.14583 2.02083 10 2C10.8542 2.02083 11.5625 2.3125 12.125 2.875C12.6875 3.4375 12.9792 4.14583 13 5V10C12.9792 10.8542 12.6875 11.5625 12.125 12.125C11.5625 12.6875 10.8542 12.9792 10 13ZM14.75 8C15.2083 8.04167 15.4583 8.28125 15.5 8.71875V10C15.4792 11.4167 15.0208 12.625 14.125 13.625C13.25 14.625 12.125 15.2292 10.75 15.4375V16.5H12C12.2917 16.5 12.5312 16.6042 12.7188 16.8125C12.9062 17 13 17.25 13 17.5625C12.9583 17.8333 12.7917 17.9792 12.5 18H7.5C7.20833 17.9792 7.04167 17.8333 7 17.5625C7 17.25 7.09375 17 7.28125 16.8125C7.46875 16.6042 7.70833 16.5 8 16.5H9.25V15.4062C7.85417 15.1771 6.71875 14.5312 5.84375 13.4688C4.96875 12.4062 4.52083 11.1562 4.5 9.71875V8.71875C4.54167 8.28125 4.79167 8.04167 5.25 8C5.70833 8.04167 5.95833 8.28125 6 8.71875V9.84375C6.02083 10.9062 6.38542 11.8438 7.09375 12.6562C7.80208 13.4479 8.6875 13.8958 9.75 14C10.9375 14.0417 11.9375 13.6771 12.75 12.9062C13.5417 12.1562 13.9583 11.1875 14 10V8.71875C14.0417 8.28125 14.2917 8.04167 14.75 8Z" fill="#3BB24A"/>
</svg>
