<svg width="21" height="20" viewBox="0 0 21 20" fill="none" xmlns="http://www.w3.org/2000/svg">
<path d="M16.4688 5C17.7604 5.04167 18.8333 5.47917 19.6875 6.3125C20.5208 7.16667 20.9583 8.22917 21 9.5C20.9583 10.7708 20.5208 11.8333 19.6875 12.6875C18.8333 13.5208 17.7708 13.9479 16.5 13.9688H5.5C4.4375 13.9479 3.51042 13.6354 2.71875 13.0312C1.92708 12.4271 1.39583 11.6146 1.125 10.5938C0.895833 9.57292 0.979167 8.60417 1.375 7.6875C1.79167 6.77083 2.45833 6.05208 3.375 5.53125C4.3125 5.05208 5.28125 4.89583 6.28125 5.0625C7.26042 5.22917 8.11458 5.69792 8.84375 6.46875C9.53125 7.26042 9.91667 8.15625 10 9.15625C10.0625 10.1771 9.8125 11.125 9.25 12H12.7188C12.2604 11.2917 12.0104 10.5312 11.9688 9.71875C11.9271 8.90625 12.1042 8.125 12.5 7.375C12.8958 6.64583 13.4479 6.0625 14.1562 5.625C14.8646 5.20833 15.6354 5 16.4688 5ZM3 9.5C3.02083 10.2083 3.26042 10.7917 3.71875 11.25C4.19792 11.7083 4.79167 11.9479 5.5 11.9688C6.20833 11.9479 6.80208 11.7083 7.28125 11.25C7.73958 10.7917 7.97917 10.2083 8 9.5C7.97917 8.79167 7.73958 8.19792 7.28125 7.71875C6.80208 7.26042 6.20833 7.02083 5.5 7C4.79167 7.02083 4.19792 7.26042 3.71875 7.71875C3.26042 8.19792 3.02083 8.79167 3 9.5ZM16.4688 12C17.1979 11.9792 17.7917 11.7396 18.25 11.2812C18.7083 10.8229 18.9479 10.2396 18.9688 9.53125C18.9479 8.82292 18.7083 8.22917 18.25 7.75C17.7708 7.29167 17.1771 7.05208 16.4688 7.03125C15.7604 7.05208 15.1771 7.30208 14.7188 7.78125C14.2396 8.26042 13.9896 8.84375 13.9688 9.53125C13.9896 10.2188 14.2396 10.8021 14.7188 11.2812C15.1771 11.7396 15.7604 11.9792 16.4688 12Z" fill="#3BB24A"/>
</svg>
