<svg width="32" height="32" viewBox="0 0 32 32" fill="none" xmlns="http://www.w3.org/2000/svg">
<path d="M24.2031 8.5C26.1406 8.5625 27.75 9.21875 29.0312 10.4688C30.2812 11.75 30.9375 13.3438 31 15.25C30.9375 17.1562 30.2812 18.75 29.0312 20.0312C27.75 21.2812 26.1406 21.9375 24.2031 22H7.70312C5.82812 21.9375 4.25 21.2812 2.96875 20.0312C1.71875 18.75 1.0625 17.1562 1 15.25C1.0625 13.3438 1.71875 11.75 2.96875 10.4688C4.25 9.21875 5.84375 8.5625 7.75 8.5C9.65625 8.5625 11.25 9.21875 12.5312 10.4688C13.7812 11.75 14.4375 13.3438 14.5 15.25C14.4688 17.0312 13.8906 18.5312 12.7656 19.75H19.2344C18.1094 18.5312 17.5312 17.0312 17.5 15.25C17.5625 13.3438 18.2188 11.75 19.4688 10.4688C20.75 9.21875 22.3281 8.5625 24.2031 8.5ZM3.25 15.25C3.28125 16.5312 3.71875 17.5938 4.5625 18.4375C5.40625 19.2812 6.46875 19.7188 7.75 19.75C9.03125 19.7188 10.0938 19.2812 10.9375 18.4375C11.7812 17.5938 12.2188 16.5312 12.25 15.25C12.2188 13.9688 11.7812 12.9062 10.9375 12.0625C10.0938 11.2188 9.03125 10.7812 7.75 10.75C6.46875 10.7812 5.40625 11.2188 4.5625 12.0625C3.71875 12.9062 3.28125 13.9688 3.25 15.25ZM24.25 19.75C25.5312 19.7188 26.5938 19.2812 27.4375 18.4375C28.2812 17.5938 28.7188 16.5312 28.75 15.25C28.7188 13.9688 28.2812 12.9062 27.4375 12.0625C26.5938 11.2188 25.5312 10.7812 24.25 10.75C22.9688 10.7812 21.9062 11.2188 21.0625 12.0625C20.2188 12.9062 19.7812 13.9688 19.75 15.25C19.7812 16.5312 20.2188 17.5938 21.0625 18.4375C21.9062 19.2812 22.9688 19.7188 24.25 19.75Z" fill="#121212"/>
</svg>
