<svg width="20" height="20" viewBox="0 0 20 20" fill="none" xmlns="http://www.w3.org/2000/svg">
<path d="M11.4062 3.09375C11.7812 3.26042 11.9792 3.5625 12 4V16C11.9792 16.4167 11.7812 16.7188 11.4062 16.9062C11.2812 16.9688 11.1458 17 11 17C10.75 17.0208 10.5312 16.9062 10.3438 16.6562L6.125 12.9062H3.5C3.08333 12.9062 2.72917 12.7708 2.4375 12.5C2.16667 12.2292 2.02083 11.875 2 11.4375V8.46875C2.02083 8.05208 2.16667 7.70833 2.4375 7.4375C2.72917 7.16667 3.08333 7.02083 3.5 7H6.125L10.3438 3.25C10.5312 3.08333 10.75 3 11 3C11.1458 3 11.2812 3.03125 11.4062 3.09375ZM10.9688 15.9688L10.9375 4L6.46875 7.96875H3.5C3.1875 8.01042 3.02083 8.17708 3 8.46875V11.4688C3.02083 11.7812 3.1875 11.9479 3.5 11.9688H6.46875L10.9688 15.9688ZM16.3438 5.09375C17.1771 5.65625 17.8333 6.36458 18.3125 7.21875C18.7708 8.07292 19 9 19 10C19 11 18.7708 11.9271 18.3125 12.7812C17.8333 13.6354 17.1771 14.3438 16.3438 14.9062C16.2604 14.9688 16.1771 15 16.0938 15C15.9062 15 15.7604 14.9271 15.6562 14.7812C15.5104 14.5104 15.5625 14.2812 15.8125 14.0938C16.5 13.6146 17.0312 13.0208 17.4062 12.3125C17.8021 11.6042 18 10.8333 18 10C18 9.16667 17.8021 8.39583 17.4062 7.6875C17.0312 6.97917 16.5 6.38542 15.8125 5.90625C15.5625 5.71875 15.5104 5.48958 15.6562 5.21875C15.8438 4.98958 16.0729 4.94792 16.3438 5.09375ZM14.6875 7.59375C15.1042 7.86458 15.4271 8.21875 15.6562 8.65625C15.8854 9.07292 16 9.52083 16 10C16 10.4792 15.8854 10.9271 15.6562 11.3438C15.4271 11.7812 15.1042 12.1354 14.6875 12.4062C14.6042 12.4688 14.5208 12.5 14.4375 12.5C14.25 12.5 14.1042 12.4271 14 12.2812C13.8542 12.0104 13.9062 11.7812 14.1562 11.5938C14.6979 11.1979 14.9792 10.6667 15 10C14.9792 9.33333 14.6979 8.80208 14.1562 8.40625C13.9062 8.21875 13.8542 7.98958 14 7.71875C14.1875 7.48958 14.4167 7.44792 14.6875 7.59375Z" fill="#757575"/>
</svg>
