<svg width="21" height="20" viewBox="0 0 21 20" fill="none" xmlns="http://www.w3.org/2000/svg">
<path d="M13.4062 3.09375C13.7812 3.26042 13.9792 3.5625 14 4V16C13.9792 16.4167 13.7812 16.7188 13.4062 16.9062C13.2812 16.9688 13.1458 17 13 17C12.75 17.0208 12.5312 16.9062 12.3438 16.6562L8.125 12.9062H5.5C5.08333 12.9062 4.72917 12.7708 4.4375 12.5C4.16667 12.2292 4.02083 11.875 4 11.4375V8.46875C4.02083 8.05208 4.16667 7.70833 4.4375 7.4375C4.72917 7.16667 5.08333 7.02083 5.5 7H8.125L12.3438 3.25C12.5312 3.08333 12.75 3 13 3C13.1458 3 13.2812 3.03125 13.4062 3.09375ZM12.9688 15.9688L12.9375 4L8.46875 7.96875H5.5C5.1875 8.01042 5.02083 8.17708 5 8.46875V11.4688C5.02083 11.7812 5.1875 11.9479 5.5 11.9688H8.46875L12.9688 15.9688ZM18.3438 5.09375C19.1771 5.65625 19.8333 6.36458 20.3125 7.21875C20.7708 8.07292 21 9 21 10C21 11 20.7708 11.9271 20.3125 12.7812C19.8333 13.6354 19.1771 14.3438 18.3438 14.9062C18.2604 14.9688 18.1771 15 18.0938 15C17.9062 15 17.7604 14.9271 17.6562 14.7812C17.5104 14.5104 17.5625 14.2812 17.8125 14.0938C18.5 13.6146 19.0312 13.0208 19.4062 12.3125C19.8021 11.6042 20 10.8333 20 10C20 9.16667 19.8021 8.39583 19.4062 7.6875C19.0312 6.97917 18.5 6.38542 17.8125 5.90625C17.5625 5.71875 17.5104 5.48958 17.6562 5.21875C17.8438 4.98958 18.0729 4.94792 18.3438 5.09375ZM16.6875 7.59375C17.1042 7.86458 17.4271 8.21875 17.6562 8.65625C17.8854 9.07292 18 9.52083 18 10C18 10.4792 17.8854 10.9271 17.6562 11.3438C17.4271 11.7812 17.1042 12.1354 16.6875 12.4062C16.6042 12.4688 16.5208 12.5 16.4375 12.5C16.25 12.5 16.1042 12.4271 16 12.2812C15.8542 12.0104 15.9062 11.7812 16.1562 11.5938C16.6979 11.1979 16.9792 10.6667 17 10C16.9792 9.33333 16.6979 8.80208 16.1562 8.40625C15.9062 8.21875 15.8542 7.98958 16 7.71875C16.1875 7.48958 16.4167 7.44792 16.6875 7.59375Z" fill="#3BB24A"/>
</svg>
