<svg width="33" height="32" viewBox="0 0 33 32" fill="none" xmlns="http://www.w3.org/2000/svg">
<path d="M23.9795 8.59375C25.9482 10.5625 27.167 13.1406 27.167 15.9531C27.167 21.6719 22.3857 26.3594 16.6201 26.3594C14.8857 26.3594 13.1982 25.8906 11.6514 25.0938L6.16699 26.5L7.62012 21.1094C6.72949 19.5625 6.21387 17.7812 6.21387 15.9062C6.21387 10.1875 10.9014 5.5 16.6201 5.5C19.4326 5.5 22.0576 6.625 23.9795 8.59375ZM16.6201 24.5781C21.4014 24.5781 25.3857 20.6875 25.3857 15.9531C25.3857 13.6094 24.4014 11.4531 22.7607 9.8125C21.1201 8.17188 18.9639 7.28125 16.667 7.28125C11.8857 7.28125 7.99512 11.1719 7.99512 15.9062C7.99512 17.5469 8.46387 19.1406 9.30762 20.5469L9.54199 20.875L8.65137 24.0625L11.9326 23.1719L12.2139 23.3594C13.5732 24.1562 15.0732 24.5781 16.6201 24.5781ZM21.4014 18.1094C21.6357 18.25 21.8232 18.2969 21.8701 18.4375C21.9639 18.5312 21.9639 19.0469 21.7295 19.6562C21.4951 20.2656 20.4639 20.8281 19.9951 20.875C19.1514 21.0156 18.4951 20.9688 16.8545 20.2188C14.2295 19.0938 12.542 16.4688 12.4014 16.3281C12.2607 16.1406 11.3701 14.9219 11.3701 13.6094C11.3701 12.3438 12.0264 11.7344 12.2607 11.4531C12.4951 11.1719 12.7764 11.125 12.9639 11.125C13.1045 11.125 13.292 11.125 13.4326 11.125C13.6201 11.125 13.8076 11.0781 14.042 11.5938C14.2295 12.1094 14.792 13.375 14.8389 13.5156C14.8857 13.6562 14.9326 13.7969 14.8389 13.9844C14.3701 14.9688 13.8076 14.9219 14.0889 15.3906C15.1201 17.125 16.1045 17.7344 17.6514 18.4844C17.8857 18.625 18.0264 18.5781 18.2139 18.4375C18.3545 18.25 18.8701 17.6406 19.0107 17.4062C19.1982 17.125 19.3857 17.1719 19.6201 17.2656C19.8545 17.3594 21.1201 17.9688 21.4014 18.1094Z" fill="#121212"/>
</svg>
