<svg width="32" height="32" viewBox="0 0 32 32" fill="none" xmlns="http://www.w3.org/2000/svg">
<path d="M23.3594 8.54688C24.3594 9.54688 25.125 10.6719 25.6562 11.9219C26.2188 13.1719 26.5 14.5 26.5 15.9062C26.4688 17.8438 25.9844 19.5938 25.0469 21.1562C24.1094 22.7188 22.8438 23.9688 21.25 24.9062C19.6875 25.8125 17.9375 26.2812 16 26.3125C14.2188 26.3125 12.5625 25.8906 11.0312 25.0469L5.5 26.5L6.95312 21.1094C6.04688 19.5156 5.59375 17.7812 5.59375 15.9062C5.625 13.9688 6.09375 12.2188 7 10.6562C7.9375 9.09375 9.1875 7.84375 10.75 6.90625C12.3125 6 14.0625 5.53125 16 5.5C18.8438 5.53125 21.2969 6.54687 23.3594 8.54688ZM16 24.5781C18.4375 24.5156 20.4844 23.6719 22.1406 22.0469C23.7969 20.3906 24.6719 18.3438 24.7656 15.9062C24.7031 13.5312 23.8125 11.5 22.0938 9.8125C20.4062 8.125 18.375 7.28125 16 7.28125C13.5625 7.3125 11.5312 8.15625 9.90625 9.8125C8.25 11.4375 7.39062 13.4688 7.32812 15.9062C7.35938 17.5625 7.8125 19.0938 8.6875 20.5L8.875 20.8281L7.98438 24.0156L11.2656 23.1719L11.5938 23.3594C12.9375 24.1406 14.4062 24.5469 16 24.5781ZM20.7344 18.1094C20.7656 18.1094 20.8125 18.125 20.875 18.1562C21.0625 18.2188 21.1875 18.2969 21.25 18.3906C21.3438 18.5469 21.2812 18.9688 21.0625 19.6562C20.9375 19.9688 20.6875 20.2344 20.3125 20.4531C19.9375 20.6719 19.6094 20.8125 19.3281 20.875C18.9531 20.9375 18.5312 20.9375 18.0625 20.875C17.625 20.7812 17 20.5625 16.1875 20.2188C14.9688 19.625 13.9844 18.9062 13.2344 18.0625C12.4531 17.2188 11.9844 16.6562 11.8281 16.375C11.7969 16.3438 11.7812 16.3125 11.7812 16.2812C11.75 16.2812 11.7344 16.2812 11.7344 16.2812C11.6406 16.1562 11.4531 15.8438 11.1719 15.3438C10.8906 14.8125 10.7344 14.2344 10.7031 13.6094C10.7344 13.0156 10.8438 12.5469 11.0312 12.2031C11.2188 11.8594 11.3906 11.625 11.5469 11.5C11.5781 11.4688 11.5938 11.4375 11.5938 11.4062C11.875 11.1875 12.1094 11.0938 12.2969 11.125C12.4844 11.125 12.6562 11.125 12.8125 11.125C12.8125 11.125 12.8281 11.125 12.8594 11.125C13.0156 11.0312 13.1875 11.1719 13.375 11.5469C13.4375 11.7031 13.5312 11.9062 13.6562 12.1562C13.7812 12.4688 13.8906 12.75 13.9844 13C14.0781 13.2812 14.1406 13.4375 14.1719 13.4688C14.2656 13.625 14.2812 13.7812 14.2188 13.9375C13.9688 14.375 13.7656 14.6562 13.6094 14.7812C13.3906 14.9688 13.3438 15.1562 13.4688 15.3438C13.9375 16.1875 14.4531 16.8281 15.0156 17.2656C15.5781 17.7031 16.2344 18.0938 16.9844 18.4375C17.2344 18.5938 17.4219 18.5781 17.5469 18.3906C17.6406 18.2969 17.7812 18.1406 17.9688 17.9219C18.125 17.7031 18.2656 17.5156 18.3906 17.3594C18.5469 17.1406 18.7344 17.1094 18.9531 17.2656C19.1094 17.3281 19.4062 17.4531 19.8438 17.6406C20.2812 17.8594 20.5781 18.0156 20.7344 18.1094Z" fill="#F5F5F5"/>
</svg>
