<svg width="24" height="24" viewBox="0 0 24 24" fill="none" xmlns="http://www.w3.org/2000/svg">
<path d="M17.8828 6.28906C18.7161 7.1224 19.3542 8.0599 19.7969 9.10156C20.2656 10.1432 20.5 11.25 20.5 12.4219C20.474 14.0365 20.0703 15.4948 19.2891 16.7969C18.5078 18.099 17.4531 19.1406 16.125 19.9219C14.8229 20.6771 13.3646 21.0677 11.75 21.0938C10.2656 21.0938 8.88542 20.7422 7.60938 20.0391L3 21.25L4.21094 16.7578C3.45573 15.4297 3.07812 13.9844 3.07812 12.4219C3.10417 10.8073 3.49479 9.34896 4.25 8.04688C5.03125 6.74479 6.07292 5.70312 7.375 4.92188C8.67708 4.16667 10.1354 3.77604 11.75 3.75C14.1198 3.77604 16.1641 4.6224 17.8828 6.28906ZM11.75 19.6484C13.7812 19.5964 15.487 18.8932 16.8672 17.5391C18.2474 16.1589 18.9766 14.4531 19.0547 12.4219C19.0026 10.4427 18.2604 8.75 16.8281 7.34375C15.4219 5.9375 13.7292 5.23438 11.75 5.23438C9.71875 5.26042 8.02604 5.96354 6.67188 7.34375C5.29167 8.69792 4.57552 10.3906 4.52344 12.4219C4.54948 13.8021 4.92708 15.0781 5.65625 16.25L5.8125 16.5234L5.07031 19.1797L7.80469 18.4766L8.07812 18.6328C9.19792 19.2839 10.4219 19.6224 11.75 19.6484ZM15.6953 14.2578C15.7214 14.2578 15.7604 14.2708 15.8125 14.2969C15.9688 14.349 16.0729 14.4141 16.125 14.4922C16.2031 14.6224 16.151 14.974 15.9688 15.5469C15.8646 15.8073 15.6562 16.0286 15.3438 16.2109C15.0312 16.3932 14.7578 16.5104 14.5234 16.5625C14.2109 16.6146 13.8594 16.6146 13.4688 16.5625C13.1042 16.4844 12.5833 16.3021 11.9062 16.0156C10.8906 15.5208 10.0703 14.9219 9.44531 14.2188C8.79427 13.5156 8.40365 13.0469 8.27344 12.8125C8.2474 12.7865 8.23438 12.7604 8.23438 12.7344C8.20833 12.7344 8.19531 12.7344 8.19531 12.7344C8.11719 12.6302 7.96094 12.3698 7.72656 11.9531C7.49219 11.5104 7.36198 11.0286 7.33594 10.5078C7.36198 10.013 7.45312 9.6224 7.60938 9.33594C7.76562 9.04948 7.90885 8.85417 8.03906 8.75C8.0651 8.72396 8.07812 8.69792 8.07812 8.67188C8.3125 8.48958 8.50781 8.41146 8.66406 8.4375C8.82031 8.4375 8.96354 8.4375 9.09375 8.4375C9.09375 8.4375 9.10677 8.4375 9.13281 8.4375C9.26302 8.35938 9.40625 8.47656 9.5625 8.78906C9.61458 8.91927 9.69271 9.08854 9.79688 9.29688C9.90104 9.55729 9.99219 9.79167 10.0703 10C10.1484 10.2344 10.2005 10.3646 10.2266 10.3906C10.3047 10.5208 10.3177 10.651 10.2656 10.7812C10.0573 11.1458 9.88802 11.3802 9.75781 11.4844C9.57552 11.6406 9.53646 11.7969 9.64062 11.9531C10.0312 12.6562 10.4609 13.1901 10.9297 13.5547C11.3984 13.9193 11.9453 14.2448 12.5703 14.5312C12.7786 14.6615 12.9349 14.6484 13.0391 14.4922C13.1172 14.4141 13.2344 14.2839 13.3906 14.1016C13.5208 13.9193 13.638 13.763 13.7422 13.6328C13.8724 13.4505 14.0286 13.4245 14.2109 13.5547C14.3411 13.6068 14.5885 13.7109 14.9531 13.8672C15.3177 14.0495 15.5651 14.1797 15.6953 14.2578Z" fill="#121212"/>
</svg>
