<svg width="80" height="80" viewBox="0 0 80 80" fill="none" xmlns="http://www.w3.org/2000/svg">
<path d="M14.25 34.4375C14.25 34.125 14.25 33.8125 14.25 33.5C14.4062 28.1875 16.2422 23.7734 19.7578 20.2578C23.2734 16.7422 27.6875 14.9062 33 14.75C36.5156 14.8281 39.6797 15.6875 42.4922 17.3281C45.3047 19.0469 47.5703 21.3125 49.2891 24.125C51.0859 22.875 53.1562 22.25 55.5 22.25C58.7031 22.3281 61.3594 23.4219 63.4687 25.5312C65.5781 27.6406 66.6719 30.2969 66.75 33.5C66.75 34.9062 66.5156 36.2734 66.0469 37.6016C69.4844 38.3047 72.3359 40.0234 74.6016 42.7578C76.7891 45.4141 77.9219 48.5781 78 52.25C77.9219 56.4687 76.4766 60.0234 73.6641 62.9141C70.7734 65.7266 67.2187 67.1719 63 67.25H19.875C15.1094 67.0937 11.125 65.4531 7.92187 62.3281C4.79687 59.125 3.15625 55.1406 3 50.375C3.07812 46.625 4.13281 43.3437 6.16406 40.5312C8.19531 37.7187 10.8906 35.6875 14.25 34.4375Z" fill="white"/>
<path d="M38.4428 39.816C39.8161 40.0696 40.8679 40.7975 41.598 41.9997C42.2741 43.2332 42.3786 44.508 41.9116 45.8241C41.8003 46.0688 41.6228 46.2614 41.3793 46.402C41.0816 46.5739 40.7755 46.6063 40.4611 46.4992C39.8124 46.1881 39.5873 45.7046 39.786 45.0486C40.0387 44.3614 39.9932 43.7201 39.6495 43.1247C39.3057 42.5293 38.7731 42.1693 38.0516 42.0446C37.3842 41.8886 37.078 41.452 37.1329 40.7347C37.3045 40.0943 37.7411 39.7881 38.4428 39.816ZM39.1207 35.3651C41.91 35.8838 44.027 37.3317 45.4717 39.7091C46.1592 40.8999 46.5427 42.1579 46.6223 43.4832C46.7445 44.8199 46.5565 46.1193 46.0582 47.3812C45.9625 47.653 45.8064 47.8514 45.5899 47.9764C45.2922 48.1483 44.9648 48.1749 44.6077 48.0563C44.0017 47.7567 43.7902 47.2654 43.9732 46.5824C44.693 44.5791 44.543 42.663 43.5232 40.8341C42.4492 39.0365 40.8649 37.9486 38.7701 37.5703C38.1027 37.4143 37.7829 36.9855 37.8108 36.2838C38.0095 35.6279 38.4461 35.3216 39.1207 35.3651ZM39.8626 30.9314C41.8991 31.2712 43.728 32.0015 45.3494 33.1222C46.9978 34.2273 48.3376 35.673 49.3688 37.4591C50.4001 39.2453 50.9899 41.142 51.1384 43.1492C51.314 45.1407 51.0319 47.0897 50.2923 48.9962C50.181 49.2409 50.0171 49.4257 49.8006 49.5507C49.5029 49.7226 49.1968 49.755 48.8824 49.6478C48.2337 49.3368 48.0087 48.8532 48.2073 48.1973C48.7971 46.5938 49.0282 44.9629 48.9007 43.3045C48.7575 41.619 48.264 40.0455 47.4203 38.5841C46.5765 37.1227 45.4684 35.9222 44.096 34.9825C42.7235 34.0428 41.1955 33.4275 39.512 33.1366C38.8446 32.9806 38.5384 32.544 38.5933 31.8267C38.7649 31.1863 39.188 30.8879 39.8626 30.9314ZM32.8391 42.6725L30.5469 43.6711C31.1214 46.4787 32.4808 48.8332 34.625 50.7346L36.6594 49.2894C37.1309 48.9811 37.5864 48.9888 38.0258 49.3124L41.3748 51.9255C41.7914 52.3345 41.8826 52.8051 41.6485 53.3372L39.913 56.6125C39.6207 57.106 39.1913 57.2998 38.6249 57.1938C35.6638 56.3775 33.1689 54.9312 31.1401 52.8549C29.1541 50.79 27.7635 48.3813 26.9683 45.629C26.1845 42.8339 26.1794 39.9501 26.953 36.9775C27.1444 36.434 27.5269 36.159 28.1005 36.1526L31.8048 36.2873C32.367 36.3235 32.7289 36.6378 32.8904 37.2302L33.5024 41.4776C33.5202 42.0086 33.2991 42.4068 32.8391 42.6725Z" fill="#0D3F46"/>
</svg>
