<svg width="120" height="40" viewBox="0 0 120 40" fill="none" xmlns="http://www.w3.org/2000/svg">
<path d="M120 35.3796C120 37.5396 118.455 39.2906 116.544 39.2906H3.46C1.55 39.2906 0 37.5406 0 35.3786V4.1836C0 2.0236 1.55 0.266602 3.46 0.266602H116.544C118.455 0.266602 119.999 2.0236 119.999 4.1836L120 35.3796Z" fill="#121212"/>
<path d="M11.005 7.58398H22.688V18.982H11.005V7.58398Z" fill="#F25022"/>
<path d="M23.907 7.58398H35.59V18.982H23.907V7.58398Z" fill="#7FBA00"/>
<path d="M11.005 20.1719H22.688V31.5689H11.005V20.1719Z" fill="#00A4EF"/>
<path d="M23.907 20.1719H35.59V31.5689H23.907V20.1719Z" fill="#FFB900"/>
<path fill-rule="evenodd" clip-rule="evenodd" d="M47.644 29.5953L44.228 19.7253H46.09L48.428 26.9913L50.836 19.6973H52.292L54.7 26.9913L57.038 19.7253H58.844L55.428 29.5953H53.944L51.536 22.5533L49.128 29.5953H47.644ZM60.44 20.9993V19.3893H62.26V20.9993H60.44ZM60.51 29.5253V22.1333H62.204V29.5253H60.51ZM64.416 29.5253V22.1333H66.11V23.2813C66.586 22.5813 67.272 21.9793 68.42 21.9793C70.086 21.9793 71.052 23.0993 71.052 24.8213V29.5253H69.358V25.3253C69.358 24.1773 68.784 23.5193 67.776 23.5193C66.796 23.5193 66.11 24.2053 66.11 25.3533V29.5253H64.416ZM76.148 29.6793C74.412 29.6793 72.718 28.2933 72.718 25.8153C72.718 23.3653 74.384 21.9793 76.148 21.9793C77.366 21.9793 78.136 22.5953 78.668 23.2813V19.3053H80.362V29.5253H78.668V28.2933C78.122 29.0633 77.352 29.6793 76.148 29.6793ZM76.554 28.2093C77.688 28.2093 78.696 27.2573 78.696 25.8153C78.696 24.3873 77.688 23.4493 76.554 23.4493C75.392 23.4493 74.426 24.3453 74.426 25.8433C74.426 27.2713 75.406 28.2093 76.554 28.2093ZM85.99 29.6933C83.736 29.6933 82.07 27.9713 82.07 25.8433C82.07 23.7293 83.75 21.9793 86.018 21.9793C88.286 21.9793 89.952 23.7013 89.952 25.8433C89.952 27.9433 88.272 29.6933 85.99 29.6933ZM86.018 28.2233C87.39 28.2233 88.258 27.1453 88.258 25.8433C88.258 24.5413 87.32 23.4633 85.99 23.4633C84.632 23.4633 83.764 24.5273 83.764 25.8433C83.764 27.1313 84.702 28.2233 86.018 28.2233ZM93.452 29.5813L91.058 22.1333H92.794L94.278 27.2013L95.916 22.1053H97.358L99.01 27.2013L100.522 22.1333H102.216L99.794 29.5813H98.282L96.63 24.5273L94.964 29.5813H93.452ZM106.262 29.6653C105.212 29.6653 104.05 29.2873 103.126 28.5593L103.882 27.4113C104.68 28.0133 105.548 28.3213 106.304 28.3213C107.032 28.3213 107.452 28.0133 107.452 27.4953C107.452 26.9493 106.738 26.7533 105.926 26.5153L105.8 26.4733C104.708 26.1513 103.49 25.7033 103.49 24.2613C103.49 22.8613 104.652 22.0073 106.122 22.0073C107.046 22.0073 108.054 22.3293 108.838 22.8473L108.166 24.0513C107.452 23.6173 106.696 23.3513 106.08 23.3513C105.422 23.3513 105.044 23.6593 105.044 24.1213C105.044 24.6253 105.758 24.8493 106.57 25.1153C106.612 25.1293 106.668 25.1433 106.71 25.1573C107.788 25.4933 109.006 25.9833 109.006 27.3413C109.006 28.8953 107.802 29.6653 106.262 29.6653ZM44.714 15.8293V8.8293H47.144C49.344 8.8293 50.864 10.3393 50.864 12.3293C50.864 14.2993 49.344 15.8293 47.144 15.8293H44.714ZM45.504 15.0993H47.144C48.914 15.0993 50.044 13.8993 50.044 12.3293C50.044 10.7793 48.914 9.5593 47.144 9.5593H45.504V15.0993ZM54.764 15.9493C53.214 15.9493 52.084 14.7293 52.084 13.2493C52.084 11.7893 53.224 10.5493 54.784 10.5493C56.334 10.5493 57.474 11.7693 57.474 13.2493C57.474 14.7093 56.324 15.9493 54.764 15.9493ZM54.784 15.2593C55.904 15.2593 56.684 14.3593 56.684 13.2493C56.684 12.1393 55.854 11.2293 54.764 11.2293C53.644 11.2293 52.874 12.1393 52.874 13.2493C52.874 14.3593 53.694 15.2593 54.784 15.2593ZM60.234 15.8693L58.424 10.6593H59.244L60.604 14.8093L61.994 10.6393H62.634L64.034 14.8093L65.394 10.6593H66.194L64.374 15.8693H63.704L62.314 11.7893L60.914 15.8693H60.234ZM67.474 15.8293V10.6593H68.244V11.5593C68.584 10.9993 69.124 10.5493 70.014 10.5493C71.264 10.5493 71.994 11.3893 71.994 12.6193V15.8293H71.224V12.8093C71.224 11.8493 70.704 11.2493 69.794 11.2493C68.904 11.2493 68.244 11.8993 68.244 12.8693V15.8293H67.474ZM73.704 15.8293V8.5293H74.474V15.8293H73.704ZM78.624 15.9493C77.074 15.9493 75.944 14.7293 75.944 13.2493C75.944 11.7893 77.084 10.5493 78.644 10.5493C80.194 10.5493 81.334 11.7693 81.334 13.2493C81.334 14.7093 80.184 15.9493 78.624 15.9493ZM78.644 15.2593C79.764 15.2593 80.544 14.3593 80.544 13.2493C80.544 12.1393 79.714 11.2293 78.624 11.2293C77.504 11.2293 76.734 12.1393 76.734 13.2493C76.734 14.3593 77.554 15.2593 78.644 15.2593ZM84.264 15.9393C83.294 15.9393 82.334 15.3893 82.334 14.3093C82.334 13.1993 83.234 12.6193 84.544 12.6193C85.204 12.6193 85.664 12.7093 86.124 12.8393V12.6793C86.124 11.7593 85.564 11.2793 84.594 11.2793C83.984 11.2793 83.504 11.4293 83.024 11.6493L82.794 11.0193C83.364 10.7593 83.914 10.5793 84.674 10.5793C85.404 10.5793 85.974 10.7793 86.344 11.1493C86.704 11.5093 86.884 12.0093 86.884 12.6693V15.8293H86.124V15.0593C85.764 15.5193 85.174 15.9393 84.264 15.9393ZM84.414 15.3193C85.364 15.3193 86.134 14.7493 86.134 13.9293V13.4493C85.754 13.3393 85.254 13.2293 84.624 13.2293C83.664 13.2293 83.114 13.6493 83.114 14.2893C83.114 14.9393 83.714 15.3193 84.414 15.3193ZM90.684 15.9393C89.444 15.9393 88.214 14.9593 88.214 13.2393C88.214 11.5493 89.444 10.5493 90.684 10.5493C91.644 10.5493 92.264 11.0693 92.664 11.6493V8.5293H93.434V15.8293H92.664V14.7893C92.244 15.4093 91.634 15.9393 90.684 15.9393ZM90.824 15.2493C91.784 15.2493 92.694 14.4393 92.694 13.2293C92.694 12.0393 91.784 11.2393 90.824 11.2393C89.824 11.2393 89.004 11.9793 89.004 13.2493C89.004 14.4693 89.844 15.2493 90.824 15.2493Z" fill="white"/>
</svg>
