<svg width="26" height="24" viewBox="0 0 26 24" fill="none" xmlns="http://www.w3.org/2000/svg">
<path d="M11.6719 8.55469C11.724 8.84115 11.75 9.10156 11.75 9.33594C11.75 9.64844 11.724 9.9349 11.6719 10.1953L12.5703 10.9766C12.8568 11.237 12.9349 11.5625 12.8047 11.9531C12.7526 12.0312 12.7135 12.1094 12.6875 12.1875C12.6354 12.3177 12.5703 12.4349 12.4922 12.5391L12.375 12.7734C12.2969 12.8776 12.2318 12.9818 12.1797 13.0859C12.1276 13.1641 12.0625 13.2422 11.9844 13.3203C11.724 13.6328 11.4115 13.724 11.0469 13.5938L9.91406 13.2422C9.4974 13.5807 9.02865 13.8542 8.50781 14.0625L8.23438 15.1953C8.15625 15.5859 7.92188 15.8203 7.53125 15.8984C7.27083 15.9245 7.01042 15.9375 6.75 15.9375C6.48958 15.9375 6.22917 15.9245 5.96875 15.8984C5.55208 15.8203 5.30469 15.5859 5.22656 15.1953L4.95312 14.0625C4.45833 13.8542 4.0026 13.5807 3.58594 13.2422L2.49219 13.5938C2.10156 13.724 1.77604 13.6328 1.51562 13.3203C1.38542 13.138 1.25521 12.9557 1.125 12.7734L1.00781 12.5391C0.903646 12.3568 0.799479 12.1615 0.695312 11.9531C0.565104 11.5625 0.65625 11.237 0.96875 10.9766L1.82812 10.1953C1.80208 10.1432 1.78906 10.1042 1.78906 10.0781C1.73698 9.84375 1.71094 9.59635 1.71094 9.33594C1.71094 9.1276 1.73698 8.91927 1.78906 8.71094C1.78906 8.65885 1.80208 8.60677 1.82812 8.55469L0.96875 7.77344C0.65625 7.48698 0.565104 7.16146 0.695312 6.79688C0.773438 6.58854 0.864583 6.40625 0.96875 6.25C0.96875 6.25 0.981771 6.23698 1.00781 6.21094L1.125 6.01562C1.25521 5.80729 1.38542 5.61198 1.51562 5.42969C1.77604 5.11719 2.10156 5.02604 2.49219 5.15625L3.58594 5.50781C4.0026 5.16927 4.45833 4.89583 4.95312 4.6875L5.22656 3.55469C5.30469 3.16406 5.55208 2.92969 5.96875 2.85156C6.22917 2.82552 6.48958 2.8125 6.75 2.8125C7.01042 2.8125 7.27083 2.82552 7.53125 2.85156C7.92188 2.92969 8.15625 3.16406 8.23438 3.55469L8.50781 4.6875C9.02865 4.89583 9.4974 5.16927 9.91406 5.50781L11.0469 5.15625C11.4115 5.02604 11.724 5.11719 11.9844 5.42969C12.0625 5.50781 12.1276 5.59896 12.1797 5.70312C12.2318 5.78125 12.2969 5.8724 12.375 5.97656L12.4922 6.21094C12.5964 6.39323 12.7005 6.58854 12.8047 6.79688C12.9349 7.16146 12.8568 7.48698 12.5703 7.77344L11.6719 8.55469ZM6.75 7.46094C6.22917 7.48698 5.78646 7.68229 5.42188 8.04688C5.08333 8.38542 4.90104 8.8151 4.875 9.33594C4.90104 9.88281 5.08333 10.3255 5.42188 10.6641C5.78646 11.0286 6.22917 11.2109 6.75 11.2109C7.27083 11.2109 7.71354 11.0286 8.07812 10.6641C8.41667 10.3255 8.59896 9.88281 8.625 9.33594C8.59896 8.8151 8.41667 8.38542 8.07812 8.04688C7.71354 7.68229 7.27083 7.48698 6.75 7.46094ZM19.4453 21.1719C19.1849 21.224 18.9115 21.25 18.625 21.25C18.3385 21.25 18.0651 21.224 17.8047 21.1719L17.0234 22.0703C16.737 22.3568 16.4115 22.4349 16.0469 22.3047C15.8385 22.2005 15.6432 22.0964 15.4609 21.9922L15.2266 21.875C15.1224 21.7969 15.0182 21.7318 14.9141 21.6797C14.8359 21.6276 14.7578 21.5625 14.6797 21.4844C14.3672 21.224 14.276 20.9115 14.4062 20.5469L14.7578 19.4141C14.4193 18.9974 14.1458 18.5286 13.9375 18.0078L12.8047 17.7344C12.4141 17.6562 12.1797 17.4219 12.1016 17.0312C12.0755 16.7708 12.0625 16.5104 12.0625 16.25C12.0625 15.9896 12.0755 15.7292 12.1016 15.4688C12.1797 15.0521 12.4141 14.8047 12.8047 14.7266L13.9375 14.4531C14.1458 13.9583 14.4193 13.5026 14.7578 13.0859L14.4062 11.9922C14.276 11.6016 14.3672 11.276 14.6797 11.0156C14.7057 10.9896 14.7448 10.9635 14.7969 10.9375C14.9531 10.8073 15.1094 10.7031 15.2656 10.625L15.4609 10.5078C15.4609 10.5078 15.474 10.4948 15.5 10.4688C15.6562 10.3646 15.8385 10.2734 16.0469 10.1953C16.4115 10.0651 16.737 10.1562 17.0234 10.4688L17.8047 11.3281C18.0651 11.276 18.3385 11.25 18.625 11.25C18.9115 11.25 19.1849 11.276 19.4453 11.3281L20.2266 10.4688C20.487 10.1562 20.8125 10.0651 21.2031 10.1953C21.4115 10.2995 21.6068 10.4036 21.7891 10.5078L22.0234 10.625C22.1536 10.7031 22.2969 10.8073 22.4531 10.9375C22.5052 10.9635 22.5443 10.9896 22.5703 11.0156C22.8828 11.276 22.974 11.6016 22.8438 11.9922L22.4922 13.0859C22.8307 13.5026 23.1042 13.9583 23.3125 14.4531L24.4453 14.7266C24.8359 14.8047 25.0703 15.0521 25.1484 15.4688C25.1745 15.7292 25.1875 15.9896 25.1875 16.25C25.1875 16.5104 25.1745 16.7708 25.1484 17.0312C25.0703 17.4219 24.8359 17.6562 24.4453 17.7344L23.3125 18.0078C23.1042 18.5286 22.8307 18.9974 22.4922 19.4141L22.8438 20.5469C22.974 20.9115 22.8828 21.224 22.5703 21.4844C22.4922 21.5625 22.4141 21.6276 22.3359 21.6797C22.2318 21.7318 22.1276 21.7969 22.0234 21.875L21.7891 21.9922C21.6849 22.0703 21.5677 22.1354 21.4375 22.1875C21.3594 22.2135 21.2812 22.2526 21.2031 22.3047C20.8125 22.4349 20.487 22.3568 20.2266 22.0703L19.4453 21.1719ZM20.5 16.25C20.474 15.7292 20.2917 15.2865 19.9531 14.9219C19.5885 14.5833 19.1458 14.401 18.625 14.375C18.1042 14.401 17.6615 14.5833 17.2969 14.9219C16.9583 15.2865 16.776 15.7292 16.75 16.25C16.776 16.7708 16.9583 17.2135 17.2969 17.5781C17.6615 17.9167 18.1042 18.099 18.625 18.125C19.1458 18.099 19.5885 17.9167 19.9531 17.5781C20.2917 17.2135 20.474 16.7708 20.5 16.25Z" fill="#3BB24A"/>
</svg>
