<svg width="33" height="32" viewBox="0 0 33 32" fill="none" xmlns="http://www.w3.org/2000/svg">
<path d="M28.479 9.48438C28.7603 10.7344 28.729 11.9688 28.3853 13.1875C28.0415 14.4062 27.4165 15.4688 26.5103 16.375C25.604 17.25 24.5571 17.8594 23.3696 18.2031C22.2134 18.5156 21.0259 18.5469 19.8071 18.2969L11.1821 26.875C10.4321 27.625 9.52588 28 8.46338 28C7.40088 27.9688 6.49463 27.5781 5.74463 26.8281C5.05713 26.0469 4.69775 25.1406 4.6665 24.1094C4.69775 23.1094 5.05713 22.2031 5.74463 21.3906L14.4165 12.8594C14.1353 11.6094 14.1509 10.4062 14.4634 9.25C14.8071 8.0625 15.4165 7.01562 16.2915 6.10938C17.229 5.20313 18.2915 4.59375 19.479 4.28125C20.6978 3.9375 21.9321 3.92187 23.1821 4.23438C23.7759 4.39062 24.1665 4.76562 24.354 5.35938C24.5103 5.95313 24.3696 6.48438 23.9321 6.95312L21.2134 9.71875L21.4478 11.2188L22.9478 11.5L25.7603 8.73438C26.1665 8.29688 26.6821 8.15625 27.3071 8.3125C27.9321 8.5 28.3228 8.89062 28.479 9.48438ZM24.9634 14.7812C25.9321 13.75 26.4165 12.5625 26.4165 11.2188L23.7446 13.8906L19.479 13.1875L18.7759 8.92188L21.4009 6.25H21.354C20.0415 6.25 18.8853 6.73437 17.8853 7.70312C17.1978 8.39062 16.7603 9.1875 16.5728 10.0938C16.3853 10.9688 16.4634 11.875 16.8071 12.8125L17.0415 13.4688L7.479 23.0312C7.1665 23.3438 7.01025 23.7188 7.01025 24.1562C7.01025 24.5938 7.1665 24.9688 7.479 25.2812C7.76025 25.5938 8.11963 25.75 8.55713 25.75C8.99463 25.75 9.36963 25.5938 9.68213 25.2812L19.2446 15.7188L19.9009 15.9531C20.8071 16.2656 21.6978 16.3125 22.5728 16.0938C23.479 15.875 24.2759 15.4375 24.9634 14.7812ZM8.74463 23.0781C9.24463 23.1406 9.479 23.3906 9.44775 23.8281C9.4165 24.2969 9.18213 24.5469 8.74463 24.5781C8.33838 24.5469 8.104 24.2969 8.0415 23.8281C8.07275 23.3594 8.30713 23.1094 8.74463 23.0781Z" fill="#121212"/>
</svg>
