<svg width="18" height="18" viewBox="0 0 18 18" fill="none" xmlns="http://www.w3.org/2000/svg">
<g clip-path="url(#clip0_639_5332)">
<path d="M17.8818 5.2309C17.8818 3.64887 16.7182 2.37621 15.2803 2.37621C13.3326 2.28516 11.3463 2.25 9.31637 2.25H8.68356C6.65856 2.25 4.66872 2.28516 2.72106 2.37656C1.28669 2.37656 0.123017 3.65625 0.123017 5.23828C0.0351259 6.48949 -0.00213973 7.74105 -3.03527e-05 8.99262C-0.00354598 10.2442 0.0362978 11.4969 0.119501 12.7508C0.119501 14.3329 1.28317 15.6161 2.71755 15.6161C4.76364 15.711 6.86247 15.7532 8.99645 15.7496C11.134 15.7567 13.2269 15.7121 15.2754 15.6161C16.7132 15.6161 17.8769 14.3329 17.8769 12.7508C17.9613 11.4957 18 10.2442 17.9965 8.9891C18.0044 7.73754 17.9662 6.4848 17.8818 5.2309ZM7.27731 12.4414V5.53324L12.375 8.98559L7.27731 12.4414Z" fill="#C7E1E5"/>
</g>
<defs>
<clipPath id="clip0_639_5332">
<rect width="18" height="18" fill="white"/>
</clipPath>
</defs>
</svg>
